<svg width="194" height="150" xmlns="http://www.w3.org/2000/svg" xmlns:xlink="http://www.w3.org/1999/xlink" style="margin-left:auto;margin-right:auto" display="block"><defs><clipPath id="c0_1"><path d="M84.5 150.5v-50h29v50z"/></clipPath><clipPath id="c1_1"><path d="M.5 150.5V.5h194v150z"/></clipPath><style>.g2_1{fill:none;stroke:#fff;stroke-width:2;stroke-linecap:round;stroke-linejoin:miter}.g1_1{fill:#fff}.s1_1,.s2_1{font-size:18.41px;font-family:Lato-Regular_n1;fill:TRANSPARENT}.s2_1{font-family:Lato-Regular_81}</style></defs><path d="M0 0v150h194V0z" fill="none"/><use xlink:href="#C2_0_50" transform="matrix(.01205 0 0 -.01205 22.1 133.2)" fill="#fff"/><use xlink:href="#C2_0_118" transform="matrix(.01205 0 0 -.01205 30.9 133.2)" fill="#fff"/><use xlink:href="#C2_0_60" transform="matrix(.01205 0 0 -.01205 37.2 133.2)" fill="#fff"/><use xlink:href="#C2_0_46" transform="matrix(.01205 0 0 -.01205 46.9 133.2)" fill="#fff"/><use xlink:href="#C2_0_2463" transform="matrix(.01205 0 0 -.01205 55.9 133.2)" fill="#fff"/><use xlink:href="#C2_0_137" transform="matrix(.01205 0 0 -.01205 67.3 133.2)" fill="#fff"/><use xlink:href="#C2_0_60" transform="matrix(.01205 0 0 -.01205 76.5 133.2)" fill="#fff"/><use xlink:href="#TT0_115" transform="matrix(.01205 0 0 -.01205 110.8 133.1)" fill="#fff"/><text x="22" y="133" dx="0,0,-0.4,0,-0.1,0,0,-0.3" class="s1_1">creative</text><use xlink:href="#TT0_60" transform="matrix(.01205 0 0 -.01205 121.1 133.1)" fill="#fff"/><use xlink:href="#TT0_118" transform="matrix(.01205 0 0 -.01205 130.8 133.1)" fill="#fff"/><use xlink:href="#TT0_99" transform="matrix(.01205 0 0 -.01205 137.5 133.1)" fill="#fff"/><use xlink:href="#TT0_60" transform="matrix(.01205 0 0 -.01205 141.9 133.1)" fill="#fff"/><use xlink:href="#TT0_110" transform="matrix(.01205 0 0 -.01205 151.6 133.1)" fill="#fff"/><use xlink:href="#TT0_50" transform="matrix(.01205 0 0 -.01205 161.9 133.1)" fill="#fff"/><use xlink:href="#TT0_60" transform="matrix(.01205 0 0 -.01205 170.5 133.1)" fill="#fff"/><text x="110" y="133" dx="0,0,0,0,0,0,0,-0.2" class="s2_1">perience</text><g clip-path="url(#c0_1)"><path d="M92.8 138.6c-.1 0-.1 0 0 .1v-.1m2.4-1.3c.1-.1.1-.1.1-.2 0 0-.1.1-.1.2m.6-11.9h-.1c.1 0 .1.1.1.2h.1c-.1-.1-.1-.2-.1-.2m-.9-8.5h.1c-.1 0-.1 0-.2-.1v.1h.1m9.3 21.3v-.1s-.1-.1-.2-.1c.1 0 .1.1.2.2m-8.1-11v.1s0 .1.1.1c0 0 0-.1-.1-.2m5.6 8.4c-.1 0-.1-.1-.2-.2v.1c.1 0 .1.1.2.1m-9.4 7v-.1c-.1.1-.1.2-.1.2l.1-.1m1.2-16.7l-.1-.3c0 .1.1.2.1.3m2-8.7v-.1h-.2c.1 0 .1.1.2.1m-4.6 24.7c0 .1-.1.2-.1.2s.1-.1.1-.2m5.9-5.2c-.1.1-.1.2-.2.3h.1zm-2.7.3c-.2 0-.2 0-.2.1.1 0 .1-.1.2-.1m-1.7 3.7c0-.1 0-.1.1-.2h-.1s0 .1-.1.1l.1.1m-1.5-19.3c0-.1-.1-.2-.1-.3h-.1c.1.1.1.2.2.3m1.8 3.1h-.1c.1.1.1.2.2.2 0-.1-.1-.1-.1-.2m.8 14.5c.1-.1.2-.2.2-.3-.1.1-.1.2-.2.3m-4.2-20.1h.1c-.1-.1-.1-.2-.2-.3.1.1.1.2.1.3m1.2 23.6c0-.1.1-.2.1-.2v-.1zm-2.4 3.5l-.1-.1c0 .1-.1.2-.1.3zm10.3-11.2c-.2.1-.2.1-.2.2.1 0 .1-.1.1-.1s0-.1.1-.1m-5.9 5.7c.1-.1.1-.2.1-.2-.1 0-.1.1-.1.2m2.4-4.2c0-.1.1-.1.1-.2-.1 0-.1.1-.1.2M93.7 126v-.1s-.1-.1-.1-.2h-.1c.1.1.2.2.2.3m9.7 11.3v.1c.1 0 .1.1.2.2l-.2-.3m-11.5-14.1c0 .1.1.2.2.3-.1-.1-.1-.2-.2-.3m.6 15.1l.2-.2c-.1 0-.1.1-.2.2m5.1-2.9v-.1c-.1.2-.1.3-.2.4.1-.1.1-.2.2-.3m-6.3-13.2c0-.1-.1-.2-.1-.3 0 .1.1.2.1.3m2.2 18.2h.1c0-.1.1-.2.2-.3h-.1c0 .1-.1.2-.2.3m1.9-15.6c.1.1.1.2.2.3 0-.1-.1-.2-.2-.3m-3.5-1.9c-.1-.1-.1-.2-.2-.3 0 .1.1.2.2.3m8.9 7.8h-.1l-.1.3c.1-.1.1-.2.2-.3m7.7-13.6h.3-.3m-13.6 17.4h-.1c0 .1-.1.2-.1.3.1-.1.1-.2.2-.3m-2.1-10c0-.1-.1-.2-.2-.3.1.1.1.2.2.3m2.1-.8l.1.3h.1c-.1-.1-.1-.2-.2-.3m-.4-.9c0-.1-.1-.2-.1-.3h-.1c.1.1.1.2.2.3m15.3 20.1h.1c-.1-.1-.1-.1-.2-.1 0-.1 0 0 0 0 0 .1.1.1.1.1m-18.4.2c-.1.1-.1.2-.2.3.1-.1.1-.2.2-.3m3-4.2c.1-.1.1-.2.2-.3h-.1c0 .1-.1.2-.1.3m15.6-22c-.1 0-.2-.1-.3 0h.3M91.2 141c-.1.1-.1.2-.2.3.1-.1.2-.2.2-.3m2.9-4.5h.1s0-.1.1-.1c0-.1 0-.1-.1-.1 0 0 0 .1-.1.2m.2-.1v.1h.1c0-.1.1-.2.1-.2-.1 0-.1.1-.2.1m8.2-8.5c-.2.1-.2.1-.2.2l.2-.2m5.6-10.9v.1h.2v-.1h-.2m-13-.1c0 .1.1.1.1.1s.1 0 .1-.1h-.2m1.3 15.1v-.1l-.2.4c.1-.1.2-.2.2-.3m-2.6 6.5s-.1 0-.1.1v.1c.1-.1.1-.1.1-.2m1.8-3.1h.1c.1-.1.1-.3.2-.5zm-3.8 5l.2-.2c-.1 0-.2.1-.2.2m-.4.8v-.1.1h-.1v.2c.1-.1.1-.2.1-.2m2.1-15.5v-.1c0-.1-.1-.2-.2-.3.1.1.1.2.2.4m15.9-8.6h.5zm-17.6 23h.1c0-.1 0-.1.1-.2h-.2v.2m10-4c.1 0 .3.2.3.2v.1l-.3-.3m-2.9-8.6h.1c0-.2.1-.3.2-.4h-.1zm-4.2.1l.3.4c-.1-.1-.2-.3-.3-.4m.9.8c-.1-.1-.2-.3-.3-.4.1.1.2.3.3.4m-.3 7.5v.1c.1-.2.1-.3.2-.5-.1.2-.2.3-.2.4m-1.6.9c.1 0 .2-.1.1-.2 0 .1-.1.1-.1.2m.5 1.2c.1-.1.2-.2.1-.3 0 0-.1.2-.1.3m16.9 5.2c-.2-.1-.3-.2-.4-.3h-.1c.2.1.3.2.5.3m-23.7 3.7c.1-.2.2-.4.3-.5-.1.1-.2.3-.3.5m4.8-23.2l.3.5zm4.2 11.8c.2-.1.2-.2.2-.3-.1.1-.1.2-.2.3m-2.9 1.1c.1-.1.1-.2.1-.3l-.1.1v.2m-2.9 5.4c.1 0 .1-.1.1-.1v-.1h-.1c0 .1 0 .1-.1.2l.1-.1v.1m3.4-5.5c-.1.1-.1.2-.1.3.2 0 .1-.2.1-.3m-1-11.7c0 .1.1.3.2.4 0-.2-.1-.3-.2-.4m4.5 11.4h.1c0-.1.1-.3.2-.4-.1.1-.2.2-.3.4m-2-.8c0-.1-.1-.1-.1-.1 0 .2-.1.3-.2.4v.1c.1-.1.2-.3.3-.4m.9-8.8v-.1c-.1-.1-.2-.3-.3-.4.1.1.2.3.3.5m-5-4.5l-.3-.6.3.6m-3 23.3s-.2.2-.2.3c.1-.1.2-.1.2-.3m7-28.4c.1.1.3.1.4.1-.1 0-.1 0-.2-.1 0-.1-.1 0-.2 0m-8.6 30.7c.2-.2.3-.4.5-.6h-.1c-.1.2-.3.4-.4.6m11.5-19.1c.2-.1.2-.3.2-.4-.1.1-.1.3-.2.4m-4.4 8.4h-.1s-.1.1-.2.1v.3c.1-.2.2-.3.3-.4m-4.2 6.3c-.1.1-.2.2-.2.3.1-.1.2-.1.2-.3m4.6-4.2l-.3.6c.1-.2.3-.5.3-.6m11.5.5l-.6-.6v.1c.2.1.4.3.6.5m-12.2 2c-.2.2-.2.2-.2.4.1-.1.1-.2.2-.3h-.1v.1c0-.1 0-.2.1-.2m5.3-14l-.3.6c.1-.1.3-.5.3-.6m-1.8-10.4v-.1h-.2c.2.1.2.1.2.2v-.1zm-.6 19.1c0 .1-.1.3-.2.4l.1.1c0-.1 0-.2.1-.2 0-.1 0-.3.1-.3s.1 0 .1-.1c-.1.1-.1.1-.2.1m-5 4.2h.1s0-.1.1-.1c0-.1 0-.1-.1-.2 0 .1-.1.2-.1.3m17.7.6c.2.2.4.3.6.5v-.1c-.2-.1-.4-.3-.6-.4m-12-7.6c-.1.1-.1.2-.2.3 0 0 0 .1-.1.2 0 0-.1.1 0 .2.1-.1.3-.6.3-.7m11.5-16.5h.4s.1 0 .1-.1c-.2.1-.4 0-.5.1m-6.1 19.6l.7.7-.7-.7m-8.8 1.8c.1-.2.2-.4.3-.5v-.1l-.3.6m-3.9 5.1c.1-.1.1-.2.2-.3-.1 0-.1.1-.1.1h-.1c-.1 0-.2.2-.1.3 0 0 0-.2.1-.1m1.2-.8c-.1 0 0 .1 0 .1v.2c-.1.1-.2.2-.3.4l-.1.1c.2-.2.4-.5.5-.7-.1 0-.1 0-.1-.1m3.4-15.6c-.1-.2-.2-.3-.2-.4-.2-.2-.3-.4-.4-.5 0-.1 0-.1-.1-.1.2.3.4.7.7 1m.3 10c.1 0 .1-.1.1-.1v-.1c.1 0 .1 0 .1-.1-.2 0-.2.2-.2.2h-.1c.1.2-.1.3-.1.5 0-.1.1-.1.1-.2 0 0 .1-.1.1-.2m-.4 0h.1c.2-.2.3-.5.4-.8-.1.3-.3.5-.5.8m-.5-20.4c.3.1.5.2.8.2v-.1h-.4v-.1l.1.1v-.1h-.3c0 .1-.1 0-.1 0h-.1m-3.7 26.2c-.1 0-.1 0-.1-.1.1-.1.1-.1.1-.2-.1.2-.2.3-.3.5l.1-.1c0-.1 0-.1.1 0-.2.1 0 .1 0 .2.1-.1 0-.2.1-.3m5.8-25.8c.1.1.3.1.4.1v-.1c.1 0 .2 0 .1.1.1 0 .2-.1.3-.1-.3 0-.6-.1-.9-.1 0 0-.1 0 0 0 0 .1.1.1.1.1m-1.2 10.3v.1c.3.4.6.9 1 1.4 0-.1 0-.2-.1-.2-.1-.2-.2-.3-.4-.5 0-.1-.1-.2-.2-.3-.1-.1-.1-.2-.2-.3 0-.1-.1-.1-.1-.2m5.6-3c-.3.5-.5 1.1-.8 1.7.3-.6.6-1.1.8-1.7m-3.4 6.1c.1 0 .1-.1.1-.1l-1.2-1.5v.1c0 .1.1.1.1.2.2.2.3.3.4.5.2.2.4.4.6.7v.1m-8-13c0-.1-.6-1.9-.8-1.9.3.6.5 1.3.8 1.9m12.9-.4h-.7c-.1-.1-.2-.1-.3 0h.1v.1c-.1 0-.2-.1-.2-.1h-.1c-.2 0-.3 0-.5.1h-.3c.1 0 .2 0 .3.1v.1h-.1v.1h-.1c-.1 0-.2-.1-.3-.1-.3 0-.6-.1-.9-.1h-1.5v.1c.1 0 0 0 0 0-1.3 0-2.5-.2-3.7-.6v.1l-.1-.1c-.1-.1-.2-.1-.3-.1.1.2.1.4.2.6v.3h.1v.6l.1.1v-.3c.1.4.1.7.2 1h-.1c0 .1 0 .2.1.3 0 .2.1.4.1.6.1.2.2.5.3.8.1.1.2.3.2.5.2.3.3.6.4.8.1.3.3.6.4.9.1.3.3.6.4.8.2.4.3.7.5 1 .1.2.1.3.2.5.2.3.3.6.5.9.2.3.3.5.5.8.2.4.4.7.6 1.1.1.2.2.3.4.5 0-.1.1-.3.2-.4.1-.2.1-.3.3-.5 0 0 .1-.1.1-.2s0-.1.1-.2l-.1.1c0-.1 0-.2.2-.3v-.1c0-.1 0-.2.1-.2 0-.1.1-.4.2-.4v-.2c.1 0 .1-.1.2-.2 0-.1 0-.3.2-.4v-.1c0-.1 0-.2.1-.2.2-.5.4-1 .6-1.4.2-.6.4-1.1.6-1.6.1-.2.2-.5.3-.7v-.1c-.1 0-.1 0-.1.1-.1 0-.1 0-.1.1s0 .2-.1.2c-.1.3-.2.6-.3.8-.1.4-.3.8-.5 1.1-.1.3-.2.5-.3.7 0 .1-.1.2-.1.4-.1.3-.3.5-.4.8-.1.3-.2.5-.3.7-.2.3-.3.6-.5 1v-.1c.1-.2.2-.5.3-.7l.3-.6c.1-.2.1-.3.2-.5s.2-.5.4-.8c.1-.2.2-.5.3-.7.1-.3.2-.6.4-.9.1-.3.2-.6.3-.8 0-.2.1-.3.2-.5.1-.3.2-.6.3-.8.1-.5.2-.9.3-1.3.2-.4.2-.8.3-1.2.1-.4.1-.8.2-1.2 0-.1 0-.2-.2-.2.1.1.1.1.1.2v.1l-.1-.1h-.1v-.1h.1l-.1-.1-.1.1h.1M89 144.7l-.1-.1c.1 0 .1-.1.1-.1l-.1-.1c0 .1-.1.2-.1.3h.2c0 .1 0 .1-.1.2l.1-.1v.1c.3-.4.6-.9.9-1.3h-.1s-.1.1-.1.2v-.1c-.1 0-.1.1-.2.1v.2h-.1c0 .1-.1.2-.1.2 0 .1 0 .1-.1.2-.1 0-.1.1-.2.3m3-21.5c.1 0 0-.1-.1-.2 0 .1.1.2.1.2 0 .1.1.1.1.1.1.2.2.4.3.5 0 .2.1.3.2.4v-.1c-.2-.2-.2-.4-.3-.5-.1-.1-.1-.2-.2-.3 0 0 0-.1-.1-.1m3.3 13.2c-.1 0-.1-.1-.1-.2-.1.2-.2.3-.2.5 0-.1.1-.2.2-.2 0 0-.1.1-.1.2.1-.1.1-.2.2-.3.1-.2.2-.3.2-.5-.1 0-.1 0-.2.1h.1v.2c-.1 0-.1.1-.1.2m-6.8-19.8c0 .1.1.2.1.3h.1c-.1-.1-.1-.3-.2-.3-.1-.3-.1-.5-.3-.7.1.1.1.2.2.4 0 .1.1.2.1.3m8.8 18.4c0 .1-.1.1-.1.2-.1.1-.1.2-.2.2h.1l-.1.1c0 .1-.1.1-.1.2l-.1.1c0 .2-.2.3-.2.4.1 0 .1-.1.2-.2 0-.1.1-.2.1-.2 0-.1.1-.2.1-.3h.1c0-.1.1-.2.1-.3.1-.1.1-.2.1-.2.1-.1.2-.2.2-.3-.1.1-.1.2-.2.3m-10.6 12.9v.2c.1-.1.1-.2.2-.2h-.2s.1 0 .1-.1c-.2.2-.3.3-.2.5v-.2c0-.1.1-.1.1-.2m2.5-3.8h.1c0-.1.1-.1.1-.2s.1-.1.1-.2c-.1.1-.2.2-.3.4 0 .1-.1.2-.2.3.1 0 .2-.2.2-.3m9.4-10.3c0-.1.1-.1.1-.2s.1-.2.1-.3c-.1.2-.1.3-.2.5-.1 0-.1.1-.2.2h.1c0-.1 0-.1.1-.2m-10.1 11.4c-.1 0-.1.1-.2.2l-.2.2c.1 0 .1.1.1.1.1-.2.2-.4.3-.5 0-.1.1-.2.2-.3h-.1c0 .1-.1.2-.1.3m6.4-17.8c0-.1-.1-.2-.2-.2l.2.2c.1.1.1.3.3.4v-.1l-.3-.3m-5.4-8.1c0-.1 0-.2-.1-.3 0 .1.1.2.1.3.1.1.1.2.2.4v-.1c-.1-.1-.1-.2-.2-.3m-.7-2c0 .1.1.2.1.3v.1c.1.1.1.3.2.4v.1l.1-.1c-.1-.1-.1-.2-.2-.3 0-.1-.1-.1-.1-.2s-.1-.2-.1-.3c0-.1-.1-.2-.1-.3 0 .1.1.2.1.3m5.7 17.5v-.1h.1l.1-.1v-.2c.1-.1.1-.2.2-.3l.1-.1c-.1.1-.1.2-.2.3.1 0 .3-.4.3-.5 0 .1-.1.2-.1.2.1-.1.1-.2.2-.3v.1c.1-.2.2-.3.3-.4h-.1s-.1.1-.1.2h-.1c.1-.1.1-.1.1-.2.2-.2.3-.4.4-.6.2-.2.4-.5.5-.7.1 0 .1-.1.1-.2.1 0 .1-.1.1-.1l.1-.1c0-.1 0-.1.1-.2 0 0 .1-.1.1-.2l.1-.1c.1-.1.1-.2.1-.3-.1.1-.1.2-.2.2 0 0 0-.1.1-.2 0 0 0-.1.1-.1.1-.1.1-.1 0-.3l-.3-.3c-.1-.2-.3-.4-.4-.6-.1-.1-.2-.2-.3-.4-.2-.2-.4-.5-.6-.7-.2-.2-.3-.5-.5-.7-.1-.2-.3-.4-.4-.6-.3-.3-.5-.7-.7-1l-.6-.9-.3-.6c-.2-.3-.5-.6-.7-.9-.1-.3-.3-.7-.5-1-.1-.1-.2-.3-.3-.4-.2-.4-.4-.9-.6-1.3-.3-.5-.5-.9-.7-1.4-.1-.3-.2-.5-.3-.7l-.3-.6c-.1-.2-.2-.5-.3-.7 0-.1 0-.1-.1-.2.2.5.3.9.5 1.3v.1c-.1-.1-.1-.3-.2-.4 0-.1-.1-.2-.1-.3.1.5.3.9.5 1.4.2.4.4.8.6 1.3-.1-.1-.1-.2-.2-.3l.1.1c0 .1 0 .2.1.3l-.1.1h.1c-.1-.1-.1-.2-.2-.3-.1-.1-.1-.3-.1-.4h.1c-.2-.2-.3-.4-.4-.7v.1c.1.1.1.2.1.3.1.1.1.2.2.3-.1-.1-.1-.2-.2-.3-.1 0-.1-.1-.2-.2 0 0 .1-.1 0-.1 0-.1-.1-.2-.1-.2v-.1c0-.1 0-.1-.1-.1v-.2c-.1-.1-.2-.2-.1-.3h-.1c0-.1-.1-.1 0-.1v-.1c-.1 0-.1-.1-.1-.2l-.1-.1c-.1-.1-.1-.2-.1-.2 0-.1 0-.2-.1-.2v-.2c-.1-.1-.1-.2-.1-.3 0 0 0-.1-.1-.1 0-.1 0-.2-.1-.2v-.1c0-.1-.1-.1-.1-.2-.1-.2-.2-.4-.2-.6-.1-.2-.1-.3-.2-.5s-.2-.5-.3-.7c0-.1 0-.1-.1-.2-.1.1-.1 0-.1 0 0-.2-.1-.3-.1-.4.1-.1.2-.1.2-.2s.1-.1.1-.1c-.1 0-.2-.1-.3-.2-.3-.1-.6-.3-.9-.4-.2-.2-.4-.3-.7-.4l-.2-.2c-.1 0-.1 0-.2-.1l.1-.1c.1-.1.1-.2.1-.4.1-.1.1-.2.2-.3 0-.2.1-.3.2-.4 0-.1-.1-.1-.1-.1-.1 0-.1-.1 0-.1v-.1l.3-.3h.1c0-.1 0-.2.1-.2 0-.1.1-.1.1-.1.1-.1.2-.3.3-.3.1 0 .1-.1.1-.2-.1 0-.1-.1 0-.1.1-.2.2-.5.4-.7l.1-.1c.1-.1.2-.2.2-.3 0 0 .1-.1.2-.1h.1c0-.1.1-.1.1 0s.1.1.1 0l.3-.3c.1-.1.2-.1.2 0 .2.1.3.3.5.4.3.2.5.5.8.7l.9.6c.2.2.5.4.7.6.3.2.7.4 1 .7.3.2.6.3.9.5.2.1.4.2.6.4.1 0 .2.1.4.1.4.3.8.5 1.2.7.3.2.7.3 1 .5.2 0 .4.2.6.2.2.1.4.2.6.2.1.1.2.1.2.2h.1c.1 0 .2.1.4.1.1 0 .3.1.4.1.3.1.5.1.7.1.1.1.2.1.3.1h.5c.6.1 1.1.1 1.7.1.3.1.6.1.9.1h.9s.1.1.2.1h-.1c.2 0 .3.1.5.1h-.2c.1.1.3.1.5.1l-.3.1c.1.1.2.1.4.1h-.1c.1.1.3.1.4.1-.1 0-.2 0-.3.1.1 0 .3 0 .5.1h-.6v.1h.3c.1 0 .1 0 .2.1h.2c.1.1.1.1.2.1h-.3 3.2c.1.1.2 0 .3.1h.4-.1c.1.1.3.1.5.1-.4.1-.8.1-1.2.2h.6c.1 0 .1 0 .2-.1 0 .1.1.1.2.1h.3v.1h-.1s.1.1.1 0c.1-.1.2 0 .2 0h.8c-.3.1-.5.1-.7.1l-.1.1h.1c.1-.1.2 0 .3-.1h.4v.1h-.1c.1 0 .2 0 .2.1h-.2c-.1 0-.1.1-.2 0 0 .1 0 .1-.1.1-.4 0-.8.1-1.2.1v.1h-.5c.3 0 .5 0 .8.1h-.4c.3 0 .5.1.8.1-.2.1-.3.1-.5.1h.1v.1h.3v.1h.3c.1.1.2.1.3.1h-.7c.3.1.6.1.9.1 0 .1-.1.1-.2.1h-.8c-.1 0-.2 0-.3.1h-.1v.1h-.3c.1 0 .2-.1.3-.1 0-.2-.1-.2-.4-.2v.1h-.3s0-.1-.1-.1c0 .1.1.1.1.1-.1.1-.1.1-.2.1 0-.1 0-.1.1-.1h-.4c0-.1.2.1.2-.1-.1 0-.1-.1-.2 0h-.1s-.1-.1-.1 0c0 0-.1-.1-.2-.1 0 0 0 .1-.1.1 0 0 .1 0 .1.1h-.2v-.2h-.3c0 .1-.1 0-.1 0h-.3v.9c-.1 0-.1.1-.1.2 0 .4-.1.7-.2 1 0 .4-.1.7-.2 1.1-.1.1-.1.2-.1.3 0 .1-.1.1-.1.1-.1.3-.3.5-.4.8-.1.1-.1.1-.1.2-.1.2-.2.4-.3.5-.1.2-.1.4-.2.5-.1.1-.2.3-.3.4-.1 0-.1 0-.1.1v.1c-.1.1-.2.2-.2.3 0 .1 0 .1-.1.2l-.3.6c-.1.1-.1.3-.2.4l-.6 1.2c-.1.1-.2.3-.3.4-.1.1-.1.2-.1.3-.1 0-.1.1-.1.1-.1 0-.1.1-.1.2-.1.1-.1.2-.2.3 0 .1-.1.2-.1.3-.1.1-.2.3-.2.4-.1.1-.1.2-.2.3v-.1s0-.1.1-.2c0 0 0-.1.1-.2h-.1c-.1.2-.1.3-.2.4v.1c-.1.1-.2.2-.2.3.1 0 .2-.2.2-.3v.2c-.1.2-.2.4-.4.6 0-.1.1-.2.1-.3 0 .1-.1.1-.1.1-.1.2-.2.3-.3.5v.1c-.1.2-.2.3-.3.5 0 0-.1.1-.1.2 0 0-.1.1-.1.2v-.1h-.1c0 .1-.1.3-.2.4h.1c-.1.1 0 .1 0 .2.2.3.4.5.6.8.3.4.6.8 1 1.1.1.3.3.5.5.7.3.4.7.8 1 1.1.3.4.6.7.8 1l.6.6c.3.3.5.6.8.8l.7.7c.1.1.1.2.2.3.1.1.2.1.3.2 0 0 .1.1.1.2.1 0 .1 0 .2.1l.6.6c.2.1.4.3.6.4.2.1.3.2.4.3.5.4.9.7 1.3 1 .1.1.2.1.3.2 0 .1.1.1.1.2-.2-.1-.3-.2-.5-.3 0 0 0 .1.1.1.1.1.2.2.3.2l.2.2c.1 0 .1.1.1.1-.2-.1-.4-.3-.6-.4v.1c.2.1.5.3.7.4.2.2.4.3.6.5.2.1.4.3.5.4.1 0 .1.1.1.1-.2-.1-.4-.3-.7-.4.1.1.2.2.4.3-.1 0-.2-.1-.3-.1v-.1c-.2-.1-.3-.1-.4-.2v.1c.2.1.3.2.5.3.1.1.2.1.3.2.2.1.3.2.5.4-.1 0-.3-.1-.5-.3v.1c0-.2-.1-.2-.2-.2 0-.1-.1-.1-.2-.2v.1l-.2-.1c.5.4 1.1.7 1.6 1.1l-.5-.2.9.6c-.1 0-.3-.1-.3-.2-.4-.2-.7-.4-1-.6h-.1s-.1 0-.1-.1 0-.1-.1-.1c0 0-.1 0-.1-.1 0 0 0-.1-.1 0-.1 0-.1-.1-.1-.2h-.1s-.1-.1-.2-.1c.1 0 .1.1.2.1-.2-.1-.4-.2-.6-.4-.1 0-.1-.2-.3-.1-.3-.3-.7-.5-1.1-.8 0 .1 0 .1.1.1l.3.3s.1.1.2.1c.2.2.5.4.7.5.2.1.3.2.4.3.1.1.3.2.4.3-.4-.2-.8-.5-1.2-.8 0 .1.1.2.1.2.1 0 .2.1.3.2.1 0 .1.1.2.1h-.1c-.1-.1-.2-.1-.3-.2-.1-.1-.2-.2-.3-.2-.1-.1-.1-.1-.2-.1-.1-.1-.2-.1-.3-.2 0-.1-.1-.1-.2-.1 0-.1-.1-.1-.2-.2v-.1c-.1 0-.1-.1-.2-.1 0-.1-.1-.1-.1-.2v.1c-.1 0-.2-.1-.2-.2h-.2v-.1c0-.1-.1-.1-.2-.2v.1c-.3-.2-.5-.4-.7-.6h.2-.1c-.1-.1-.1-.2-.2-.2l-.1-.1c.1 0 .1 0 .2.1.2.1.4.3.5.4l.3.3s0-.1-.1-.1l.2.2c.2.1.4.3.5.4h.3c-.1-.1-.3-.2-.4-.3-.1-.1-.2-.2-.3-.2-.2-.1-.3-.3-.4-.3-.1-.1-.2-.2-.3-.2v-.1c-.1-.1-.2-.1-.2-.2l-.1-.1c-.1.1-.1 0-.1 0-.1-.2-.2-.2-.3-.3l-.1-.1-.2-.2c-.1-.1-.3-.2-.4-.3-.1-.1-.1-.1-.2-.1 0 .1.1.2.1.2l.1.1.3.3c.1 0 .1.1.1.1l-.3-.3c-.1-.1-.2-.1-.3-.2.4.4.8.8 1.3 1.1 0 .1-.1.1-.1.1 0-.1-.1-.1-.2-.2 0-.1-.2-.2-.3-.2 0-.2-.2-.2-.3-.3 0-.1-.1-.1-.2-.1v-.1c-.1-.1-.3-.2-.4-.3 0-.1-.1-.1-.2-.2h-.1v-.2l-.1.1-.1-.1s-.1 0-.1-.1c-.2-.1-.3-.3-.5-.4v-.1c-.1 0-.1 0-.2-.1-.2-.1-.3-.3-.5-.4v-.1c0-.1-.1-.1-.2-.2 0 0 0-.1-.2-.2 0 .1.1.1.1.2 0-.1-.1-.1-.1-.1v.1c.1.2.3.3.4.5h.1c-.2-.1-.3-.2-.4-.3l-.3-.3h.1v-.2l-.2-.2h-.1c.1 0 .1.1.2.2-.1-.1-.2-.1-.2-.2v-.1c-.1-.1-.2-.1-.3-.1.1-.1.1-.1 0-.2-.1 0-.1-.1-.2-.1l-.4-.4-.1-.1c-.1-.1-.1-.2-.2-.2 0 0-.1 0-.1-.1-.1-.1-.3-.2-.4-.4 0 0-.1 0-.2-.1h.1c.1-.1.1.1.2.1l-.3-.3c-.1-.1-.2-.1-.3-.3l-.1-.1c0-.1-.1-.2-.2-.3-.1 0-.2-.1-.3-.2 0-.1 0-.1 0 0-.1 0-.1 0 0 0 0 .1.1.2.2.2l.2.2v.1l.1.1c-.2-.1-.3-.2-.4-.4 0 0-.1 0-.1-.1v.1s0 .1.1.1c.2.2.4.5.6.7.2.1.3.2.4.4.1 0 .1.1.2.1.1.1.2.3.3.4.1 0 .1.1.2.1 0 .1.1.3.3.2v.2l.5.5c.1.1.3.2.4.4-.1-.1-.2-.2-.3-.2-.2-.2-.3-.4-.5-.6l-.9-.9-.6-.6-.6-.6c-.1-.1-.1-.2-.2-.2 0-.1-.1-.1-.1-.1s-.1 0-.1-.1c-.1-.1-.2-.2-.2-.4v-.1h.1c.1.1 0 .1 0 .2 0 0 .1.1.1.2v-.1s.1 0 .1-.1c0 .1 0 .2.1.2h.1c-.4-.5-.9-.9-1.3-1.4 0 .1 0 .1.1.2l-.1-.1s-.1.1 0 .1c.1.1.2.3.4.4l-.1-.1c.1 0 .1 0 .1.1.1.1.1.2.2.3l.1.1v.2l-.1-.1c.1 0 .1-.1 0-.1 0-.1-.1-.1-.1-.1-.1-.1-.2-.3-.3-.4-.1 0-.1-.1-.2-.2l-.1-.1.1.2c-.1 0-.1 0-.2-.1 0 .2-.1.3-.2.4-.1.3-.3.5-.5.8 0 .1 0 .2-.1.2v.2c-.2.2-.4.5-.5.8-.1.1-.2.3-.3.5-.1.2-.2.4-.4.5-.2.5-.4.9-.7 1.3l-.3.6H96c0-.1.1-.1.1-.2.2-.3.4-.7.6-1 .2-.3.3-.6.5-.9 0 0 0-.1.1-.1 0-.1 0-.1.1-.2-.1 0-.1.1-.1.2-.2 0-.2.1-.2.2-.1.2-.2.4-.3.5h-.1c.1-.1.2-.2.2-.3v-.1c-.1.2-.2.3-.3.5h.1v.1c-.1 0-.1.1-.2.1-.1.2-.1.3-.2.4l-.1-.1c.1 0 .1-.2.1-.3l.3-.3c0-.1.1-.2.1-.3.1-.1.1-.1.2-.1v-.2c.1-.2.1-.3.2-.4.1-.1.1-.1.1-.2.1-.1.1-.2.2-.3.1-.1.2-.3.3-.5v-.1c.1-.2.2-.3.3-.4l.3-.6-1.8 3-.3.3c.1 0 .1.1.1.1 0-.1.1-.2.1-.3v.1c-.1.2-.3.5-.4.7v-.1c.1-.1.1-.1.1-.2 0 .1-.1.1-.1.2-.1 0-.1.1-.1.1 0 .1 0 .1-.1.1 0 .1 0 .1-.1.2h-.1v.2c-.1.1-.1.3-.2.4h-.1c0 .1 0 .2-.1.3-.1 0-.1 0-.1.1-.1.2-.2.3-.3.4 0 .1-.1.1 0 .2l-.1.1c0 .1 0 .1-.1.1v.1c-.1 0-.1.1-.1.1 0 .1-.1.2-.2.2v.1c-.1.2-.2.3-.3.5-.1.2-.2.3-.3.5-.1.2-.3.4-.4.7-.1.2-.2.4-.4.6-.1.1-.1.3-.2.4-.1.2-.3.4-.4.6l-.3.6c-.1.1-.1.1-.1.2-.1 0-.1-.1-.1-.1 1-1.6 2-3.2 2.9-4.8v-.1c-.9 1.5-1.8 3-2.7 4.6v-.1c0-.1.1-.2.2-.4.1-.1.1-.2.2-.3.1-.1.2-.3.3-.5v-.1c.1-.1.2-.2.2-.3 0-.2.1-.3.2-.4v.1c0-.1.1-.1.1-.2-.1-.1-.1.1-.2.1.2-.3.4-.7.6-1v-.1.2h.1c0-.1.1-.2.2-.3h-.1c-.1 0-.1.1-.2.1.1-.1.2-.3.3-.5.1-.2.3-.4.4-.6v-.1c0 .1.1.1.1.1s0-.1.1-.1v-.2c.1-.2.3-.4.4-.7 0 0 .1-.1.1-.2 0 .1.1.1.1 0v-.1l-.1.1s.1-.1.1-.2c.1 0 .1-.1.1-.1.1 0 .1 0 .1-.1 0 0 .1-.1.1-.2.1 0 .1-.1 0-.1.2-.2.3-.5.4-.7.1-.2.2-.3.3-.5l.1-.1c.1-.1.1-.1.1-.2-.1.1-.2.3-.3.4-.1 0-.2.2-.2.3v-.1.2c-.1 0-.1.1-.1.1s-.1 0-.1.1c0 0 0 .1-.1.2v.1c-.1.1-.2.2-.2.3-.2.1-.1.3-.3.4 0 .2-.1.3-.2.4l-.1.1c0 .2-.1.4-.3.5v.1c-.1.1-.1.3-.2.4-.1.1-.2.3-.3.4v.1c-.2.3-.3.5-.4.7l-.2.2v.1c-.1 0-.1.1-.2.2v.1c-.1.1-.1.2-.1.2-.1.1-.1.2-.2.3-.1.1-.1.2-.2.2 0 .2 0 .3-.2.3.1.1 0 .1 0 .2s-.1.1-.1.1c-.1.1-.1.2-.2.2 0 .2 0 .3-.1.4-.1.1-.1.1-.1.2-.1 0-.1.1-.2.2 0 .1-.1.2-.1.2h-.1c.1-.1.2-.3.3-.5-.1.1-.1.2-.2.2 0 .1-.1.2-.2.3 0 .2-.1.3-.2.4 0 .2-.2.3-.2.5l-.3.3c0-.1.1-.2.1-.3-.1.2-.3.4-.4.5h-.1v-.1c.1-.1.2-.2.2-.3v-.1h.1c.1-.2.2-.4.3-.5.1-.2.2-.4.3-.5.2-.2.3-.4.3-.6.1-.2.3-.4.4-.6 0-.1.1-.2.1-.3.1 0 .1-.1.1-.1H92l-.9 1.6H91l.6-.9c-.1 0-.1-.1-.1-.1v-.1c.1 0 .1-.1.1-.2s.1-.1.1-.2c.1 0 .1-.1.2-.2 0-.2.1-.3.2-.4l.3-.6s.1 0 .1-.1c-.3.3-.5.6-.7.9l-.6.9v-.1c-.1 0-.1.1-.1.1 0-.1.1-.2.1-.3l.2-.2v-.1h.1c.1-.2.3-.4.4-.7 0 0 .1-.1.1-.2.1-.2.2-.3.3-.5h.1v-.1c0-.1.1-.1.1-.1.2-.1.3-.3.3-.4.1-.2.2-.3.3-.5.2-.3.4-.6.5-.9 0 .1-.1.1-.1.2v.1c-.1 0-.1.1-.2.2 0 .1-.1.1-.1.2-.1.1-.2.2-.2.3-.1 0-.1.1-.2.1v.1s-.1 0-.1.1c-.1.1-.1.3-.2.4l-.1.1c-.1 0-.1.1-.1.1.1.1 0 .1 0 .1v-.1c-.1.2-.2.3-.3.4-.1.2-.3.5-.5.8-.2.2-.3.5-.5.7-.1.2-.2.4-.4.5l-.3.6c-.1 0-.1.1-.2.1l.6-.9v-.1c-.3.5-.6.9-.9 1.3h-.1c.1-.1.1-.2.2-.2-.2.1-.3.4-.5.5v-.1c.1 0 .1-.2.3-.3v-.1l.1-.1c.1 0 .1-.1.1-.2l.2-.2c.1-.2.2-.3.3-.5.1-.1.2-.3.3-.4l.3-.6h.1c0-.1.1-.1.1-.1 0-.1.1-.2.1-.3.1 0 .1-.1.2-.2s.2-.3.3-.4c.1-.2.2-.3.3-.5v-.1c-.1 0-.1.1-.2.1.1 0 .1-.1.1-.2.1 0 .2-.2.2-.3 0-.1 0-.1.1-.2s.2-.3.2-.4c.2-.2.3-.4.4-.6.1-.3.2-.5.4-.8v-.1c0 .1-.1.1-.1.2-.1 0-.1.1-.1.1l-.1.1c0 .1 0 .2-.1.2-.1.2-.2.3-.3.5-.1.1-.2.1-.1.2h-.1c-.1.1-.1.2-.1.3 0 .1-.1.2-.2.3v.1c-.1 0-.1 0-.1.1-.3.4-.6.8-.8 1.3-.2.2-.4.5-.5.7l-.1.1c-.2.2-.4.5-.5.7-.3.4-.5.7-.7 1.1-.2.2-.3.5-.5.8-.2.2-.3.4-.5.6l-.6.9c-.2.4-.4.7-.6 1.1l-.6.9c-.1.1-.1.2-.2.3 0-.1.1-.2.1-.3.2-.2.3-.4.4-.6v-.1c0-.1.1-.1.1-.1l.2-.2c.1-.3.3-.5.4-.7.1-.1.2-.3.2-.4h.1c0-.1.1-.3.2-.4l.6-.9s.1-.1.1-.2l-.3.3c.1 0 .1-.1.1-.1.1-.1.2-.2.2-.3-.1 0-.1.2-.2.3l-.2.2c-.1.1-.1.3-.2.4-.1.1-.1.2-.2.3l-.1.1c0 .1-.1.2-.2.3-.1.1-.1.2-.2.3-.1.1-.1.2-.2.3 0 .1-.1 0-.1.1v-.2c-.1.1 0 .2 0 .3h-.1c.1.1 0 .2-.1.3 0 .1-.1.1-.1.2 0 0-.1 0-.1.1 0 0-.1 0-.1.1s-.1.2-.1.3c-.1.1-.1.2-.2.3-.1-.1-.1-.2-.1-.2h-.1c-.1.1-.1.1-.1.2-.1 0-.1.1-.1.1s0 .1.1.1h-.2v.2h-.1l-.1.1-.1.1v.1s0 .1-.1.1l-.3.3c0 .1-.1.1-.1.1v-.1c-.1.1-.2.2-.2.3h-.1c.1-.1.1-.1.1-.2.1-.1.2-.3.3-.5.1-.1.2-.2.2-.3.1 0 .1-.1.1-.1 0-.1 0-.1.1-.1.1-.2.2-.3.3-.5 0-.1.1-.3.2-.4.1-.1.2-.2.2-.3.1 0 .1-.1.1-.1.1-.1.2-.3.3-.4 0-.1 0-.2.1-.2 0-.1.1-.2.1-.3h.1l.3-.6c.1-.1.2-.3.3-.4 0-.1.1-.2.2-.3 0-.1.1-.2.2-.4l.3-.3v-.1c.1-.2.2-.3.3-.5.1-.1.1-.2.2-.3 0 0 0-.1.1-.1 0 0 .1-.1.1-.2.1-.1.2-.2.2-.3.1-.3.3-.5.4-.6.1-.1.1-.2.1-.2.1-.2.3-.3.3-.5l.3-.3c0-.1.1-.3.1-.4.1 0 .1-.1.2-.1v-.1c.1-.1.1-.2.2-.2 0-.2.1-.3.2-.4 0 0 .1-.1.1-.2.1-.1.1-.2.2-.3.1-.1.1-.2.2-.3.1-.1.1-.2.2-.2v-.2c.1 0 .1-.1.2-.1 0-.1 0-.1.1-.2 0-.1.1-.2.2-.3.1-.2.2-.4.3-.5 0-.1.1-.2.2-.3 0-.1 0-.2.1-.2.1-.1.1-.2.2-.3 0-.1.1-.2.2-.3 0-.1.1-.2.2-.4-.1 0-.1.1-.2.2-.1 0-.1.1-.1.1 0 .1 0 .1-.1.1 0 .1-.1.1-.1.2l-.1.1c.1-.1.1-.2.2-.3.1-.2.3-.5.4-.7.1-.1.1-.2.2-.2l.3-.3v-.1h-.1s0-.1.1-.1c.1-.2.2-.4.3-.5 0 0 .1 0 .1-.1 0 0 .1 0 .1-.1.1 0 .1-.1.1-.2z" class="g1_1"/></g><path d="M96.7 101.8c-.1.1-.1.2-.1.3-.1 0-.1.1-.1.1v.1c-.2.4-.3.7-.4 1 0 .1-.1.3-.1.4h-.1c-.1.3-.2.6-.3 1v-.3c.1-.3.3-.7.4-1.1.2-.4.3-.8.5-1.2v-.2c.1-.1.1-.1.1-.2 0 0 0-.1.1-.1v-.2c.1-.2.2-.5.3-.8.1-.1.1-.2.1-.3.1.1.1.2 0 .3 0 .1-.1.3-.1.4.1-.2.2-.3.2-.4v.1c.1-.1.2-.2.2-.4h.1c-.1.1-.1.2-.1.3 0-.1.1-.1.1-.2 0 0 .1 0 .1.1 0 0-.1 0 0 0v.3h.1c-.1.1-.1.2-.1.3.1-.1.1-.1.1-.2h.1c0 .1-.1.1-.1.2s0 .1.1.2h.1v.1c0 .1 0 .1.1.1 0 .1 0 .2-.1.3.2 0 .2 0 .2.1v.2c.1 0 .1-.1.2-.1v.3c0 .1 0 .2.1.2v1.2c.1-.1.1-.2.1-.3 0 .1 0 .1.1.2v.1c-.1.1 0 .2.1.3v.2c0-.1.1-.2.1-.2.1 0 .1.1.1.2 0 0 .1-.1.2-.1 0 .2 0 .4.1.5v.1c.1.1.1.2.1.3 0 .1.1.1.1.2v.2c.1.3.1.7.1 1h.1c-.1.2 0 .4 0 .6v.3c0 .2.1.3.1.4 0 .1.1.2.1.3v.2c.1.3.2.6.2.9.1.2.2.5.3.7 0 .1.1.2.1.2.1.1.1.2.1.2.1.2.2.2.3.3v.1c0 .1.1.1.1.2s-.2.1-.3.1c-.1-.1-.2-.1-.3-.1v.1s0 .1-.1.1c-.2-.1-.3-.2-.4-.3 0 0-.1 0-.2-.1-.3 0-.6-.3-.8-.6 0-.1-.1-.1-.2 0 0 .1-.1.1-.2.1h-.2s0-.1-.1-.1c0 0-.1 0-.2-.1s-.2-.1-.2-.1h-.1c-.1-.1-.1-.1-.2-.1s-.1-.1-.2-.2v-.1h-.5c-.1-.1-.3-.1-.5-.2H96c-.2-.1-.4-.2-.5-.2-.1-.1-.2-.1-.2-.2s0-.2-.1-.2c-.3-.2-.4-.5-.4-.9 0-.3 0-.6.1-1s.3-.9.4-1.3c.1-.2.1-.4.2-.6 0 0 .1 0 0 0v.3c0 .1 0 .2-.1.3 0 0-.1 0-.1.1v.3h-.1c0 .1 0 .3-.1.4.1 0 .1 0 .1-.1l.3-.9c.2-.5.3-.9.5-1.3 0-.1 0-.2.1-.3v-.1.1l.1-.1c-.1-.1 0-.2 0-.3.1-.2.1-.3.2-.5 0-.1.1-.2.1-.3.1-.1.1-.2.1-.3v.2c0-.1.1-.2.1-.3v-.2c.1-.1.1-.3.2-.4 0 0 .1 0 .1-.1v-.2c-.1.1-.1.2-.2.4 0 .1-.1.2-.1.3zm-6.4 39.4l-5.1 7.8c1.6-2.6 3.3-5.2 5-7.8h.1zm1.2-17.9s-.1-.1-.1-.2c0 0-.1 0-.1-.1h-.1c0-.2 0-.3-.1-.4-.1-.1-.1-.2-.2-.3l-.1-.1v-.2c-.2-.2-.2-.4-.3-.6-.1 0-.2-.1-.2-.2v-.1c-.1 0-.1 0 0 0 0 0 .1.1.1.2l.1-.1c-.1-.1-.1-.2-.2-.2 0-.1 0-.1.1-.1.4.8.8 1.7 1.3 2.5h-.1c-.1-.3-.3-.6-.5-.9-.1-.3-.3-.6-.5-.9 0 .1.1.2.1.2.1.3.3.5.4.7 0 .1.1.2.2.3.1.2.1.3.2.4v.1zm17.8-5.1h.1c0-.1.1-.1.1-.1h.2c.1 0 .2.1.2.1h1v.1c-.1 0-.3-.1-.4 0 .1 0 .2.1.3 0h.1c.1 0 .2.1.3.1h-1.8v-.1h.2c0-.1-.1-.1-.2-.1-.1.1-.1 0-.1 0zm-5 20.5s0 .1.1.1l.9.9c.2.1.3.2.4.3h.1c.1.1.2.2.2.3.1 0 .2.1.3.1.1.2.3.3.5.5.1 0 .1.1.2.2h-.1c-.1-.1-.1-.2-.2-.2-.1-.2-.3-.3-.4-.4-.2-.1-.4-.3-.6-.5-.1-.1-.3-.2-.5-.4l-.6-.6-.3-.3z" class="g1_1"/><path d="M90.7 121.5c-.4-.9-.8-1.7-1.2-2.6l.1.1c.1.1.1.3.2.5s.2.5.4.8l.3.6c.1.2.1.3.2.5l.1.1h-.1zm20.9 22.5c.6.5 1.3.9 1.9 1.3-.1 0-1.8-1.2-1.9-1.2v-.1zm-18.8-18.8c-.4-.6-.8-1.1-1.1-1.7v-.1c.4.6.7 1.2 1.1 1.8zM91.1 140c-.3.3-.5.7-.8 1.1.2-.4.5-.8.7-1.2 0 .1.1.1.1.1zm0 3.5s-.1.1-.1.2c0 0 .1 0 .1-.1-.2.3-.3.5-.5.7l.2-.2c0-.2.1-.3.2-.5l.1-.1zm19.7-1.1c.3.2.6.3.8.5v.1s0-.1-.1-.1c-.2-.1-.4-.3-.6-.4 0 0-.1 0-.1-.1zm-19.3-19.1c.1.1.2.2.2.3l.3.6c-.2-.3-.3-.6-.5-.9zm1.3 2c.2.3.4.6.6.8v.1l-.6-.9zm.3 11.5l-.6.9h-.1l.6-.9h.1zm2.8 1.8c0-.1.2-.4.3-.5 0 .1-.1.2-.1.3 0 0-.1 0 0 .1H96l-.1.1zm-.4.6c.1 0 .1-.1.1-.2.1-.1.2-.2.3-.4 0 .1-.1.2-.1.3l-.3.3zm11.9-21c-.2 0-.3 0-.5-.1.2 0 .4 0 .5.1zm-15.3 6.1c.1.1.2.3.3.4 0 0 0 .1-.1.1 0-.2-.1-.3-.2-.5zm-.4 14.6c.1-.2.2-.3.3-.5h.1c-.2.2-.3.4-.4.5zm15.6 2s-.1 0-.1-.1c-.1-.1-.2-.2-.4-.3h.1l.4.4zm-10.4-10.1c-.1-.1-.2-.1-.2-.2l-.2-.2c.1 0 .1.1.1.1.1.1.2.1.2.2 0 0 0 .1.1.1zm-3.9-5.1l.2.4c-.1-.1-.1-.2-.2-.3v-.1zm-2 18.6l-.3.5.3-.6v.1zm.6-2.9c.1-.2.2-.3.3-.4-.1.1-.2.3-.3.4zm-.2-18.7c-.1-.1-.1-.2-.2-.3v-.1c.1.2.2.3.2.4zm-3.2 22c0 .1-.1.2-.2.2 0 .1 0 .1 0 0s.1-.1.2-.2zm5.5-18.1c-.1-.1-.1-.2-.2-.3l-.1-.1h.1c0 .1.1.3.2.4zm-1.6 11.6c.1-.1.2-.2.2-.3h.1l-.3.4v-.1zm19.7 5.8c.2.1.4.2.5.3-.2-.1-.3-.2-.5-.3zm-18.1-17.3c.1.1.1.3.2.4-.1-.1-.2-.3-.3-.4h.1zm1.3 1.8c-.1-.2-.2-.2-.2-.4l.2.3v.1zm.4.4c-.2-.1-.3-.2-.4-.4h.1c.1.1.2.3.3.4zm-1.2-1.6l-.3-.3v-.1c.1.2.2.3.3.4zm12.7-8.7c0 .1 0 .1-.1.1v-.2l.1.1zm3.8 24.9c.1.1.2.1.3.2-.1 0-.3-.1-.3-.2zM96 139c-.1.1-.2.2-.2.3h-.1c.1-.1.2-.2.2-.3h.1zm12.5-20.9h.1c.1 0 .1 0 .1.2 0-.1-.1-.1-.2-.2zm-15.9 25c.1-.1.2-.3.2-.4h.1c-.1.1-.2.3-.3.4zm1.7-15.6c.1.1.2.2.2.3l-.2-.3zM89 143.3c.1-.1.2-.2.2-.3h.1c-.1.1-.2.3-.2.4-.1 0-.1 0-.1-.1zm2.1-3c-.1.1-.1.2-.2.2 0-.1.1-.2.1-.3 0 .1.1.1.1.1zm-2.7 4.1c-.1.1-.1.1-.1.2h-.1c.1-.1.1-.2.1-.2h.1zm2.2-3.4c-.1.1-.2.2-.2.3h-.1c.1-.1.2-.2.2-.3h.1zm.4 1.3c0-.1.1-.2.1-.3 0 0 .1 0 .1.1-.1 0-.1.1-.2.2zm4.9-12.5c-.1-.1-.2-.2-.2-.3.1.1.1.2.2.3zm-1.4 5c-.1.1-.1.2-.2.2l.2-.2zm-5.2 8.2c0-.1.1-.2.1-.3l.1.1c-.1 0-.2.1-.2.2zm17.7-24.9c.1-.1.2-.1.3 0zm-16.5 27c.1-.1.1-.2.2-.3-.1.1-.1.2-.1.3h-.1zm2-7.1c0-.1.1-.1.1-.2 0 .1-.1.2-.1.2zm3.6-7.9c0-.1-.1-.1-.2-.2h.1l.2.2h-.1zm5.3-.1c-.1.1-.1.2-.1.2v-.2h.1zm-5.9 9.2c0 .1 0 .2-.1.3 0-.1.1-.2.1-.3zm-.2-5.9c-.1.1-.1.2-.2.3.1-.1.1-.2.2-.3zm-5.4 8.8c-.1.1-.1.2-.2.3 0-.2.1-.2.2-.3zm22.1 2.4c-.1-.1-.1-.1-.2-.1v-.1c.1.1.2 0 .2.2zm-18.4-8.6l.2-.2c-.1.1-.1.2-.2.2zm-2.3 4.1c-.1 0-.1.1-.2.2 0-.1.1-.2.1-.3 0 .1 0 .1.1.1zm2.4-13.4c.1.1.1.2.2.2-.1 0-.2-.1-.2-.2zm1.9 2.6s.1.1.1.2c-.1-.1-.1-.1-.1-.2zm-5.7 12.9c0-.1 0-.2.1-.2 0 .1-.1.1-.1.2zm21.8 1.2s.1.1.2.1v.1c-.1-.1-.2-.1-.2-.2zm-18.1-17.1c0 .1.1.1.1.2-.1 0-.1-.1-.1-.1v-.1zm2.7 4c.1 0 .1.1.2.1v.1l-.2-.3v.1zm-4.7 9.2s0 .1-.1.1l.1-.1zm.3 1.7v.2h-.1c.1-.1.1-.1.1-.2zm3.9-8.5c-.1.1-.1.2-.2.2.1 0 .1-.1.1-.2h.1z" class="g1_1"/><path d="M96.3 130.1s-.1-.1-.2-.1c.1 0 .1 0 .1-.1 0 .1.1.2.1.3v-.1zm-3.9 13.6c-.1 0-.1.1-.1.1s-.1 0-.1-.1h.2zm3-14.6c.1.1.1.1.1.2l-.1-.1v-.1zm16.1 14.8s0 .1.1.1c-.1 0-.1 0-.2-.1h.1zm-20.7-22.2v-.2c0 .1.1.1.1.2h-.1zm2.1 4v-.2c0 .1 0 .1.1.2h-.1zm2.5 3.2c0 .1 0 .1.1.2h-.1v-.2zm-2.8 14.2c0 .1-.1.1-.1.2 0-.1.1-.1.1-.2zm-.2-5c0 .1 0 .1-.1.2 0-.1.1-.1.1-.2zm10-1.4h-.1c0-.1 0-.1-.1-.2.1 0 .1.1.2.2zm-1.4-14.3v.1c-.1.1-.2.3-.2.4-.1.1-.1.2-.2.3.1-.3.2-.5.4-.8zm-.7 1.5l.3-.6c0 .3-.2.4-.3.6zm-1.6 3.4c-.1.1-.1.2-.1.3-.1.1-.2.2-.2.3.1-.2.1-.4.2-.5 0-.1.1-.1.1-.1zm2.4-5.2c0-.2.1-.4.2-.5-.1.1-.1.3-.2.5zm-.8 2c-.1.1-.1.2-.2.3 0-.1.1-.2.2-.4v.1zm-.1-6.7h.2v.1h-.2v-.1zm-6 2.8c0 .1.1.2.1.3-.1 0-.1-.1-.1-.3zm5.7 4.6c.1-.1.1-.2.1-.3.1 0 .1.1.1.1-.1 0-.1.1-.1.2h-.1zm-.3.8c0-.1 0-.2.1-.2 0 .1-.1.1-.1.2zm1.4-3.2v-.3c.1.1 0 .2 0 .3zm-1.1 2.6l-.1.2h-.1l.1-.2h.1zm-1.2 2.4v.1s.1 0 .1.1h-.1v-.2zm2.4 8c.1.1.2.1.2.2-.1 0-.2-.1-.2-.2zm.3.3l.1.1s-.1 0-.1-.1zm7.6 6.5c-.1-.1-.3-.2-.4-.3-.1-.1-.2-.2-.3-.2h.1c.2.1.4.2.5.4.1 0 .1 0 .1.1z" class="g1_1"/><path d="M181.7 121.9l7.3 6.7m-7.3 6.8l7.3-6.7" class="g2_1"/><g clip-path="url(#c1_1)"><path d="M55.2 52.1L35.3 4.3c-.2-.4-.4-.9-.5-1.2-.2-.4-.3-.8-.5-1.3-.1.5-.3.9-.4 1.3-.1.3-.3.8-.5 1.2L13.5 52.1zm13.5 28.8h-1.1c-.3 0-.6-.2-.7-.6l-11.2-27H13l-11.3 27c-.1.4-.4.6-.8.6H0L33.8 0h1.1zm29.2-34.4v42.1h-1.4V46.5L66.3 0h1.2c.3 0 .6.2.8.5l27.2 42.2c.3.5.6.9.9 1.4.3.4.6.9.8 1.3.2-.4.5-.9.7-1.3.3-.5.6-.9.9-1.4L126.1.5c.2-.3.4-.5.8-.5h1.1zm83 5.6l-20-47.8c-.2-.4-.3-.9-.5-1.2-.1-.4-.3-.8-.4-1.3-.2.5-.3.9-.4 1.3-.2.3-.3.8-.5 1.2l-20 47.8zm13.4 28.8h-1c-.4 0-.6-.2-.7-.6l-11.3-27h-42.6l-11.3 27c-.1.4-.4.6-.8.6h-.9L159.4 0h1.2z" class="g1_1"/></g><path d="M19.7 122.2l-7.3 6.8m7.3 6.7l-7.3-6.7" class="g2_1"/><defs><path d="M404.9-10.6s-73.4 0-134.5 25.9c0 0-62.6 27.5-108.5 77.9 0 0-45.8 50.4-71.8 123.7 0 0-25.9 74.9-25.9 169.6 0 0 0 87.1 22.9 160.4 0 0 24.4 73.4 70.3 125.3 0 0 47.3 53.5 114.5 82.5 0 0 67.3 30.6 155.9 30.6 0 0 81 0 143.6-26 0 0 62.6-26 110-74.9l-35.1-48.8s-6.2-7.7-12.3-12.3c0 0-6.1-4.5-16.8-4.5 0 0-12.2 0-25.9 9.1 0 0-13.8 9.2-33.7 19.9 0 0-19.8 12.2-48.8 21.4 0 0-30.6 10.7-73.4 10.7 0 0-56.5 0-99.3-19.9 0 0-44.3-21.4-73.3-59.6 0 0-30.6-38.2-44.3-91.6 0 0-15.3-55-15.3-122.3 0 0 0-70.2 15.3-123.7 0 0 16.8-55 45.8-91.7 0 0 29-38.2 70.3-56.5 0 0 42.8-19.9 94.7-19.9 0 0 48.9 0 81 10.7 0 0 32.1 12.2 53.5 26 0 0 21.3 15.3 35.1 27.5 0 0 13.7 12.2 27.5 12.2 0 0 16.8 0 26-13.7l38.2-48.9S666.1 76.4 634 55c0 0-32.1-22.9-68.7-36.7 0 0-38.2-15.2-77.9-21.3 0 0-41.3-7.6-82.5-7.6z" id="C2_0_50"/><path d="M106.9 0v773.1h78s22.9 0 30.5-7.7c0 0 9.2-9.1 12.2-29l9.2-117.6s36.7 79.4 90.1 123.7c0 0 53.5 44.3 129.9 44.3 0 0 24.5 0 47.4-4.6 0 0 22.9-6.1 39.7-16.8l-9.2-102.3s-4.6-18.4-22.9-18.4c0 0-10.7 0-30.5 4.6 0 0-21.4 4.6-47.4 4.6 0 0-36.7 0-65.7-10.7 0 0-29-10.7-50.4-32.1 0 0-22.9-21.4-41.3-51.9 0 0-18.3-30.6-32.1-70.3V0z" id="C2_0_118"/><path d="M624.9 470.6s0 47.3-12.3 87c0 0-13.7 39.8-39.7 67.3 0 0-26 29-62.6 44.3 0 0-36.7 16.8-82.5 16.8 0 0-97.8 0-154.3-56.6 0 0-58.1-58-71.8-158.8zM432.4-10.6s-81 0-148.2 25.9c0 0-67.3 27.5-116.1 79.4 0 0-50.5 53.5-78 129.9 0 0-27.5 77.9-27.5 177.2 0 0 0 81 24.5 151.3 0 0 26 70.2 71.8 122.2 0 0 47.4 51.9 114.6 81 0 0 67.2 29 151.2 29 0 0 68.8 0 128.4-22.9 0 0 59.5-23 102.3-67.3 0 0 42.8-44.3 67.2-108.4 0 0 24.5-64.2 24.5-146.7 0 0 0-32.1-6.1-42.8 0 0-7.7-10.7-26-10.7H197.1s3-73.3 19.8-126.8c0 0 18.4-55 50.5-91.6 0 0 32-36.7 76.4-53.5 0 0 44.3-18.3 99.3-18.3 0 0 51.9 0 88.6 10.6 0 0 36.6 12.3 62.6 26 0 0 27.5 13.8 45.8 26 0 0 18.4 12.2 30.6 12.2 0 0 16.8 0 26-13.7l38.2-48.9S710.4 77.9 675.3 55c0 0-35.2-22.9-74.9-36.7 0 0-41.2-15.2-84-21.3 0 0-42.8-7.6-84-7.6z" id="C2_0_60"/><path d="M307.1 82.5s36.7 0 65.7 7.6c0 0 30.5 7.7 56.5 21.4 0 0 26 13.8 50.4 32.1 0 0 24.5 19.9 47.4 44.3v160.4s-94.7-3-160.4-15.2c0 0-65.7-12.3-107-30.6 0 0-42.8-19.9-61.1-45.8 0 0-18.3-26-18.3-58.1 0 0 0-30.5 9.1-51.9 0 0 10.7-22.9 27.5-36.7 0 0 16.9-13.7 39.8-19.9 0 0 24.4-7.6 50.4-7.6zm-39.7-94.6s-45.9 0-85.6 12.1c0 0-39.7 12.2-68.7 36.7 0 0-29.1 25.9-45.9 64.1 0 0-18.3 39.8-18.3 91.7 0 0 0 45.8 24.4 88.6 0 0 26 42.8 82.5 74.9 0 0 56.6 33.6 146.7 53.4 0 0 91.7 21.4 224.6 24.5V495s0 90.1-38.2 136c0 0-39.7 45.8-114.6 45.8 0 0-50.4 0-84-12.2 0 0-35.2-12.2-59.6-27.5 0 0-24.4-16.8-42.8-29 0 0-18.3-12.3-35.1-12.3 0 0-13.8 0-22.9 6.1 0 0-10.7 7.7-18.4 18.4l-24.4 44.3s64.2 61.1 137.5 91.7c0 0 74.8 30.5 165 30.5 0 0 65.7 0 116.1-21.4 0 0 50.4-21.4 84-59.6 0 0 35.2-38.2 52-91.6 0 0 18.3-55 18.3-119.2V0h-61.1S579 0 568.3 6.1c0 0-10.7 6.1-16.8 26l-15.2 73.3s-30.6-29-59.6-50.4c0 0-29.1-21.4-61.1-36.7 0 0-32.1-15.2-67.3-22.8 0 0-36.6-7.6-80.9-7.6z" id="C2_0_46"/><path d="M345.3-12.1s-91.7 0-140.6 50.3c0 0-50.4 51.9-50.4 148.2V660H61.1s-12.2 0-19.8 6.1c0 0-9.2 7.7-9.2 22.9v55l126.8 16.8L191 999.2s1.5 10.7 9.1 18.3c0 0 9.2 7.6 21.4 7.6h68.8V757.8H825V0H689v660H290.3V195.6s0-48.9 22.9-71.8c0 0 24.4-24.5 62.6-24.5 0 0 21.4 0 36.7 4.6 0 0 15.3 6.1 26 12.2 0 0 12.2 7.7 19.8 13.8 0 0 9.2 6.1 15.3 6.1 0 0 10.7 0 18.3-13.8l39.8-64.1s-35.2-33.7-84.1-52c0 0-50.4-18.2-102.3-18.2zm415.5 937.9s-19.8 0-36.6 7.7c0 0-16.8 7.6-29.1 19.8 0 0-13.7 13.8-21.3 30.6 0 0-7.7 18.3-7.7 38.2 0 0 0 19.8 7.7 36.7 0 0 7.6 18.3 19.8 32 0 0 13.8 13.8 30.6 21.4 0 0 16.8 7.7 36.6 7.7 0 0 19.9 0 36.7-7.7 0 0 18.3-7.6 32.1-21.4 0 0 13.7-13.7 21.4-30.5 0 0 7.6-18.4 7.6-38.2 0 0 0-19.9-7.6-36.7 0 0-7.7-18.3-21.4-30.5 0 0-13.8-13.8-30.6-21.4 0 0-18.3-7.7-38.2-7.7z" id="C2_0_2463"/><path d="M333.1 0L16.8 773.1h111.5s16.8 0 27.5-7.7c0 0 10.7-9.1 13.8-19.8l197.1-498.1s9.1-29 15.2-55c0 0 7.7-27.5 13.8-53.5l12.2 52s7.7 27.5 16.8 56.5l198.6 498.1s4.6 12.2 15.3 19.8c0 0 10.7 7.7 26 7.7H770L455.3 0z" id="C2_0_137"/><path d="M424.7 94.7s108.5 0 166.6 76.4c0 0 58 77.9 58 220 0 0 0 76.4-12.2 129.9 0 0-13.8 55-38.2 88.6 0 0-26 35.1-62.6 50.4 0 0-36.7 16.8-84.1 16.8 0 0-65.7 0-116.1-30.5 0 0-50.4-30.6-91.7-85.6V186.4s36.7-50.4 81-70.3c0 0 44.3-21.4 99.3-21.4zM106.9-261.2V773.1h82.5s29.1 0 35.2-27.5l12.2-91.7s48.9 59.6 113.1 96.2c0 0 64.1 36.7 146.6 36.7 0 0 67.3 0 120.7-24.4 0 0 55-26 93.2-76.4 0 0 38.2-50.4 58.1-123.8 0 0 21.4-74.8 21.4-171.1 0 0 0-85.5-23-158.9 0 0-22.9-73.3-65.6-126.8 0 0-42.8-55-105.5-85.5 0 0-62.6-30.5-140.5-30.5 0 0-70.3 0-120.7 22.8 0 0-52 24.5-90.2 67.2v-340.6z" id="TT0_115"/><path d="M624.9 470.6s0 47.3-12.3 87c0 0-13.7 39.8-39.7 67.3 0 0-26 29-62.6 44.3 0 0-36.7 16.8-82.5 16.8 0 0-97.8 0-154.3-56.6 0 0-58.1-58-71.8-158.8zM432.4-10.6s-81 0-148.2 25.9c0 0-67.3 27.5-116.1 79.4 0 0-50.5 53.5-78 129.9 0 0-27.5 77.9-27.5 177.2 0 0 0 81 24.5 151.3 0 0 26 70.2 71.8 122.2 0 0 47.4 51.9 114.6 81 0 0 67.2 29 151.2 29 0 0 68.8 0 128.4-22.9 0 0 59.5-23 102.3-67.3 0 0 42.8-44.3 67.2-108.4 0 0 24.5-64.2 24.5-146.7 0 0 0-32.1-6.1-42.8 0 0-7.7-10.7-26-10.7H197.1s3-73.3 19.8-126.8c0 0 18.4-55 50.5-91.6 0 0 32-36.7 76.4-53.5 0 0 44.3-18.3 99.3-18.3 0 0 51.9 0 88.6 10.6 0 0 36.6 12.3 62.6 26 0 0 27.5 13.8 45.8 26 0 0 18.4 12.2 30.6 12.2 0 0 16.8 0 26-13.7l38.2-48.9S710.4 77.9 675.3 55c0 0-35.2-22.9-74.9-36.7 0 0-41.2-15.2-84-21.3 0 0-42.8-7.6-84-7.6z" id="TT0_60"/><path d="M106.9 0v773.1h78s22.9 0 30.5-7.7c0 0 9.2-9.1 12.2-29l9.2-117.6s36.7 79.4 90.1 123.7c0 0 53.5 44.3 129.9 44.3 0 0 24.5 0 47.4-4.6 0 0 22.9-6.1 39.7-16.8l-9.2-102.3s-4.6-18.4-22.9-18.4c0 0-10.7 0-30.5 4.6 0 0-21.4 4.6-47.4 4.6 0 0-36.7 0-65.7-10.7 0 0-29-10.7-50.4-32.1 0 0-22.9-21.4-41.3-51.9 0 0-18.3-30.6-32.1-70.3V0z" id="TT0_118"/><path d="M114.6 0v773.1h136V0zm67.2 919.7s-19.9 0-36.7 7.7c0 0-18.3 7.6-30.5 21.4 0 0-13.8 13.7-21.4 30.5 0 0-7.6 16.8-7.6 36.7 0 0 0 19.8 7.6 38.2 0 0 7.6 18.3 19.9 30.5 0 0 13.7 13.8 30.5 21.4 0 0 18.3 7.7 38.2 7.7 0 0 19.9 0 36.7-7.7 0 0 18.3-7.6 32.1-19.8 0 0 13.7-13.8 21.3-32.1 0 0 7.7-18.4 7.7-38.2 0 0 0-19.9-7.7-36.7 0 0-7.6-16.8-21.3-30.5 0 0-13.8-13.8-30.6-21.4 0 0-18.3-7.7-38.2-7.7z" id="TT0_99"/><path d="M106.9 0v773.1h82.5s29.1 0 35.2-27.5l10.7-84.1s26 27.5 53.5 50.4c0 0 29 23 59.5 39.8 0 0 32.1 16.8 67.3 24.4 0 0 36.6 9.2 77.9 9.2 0 0 62.6 0 111.5-19.9 0 0 48.9-21.4 81-59.6 0 0 32.1-39.7 48.9-93.2 0 0 16.8-55 16.8-120.7V0h-136v491.9s0 88.7-39.7 136c0 0-41.3 48.9-122.2 48.9 0 0-61.2 0-113.1-29 0 0-51.9-29-96.3-77.9V0z" id="TT0_110"/><path d="M404.9-10.6s-73.4 0-134.5 25.9c0 0-62.6 27.5-108.5 77.9 0 0-45.8 50.4-71.8 123.7 0 0-25.9 74.9-25.9 169.6 0 0 0 87.1 22.9 160.4 0 0 24.4 73.4 70.3 125.3 0 0 47.3 53.5 114.5 82.5 0 0 67.3 30.6 155.9 30.6 0 0 81 0 143.6-26 0 0 62.6-26 110-74.9l-35.1-48.8s-6.2-7.7-12.3-12.3c0 0-6.1-4.5-16.8-4.5 0 0-12.2 0-25.9 9.1 0 0-13.8 9.2-33.7 19.9 0 0-19.8 12.2-48.8 21.4 0 0-30.6 10.7-73.4 10.7 0 0-56.5 0-99.3-19.9 0 0-44.3-21.4-73.3-59.6 0 0-30.6-38.2-44.3-91.6 0 0-15.3-55-15.3-122.3 0 0 0-70.2 15.3-123.7 0 0 16.8-55 45.8-91.7 0 0 29-38.2 70.3-56.5 0 0 42.8-19.9 94.7-19.9 0 0 48.9 0 81 10.7 0 0 32.1 12.2 53.5 26 0 0 21.3 15.3 35.1 27.5 0 0 13.7 12.2 27.5 12.2 0 0 16.8 0 26-13.7l38.2-48.9S666.1 76.4 634 55c0 0-32.1-22.9-68.7-36.7 0 0-38.2-15.2-77.9-21.3 0 0-41.3-7.6-82.5-7.6z" id="TT0_50"/></defs><style>@font-face{font-family:Lato-Regular_81;src:url(fonts/Lato-Regular_8.woff) format(&amp;quot;woff&amp;quot;)}@font-face{font-family:Lato-Regular_n1;src:url(fonts/Lato-Regular_n.woff) format(&amp;quot;woff&amp;quot;)}</style><title>AYA-LogoAsset 7 1 Page1</title></svg>