<?xml version="1.0" encoding="utf-8"?>
<!-- Generator: Adobe Illustrator 20.1.0, SVG Export Plug-In . SVG Version: 6.00 Build 0)  -->
<svg version="1.1" id="Layer_1" xmlns="http://www.w3.org/2000/svg" xmlns:xlink="http://www.w3.org/1999/xlink" x="0px" y="0px"
	 viewBox="0 0 91.7 71.5" style="enable-background:new 0 0 91.7 71.5;" xml:space="preserve">
<style type="text/css">
	.st0{enable-background:new    ;}
	.st1{fill:#F1F2F2;}
	.st2{fill:none;stroke:#FFFFFF;stroke-width:0.75;stroke-linecap:round;stroke-miterlimit:10;}
	.st3{fill:#FFFFFF;}
</style>
<title>Asset 1</title>
<image style="overflow:visible;opacity:0.55;enable-background:new    ;" width="384" height="300" xlink:href="80EF7AA5BA0823BC.png"  transform="matrix(0.2387 0 0 0.2384 0 0)">
</image>
<g class="st0">
	<path class="st1" d="M16.1,57.2C16.1,57.3,16.1,57.3,16.1,57.2C16,57.3,16,57.3,16,57.3c0,0-0.1,0-0.1-0.1c0,0-0.1-0.1-0.2-0.1
		c-0.1,0-0.2-0.1-0.3-0.1C15.3,57,15.2,57,15,57c-0.2,0-0.4,0-0.5,0.1c-0.2,0.1-0.3,0.2-0.4,0.3s-0.2,0.3-0.2,0.5s-0.1,0.4-0.1,0.6
		c0,0.2,0,0.5,0.1,0.7c0.1,0.2,0.1,0.4,0.2,0.5s0.2,0.2,0.4,0.3c0.1,0.1,0.3,0.1,0.5,0.1c0.2,0,0.3,0,0.4-0.1c0.1,0,0.2-0.1,0.3-0.1
		c0.1-0.1,0.1-0.1,0.2-0.1s0.1-0.1,0.1-0.1c0.1,0,0.1,0,0.1,0.1l0.2,0.3c-0.1,0.1-0.2,0.2-0.3,0.3c-0.1,0.1-0.2,0.1-0.4,0.2
		c-0.1,0.1-0.3,0.1-0.4,0.1s-0.3,0-0.4,0c-0.3,0-0.5,0-0.7-0.1s-0.4-0.2-0.6-0.4c-0.2-0.2-0.3-0.4-0.4-0.7s-0.1-0.6-0.1-0.9
		c0-0.3,0-0.6,0.1-0.8c0.1-0.3,0.2-0.5,0.4-0.7s0.4-0.3,0.6-0.4s0.5-0.2,0.8-0.2c0.3,0,0.5,0,0.8,0.1c0.2,0.1,0.4,0.2,0.6,0.4
		L16.1,57.2z"/>
</g>
<g class="st0">
	<path class="st1" d="M17.8,57.3c0.1-0.3,0.3-0.5,0.5-0.7s0.4-0.2,0.7-0.2c0.1,0,0.2,0,0.2,0c0.1,0,0.2,0,0.2,0.1l-0.1,0.5
		c0,0.1-0.1,0.1-0.1,0.1c0,0-0.1,0-0.2,0c-0.1,0-0.2,0-0.2,0c-0.1,0-0.2,0-0.3,0.1c-0.1,0-0.2,0.1-0.3,0.2s-0.2,0.2-0.2,0.3
		s-0.1,0.2-0.2,0.4v2.6h-0.7v-4.1h0.4c0.1,0,0.1,0,0.2,0c0,0,0.1,0.1,0.1,0.2L17.8,57.3z"/>
</g>
<g class="st0">
	<path class="st1" d="M23.3,60c-0.1,0.1-0.2,0.2-0.3,0.3c-0.1,0.1-0.3,0.1-0.4,0.2c-0.1,0.1-0.3,0.1-0.4,0.1c-0.2,0-0.3,0-0.4,0
		c-0.3,0-0.5,0-0.8-0.1c-0.2-0.1-0.4-0.2-0.6-0.4c-0.2-0.2-0.3-0.4-0.4-0.7c-0.1-0.3-0.1-0.6-0.1-0.9c0-0.3,0-0.6,0.1-0.8
		c0.1-0.2,0.2-0.5,0.4-0.6c0.2-0.2,0.4-0.3,0.6-0.4c0.2-0.1,0.5-0.2,0.8-0.2c0.2,0,0.5,0,0.7,0.1c0.2,0.1,0.4,0.2,0.5,0.4
		c0.2,0.2,0.3,0.3,0.4,0.6c0.1,0.2,0.1,0.5,0.1,0.8c0,0.1,0,0.2,0,0.2c0,0-0.1,0.1-0.1,0.1h-2.7c0,0.3,0,0.5,0.1,0.7
		s0.2,0.4,0.3,0.5c0.1,0.1,0.2,0.2,0.4,0.3c0.2,0.1,0.3,0.1,0.5,0.1c0.2,0,0.3,0,0.5-0.1s0.2-0.1,0.3-0.1c0.1,0,0.2-0.1,0.2-0.1
		s0.1-0.1,0.2-0.1c0.1,0,0.1,0,0.1,0.1L23.3,60z M22.7,58.1c0-0.2,0-0.3-0.1-0.5c0-0.1-0.1-0.3-0.2-0.4c-0.1-0.1-0.2-0.2-0.3-0.2
		C21.9,57,21.8,57,21.6,57c-0.3,0-0.6,0.1-0.8,0.3s-0.3,0.5-0.4,0.8H22.7z"/>
</g>
<g class="st0">
	<path class="st1" d="M24.1,57.1c0.2-0.2,0.5-0.4,0.7-0.5s0.6-0.2,0.9-0.2c0.2,0,0.4,0,0.6,0.1c0.2,0.1,0.3,0.2,0.4,0.3
		s0.2,0.3,0.3,0.5c0.1,0.2,0.1,0.4,0.1,0.6v2.6h-0.3c-0.1,0-0.1,0-0.2,0c0,0-0.1-0.1-0.1-0.1l-0.1-0.4c-0.1,0.1-0.2,0.2-0.3,0.3
		c-0.1,0.1-0.2,0.1-0.3,0.2c-0.1,0.1-0.2,0.1-0.4,0.1s-0.3,0-0.4,0c-0.2,0-0.3,0-0.4-0.1c-0.1,0-0.3-0.1-0.4-0.2
		c-0.1-0.1-0.2-0.2-0.2-0.3c-0.1-0.1-0.1-0.3-0.1-0.5c0-0.2,0-0.3,0.1-0.5c0.1-0.2,0.2-0.3,0.4-0.4c0.2-0.1,0.5-0.2,0.8-0.3
		s0.7-0.1,1.2-0.1V58c0-0.3-0.1-0.6-0.2-0.7c-0.1-0.2-0.3-0.2-0.6-0.2c-0.2,0-0.3,0-0.4,0.1c-0.1,0-0.2,0.1-0.3,0.1
		c-0.1,0.1-0.2,0.1-0.2,0.2c-0.1,0-0.1,0.1-0.2,0.1c0,0-0.1,0-0.1,0c0,0-0.1-0.1-0.1-0.1L24.1,57.1z M26.4,58.8
		c-0.3,0-0.6,0-0.8,0.1c-0.2,0-0.4,0.1-0.6,0.2s-0.3,0.1-0.3,0.2c-0.1,0.1-0.1,0.2-0.1,0.3c0,0.1,0,0.2,0.1,0.3s0.1,0.1,0.1,0.2
		c0.1,0,0.1,0.1,0.2,0.1c0.1,0,0.2,0,0.3,0c0.1,0,0.2,0,0.3,0c0.1,0,0.2-0.1,0.3-0.1c0.1,0,0.2-0.1,0.3-0.2s0.2-0.1,0.2-0.2V58.8z"
		/>
</g>
<g class="st0">
	<path class="st1" d="M32,60.6h-0.7v-3.5h-2.1v2.5c0,0.2,0,0.3,0.1,0.4c0.1,0.1,0.2,0.1,0.3,0.1c0.1,0,0.1,0,0.2,0
		c0.1,0,0.1,0,0.1-0.1s0.1,0,0.1-0.1s0.1,0,0.1,0c0,0,0.1,0,0.1,0.1l0.2,0.3c-0.1,0.1-0.3,0.2-0.4,0.3c-0.2,0.1-0.4,0.1-0.5,0.1
		c-0.3,0-0.6-0.1-0.7-0.3c-0.2-0.2-0.3-0.4-0.3-0.8v-2.5h-0.5c0,0-0.1,0-0.1,0c0,0,0-0.1,0-0.1v-0.3l0.7-0.1l0.2-1.3
		c0,0,0-0.1,0.1-0.1c0,0,0.1,0,0.1,0h0.4v1.4H32V60.6z M32.2,55.2c0,0.1,0,0.1,0,0.2s-0.1,0.1-0.1,0.2s-0.1,0.1-0.2,0.1
		s-0.1,0-0.2,0c-0.1,0-0.1,0-0.2,0c-0.1,0-0.1-0.1-0.2-0.1s-0.1-0.1-0.1-0.2c0-0.1,0-0.1,0-0.2s0-0.1,0-0.2c0-0.1,0.1-0.1,0.1-0.2
		c0,0,0.1-0.1,0.2-0.1c0.1,0,0.1,0,0.2,0c0.1,0,0.1,0,0.2,0c0.1,0,0.1,0.1,0.2,0.1c0,0,0.1,0.1,0.1,0.2S32.2,55.1,32.2,55.2z"/>
</g>
<g class="st0">
	<path class="st1" d="M36.7,56.5L35,60.6h-0.6l-1.7-4.1h0.6c0.1,0,0.1,0,0.1,0c0,0,0.1,0.1,0.1,0.1l1,2.6c0,0.1,0.1,0.2,0.1,0.3
		c0,0.1,0,0.2,0.1,0.3c0-0.1,0-0.2,0.1-0.3c0-0.1,0.1-0.2,0.1-0.3l1.1-2.6c0,0,0-0.1,0.1-0.1c0,0,0.1,0,0.1,0H36.7z"/>
</g>
<g class="st0">
	<path class="st1" d="M40.6,60c-0.1,0.1-0.2,0.2-0.3,0.3c-0.1,0.1-0.3,0.1-0.4,0.2c-0.1,0.1-0.3,0.1-0.4,0.1c-0.2,0-0.3,0-0.4,0
		c-0.3,0-0.5,0-0.8-0.1c-0.2-0.1-0.4-0.2-0.6-0.4c-0.2-0.2-0.3-0.4-0.4-0.7c-0.1-0.3-0.1-0.6-0.1-0.9c0-0.3,0-0.6,0.1-0.8
		c0.1-0.2,0.2-0.5,0.4-0.6c0.2-0.2,0.4-0.3,0.6-0.4c0.2-0.1,0.5-0.2,0.8-0.2c0.2,0,0.5,0,0.7,0.1c0.2,0.1,0.4,0.2,0.5,0.4
		c0.2,0.2,0.3,0.3,0.4,0.6c0.1,0.2,0.1,0.5,0.1,0.8c0,0.1,0,0.2,0,0.2c0,0-0.1,0.1-0.1,0.1h-2.7c0,0.3,0,0.5,0.1,0.7
		s0.2,0.4,0.3,0.5c0.1,0.1,0.2,0.2,0.4,0.3c0.2,0.1,0.3,0.1,0.5,0.1c0.2,0,0.3,0,0.5-0.1s0.2-0.1,0.3-0.1c0.1,0,0.2-0.1,0.2-0.1
		s0.1-0.1,0.2-0.1c0.1,0,0.1,0,0.1,0.1L40.6,60z M40,58.1c0-0.2,0-0.3-0.1-0.5c0-0.1-0.1-0.3-0.2-0.4c-0.1-0.1-0.2-0.2-0.3-0.2
		C39.2,57,39.1,57,38.9,57c-0.3,0-0.6,0.1-0.8,0.3s-0.3,0.5-0.4,0.8H40z"/>
</g>
<g class="st0">
	<path class="st1" d="M53,57.1c0.2-0.2,0.4-0.4,0.6-0.5s0.5-0.2,0.8-0.2c0.2,0,0.5,0,0.6,0.1c0.2,0.1,0.4,0.2,0.5,0.4
		c0.1,0.2,0.2,0.4,0.3,0.7c0.1,0.3,0.1,0.6,0.1,0.9c0,0.3,0,0.6-0.1,0.8s-0.2,0.5-0.3,0.7c-0.2,0.2-0.3,0.3-0.6,0.4
		s-0.5,0.2-0.7,0.2c-0.3,0-0.5,0-0.6-0.1c-0.2-0.1-0.3-0.2-0.5-0.4v1.8h-0.7v-5.5h0.4c0.1,0,0.2,0,0.2,0.1L53,57.1z M53,59.6
		c0.1,0.2,0.3,0.3,0.4,0.4C53.6,60,53.8,60,54,60c0.4,0,0.7-0.1,0.9-0.4s0.3-0.7,0.3-1.2c0-0.3,0-0.5-0.1-0.7c0-0.2-0.1-0.3-0.2-0.5
		c-0.1-0.1-0.2-0.2-0.3-0.3C54.5,57,54.3,57,54.2,57c-0.2,0-0.4,0.1-0.6,0.2c-0.2,0.1-0.3,0.3-0.5,0.5V59.6z"/>
	<path class="st1" d="M60.2,60c-0.1,0.1-0.2,0.2-0.3,0.3c-0.1,0.1-0.3,0.1-0.4,0.2c-0.1,0.1-0.3,0.1-0.4,0.1c-0.2,0-0.3,0-0.4,0
		c-0.3,0-0.5,0-0.8-0.1c-0.2-0.1-0.4-0.2-0.6-0.4c-0.2-0.2-0.3-0.4-0.4-0.7c-0.1-0.3-0.1-0.6-0.1-0.9c0-0.3,0-0.6,0.1-0.8
		c0.1-0.2,0.2-0.5,0.4-0.6c0.2-0.2,0.4-0.3,0.6-0.4c0.2-0.1,0.5-0.2,0.8-0.2c0.2,0,0.5,0,0.7,0.1s0.4,0.2,0.5,0.4
		c0.2,0.2,0.3,0.3,0.4,0.6c0.1,0.2,0.1,0.5,0.1,0.8c0,0.1,0,0.2,0,0.2c0,0-0.1,0.1-0.1,0.1h-2.7c0,0.3,0,0.5,0.1,0.7
		s0.2,0.4,0.3,0.5c0.1,0.1,0.2,0.2,0.4,0.3c0.2,0.1,0.3,0.1,0.5,0.1c0.2,0,0.3,0,0.5-0.1s0.2-0.1,0.3-0.1c0.1,0,0.2-0.1,0.2-0.1
		c0.1,0,0.1-0.1,0.2-0.1c0.1,0,0.1,0,0.1,0.1L60.2,60z M59.6,58.1c0-0.2,0-0.3-0.1-0.5c0-0.1-0.1-0.3-0.2-0.4
		c-0.1-0.1-0.2-0.2-0.3-0.2c-0.1-0.1-0.3-0.1-0.4-0.1c-0.3,0-0.6,0.1-0.8,0.3s-0.3,0.5-0.4,0.8H59.6z"/>
	<path class="st1" d="M61.8,57.3c0.1-0.3,0.3-0.5,0.5-0.7c0.2-0.2,0.4-0.2,0.7-0.2c0.1,0,0.2,0,0.2,0c0.1,0,0.2,0,0.2,0.1L63.4,57
		c0,0.1-0.1,0.1-0.1,0.1c0,0-0.1,0-0.2,0c-0.1,0-0.2,0-0.2,0c-0.1,0-0.2,0-0.3,0.1s-0.2,0.1-0.3,0.2c-0.1,0.1-0.2,0.2-0.2,0.3
		s-0.1,0.2-0.2,0.4v2.6h-0.7v-4.1h0.4c0.1,0,0.1,0,0.2,0c0,0,0.1,0.1,0.1,0.2L61.8,57.3z"/>
	<path class="st1" d="M65,55.2c0,0.1,0,0.1,0,0.2s-0.1,0.1-0.1,0.2s-0.1,0.1-0.2,0.1s-0.1,0-0.2,0s-0.1,0-0.2,0
		c-0.1,0-0.1-0.1-0.2-0.1c0,0-0.1-0.1-0.1-0.2c0-0.1,0-0.1,0-0.2s0-0.1,0-0.2c0-0.1,0.1-0.1,0.1-0.2c0,0,0.1-0.1,0.2-0.1
		c0.1,0,0.1,0,0.2,0s0.1,0,0.2,0c0.1,0,0.1,0.1,0.2,0.1c0,0,0.1,0.1,0.1,0.2S65,55.1,65,55.2z M64.8,56.4v4.1h-0.7v-4.1H64.8z"/>
	<path class="st1" d="M69.4,60c-0.1,0.1-0.2,0.2-0.3,0.3c-0.1,0.1-0.3,0.1-0.4,0.2c-0.1,0.1-0.3,0.1-0.4,0.1c-0.2,0-0.3,0-0.4,0
		c-0.3,0-0.5,0-0.8-0.1c-0.2-0.1-0.4-0.2-0.6-0.4c-0.2-0.2-0.3-0.4-0.4-0.7c-0.1-0.3-0.1-0.6-0.1-0.9c0-0.3,0-0.6,0.1-0.8
		c0.1-0.2,0.2-0.5,0.4-0.6c0.2-0.2,0.4-0.3,0.6-0.4c0.2-0.1,0.5-0.2,0.8-0.2c0.2,0,0.5,0,0.7,0.1c0.2,0.1,0.4,0.2,0.5,0.4
		c0.2,0.2,0.3,0.3,0.4,0.6c0.1,0.2,0.1,0.5,0.1,0.8c0,0.1,0,0.2,0,0.2c0,0-0.1,0.1-0.1,0.1h-2.7c0,0.3,0,0.5,0.1,0.7
		c0.1,0.2,0.2,0.4,0.3,0.5c0.1,0.1,0.2,0.2,0.4,0.3c0.2,0.1,0.3,0.1,0.5,0.1c0.2,0,0.3,0,0.5-0.1s0.2-0.1,0.3-0.1
		c0.1,0,0.2-0.1,0.2-0.1s0.1-0.1,0.2-0.1c0.1,0,0.1,0,0.1,0.1L69.4,60z M68.8,58.1c0-0.2,0-0.3-0.1-0.5c0-0.1-0.1-0.3-0.2-0.4
		c-0.1-0.1-0.2-0.2-0.3-0.2c-0.1-0.1-0.3-0.1-0.4-0.1c-0.3,0-0.6,0.1-0.8,0.3s-0.3,0.5-0.4,0.8H68.8z"/>
	<path class="st1" d="M71,57c0.1-0.1,0.2-0.2,0.3-0.3s0.2-0.2,0.3-0.2c0.1-0.1,0.2-0.1,0.4-0.1c0.1,0,0.3,0,0.4,0
		c0.2,0,0.4,0,0.6,0.1c0.2,0.1,0.3,0.2,0.4,0.3c0.1,0.1,0.2,0.3,0.3,0.5c0.1,0.2,0.1,0.4,0.1,0.6v2.6H73v-2.6c0-0.3-0.1-0.6-0.2-0.7
		C72.6,57,72.4,57,72.1,57c-0.2,0-0.4,0.1-0.6,0.2c-0.2,0.1-0.4,0.2-0.5,0.4v3h-0.7v-4.1h0.4c0.1,0,0.2,0,0.2,0.1L71,57z"/>
</g>
<g class="st0">
	<path class="st1" d="M77.7,57.2C77.7,57.2,77.6,57.2,77.7,57.2c-0.1,0.1-0.1,0.1-0.2,0.1c0,0-0.1,0-0.1-0.1c0,0-0.1-0.1-0.2-0.1
		c-0.1,0-0.2-0.1-0.3-0.1c-0.1,0-0.2-0.1-0.4-0.1c-0.2,0-0.4,0-0.5,0.1s-0.3,0.2-0.4,0.3c-0.1,0.1-0.2,0.3-0.2,0.5s-0.1,0.4-0.1,0.6
		c0,0.2,0,0.5,0.1,0.7c0.1,0.2,0.1,0.4,0.2,0.5c0.1,0.1,0.2,0.2,0.4,0.3c0.1,0.1,0.3,0.1,0.5,0.1c0.2,0,0.3,0,0.4-0.1
		c0.1,0,0.2-0.1,0.3-0.1c0.1-0.1,0.1-0.1,0.2-0.1s0.1-0.1,0.1-0.1c0.1,0,0.1,0,0.1,0.1l0.2,0.3c-0.1,0.1-0.2,0.2-0.3,0.3
		c-0.1,0.1-0.2,0.1-0.4,0.2c-0.1,0.1-0.3,0.1-0.4,0.1c-0.1,0-0.3,0-0.4,0c-0.3,0-0.5,0-0.7-0.1c-0.2-0.1-0.4-0.2-0.6-0.4
		c-0.2-0.2-0.3-0.4-0.4-0.7s-0.1-0.6-0.1-0.9c0-0.3,0-0.6,0.1-0.8c0.1-0.3,0.2-0.5,0.4-0.7c0.2-0.2,0.4-0.3,0.6-0.4
		c0.2-0.1,0.5-0.2,0.8-0.2c0.3,0,0.5,0,0.8,0.1c0.2,0.1,0.4,0.2,0.6,0.4L77.7,57.2z"/>
</g>
<g class="st0">
	<path class="st1" d="M82,60c-0.1,0.1-0.2,0.2-0.3,0.3c-0.1,0.1-0.3,0.1-0.4,0.2c-0.1,0.1-0.3,0.1-0.4,0.1c-0.2,0-0.3,0-0.4,0
		c-0.3,0-0.5,0-0.8-0.1s-0.4-0.2-0.6-0.4c-0.2-0.2-0.3-0.4-0.4-0.7c-0.1-0.3-0.1-0.6-0.1-0.9c0-0.3,0-0.6,0.1-0.8
		c0.1-0.2,0.2-0.5,0.4-0.6c0.2-0.2,0.4-0.3,0.6-0.4c0.2-0.1,0.5-0.2,0.8-0.2c0.2,0,0.5,0,0.7,0.1s0.4,0.2,0.5,0.4
		c0.2,0.2,0.3,0.3,0.4,0.6c0.1,0.2,0.1,0.5,0.1,0.8c0,0.1,0,0.2,0,0.2c0,0-0.1,0.1-0.1,0.1h-2.7c0,0.3,0,0.5,0.1,0.7
		s0.2,0.4,0.3,0.5c0.1,0.1,0.2,0.2,0.4,0.3C80,60,80.2,60,80.4,60c0.2,0,0.3,0,0.5-0.1s0.2-0.1,0.3-0.1s0.2-0.1,0.2-0.1
		s0.1-0.1,0.2-0.1c0.1,0,0.1,0,0.1,0.1L82,60z M81.4,58.1c0-0.2,0-0.3-0.1-0.5c0-0.1-0.1-0.3-0.2-0.4c-0.1-0.1-0.2-0.2-0.3-0.2
		c-0.1-0.1-0.3-0.1-0.4-0.1c-0.3,0-0.6,0.1-0.8,0.3s-0.3,0.5-0.4,0.8H81.4z"/>
</g>
<line class="st2" x1="82.9" y1="55.6" x2="86.2" y2="58.6"/>
<line class="st2" x1="82.9" y1="61.6" x2="86.2" y2="58.6"/>
<path class="st1" d="M33.2,37.6h-0.5c-0.2,0-0.3-0.1-0.3-0.2l-5-11.9H8.7l-5,11.9c0,0.2-0.2,0.3-0.4,0.2H3L17.9,2h0.5L33.2,37.6z
	 M27.3,24.9L18.5,3.9c-0.1-0.2-0.2-0.4-0.2-0.5l-0.2-0.5l-0.2,0.5c-0.1,0.2-0.1,0.3-0.2,0.5L8.9,24.9H27.3z"/>
<path class="st1" d="M46.1,22.5V41h-0.6V22.5L32.2,2h0.5C32.8,2,33,2.1,33,2.2l12,18.6c0.1,0.2,0.3,0.4,0.4,0.6
	c0.1,0.2,0.2,0.4,0.3,0.6c0.1-0.2,0.2-0.4,0.3-0.6l0.4-0.6l12-18.6C58.5,2.1,58.7,2,58.8,2h0.5L46.1,22.5z"/>
<path class="st1" d="M88.5,37.6h-0.5c-0.2,0-0.3-0.1-0.3-0.2l-5-11.9H64l-5,11.9c0,0.2-0.2,0.3-0.4,0.2h-0.3L73.2,2h0.5L88.5,37.6z
	 M82.6,24.9L73.8,3.9c-0.1-0.2-0.2-0.4-0.2-0.5l-0.2-0.5l-0.2,0.5c-0.1,0.2-0.1,0.3-0.2,0.5l-8.8,21.1H82.6z"/>
<line class="st2" x1="11.7" y1="55.8" x2="8.5" y2="58.8"/>
<line class="st2" x1="11.7" y1="61.7" x2="8.4" y2="58.8"/>
<path class="st3" d="M44.6,61.1L44.6,61.1L44.6,61.1L44.6,61.1L44.6,61.1L44.6,61.1L44.6,61.1C44.6,61,44.6,61,44.6,61.1l0.1-0.2
	l0,0L44.6,61.1c0.1-0.1,0.1-0.2,0.1-0.3l-0.1,0.1l0.1-0.2l0,0l0,0l0,0l0.1-0.2l0,0l-0.1,0.1l0,0v-0.1l0.2-0.2l0.2-0.3V60v-0.1v0
	c0,0,0,0,0,0s0-0.1,0-0.1v0v-0.1c0,0,0,0.1-0.1,0.1v-0.1l0,0l0,0l0,0c0,0,0-0.1,0-0.1L45,59.3l-0.2-0.2l-0.1-0.2l-0.2-0.3l-0.2-0.2
	l-0.2-0.3l-0.3-0.4l-0.2-0.3l-0.2-0.2l-0.2-0.4L43,56.3l-0.1-0.2l0.2-0.7l-0.3-0.6c0-0.1-0.1-0.2-0.1-0.3l-0.1-0.2L42.4,54v-0.1l0,0
	l0.2,0.5l0,0c0,0,0-0.1-0.1-0.1l-0.1-0.1c0.1,0.2,0.1,0.4,0.2,0.5l0.3,0.5l0,0l-0.1-0.1l0,0l0,0l0,0.1l0,0l0,0v-0.1l0,0
	c0,0,0-0.1-0.1-0.2l0,0l-0.1-0.3l0,0l0.1,0.1V55l-0.1,0c0,0,0-0.1-0.1-0.1s0,0,0,0l-0.1-0.1l0,0l0,0c0,0,0,0,0,0s0,0,0,0
	c0,0,0-0.1,0-0.1l0,0l0,0l0,0c0,0,0,0,0-0.1s0,0,0-0.1s0,0,0-0.1v-0.1c0,0,0,0,0-0.1l0,0c0,0,0-0.1,0-0.1c0,0,0,0,0-0.1
	c0,0,0-0.1,0-0.1l0,0V54L42,53.4l-0.1-0.2l-0.1-0.3v-0.1c0,0,0,0-0.1,0v-0.1l0,0c0,0,0.1,0,0.1-0.1l0,0l-0.1-0.1l-0.3-0.2l-0.3-0.2
	l-0.1-0.1h-0.1l0,0c0-0.1,0.1-0.1,0.1-0.2c0,0,0-0.1,0.1-0.1l0.1-0.2l0,0c0,0,0,0,0,0l0,0l0.1-0.1l0,0l0.1-0.1l0,0
	c0,0,0.1-0.1,0.1-0.1c0,0,0,0,0-0.1l0.2-0.3c0,0,0,0,0.1,0c0,0,0.1-0.1,0.1-0.1c0,0,0,0,0.1,0l0,0c0,0,0,0,0.1,0s0,0,0,0
	c0-0.1,0.1-0.1,0.1-0.1c0,0,0.1,0,0.1,0l0.2,0.2l0.3,0.3l0.4,0.3l0.3,0.2l0.4,0.3l0.4,0.2l0.2,0.1l0.1,0.1l0.5,0.3l0.4,0.2l0.2,0.1
	l0.2,0.1h0.1l0,0c0.1,0,0.1,0.1,0.2,0.1h0.2l0.3,0h0.1H47h0.7h0.6h0.2h0.1l0,0h0.2l0,0h-0.1h0.2l0,0h-0.1l0,0h0.1H49h-0.1H49l0,0
	h-0.2H49c0,0,0.1,0,0.1,0h0.1l0,0c0.3,0,0.6,0,0.9,0l0,0h0.4c0,0,0.1,0,0.1,0c0,0,0.1,0,0.1,0l0,0H51l0,0l-0.5,0.1h0.3l0,0H51l0,0
	h-0.1c0,0,0.1,0,0.1,0s0,0,0.1,0h0.3h-0.3l0,0l0,0c0,0,0.1,0,0.1,0h0.2l0,0h0.1l0,0c0,0-0.1,0-0.1,0s0,0-0.1,0s0,0,0,0h-0.5l0,0l0,0
	h-0.2h0.3h-0.2H51c-0.1,0.1-0.2,0-0.2,0l0,0l0,0h0.1l0,0H51h0.1h-0.3h0.4c0,0,0,0-0.1,0h-0.3c0,0-0.1,0-0.1,0l0,0h-0.1l0,0h-0.1
	l0.1-0.1c0,0-0.1-0.1-0.2,0l0,0l0,0h-0.1c0,0,0,0,0,0v0l0,0h-0.1l0,0l0,0h-0.1h-0.1c0,0,0.1,0,0.1,0s0,0-0.1,0l0,0l0,0
	c0,0-0.1,0-0.1,0l0,0v0.1h0v0.9h-0.1l0,0h-0.1c0,0.1,0,0.2,0,0.3c0,0,0,0.1,0,0.1c0,0.1,0,0.3-0.1,0.4l-0.1,0.4v0.2l0,0l0,0
	c0,0.1-0.1,0.2-0.2,0.3c0,0,0,0,0,0.1l0,0c0,0.1-0.1,0.1-0.1,0.2c0,0.1-0.1,0.1-0.1,0.2s-0.1,0.1-0.1,0.1c0,0,0,0.1,0,0.1
	c0,0,0,0,0,0l0,0l0,0L49,56.7l0,0c0,0,0,0,0,0.1L48.8,57l-0.1,0.2l-0.2,0.5c0,0.1-0.1,0.1-0.1,0.2c-0.1,0-0.3,0-0.4,0.1v0v0.1
	l-0.1,0.2l0,0.1l-0.1,0.2l-0.1,0.1l0,0v-0.1v-0.1l0,0l0,0l-0.1,0.2l0,0l-0.1,0.1c0,0,0.1-0.1,0.1-0.1l0,0l0,0l-0.2,0.3l0,0v-0.1l0,0
	l0,0L47.3,59v0.1l-0.1,0.2v0.1v0.1l0,0l0,0l-0.1,0.2l0,0c0,0,0,0.1,0,0.1l0.2,0.3l0.4,0.5l0.2,0.3l0.4,0.5l0.4,0.4l0.2,0.3l0.3,0.3
	l0.3,0.3l0.1,0.1l0.1,0.1l0.1,0.1l0.1,0l0.3,0.2l0.2,0.2l0.2,0.1l0.5,0.4l0.1,0.1c0,0,0,0,0,0.1l0,0l-0.3,0c0,0,0,0,0,0.1l0.1,0.1
	l0.1,0.1l0,0c-0.1,0-0.2-0.1-0.2-0.1l0,0l0.3,0.2l0,0l0.2,0.2l0.2,0.2l0,0c-0.1,0-0.2-0.1-0.3-0.2l0.1,0.1l0,0c0,0-0.1,0-0.1,0l0,0
	l-0.1-0.1l0,0c0.1,0.1,0.1,0.1,0.2,0.1l0.1,0.1l0.2,0.1c0,0-0.1,0-0.2-0.1l0,0c0-0.1,0-0.1-0.1-0.1c0,0-0.1,0-0.1-0.1l0,0l0,0
	l-0.1-0.1l0,0l0.7,0.5l0,0L52,64.9l0,0l0.3,0.2l0,0l-0.1-0.1l-0.4-0.3l0,0l0,0l0,0c0,0,0,0-0.1,0l0,0l0,0l-0.1-0.1l0,0l0.1,0.1l0,0
	c-0.1-0.1-0.2-0.1-0.2-0.2s-0.1-0.1-0.1-0.1L51,64.3l0,0c0,0,0.1,0.1,0.1,0.1l0.1,0.1l0.3,0.2l0.2,0.1l0.2,0.1l0,0L51,64.4
	c0.1,0,0.1,0.1,0.1,0.1h0.1l0,0l-0.1-0.1l-0.1-0.1l0,0c0,0-0.1-0.1-0.1-0.1c0,0,0-0.1-0.1-0.1s-0.1,0-0.1-0.1l0,0l0-0.1L50.5,64l0,0
	c0,0-0.1,0-0.1-0.1h-0.1l0,0l-0.1-0.1l0,0c-0.1-0.1-0.2-0.2-0.3-0.2l0,0l0,0l0,0l0,0l0,0l-0.1-0.1l0,0l0,0h0.1l0.2,0.2l0.1,0.1l0,0
	l0.1,0.1l0.2,0.2l0,0h0.1l0,0c0,0-0.1-0.1-0.2-0.1c0,0-0.1-0.1-0.1-0.1l-0.2-0.1c0,0-0.1-0.1-0.1-0.1l0,0l-0.1,0l0,0l0,0
	c0,0-0.1-0.1-0.1-0.1l0,0l-0.1-0.1l-0.2-0.1c0,0,0,0-0.1,0l0.1,0.1l0,0l0.2,0.1l0,0l0,0l-0.2-0.1l-0.1-0.1l0.5,0.5l0,0L50,63.6
	c0,0-0.1-0.1-0.1-0.1l0,0c0-0.1-0.1-0.1-0.1-0.1l-0.1,0l0,0c0-0.1-0.1-0.1-0.2-0.1c0,0,0,0-0.1-0.1l0,0l0,0v0l0,0l0,0h-0.1l-0.2-0.2
	l0,0h-0.1l-0.2-0.2l0,0c0,0-0.1-0.1-0.1-0.1c0,0,0-0.1-0.1-0.1v0.1h-0.1c0,0,0,0,0,0l0.2,0.2l0,0l0,0l-0.2-0.1l-0.1-0.1l0,0l0,0
	c0,0,0-0.1,0-0.1l-0.1-0.1l0,0l0,0.1c0,0-0.1,0-0.1-0.1l0,0c0,0-0.1,0-0.1,0c0,0,0,0,0,0c0,0,0,0,0-0.1L48.1,62l-0.2-0.2
	c0,0-0.1,0,0-0.1l-0.1-0.1l0,0l-0.2-0.2l-0.1,0l0,0c0,0,0,0,0.1,0.1l0,0l-0.1-0.1c0,0-0.1,0-0.1-0.1l0,0c0,0,0,0,0,0
	c0,0,0-0.1-0.1-0.1l-0.1-0.1l0,0l0,0c0,0,0,0.1,0.1,0.1c0,0,0.1,0.1,0.1,0.1l0,0v0.1l0,0l-0.2-0.2l0,0l0,0v0.1l0.3,0.3l0.2,0.2
	l0.1,0.1l0.2,0.2h0c0,0.1,0,0.1,0.1,0.1l0,0l0,0l0.2,0.2c0.1,0.1,0.1,0.1,0.2,0.2l-0.1-0.1L48,62.1l-0.4-0.4l-0.2-0.2l-0.2-0.3
	l-0.1-0.1l0,0l0,0c0,0-0.1-0.1-0.1-0.2c0,0,0,0,0-0.1l0,0l0,0c0,0,0,0.1,0,0.1l0,0l0,0l0,0v0.1h0l-0.5-0.6l0,0v0.1l0,0l0,0l0.2,0.2
	l0,0v-0.1c0,0,0,0,0,0.1c0,0,0,0.1,0.1,0.1c0,0,0,0,0.1,0.1c0,0,0,0.1,0,0.1l0,0c0,0,0,0,0-0.1l0,0l-0.1-0.1l-0.1-0.1l0,0l0,0v0l0,0
	h0l-0.1,0.1l-0.2,0.3v0.1v0l-0.2,0.3l-0.1,0.2L45.7,62l-0.3,0.5l-0.2,0.2l0,0v-0.1l0.2-0.4l0.2-0.4l0,0l0-0.1l0,0c0,0,0,0,0,0.1
	s0,0-0.1,0.1l-0.1,0.2l0,0l0.1-0.2l0,0l-0.1,0.2l0,0l0,0c0,0,0,0-0.1,0.1l-0.1,0.2l0,0c0,0,0-0.1,0.1-0.1l0.1-0.1l0,0l0.1-0.1
	c0,0,0,0,0.1,0c0,0,0-0.1,0-0.1c0-0.1,0.1-0.1,0.1-0.2c0,0,0,0,0-0.1l0.1-0.1l0.1-0.2v0l0.1-0.2l0.1-0.2l0,0l-0.7,1.3l0,0l-0.1,0.2
	l0,0l0.1-0.1l0,0l-0.2,0.3l0,0v-0.1v-0.1l0,0l0,0.1v0.1l0,0v0.1l0,0l0,0l0,0v0l0,0c0,0,0,0.1-0.1,0.1l0,0V63l0,0l0,0l0,0l0,0
	L45,63.2c0,0,0,0,0,0.1c0,0,0,0,0,0.1l0,0l0,0c0,0,0,0,0,0.1c0,0,0,0.1-0.1,0.1l0,0l-0.1,0.2l-0.1,0.2l-0.2,0.3l-0.2,0.3l-0.1,0.2
	l-0.2,0.3l-0.1,0.2v0.1l0,0l1.2-2l0,0L43.6,65l0,0l0.1-0.2l0.1-0.1l0,0c0.1-0.1,0.1-0.1,0.1-0.2c0,0,0,0,0-0.1l0,0l0.1-0.1l0,0
	c0-0.1,0-0.1,0-0.1l0,0v-0.1c-0.1,0,0,0-0.1,0.1l0,0l0.2-0.4l0,0v0.1l0,0l0,0l0.1-0.1l0,0l-0.1,0.1l0.1-0.2l0.2-0.2l0,0l0,0l0,0l0,0
	c0,0,0,0,0-0.1s0,0,0,0l0.2-0.3v-0.1l0,0v-0.1l-0.1,0.1l0-0.1l0,0l0,0l0.1-0.1l0,0l0.2-0.3l0.1-0.2v0c0,0,0,0,0-0.1
	c0,0-0.1,0.1-0.1,0.1l0,0c0,0-0.1,0.1-0.1,0.1l0,0v0v0.1l0,0v0.1l0,0c0,0-0.1,0.1-0.1,0.1l0,0c-0.1,0,0,0.1-0.1,0.2l0,0
	c0,0.1-0.1,0.1-0.1,0.2l0,0c0,0.1-0.1,0.1-0.1,0.2l0,0l-0.1,0.2l-0.1,0.2c0,0,0,0,0,0.1L44,63.8l-0.1,0.1l0,0c0,0,0,0.1-0.1,0.1v0.1
	c0,0,0,0.1,0,0.1c0,0,0,0.1-0.1,0.1c0,0,0,0.1,0,0.1c0,0.1,0,0.1-0.1,0.1c0,0,0,0,0,0.1l0,0l0,0c0,0,0,0.1-0.1,0.1
	c0,0,0,0.1-0.1,0.2l0,0.1v0.1L43.4,65l0,0l0.1-0.2l0,0l0,0.1L43.4,65l0,0c0,0.1,0,0.1-0.1,0.2c0,0.1-0.1,0.1-0.1,0.2l-0.1,0.1l0,0
	v-0.1L43,65.6l0,0l0,0l0,0l0-0.1v-0.1c0-0.1,0.1-0.1,0.1-0.2c0-0.1,0.1-0.1,0.1-0.2c0.1-0.1,0.1-0.1,0.1-0.2c0-0.1,0.1-0.2,0.1-0.2
	l0.1-0.1c0,0,0,0,0-0.1l0,0l-0.4,0.7l0,0l0.2-0.4l0,0l0,0c0,0,0-0.1,0-0.1c0,0,0,0,0-0.1l0.1-0.1l0.1-0.1l0.1-0.2l0,0
	c-0.1,0.1-0.2,0.2-0.3,0.4l-0.3,0.4l0,0l0,0l0,0v-0.1l0.1-0.1l0,0l0,0c0.1-0.1,0.1-0.2,0.2-0.3c0-0.1,0-0.2,0.2-0.3c0,0,0,0,0,0l0,0
	l0,0l0.1-0.2h0.1l0,0c0,0,0-0.1,0-0.1c0.1,0,0.1-0.1,0.1-0.1c0-0.1,0.1-0.1,0.1-0.2l0,0l0.2-0.4c0,0-0.1,0-0.1,0.1l0,0
	c0,0-0.1,0.1-0.1,0.1l0,0.1l-0.1,0.1v0.1l0,0l0,0l-0.1,0.2l0,0l0,0c0,0,0,0,0,0.1l0,0l0,0l-0.1,0.1l-0.2,0.3l-0.2,0.3
	c0,0.1-0.1,0.1-0.2,0.2c-0.1,0.1-0.1,0.2-0.2,0.2h0l0,0l0.2-0.4l0,0l-0.4,0.5l0,0l0.1-0.1c-0.1,0.1-0.1,0.2-0.2,0.2s0,0,0,0
	s0-0.1,0.1-0.1s0,0,0,0c0,0,0,0,0-0.1c0,0,0,0,0-0.1l0.1-0.1l0.1-0.2c0-0.1,0.1-0.1,0.1-0.2s0.1-0.2,0.1-0.2l0,0l0,0l0.1-0.1
	l0.1-0.1l0.1-0.2l0.1-0.2c0,0,0,0,0-0.1l-0.1,0.1l0,0c0,0,0-0.1,0-0.1c0,0,0.1-0.1,0.1-0.1c0,0,0-0.1,0-0.1l0.1-0.2
	c0.1-0.1,0.1-0.2,0.1-0.2c0-0.1,0.1-0.2,0.2-0.3c0,0,0,0,0,0l0,0v0.1v0.1l0,0c0,0,0,0.1,0,0.1C44,62.9,43.9,63,43.9,63
	c0,0,0,0,0,0.1l0,0c-0.1,0-0.1,0.1-0.1,0.1s0,0.1-0.1,0.1c0,0,0,0,0,0.1l0,0l-0.4,0.5l-0.2,0.3l0,0L43,64.5L42.7,65l-0.2,0.3
	l-0.2,0.3l-0.2,0.4l-0.3,0.4l-0.2,0.4l-0.1,0.1l0,0l0.1-0.1l0.2-0.3l0,0l0,0l0.1-0.1l0.2-0.3l0,0l0.1-0.2l0,0l0.1-0.2l0.2-0.4v-0.1
	l0,0l-0.1,0.1l0,0v-0.1c0,0,0.1-0.1,0.1-0.1c0,0,0,0.1-0.1,0.1l-0.1,0.1l-0.1,0.2L42,65.8h0c0,0,0,0.1,0,0.1c0,0-0.1,0.1-0.1,0.1
	l-0.1,0.1l0,0v-0.1c-0.1,0,0,0.1,0,0.1l0,0c0,0,0,0.1,0,0.1l-0.1,0.1l0,0l0,0c0,0,0,0.1,0,0.1l-0.1,0.1l0,0v-0.1h0v0.1v0.1l0,0l0,0
	l0,0l0,0l0,0l0,0L41,67l-0.1,0.1l0,0l0,0c-0.1,0-0.1,0.1-0.1,0.1h0l0,0l0,0l0,0l-0.1,0.1l0,0v-0.1l0.1-0.2l0.1-0.1v-0.1l0,0l0.1-0.2
	l0.1-0.2l0.1-0.1l0,0l0.1-0.2l0-0.1l0.2-0.1l0,0l0.1-0.2l0.1-0.2l0.1-0.1l0.1-0.1l0.1-0.2l0,0l0.1-0.2l0.1-0.1l0,0c0,0,0,0,0-0.1
	l0,0c0,0,0.1-0.1,0.1-0.1c0-0.1,0.1-0.2,0.2-0.2v-0.1c0-0.1,0.1-0.1,0.1-0.2c0,0,0.1-0.1,0.1-0.1l0.1-0.1l0-0.1l0,0c0,0,0-0.1,0-0.1
	l0,0c0-0.1,0-0.1,0.1-0.2c0,0,0-0.1,0-0.1s0-0.1,0.1-0.1c0,0,0.1-0.1,0.1-0.1l0.1-0.1l0,0v-0.1l0,0l0.1-0.2l0.1-0.2l0.1-0.1
	c0,0,0-0.1,0-0.1s0-0.1,0.1-0.1l0.1-0.1l0.1-0.2l0,0v0.1l0,0c0,0.1,0.1,0.1,0.2,0s0.1-0.1,0-0.2l0,0l0,0l0,0l0,0l0,0l0,0l0.2-0.3
	c0,0,0-0.1,0.1-0.1s0.1-0.1,0.1-0.1l0,0l0,0l0,0l0,0l0.1-0.2l0,0l0.1-0.1c0,0,0,0,0-0.1L44.6,61.1z M42.3,53.8V54l0,0l0.1,0.2l0,0
	l0,0l0-0.1L42.3,53.8L42.3,53.8c0.1-0.1,0.1-0.1,0.1-0.2l0,0L42.3,53.8z M42.6,54.7v-0.1l0,0V54.7l0.1,0.2l0,0L42.6,54.7z M44.8,58
	C44.8,58,44.7,57.9,44.8,58L44.8,58c0,0.1,0.1,0.1,0.1,0.1l0,0L44.8,58z M42.1,65.3L42.1,65.3L42,65.5l0,0L42.1,65.3l0.1-0.1l0,0
	L42.1,65.3z M46.3,60.6C46.3,60.6,46.3,60.6,46.3,60.6c0.1-0.1,0.1-0.1,0.1-0.2l0,0L46.3,60.6L46.3,60.6L46.3,60.6L46.3,60.6z
	 M42.4,64.9L42.4,64.9L42.4,64.9l0.1-0.2l0,0C42.5,64.8,42.4,64.8,42.4,64.9L42.3,65C42.4,65,42.4,65,42.4,64.9L42.4,64.9z
	 M41.4,66.4L41.4,66.4L41.4,66.4L41.4,66.4L41.4,66.4L41.4,66.4c0,0-0.1,0.1-0.1,0.2c0,0,0,0,0-0.1C41.4,66.5,41.4,66.5,41.4,66.4
	L41.4,66.4z M45.8,61.1l-0.1,0.1c0,0,0,0-0.1,0l0,0v0.1l0,0.1l0,0c0,0.1-0.1,0.1-0.1,0.2l0,0l0.1-0.1l0,0v-0.1c0,0,0.1-0.1,0-0.1
	l0,0L45.8,61.1L45.8,61.1l0-0.2l0,0L45.8,61.1z M42.2,53.5v0.2l0,0C42.2,53.7,42.2,53.6,42.2,53.5c-0.1-0.1-0.1-0.2-0.2-0.3l0.1,0.2
	L42.2,53.5z M44.9,61.7L44.9,61.7l-0.1,0.1l0,0L44.9,61.7L44.9,61.7L44.9,61.7L44.9,61.7L44.9,61.7c0-0.1,0.1-0.2,0.1-0.2l0,0H45
	l0,0l0,0l0,0L44.9,61.7z M43.6,56.3C43.6,56.3,43.6,56.2,43.6,56.3L43.6,56.3L43.6,56.3l0.1,0.2l0.1,0.1l0,0l0,0
	c0-0.1-0.1-0.1-0.1-0.2L43.6,56.3L43.6,56.3z M42.3,65.1L42.3,65.1L42.3,65.1L42.3,65.1L42.3,65.1L42.3,65.1l0,0.1l0,0v0.1l0,0
	l0.4-0.6l0,0l-0.1,0.1l0,0l-0.1,0.1l0,0l0,0L42.5,65c0,0,0,0,0,0.1C42.5,65,42.4,65.1,42.3,65.1L42.3,65.1z M47.7,53.8L47.7,53.8
	h-0.1h-0.1l0,0c0,0-0.1,0-0.1,0l0,0h-0.1H47h-0.1l0,0c0,0,0.1,0,0.1,0l0,0l0,0l0,0l0,0h-0.1h-0.4h-0.6l0,0l0,0l0,0
	c-0.5,0-1-0.1-1.5-0.2l0,0l0,0c0,0-0.1,0-0.1,0c0,0.1,0,0.2,0.1,0.2c0,0,0,0.1,0,0.1c0,0,0,0,0,0.1s0,0,0,0l0,0l0,0V54l0,0l0,0
	c0,0,0,0,0,0.1v0.1l0,0v-0.1l0,0l0.1,0.4l0,0c0,0,0,0.1,0,0.1c0,0.1,0,0.2,0.1,0.2l0.1,0.3l0.1,0.2l0.2,0.3l0.2,0.4l0.2,0.3l0.2,0.4
	l0.1,0.2l0.2,0.4l0.2,0.3l0.3,0.5l0.1,0.2l0.1-0.2c0-0.1,0.1-0.1,0.1-0.2c0,0,0-0.1,0.1-0.1v-0.1l0,0l0,0l0,0c0,0,0-0.1,0.1-0.1
	s0,0,0,0c0,0,0-0.1,0-0.1c0,0,0-0.1,0.1-0.2s0-0.1,0-0.1c0,0,0.1-0.1,0-0.1c0-0.1,0-0.1,0.1-0.2l0,0c0,0,0-0.1,0-0.1l0.3-0.6
	l0.3-0.6l0.1-0.3l0,0l0,0c0,0,0,0,0,0.1v0.1L47.3,56l-0.2,0.5L47,56.8c0,0,0,0.1-0.1,0.2l-0.2,0.4l-0.1,0.3l-0.2,0.4l0,0l0,0l0,0
	l0.1-0.3l0.1-0.3l0.1-0.2l0.2-0.3l0.1-0.3l0.2-0.4l0.1-0.3l0.1-0.2l0.1-0.4c0-0.2,0.1-0.3,0.2-0.5s0.1-0.3,0.1-0.5s0-0.3,0.1-0.5
	c0,0,0-0.1,0-0.1c0,0,0,0,0,0l0,0v0.1l0,0l0,0l0,0l0,0l0,0l0,0l0,0l0,0l0,0l0,0L47.7,53.8z M42.4,53.9c-0.1-0.3-0.2-0.5-0.3-0.8
	L42.4,53.9z M45.7,59.3L45.7,59.3l-0.5-0.6l0,0l0,0.1l0.2,0.2L45.7,59.3L45.7,59.3z M47.1,56.8L47.1,56.8l-0.3,0.7l0,0L47.1,56.8z
	 M44.7,58L44.7,58l0.4,0.6l0,0c0,0,0-0.1,0-0.1L45,58.3l-0.1-0.1L44.7,58L44.7,58z M45.2,53.8h0.2l0,0l0,0l0,0c0,0,0.1,0,0,0l0,0
	h0.1l0,0h-0.4l0,0H45.2L45.2,53.8z M42.8,64.4C42.8,64.4,42.8,64.4,42.8,64.4v-0.1l0,0l-0.1,0.2l0,0v-0.1l0,0c0,0,0,0.1,0,0.1
	S42.8,64.4,42.8,64.4z M44.4,53.6L44.4,53.6l0.3,0.1l0,0l0,0l0,0h-0.1l0,0l0,0h-0.1l0,0l0,0L44.4,53.6z M44.6,62L44.6,62
	c0.1-0.1,0.2-0.2,0.2-0.3L44.6,62z M44.7,62L44.7,62L44.7,62L44.7,62C44.7,62,44.7,62,44.7,62L44.7,62L44.7,62
	c-0.1,0.2-0.1,0.2-0.2,0.3h0C44.6,62.3,44.7,62,44.7,62L44.7,62z M44.6,57.9L44.6,57.9l-0.1-0.2l-0.1-0.2l0,0l0,0L44.6,57.9z
	 M43.2,64.3C43.2,64.3,43.2,64.3,43.2,64.3c0,0.1,0,0.1,0,0.1l-0.1,0.2l0,0l0,0L43.2,64.3C43.3,64.3,43.2,64.3,43.2,64.3z
	 M42.7,64.6l0.1-0.1l0,0l0,0l0,0C42.8,64.5,42.7,64.6,42.7,64.6C42.7,64.6,42.7,64.6,42.7,64.6L42.7,64.6z M44.3,62.5L44.3,62.5
	l0.1-0.2l0,0C44.4,62.4,44.4,62.4,44.3,62.5z M48,61.8L48,61.8l0.3,0.3l0,0L48,61.8z M50.5,53.8h0.2c0,0,0,0,0.1,0
	S50.5,53.7,50.5,53.8L50.5,53.8z M45.8,60.6L45.8,60.6v0.2c0,0,0,0,0,0.1C45.8,60.7,45.8,60.6,45.8,60.6L45.8,60.6z M50.8,63.7
	L50.8,63.7l0.2,0.2l0,0L50.8,63.7z M43.5,63.4L43.5,63.4L43.5,63.4c0-0.1,0-0.1,0-0.1V63.4z M45.5,61.7l-0.1,0.2l0,0
	c0,0,0-0.1,0-0.1C45.4,61.8,45.4,61.7,45.5,61.7L45.5,61.7L45.5,61.7z M45.8,53.8L45.8,53.8L45.8,53.8
	C45.8,53.8,45.8,53.8,45.8,53.8L45.8,53.8L45.8,53.8L45.8,53.8L45.8,53.8L45.8,53.8L45.8,53.8z M43.2,55.5L43.2,55.5L43,55.1l0,0
	L43.2,55.5z M46.5,58.1l-0.1,0.2C46.4,58.3,46.4,58.2,46.5,58.1L46.5,58.1z M44.3,63.9C44.2,64,44.2,64,44.2,64L44.3,63.9L44.3,63.9
	L44.3,63.9L44.3,63.9L44.3,63.9z M49.3,63.1L49.3,63.1L49,62.8l0,0L49.3,63.1z M44.6,62.9l-0.1,0.2C44.5,63,44.5,62.9,44.6,62.9
	L44.6,62.9z M42.7,64.6c-0.1,0-0.1,0.1-0.1,0.1S42.6,64.6,42.7,64.6L42.7,64.6z M44.4,62L44.4,62C44.4,62,44.3,62,44.4,62
	c-0.1,0.1-0.1,0.1-0.1,0.2l0,0L44.4,62z M46.2,58.5c0.1,0,0.1-0.1,0.1-0.2l0,0L46.2,58.5z M41.5,66.4L41.5,66.4l0.2-0.3l0,0
	L41.5,66.4z M45,53.7c0,0,0.1,0.1,0.2,0l0,0L45,53.7L45,53.7C45.1,53.8,45.1,53.8,45,53.7L45,53.7z M42.1,65.4c0,0-0.1,0.1-0.1,0.1
	S42.1,65.5,42.1,65.4z M43.3,55.8L43.3,55.8l-0.1-0.2l0,0L43.3,55.8z M45.3,57.7L45.3,57.7l-0.1-0.2l0,0L45.3,57.7z M45,61.3
	L45,61.3l-0.1,0.1v0.1l0,0L45,61.3z M45.8,61.6L45.8,61.6l0.1-0.2l0,0L45.8,61.6z M44,56.9L44,56.9l0.1,0.2C44.1,57,44,57,44,56.9z
	 M44.4,61.8c0,0,0,0.1,0,0.1C44.4,61.9,44.4,61.8,44.4,61.8L44.4,61.8z M43,64L43,64L43,64L43,64L43,64L43,64L43,64z M44.2,61.8
	L44.2,61.8v-0.1l0,0l0,0V61.8z M45.4,61.3c0.1,0,0.1-0.1,0.1-0.1L45.4,61.3z M43.7,56.5L43.7,56.5l0.1,0.2l0,0L43.7,56.5z M41.7,66
	L41.7,66l0.1-0.2l0,0L41.7,66z M51.4,64.5L51.4,64.5l-0.2-0.1l0,0L51.4,64.5z M44.4,62.4c0,0,0.1-0.1,0.1-0.1
	C44.5,62.3,44.5,62.3,44.4,62.4L44.4,62.4z M44.2,61.9C44.3,61.9,44.3,61.8,44.2,61.9L44.2,61.9z M44.9,61.5L44.9,61.5l0.1-0.2l0,0
	C45,61.4,44.9,61.5,44.9,61.5L44.9,61.5z M45,58.4L45,58.4l0-0.2l0,0L45,58.4z M44.7,58.1L44.7,58.1l0.1,0.2l0,0L44.7,58.1z
	 M46.4,58.1L46.4,58.1l0.1-0.2l0,0L46.4,58.1z M47.6,61.6c0,0,0.1,0.1,0.1,0.1l0,0L47.6,61.6z M43.5,63.3L43.5,63.3L43.5,63.3
	C43.5,63.2,43.5,63.2,43.5,63.3C43.3,63.2,43.5,63.2,43.5,63.3L43.5,63.3z M50.7,53.8L50.7,53.8h0.2l0,0H50.7z M44.2,57.3L44.2,57.3
	l-0.1-0.2l0,0L44.2,57.3z M43.3,63.7L43.3,63.7L43.3,63.7L43.3,63.7L43.3,63.7L43.3,63.7L43.3,63.7L43.3,63.7z M43.5,63.4l0.1-0.1
	C43.5,63.3,43.5,63.3,43.5,63.4L43.5,63.4z M45,61.3L45,61.3l0.1-0.2l0,0L45,61.3z M44.3,62.6L44.3,62.6L44.3,62.6L44.3,62.6
	L44.3,62.6z M45.4,59.9L45.4,59.9L45.3,60l0,0L45.4,59.9z M44.8,53.7L44.8,53.7L44.8,53.7L44.8,53.7L44.8,53.7z M50.2,53.7
	L50.2,53.7L50.2,53.7L50.2,53.7L50.2,53.7z M47.9,58.2C47.8,58.2,47.8,58.2,47.9,58.2L47.9,58.2z M44.5,61.7L44.5,61.7L44.5,61.7
	C44.6,61.7,44.6,61.7,44.5,61.7L44.5,61.7z M44.4,61.7L44.4,61.7L44.4,61.7L44.4,61.7L44.4,61.7z M43.2,63.6L43.2,63.6l-0.1,0.1l0,0
	L43.2,63.6z M51,53.7L51,53.7c0,0-0.1,0-0.1,0H51z M44.6,62.7L44.6,62.7l0.1-0.1l0,0L44.6,62.7z M43.3,64.5L43.3,64.5l-0.1,0.1l0,0
	L43.3,64.5z M50.9,64.4L50.9,64.4L50.9,64.4L50.9,64.4L50.9,64.4L50.9,64.4z M44.6,56.1L44.6,56.1l0-0.1l0,0L44.6,56.1z M44.8,56.5
	L44.8,56.5l0.1,0.1l0,0L44.8,56.5z M43.9,56.8L43.9,56.8l-0.1-0.1l0,0L43.9,56.8z M44.8,60.9L44.8,60.9L44.7,61l0,0L44.8,60.9z
	 M50.4,53.7L50.4,53.7z M47.2,59.4L47.2,59.4l-0.1,0.1l0,0L47.2,59.4z M43.5,56.1L43.5,56.1L43.5,56l0,0L43.5,56.1z M45,56.9
	L45,56.9l0.1,0.1l0,0L45,56.9z M44.2,63.3L44.2,63.3l0.1-0.1l0,0L44.2,63.3z M43.3,55.8L43.3,55.8l-0.1-0.1l0,0L43.3,55.8z
	 M45.9,61.3L45.9,61.3l-0.1,0.1l0,0L45.9,61.3z M43.8,62.5L43.8,62.5L43.8,62.5L43.8,62.5L43.8,62.5z M43.6,56.2L43.6,56.2l0.1,0.1
	l0,0L43.6,56.2z M48.3,62.1L48.3,62.1L48.3,62.1L48.3,62.1L48.3,62.1z M44.3,57.4L44.3,57.4L44.3,57.4L44.3,57.4L44.3,57.4z
	 M44.8,61.6C44.8,61.6,44.8,61.6,44.8,61.6L44.8,61.6L44.8,61.6z M43.8,63.3C43.8,63.3,43.8,63.3,43.8,63.3L43.8,63.3z M46.2,61
	C46.2,61,46.1,61.1,46.2,61L46.2,61L46.2,61z M42,65.6L42,65.6l-0.1,0.1l0,0L42,65.6z M43,64.2L43,64.2L43,64.2L43,64.2L43,64.2z
	 M42.5,54.5L42.5,54.5v-0.1l0,0V54.5z M44.2,62.8C44.3,62.7,44.3,62.7,44.2,62.8L44.2,62.8z M43.9,56.8L43.9,56.8L43.9,56.8
	L43.9,56.8L43.9,56.8z M43.2,55.5L43.2,55.5l-0.1-0.1l0,0L43.2,55.5z M43.8,63.4L43.8,63.4L43.8,63.4L43.8,63.4L43.8,63.4z
	 M44.5,61.9C44.4,61.9,44.4,61.9,44.5,61.9L44.5,61.9z M45.6,61.8L45.6,61.8L45.6,61.8L45.6,61.8L45.6,61.8z M43.2,64L43.2,64
	L43.2,64L43.2,64L43.2,64z M45,53.8L45,53.8z M44.2,57.4L44.2,57.4L44.2,57.4L44.2,57.4L44.2,57.4z M43.7,64.2L43.7,64.2L43.7,64.2
	L43.7,64.2L43.7,64.2z M47.5,61.4L47.5,61.4L47.5,61.4L47.5,61.4L47.5,61.4z M45.2,57.9L45.2,57.9L45.2,57.9
	C45.2,58,45.3,58,45.2,57.9L45.2,57.9z M48.6,62.4L48.6,62.4L48.6,62.4L48.6,62.4L48.6,62.4z M44.8,53.7L44.8,53.7L44.8,53.7
	L44.8,53.7L44.8,53.7z M45.1,57.2L45.1,57.2L45.1,57.2L45.1,57.2L45.1,57.2z M44.9,62.1C44.9,62,44.9,62,44.9,62.1L44.9,62.1z
	 M43.9,62.6C43.9,62.6,43.9,62.6,43.9,62.6L43.9,62.6z"/>
<path class="st3" d="M45.5,47.5c0,0,0,0.1-0.1,0.1v0.1l0,0L45.3,48l-0.1,0.2l0,0l-0.2,0.4l0,0v-0.1l0.2-0.5L45.5,47.5L45.5,47.5
	L45.5,47.5c-0.1-0.1-0.1-0.1-0.1-0.1l0.1-0.3l0-0.1c0,0,0,0.1,0,0.1l0,0.1l0,0l0.1-0.2l0,0l0,0l0,0l0.1-0.2l0,0v0.1l0,0l0-0.1l0,0
	l0,0l0,0c0,0,0,0.1,0,0.1l0,0l0,0l0,0v0.1l0,0V47l0,0c0,0,0,0,0,0.1s0,0,0,0.1h0.1l0,0l0,0v0.1c0.1,0,0.1,0,0.1,0v0.1h0l0,0v0.1
	c0,0,0,0,0,0.1s0,0.1,0,0.1s0,0,0,0.1l0,0V48l0,0v-0.1l0,0l0,0c0,0,0,0.1,0,0.1l0,0l0,0V48l0,0v0.1H46l0,0v0.2c0,0,0,0,0,0
	c0,0,0,0.1,0,0.1s0,0.1,0,0.1c0,0,0,0,0,0.1l0,0V49l0,0c0,0.1,0,0.2,0,0.2c0,0,0,0.1,0,0.1s0,0.1,0,0.2v0.1c0,0,0,0,0,0.1l0.1,0.4
	c0,0.1,0.1,0.2,0.1,0.3s0,0,0.1,0.1l0.1,0.1l0.1,0.1l0,0c0,0,0,0.1,0,0.1s-0.1,0-0.1,0h-0.1l0,0l0,0l0,0l-0.1-0.1H46
	c-0.1,0-0.3-0.1-0.3-0.2c0,0,0,0-0.1,0s0,0-0.1,0h-0.1l0,0h-0.1l0,0h-0.1h0l0,0c0,0-0.1,0-0.1-0.1l0,0h-0.2c-0.1,0-0.1,0-0.2,0h-0.1
	l0.4,0.1c0,0,0-0.1,0-0.1c0,0,0,0,0-0.1c-0.1-0.1-0.2-0.2-0.2-0.3c0-0.1,0-0.3,0-0.4c0-0.2,0.1-0.4,0.2-0.5l0.1-0.3l0,0l0,0v0.1
	c0,0,0,0.1,0,0.1c0,0,0,0,0,0s0,0.1,0,0.1l0,0l0,0v0.2l0,0c0,0,0.1-0.3,0.1-0.4l0.2-0.5v-0.1l0,0l0,0l0,0l0,0c0,0,0-0.1,0-0.1
	c0-0.1,0-0.1,0.1-0.2l0.1-0.1c0,0,0-0.1,0-0.1l0,0v0C45.5,47.6,45.5,47.6,45.5,47.5L45.5,47.5L45.5,47.5L45.5,47.5L45.5,47.5
	L45.5,47.5c0.1-0.1,0.1-0.1,0.1-0.1l0,0l0,0L45.5,47.5L45.5,47.5z"/>
<path class="st3" d="M43.4,56.3L43.4,56.3L43.4,56.3L43.4,56.3c0-0.1,0-0.2-0.1-0.2L43.2,56l0,0l0,0l0,0c0-0.1-0.1-0.1-0.1-0.2
	c0,0-0.1,0-0.1-0.1l0,0l0,0l0,0l0.1,0.1l0,0l-0.1-0.1l0,0l0.5,1l0,0L43.2,56L43,55.6l0,0l0,0.1l0.1,0.3l0.1,0.1L43.4,56.3L43.4,56.3
	L43.4,56.3z"/>
<path class="st3" d="M50.7,54.2L50.7,54.2L50.7,54.2L50.7,54.2h0.2H51h0.3l0,0c0,0-0.1,0-0.2,0s0.1,0,0.1,0l0,0h0.1h-0.2h-0.2H50.7
	L50.7,54.2C50.7,54.2,50.7,54.2,50.7,54.2C50.6,54.2,50.7,54.2,50.7,54.2z"/>
<path class="st3" d="M43.1,55.6c-0.2-0.3-0.3-0.7-0.5-1l0,0l0,0l0.1,0.2l0.2,0.3l0.1,0.3L43.1,55.6L43.1,55.6L43.1,55.6z"/>
<path class="st3" d="M43.9,57.1c-0.2-0.2-0.3-0.5-0.5-0.7l0,0L43.9,57.1z"/>
<path class="st3" d="M43.4,56.3L43.4,56.3l0.1,0.1l0.1,0.2l0,0l0,0L43.4,56.3L43.4,56.3z"/>
<path class="st3" d="M43.9,57.1l0.2,0.4l0,0L43.9,57.1L43.9,57.1z"/>
<path class="st3" d="M49.9,54.2c-0.1,0-0.1,0-0.2,0l0,0H49.9z"/>
<path class="st3" d="M43.6,56.7c0,0.1,0.1,0.1,0.1,0.2l0,0L43.6,56.7z"/>
<path class="st3" d="M44,57.3l0.1,0.1C44,57.5,44,57.4,44,57.3L44,57.3z"/>
<path class="st3" d="M43.3,56.1l-0.1-0.2l0,0L43.3,56.1z"/>
<path class="st3" d="M44.3,57.7l-0.1-0.1l0,0l0,0L44.3,57.7L44.3,57.7z"/>
<path class="st3" d="M44.3,57.7c0,0,0.1,0.1,0.1,0.2l0,0L44.3,57.7z"/>
<path class="st3" d="M44.8,58.4c0-0.1-0.1-0.1-0.1-0.1l0,0L44.8,58.4z"/>
<path class="st3" d="M45,58.6l-0.1-0.2l0,0L45,58.6L45,58.6z"/>
<path class="st3" d="M44.5,58l-0.1-0.1l0,0L44.5,58z"/>
<path class="st3" d="M49.7,54.4L49.7,54.4L49.7,54.4L49.7,54.4L49.7,54.4z"/>
<path class="st3" d="M50.4,54.2L50.4,54.2C50.4,54.2,50.5,54.2,50.4,54.2L50.4,54.2C50.5,54.2,50.4,54.2,50.4,54.2L50.4,54.2z"/>
<path class="st3" d="M44.5,58l0.1,0.1l0,0L44.5,58L44.5,58z"/>
<path class="st3" d="M45.2,59l-0.1-0.1l0,0L45.2,59z"/>
<path class="st3" d="M49.8,54.2C49.8,54.2,49.8,54.2,49.8,54.2L49.8,54.2z"/>
<path class="st3" d="M45.3,59.1L45.2,59l0,0L45.3,59.1L45.3,59.1z"/>
<path class="st3" d="M44.3,57.7L44.3,57.7L44.3,57.7C44.4,57.8,44.3,57.7,44.3,57.7L44.3,57.7z"/>
<path class="st3" d="M45.1,58.7L45.1,58.7L45.1,58.7L45.1,58.7L45.1,58.7z"/>
<path class="st3" d="M44.2,57.5L44.2,57.5L44.2,57.5L44.2,57.5L44.2,57.5z"/>
<path class="st3" d="M45.4,59.1L45.4,59.1L45.4,59.1L45.4,59.1L45.4,59.1z"/>
<path class="st3" d="M45,58.7L45,58.7L45,58.7L45,58.7L45,58.7z"/>
<path class="st3" d="M43.1,55.7L43.1,55.7L43.1,55.7L43.1,55.7z"/>
<path class="st3" d="M44,57.3L44,57.3L44,57.3L44,57.3z"/>
<path class="st3" d="M45,58.6L45,58.6L45,58.6L45,58.6L45,58.6z"/>
<path class="st3" d="M47.3,55.9L47.3,55.9l-0.1,0.2l-0.1,0.1l0,0L47.3,55.9L47.3,55.9z"/>
<path class="st3" d="M47,56.6l0.1-0.2l0,0C47.1,56.4,47,56.5,47,56.6z"/>
<path class="st3" d="M46.3,58v0.1l-0.1,0.1l0,0l0,0L46.3,58L46.3,58L46.3,58z"/>
<path class="st3" d="M47.3,55.8l0.1-0.2l0,0L47.3,55.8L47.3,55.8z"/>
<path class="st3" d="M47,56.6l-0.1,0.2l0,0L47,56.6z"/>
<path class="st3" d="M47,53.9L47,53.9z"/>
<path class="st3" d="M44.5,55L44.5,55C44.5,55.1,44.5,55.1,44.5,55z"/>
<path class="st3" d="M46.8,56.9L46.8,56.9L46.8,56.9L46.8,56.9L46.8,56.9z"/>
<path class="st3" d="M46.7,57.3L46.7,57.3L46.7,57.3L46.7,57.3z"/>
<path class="st3" d="M47.3,55.9v-0.1C47.3,55.9,47.3,55.9,47.3,55.9z"/>
<path class="st3" d="M46.8,57L46.8,57L46.8,57L46.8,57z"/>
<path class="st3" d="M46.3,58L46.3,58L46.3,58L46.3,58L46.3,58z"/>
</svg>
