<svg xmlns="http://www.w3.org/2000/svg" preserveAspectRatio="xMidYMid" width="987" height="1459" viewBox="0 0 987 1459"><defs><style>.cls-1{fill:#0f0}.cls-1,.cls-2,.cls-3{fill-rule:evenodd}.cls-2{fill:#00f}.cls-3{fill:red}</style></defs><path d="M988 722s-75.197-.891-249 112.5S496 1088 496 1088s82.48 133.805 241.254 248S988 1452 988 1452V722z" class="cls-1"/><path d="M988 1S912.803.109 739 113.5 496 367 496 367s82.48 133.805 241.254 248S988 731 988 731V1z" class="cls-2"/><path d="M500 361s-75.197-.891-249 112.5S8 727 8 727s82.48 133.805 241.254 248S500 1091 500 1091s143.108-22.814 270-109c125.601-85.309 235-234 235-234s-36.93-127.5-193-254-312-133-312-133z" class="cls-3"/></svg>