<svg xmlns="http://www.w3.org/2000/svg" viewBox="-17589 4089.511 2603.675 1441.253"><defs><style>.cls-1{opacity:.22}.cls-2,.cls-3{fill:#fff}.cls-2,.cls-5,.cls-6{opacity:.55}.cls-10,.cls-11,.cls-12,.cls-3,.cls-8,.cls-9{opacity:.66}.cls-4{opacity:.44}.cls-5{fill:#1cbeab}.cls-6{fill:#0070f4}.cls-7{opacity:.33}.cls-8{fill:#e72c33}.cls-9{fill:#50e72c}.cls-10{fill:#a117ba}.cls-11{fill:#ffec02}.cls-12{fill:red}</style></defs><g id="groupe-29" transform="translate(-17589 4089.511)"><g id="groupe" class="cls-1" transform="translate(648.86 247.214)"><path id="tracé" class="cls-2" d="M1184.439 635.946c-.121-.121-.364-.242-.485-.363-7.51-12.234-112.04-179.263-292.272-230.862-10.538-3.028-19.985-5.693-28.464-8.236v-.363a5.276 5.276 0 0 0-.606.121c-.242-.121-.484-.121-.605-.242v.363c-8.479 2.3-18.048 4.724-28.585 7.51C652.1 451.717 543.936 616.445 536.184 628.437c-.121.121-.364.242-.485.363a.3.3 0 0 1 0 .485c.121.121.363.242.485.363 7.509 12.233 112.039 179.263 292.271 230.862 10.78 3.149 20.47 5.814 29.07 8.357 8.6-2.3 18.411-4.845 29.191-7.631 181.322-47.6 289.486-212.209 297.238-224.321.121-.121.363-.242.484-.363a.376.376 0 0 0-.121-.243.934.934 0 0 0 .122-.363z" transform="translate(-535.7 -163.442)"/><path id="tracé-2" data-name="tracé" class="cls-2" d="M1720.138 641.846c-.121-.121-.364-.242-.484-.363-7.51-12.233-112.04-179.263-292.272-230.862-10.538-3.028-19.986-5.693-28.464-8.236v-.363a5.291 5.291 0 0 0-.606.121c-.241-.121-.484-.121-.605-.242v.364c-8.478 2.3-18.047 4.724-28.585 7.51-181.322 47.6-289.486 212.209-297.237 224.321-.121.121-.364.242-.484.364a.3.3 0 0 1 0 .484c.121.121.363.242.484.363 7.51 12.233 112.04 179.263 292.271 230.862 10.78 3.149 20.471 5.814 29.07 8.357 8.6-2.3 18.411-4.845 29.19-7.631 181.322-47.6 289.486-212.209 297.238-224.321.12-.121.364-.242.484-.363a.376.376 0 0 0-.121-.242.119.119 0 0 0 .121-.123z" transform="translate(-422.54 -162.196)"/><g id="groupe-2" data-name="groupe" transform="translate(321.705)"><path id="tracé-3" data-name="tracé" class="cls-3" d="M1454.559 443.825a1.665 1.665 0 0 0-.484-.363c-7.51-12.234-112.04-179.263-292.272-230.862-10.537-3.028-19.985-5.814-28.464-8.236V204c-.243 0-.363.121-.606.121s-.363-.121-.605-.121v.363c-8.479 2.3-18.048 4.724-28.706 7.631C922.1 259.6 813.936 424.2 806.185 436.315c-.121.121-.363.242-.485.364a.3.3 0 0 1 0 .484 1.666 1.666 0 0 0 .485.363c7.509 12.233 112.039 179.263 292.272 230.862 10.78 3.149 20.47 5.814 29.07 8.358 8.721-2.3 18.411-4.845 29.312-7.752 181.322-47.6 289.486-212.209 297.238-224.321.12-.121.363-.242.484-.363a.376.376 0 0 0-.121-.242.424.424 0 0 1 .119-.243z" transform="translate(-800.37 -204)"/><path id="tracé-4" data-name="tracé" class="cls-3" d="M1449.8 833.662c-7.509-12.233-112.04-179.263-292.272-230.862-10.538-3.028-19.985-5.814-28.464-8.236v-.364c-.242 0-.363.121-.605.121s-.364-.121-.606-.121v.364c-8.479 2.3-18.047 4.724-28.706 7.631-181.326 47.48-289.611 212.205-297.363 224.321-.12.121-.363.242-.484.363a.3.3 0 0 1 0 .484 1.674 1.674 0 0 0 .484.364c7.51 12.234 112.04 179.263 292.272 230.862 10.78 3.149 20.47 5.814 29.07 8.358 8.721-2.3 18.41-4.846 29.312-7.752 181.322-47.6 289.485-212.209 297.237-224.321.121-.121.363-.242.485-.363a.3.3 0 0 1 0-.485c-.122-.243-.243-.243-.36-.364z" transform="translate(-801.3 -121.575)"/></g></g><g id="groupe-3" data-name="groupe" class="cls-4" transform="translate(0 239.825)"><path id="tracé-5" data-name="tracé" class="cls-2" d="M648.86 629.846c-.121-.121-.363-.242-.485-.363-7.51-12.234-112.039-179.263-292.275-230.862-10.538-3.028-19.985-5.693-28.464-8.237v-.363a5.244 5.244 0 0 0-.606.121c-.242-.121-.484-.121-.606-.242v.363c-8.479 2.3-18.047 4.724-28.585 7.51C116.4 445.617 8.236 610.345.484 622.458c-.121.121-.363.242-.484.363a.3.3 0 0 1 0 .484c.121.121.363.242.484.363 7.51 12.232 112.04 179.264 292.272 230.863 10.78 3.149 20.47 5.814 29.07 8.357 8.6-2.3 18.411-4.845 29.191-7.631 181.322-47.6 289.486-212.209 297.238-224.321.121-.121.363-.242.484-.363a.376.376 0 0 0-.121-.242 1.326 1.326 0 0 1 .242-.485z" transform="translate(0 -157.342)"/><path id="tracé-6" data-name="tracé" class="cls-5" d="M1184.538 635.846c-.121-.121-.363-.242-.484-.363-7.51-12.234-112.039-179.263-292.271-230.862-10.538-3.028-19.985-5.693-28.464-8.236v-.363a5.241 5.241 0 0 0-.605.121c-.242-.121-.485-.121-.606-.242v.363c-8.479 2.3-18.048 4.724-28.585 7.51-181.323 47.601-289.487 212.208-297.239 224.32-.121.121-.363.242-.484.363a.3.3 0 0 1 0 .485c.121.121.363.242.484.363 7.51 12.233 112.039 179.263 292.271 230.862 10.78 3.149 20.47 5.814 29.07 8.358 8.6-2.3 18.411-4.845 29.191-7.631 181.322-47.6 289.485-212.209 297.237-224.321.121-.121.364-.242.484-.363a.375.375 0 0 0-.121-.242.118.118 0 0 1 .122-.122z" transform="translate(113.181 -156.075)"/><g id="groupe-4" data-name="groupe" transform="translate(321.826)"><path id="tracé-7" data-name="tracé" class="cls-3" d="M918.86 437.725a1.679 1.679 0 0 0-.485-.363C910.865 425.128 806.336 258.1 626.1 206.5c-10.538-3.028-19.985-5.814-28.464-8.236v-.364c-.242 0-.363.121-.606.121s-.363-.121-.606-.121v.363c-8.479 2.3-18.047 4.724-28.706 7.631C386.4 253.5 278.237 418.1 270.484 430.216c-.121.121-.363.242-.484.363a.3.3 0 0 1 0 .484 1.668 1.668 0 0 0 .484.363c7.51 12.234 112.039 179.263 292.272 230.862 10.78 3.149 20.47 5.814 29.07 8.357 8.721-2.3 18.411-4.845 29.312-7.752 181.322-47.6 289.486-212.209 297.238-224.321.121-.121.363-.242.485-.363a.3.3 0 0 1 0-.485z" transform="translate(-264.792 -197.9)"/><path id="tracé-8" data-name="tracé" class="cls-3" d="M914.075 827.562C906.565 815.328 802.035 648.3 621.8 596.7c-10.538-3.028-19.985-5.814-28.464-8.236v-.364c-.242 0-.364.121-.606.121s-.363-.121-.605-.121v.363c-8.479 2.3-18.048 4.724-28.706 7.631C382.1 643.7 273.936 808.3 266.184 820.415c-.121.121-.363.243-.484.364a.3.3 0 0 1 0 .485 1.673 1.673 0 0 0 .484.363c7.51 12.233 112.04 179.264 292.272 230.862 10.78 3.149 20.47 5.814 29.069 8.357 8.721-2.3 18.411-4.845 29.312-7.752 181.322-47.6 289.486-212.209 297.237-224.321.121-.121.363-.243.485-.364a.3.3 0 0 1 0-.484c-.121-.125-.359-.242-.484-.363z" transform="translate(-265.7 -115.475)"/></g></g><g id="groupe-5" data-name="groupe" class="cls-4" transform="translate(1299.536 250.847)"><path id="tracé-9" data-name="tracé" class="cls-6" d="M1721.638 638.946c-.121-.121-.363-.242-.485-.363-7.51-12.233-112.04-179.263-292.272-230.862-10.538-3.028-19.985-5.693-28.464-8.237v-.363a5.221 5.221 0 0 0-.606.121c-.242-.121-.485-.121-.605-.242v.363c-8.479 2.3-18.048 4.724-28.586 7.51-181.321 47.6-289.485 212.209-297.237 224.321-.121.121-.363.242-.484.363a.3.3 0 0 1 0 .485c.121.121.363.242.484.363 7.509 12.234 112.039 179.263 292.271 230.862 10.78 3.149 20.471 5.814 29.07 8.357 8.6-2.3 18.41-4.845 29.191-7.631 181.322-47.6 289.485-212.209 297.237-224.321.121-.121.363-.242.485-.363a.375.375 0 0 0-.121-.242.119.119 0 0 1 .122-.121z" transform="translate(-1072.9 -166.442)"/><path id="tracé-10" data-name="tracé" class="cls-2" d="M2257.339 644.846c-.121-.121-.364-.242-.484-.364-7.509-12.234-112.04-179.263-292.271-230.862-10.538-3.028-19.986-5.693-28.464-8.237v-.363a5.248 5.248 0 0 0-.605.121c-.242-.121-.484-.121-.605-.242v.363c-8.479 2.3-18.048 4.724-28.586 7.51-181.322 47.6-289.486 212.209-297.238 224.321-.121.121-.364.242-.485.363a.3.3 0 0 1 0 .485c.121.121.364.242.485.363 7.51 12.233 112.04 179.263 292.272 230.862 10.779 3.149 20.469 5.814 29.069 8.357 8.6-2.3 18.41-4.845 29.191-7.631 181.322-47.6 289.486-212.209 297.237-224.321.121-.121.364-.242.484-.363a.376.376 0 0 0-.121-.242z" transform="translate(-959.74 -165.196)"/><g id="groupe-6" data-name="groupe" transform="translate(321.705)"><path id="tracé-11" data-name="tracé" class="cls-3" d="M1991.66 446.825a1.671 1.671 0 0 0-.485-.363C1983.666 434.228 1879.136 267.2 1698.9 215.6c-10.537-3.028-19.984-5.693-28.463-8.236V207c-.243 0-.364.121-.605.121s-.364-.121-.606-.121v.363c-8.479 2.3-18.048 4.724-28.707 7.631C1459.2 262.6 1351.036 427.2 1343.284 439.315c-.12.121-.363.242-.484.363a.3.3 0 0 1 0 .485 1.682 1.682 0 0 0 .484.363c7.51 12.234 112.04 179.263 292.272 230.862 10.78 3.149 20.47 5.814 29.07 8.357 8.72-2.3 18.41-4.845 29.312-7.752 181.321-47.6 289.485-212.209 297.237-224.321.122-.121.363-.242.485-.363a.374.374 0 0 0-.122-.242.422.422 0 0 1 .122-.242z" transform="translate(-1337.592 -207)"/><path id="tracé-12" data-name="tracé" class="cls-3" d="M1986.875 836.562c-7.51-12.234-112.039-179.262-292.275-230.862-10.538-3.028-19.986-5.692-28.464-8.236v-.364c-.242 0-.363.121-.605.121s-.364-.121-.605-.121v.363c-8.479 2.3-18.048 4.724-28.707 7.631C1454.9 652.7 1346.736 817.3 1338.984 829.416c-.121.121-.363.242-.484.363a.3.3 0 0 1 0 .485 1.672 1.672 0 0 0 .484.363c7.51 12.234 112.04 179.263 292.272 230.862 10.78 3.149 20.47 5.814 29.07 8.358 8.721-2.3 18.411-4.845 29.312-7.752 181.322-47.6 289.485-212.209 297.238-224.321.121-.121.363-.242.485-.364a.3.3 0 0 1 0-.485c-.123-.125-.361-.242-.486-.363z" transform="translate(-1338.5 -124.596)"/></g></g><g id="groupe-7" data-name="groupe" class="cls-7" transform="translate(321.826 239.825)"><path id="tracé-13" data-name="tracé" class="cls-8" d="M918.86 437.725a1.679 1.679 0 0 0-.485-.363C910.865 425.128 806.336 258.1 626.1 206.5c-10.538-3.028-19.985-5.814-28.464-8.236v-.364c-.242 0-.363.121-.606.121s-.363-.121-.606-.121v.363c-8.479 2.3-18.047 4.724-28.706 7.631C386.4 253.5 278.237 418.1 270.484 430.216c-.121.121-.363.242-.484.363a.3.3 0 0 1 0 .484 1.668 1.668 0 0 0 .484.363c7.51 12.234 112.039 179.263 292.272 230.862 10.78 3.149 20.47 5.814 29.07 8.357 8.721-2.3 18.411-4.845 29.312-7.752 181.322-47.6 289.486-212.209 297.238-224.321.121-.121.363-.242.485-.363a.3.3 0 0 1 0-.485z" transform="translate(-264.792 -197.9)"/><path id="tracé-14" data-name="tracé" class="cls-9" d="M914.075 827.562C906.565 815.328 802.035 648.3 621.8 596.7c-10.538-3.028-19.985-5.814-28.464-8.236v-.364c-.242 0-.364.121-.606.121s-.363-.121-.605-.121v.363c-8.479 2.3-18.048 4.724-28.706 7.631C382.1 643.7 273.936 808.3 266.184 820.415c-.121.121-.363.243-.484.364a.3.3 0 0 1 0 .485 1.673 1.673 0 0 0 .484.363c7.51 12.233 112.04 179.264 292.272 230.862 10.78 3.149 20.47 5.814 29.069 8.357 8.721-2.3 18.411-4.845 29.312-7.752 181.322-47.6 289.486-212.209 297.237-224.321.121-.121.363-.243.485-.364a.3.3 0 0 1 0-.484c-.121-.125-.359-.242-.484-.363z" transform="translate(-265.7 -115.475)"/></g><g id="groupe-8" data-name="groupe" class="cls-7" transform="translate(1622.694 250.847)"><path id="tracé-15" data-name="tracé" class="cls-10" d="M1992.759 446.825a1.664 1.664 0 0 0-.484-.363C1984.765 434.228 1880.235 267.2 1700 215.6c-10.538-3.028-19.986-5.814-28.465-8.236V207c-.241 0-.363.121-.605.121s-.363-.121-.605-.121v.363c-8.479 2.3-18.048 4.724-28.706 7.631C1460.3 262.6 1352.136 427.2 1344.385 439.315c-.121.121-.364.242-.485.363a.3.3 0 0 1 0 .485 1.667 1.667 0 0 0 .485.363c7.509 12.234 112.039 179.263 292.271 230.862 10.78 3.149 20.469 5.814 29.069 8.357 8.721-2.3 18.411-4.845 29.312-7.752 181.322-47.6 289.486-212.209 297.237-224.321.121-.121.364-.242.484-.363a.3.3 0 0 1 0-.484z" transform="translate(-1338.813 -207)"/><path id="tracé-16" data-name="tracé" class="cls-11" d="M1988.076 836.562c-7.51-12.233-112.04-179.263-292.273-230.862-10.537-3.028-19.984-5.814-28.464-8.236v-.364c-.242 0-.364.121-.606.121s-.363-.121-.606-.121v.363c-8.479 2.3-18.047 4.724-28.706 7.631C1456.1 652.7 1347.936 817.3 1340.184 829.416c-.122.121-.363.242-.484.363a.3.3 0 0 1 0 .485 1.677 1.677 0 0 0 .484.363c7.509 12.234 112.04 179.263 292.271 230.862 10.78 3.149 20.471 5.814 29.07 8.358 8.722-2.3 18.411-4.845 29.313-7.752 181.322-47.6 289.486-212.209 297.238-224.321.12-.121.363-.242.484-.364a.3.3 0 0 1 0-.485 1.635 1.635 0 0 1-.484-.363z" transform="translate(-1339.7 -124.596)"/></g><g id="groupe-9" data-name="groupe"><g id="groupe-10" data-name="groupe" class="cls-7"><path id="tracé-17" data-name="tracé" class="cls-3" d="M653.16 239.725a1.673 1.673 0 0 0-.484-.363C645.165 227.128 540.636 60.1 360.4 8.5c-10.534-3.028-19.982-5.693-28.46-8.237V-.1c-.242 0-.363.121-.606.121s-.363-.121-.606-.121v.363c-8.479 2.3-18.047 4.724-28.706 7.631C120.7 55.5 12.536 220.224 4.784 232.215c-.121.121-.363.242-.484.363a.3.3 0 0 1 0 .484 1.672 1.672 0 0 0 .484.363c7.51 12.234 112.039 179.263 292.272 230.862 10.78 3.149 20.47 5.814 29.07 8.358 8.721-2.3 18.411-4.845 29.312-7.752 181.322-47.6 289.485-212.209 297.237-224.321.121-.121.363-.242.484-.363a.3.3 0 0 1 0-.484z" transform="translate(.908 .1)"/><path id="tracé-18" data-name="tracé" class="cls-3" d="M648.375 629.562C640.865 617.328 536.336 450.3 356.1 398.7c-10.538-3.028-19.985-5.693-28.464-8.236v-.364c-.242 0-.363.121-.606.121s-.363-.121-.606-.121v.363c-8.479 2.3-18.047 4.724-28.706 7.631C116.4 445.575 8.236 610.3.484 622.294c-.121.121-.363.242-.484.363a.3.3 0 0 1 0 .484 1.673 1.673 0 0 0 .484.363c7.51 12.234 112.039 179.263 292.271 230.862 10.78 3.149 20.47 5.814 29.07 8.358 8.721-2.3 18.411-4.845 29.312-7.752 181.322-47.6 289.486-212.209 297.238-224.321.121-.121.363-.242.485-.363a.3.3 0 0 1 0-.484.918.918 0 0 0-.485-.242z" transform="translate(0 82.525)"/></g><g id="groupe-11" data-name="groupe" class="cls-7" transform="translate(0 948.642)"><path id="tracé-19" data-name="tracé" class="cls-3" d="M648.86 1022.925a1.672 1.672 0 0 0-.485-.363C640.865 1010.328 536.336 843.3 356.1 791.7c-10.538-3.028-19.985-5.813-28.464-8.236v-.364c-.242 0-.363.121-.606.121s-.363-.121-.606-.121v.364c-8.479 2.3-18.047 4.724-28.706 7.631C116.4 838.7 8.236 1003.3.484 1015.415c-.121.122-.363.243-.484.364a.374.374 0 0 0 .121.242l-.121.121a1.683 1.683 0 0 0 .484.364c7.51 12.233 112.039 179.263 292.271 230.862 10.78 3.149 20.47 5.814 29.07 8.357 8.721-2.3 18.411-4.845 29.312-7.752 181.322-47.6 289.486-212.209 297.238-224.321.121-.121.363-.242.485-.363a.377.377 0 0 0-.121-.243z" transform="translate(0 -783.1)"/><path id="tracé-20" data-name="tracé" class="cls-3" d="M266.411 1173.663v-.363c-.242 0-.363.121-.605.121s-.363-.121-.606-.121v.363" transform="translate(56.02 -700.675)"/></g></g><g id="groupe-12" data-name="groupe" transform="translate(1949.607 19.622)"><g id="groupe-13" data-name="groupe" class="cls-7" transform="translate(.121)"><path id="tracé-21" data-name="tracé" class="cls-3" d="M2262.759 255.925a1.677 1.677 0 0 0-.484-.363C2254.766 243.328 2150.235 76.3 1970 24.7c-10.538-3.028-19.985-5.693-28.463-8.236V16.1c-.242 0-.364.121-.605.121s-.365-.121-.607-.121v.363c-8.478 2.3-18.047 4.724-28.707 7.631C1730.3 71.7 1622.136 236.3 1614.384 248.415c-.12.121-.362.242-.484.363a.3.3 0 0 1 0 .484 1.663 1.663 0 0 0 .484.363c7.51 12.234 112.04 179.263 292.271 230.862 10.781 3.149 20.472 5.814 29.072 8.358 8.72-2.3 18.41-4.845 29.312-7.752 181.321-47.6 289.485-212.209 297.237-224.321.121-.121.362-.242.484-.363a.3.3 0 0 1 0-.484z" transform="translate(-1608.813 -16.1)"/><path id="tracé-22" data-name="tracé" class="cls-12" d="M2258.075 645.762c-7.51-12.233-112.04-179.263-292.273-230.862-10.537-3.028-19.984-5.693-28.463-8.237v-.363c-.242 0-.364.121-.6.121s-.364-.121-.607-.121v.363c-8.477 2.3-18.047 4.724-28.706 7.631C1726.1 461.9 1617.937 626.5 1610.184 638.615c-.12.121-.363.242-.484.363a.3.3 0 0 1 0 .485 1.689 1.689 0 0 0 .484.363c7.51 12.234 112.04 179.263 292.272 230.862 10.781 3.149 20.47 5.814 29.07 8.357 8.72-2.3 18.41-4.845 29.312-7.752 181.322-47.6 289.486-212.209 297.238-224.321.121-.121.363-.242.484-.363a.3.3 0 0 1 0-.485c-.242-.241-.36-.362-.485-.362z" transform="translate(-1609.7 66.325)"/></g><g id="groupe-14" data-name="groupe" class="cls-7" transform="translate(0 948.642)"><path id="tracé-23" data-name="tracé" class="cls-3" d="M2258.46 1039.125a1.662 1.662 0 0 0-.485-.363c-7.51-12.233-112.039-179.264-292.271-230.862-10.538-3.028-19.986-5.814-28.464-8.237v-.363c-.242 0-.363.121-.606.121s-.363-.121-.605-.121v.363c-8.479 2.3-18.048 4.724-28.706 7.631C1726 854.9 1617.836 1019.5 1610.085 1031.616c-.122.121-.364.242-.485.363a.3.3 0 0 1 0 .485 1.664 1.664 0 0 0 .485.363c7.51 12.234 112.039 179.263 292.271 230.862 10.78 3.15 20.47 5.814 29.07 8.358 8.721-2.3 18.41-4.845 29.312-7.752 181.323-47.6 289.486-212.209 297.237-224.321.122-.122.365-.243.485-.364a.3.3 0 0 1 0-.485z" transform="translate(-1609.6 -799.3)"/><path id="tracé-24" data-name="tracé" class="cls-3" d="M1876.011 1189.864v-.363c-.242 0-.363.121-.6.121s-.364-.121-.606-.121v.363" transform="translate(-1553.58 -716.875)"/></g></g></g></svg>