<?xml version="1.0" encoding="UTF-8"?>
<svg width="2828px" height="3762px" viewBox="0 0 2828 3762" version="1.1" xmlns="http://www.w3.org/2000/svg" xmlns:xlink="http://www.w3.org/1999/xlink">
    <!-- Generator: Sketch 46.2 (44496) - http://www.bohemiancoding.com/sketch -->
    <title>ecaille-droit@svg</title>
    <desc>Created with Sketch.</desc>
    <defs></defs>
    <g id="MASK-ECAILLE" stroke="none" stroke-width="1" fill="none" fill-rule="evenodd">
        <g id="ecaille-droit" transform="translate(1414.000000, 1881.000000) scale(-1, -1) translate(-1414.000000, -1881.000000) ">
            <g id="Layer_3">
                <path d="M1543.08,976.53 C1497.66,965.13 1456.89,954.89 1420.4,945.72 C1417.74,942.44 1417.05,942.01 1416.4,941.59 C1456.68,882.8 1918.59,229.2 2700.71,32.89 L2827.88,0.94 C2827.95,89.53 2828,862.324139 2828,988.564139 L2828,1883.309 L2823.52,1879.53 C2778.41,1814.22 2317.87,1171 1543.08,976.53 Z" id="Shape" fill-opacity="0.5" fill="#FFFFFF" opacity="0.55"></path>
                <path d="M1946.93,2641.28 C2486.5,2370.84 2798.41,1925.95 2825.38,1886.47 C2826.74,1883.12 2827.91,1881.38 2827.91,1881.38 C2827.98,1969.97 2828,3761.05023 2828,3761.05023 C2789.69,3751.32023 2749.17,3741.14 2700.74,3728.99 C2554.74,3692.34 2419.91,3639.73 2296.89,3578.08 C1760.79,3309.38 1449.44,2868.49 1419,2824.08 C1456.61,2818.57 1497,2803.76 1543.07,2792.2 C1689.09,2755.53 1823.91,2702.94 1946.93,2641.28 Z" id="Shape" fill-opacity="0.5" fill="#FFFFFF" opacity="0.55"></path>
                <path d="M0,1883.53 C0.64,1883.1 1.33,1882.68 2,1882.25 L2.66,1881.25 C40.28,1826.39 502.19,1172.79 1284.31,976.48 L1411.48,944.53 C1412.37729,944.31933 1413.2991,944.231859 1414.22,944.27 L1415.85,944.51 L1420.42,945.66 C1457.93,999.92 1768.06,1432.56 2296.92,1697.66 C2419.92,1759.32 2554.76,1811.93 2700.77,1848.57 C2746.26,1859.99 2787.03,1870.28 2823.57,1879.57 L2824.75,1881.29 L2825.26,1882.03 L2700.77,1913.3 C1918.65,2109.61 1456.77,2763.21 1419.12,2818.07 L1418.46,2819.07 C1417.8,2819.5 1417.11,2819.93 1416.46,2820.35 L1417.01,2821.17 L1416.46,2822 C1417.1,2822.43 1417.79,2822.85 1418.46,2823.28 L1419.02,2824.1 C1417.37,2824.34 1415.73,2824.57 1414.09,2824.78 C1413.82739,2824.80767 1413.56261,2824.80767 1413.3,2824.78 C1374.3,2819.91 1332.39,2804.29 1284.3,2792.22 C1138.3,2755.57 1003.47,2702.96 880.45,2641.31 C340.88,2370.87 28.97,1925.98 2,1886.5 C1.34,1886.07 0.65,1885.64 0,1885.22 L0.56,1884.4 L0,1883.53 Z" id="Shape" fill-opacity="0.66" fill="#FFFFFF" opacity="0.77"></path>
                <path d="M2296.9,1697.69 C1768.04,1432.62 1457.9,999.98 1420.4,945.69 C1456.88,954.86 1497.65,965.1 1543.08,976.5 C2317.87,1170.97 2778.41,1814.19 2823.55,1879.55 C2787.02,1870.28 2746.25,1859.98 2700.75,1848.55 C2554.74,1811.96 2419.92,1759.35 2296.9,1697.69 Z" id="Shape" fill="#000000" opacity="0.55"></path>
                <path d="M2296.9,1697.69 C1768.04,1432.62 1457.9,999.98 1420.4,945.69 C1456.88,954.86 1497.65,965.1 1543.08,976.5 C2317.87,1170.97 2778.41,1814.19 2823.55,1879.55 C2787.02,1870.28 2746.25,1859.98 2700.75,1848.55 C2554.74,1811.96 2419.92,1759.35 2296.9,1697.69 Z" id="Shape" fill="#FFFFFF" opacity="0.77"></path>
                <path d="M1416.46,2821.97 L1417.01,2821.14 L1416.46,2820.32 C1417.1,2819.89 1417.79,2819.47 1418.46,2819.04 L1419.12,2818.04 C1456.74,2763.18 1918.65,2109.58 2700.77,1913.27 L2825.26,1882 L2825.41,1882.22 C2826.07,1882.65 2826.76,1883.08 2827.41,1883.5 L2826.85,1884.32 L2827.41,1885.14 C2826.77,1885.57 2826.08,1885.99 2825.41,1886.42 C2798.41,1925.9 2486.53,2370.79 1946.96,2641.23 C1823.96,2702.89 1689.12,2755.5 1543.11,2792.14 C1497.04,2803.7 1456.66,2818.51 1419.04,2824.02 L1418.48,2823.2 C1417.79,2822.82 1417.14,2822.4 1416.46,2821.97 Z" id="Shape" fill="#000000" opacity="0.55"></path>
                <path d="M1416.46,2820.32 C1417.1,2819.89 1419.12,2818.04 1419.12,2818.04 C1456.74,2763.18 1918.65,2109.58 2700.77,1913.27 L2825.26,1882 C2826.07,1882.65 2827.41,1885.14 2827.41,1885.14 C2798.41,1925.9 2486.53,2370.79 1946.96,2641.23 C1823.96,2702.89 1689.12,2755.5 1543.11,2792.14 C1497.04,2803.7 1456.66,2818.51 1419.04,2824.02 C1417.79,2822.82 1416.46,2820.32 1416.46,2820.32 Z" id="Shape" fill="#FFFFFF" opacity="0.77"></path>
            </g>
        </g>
    </g>
</svg>