<?xml version="1.0" encoding="UTF-8"?>
<svg width="153px" height="115px" viewBox="0 0 153 115" version="1.1" xmlns="http://www.w3.org/2000/svg" xmlns:xlink="http://www.w3.org/1999/xlink">
    <!-- Generator: Sketch 45.2 (43514) - http://www.bohemiancoding.com/sketch -->
    <title>ecaille-droit copy 7@1,5x</title>
    <desc>Created with Sketch.</desc>
    <defs></defs>
    <g id="wireframe-AYA" stroke="none" stroke-width="1" fill="none" fill-rule="evenodd">
        <g id="AYA-V2-wf" transform="translate(-644.000000, -3406.000000)">
            <g id="ecaille-droit-copy-7" transform="translate(720.389892, 3463.500000) rotate(90.000000) translate(-720.389892, -3463.500000) translate(662.889892, 3387.110108)">
                <g id="Layer_3">
                    <path d="M62.6559004,39.6514545 C60.8116467,39.1885639 59.1562036,38.7727744 57.6745476,38.4004317 C57.5665398,38.2672491 57.5385227,38.2497892 57.5121298,38.2327353 C59.1476767,35.8456003 77.9032739,9.30653781 109.660819,1.33548006 L114.824486,0.0381681743 C114.827328,3.63531558 114.829358,35.0141894 114.829358,40.140094 L114.829358,76.4707088 L114.64745,76.3172645 C112.815784,73.6653884 94.115815,47.5478001 62.6559004,39.6514545 Z" id="Shape" fill-opacity="0.5" fill="#FFFFFF" opacity="0.55"></path>
                    <path d="M79.0540038,107.247697 C100.962942,96.2666322 113.627873,78.2021226 114.722975,76.5990593 C114.778197,76.4630344 114.825704,76.3923827 114.825704,76.3923827 C114.828546,79.9895301 114.829358,152.715341 114.829358,152.715341 C113.273802,152.32026 111.62851,151.906897 109.662037,151.413553 C103.733789,149.925401 98.2590921,147.789201 93.2639339,145.285937 C71.4958932,134.375524 58.8537006,116.473432 57.6177014,114.670189 C59.1448344,114.446458 60.7848478,113.845107 62.6554943,113.375719 C68.5845548,111.886755 74.0588455,109.751367 79.0540038,107.247697 Z" id="Shape" fill-opacity="0.5" fill="#FFFFFF" opacity="0.55"></path>
                    <path d="M0,76.4796822 C0.0259868421,76.4622223 0.0540039062,76.4451685 0.0812088814,76.4277086 L0.108007812,76.3871041 C1.63554687,74.1595445 20.3911441,47.620482 52.1486893,39.6494243 L57.312356,38.3521124 C57.34879,38.3435582 57.3862195,38.3400065 57.4236122,38.3415552 L57.4897974,38.3513003 L57.6753597,38.3979954 C59.1984323,40.6011924 71.7910875,58.1682976 93.265152,68.9325348 C98.2594982,71.4362047 103.734601,73.5724043 109.663255,75.060151 C111.510351,75.5238537 113.165794,75.9416734 114.649481,76.3188886 L114.697394,76.3887283 L114.718102,76.4187756 L109.663255,77.6884764 C77.9057102,85.6595342 59.1513311,112.198597 57.6225739,114.426156 L57.595775,114.466761 C57.5689761,114.484221 57.540959,114.501681 57.5145661,114.518734 L57.5368985,114.55203 L57.5145661,114.585732 C57.5405529,114.603192 57.56857,114.620245 57.595775,114.637705 L57.6185135,114.671001 C57.5515161,114.680746 57.4849249,114.690085 57.4183336,114.698612 C57.4076706,114.699735 57.3969191,114.699735 57.3862561,114.698612 C55.8026829,114.500868 54.1009508,113.866627 52.1482832,113.376531 C46.2200349,111.888379 40.7453381,109.752179 35.7501798,107.248915 C13.8412418,96.2678504 1.17631065,78.2033407 0.0812088814,76.6002774 C0.0544099506,76.5828175 0.0263928865,76.5653576 0,76.5483037 L0.0227384868,76.5150081 L0,76.4796822 Z" id="Shape" fill-opacity="0.66" fill="#FFFFFF" opacity="0.77"></path>
                    <path d="M93.2643399,68.933753 C71.7902754,58.1707339 59.1972141,40.6036286 57.6745476,38.3992135 C59.1557976,38.7715563 60.8112406,39.1873457 62.6559004,39.6502364 C94.115815,47.546582 112.815784,73.6641703 114.648669,76.3180766 C113.165388,75.9416734 111.509945,75.5234477 109.662443,75.0593389 C103.733789,73.5736224 98.2594982,71.4374228 93.2643399,68.933753 Z" id="Shape" fill="#000000" opacity="0.55"></path>
                    <path d="M93.2643399,68.933753 C71.7902754,58.1707339 59.1972141,40.6036286 57.6745476,38.3992135 C59.1557976,38.7715563 60.8112406,39.1873457 62.6559004,39.6502364 C94.115815,47.546582 112.815784,73.6641703 114.648669,76.3180766 C113.165388,75.9416734 111.509945,75.5234477 109.662443,75.0593389 C103.733789,73.5736224 98.2594982,71.4374228 93.2643399,68.933753 Z" id="Shape" fill="#FFFFFF" opacity="0.77"></path>
                    <path d="M57.5145661,114.584514 L57.5368985,114.550812 L57.5145661,114.517516 C57.5405529,114.500056 57.56857,114.483002 57.595775,114.465543 L57.6225739,114.424938 C59.150113,112.197379 77.9057102,85.6583161 109.663255,77.6872583 L114.718102,76.4175574 L114.724193,76.4264904 C114.750992,76.4439503 114.779009,76.4614102 114.805402,76.4784641 L114.782663,76.5117597 L114.805402,76.5450554 C114.779415,76.5625153 114.751398,76.5795692 114.724193,76.5970291 C113.627873,78.2000924 100.96416,96.264602 79.0552219,107.245667 C74.0608757,109.749337 68.5857729,111.885536 62.6571185,113.373283 C60.7864719,113.84267 59.1468646,114.444022 57.6193256,114.667753 L57.5965871,114.634457 C57.56857,114.619027 57.5421771,114.601973 57.5145661,114.584514 Z" id="Shape" fill="#000000" opacity="0.55"></path>
                    <path d="M57.5145661,114.517516 C57.5405529,114.500056 57.6225739,114.424938 57.6225739,114.424938 C59.150113,112.197379 77.9057102,85.6583161 109.663255,77.6872583 L114.718102,76.4175574 C114.750992,76.4439503 114.805402,76.5450554 114.805402,76.5450554 C113.627873,78.2000924 100.96416,96.264602 79.0552219,107.245667 C74.0608757,109.749337 68.5857729,111.885536 62.6571185,113.373283 C60.7864719,113.84267 59.1468646,114.444022 57.6193256,114.667753 C57.56857,114.619027 57.5145661,114.517516 57.5145661,114.517516 Z" id="Shape" fill="#FFFFFF" opacity="0.77"></path>
                </g>
            </g>
        </g>
    </g>
</svg>