<?xml version="1.0" encoding="utf-8"?>
<!-- Generator: Adobe Illustrator 22.0.1, SVG Export Plug-In . SVG Version: 6.00 Build 0)  -->
<svg version="1.2" baseProfile="tiny" id="Layer_1" xmlns="http://www.w3.org/2000/svg" xmlns:xlink="http://www.w3.org/1999/xlink"
	 x="0px" y="0px" viewBox="0 0 1462.9 2573.5" xml:space="preserve">
<path fill="#FFFFFF" stroke="#FFFFFF" stroke-miterlimit="10" d="M499.3,1780.3c0.4-2,0.8-4,1.3-6c-0.5-0.2-1.1-0.4-1.6-0.6
	c1-1.1,2-2.1,3.2-3.4c0.9,1,1.6,1.8,2.4,2.6c1.4-1.9,2.7-3.7,4.1-5.5c-0.4-0.2-0.9-0.3-1.3-0.5c0.8-2.5,1.1-5.2,2.3-7.4
	c3.3-5.9,6.8-11.7,10.4-17.5c1.1-1.8,2.8-3.2,4.3-4.8c-2.9,5.5-5.9,11-9.1,17.1c4.4-0.8,16.7-20.2,16.9-25.3
	c-2.6,2.8-5.3,5.6-7.9,8.4c3.4-6.1,6.9-12.2,10.3-18.4c0.8,0.2,0.6,0.2,1.4,0.5c-0.2,1.9-0.4,3.7-0.6,5.6c0.6,0.2,0.5,0.2,1.2,0.4
	c4.1-7.2,8.2-14.4,12.3-21.5c-0.7-0.4-0.4-0.2-1.1-0.7c-3,4.4-6,8.8-9,13.2c-0.5-0.3-1.1-0.7-1.6-1c1.8-3.1,3.6-6.4,5.5-9.4
	c6.7-10.6,13.2-21.3,20.3-31.7c8.1-11.8,16.8-23.2,25.1-34.9c1.9-2.7,3.4-5.7,5.2-8.4c1.8-2.9,3.9-5.6,5.7-8.5
	c1.3-2.1,2.6-4.2,3.2-6.5c0.8-2.8,0.2-5,4.5-6.3c3-0.9,4.3-7,6.7-10.5c1.7-2.5,4-4.5,6.1-6.9c1.5-4.4,3.2-9.3,5.2-15.2
	c-5.7,3.6-5,12.2-12.9,11.6c1.3-3.9,2.6-7.7,4-11.5c0.2-0.6,1.4-0.6,2-1.2c1.2-1.2,2.4-2.6,3.5-3.8l-0.1,0.1
	c4.9-6.9,4.6-7.8-0.4-14.1c-4.8-6.1-8.9-12.8-13.5-19c-6.8-9.1-13.9-18.1-20.9-27c-5.4-6.9-11-13.7-16.3-20.6
	c-10.4-13.5-20.9-27-31-40.7c-7.7-10.3-14.9-21.1-22.4-31.5c-7.9-11-16.2-21.8-24-32.9c-12.1-17.3-24.1-34.6-35.8-52.2
	c-9.7-14.5-18.9-29.3-28.2-44c-6.5-10.3-12.9-20.8-19.4-31.2c-10.5-16.7-21.3-33.1-31.4-50c-9.6-16.1-18.3-32.7-27.5-49
	c-4.4-7.8-9.5-15.2-13.8-23.1c-11.7-21.4-23.4-42.9-34.5-64.6c-12.6-24.5-24.7-49.3-36.6-74.2c-5.8-12.1-10.5-24.6-15.8-36.9
	c-4.2-9.7-8.6-19.4-12.7-29.2c-5.1-12.4-9.9-24.9-14.9-37.3c-1.1-2.6-2.6-5-3.9-7.5l-2.3,1.2c8.8,22.2,17.7,44.4,26.5,66.6
	c-0.8,0.6-0.7,0.5-1.5,1.1c-5.8-4-5.6-11.4-8.7-16.9c-3-5.4-5.3-11.2-8.6-16.5c7.9,23.7,17.9,46.5,28.2,69.2
	c10.3,22.8,21.5,45.2,32.3,67.7c-0.5,0.2-0.9,0.5-1.4,0.7c-3-5.5-5.9-11-8.9-16.5c-0.4,0.2-0.8,0.4-1.2,0.5c0.9,1.9,1.8,3.8,2.6,5.8
	c2.2,5.5,4.4,11,6.4,16.6c0.2,0.5-0.9,1.5-1.4,2.2c0,0,0.1,0.1,0.1,0.1c-1.8-3.8-3.7-7.7-5.5-11.5c-0.4-0.9-0.8-2-1.5-2.5
	c-6.2-4.9-5-12.8-8-19c1.3,0.5,2.6,1,3.9,1.5c0.5-0.5,0.5-0.6,1-1.1c-5.5-11.6-11.1-23.1-16.6-34.7l-1.4,0.6
	c2.4,5.1,5.1,10,7.1,15.2c2.3,6.1,4,12.4,6,18.5c-2.9-4.9-5.6-10-8.9-14.7c-2.6-3.6-2.1-9.1-7.1-11.4c-1-0.5,0.1-4.1-0.8-5.8
	c-2.2-4-5.1-7.6-7.3-11.6c-0.9-1.6-0.4-3.9-0.8-5.8c-0.3-1.7-0.6-4.5-1.6-4.9c-3.5-1.3-2.6-4.4-3.5-6.8c-0.3-0.9-0.3-2.3-0.9-2.8
	c-4.3-3.3-7.3-7-5.7-12.9c0.2-0.6-1.6-1.6-2.1-2.6c-1-1.9-5.4-2.7-2.1-6.1c0.1-0.1-0.2-1.1-0.5-1.3c-3.8-2.3-3.5-6.1-4.3-10
	c-0.7-3.5-3.8-6.5-5.3-9.9c-1.4-3.1-1.8-6.5-3-9.7c-1.2-3.1-2.8-5.9-4.3-8.9c-1.2-2.4-3.8-4.5-1.1-7.5c0.3-0.3-0.5-1.9-1.1-2.5
	c-3.6-3.5-5.5-7.6-6.3-12.7c-0.4-2.7-0.6-5.9-3.4-8.7c-2.4-2.4-2.3-7.4-3.3-11.2c-0.4-1.5-0.7-3.2-1.4-4.5c-1.4-2.6-3.5-5-4.6-7.7
	c-4.6-11.2-9.1-22.5-13.3-33.8c-2.9-7.7-5.3-15.7-8.3-23.4c-5.1-12.9-10.6-25.7-15.9-38.5c-1.1-2.6-1.9-5.2-3-8.5
	c-4.3,3.6-6.2,0.9-7.4-2.4c-1.9-5.8-3.6-11.6-5.2-17.5c-0.3-1,0.7-3.2,1.5-3.4c5.3-1.7,8.8-5.1,11.5-9.8c0.4-0.7,1.3-1,2.8-2.2
	c-5.9-3.5-11.3-6.8-16.8-9.8c-14.2-7.8-28.4-15.5-42.6-23.3c-12.5-6.8-25-13.5-37.3-20.6c-4.8-2.8-9-6.7-13.6-9.9
	c-1.8-1.2-4-1.7-6.9-3c0.4-1.2,0.5-3.7,1.8-5c6-6.2,6.4-14.6,8.8-22.2c1.9-5.8,4.5-11.3,7.4-16.7c3.7-7,7.9-13.7,12.2-21
	c-2.1-1.2-3.5-2.2-5.1-2.9c-3.5-1.6-4.2-3.9-1.9-6.8c0.7-0.9,1.7-1.6,2.4-2.5c4.7-5.4,9.4-10.8,14.1-16.2c1.1-1.2,2.3-2.3,3.3-3.5
	c2.4-3,4.7-6.2,7.1-9.2c1.7-2.2,3.3-4.7,5.5-6.2c5.7-3.7,8.5-10.9,15.8-12.8c3.3-0.9,5.1-4.3,2.9-8.1c-1.8-3.1-1.1-5.9,0.6-8.9
	c6.6-11.5,12.8-23.2,19.7-34.6c1.6-2.7,5.6-3.8,7.8-6.3c3.7-4.2,7.4-8.6,10.2-13.4c1.9-3.5,4.6-4.9,7.9-6.2c1.7-0.7,3.5-1.1,5.1-2
	c3.4-1.8,6.2-3.2,8,2.1c0.9,2.4,3.4,2.3,5.3-0.2c4.9-6.3,10.2-12.2,17.1-16.6c4.2-2.7,6.9-2.3,10.3,0.7c7.6,6.8,15.1,13.8,22.9,20.4
	c14,11.9,27.8,24.1,42.1,35.5c14.6,11.7,29.6,22.9,44.6,34.2c12.4,9.4,24.7,18.8,37.5,27.6c17.4,12.1,35.1,23.9,53,35.4
	c15.5,10,31.2,19.7,47,29.2c9.9,6,20.3,11.2,30.5,16.8c5.8,3.2,11.3,6.8,17.2,9.9c21.4,11.1,42.7,22.4,64.3,33
	c17.1,8.4,34.7,16,52,24c10.4,4.8,20.7,10.1,31.2,14.7c9,3.9,18.4,7,27.6,10.5c5,1.9,10,4,15,6.1c0.2,0.1,0.3,0.2,0.4,0.2
	c7.8,0.9,13.7,7,21.7,7.8c8,0.9,15.9,3.2,23.8,4.7c11.9,2.3,23.8,4.5,35.7,6.6c4.6,0.8,9.2,1.1,13.7,2c1.9,0.4,3.6,1.6,5.3,1.7
	c7,0.5,14,1,21,1.5c28.5,1.8,57.1,3.9,85.6,5.3c15.8,0.8,31.6,0.4,47.4,0.7c4.5,0.1,8.9,0.7,13.4,1.1c3.2,0.3,6.4,0.7,9.7,1
	c7.6,0.7,15.3,1.4,22.9,2.2c3.2,0.4,6.3,1.2,9.9,1.9c-0.6,1-1,1.7-1.9,3.1c7.9,0.4,15.3,0.7,22.8,1.1c0.1,1.4,0.1,1,0.2,2.4
	c-3.3,0.7-6.6,1.4-10.5,2.3c8.6,0.8,16.5,1.5,24.4,2.2c0.1,1.4,0,1,0.1,2.4l-14.9,2.9c0.1,1.4,0,1,0.1,2.3
	c6.8,0.6,13.5,1.2,20.3,1.8c0.1,0.6,0.1,0.5,0.2,1.1c-0.9,0.5-1.8,1-3.1,1.7c6.7,1.2,12.9,2.3,19.1,3.4c0,1.1,0,0.7-0.1,1.8
	c-5.3,0.5-10.6,0.9-16.4,1.5c9,1.8,17.5,3.5,25.9,5.3c-0.1,1.4-0.1,1-0.2,2.3c-9.4,0.7-18.7,1.3-28.1,2c0,0.6-0.1,1.1-0.1,1.7
	c4.7,0.4,9.4,1.2,14,1.1c4.7-0.1,8.5,0.5,12.1,4.1c2,2,5.5,2.7,8.5,3.3c3.8,0.8,7.7,0.8,11.6,1.2c0,1,0,0.6-0.1,1.6h-17.6l0,1.7
	c38.8-0.5,77.6-0.6,117.1-3.4c-1,0.8-1.3,1.1-3.1,2.7c7.3,0.4,13.3,0.9,19.3,1c11.6,0,23.2-0.2,34.8-0.4c3.3,5.7,9,1,13.4,3
	c3,1.3,7.1,0.4,10.8,0.3c3-0.1,6.1-0.4,9.1-0.6c0.1,0.6,0.2,1.1,0.3,1.7c-2.3,0.7-4.6,1.5-5.4,1.8c8.5,0.9,18.3,1.9,28.1,3
	c0,1.2,0,0.8,0,2c-20,2.6-40.1,5.2-60.1,7.9c0,0.3,0,0.5,0.1,0.8c4.5,0,8.9,0.2,13.4-0.1c4.5-0.3,8.9-1,13.4-1.6
	c4.6-0.6,9.2-1.1,14.2-1.7c0.1,4.1,2.9,3.9,6.2,3.7c6.2-0.3,12.3-0.1,18.5-0.1c0.1,0.7,0.2,1.4,0.3,2.2c-3.1,0.6-6.1,1.2-9.2,1.8
	c2.1,2.3,8.7,3.3,9.8,1c2.3-4.6,5.9-2.3,9.3-2.4c-1.2,0.5-2.4,1-3.5,1.4c0.2,0.7,0.1,0.5,0.3,1.2c7.6-0.5,15.2-1.3,22.9-1.4
	c6-0.1,12.1,0.6,18.1,0.9c0,0.5,0,1,0,1.5c-12,1.6-24.1,3.1-36.1,4.7l-0.3,2.3c1.6,0.4,4.1,1.7,4.8,1c4.8-4.4,10.6-0.2,15.8-2.1
	c4.3-1.5,9.2-1.2,13.9-1.4c1.4-0.1,2.9,0.6,4.3,1c0,0.5,0,0.9,0,1.4c-1.7,0.6-3.5,1.2-5.9,2c4.6,0.8,8.6,1.6,12.7,2.3
	c-0.1,0.8-0.1,1.5-0.2,2.3c-3.8,0.2-8.1,1.7-11.2,0.4c-4.2-1.9-5.7,2.7-8.9,2.1c-0.7,4.5-4.3,2.6-6.7,2.9
	c-20.2,1.9-40.4,3.7-60.6,5.5c-0.6,0.1-1.2,0.3-2.2,0.5c1,0.8,1.7,1.3,3.2,2.4h-26c0,0.2,0,0.1,0,0.4c12.5,1.6,25,3.2,37.5,4.8
	c-0.1,0.8,0,0.5-0.1,1.3h-20.4c0,0.7,0,0.4,0,1.1c14.2,1.3,28.4,2.6,43.6,3.9c-9.3,7.2-19,3.4-28.1,5.4c1.9,0.3,3.8,0.5,6.1,0.8
	c-0.3,1.1-0.6,2.1-1,3.8c5.8,0.8,11.5,1.6,17.8,2.4c-0.9,0.8-1.4,1.3-3.4,3.1c3.7,0.6,6.3,1.1,8.9,1.5c2.9,0.5,5.9,0.8,8.8,1.4
	c5.7,1.1,11.5,2.3,17.1,3.4h-36.6c0,0.3,0,0.2,0,0.5c15.3,1.7,30.6,3.5,45.4,5.2c-2.2,3.7-3.9,4.2-9.1,3.9c-6.8-0.4-13.6,0-20.3-0.2
	c-7.8-0.3-15.7-0.3-23.4-1.4c-5.8-0.9-10.2-0.1-13.5,4.9c0,0-0.1,0.5-0.1,0.5c-2.4,1-4.8,2-7.6,3.2c1.3,1.6,2.1,2.7,3.6,4.7h-15.2
	c5.2-3.1,9.9-6,14.7-8.9c-2.4-6.2-8.4-7.8-21-5.6c0.1,0.6,0.2,1.2,0.3,1.8c0.1,0.6,0.2,1.2,0.3,2.3c-3.1-0.3-5.9-0.6-8.7-0.8
	c-2.6-0.2-5.3-0.5-8.2-0.7c-0.9-1.9,0.2-6.8-5.2-3.8c1.8,2.3,3.5,4.4,5.2,6.5l0.1-0.1c-3,0.7-6,1.4-9,2.1c-0.5-0.7-0.5-0.7-1-1.4
	c0.7-1,1.3-1.9,2.6-3.9c-4.2,1.2-7.3,2.5-10.6,2.9c-3.1,0.3-6.2-0.3-9.9-0.6c2.8-4.9,11.7,3.6,11-6.6c-2.7,0-5.6-3.4-8.1,1
	c-0.2,0.4-3.5-0.7-5.3-1.4c-1.6-0.6-3.8-2.6-4.5-2.1c-3.7,2.5-6.9-0.2-10.3-0.3c-1.5,0-3,0.2-4.5,0.4c0.2,1.7,0.5,3.4,0.7,5.1
	c0.1,0.4,0.3,0.9,0.7,2.1c-3-0.5-5.4-1-6.7-1.2V908c-3.3-0.4-6.5-1.2-9.8-1.2c-2.1,0-4.4,0.8-6.4,1.7c-3.9,1.6-5.8,0.7-6-4.3
	c-5.9,0.8-11.6,1.5-17.3,2.3c0.8,15.2,1.6,29.7-1.2,44.2c-0.9,4.5-0.9,9.2-1.1,13.9c-0.5,18.1-4.9,35.4-9.6,52.7
	c-4.6,17.3-9.3,34.6-14,51.8c-1.8,6.6-3.9,13.1-6,19.6c-0.3,1.1-1.8,1.7-2.6,2.6c-0.7,0.8-1.7,1.5-2,2.4
	c-4.5,14.4-13.1,26.8-20.1,40c-1.6,3.1-4,5.5-3.7,9.3c0,0.7-0.1,1.4-0.4,2c-4.4,9-7.9,18.6-13.6,26.8c-5.5,7.9-8,17.4-13.8,24.6
	c-4.7,5.8-7.3,13.6-15.1,17.1c-2.8,1.2-5.5,4.8-3.5,9.3c0.8,1.9,0.5,4.3,0.6,6.5c-0.6,0.1-1.2,0.1-1.8,0.2c-0.6-1.4-1.1-2.8-1.8-4.6
	c-2.7,5.4-5.3,10.3-7.7,15.3c-0.4,0.8-0.1,2-0.3,2.9c-0.8,2.9-1.1,6-2.5,8.5c-5.6,9.8-11.7,19.4-17.3,29.2
	c-4.3,7.5-8.2,15.2-12.1,22.9c-10.1,19.9-19.9,40-30.2,59.8c-4.2,8.1-7.9,16.5-15.1,23c-3.6,3.3-4.9,9.2-7.4,13.7
	c-1.2,2.2-3.1,4.1-4.3,6.3c-1.4,2.7-2,5.8-3.3,8.5c-3.1,6.2-6.6,12.2-9.7,18.4c-2.4,4.7-4.3,9.5-6.8,14.1
	c-3.6,6.8-7.5,13.4-11.2,20.1c-2.7,4.8-5.4,9.6-8.2,14.4c-0.7-0.3-1.3-0.6-2-0.9c1.6-3.8,3-7.7,4.8-11.3c1.6-3.2,3.8-6,5.5-9.2
	c0.2-0.4-0.7-1.5-1.1-2.3c-0.6,0.4-1.6,0.6-1.9,1.2c-4,6.6-7.9,13.2-11.7,19.9c-0.7,1.3-0.5,3.1-0.6,4.7c-3.5,4.9-7.1,9.8-10.9,15.1
	c6.2,0.3,12-8.6,10.8-15.1c0.9,1,2.5,2,2.6,3.1c0.1,1.7-0.3,3.7-1.2,5.3c-6.2,11.4-12.5,22.7-18.8,34c-0.2,0.3-0.7,0.5-1.7,1.2
	c2-5.8,3.8-10.9,5.6-16c-0.5-0.2-1.1-0.4-1.6-0.6c-1.1,1.3-2.4,2.6-3.3,4c-5,8.1-9.9,16.3-14.6,24.5c-1.2,2.1-1.3,4.8-2.6,6.9
	c-4.5,7.7-9.5,15.1-13.9,22.9c-2.2,3.8-3.5,8.2-5.5,12.2c-1.4,2.9-3.4,5.5-5.6,9.1c-0.6-2.1-1-3.3-1.4-4.6c-0.7-0.1-0.7-0.1-1.4-0.1
	c-3.7,7.2-7.4,14.4-11.4,22.3c1.8-0.2,2.8-0.3,4.6-0.6c-3.8,4.3-1.1,7.3,1.2,10.3c10.4,13.7,20.7,27.6,31.3,41.1
	c15.6,19.8,31.3,39.4,47.2,58.9c9.4,11.6,19.3,22.7,28.9,34.1c16.5,19.5,32.7,39.2,49.5,58.3c14.5,16.6,29.8,32.5,44.7,48.8
	c10.1,11,20,22.2,30.2,33.1c12.8,13.7,25.7,27.3,38.9,40.6c11.3,11.4,23.2,22.3,34.6,33.7c5.1,5.1,9.2,11.1,14.3,16.2
	c3.8,3.8,8.5,6.8,12.4,10.5c3,2.9,5.1,6.6,8.1,9.5c2.6,2.5,5.9,4.1,8.6,6.5c10.9,9.6,21.5,19.6,32.6,29c10,8.4,20.6,16.1,31,24.1
	c7.1,5.5,14.3,11,21.4,16.5c21.2,16.5,42.4,33,63.6,49.4c5.3,4.1,11.2,7.5,16.4,11.7c2.1,1.7,3.1,4.7,4.6,7.1
	c-0.5,0.5-1.1,1.1-1.6,1.6c-7.6-5.6-15.2-11.3-22.9-16.9c-1.2,2.3,1.2,5.8,3.8,7.5c5.5,3.6,10.7,7.6,15.9,11.5
	c3.4,2.6,8.8,7,12.1,9.7c1.6,1.3,3.1,2.8,4.2,4.7c-11.5-4.5-19.7-14-30.3-19.8c-0.3,0.4-0.5,0.8-0.8,1.2
	c11.9,8.4,23.8,16.7,35.7,25.1c0,0,0.3,0.2,0.3,0.2c10,7.4,20.2,14.5,30.1,22.1c9.7,7.5,19.1,15.4,28.5,23.1
	c1.3,1.1,2.4,2.5,3.2,4.3c-12.7-5.4-21.7-17.2-35.6-20.1c5.9,4.8,11.9,9.8,18,14.7l0.1-0.1c-5-0.6-9.1-3-13-5.9
	c-0.7-0.5-1.3-1.4-1.8-2.2c-0.4-0.7-0.5-1.8-1.1-2.1c-5.5-3.1-11.1-6.2-17.6-9.7c0.8,1.7,1,2.7,1.6,3.1c7.9,5.8,15.3,12.5,23.9,16.9
	c6.1,3.2,11.4,7,16.7,11.1c7.5,5.8,15.1,11.7,22.6,17.5c-2.6,1-12.2-4.2-21.8-11.9c-0.4,0.5-0.9,1-1.4,1.5c-0.4,0.4-1,0.7-2.4,1.6
	c2.9-8-4.4-8.4-7.4-11.5c-3.7-3.8-9.1-5.8-12.5-7.9c0.3,0.3,1.7,1.7,3,3.1c-0.3,0.5-0.7,0.9-1,1.4l-12.4-7.5
	c-0.5,0.8-0.3,0.5-0.8,1.3c28,19.8,55.9,39.6,83.9,59.4c-0.4,0.5-0.2,0.3-0.5,0.8L1419,2261c-0.6,0.9-0.3,0.5-0.9,1.4
	c14.7,10.5,29.4,21,44.1,31.5c-0.4,0.6-0.8,1.2-1.2,1.7c-5.2-3.5-10.5-7-15.6-10.6c-16.1-11.3-32.2-22.8-48.3-34
	c-0.8-0.6-2.6,0.1-3.9,0.2l0.1-0.1c-3-0.8-5.9-1.3-5.6-5.8c0.1-0.9-2.3-5.5-6.4-3c-0.7,0.4-4.2-1.7-4.8-3.2c-1.6-4.3-3.2-5.8-7.6-5
	c-3.1,0.6-6-2.3-5.6-5.5c0.1-0.5-0.5-1.3-1.1-1.7c-3.5-2.6-7.1-5.2-10.6-7.7c-0.3,0.4-0.6,0.7-0.8,1.1c2.8,2.1,5.7,4.2,8.5,6.3
	c-0.4,0.5-0.8,1-1.2,1.5c-8.4-7.9-19.7-11.9-27.3-21.9c-6.3,1.6-9-9.9-16-6.6c-18.8-13.1-37.3-25.9-55.9-38.9
	c-1.1,3-0.7,4.7,2.7,6.1c6.3,2.5,10.8,7.3,14.8,12c3.7,2.3,7.6,4.5,11.2,7c12.9,9,25.8,18.1,38.6,27.3c6.2,4.4,12.1,9.2,18.2,13.7
	c7,5.2,14.1,10.3,21.2,15.4c-0.3,0.4-0.6,0.9-0.9,1.3c-20-13.8-40-27.6-60.5-41.7c-2.1,5.6,3,7.2,4.6,7.5
	c7.6,1.5,11.2,8.5,17.4,11.8c2.9,1.5,5.3,3.9,8,5.9l0.1-0.1c-1.6-0.3-3.3-0.3-4.6-1c-5.7-3.1-11.5-6-16.8-9.6
	c-5.9-4-11.2-8.8-16.8-13c-1.8-1.3-4.1-1.9-5.9-3.1c-5.1-3.5-10.8-6.5-15-10.9c-3.2-3.4-5.2-6.3-10.8-6.8c-4.2-0.3-8.1-5.1-12-8.1
	c-1-0.7-1.4-2.2-2.2-3.2c-2.1-2.8-4.1-5.7-6.5-8.2c-2.5-2.5-5.5-4.6-8.9-7.3c0.8,2.2,1.5,3.8,2.1,5.5c-5.7-2.9-12.2-5.1-10.7-13
	c-3.1,0.4-5.4,0.7-7.8,1c-0.2-1.8-0.4-3.5-0.6-5.6c-4.1-3-8.6-6.4-13.6-10.1v5.4c-11.6-11.4-25.8-18.9-35.5-31.3
	c0.7-0.8,0.6-0.7,1.2-1.5c1.6,0.9,3.2,1.8,4.8,2.5c1.2,0.6,2.5,1,3.8,1.2c0.2,0,1.2-1.7,0.9-1.9c-0.8-1.1-1.9-2.1-3-2.9
	c-4.6-3.2-9.3-6.2-13.7-9.6c-1.2-1-1.6-3.1-2.4-4.6l-0.1,0.1c2.8,1.7,5.7,3.2,8.3,5.2c9.7,7.1,19.5,14.2,28.9,21.7
	c5.5,4.4,10.5,9.4,15.8,14.1c-1.9-0.7-3.8-1.5-5.8-2.2c3,3.5,6.5,6.4,10.1,9.1c8.3,6.3,16.7,12.6,25.1,18.9c1.3,0.9,3.2,3.1,3.5-0.9
	c3.4,1.2,6.7,2.4,11.1,4c-0.9-1.6-1.1-2.2-1.6-2.5c-6-4.7-11.6-10.1-18.2-13.8c-6.6-3.6-10.9-9.6-16.9-13.6
	c-7.3-4.8-13.9-10.6-21.3-15.3c-5.1-3.2-7.1-10.4-14.4-10.6c-0.4,0-0.7-0.6-1-1c-3.8-4.6-7.4-9.3-11.4-13.6c-1.4-1.5-4.8-3.6-5.5-3
	c-3.1,2.3-3.8,0.2-4.4-1.9c-1.9-7-8.1-10.5-12.6-15.4c-1-1.1-3.5-0.9-4.6-2c-4.4-4.3-8.1-9.3-12.7-13.3
	c-6.3-5.6-13.4-10.3-19.7-15.8c-3.4-3-6.5-5.3-10.6-3.5c2.6,4.2,5.1,8.5,7.8,12.8c0.3,0.5,0.9,1,1.4,1.4c6.2,5.5,12.4,11,18.5,16.6
	c1.5,1.4,2.8,3.2,4.2,4.7l0.1-0.1c-6.2-4.8-12.3-9.6-18.5-14.3c-4.5-3.4-9.1-6.7-14-9.6c21.4,19.8,43.8,38.5,65.8,57.6
	c-0.6,0.6-1.1,1.3-1.7,1.9c-3.1-2.8-6.5-5.3-9.3-8.3c-4.9-5.4-10.5-9.7-17.7-11.4c-0.6-0.1-1.5-0.5-1.6-0.9
	c-1.2-7.9-9-9.9-13.6-14.7c-2.7-2.8-6.7-4.3-10.1-6.4c-1.1-0.7-2.7-1.3-3.1-2.4c-3.5-8.7-12.9-11.3-18.6-17.9
	c-2.2-2.5-5-5.9-8.5-7.6c-0.9-0.4-2-0.4-2.8-0.9c-1.1-0.6-2.5-1.2-3.1-2.2c-1.1-2-1.6-4.3-2.6-6.9c-2,1.3-3.2,2-5.1,3.3
	c-0.6-2.1-1-4-1.3-5.1c-2.6-1.2-5.2-1.9-7.1-3.5c-8.7-7.3-17.2-14.8-25.6-22.5c-1.3-1.1-1.7-3.2-2.5-4.8c-2.3-1.2-5.3-2.3-7.6-4.2
	c-9-7.6-17.7-15.4-26.5-23.2c-0.4-0.3-0.6-0.8-1.1-1.6c1.2-0.6,2.3-1.1,3.6-1.7c-3.3-5.4-8.5-7.6-14.8-8.2c2.8-3.7-0.3-8.3-7.4-11.7
	c1.6,2.3,2.9,4.1,5,7c-3-0.8-4.6-1.2-7.9-2.1c0.9,2.9,1,5.4,2.3,6.8c7.1,7.4,14.5,14.4,21.7,21.7c0.8,0.8,1.1,1.9,1.7,2.9l0.1-0.1
	c-6.1-5.3-12.4-10.4-18.4-15.9c-5.1-4.7-9.9-9.8-14.8-14.7c-0.9-0.9-1.3-2.3-1.9-3.4c1.9,1,3.9,2.1,5.8,3.2
	c2.3-2.3,2.6-8.5-0.5-12.2c-3.5-4.1-7.8-7.6-11.7-11.3c-0.7,0.6-0.5,0.4-1.2,1c1.9,3.1,3.9,6.2,6.5,10.5c-5.3-2.7-8.1-5.4-8.1-10.5
	c0-1.9-1-4.1-2.2-5.7c-2.9-4-6.7-5.5-11.9-2.3c4.4-4.3,3.3-6.8-0.9-9.4c-3.6-2.3-6.8-5.3-9.9-8.2c-6.6-6.2-13.3-12.3-19.5-18.8
	c-2.5-2.6-6.9-4.1-6.7-8.8c-3.3-3.1-6.5-6.3-9.8-9.4c-2-0.7-4.5-0.9-6-2.2c-7-6.5-13.7-13.3-20.7-19.8c-2.5-2.4-5.4-4.4-8.1-6.6
	c0.3-1.2,0.3-1.3,0.6-2.5c5.9-1,6.7,6.6,12.4,8.1c-0.7-1.7-0.8-2.4-1.2-2.8c-4.8-5-10.2-9.6-14.3-15.1c-3.8-5.2-12.5-5.8-12.6-14.1
	c0-0.5-1.2-1.1-1.9-1.5c-2.2-1.3-5.9-2.1-6.4-3.8c-1.7-5.8-6.1-9.1-10-13.1c-4.6-4.7-8.6-10.1-13.1-14.9c-0.7-0.7-3.3-0.7-4.1,0
	c-0.7,0.6-0.8,3.2-0.1,4c3.1,3.4,6,7.4,9.9,9.4c5.4,2.6,8.4,6.3,10.3,11.6c0.3,0.9,1.8,1.4,2.5,2.3c2,2.3,3.9,4.7,5.9,7.1l0.1-0.1
	c-0.9-0.4-2-0.6-2.7-1.3c-6.5-6.2-12.9-12.4-19.3-18.6c-1.6-1.6-3.2-3.2-4.8-4.8c-0.5,0.4-1,0.9-1.5,1.3c1.9,2.3,3.7,4.8,5.8,7
	c11.1,11.7,22.3,23.3,33.6,34.9c6.5,6.7,13.2,13.3,19.8,19.9c2.5,2.5,5.5,4.6,7.9,7.2c6.4,6.7,12.6,13.6,19,20.2
	c1.6,1.7,3.9,2.7,6.8,4.6c1.4,8.2,9,14.3,16.9,11.1v7.2c-0.8,0.5-1.5,1-2.3,1.4c9.2,8.5,18.2,17.1,27.5,25.3
	c7.2,6.4,14.2,13.1,20.2,20.7c-4.3-3.4-9-6.5-13-10.3c-9.4-9-18.5-18.4-27.8-27.6c-16-15.9-32.2-31.6-48-47.6
	c-10-10.1-19.4-20.8-29.2-31.1c-10.4-10.9-21-21.7-31.5-32.5c-3.3-3.4-6.5-7-10-10.2c-1.5-1.4-3.7-2.2-5.6-3.3
	c-1.3-1.4-3-2.9-4.3-4.6c-4.7-6.1-11.4-11.4-10.5-20.3c0.2-2.5,1.1-4.9,1.8-8.2c2,1.5,3.8,2.7,5.5,4.1c3.1,2.3-0.7,4.1-0.5,5.8
	c0.6,4.2,2.2,8.3,3.5,12.5l2-0.5c-0.4-1.9-0.8-3.7-1.3-5.8c1.2-0.5,2.6-1.1,3.6-1.5c1.8,3.3,3.3,6.7,5.5,9.6
	c0.4,0.6,3.2-0.5,6.3-1.2c-22.4-25.1-44-49.3-65.6-73.5c-0.9,0.5-0.7,0.4-1.6,0.9c0.8,2.4,1.7,4.9,2.9,8.4c-2-1.8-3.2-2.9-5.3-4.9
	c0,2.3-0.6,4.3,0.1,5.1c6.9,8,14,15.8,21,23.7c0.9-0.6,0.6-0.4,1.5-1c-1.2-2.5-2.5-5.1-3.8-7.9c4.7,3.3,3.8,3.7,5.5,8.3
	c1.7,4.6,5.4,8.5,8.5,12.5c2.2,2.9,5.5,5,7.1,8.2c1.2,2.4,0.2,5.8,0.2,9.6c-1.9-1.5-3.1-2.5-4.4-3.5c3-2.7,2.2-5.9-1.4-8.5
	c-2.2-1.6-4.1-3.5-5.9-5.5c-5.8-6-11.8-11.9-17.4-18.1c-3.2-3.5-5.6-7.7-8.5-11.4c-1.2-1.5-2.9-2.4-4.4-3.7c-0.3,0.3-0.7,0.6-1,0.9
	l3.9,6.6c-0.4,0.5-0.4,0.5-0.8,1c-1.7-0.6-3.5-1.2-6.6-2.3c-3.3,5.4-7.2,11.6-10.8,17.9c-8.2,14.2-16.3,28.5-24.3,42.8
	c-1.9,3.4-3.2,7.2-5,10.7c-1.2,2.3-3.1,4.3-4.5,6.6c-8.2,13.6-16.4,27.3-24.4,41c-5.2,8.9-10.1,18.1-15.3,27
	c-5.8,9.9-12.1,19.5-17.9,29.4c-12.3,20.9-24.3,42-36.7,62.9c-6,10.2-12.4,20-18.7,30c-0.7,1.2-1.7,2.2-3.4,2.8
	c1.8-3.7,3.4-7.4,5.5-11c10-17,20-34,30.1-51c9.2-15.6,18.4-31.1,27.6-46.7c0.8-1.4,1.1-3,1.6-4.6c2.2-3,4.5-6,6.7-8.9
	c-0.7-0.8-0.6-0.7-1.3-1.6c-4.3,2-4.9,6.2-5.4,10.6c-5.5,1.4-6.5,6.6-8.8,10.5c-5.4,9-10.6,18-15.8,27c-0.5-0.3-1-0.6-1.5-0.9
	c3.4-6.1,6.8-12.2,10.2-18.4c-0.5-0.3-0.9-0.5-1.4-0.8c-4.5,7.5-8.9,15-13.9,23.3c1.8-0.4,2.7-0.7,4.9-1.2c-1.6,2.3-2.4,4.9-3.4,4.9
	c-5.7,0.3-6.3,5.4-8.4,8.7c-4,6.1-7.4,12.5-11,18.6c-1.4-0.9-2.5-1.6-4.4-2.8c2.1-4.9,4-10.5,6.9-15.5c3.4-5.8,7.8-11,11.7-16.4
	c0.3-0.4,0.6-0.9,0.8-1.4c2.4-5.1,4.6-10.2,7.1-15.2c1.7-3.4,3.6-6.8,7-6c1-4.3,1.2-8.5,2.9-12.1c3.1-6.5,6.2-13.5,11-18.7
	c2.8-3.1,3-6.3,4.6-9.4c2.5-4.8,5.3-9.6,8.1-14.3c5.4-9.1,10.9-18.2,16.2-27.3c1.2-2.1,1.7-4.7,3-6.8c4-6.8,8.4-13.3,12.2-20.2
	c5.2-9.1,10-18.5,14.9-27.7c0.4-0.8,0.6-1.8,0-3.1c-30.3,52.4-60.6,104.9-91.4,158.1c-0.9-1.8-1.4-2.8-2.1-4.3
	c-4,6.8-7.7,13.1-11.4,19.4c0.5,0.3,1,0.6,1.5,0.9c2.3-3.8,4.6-7.7,6.9-11.5c0.6,0.3,1.1,0.7,1.7,1c-7.9,13.7-15.8,27.3-23.7,41
	c-0.4-0.2-0.8-0.3-1.2-0.5c1.4-2.8,2.9-5.7,4.3-8.5c1.5-3,3.1-6,4.7-9c-0.4-0.2-0.8-0.4-1.1-0.7c-2.2,3.5-4.4,7-6.6,10.5
	c-1.6,2.7-3.1,5.5-4.8,8.1c-0.5,0.7-1.7,0.9-2.5,1.5c-0.8,0.5-2,1-2.2,1.7c-1.1,3.3-2,6.7-3,10c-0.4,1.3-1.2,2.6-2.3,4.7
	c-0.7-1.6-1-2.4-1.3-3.1c-0.7,0.1-0.6,0.1-1.3,0.2c-0.2,2.3-0.4,4.5-0.8,6.8c-0.2,1.3-0.5,3-1.4,3.6c-5.9,4-5.7,11.3-9.5,16.4
	c-0.9,1.2-2.5,1.9-3.6,2.7c-2,4.4-4,8.8-6.1,13.2c-0.3,0.6-0.8,1.2-1.3,1.4c-3.4,1.2-3.3,1.2-3.2,4.2c0,0.5-0.2,1-0.2,0.9
	c-1.7,0.9-3.5,1.3-4.3,2.3c-4.5,6.3-8.9,12.8-12.9,19.4c-1.3,2.1-2.8,4.2-1.3,7.7c0.8,1.9-2.6,5.7-4.1,8.6c-1.1,2.1-2.2,4.2-3.6,6
	c-0.6,0.8-2.4,0.6-2.9,1.4c-1.5,2.2-3.5,4.5-3.8,7c-0.5,5-3.1,9.5-7.9,11.7c-0.9,0.4-1.6,1.6-2.1,2.5c-5,8.8-9.7,17.6-14.9,26.3
	c-5.1,8.6-10.5,16.9-15.7,25.4c-6.9,11.5-13.6,23.1-20.6,34.5c-6.5,10.7-13.1,21.3-19.6,32.1c-4.3,7.2-8.3,14.7-12.7,22
	c-6.6,11.1-13.4,22.1-20,33.2c-6,10-11.9,20-18,30c-1.5,2.4-3.4,4.6-5.1,6.9c-0.5-0.3-0.9-0.6-1.4-0.9
	c49.7-83.9,99.4-167.8,149.1-251.7c-0.6-0.3-1.2-0.7-1.7-1c-46.1,77.6-92.2,155.2-138.3,232.8c-0.5-0.3-1.1-0.6-1.6-0.9
	c4-7.1,8.2-14.2,12.1-21.4c2.9-5.4,5.6-10.9,8.4-16.3l0,0.1c7.6-7.1,10.9-16.8,15.5-25.7c1-2,0.5-4.9,1.9-7.5
	c0.4,0.7,0.9,1.4,1.8,2.8c3.4-5.9,6.7-11.4,9.9-16.9c0.3-0.6,0.7-1.4,0.5-1.9c-2.2-7.3,3.3-11.1,6.9-16c0.5,0.9,0.9,1.5,1.7,2.7
	c2-3.5,3.7-6.6,5.5-9.9c-7.5-3.6-6.5,5.4-11.3,6.9c0.6-1.6,0.8-2.7,1.3-3.6c9.6-16.2,19.2-32.4,28.9-48.6c0.9-1.5,2.2-2.9,3.4-4.3
	c-0.8,2.5-1.7,5-2.6,8c1.1-0.4,1.9-0.7,2.7-1c0.2,0.9,0.3,1.7,0.6,3.1c3.7-5.9,7-11.1,10.2-16.1c-1.7-1.1-2.9-1.9-3.7-2.5
	c-2.5,2.9-4.9,5.7-7.3,8.6c4.8-8.9,9.5-17.9,14.5-26.6c6.1-10.5,12.5-20.8,18.8-31.2c0.7-1.1,1.5-2.1,2.6-3.7
	c0.3,1.5,0.5,2.3,0.8,3.4c0.5-0.4,0.9-0.6,1.2-0.9c1.4-2,3-4,4.2-6.1c1.2-2.2,4.1-4.3,0.8-7.2c-0.4-0.3,0.1-2.2,0.6-3.1
	c6.8-11,13.6-22,20.4-33c2.2-3.5,4.1-7.1,6.2-10.7c1.2,4.5,3.5,1.3,4.2,0.1c1.4-2.3,2.1-5.1,3.3-8.2c-2.8,3.1-5.2,5.6-7.6,8.2
	c2.2-4.3,4.2-8.7,6.7-12.8c1.1-1.7,3.5-2.5,5.2-4c1.3-1.2,2.4-2.6,3.4-4.1c2.6-3.9,4.7-8.1,7.6-11.7c2.1-2.6,1.6-3.9-1.4-5
	c7.3-12.2,14.4-23.9,21.4-35.8c5.3-9.1,10.3-18.3,15.6-27.4c1.4-2.4,3.9-4.1,5.4-6.5c1.4-2.2,2-4.9,2.2-7.7
	c-5.1,5.8-7.7,13.5-15.3,18.1c0,0.1,0.2,1.3,0.3,2.5c-4,1.3-7.9,8-7.5,12.7c-0.4-0.2-0.9-0.3-1.3-0.5c-1,2.2-1.8,4.4-3,6.5
	c-1.4,2.5-3,4.9-4.6,7.2c-0.7,1-2.1,1.6-2.6,2.7c-2,4.5-3.6,9.1-5.5,13.6c-0.6,1.5-1.2,3.3-2.4,4.2c-4.8,3.5-6.2,8.9-8.4,13.9
	c-0.2,0.5-0.2,1.2-0.6,1.4c-8,4.7-6.1,16-14.1,20.7c-0.4,0.2-0.8,0.8-0.8,1.2c0.2,9.4-7.8,14-12.3,20.6c-1.1,1.6-2.3,3.4-2.7,5.2
	c-2.1,9.7-7.9,17.2-13.9,24.6c-0.9,1.1-1.2,2.6-1.9,3.9c-4,7.4-7.8,15-12.2,22.2c-4.1,6.7-9,13-13.3,19.6c-1.4,2.2-1.5,5.1-2.8,7.3
	c-6.2,10.9-12.6,21.8-19,32.7c-2.5,4.3-5,8.6-7.5,12.9c-0.6,1-1.1,2.6-2,2.8c-6.3,1.5-5.7,8-8.7,11.8c-1.7,2.1-2.7,4.8-4.4,7
	c-2.5,3.1-3.8,6.7-5.3,10.2c-2.1,4.7-4,10.6-9.4,14.2c-3.3,2.2-5.6,7.2-6.4,11.4c-1.3,6.9-4.5,11.6-11.2,14.6c3.3,3.7,0.8,6-1.9,8.4
	c-0.8,0.7-1.3,1.6-1.5,2.7c-0.4,2.7-1.8,3.7-4.1,5.3c-3.4,2.5-5.6,7.1-7.6,11.1c-3,5.9-3.1,13.1-8,18.3c-2.4,2.5-4.9,5.1-6.8,8
	c-2.3,3.6-4,7.7-6,11.5c-2.5,4.6-5.2,9.1-7.9,13.5c-0.2,0.2-1.4-0.2-2.7-0.4c4.6-9.2,9-18,13.4-26.8c-0.8-0.4-0.4-0.2-1.2-0.7
	c-2.3,3.8-4.3,7.7-6.8,11.4c-3.2,4.7-6.7,9.3-10.1,13.9c-0.4,0.5-1,1.1-1,1.7c0.2,8.1-6.6,12.8-9.7,19.3
	c-3.9,8.3-9.3,15.9-14.1,23.8c-3.5,5.6-7.1,11.2-10.7,16.8c-0.8-0.4-0.6-0.3-1.3-0.6c1.4-4.8,2.8-9.6,4.6-15.8
	c-7.3,10.5-13.9,20-20.5,29.5c-0.8-0.4-0.6-0.3-1.4-0.7c0.3-1.1,0.6-2.1,0.9-3.4h-3.4c0-0.8-0.2-1.3,0-1.7c3-5.3,6.1-10.5,9.1-15.8
	c0.7-1.3,1.2-2.8,1.8-4.3c0.4-1.1,0.5-2.3,1.1-3.2c5.8-8.8,12.3-17.3,17.3-26.5c4.9-9.2,10.8-17.9,17-26.3c6.4-8.6,11.5-18,15.9-28
	c4.4-10.1,10.6-19.5,16.1-29.1c3.2-5.5,6.9-10.8,9.8-16.4c1.2-2.2,0.9-5.2,1.3-7.8l-1.6-0.4l-49.8,83.4c-0.6-0.3-1.1-0.6-1.7-0.9
	c8.8-15.5,17.6-31.1,26.4-46.6c-1.6-0.7-3-1.2-4.4-1.8c0.8-1.7,1.2-3.8,2.5-5c3.9-3.7,6.7-7.4,5.9-13.4c-0.3-2,2.7-4.3,4.3-6.4
	c2.6-4.9,5.1-9.8,7.9-14.6c3.7-6.1,8-11.9,11.5-18.1c5.6-9.8,10.7-19.9,16.2-29.9c1.1-2,2.5-3.7,2.8-6.2c-11.8,14.2-21.4,30-32,45
	c-10.8,15.4-21.5,30.8-32.5,46.6c-0.7-1.5-1.1-2.4-1.6-3.4c-1.7,1.3-3.2,2.4-4.7,3.6l0.1,0.1c2-4.5,3.8-9.2,6.2-13.6
	c2.5-4.6,5.6-9,8.2-13.5c0.9-1.6,1.3-3.5,3.9-2.2c0.3,0.2,1.2-0.4,1.5-0.9c7.3-11.4,15-22.5,21.4-34.4c2.3-4.2,4.3-7.9,8.2-10.5
	c0.9-0.6,1.3-1.7,2.8-3.6c-2.5,1.2-3.8,1.8-5.2,2.5c4.8-8.7,9.3-17,13.9-25.3c2.6-0.4,5.2-0.8,8.1-1.2c0.2-0.8,0.8-2.1,0.5-3
	c-1.6-5,1.8-7.8,5.1-9.8c7.1-4.3,11.9-11.1,13.7-18c2.8-10.5,12.4-16.3,14.5-26.6c1.9,0.7,3.1,1.1,3,1.1c8.7-15,17-29.5,26.1-45.2
	c-4.2,2.5-7.9,3.4-7.3,8.1c0.1,0.9-0.8,2.3-1.6,3c-4,3.6-6,8.5-8.3,13.1c-1.8,3.4-4.4,6.5-6.8,9.6c-3.6,4.7-7.5,9.2-11,13.9
	c-2.2,3-4,6.3-6,9.4c-0.8,1.3-1.5,2.8-2.6,3.8c-1.2,1.2-3.4,1.6-4.2,2.9c-4.3,7.4-8.3,15-12.5,22.4c-1,1.7-2.5,4.2-3.9,4.3
	c-3.2,0.2-4.4,3.6-4,4.1c3.5,4.4-1.3,5.5-2.7,7.9c0.3-1.2,0.6-2.5,0.9-3.7c-0.5-0.2-0.4-0.2-0.9-0.4c-4.1,5.8-8.2,11.5-12.1,17.3
	c-9.3,13.5-18.6,27.1-27.8,40.7c-8.6,12.8-17,25.6-25.6,38.4c-6.1,9.1-11.6,18.7-18.6,27c-7.4,8.8-11.6,19.5-18.8,28.3
	c-1.9,2.3-4.5,4.1-6.8,6.2c-0.7-0.6-1.4-1.2-2.1-1.8c10.2-15.6,20.5-31.2,30.7-46.8c-0.4-0.3-0.8-0.5-1.2-0.8
	c-15.3,22-30.7,43.9-46,65.9c-0.6-0.4-1.2-0.8-1.9-1.2c2.7-4.2,5.5-8.4,8.2-12.6c-10.6,7.5-13,21.7-24.8,29.4c0.4-1.9,0.2-3.8,1-4.4
	c5.5-4.2,5.1-12.7,12-16c1.5-0.7,2.3-3.6,2.9-5.6c0.9-2.8,1.5-5,4.9-6.5c2.7-1.2,4.2-5.3,6-8.2c2.9-4.7,5.4-9.6,8.3-14.2
	c5-8,10.2-15.9,15.4-23.7c5.1-7.8,9.9-15.9,15.7-23.1c6.8-8.5,10.9-18.7,17.8-27c1.2-1.5,2.8-2.6,4.3-3.9c0.8-0.7,1.7-1.4,2.3-2.3
	c2.7-4.7,5.1-9.6,7.9-14.3c2.3-4,5-7.7,7.6-11.5c4.8-7,9.5-14.1,14.4-21c5.7-8.1,11.8-15.9,17.2-24.2c1.2-1.9,0.7-5,0.9-7.6
	c-3.4,2.9-6.1,5.2-8.7,7.5l0.1,0.1c0.5-3.5,1.2-6.5,4-9.6c3.9-4.3,7.7-10.1,8.3-15.6c0.5-4.8,1.7-8.3,4.4-12.1
	c5.3-7.5,10-15.3,14.7-23.2c6-10.2,12.5-20.2,17.1-31c5.6-13.1,13.4-24.6,20.8-36.6c1.2-1.9,1.5-4.2,2.3-6.4
	c-0.5-0.3-0.9-0.5-1.4-0.8c-2,3.1-4,6.3-6.2,9.3c-1.9,2.7-4,5.2-6.1,7.8c-0.4,0.5-0.9,1.3-1.1,1.8c-2,4.4-3.4,9.4-6.5,13
	c-6.5,7.6-12.2,15.8-17.7,24.3c-2.4,3.7-6.6,6.3-6.3,11.5c0,0.3-0.2,0.8-0.4,0.9c-7,2.9-7.8,9.2-8.3,15.5c-0.5,5.7-5.7,7.6-8.5,11.5
	c-1.5,2.1-2.2,4.7-3.2,7.2c-0.5,1.2-0.6,2.6-1.3,3.6c-14.9,22.1-29.9,44.1-44.6,66.2c-8.5,12.8-16.6,26-25.1,38.9
	c-1.2,1.9-3.5,3.1-4.8,5c-8.7,12.6-17.3,25.2-25.8,37.9c-12,17.9-24.1,35.8-35.9,53.8c-8.6,13.1-16.9,26.5-25.5,39.7
	c-7.7,11.8-15.7,23.4-23.5,35.2c-10.2,15.5-20.3,31.1-30.4,46.7c-11.7,18-23.4,35.9-34.9,53.9c-10.1,16-19.9,32.2-30,48.1
	c-3.2,5.1-6.9,9.9-10.4,14.8c-0.4-0.2-0.8-0.5-1.2-0.7c3.2-5.2,6.4-10.4,9.5-15.7c6.4-10.7,12.8-21.3,18.9-32.1
	c0.9-1.5-0.4-4.3,0.5-5.7c0.7-1.1,4.1-0.4,4.9-1.5c3.2-4.2,5.9-8.8,8.7-13.3c7-11.4,14-22.9,21-34.4c0,0-0.1,0.1-0.1,0.1
	c4.4-7.2,8.7-14.3,13.1-21.5l0.3-0.2c4.9-6.8,10-13.5,14.7-20.5c9.8-14.8,19.3-29.7,28.8-44.7c2.1-3.2,4-6.5,6-9.8
	c-0.4-0.3-0.8-0.5-1.2-0.8c-4.2,5.7-8.3,11.5-12.5,17.2c-0.3-0.2-0.2-0.1-0.6-0.3c1.5-3.2,2.9-6.3,4.4-9.5c5.3-3.6,6.9-9.4,9.2-14.9
	c-6.5,2.9-6.2,9.9-9.1,15c-3.7,4.6-7.8,9-11.1,13.9c-4.1,5.9-7.7,12.3-11.6,18.4c-3.3,5.3-6.5,10.6-10.1,15.6
	c-1.5,2.1-4.1,3.3-6.7,5.4c1.3,5.9-2.1,10.6-6.4,15.5c-4.4,5-7.4,11.1-11.1,16.7c-3.8,5.6-7.6,11.2-11.7,16.6
	c-0.6,0.8-2.5,0.5-3.9,0.8c0.3-2.3,0.5-4,0.9-6.9c-8.3,5.5-1.6,11.5-2.1,16.6c-2.2-0.3-4.1-0.5-6-0.8c4.9,5.7,0.1,9.4-1.9,13.2
	c-2.2,4.1-5,7.8-7.8,11.5c-1.1,1.4-3,2.1-4.4,3.3c-1.6,1.4-3.6,2.7-4.4,4.6c-2.4,5.3-3.9,11-6.5,16.2c-3,6-6.8,11.7-10.2,17.5
	c-0.8-0.1-0.9-0.1-1.7-0.3c-1-4.3-1.9-8.5-2.7-11.9c-2.3,0.7-5.1,0.8-6.7,2.2c-2.3,2-3.8,5-5.4,7.7c-1.7,2.8-3.1,5.8-4.2,8
	c1.3,0.8,2.5,1.5,3.7,2.2c0,0-0.1,0.3-0.1,0.3c-2,0.9-4.2,1.6-6,2.9c-1.3,0.9-2.2,2.6-2.7,4.2c-0.4,1.3-0.1,2.8-1,4.5
	c-0.3-0.6-0.6-1.2-1-2.2c-1.9,2.4-3.6,4.9-5.5,6.9c-2.5,2.6-5.4,4.6-7.7,7.3c-1,1.2-1,3.4-1.4,5.2c-0.2,0.8-0.3,1.9-0.8,2.2
	c-7.6,4.2-11.8,11.4-16.6,18.1c-1.4,1.9-4.1,2.9-6.3,4.2c-0.7-0.6-0.7-0.6-1.4-1.2c0.6-1.7,1.1-3.4,1.7-5.1
	c-0.4-0.2-0.3-0.2-0.7-0.4c-4.2,5.8-8.3,11.6-12.5,17.4c-0.8-0.5-0.5-0.3-1.2-0.8c1.6-2.8,3.1-5.6,4.7-8.4
	c4.7-8.5,9.1-17.1,14.2-25.4c3.6-5.8,8.2-11,12-16.7c1.6-2.4,2.4-5.4,3.9-8c0.6-1.2,2.2-1.8,2.9-2.9c5.3-8.2,10.6-16.4,15.7-24.8
	c4.4-7.2,8.2-14.6,12.6-21.7c3.6-5.7,7.8-11,11.7-16.4c0.8-1.1,1.5-2.3,2.2-3.4c4.7-7.8,9.4-15.5,14-23.3c2.1-3.6,4-7.3,6.3-10.7
	c2.5-3.8,5.3-7.4,8.1-11.1c1-1.3,2.2-2.5,3-3.9c5.5-9.2,11-18.5,16.4-27.8c4.8-8.3,9.5-16.7,14.5-24.8c3-4.9,6.7-9.3,9.8-14.1
	c3.7-5.7,6.8-11.8,10.7-17.4c4.7-6.8,9.8-13.3,14.6-20.1c1-1.3,0.9-3.4,1.9-4.7c5.2-7.7,10.7-15.2,15.9-22.9
	c3.4-5.2,6.3-10.7,9.6-16c1-1.7,2.2-3.3,3.5-4.8c2.7-3.2,6.7-5.6,6.2-10.7c-0.1-0.8,0.9-1.7,1.5-2.5c3.9-5.2,8.7-10,11.7-15.7
	c5.7-10.8,11.8-21.2,19.6-30.6c2.2-2.7,3.3-6.2,5.2-9.2c5.2-8.5,12.3-15.6,16.5-24.9c2.8-6.3,7.7-11.7,11.3-17.6
	c3.3-5.4,6.2-11,9.6-16.4c1.9-3.1,4.3-5.8,6.5-8.7c1.2-1.6,3-2.9,3.6-4.6c1.2-3.8,2.7-7,6.6-8.5c0.6-0.2,1.2-0.9,1.3-1.4
	c1.2-7.6,5.2-13.4,10.3-19c2.6-2.9,3-7.9,5.7-10.6c4.7-4.7,5.9-11.3,10.3-16.2c4.4-4.9,7.3-11.3,11.2-16.7c2.7-3.8,6.1-7.2,8.9-11
	c1.2-1.7,1.7-3.9,2.7-5.7c1.9-3.4,3.9-6.7,6-9.9c1.4-2.2,3.5-4,4.8-6.2c3.7-6.4,6.8-13.1,10.6-19.4c5.3-8.8,10.8-17.5,16.4-26.1
	c3-4.5,6.6-8.7,9.6-13.2c2.1-3.3,2.9-7.8,5.7-10.3c4.8-4.4,5.9-10.8,9.8-15.6c3.4-4.3,7-8.4,9.8-13.1c4.2-7.1,7.9-14.6,11.7-22
	c0.1-0.3-0.6-1-1.4-2.3c-2.3,3.6-4.2,6.6-6.2,9.6c-0.6,0.9-1.2,2.2-2.1,2.6c-3.2,1.4-4.3,3.7-4.3,7.1c0,3.5-1.1,3.4-5.1,5
	c-2.1,0.8-3.2,4.1-4.7,6.2c-1.4,2-2.9,3.9-4.4,5.9l-1.5-1c3-4.8,5.9-9.8,9.1-14.5c7.4-11.1,14.8-22.2,22.3-33.3
	c2.9-4.3,5.1-10.4,9.2-12.5c7.2-3.7,8.9-11.3,14.2-16c0.5-0.5,0.5-1.5,0.9-2.7c-1.5,0.2-2.6,0.3-3.8,0.4c-0.3-0.3-0.6-0.7-1-1
	c1.2-1.5,2.2-4,3.5-4.3c2.5-0.4,2.6-1.8,3.5-3.6c4.6-8.5,9.5-16.7,14.6-24.9c0.6-1,2.7-1.1,3.7-2.1c2.6-2.3,5.3-4.6,7.3-7.3
	C497.2,1785.9,498.1,1782.9,499.3,1780.3L499.3,1780.3z M205.4,876.2c1.6,4.7,3.3,9.4,4.9,14.1c0.1,1.3-0.1,2.8,0.3,3.9
	c3.2,7.9,6.6,15.7,9.9,23.5c0.4,0.9,1.3,1.6,1.9,2.4c0.4-0.2,0.8-0.4,1.2-0.6c-2.5-6.1-4.8-12.2-7.5-18.2c-1.7-3.8-4-7.3-6-10.9
	C208.6,885.7,207,880.9,205.4,876.2c-0.3-5.7-2.5-10.7-6.2-15c-0.4,0.2-0.8,0.4-1.3,0.6C200.4,866.6,202.9,871.4,205.4,876.2z
	 M242.2,978.4c-1.6-4.7-3.3-9.5-4.9-14.2c-0.7,0.3-1.4,0.6-2.1,0.9C237.6,969.5,240,973.9,242.2,978.4c2.4,6.4,4.8,12.8,7.2,19.3
	c0.8-0.4,1.7-0.7,2.5-1.1C248.7,990.5,245.5,984.4,242.2,978.4z M520.3,1397.3c-1.8-5.2-4.3-9.9-9.6-12.5
	C513.9,1388.9,517.1,1393.1,520.3,1397.3c3.5,6.6,7.1,13.1,12.8,18.1c0.5-0.4,1.1-0.8,1.6-1.3
	C529.9,1408.5,525.1,1402.9,520.3,1397.3z M188.4,2313.4c-2.6,2.9-5.4,5.5-7.6,8.6c-3.3,4.8-6.2,10-9.2,15c0.5,0.3,1,0.6,1.5,0.9
	C178.1,2329.7,183.2,2321.5,188.4,2313.4c3.2-4.8,6.5-9.6,9.8-14.4c-0.6-0.4-1.3-0.7-1.9-1.1C193.6,2303,191,2308.2,188.4,2313.4z
	 M709.2,1725.2c3.3-1.5,5-4,6.3-7.6c2-5.6,5.1-10.8,7.8-16.1c-0.4-0.2-0.8-0.4-1.3-0.6C717.8,1709,713.6,1717.1,709.2,1725.2
	c-2.3,3.7-4.6,7.3-7,10.9c0.7,0.4,1.5,0.7,2.2,1.1C706.1,1733.2,707.6,1729.2,709.2,1725.2z M227.2,2257.2c1.2-0.7,2.7-1.2,3.5-2.2
	c1.7-2,3.1-4.2,4.4-6.5c2.5-4.1,4.8-8.3,7.1-12.5c-0.4-0.2-0.8-0.5-1.2-0.7C236.1,2242.4,230.6,2249.1,227.2,2257.2
	c-3.7,5.3-7.5,10.5-11.9,16.5C221.4,2272.8,227.2,2263.7,227.2,2257.2z M99.3,2454.3c-0.7,2.3-1.4,4.6-2.3,7.8
	c4-3.6,7.2-6.5,10.5-9.5c-0.3-0.4-0.7-0.8-1-1.2C104.1,2452.4,101.7,2453.4,99.3,2454.3c0.2-1.2,0.5-2.5,1-5.2
	c-6.6,8.2-11.9,15.3-10.4,25.2c1.6-2.7,3.7-5.6,3.8-8.5C94,2460.9,95.5,2457.2,99.3,2454.3z M645.3,1786.3c-2.8,4.7-5.6,9.3-8.3,14
	c-1.8,3.2-3.6,6.3-7.7,6.8c-0.1,0-0.1,0.5-0.2,0.9c0.9-0.1,1.8-0.2,3.1-0.4c-1,2.8-1.9,5.2-2.8,7.6c-2.1,3.1-4.2,6.2-6.4,9.1
	c-1.3,1.7-3.1,3.1-5.1,5.1c0.7,8.5-8.1,14.1-10.4,22.4c0.6,0.3,1.1,0.6,1.7,0.9c2.8-4.9,5.5-9.8,8.3-14.7c1,0.2,2.1,0.4,1.8,0.3
	c1.3-3.8,2.5-6.9,3.5-10.2c1.4-4.8,7.9-6.9,6.6-13c0.9-0.6,2.2-1,2.7-1.8c3-5.2,6.1-10.5,8.8-15.9
	C642.5,1793.9,643.7,1790,645.3,1786.3c3.1-4.6,6.3-9.2,9.5-13.7c-0.6-0.4-1.2-0.7-1.7-1.1C650.4,1776.5,647.9,1781.4,645.3,1786.3z
	 M190.3,837.2c2,6.7,4,13.3,6.1,20c0.6-0.2,1.2-0.4,1.8-0.6C194.4,850.6,197.2,842.1,190.3,837.2c-3.5-12-6.4-24.4-14.8-34.5
	c2.3,6.6,4.8,13.1,7.6,19.5C185.4,827.4,187.9,832.3,190.3,837.2z M538.3,1861.4c-0.8-2.8-1.7-5.6-2.7-8.9
	c-4.1,7.7-8.2,15.6-12.4,23.5c0.4,0.3,0.9,0.5,1.3,0.8c2.9-4.5,5.8-8.9,8.7-13.4c0.4,0.3,0.9,0.5,1.3,0.8c-1.3,3.1-2.7,6.2-4,9.3
	c0.5,0.2,1.1,0.5,1.6,0.7C534.2,1869.9,536.3,1865.6,538.3,1861.4c5.6-8.8,11.6-17.4,13.8-27.7c-0.5-0.2-1-0.5-1.5-0.7
	c-2.8,1.6-5.5,3.2-8.3,4.8c2.1,1,4.1,0.7,4.5,1.3c0.6,1,0.3,2.8-0.1,4c-0.6,1.9-1.8,3.5-2.7,5.4
	C542.1,1852.7,540.3,1857,538.3,1861.4z M372.2,1181.4c1.1-3.6-1.9-8.6-7.6-11.4C367.2,1173.7,369.7,1177.5,372.2,1181.4
	c0.7,1.8,1.1,3.8,2.1,5.5c5.1,8.9,10.3,17.7,15.6,26.5c3.3,5.4,6.7,10.7,10.1,16c0.4-0.2,0.8-0.4,1.1-0.6c-0.4-1.4-0.4-3-1.2-4
	c-6.3-7.8-8.7-17.9-14.9-25.8c-3.4-4.3-5.8-9.5-8.9-14.1C375.2,1183.4,373.5,1182.5,372.2,1181.4z M214.2,2288.4
	c-0.6-1.3-1.1-2.7-1.4-3.4c1.3-2.7,2.3-5,3.3-7.2c-1.6-1.3-2.7-2.2-4.3-3.4c-2.9,4.5-5.7,8.9-8.2,12.7
	C207.5,2287.5,210.9,2287.9,214.2,2288.4c-0.5,2.9-1,5.8-1.7,9.6c1.9-2,3-3.3,4.7-5c-1,3-1.7,5.2-2.5,7.4c0.4,0.2,0.8,0.4,1.3,0.6
	c14.9-23.3,29.8-46.5,44.7-69.8c-0.4-0.3-0.9-0.6-1.3-0.9c-2.8,3.5-5.5,7-8.3,10.5c0-1.5,0-3,0-3.9c-2.4,2.5-5.1,4.9-7.2,7.8
	c-1.1,1.5-0.9,4-1.4,6c-1.4,1.2-3,2.2-4.2,3.6c-2.9,3.3-5.7,6.8-8.5,10.2c-0.8,1.8-0.3,5.8-1.7,6.6c-6.1,3.5-8.3,9.4-11.2,15.1
	C216.5,2287,215.2,2287.6,214.2,2288.4z M878.8,865.6c0.7,0.5,0.3,1.6-0.5,1.6c-1.7-0.1-3.5-0.2-5.2-0.4c-2.7-0.4-5.4-2-8-1.9
	c-5.1,0.3-10,1.6-15.1,2.3c-1.2,0.2-3.1,0.1-3.7-0.7c-5.2-5.7-10.6-3.7-16-1.7c-0.8,0.3-0.7,1.5,0.2,1.7c0.6,0.1,1.1,0.2,1.7,0.3
	c0.5,0.1,0.8,0.5,0.7,0.9l0,0c0,0.5-0.5,0.8-1,0.8c-2.7-0.3-5.3-0.5-8-1c-1.6-0.3-3.2-1.9-4.7-1.8c-9.1,0.7-18.2,1.7-27.3,2.8
	c-4.7,0.5-9.4,1.4-14,2.1c-0.4,0.1-0.7,0.4-0.7,0.7c0,0.3-0.1,0.5-0.1,0.8c6.1-1,10.8,1.1,15.1,5.7c0.5,0.6,0.1,1.5-0.7,1.5
	c-1.7-0.1-3.3-0.2-4.8-0.3c-0.3,1.9-0.2,1.2-0.5,3.1l1.1,0.3c0.4,0.1,0.7,0.5,0.7,0.9l0,0.1c0,0.4-0.3,0.7-0.7,0.8
	c-1.7,0.3-3.4,0.8-4.9,0.6c-4.4-0.7-8.7-2.1-13.1-2.6c-16.4-2-32.8-4.1-49.3-5.5c-11.3-1-22.7-1-34.1-1c-9.5,0-18.9,0.6-28.4,0.8
	c-3.6,0.1-7.3,0.1-11.2,0c-1.2,0-1.8,1.5-0.9,2.2l0.3,0.3c0.7,0.6,0.2,1.7-0.7,1.7c-66.6-0.7-131.7-10.7-193.3-29.6l-0.3,4.3
	c-2.2-3.7-2.1-3.6-4.7-5.9c-3-2.7-8-3-12.3-4.3c2.8,10.3,5.6,19.8,7.7,29.4c0.9,4.2,1.5,9.3,0,13.1c-1.6,4,0.4,5.8,2.1,8.1
	c0.1-1.3-0.8-2.3-0.8-3.4c0-1,0.9-2,1.4-3.1c0.5,0.1,0.9,0.2,1.4,0.2c1.4,5.8,2.8,11.5,4.2,17.3c0.1,0.5,0,1.4-0.1,1.4
	c-4.2,1.1-1.1,3.7-1.2,5.7c-0.1,2.3-0.4,4.7,0,7c0.5,2.6,1.6,5,2.4,7.5c0.4-0.2,0.7-0.4,1.1-0.5c-0.4-4.4-0.8-8.8-1.2-13.2
	c0.9-0.2,0.6-0.1,1.5-0.3c3.9,15.9,7.8,31.9,11.8,48.4c-2.2-0.5-3.4-0.8-5.4-1.3c0.6,6.2,0.5,12,1.9,17.4c2.7,10,6.2,19.9,9.8,29.7
	c5,13.7,10.3,27.2,15.5,40.8c3.5,9.1,6.6,18.4,10.4,27.4c6,14.3,12.6,28.4,18.8,42.7c6.6,15.2,12.9,30.5,19.8,45.5
	c6.7,14.5,14,28.6,20.9,43c8.2,17,16.2,34.1,24.5,51.1c3.9,8,8.4,15.6,12.6,23.5c8.2,15.5,16.2,31.1,24.7,46.5
	c7.7,13.9,15.9,27.6,23.9,41.3c11,18.9,21.9,37.8,33.1,56.6c5.6,9.3,11.8,18.1,17.8,27.1c4.2-7.7,8.3-15.4,12.7-22.9
	c4.4-7.6,6.4-16.3,13.6-22.5c3.6-3,5.3-8.3,7.6-12.7c1.2-2.3,2-4.8,2.9-7.2c-0.3-0.2-0.2-0.1-0.5-0.3c-1,1.1-2,2.2-3,3.3
	c-0.3-0.3-0.7-0.5-1-0.8c3.2-4.6,1.6-11.9,9.2-14.2c1.2-0.4,2.5-3.5,2.3-5.1c-0.7-5.1,1.7-10.5,6.2-12.4c-0.7-6,4.3-17.9,8.2-18.3
	c1-3.4,1-7.8,2.9-8.9c5-2.8,5.9-7,6.8-11.9c1.6-8.1,2.8-16.6,10.7-21.8c1.5-1,3.1-4.5,2.5-5.6c-2.4-4.3,0.2-7.5,1.6-10.7
	c10.7-24.5,21.8-48.8,32.4-73.4c11.3-26.3,22.1-52.7,32.9-79.2c5.2-12.8,9.8-25.8,14.4-38.8c0.6-1.6-0.2-3.6-0.3-5.4
	c-2.2,1.8-2.8,4.5-3.9,4.7c-4.1,0.8-4.4,4.1-5.5,6.9c-1.6,4.4-2.9,8.8-4.6,13.2c-5.1,13.1-10.2,26.2-15.6,39.2
	c-8.2,19.7-16.4,39.5-25,59c-4.9,11.2-10.7,22.1-15.7,33.3c-2.8,6.2-4.4,12.9-7.2,19.1c-6.8,15.1-14.2,29.9-21.1,45
	c-5.2,11.4-9.8,23.1-15.1,34.4c-7.7,16.5-15.8,32.9-23.9,49.3c-0.6,1.2-2,2-3,3l0.1,0.1c0.4-1.8,0.5-3.7,1.3-5.3
	c5.6-12.1,11.5-24.1,17-36.3c4.8-10.7,9.2-21.6,13.8-32.4c3.3-7.8,6.5-15.8,10-23.5c6.5-14.2,13.3-28.2,19.7-42.4
	c5.7-12.6,11-25.3,16.4-37.9c6.7-15.6,13.4-31.1,19.9-46.8c5.5-13.2,10.5-26.7,15.9-40c3.2-7.9,7-15.6,9.9-23.6
	c5.4-14.9,10.5-29.9,15.4-45c6.8-21,13.9-42,19.5-63.3c5.5-21.1,9.9-42.6,13.8-64.1c3.6-20.1,6.2-40.4,9-60.6
	c0.7-5.3-1.9-8.5-7.4-9.7c-0.8-0.2-1.4,0.8-0.9,1.4c1.9,2.2,3.7,4.4,6,7.1c0.2,0.2,0.3,0.6,0.2,0.9c-0.3,0.7-0.8,2-1.6,2.9
	c-0.4,0.4-2.5-0.3-3.5-0.9c-2-1.3-3.9-2.8-5.8-4.3c-0.6-0.4-0.4-1.3,0.3-1.5c0.6-0.2,1.3-0.4,2.2-0.6c0.7-0.2,0.9-1,0.3-1.5
	c-1.4-1.2-2.4-2.1-3.4-3c-0.3-0.2-0.7-0.3-1-0.1c-1.2,0.6-2.2,1.1-3.4,1.7c-0.6,0.3-0.6,1.1-0.1,1.5
	C878.1,865.1,878.5,865.3,878.8,865.6z M215.2,885.6c2.3-5.7-32.7-95.3-38.3-98C190,821.1,202.6,853.4,215.2,885.6z M630.4,1554.5
	c0.6-0.5,1.2-1.1,1.8-1.6c-20.1-25.7-40.3-51.4-60.8-77.6c0.1,1.7-0.4,3.6,0.4,4.8c1.9,3,4.4,5.5,6.5,8.3
	c7.1,9.4,14.1,18.9,21.4,28.1c8.6,10.9,17.6,21.6,26.4,32.3C627.5,1550.7,628.9,1552.6,630.4,1554.5z M804.8,1241.1
	c-0.6-0.3-1.3-0.6-1.9-0.9c-13.9,29.3-27.7,58.6-41.6,88c0.8,0.4,1.6,0.8,2.4,1.1C777.4,1300,791.1,1270.6,804.8,1241.1z
	 M514.1,1398.3c-0.5,0.5-1,0.9-1.6,1.4c17.8,24.7,35.6,49.4,53.3,74.1c0.4-0.3,0.9-0.6,1.3-0.9c-1.8-3.5-3.1-7.3-5.4-10.4
	c-6.1-8.2-12.7-16-18.9-24c-4.1-5.3-8.1-10.8-11.9-16.4c-3.6-5.3-6.8-11-10.4-16.3C518.7,1403.1,516.3,1400.8,514.1,1398.3z
	 M576.2,867.4c7,0.7,13.8,1.3,20.7,1.9c0.2,0,0.3-0.1,0.3-0.3c0.2-1.3,0.3-2.5,0.5-4.3c0-0.2,0.3-0.3,0.5-0.2c2.2,1.7,6.9-0.3,5.3,5
	c-0.1,0.2,0.2,0.4,0.4,0.4c3.8-1.5,7.7-3,11.4-4.4c0.3-0.1,0.2-0.5-0.1-0.6c-15.2-1.4-30.6-2.8-46-4.3c-0.3,0-0.4,0.4-0.2,0.5
	c4.7,3.2,7,4.8,6.9,5.9C576,867.3,576.1,867.4,576.2,867.4z M276.7,2197.2c-5.2-1.1-5.1-3.5-2.7-7.2c2.1-3.2,3.5-6.8,5.2-10.2
	c-0.6-0.3-1.2-0.7-1.8-1c-5.9,9.3-11.8,18.6-17.8,27.9c0.6,0.4,1.2,0.9,1.8,1.3c1.7-2.4,3.9-4.7,5.1-7.3c1.4-3,2.8-3.7,6.2-1.5
	c-8.9,4.3,1.3,7.2-0.2,10.8C279.9,2207.7,274.3,2201.7,276.7,2197.2z M468.8,844.3l-0.3,1.5c14,3.8,28,7.5,42.4,11.4
	c0.2,0.1,0.4-0.2,0.4-0.4c-0.9-2.5-1.3-4.3-2.3-5.7c-2.2-3.2-7.7-2.9-9.1,0.6c-0.1,0.1-0.2,0.2-0.3,0.2c-3.1-0.8-6.2-1.6-9.2-2.5
	c0.3-1.3,0.2-0.7,0.5-2.1c1.2,0.2,2.5,0.5,3.7,0.7c0.1-0.4,0.2-0.9,0.3-1.3c-4.3-0.8-8.6-1.6-13-2.3c-1.2-0.2-3.4-0.5-3.6,0.1
	c-1.7,3.3-3.7,1.7-5.8,0.7C471.3,844.6,470,844.6,468.8,844.3z M495.9,1897.1c0.6,0.4,1.2,0.9,1.8,1.3c10-13.6,19.7-27.3,24.5-44
	C513.4,1868.6,504.6,1882.9,495.9,1897.1z M514.4,1894.8c4.8,2.5,4.1-1,4.6-2.8c0.4-1.5,0.6-3.1,0.8-4.6c4,0.8,3.2-2.6,4.2-4.4
	c-8-2-7.7,6-11.4,9.6c-0.6-1.3-1.1-2.2-1.5-3.1c-0.5-0.1-1-0.2-1.6-0.2c3.7,10.1-4.5,16.4-7.3,25.9c2.9-2.5,5.5-3.7,6.5-5.8
	C511,1904.7,512.6,1899.6,514.4,1894.8z M497.7,1379.6c0.4-0.3,0.7-0.6,1.1-1c-4-6.1-8-12.2-12-18.3c-5.8-9-11.5-18.1-17.4-27.1
	c-1.2-1.8-3.1-3.1-4.7-4.6c-0.4,0.4-0.7,0.8-1.1,1.1C475,1346.4,486.3,1363,497.7,1379.6z M324.2,2186c-3.3,1.9-1.7,4.5-1.5,7
	c0.2,2.2,0.1,4.9-1,6.7c-4.5,7.1-9.6,13.8-14.3,20.7c-1.2,1.7-2,3.6-3,5.3c0.4,0.2,0.8,0.5,1.2,0.7c8-11.7,16-23.5,24.1-35.2
	C324.3,2192.1,323.6,2191.5,324.2,2186z M262.4,2228.7c3.6-5.6,6.9-10.7,10.2-15.7c-0.4-0.4-0.8-0.8-1.2-1.2
	c-1.6,1.4-3.1,2.8-4.8,4.1c-0.9,0.7-1.8,1.7-2.8,1.8c-5.2,0.4-10.2,7.3-9.2,12.9C257.6,2231.3,256.8,2221.4,262.4,2228.7z
	 M463.4,1963.9c0.6,0.4,1.3,0.7,1.9,1.1c5.2-9.8,10.4-19.6,15.6-29.4c-0.4-0.2-0.8-0.5-1.3-0.7
	C472.6,1943.7,466.5,1953,463.4,1963.9z M918.1,1868.4c-0.5,0.5-0.9,1.1-1.4,1.6c11.7,11.6,23.3,23.1,35,34.7
	c-0.2,0.2-0.5,0.4-0.7,0.6C940.1,1893,929.1,1880.7,918.1,1868.4z M1231.2,860.9c6.4,0,12.8,0.4,19.1-0.2c2.3-0.2,6.6,0.9,7.6-4.8
	C1248.6,858.2,1239.1,855.5,1231.2,860.9z M636.2,1713.3c-2.2,4-4.2,7.3-6,10.7c-1.8,3.3-3.2,6.8-5,10.1c-1.7,3.1-5,5.6-4.5,10.5
	C626.3,1739.6,637.7,1716.9,636.2,1713.3z M1257.5,2101.8c-0.5,0.6-0.9,1.2-1.4,1.8c10.2,7.5,20.4,15.1,30.7,22.6
	c0.4-0.6,0.9-1.2,1.3-1.8C1277.9,2116.9,1267.7,2109.3,1257.5,2101.8z M343.6,2071.1c2,1.4,3.3,2.3,4.6,3.2c2-3.1,4-6.3,6.2-9.3
	c2.5-3.3,1.8-5.2-2.1-6.3C349.3,2063.1,346.3,2067.3,343.6,2071.1z M603.7,1854.6c-3.3,8.3-6.3,16.1-9.4,23.9
	c0.8,0.3,1.6,0.6,2.4,0.9c1.2-3.6,1.9-7.4,3.6-10.6c2.5-4.7,2.8-11.1,9.6-12.9c1.1-0.3,1.8-2.2,2.7-3.4
	C609,1853.4,606,1854,603.7,1854.6z M633.4,868.7c-0.1-1.4,0-0.8-0.1-2.2H625c-0.3,0-0.4,0.5-0.1,0.6c6.4,2.5,7.1,4,6.3,10.4
	c0,0.2,0.1,0.3,0.3,0.3h2.1c0.5-2.1,0.4-1.7,0.9-3.9l-0.1,0c-0.1,0-0.1-0.1-0.2-0.2c-0.4-1.4-0.8-3-1.3-4.7c0-0.2,0.1-0.4,0.3-0.4
	L633.4,868.7z M311.3,1072.1c0.5-0.2,0.9-0.5,1.4-0.7c-6.8-13.7-13.7-27.5-20.5-41.2c-0.5,0.2-1,0.5-1.4,0.7
	C297.6,1044.7,304.4,1058.4,311.3,1072.1z M724.8,1407.3c-5.1,10.2-9.9,19.6-14.6,29.1C715.9,1432,725.7,1412.3,724.8,1407.3z
	 M451.1,2128.1c-9.3,9.9-10.2,12.4-7.1,19.1c2.5-4.6,4.9-8.9,7.2-13.2c-0.3-0.2-0.6-0.3-0.8-0.5c-1,1.1-2.1,2.2-3.1,3.3
	c-0.2-0.1-0.4-0.3-0.6-0.4C448.1,2133.7,449.6,2130.9,451.1,2128.1z M1082.7,2026c0.3-0.4,0.7-0.8,1-1.2
	c-10.6-9.3-21.2-18.7-31.9-28c-0.3,0.4-0.7,0.8-1,1.2C1061.5,2007.3,1072.1,2016.6,1082.7,2026z M487.5,2000.4
	c-5.5,9.5-11,19.1-16.5,28.6C480,2021.1,488.7,2005.1,487.5,2000.4z M253.5,2218.7c-8.5,0.4-9.8,7.5-14.1,12.7
	C246.6,2229.1,252.4,2226.5,253.5,2218.7z M466.3,1890.4c-0.4-0.1-0.8-0.3-1.2-0.4c-3.4,2.7-7.7,4.9-10,8.4
	c-2.1,3.2-2.1,7.8-3.1,11.9c0.2,0.1,0.5,0.2,0.7,0.3C457.3,1903.8,461.8,1897.1,466.3,1890.4z M694.3,1457.9
	c11.1-3.6,8.7-12.5,12-18.7c-0.5-0.2-1-0.5-1.4-0.7C701.5,1444.6,698.2,1450.7,694.3,1457.9z M102.4,2444.8c0.4,0.3,0.8,0.5,1.3,0.8
	c7.3-11.5,14.6-23.1,21.9-34.6c-0.5-0.3-0.9-0.6-1.4-0.9C116.9,2421.7,109.7,2433.2,102.4,2444.8z M545.5,858.4
	c4.5,5.2,15.1,8.3,21.9,6.7c0.3-0.1,0.3-0.5,0-0.6c-4.2-0.7-7.8-1.4-11.5-2.1c-0.1,0-0.2-0.1-0.2-0.2c-0.9-5.9-5.3-4.3-9.9-4.3
	C545.5,857.9,545.4,858.2,545.5,858.4z M186.1,2326.1c-3.4-0.1-11.7,10.7-11.8,16.2C178.3,2336.5,186,2334.2,186.1,2326.1z
	 M339.1,1124.2c0.5-0.3,1.1-0.6,1.6-0.9c-5.5-9.9-11-19.7-16.5-29.6c-0.4,0.2-0.9,0.5-1.3,0.7
	C328.3,1104.4,333.7,1114.3,339.1,1124.2z M595.6,1353.3c0.4-0.3,0.9-0.5,1.3-0.8c-4.8-8.5-9.5-17-14.3-25.5
	c-0.5,0.3-1.1,0.6-1.6,0.9C585.9,1336.4,590.8,1344.9,595.6,1353.3z M548.8,1806.5c-0.4-0.2-0.9-0.4-1.3-0.6
	c-3.6,5.7-7.1,11.3-11.1,17.7c-0.3,1.7-0.8,4.6-1.3,7.5c0.2,0.1,0.4,0.2,0.6,0.3C540.1,1823.1,544.5,1814.8,548.8,1806.5z
	 M655.4,1849.1c0.7,0.4,1.4,0.7,2,1.1c3.9-7.1,7.7-14.3,11.6-21.4c-0.7-0.4-1.4-0.7-2.1-1.1C663.2,1834.8,659.3,1842,655.4,1849.1z
	 M420.8,1260.2c-0.4,0.3-0.9,0.5-1.3,0.8c4.8,7.8,9.7,15.5,14.5,23.3C433.3,1274,425.5,1268.1,420.8,1260.2z M475.6,1867.7
	c-6.1,5-7.6,9.7-5.1,15.8C476.7,1879.7,472.5,1872.5,475.6,1867.7z M298,2148.7c0.4,0.2,0.8,0.4,1.3,0.6c1.6-2.2,3.5-4.3,4.5-6.7
	c0.4-1.1-1.1-3-1.8-4.5c-1.2,0.7-2.7,1.2-3.4,2.2c-1.3,1.8-2.2,3.9-3.9,6.9c1.8-1,2.7-1.5,4-2.3
	C298.4,2146.3,298.2,2147.5,298,2148.7z M448.4,1870.9c0.5,0.1,0.9,0.2,1.4,0.3c1.2-4.7,2.5-9.4,3.7-14.2c-2.1,0.7-3.3,2-4.4,3.4
	c-1.2,1.5-2.3,3.1-3.6,4.9C446.3,1866.9,447.3,1868.9,448.4,1870.9z M597.6,1815c7.9-5.5,11.2-11.9,9.2-16.9
	C603.6,1803.9,600.6,1809.4,597.6,1815z M380.7,1206.2c-0.4,0.2-0.8,0.4-1.2,0.7c4.9,8.3,9.8,16.6,14.7,24.9
	c0.5-0.3,1.1-0.6,1.6-0.9C390.7,1222.6,385.7,1214.4,380.7,1206.2z M130.8,2399.9c0.5,0.3,0.9,0.6,1.4,0.8
	c5.6-8.7,11.1-17.4,16.7-26.1c-0.4-0.3-0.9-0.6-1.3-0.9C142,2382.5,136.4,2391.2,130.8,2399.9z M1352.8,2210.1
	c0.4-0.5,0.7-0.9,1.1-1.4c-7.1-4.9-14.2-9.8-21.3-14.8c-0.4,0.5-0.8,1.1-1.1,1.6C1338.6,2200.4,1345.7,2205.3,1352.8,2210.1z
	 M482,1944.7c6.4-6.3,9.9-13.2,9.1-17.5C488.4,1928.3,484.2,1936.2,482,1944.7z M456.5,1882.3c6.4-0.3,11.2-7.2,8.4-12
	C462.2,1874.2,459.5,1878,456.5,1882.3z M538.8,1836.8c0.4,0.2,0.8,0.4,1.3,0.7c3.7-7.1,7.4-14.2,11.1-21.4c-0.5-0.3-1-0.5-1.5-0.8
	C547.3,1823.1,539.6,1828.1,538.8,1836.8z M556.8,1448.6c0.4-0.3,0.9-0.6,1.3-1c-5-7-10.1-13.9-15.1-20.9c-0.5,0.4-1,0.7-1.5,1.1
	C546.7,1434.8,551.7,1441.7,556.8,1448.6z M511.9,1405.6c-0.5,0.4-1,0.7-1.4,1.1c5.2,7.2,10.3,14.4,15.5,21.6c0.3-0.2,0.7-0.5,1-0.7
	C521.9,1420.3,516.9,1413,511.9,1405.6z M728.2,1399.5c0.6,0.3,1.2,0.5,1.8,0.8c3.5-6.8,6.9-13.6,10.4-20.4
	c-0.5-0.3-1.1-0.5-1.6-0.8C735.3,1385.8,731.7,1392.7,728.2,1399.5z M877,1842.9c1.4,4.7,11.8,14.4,15.3,14.1c-0.5,0.5-1,1-1.5,1.4
	C886.1,1853.2,881.4,1847.9,877,1842.9z M361.7,2049.8c0.7,0.1,1.5,0.2,2.2,0.3c1.7-3.1,3.5-6.2,5.2-9.3c-3.2,0.2-6.1,0.6-7.2,2.3
	C360.9,2044.8,361.7,2047.6,361.7,2049.8z M1265.5,866.6c0,0.4,0.1,0.8,0.1,1.2c10.1-0.9,20.1-1.8,30.2-2.7c0-0.5-0.1-1-0.1-1.5
	C1285.6,864.6,1275.6,865.6,1265.5,866.6z M448.3,1306.7c0.5-0.3,1.1-0.7,1.6-1c-4.2-6.5-8.3-13-12.5-19.5c-0.4,0.2-0.8,0.5-1.2,0.7
	C440.2,1293.5,444.2,1300.1,448.3,1306.7z M342,2105.7c-0.3-0.2-0.5-0.5-0.8-0.7c-1.4,1.5-2.8,2.9-4.2,4.4c-1-0.9-2-1.7-2.9-2.6
	c-0.6,0.1-1.2,0.3-1.8,0.4c0.2,2.8,0.5,5.5,0.7,8.3c0.6,0.1,1.2,0.2,1.8,0.3C337.2,2112.5,339.6,2109.1,342,2105.7z M361.8,2068.6
	c2.9-4.8,5.3-8.7,8.2-13.6C362.8,2058.2,359.9,2062.8,361.8,2068.6z M558.5,1808.5c0.5,0.2,0.9,0.5,1.4,0.7
	c4-7.9,8.1-15.8,12.1-23.6c-0.5-0.2-0.9-0.5-1.4-0.7C566.5,1792.8,562.5,1800.6,558.5,1808.5z M465.6,1970.3c-0.5-0.8-1-1.5-1.5-2.3
	c-2.3,1.2-4.8,2.2-6.7,3.9c-0.8,0.8-0.1,3.1-0.1,6.1C461,1974.5,463.3,1972.4,465.6,1970.3z M599.1,1631.8c-0.6-0.4-1.3-0.8-1.9-1.1
	c-3.3,5.6-6.6,11.2-9.9,16.8c0.4,0.2,0.8,0.5,1.2,0.7C592,1642.7,595.5,1637.3,599.1,1631.8z M530.1,854.6c-0.3-0.1-0.5,0.3-0.3,0.5
	c2.2,2.7,3.7,5.5,5.8,6.1c1.4,0.4,3.7-2.2,5.7-3.9c0.2-0.2,0.1-0.5-0.1-0.5C537.8,856,534.3,855.3,530.1,854.6z M1203,861.4l0,3
	c2.7,0.1,5.5,0.2,8.2,0.3c-0.3-1.3-0.5-3.7-0.9-3.8C1207.9,860.8,1205.4,861.2,1203,861.4z M909.3,1423.9c-6.8,1.6-8.4,4.7-5.7,9.2
	C905.6,1429.9,907.5,1426.9,909.3,1423.9z M489.2,1863c0.2,0.5,0.3,1.1,0.5,1.6c1.3-0.3,3.3-0.1,3.8-0.9c1.9-2.9,3.4-6,5.5-10.2
	C492.4,1854.4,493.6,1861.6,489.2,1863z M481,1865.5c0.4,0.1,0.8,0.3,1.3,0.4c1.5-2.4,2.7-5,4.5-7.3c2.2-2.9,1.3-4.3-2-5.5
	C483.4,1857.4,482.2,1861.5,481,1865.5z M330.8,2099.7c-0.5-0.3-1-0.6-1.5-1c-3.3,5-6.7,10-10,15c0.6,0.4,1.1,0.7,1.7,1.1
	C324.3,2109.8,327.6,2104.7,330.8,2099.7z M1297.3,855.9c-0.1-0.6-0.3-1.3-0.4-1.9c-4.2,2.9-10.4-5.4-13.8,3.5
	C1288,856.9,1292.6,856.4,1297.3,855.9z M492.5,1989.8c0.5,0.3,1,0.7,1.5,1c3-4.9,6.1-9.9,9.1-14.8c-0.5-0.3-0.9-0.6-1.4-0.8
	C498.7,1980,495.6,1984.9,492.5,1989.8z M339.9,2206.7c-0.5-0.3-1-0.6-1.5-1c-3.2,4.8-6.5,9.6-9.7,14.4c0.5,0.4,1.1,0.7,1.6,1.1
	C333.5,2216.4,336.7,2211.5,339.9,2206.7z M1289.6,2196.1c0.5-0.5,0.9-1.1,1.4-1.6c-2.1-2.1-4.1-4.3-6.3-6.3c-0.4-0.3-2.1,0-2.4,0.6
	c-0.4,0.7-0.4,2.3,0.1,2.7C1284.7,2193.2,1287.2,2194.6,1289.6,2196.1z M498.4,1160.4c0.5-0.3,1.1-0.5,1.6-0.8
	c-2.6-5.4-5.1-10.8-7.7-16.2c-0.4,0.2-0.9,0.4-1.3,0.6C493.6,1149.5,496,1155,498.4,1160.4z M520.5,1204.5c-0.4,0.2-0.9,0.4-1.3,0.6
	c2.8,5.6,5.6,11.1,8.4,16.7c0.4-0.2,0.8-0.4,1.2-0.6C526,1215.6,523.2,1210.1,520.5,1204.5z M411.9,1248.7c0.5-0.2,1.1-0.4,1.6-0.5
	c-3.2-5.2-6.5-10.5-9.7-15.7c-0.4,0.3-0.9,0.5-1.3,0.8C405.6,1238.4,408.7,1243.6,411.9,1248.7z M518,1763.7
	c-0.5-0.3-1.1-0.5-1.6-0.8c-2.7,4.5-5.3,8.9-8,13.4c0.5,0.3,1,0.6,1.4,0.9C512.6,1772.6,515.3,1768.2,518,1763.7z M1222.9,865.5
	c0,0.4-0.1,0.8-0.1,1.2h13.6c0-0.2,0-0.4,0-0.6C1227.9,865.7,1231.3,865.9,1222.9,865.5z M822.1,1568.3c-0.4-0.3-0.9-0.5-1.3-0.8
	c-2.4,5.1-4.8,10.1-7.3,15.2c0.6,0.3,1.2,0.6,1.9,0.9C817.6,1578.5,819.8,1573.4,822.1,1568.3z M363,1166.3c0.5-0.3,0.9-0.5,1.4-0.8
	c-2.9-5-5.7-9.9-8.6-14.9c-0.5,0.3-1,0.6-1.4,0.8C357.2,1156.4,360.1,1161.4,363,1166.3z M548.2,1261.7c-0.4,0.2-0.9,0.4-1.3,0.6
	c2.9,5.3,5.8,10.7,8.7,16c0.4-0.2,0.8-0.4,1.2-0.7C554,1272.4,551.1,1267,548.2,1261.7z M450.2,2067.1c0.4,0.3,0.8,0.5,1.2,0.8
	c3.2-5.1,6.4-10.1,9.5-15.2c-0.4-0.2-0.8-0.5-1.2-0.7C456.5,2057,453.3,2062.1,450.2,2067.1z M334.8,1129c0.5-0.3,1-0.5,1.4-0.8
	c-2.5-4.6-5-9.2-7.5-13.7c-0.5,0.3-0.9,0.5-1.4,0.8C329.8,1119.8,332.3,1124.4,334.8,1129z M659.1,1807c-0.4-0.2-0.8-0.5-1.2-0.7
	c-3.2,5.4-6.3,10.8-9.5,16.2c0.4,0.2,0.8,0.5,1.2,0.7C652.7,1817.7,655.9,1812.4,659.1,1807z M395.7,1958.7c0.5,0.4,1,0.7,1.5,1.1
	c3.2-4.4,6.3-8.7,9.5-13.1c-0.5-0.3-0.9-0.7-1.4-1C402,1950,398.9,1954.3,395.7,1958.7z M365.6,1180c-0.4,0.3-0.9,0.5-1.3,0.8
	c3.1,5.2,6.2,10.5,9.3,15.7c0.4-0.2,0.8-0.5,1.2-0.7C371.7,1190.5,368.6,1185.3,365.6,1180z M959.3,1909.4c-0.4,0.4-0.8,0.8-1.2,1.1
	c3.8,4.1,7.7,8.2,11.5,12.2c0.4-0.4,0.8-0.8,1.2-1.1C967,1917.5,963.2,1913.5,959.3,1909.4z M458.5,1322.5c0.7-0.3,1.4-0.7,2-1
	c-3.1-4.3-6.2-8.5-9.3-12.8c-0.3,0.2-0.6,0.4-0.9,0.6C453,1313.7,455.8,1318.1,458.5,1322.5z M518.3,1855.6c3.8-3.3,6.7-7.1,8-11.7
	c-0.6-0.3-1.2-0.6-1.7-0.8C522.4,1847.2,520.3,1851.4,518.3,1855.6z M395.2,2069.9c6.4-4.7,7.9-8.7,4.5-10.7
	C398.4,2062.4,397,2065.5,395.2,2069.9z M698.4,1777.3c-6.2,3.6-8.2,7.4-6.4,10.1c1.1-1.4,2.4-2.7,3.3-4.2
	C696.4,1781.8,697.1,1780.1,698.4,1777.3z M167.3,2353.2c-0.4-0.3-0.9-0.6-1.3-0.8c-2.8,4.5-5.6,9.1-8.4,13.6
	c0.6,0.3,1.1,0.6,1.7,0.9C161.9,2362.4,164.6,2357.8,167.3,2353.2z M291.5,2172.5c0.6,0.3,1.3,0.7,1.9,1c2.1-3.7,4.1-7.3,6.2-11
	c-0.5-0.3-1-0.5-1.5-0.8C295.9,2165.3,293.7,2168.9,291.5,2172.5z M233.1,959.2c0.4-0.2,0.9-0.3,1.3-0.5c-2-4.7-3.9-9.4-5.9-14.1
	c-0.4,0.2-0.9,0.4-1.3,0.5C229.2,949.9,231.2,954.5,233.1,959.2z M447.1,1992.7c6.1-2.7,8.5-6.1,9.1-11.5
	C453.6,1984.5,450.7,1988.2,447.1,1992.7z M404.7,1245.9c-0.4,0.3-0.8,0.6-1.2,0.9c2.7,4.3,5.4,8.7,8.1,13c0.4-0.3,0.9-0.6,1.3-0.8
	C410.1,1254.6,407.4,1250.2,404.7,1245.9z M313.2,1088.3c0.3-0.2,0.6-0.4,0.9-0.7c-2.5-4.7-5.1-9.3-7.6-14c-0.3,0.2-0.6,0.3-0.9,0.5
	C308.1,1078.9,310.7,1083.6,313.2,1088.3z M389.5,2082.8c1.7-4.5,3-8,4.3-11.4c-0.3-0.1-0.6-0.2-1-0.3c-1.5,2.1-3.1,4.2-5,6.8
	C387.9,2078.3,388.5,2079.9,389.5,2082.8z M476.3,1889.2c-7.3,3-8.1,4.2-6.3,8.8C472.1,1895.2,474,1892.5,476.3,1889.2z M619.1,1877
	c-0.5-0.3-0.9-0.6-1.4-0.9c-2.7,4.4-5.4,8.8-8.1,13.1c0.4,0.3,0.8,0.5,1.2,0.8C613.6,1885.7,616.3,1881.4,619.1,1877z M316,2145.9
	c-0.5-0.4-1.1-0.7-1.6-1.1c-2.5,3.6-5,7.3-7.5,10.9c0.3,0.2,0.7,0.5,1,0.7C310.6,2153,313.3,2149.5,316,2145.9z M551.6,868.2
	c0-0.4,0.1-0.7,0.1-1.1c0-0.2-0.1-0.3-0.3-0.3c-3.7-0.5-7.4-1-11.1-1.5c-0.2,0-0.3,0.1-0.3,0.3c0,0.4-0.1,0.8-0.1,1.2
	c0,0.2,0.1,0.3,0.3,0.3c3.7,0.4,7.4,0.9,11.1,1.3C551.4,868.5,551.6,868.4,551.6,868.2z M448.6,1317.4c0.4-0.2,0.8-0.4,1.2-0.7
	c-2.4-3.8-4.9-7.7-7.3-11.5c-0.4,0.3-0.8,0.5-1.2,0.8C443.7,1309.8,446.2,1313.6,448.6,1317.4z M385.8,2177.8c-0.5-0.3-1-0.7-1.6-1
	c-1.6,3.2-3.1,6.3-4.7,9.5c0.4,0.2,0.8,0.4,1.3,0.6C382.4,2183.9,384.1,2180.8,385.8,2177.8z M870.2,1820.8c0.2-0.1,0.4-0.3,0.5-0.4
	c-2.9-3.1-5.9-6.2-8.8-9.3c-0.4,0.4-0.9,0.9-1.3,1.3C863.8,1815.2,867,1818,870.2,1820.8z M581.5,1387.3c-0.1,1-0.3,1.6-0.1,2
	c1.3,2.9,2.7,5.8,4.1,8.9C587,1394.7,586.1,1392.3,581.5,1387.3z M999.6,1951c0.4-0.4,0.8-0.8,1.1-1.2c-3.2-3.1-6.4-6.1-9.6-9.2
	c-0.1,0.1-0.2,0.2-0.3,0.3C993.8,1944.3,996.7,1947.7,999.6,1951z M519.1,856.6c2-0.9,3.7-1.8,5.8-2.8c0.3-0.1,0.2-0.5-0.1-0.6
	c-2.8-0.3-5.4-0.7-8.9-1.1c-0.3,0-0.4,0.3-0.3,0.5c1.6,1.9,2.4,3,3.1,3.9C518.8,856.6,519,856.6,519.1,856.6z M564,1291.3
	c-0.5,0.3-1.1,0.5-1.6,0.8c1.9,3.3,3.7,6.6,5.6,10c0.4-0.2,0.8-0.4,1.1-0.6C567.4,1298.1,565.7,1294.7,564,1291.3z M535.9,1904.9
	c4.2-1.6,5.9-4.5,5-9.8C538.9,1899,537.4,1901.9,535.9,1904.9z M413.4,1973.1c-5.3,2-5.7,3.1-3.7,7.4
	C411,1977.9,412.2,1975.5,413.4,1973.1z"/>
<path fill="#FFFFFF" stroke="#FFFFFF" stroke-miterlimit="10" d="M613.4,76.4c-5.2,3.7-5.4,9.9-7.6,15.1c-1,2.4-2.4,4.6-3.9,7.5
	c-0.3,1.5-0.5,3.8-1.3,6c-5.9,16.5-12,32.9-18,49.4c-2.5,6.8-4.8,13.7-7.2,20.9c-0.7-0.6-1.3-1.1-2.1-1.8
	c-6.2,17.3-12.3,34.5-18.4,51.7c-0.5-0.1-0.9-0.3-1.4-0.4c1.1-4,2.1-8,3.4-11.9c6.7-19.3,13.3-38.6,20.2-57.7
	c7.6-21.1,15.5-42,23.3-63.1c1.4-3.7,2.3-7.6,4-11.2c1.1-2.4,3.1-4.3,5.1-7.2c-1.9-2.5-1.7-5.5,2-6.6c0.5-3.5,0.4-6.4,1.4-9
	c5.2-14,10.6-27.9,16-41.8c2-5,4.3-9.9,6.6-15.4c4.6,5.8,1,10.6-0.6,15.4c-2,6-4.5,11.9-6.7,17.8c0.6,0.3,1.2,0.5,1.7,0.8
	c3.2-7.3,6.4-14.6,9.6-21.9c0.4,0.2,0.8,0.3,1.2,0.5c-0.5,2-1.1,4.1-1.6,6.1c0.2,0.1,0.5,0.1,0.7,0.2c3.3-6.3,6.6-12.6,9.9-18.9
	c0.6,0.2,1.2,0.4,1.7,0.7c-1.6,4.7-3.2,9.4-4.8,14c0.3,0.1,0.7,0.3,1,0.4c2.2-4.4,4.3-8.8,6.5-13.2c0.6-0.1,1.2-0.1,1.8-0.2
	c0.4,1.6,0.9,3.2,1,4.8c0.2,1.6-0.6,4,0.2,4.6c4.4,3.3,2.3,6.9,1.1,10.6c-0.4,1.2-0.5,2.5,0.1,4.3c1.1-1.4,2.3-2.8,3.4-4.1
	c0.4,0.1,0.7,0.2,1.1,0.2c-1.3,5.8-2.6,11.7-3.9,17.5c0.3,0.1,0.7,0.2,1,0.2c2-3.4,3.9-6.9,5.9-10.3c0.5,0.1,1,0.2,1.5,0.4
	c-0.2,3.1-0.6,6.3-0.7,9.4c-0.1,2.7-4,6.1,1,8c2.7,1,5.5,1.6,9,2.5c-0.4,1.3-1,3.7-1.7,5.9c-1.2,3.7-0.9,5.8,4.5,3.9
	c-0.9,5.8-1.7,11-2.6,16.6c7.2-1.8,7.1-1.8,8,4.8c0.5,3.4,1.5,6.7,2.2,9.8c2.3-1.4,4.4-2.6,6.5-3.9c0.5,0.4,1,0.7,1.4,1.1
	c-0.5,2.4-1.1,4.8-1.7,7.6c3.4,0.9,4,3.4,3.2,7c-0.9,3.7-2.7,7.8,2.6,10.4c0.9,0.4,0.1,4.1,0.1,7c0.4,0.3,1.6,1,1.7,1
	c0,17.2,0,33.7,0,50.1c0.4,0.1,0.8,0.1,1.3,0.2c0.7-3.6,1.3-7.2,2-10.7c1.8,1.9,3.5,3.6,5.7,5.8c-0.2,1-0.3,3-0.9,4.9
	c-2.2,6.9-0.2,12.8,4.4,18.1c0.8,0.9,0.8,2.6,1.1,4c0.2,1.1,0.3,2.3,0.6,4.7c2.5-4.7,4.3-8.2,6.1-11.6c0.5,0,1.1,0,1.6,0
	c0.7,4.1,1.4,8.2,2.2,12.8c3.1-1.6,5.9-3,8.9-4.5c0.3,0.5,0.9,0.9,1,1.5c1.8,8.2,3.7,16.3,5.3,24.5c0.5,2.6,1.7,4.2,3.5,6.3
	c2.4,2.8,2.3,7.7,3.5,11.6c1.4,4.8,3.3,9.4,4.3,14.2c0.6,2.7-0.3,5.8-0.6,9c0.7-0.1,1.8-0.3,3.3-0.6c0.9,17.3,1.8,34.4,2.8,51.9
	c2.5-0.4,3.5-0.6,4.7-0.8c0,0.5,0.2,1,0.1,1.3c-4.4,10.3-1.1,20.6-0.2,30.9c0.5,5.3,0.7,10.7,1.7,15.9c1.3,7.1,3.3,14.1,4.9,21.2
	c1.1,4.9,2,9.9,2.9,14.8c0.5,2.6,0.7,5.4,1.4,7.9c4,15.1,7.9,30.1,12.1,45.1c3.7,13.4,7.4,26.8,11.7,40c1.2,3.6,5,6.3,7.2,9.7
	c2.6,3.8,4.6,8,7.3,11.8c3.9,5.3,8.2,10.3,12.4,15.5c0.5,0.6,1.4,1.1,1.7,1.8c1.4,3.5,4.3,7.5,3.5,10.5c-1.2,4.5-9.4,5.9-14.4,4.1
	c-4.1-1.5-8.4-2.4-13.4-3.8c-0.1,2.7,0.2,4.5-0.4,5.8c-1.2,2.3-2.7,4.5-4.7,6.1c-0.6,0.5-3.2-0.7-4.4-1.7c-5.7-4.5-11-9.6-16.9-13.8
	c-2.8-2-6.6-2.9-10.1-3.8c-18.3-4.9-31.2-17-41.8-31.8c-3.8-5.3-6.8-5.7-10.2,0.2c-2.5,4.3-5.5,4.3-9.6,3.4
	c-3.6-0.9-7.5-0.9-11.1-1.6c-1.7-0.3-3.4-1.1-5-1.9c-3.6-1.8-7.3-3.6-10.8-5.5c-1.2-0.7-2.1-2-3.4-2.6c-2.8-1.4-5.7-2.6-8.5-3.7
	c-2.1-0.8-4.3-1.1-6.3-2.1c-2.1-1-3.8-3.1-5.9-3.6c-6.1-1.7-9.1-6.4-11.9-11.3c-0.5-0.9-1.2-2.3-2-2.4c-7.8-1.3-15.8-1.8-23.4-3.6
	c-8.3-2-17.3-0.6-25.1-5.5c-3.9-2.4-9.1-2.5-13.6-4.2c-8.8-3.2-17.5-6.5-26-10.4c-3.9-1.8-6.3-5.5-6.3-10.1c0-4.3-2.1-6.7-5.7-9
	c-15.5-10.4-21.5-25.8-22.1-43.9c-0.6-17.5,1.8-34.6,6-51.4c5.7-23.2,12.6-46.1,19.2-69.1c3.3-11.3,7.3-22.3,10.9-33.5
	c0.7,0,1.4-0.1,2-0.1c0,1.2,0.2,2.4,0,3.6c-0.9,4.5-1.8,9-2.9,13.5c-1.2,5.1-1.6,10.8-4.5,14.8c-1.5,2.1-4.3,3.9-4.8,6.8
	c-0.7,4.1-0.7,8.3-1.2,12.5c-0.1,0.9-0.6,1.7-1,2.5c-0.3,0.5-1.2,0.8-1.3,1.4c-1.9,6.2-3.7,12.5-5.6,19.1c2.5,1.2,3.8-0.1,4.7-3
	c5-16.7,9.8-33.4,15.3-50c7.2-21.7,15-43.2,22.5-64.8c2.1-6,4.1-11.9,6.2-17.9c0.3-0.9,0.9-1.7,2.3-2.2c-0.5,1.5-0.9,3.1-1.4,4.6
	c0.4,0.2,0.8,0.3,1.2,0.5c0.6-1.8,2-3.9,1.5-5.4c-2.3-6.6,2.2-11.9,3.5-17.7c1.9-8.3,5.3-16.4,8.5-24.4c2.4-5.9,5.6-11.5,7.9-17.5
	c1.4-3.5,1.7-7.4,2.5-11.1c0.5,0.1,1.1,0.2,1.6,0.3c-0.2,2.3-0.5,4.6-0.7,6.8c2.3-4.1,4.9-8.1,3.6-13.1c-0.9-3.5-0.7-3.8,2.7-5.6
	c0.6-0.3,1-1.8,0.8-2.6C614.7,78.8,613.9,77.6,613.4,76.4c3.4-6.5,6.9-12.9,10.4-19.3c1.2-1.6,2.3-3.3,2.6-5
	c0.4-2.6-0.1-5.2,0.2-7.8c0.2-1.6,1-3.1,1.6-4.7c-0.5-0.2-1-0.3-1.4-0.5c-2.8,6.8-5.7,13.6-8.2,20.5C616.5,65,615,70.7,613.4,76.4z"
	/>
<path fill="#FFFFFF" stroke="#FFFFFF" stroke-miterlimit="10" d="M344.8,1186.9c-2.1-3.6-3.9-7.3-6.3-10.7c-1.5-2.1-3.8-3.5-5.6-5.4
	c-0.9-0.9-1.9-2.2-1.9-3.3c-0.2-6.5-4-11.2-7.3-16.3c-3.4-5.3-5.8-11.2-8.9-16.7c-1.1-1.9-3-3.4-4.2-5.3c-1.2-1.8-2-3.9-2.8-6
	c-0.7-1.8-0.7-4.1-1.8-5.5c-6.4-8.6-10.3-18.5-14.8-28.1c-2.1-4.4-8.2-6.8-6.9-13.3c0.1-0.6-2.3-1.6-3.5-2.5
	c-1.6-1.3-3.5-2.7-0.6-4.6c0,0-0.1-0.1-0.1-0.1c3.3,3.6,6.5,7.1,9.8,10.7c0.4-0.3,0.9-0.5,1.3-0.8c-2.4-5-4.7-10.1-7.1-15.1
	c0.5-0.2,0.9-0.4,1.4-0.7c22.7,41.8,45.4,83.6,68.2,125.4c-0.5,0.3-1,0.6-1.4,0.8c-8.8-15.5-17.7-31-26.4-46.6
	c-8.7-15.7-17.3-31.4-25.9-47.2c-0.7,0.3-1.3,0.7-2,1c2.3,4.4,4.6,8.7,6.9,13.1c6,11.6,11.8,23.2,17.9,34.7c3,5.7,6.7,10.9,10,16.5
	c4.1,6.8,8.1,13.6,11.9,20.6C345.5,1183,344.8,1185.1,344.8,1186.9C344.8,1186.8,344.8,1186.9,344.8,1186.9z"/>
<path fill="#FFFFFF" stroke="#FFFFFF" stroke-miterlimit="10" d="M1263,920.6c0,0,0.1-0.5,0.1-0.5c1.5,0.3,3,0.6,4.7,0.9
	c2.3-4.6,2.8-4.7,5.9-2c3.5-0.3,6.2-1.1,8.7-0.7c4.5,0.8,8.9,2.5,13.4,3.5c1.7,0.4,3.6-0.2,5.5-0.3c2.4-0.2,4.9-0.6,7.3-0.4
	c11.5,0.8,23,1.7,34.5,2.6c0.8,0.1,1.5,0.4,2.2,1c-6.6,1-13.9-1.5-20.1,4.9c6,0,11.2,2.3,16-1.4c0.3-0.3,1-0.4,1.4-0.3
	c5.5,1.1,11.1,2.2,16.6,3.4c-0.1,0.8,0,0.5-0.1,1.3c-9.7,0.5-19.4,1.4-29.1,1.2c-10.3-0.2-20.5-1.8-30.7-2.4
	c-9.8-0.6-19.7-0.9-29.6-1.3c-0.1-0.8,0-0.5-0.1-1.4c3.2-0.5,6.5-1.1,9.7-1.6c0.2-1,0.2-1,0.3-2c-3.7-1.8-7.7-1.9-11.5-0.7
	C1264,925.9,1262.9,924.3,1263,920.6z"/>
<path fill="#FFFFFF" stroke="#FFFFFF" stroke-miterlimit="10" d="M304.5,1091.1c-23.8-42.7-43.5-87.3-63.8-131.7
	c0.3-0.3,0.7-0.7,1-1c1.3,1.3,3.2,2.4,3.9,4c3.8,8.5,7,17.2,10.9,25.6c6.4,13.7,13.1,27.1,19.7,40.7c5.5,11.4,10.7,23,16.3,34.3
	c3.9,7.8,8.3,15.4,12.3,23.2c0.7,1.3,0.9,2.8,1.3,4.2C305.6,1090.7,305,1090.9,304.5,1091.1z"/>
<path fill="#FFFFFF" stroke="#FFFFFF" stroke-miterlimit="10" d="M410.2,1285c-18.9-30.5-38.2-60.8-55.8-92.1c0.5-0.3,1-0.6,1.5-0.9
	c18.6,30.7,37.2,61.4,55.8,92.1C411.2,1284.4,410.7,1284.7,410.2,1285z"/>
<path fill="#FFFFFF" stroke="#FFFFFF" stroke-miterlimit="10" d="M344.8,1186.9C344.8,1186.9,344.8,1186.8,344.8,1186.9
	c3.9,5.4,8.1,10.6,11.7,16.3c5.6,8.8,10.7,17.8,16,26.7c0.4,0.6,0.7,1.3,1.1,2c-0.5,0.3-1,0.6-1.5,0.9c-9.7-15.5-19.5-31-29.1-46.3
	C343.3,1186.5,344,1186.7,344.8,1186.9z"/>
<path fill="#FFFFFF" stroke="#FFFFFF" stroke-miterlimit="10" d="M414.1,1286.8c9.6,15,19.3,30.1,28.9,45.1c-0.5,0.3-1,0.6-1.5,0.9
	c-9.9-14.9-19.7-29.8-29.6-44.7C412.7,1287.7,413.4,1287.2,414.1,1286.8z"/>
<path fill="#FFFFFF" stroke="#FFFFFF" stroke-miterlimit="10" d="M1164.9,921.9c-8.4-0.2-17,0.2-25-3.5c0.2-0.9,0.2-0.6,0.4-1.5
	c8.3,1,16.6,2,24.8,3L1164.9,921.9z"/>
<path fill="#FFFFFF" stroke="#FFFFFF" stroke-miterlimit="10" d="M375.8,1235.3c5.7,7.5,8.9,16.5,14.6,24c-0.6,0.4-1.3,0.8-1.9,1.2
	c-4.9-7.9-9.8-15.8-14.7-23.7C374.5,1236.3,375.1,1235.8,375.8,1235.3z"/>
<path fill="#FFFFFF" stroke="#FFFFFF" stroke-miterlimit="10" d="M423.1,1311c3.8,5.9,7.7,11.8,11.5,17.7
	c-8.7-2.7-8.5-11.3-13.5-16.5C421.8,1311.8,422.5,1311.4,423.1,1311z"/>
<path fill="#FFFFFF" stroke="#FFFFFF" stroke-miterlimit="10" d="M339.2,1155.1c-3.6-6.1-7.2-12.2-10.9-18.3
	c0.6-0.4,1.2-0.7,1.8-1.1c3.6,6.1,7.3,12.2,10.9,18.3C340.5,1154.4,339.9,1154.8,339.2,1155.1z"/>
<path fill="#FFFFFF" stroke="#FFFFFF" stroke-miterlimit="10" d="M458.4,1355.2c-3.8-4.8-7.7-9.6-11.4-14.5c-1-1.3-1.5-2.9-2.2-4.4
	c0.5-0.3,1-0.5,1.5-0.8C450.3,1342.1,454.3,1348.7,458.4,1355.2L458.4,1355.2z"/>
<path fill="#FFFFFF" stroke="#FFFFFF" stroke-miterlimit="10" d="M455.6,1360.9c6.1,5.1,8.1,13,12.7,19.2c-0.4,0.3-0.8,0.5-1.2,0.8
	c-4.2-6.4-8.4-12.8-12.7-19.2C454.9,1361.4,455.2,1361.1,455.6,1360.9z"/>
<path fill="#FFFFFF" stroke="#FFFFFF" stroke-miterlimit="10" d="M524.6,1451.5c-2.2-6.9-9.8-9.9-12.3-16.7c0.5-0.4,1.1-0.8,1.6-1.2
	c4.2,5.5,8.3,11,12.5,16.5C525.9,1450.6,525.3,1451.1,524.6,1451.5z"/>
<path fill="#FFFFFF" stroke="#FFFFFF" stroke-miterlimit="10" d="M543.3,1474.2c-5.5-6.6-11.1-13.2-16.6-19.8c0.7-0.5,1.3-1,2-1.5
	C533.6,1460.1,538.4,1467.2,543.3,1474.2L543.3,1474.2z"/>
<path fill="#FFFFFF" stroke="#FFFFFF" stroke-miterlimit="10" d="M481.8,1391.6c-4.2-5.9-8.4-11.8-12.6-17.7c0.5-0.4,1-0.8,1.5-1.1
	c4.2,5.9,8.3,11.8,12.5,17.7C482.8,1390.8,482.3,1391.2,481.8,1391.6z"/>
<path fill="#FFFFFF" stroke="#FFFFFF" stroke-miterlimit="10" d="M1140.7,945.2c-2.6,0.9-4.5,1.6-6.8,2.4c-0.7-1.1-1.5-2.5-2.6-4.1
	l4.3-4C1137.3,941.5,1138.9,943.3,1140.7,945.2z"/>
<path fill="#FFFFFF" stroke="#FFFFFF" stroke-miterlimit="10" d="M1221.2,919.4c1-0.1,2-0.1,3-0.2c7.5-0.8,8.3-0.1,9.6,7.5
	c-0.3,0.1-0.9,0.3-0.9,0.3C1230.8,921.7,1225.5,921.2,1221.2,919.4C1221.3,919.3,1221.2,919.4,1221.2,919.4z"/>
<path fill="#FFFFFF" stroke="#FFFFFF" stroke-miterlimit="10" d="M490.6,1400.8c3.7,5.3,7.5,10.6,11.2,15.9c-0.5,0.3-1,0.7-1.4,1
	c-3.8-5.3-7.5-10.5-11.3-15.8C489.6,1401.6,490.1,1401.2,490.6,1400.8z"/>
<path fill="#FFFFFF" stroke="#FFFFFF" stroke-miterlimit="10" d="M569.4,1519.5c-3.3-4.4-6.6-8.8-9.9-13.3c0.4-0.3,0.9-0.7,1.3-1
	c3.3,4.4,6.6,8.9,9.9,13.3C570.3,1518.8,569.9,1519.1,569.4,1519.5z"/>
<path fill="#FFFFFF" stroke="#FFFFFF" stroke-miterlimit="10" d="M1146.3,914.6c4-3.5,8.3-1.9,12.5,0H1146.3z"/>
<path fill="#FFFFFF" stroke="#FFFFFF" stroke-miterlimit="10" d="M583.6,1536.5c-3.4-3.8-6.9-7.6-10.3-11.4c0.5-0.4,1.1-0.9,1.6-1.3
	c3.2,4,6.4,8,9.6,12.1C584.2,1536,583.9,1536.2,583.6,1536.5z"/>
<path fill="#FFFFFF" stroke="#FFFFFF" stroke-miterlimit="10" d="M458.3,1355.3c3,4,6,8,9,12c-0.4,0.3-0.8,0.6-1.3,0.9
	C462.8,1364.2,458.7,1361,458.3,1355.3C458.4,1355.2,458.3,1355.3,458.3,1355.3z"/>
<path fill="#FFFFFF" stroke="#FFFFFF" stroke-miterlimit="10" d="M555.3,1488.7c2.4,2.8,4.9,5.6,7.3,8.5c-0.5,0.5-1.1,0.9-1.6,1.4
	c-2.4-2.8-4.8-5.7-7.2-8.5C554.2,1489.6,554.7,1489.1,555.3,1488.7z"/>
<path fill="#FFFFFF" stroke="#FFFFFF" stroke-miterlimit="10" d="M452.7,1336.6c2,2.7,4.1,5.4,6.1,8.1c-0.5,0.4-1,0.8-1.5,1.2
	c-2.1-2.7-4.2-5.3-6.3-8C451.6,1337.5,452.1,1337,452.7,1336.6z"/>
<path fill="#FFFFFF" stroke="#FFFFFF" stroke-miterlimit="10" d="M593.4,1538.2c-3.1-2.9-6.1-5.8-9.2-8.7c0.7-0.6,1.3-1.1,2-1.7
	C588.5,1531.3,590.9,1534.8,593.4,1538.2C593.3,1538.3,593.4,1538.2,593.4,1538.2z"/>
<path fill="#FFFFFF" stroke="#FFFFFF" stroke-miterlimit="10" d="M547.5,1486.3c1.6,2.8,3.2,5.5,4.8,8.3c-0.2,0.2-0.5,0.4-0.7,0.6
	c-2.1-2.4-4.2-4.8-6.3-7.2C546,1487.5,546.7,1486.9,547.5,1486.3z"/>
<path fill="#FFFFFF" stroke="#FFFFFF" stroke-miterlimit="10" d="M310.9,1102.6c-1.4-2.7-2.7-5.3-4.1-8c0.6-0.3,1.2-0.6,1.7-0.9
	c1.4,2.7,2.8,5.3,4.2,8C312.1,1102,311.5,1102.3,310.9,1102.6z"/>
<path fill="#FFFFFF" stroke="#FFFFFF" stroke-miterlimit="10" d="M418.6,1308.4c-1.2-2.6-2.3-5.1-3.5-7.7c0.4-0.3,0.9-0.5,1.3-0.8
	c1.5,2.4,2.9,4.8,4.4,7.3C420,1307.6,419.3,1308,418.6,1308.4z"/>
<path fill="#FFFFFF" stroke="#FFFFFF" stroke-miterlimit="10" d="M543.3,1474.3c2.3,2.5,4.6,5,6.9,7.5c-0.7,0.5-1.4,1.1-2.2,1.6
	C546.5,1480.4,544.9,1477.3,543.3,1474.3C543.3,1474.2,543.3,1474.3,543.3,1474.3z"/>
<path fill="#FFFFFF" stroke="#FFFFFF" stroke-miterlimit="10" d="M832.3,1138.3c0.1,1.5,0.8,3.3,0.2,4.6c-3,7.5-6.2,15-9.3,22.4
	c-2.4,5.7-4.8,11.3-7.2,17c-0.7-0.3-1.5-0.6-2.2-1C820,1167,826.2,1152.7,832.3,1138.3L832.3,1138.3z"/>
<path fill="#FFFFFF" stroke="#FFFFFF" stroke-miterlimit="10" d="M799,1216.9c4.4-10.2,8.7-20.5,13.1-30.7c0.5,0.2,0.9,0.4,1.4,0.6
	c-1.6,11.5-8.8,20.7-12.9,31.1C800,1217.6,799.5,1217.2,799,1216.9z"/>
<path fill="#FFFFFF" stroke="#FFFFFF" stroke-miterlimit="10" d="M714.2,1392.2c-1.9,4.8-3.7,9.7-5.8,14.4c-2.8,6-5.8,11.9-8.8,17.8
	c-0.4-0.1-0.8-0.3-1.2-0.4c0.2-1.2,0.2-2.5,0.7-3.5c4.3-8.8,8.6-17.5,13-26.2C712.6,1393.4,713.6,1392.9,714.2,1392.2
	C714.3,1392.3,714.2,1392.2,714.2,1392.2z"/>
<path fill="#FFFFFF" stroke="#FFFFFF" stroke-miterlimit="10" d="M838.2,1121.2c3.2-8.6,6.4-17.3,9.6-25.9c0.6,0.2,1.2,0.4,1.8,0.6
	c-3,8.7-6.1,17.3-9.1,26C839.7,1121.7,838.9,1121.5,838.2,1121.2z"/>
<path fill="#FFFFFF" stroke="#FFFFFF" stroke-miterlimit="10" d="M798.4,1224.2c-3,6.7-6,13.5-9.1,20.2c-0.7-0.3-1.4-0.6-2.1-0.9
	c3-6.7,6-13.5,9-20.2C796.9,1223.5,797.6,1223.8,798.4,1224.2z"/>
<path fill="#FFFFFF" stroke="#FFFFFF" stroke-miterlimit="10" d="M792.8,882.2c4.1,0.4,8.3,0.7,12.4,1.1c0.5,0,0.8,0.5,0.8,0.9
	l0,0.4c0,0.5-0.4,0.8-0.9,0.8l-12.5-0.6c-0.5,0-0.9-0.5-0.8-0.9c0-0.3,0.1-0.6,0.1-0.9C791.9,882.5,792.3,882.2,792.8,882.2z"/>
<path fill="#FFFFFF" stroke="#FFFFFF" stroke-miterlimit="10" d="M484.6,1027.6c1.6,3.6,3.3,7.3,5.2,11.4
	C485.2,1038.1,482.8,1033.1,484.6,1027.6z"/>
<path fill="#FFFFFF" stroke="#FFFFFF" stroke-miterlimit="10" d="M778.7,1261.8c2.3-4.3,4.5-8.5,6.8-12.8c0.6,0.3,1.2,0.6,1.7,0.8
	c-2.2,4.4-4.4,8.8-6.6,13.2C780,1262.7,779.3,1262.3,778.7,1261.8z"/>
<path fill="#FFFFFF" stroke="#FFFFFF" stroke-miterlimit="10" d="M760.2,1303.4c1.9-4.1,3.8-8.1,5.7-12.2c0.6,0.3,1.3,0.6,1.9,0.9
	c-1.9,4-3.9,8-5.8,12.1C761.4,1303.9,760.8,1303.7,760.2,1303.4z"/>
<path fill="#FFFFFF" stroke="#FFFFFF" stroke-miterlimit="10" d="M832.4,1138.4c1.4-4.5,2.8-9.1,4.2-13.6
	C838.4,1128.6,835.9,1134.4,832.4,1138.4C832.3,1138.3,832.4,1138.4,832.4,1138.4z"/>
<path fill="#FFFFFF" stroke="#FFFFFF" stroke-miterlimit="10" d="M776.4,1273.9c-1.7,3.4-3.4,6.7-5.1,10.1c-0.6-0.3-1.2-0.6-1.8-0.9
	c1.5-3.4,3.1-6.9,4.6-10.3C774.9,1273.1,775.7,1273.5,776.4,1273.9z"/>
<path fill="#FFFFFF" stroke="#FFFFFF" stroke-miterlimit="10" d="M714.4,1398.7c1.5,1.7,2.1,2.4,2.7,3.1c0.9,1.2,1.8,2.3,2.7,3.5
	c-0.6,0.4-1.7,1.2-1.8,1.1c-1.4-1.3-2.8-2.6-3.9-4.1C713.8,1401.8,714.2,1400.8,714.4,1398.7z"/>
</svg>
