<svg xmlns="http://www.w3.org/2000/svg" xmlns:xlink="http://www.w3.org/1999/xlink" preserveAspectRatio="xMidYMid" width="987" height="1459" viewBox="0 0 987 1459"><defs><style>.cls-1,.cls-2,.cls-3{fill-rule:evenodd}.cls-1,.cls-2{fill:#b5b5b5}.cls-3{fill:#fff}</style><mask id="scale-mask"><path d="M-1 722s75.197-.891 249 112.5S491 1088 491 1088s-82.48 133.805-241.254 248S-1 1452-1 1452V722z" class="cls-1"/><path d="M-1 1S74.197.109 248 113.5 491 367 491 367s-82.48 133.805-241.254 248S-1 731-1 731V1z" class="cls-2"/><path d="M487 361s75.197-.891 249 112.5S979 727 979 727s-82.48 133.805-241.254 248S487 1091 487 1091s-143.108-22.814-270-109C91.399 896.691-18 748-18 748s36.93-127.5 193-254 312-133 312-133z" class="cls-3"/></mask></defs><image mask="url(#scale-mask)" width="100%" height="100%" xlink:href="img/photo-tmp2.jpeg" preserveAspectRatio="xMinYMin slice"/></svg>