<?xml version="1.0" encoding="utf-8"?>
<!-- Generator: Adobe Illustrator 22.1.0, SVG Export Plug-In . SVG Version: 6.00 Build 0)  -->
<svg version="1.1" xmlns="http://www.w3.org/2000/svg" xmlns:xlink="http://www.w3.org/1999/xlink" x="0px" y="0px"
	 viewBox="0 0 1366 518" style="enable-background:new 0 0 1366 518;" xml:space="preserve">
<style type="text/css">
	.st0{display:none;}
	.st1{display:inline;}
	.st2{fill:#FFFFFF;}
	.st3{fill:#AFAFAF;}
	.st4{fill:none;stroke:#FFFFFF;stroke-width:4;stroke-linecap:round;stroke-linejoin:round;}
	.st5{fill:none;stroke:#FFFFFF;stroke-width:2;stroke-miterlimit:10;}
	.st6{fill:#808080;}
	.st7{fill:none;stroke:#808080;stroke-width:2;stroke-linecap:round;stroke-linejoin:round;stroke-miterlimit:10;}
	.st8{fill:none;stroke:#808080;stroke-width:3;stroke-linecap:round;stroke-linejoin:round;}
	.st9{stroke:#808080;stroke-miterlimit:10;}
	.st10{fill:none;stroke:#FFFFFF;stroke-width:5;stroke-linecap:round;stroke-linejoin:round;}
	.st11{fill:none;stroke:#FFFFFF;stroke-width:2;stroke-linecap:round;stroke-linejoin:round;stroke-miterlimit:10;}
	.st12{fill:none;stroke:#FFFFFF;stroke-width:4;stroke-linecap:round;stroke-linejoin:round;stroke-miterlimit:10;}
</style>
<g id="Calque_1">
	<g class="st0">
		<rect y="1" class="st1" width="1366" height="517.3"/>
	</g>
	<g>
		<g>
			<path class="st2" d="M239.5,104.5c0,27.3-22.1,49.3-49.3,49.3c-9.2,0-17.8-2.5-25.1-6.9c-5.3,2.7-26.6,13.5-28,12.2
				c-1.3-1.3,8.8-21.4,11.9-27.4c-5.2-7.8-8.2-17.2-8.2-27.2c0-27.3,22.1-49.3,49.3-49.3S239.5,77.2,239.5,104.5z"/>
			<g>
				<path d="M195.5,135.9H184c-1.9,0-3.4-1.5-3.4-3.4l0,0c0-1.9,1.5-3.4,3.4-3.4h11.5c1.9,0,3.4,1.5,3.4,3.4l0,0
					C198.9,134.4,197.4,135.9,195.5,135.9z"/>
				<path d="M197.5,126.7h-15.5c-1.9,0-3.4-1.5-3.4-3.4v0c0-1.9,1.5-3.4,3.4-3.4h15.5c1.9,0,3.4,1.5,3.4,3.4v0
					C200.9,125.2,199.4,126.7,197.5,126.7z"/>
				<path d="M210.4,92.8c0,6.4-2.9,12.2-7.5,16v1.2c0,2.1-0.8,4-2.2,5.3c-1.4,1.4-3.3,2.2-5.3,2.2h-11.1c-4.1,0-7.5-3.4-7.5-7.5
					v-0.9c-4.8-3.8-7.9-9.7-7.9-16.4c0-11.5,9.3-20.8,20.8-20.8S210.4,81.3,210.4,92.8z"/>
			</g>
			<path class="st2" d="M204.1,94.2c-0.9,0-1.6-0.7-1.6-1.6c0-7-5.7-12.7-12.7-12.7c-0.9,0-1.6-0.7-1.6-1.6s0.7-1.6,1.6-1.6
				c8.7,0,15.9,7.1,15.9,15.9C205.7,93.5,205,94.2,204.1,94.2z"/>
			<circle class="st2" cx="204.1" cy="98.2" r="1.6"/>
		</g>
		<g>
			<path class="st2" d="M240.2,147.2c0,17,13.8,30.8,30.8,30.8c5.7,0,11.1-1.6,15.7-4.3c3.3,1.7,16.6,8.5,17.5,7.6
				c0.8-0.8-5.5-13.4-7.4-17.2c3.2-4.9,5.1-10.7,5.1-17c0-17-13.8-30.8-30.8-30.8S240.2,130.2,240.2,147.2z"/>
			<g>
				<path d="M267.6,166.8h7.2c1.2,0,2.1-0.9,2.1-2.1v0c0-1.2-0.9-2.1-2.1-2.1h-7.2c-1.2,0-2.1,0.9-2.1,2.1v0
					C265.5,165.9,266.4,166.8,267.6,166.8z"/>
				<path d="M266.4,161.1h9.7c1.2,0,2.1-0.9,2.1-2.1l0,0c0-1.2-0.9-2.1-2.1-2.1h-9.7c-1.2,0-2.1,0.9-2.1,2.1l0,0
					C264.3,160.2,265.2,161.1,266.4,161.1z"/>
				<path d="M258.3,139.9c0,4,1.8,7.6,4.7,10v0.8c0,1.3,0.5,2.5,1.4,3.3s2,1.4,3.3,1.4h6.9c2.6,0,4.7-2.1,4.7-4.7v-0.6
					c3-2.4,5-6.1,5-10.2c0-7.2-5.8-13-13-13S258.3,132.8,258.3,139.9z"/>
			</g>
			<path class="st2" d="M262.3,140.8c0.5,0,1-0.4,1-1c0-4.4,3.6-7.9,7.9-7.9c0.5,0,1-0.4,1-1s-0.4-1-1-1c-5.5,0-9.9,4.4-9.9,9.9
				C261.3,140.4,261.7,140.8,262.3,140.8z"/>
			<circle class="st2" cx="262.3" cy="143.3" r="1"/>
		</g>
		<g>
			<path class="st2" d="M250.9,66.1c0,22.7,18.4,41.1,41.1,41.1c7.6,0,14.8-2.1,20.9-5.7c4.4,2.3,22.2,11.3,23.3,10.2
				c1.1-1.1-7.4-17.8-9.9-22.9c4.3-6.5,6.8-14.3,6.8-22.7c0-22.7-18.4-41.1-41.1-41.1S250.9,43.4,250.9,66.1z"/>
			<g>
				<path d="M287.4,92.3h9.7c1.5,0,2.8-1.2,2.8-2.8v-0.1c0-1.5-1.2-2.8-2.8-2.8h-9.7c-1.5,0-2.8,1.2-2.8,2.8v0.1
					C284.7,91.1,285.9,92.3,287.4,92.3z"/>
				<path d="M285.8,84.7h13c1.5,0,2.8-1.2,2.8-2.8v-0.1c0-1.5-1.2-2.8-2.8-2.8h-13c-1.5,0-2.8,1.2-2.8,2.8v0.1
					C283,83.5,284.3,84.7,285.8,84.7z"/>
				<path d="M275.1,56.4c0,5.4,2.4,10.2,6.3,13.4v1c0,1.7,0.7,3.3,1.8,4.4c1.1,1.1,2.7,1.8,4.4,1.8h9.3c3.5,0,6.3-2.8,6.3-6.3v-0.8
					c4-3.2,6.6-8.1,6.6-13.6c0-9.6-7.8-17.4-17.4-17.4S275.1,46.8,275.1,56.4z"/>
			</g>
			<path class="st2" d="M280.4,57.6c0.7,0,1.3-0.6,1.3-1.3c0-5.8,4.7-10.6,10.6-10.6c0.7,0,1.3-0.6,1.3-1.3S293,43,292.3,43
				C285,43,279,49,279,56.3C279,57,279.6,57.6,280.4,57.6z"/>
			<circle class="st2" cx="280.4" cy="60.9" r="1.3"/>
		</g>
	</g>
	<g>
		
			<rect x="483.7" y="361.8" transform="matrix(-1 -1.224647e-16 1.224647e-16 -1 1022.2031 742.2386)" class="st2" width="54.7" height="18.6"/>
		<circle class="st2" cx="496.1" cy="400" r="12.4"/>
		<polygon class="st2" points="539,390.2 516.8,390.2 516.8,412.4 		"/>
	</g>
	<g>
		<path class="st2" d="M476.9,284.9v23.2h68.3v-23.2H476.9z M489.6,304.4c-4.2,0-7.6-3.4-7.6-7.6c0-4.2,3.4-7.6,7.6-7.6
			c4.2,0,7.6,3.4,7.6,7.6C497.2,301,493.8,304.4,489.6,304.4z"/>
		<polygon class="st3" points="545.3,308.2 545.3,284.9 521.9,284.9 		"/>
	</g>
	<g>
		<path class="st2" d="M476.9,258.9v23.2h68.3v-23.2H476.9z M489.6,278.4c-4.2,0-7.6-3.4-7.6-7.6c0-4.2,3.4-7.6,7.6-7.6
			c4.2,0,7.6,3.4,7.6,7.6C497.2,275,493.8,278.4,489.6,278.4z"/>
		<polygon class="st3" points="545.3,282.2 545.3,258.9 521.9,258.9 		"/>
	</g>
	<g>
		<path class="st2" d="M476.9,232.9v23.2h68.3v-23.2H476.9z M489.6,252.4c-4.2,0-7.6-3.4-7.6-7.6s3.4-7.6,7.6-7.6
			c4.2,0,7.6,3.4,7.6,7.6S493.8,252.4,489.6,252.4z"/>
		<polygon class="st3" points="545.3,256.2 545.3,232.9 521.9,232.9 		"/>
	</g>
	<g>
		<path class="st2" d="M476.9,111v23.2h68.3V111H476.9z M489.6,130.6c-4.2,0-7.6-3.4-7.6-7.6s3.4-7.6,7.6-7.6c4.2,0,7.6,3.4,7.6,7.6
			S493.8,130.6,489.6,130.6z"/>
		<polygon class="st3" points="545.3,134.3 545.3,111 521.9,111 		"/>
	</g>
	<g>
		<path class="st2" d="M476.9,85v23.2h68.3V85H476.9z M489.6,104.6c-4.2,0-7.6-3.4-7.6-7.6s3.4-7.6,7.6-7.6c4.2,0,7.6,3.4,7.6,7.6
			S493.8,104.6,489.6,104.6z"/>
		<polygon class="st3" points="545.3,108.3 545.3,85 521.9,85 		"/>
	</g>
	<g>
		<path class="st2" d="M476.9,59v23.2h68.3V59H476.9z M489.6,78.6c-4.2,0-7.6-3.4-7.6-7.6s3.4-7.6,7.6-7.6c4.2,0,7.6,3.4,7.6,7.6
			S493.8,78.6,489.6,78.6z"/>
		<polygon class="st3" points="545.3,82.3 545.3,59 521.9,59 		"/>
	</g>
	<g>
		<g>
			<line class="st4" x1="236.9" y1="182.2" x2="236.9" y2="209.5"/>
			<g>
				<polygon class="st2" points="236.9,223.6 228.7,203.7 236.9,208.4 245,203.7 				"/>
			</g>
		</g>
	</g>
	<g>
		<g>
			<line class="st4" x1="236.9" y1="333.8" x2="236.9" y2="361.1"/>
			<g>
				<polygon class="st2" points="236.9,375.2 228.7,355.3 236.9,360 245,355.3 				"/>
			</g>
		</g>
	</g>
	<g>
		<g>
			<line class="st4" x1="511.4" y1="348.2" x2="511.4" y2="334.7"/>
			<g>
				<polygon class="st2" points="511.4,320.6 519.5,340.5 511.4,335.8 503.2,340.5 				"/>
			</g>
		</g>
	</g>
	<g>
		<g>
			<line class="st4" x1="511.4" y1="220.7" x2="511.4" y2="207.2"/>
			<g>
				<polygon class="st2" points="511.4,193.1 519.5,213 511.4,208.2 503.2,213 				"/>
			</g>
		</g>
	</g>
	<g>
		<path class="st2" d="M155.3,265.3h-4.6c-0.7,0-1.3,0.6-1.3,1.3v4.6c0,0.2,0.2,0.4,0.4,0.4c0.1,0,0.2,0,0.3-0.1l5.5-5.5
			c0.2-0.2,0.2-0.5,0-0.6C155.5,265.3,155.4,265.3,155.3,265.3z"/>
		<path class="st2" d="M155.1,238.9h-30c-1,0-1.8,0.8-1.8,1.8V271c0,1,0.8,1.8,1.8,1.8h20.7c0.5,0,0.9-0.4,0.9-0.9v-5.3
			c0-2.2,1.8-3.9,3.9-3.9h5.3c0.5,0,0.9-0.4,0.9-0.9v-21.1C156.8,239.7,156,238.9,155.1,238.9z M142.3,261h-12.9
			c-0.7,0-1.3-0.6-1.3-1.3s0.6-1.3,1.3-1.3h12.9c0.7,0,1.3,0.6,1.3,1.3S143,261,142.3,261L142.3,261z M151.1,254.5h-21.6
			c-0.7,0-1.3-0.6-1.3-1.3s0.6-1.3,1.3-1.3h21.6c0.7,0,1.3,0.6,1.3,1.3S151.8,254.5,151.1,254.5z M151.1,247.9h-21.6
			c-0.7,0-1.3-0.6-1.3-1.3s0.6-1.3,1.3-1.3h21.6c0.7,0,1.3,0.6,1.3,1.3S151.8,247.9,151.1,247.9z"/>
	</g>
	<g>
		<path class="st2" d="M202,265.3h-4.6c-0.7,0-1.3,0.6-1.3,1.3v4.6c0,0.2,0.2,0.4,0.4,0.4c0.1,0,0.2,0,0.3-0.1l5.5-5.5
			c0.2-0.2,0.2-0.5,0-0.6C202.2,265.3,202.1,265.3,202,265.3z"/>
		<path class="st2" d="M201.8,238.9h-30c-1,0-1.8,0.8-1.8,1.8V271c0,1,0.8,1.8,1.8,1.8h20.7c0.5,0,0.9-0.4,0.9-0.9v-5.3
			c0-2.2,1.8-3.9,3.9-3.9h5.3c0.5,0,0.9-0.4,0.9-0.9v-21.1C203.5,239.7,202.7,238.9,201.8,238.9z M189,261h-12.9
			c-0.7,0-1.3-0.6-1.3-1.3s0.6-1.3,1.3-1.3H189c0.7,0,1.3,0.6,1.3,1.3S189.7,261,189,261L189,261z M197.8,254.5h-21.6
			c-0.7,0-1.3-0.6-1.3-1.3s0.6-1.3,1.3-1.3h21.6c0.7,0,1.3,0.6,1.3,1.3S198.5,254.5,197.8,254.5z M197.8,247.9h-21.6
			c-0.7,0-1.3-0.6-1.3-1.3s0.6-1.3,1.3-1.3h21.6c0.7,0,1.3,0.6,1.3,1.3S198.5,247.9,197.8,247.9z"/>
	</g>
	<g>
		<path class="st2" d="M248.7,265.3h-4.6c-0.7,0-1.3,0.6-1.3,1.3v4.6c0,0.2,0.2,0.4,0.4,0.4c0.1,0,0.2,0,0.3-0.1l5.5-5.5
			c0.2-0.2,0.2-0.5,0-0.6C249,265.3,248.9,265.3,248.7,265.3z"/>
		<path class="st2" d="M248.5,238.9h-30c-1,0-1.8,0.8-1.8,1.8V271c0,1,0.8,1.8,1.8,1.8h20.7c0.5,0,0.9-0.4,0.9-0.9v-5.3
			c0-2.2,1.8-3.9,3.9-3.9h5.3c0.5,0,0.9-0.4,0.9-0.9v-21.1C250.2,239.7,249.4,238.9,248.5,238.9z M235.7,261h-12.9
			c-0.7,0-1.3-0.6-1.3-1.3s0.6-1.3,1.3-1.3h12.9c0.7,0,1.3,0.6,1.3,1.3S236.5,261,235.7,261L235.7,261z M244.5,254.5h-21.6
			c-0.7,0-1.3-0.6-1.3-1.3s0.6-1.3,1.3-1.3h21.6c0.7,0,1.3,0.6,1.3,1.3S245.2,254.5,244.5,254.5z M244.5,247.9h-21.6
			c-0.7,0-1.3-0.6-1.3-1.3s0.6-1.3,1.3-1.3h21.6c0.7,0,1.3,0.6,1.3,1.3S245.2,247.9,244.5,247.9z"/>
	</g>
	<g>
		<path class="st2" d="M295.4,265.3h-4.6c-0.7,0-1.3,0.6-1.3,1.3v4.6c0,0.2,0.2,0.4,0.4,0.4c0.1,0,0.2,0,0.3-0.1l5.5-5.5
			c0.2-0.2,0.2-0.5,0-0.6C295.7,265.3,295.6,265.3,295.4,265.3z"/>
		<path class="st2" d="M295.2,238.9h-30c-1,0-1.8,0.8-1.8,1.8V271c0,1,0.8,1.8,1.8,1.8H286c0.5,0,0.9-0.4,0.9-0.9v-5.3
			c0-2.2,1.8-3.9,3.9-3.9h5.3c0.5,0,0.9-0.4,0.9-0.9v-21.1C296.9,239.7,296.2,238.9,295.2,238.9z M282.4,261h-12.9
			c-0.7,0-1.3-0.6-1.3-1.3s0.6-1.3,1.3-1.3h12.9c0.7,0,1.3,0.6,1.3,1.3S283.2,261,282.4,261L282.4,261z M291.2,254.5h-21.6
			c-0.7,0-1.3-0.6-1.3-1.3s0.6-1.3,1.3-1.3h21.6c0.7,0,1.3,0.6,1.3,1.3S291.9,254.5,291.2,254.5z M291.2,247.9h-21.6
			c-0.7,0-1.3-0.6-1.3-1.3s0.6-1.3,1.3-1.3h21.6c0.7,0,1.3,0.6,1.3,1.3S291.9,247.9,291.2,247.9z"/>
	</g>
	<g>
		<path class="st2" d="M342.2,265.3h-4.6c-0.7,0-1.3,0.6-1.3,1.3v4.6c0,0.2,0.2,0.4,0.4,0.4c0.1,0,0.2,0,0.3-0.1l5.5-5.5
			c0.2-0.2,0.2-0.5,0-0.6C342.4,265.3,342.3,265.3,342.2,265.3z"/>
		<path class="st2" d="M341.9,238.9h-30c-1,0-1.8,0.8-1.8,1.8V271c0,1,0.8,1.8,1.8,1.8h20.7c0.5,0,0.9-0.4,0.9-0.9v-5.3
			c0-2.2,1.8-3.9,3.9-3.9h5.3c0.5,0,0.9-0.4,0.9-0.9v-21.1C343.7,239.7,342.9,238.9,341.9,238.9z M329.1,261h-12.9
			c-0.7,0-1.3-0.6-1.3-1.3s0.6-1.3,1.3-1.3h12.9c0.7,0,1.3,0.6,1.3,1.3S329.9,261,329.1,261L329.1,261z M337.9,254.5h-21.6
			c-0.7,0-1.3-0.6-1.3-1.3s0.6-1.3,1.3-1.3h21.6c0.7,0,1.3,0.6,1.3,1.3S338.6,254.5,337.9,254.5z M337.9,247.9h-21.6
			c-0.7,0-1.3-0.6-1.3-1.3s0.6-1.3,1.3-1.3h21.6c0.7,0,1.3,0.6,1.3,1.3S338.6,247.9,337.9,247.9z"/>
	</g>
	<g>
		<g>
			<path class="st2" d="M771.2,81.5h-3.9c-0.6,0-1.1,0.5-1.1,1.1v3.9c0,0.2,0.2,0.4,0.4,0.4c0.1,0,0.2,0,0.3-0.1l4.6-4.6
				c0.1-0.1,0.1-0.4,0-0.5C771.4,81.5,771.3,81.5,771.2,81.5z"/>
			<path class="st2" d="M771,59.4h-25c-0.8,0-1.5,0.7-1.5,1.5v25.3c0,0.8,0.7,1.5,1.5,1.5h17.3c0.4,0,0.7-0.3,0.7-0.7v-4.4
				c0-1.8,1.5-3.3,3.3-3.3h4.4c0.4,0,0.7-0.3,0.7-0.7V60.9C772.5,60.1,771.8,59.4,771,59.4z M760.4,77.9h-10.7
				c-0.6,0-1.1-0.5-1.1-1.1c0-0.6,0.5-1.1,1.1-1.1h10.7c0.6,0,1.1,0.5,1.1,1.1C761.5,77.4,761,77.9,760.4,77.9L760.4,77.9z
				 M767.7,72.4h-18c-0.6,0-1.1-0.5-1.1-1.1s0.5-1.1,1.1-1.1h18c0.6,0,1.1,0.5,1.1,1.1S768.3,72.4,767.7,72.4z M767.7,66.9h-18
				c-0.6,0-1.1-0.5-1.1-1.1c0-0.6,0.5-1.1,1.1-1.1h18c0.6,0,1.1,0.5,1.1,1.1C768.8,66.4,768.3,66.9,767.7,66.9z"/>
		</g>
		<g>
			<path class="st2" d="M810.2,81.5h-3.9c-0.6,0-1.1,0.5-1.1,1.1v3.9c0,0.2,0.2,0.4,0.4,0.4c0.1,0,0.2,0,0.3-0.1l4.6-4.6
				c0.1-0.1,0.1-0.4,0-0.5C810.4,81.5,810.3,81.5,810.2,81.5z"/>
			<path class="st2" d="M810,59.4h-25c-0.8,0-1.5,0.7-1.5,1.5v25.3c0,0.8,0.7,1.5,1.5,1.5h17.3c0.4,0,0.7-0.3,0.7-0.7v-4.4
				c0-1.8,1.5-3.3,3.3-3.3h4.4c0.4,0,0.7-0.3,0.7-0.7V60.9C811.5,60.1,810.8,59.4,810,59.4z M799.4,77.9h-10.7
				c-0.6,0-1.1-0.5-1.1-1.1c0-0.6,0.5-1.1,1.1-1.1h10.7c0.6,0,1.1,0.5,1.1,1.1C800.5,77.4,800,77.9,799.4,77.9L799.4,77.9z
				 M806.7,72.4h-18c-0.6,0-1.1-0.5-1.1-1.1s0.5-1.1,1.1-1.1h18c0.6,0,1.1,0.5,1.1,1.1S807.3,72.4,806.7,72.4z M806.7,66.9h-18
				c-0.6,0-1.1-0.5-1.1-1.1c0-0.6,0.5-1.1,1.1-1.1h18c0.6,0,1.1,0.5,1.1,1.1C807.8,66.4,807.3,66.9,806.7,66.9z"/>
		</g>
	</g>
	<g>
		<path class="st2" d="M790.8,180.3h-3.9c-0.6,0-1.1,0.5-1.1,1.1v3.9c0,0.2,0.2,0.4,0.4,0.4c0.1,0,0.2,0,0.3-0.1l4.6-4.6
			c0.1-0.1,0.1-0.4,0-0.5C791,180.3,790.9,180.3,790.8,180.3z"/>
		<path class="st2" d="M790.6,158.2h-25c-0.8,0-1.5,0.7-1.5,1.5V185c0,0.8,0.7,1.5,1.5,1.5h17.3c0.4,0,0.7-0.3,0.7-0.7v-4.4
			c0-1.8,1.5-3.3,3.3-3.3h4.4c0.4,0,0.7-0.3,0.7-0.7v-17.6C792.1,158.9,791.4,158.2,790.6,158.2z M779.9,176.7h-10.7
			c-0.6,0-1.1-0.5-1.1-1.1s0.5-1.1,1.1-1.1h10.7c0.6,0,1.1,0.5,1.1,1.1S780.6,176.7,779.9,176.7L779.9,176.7z M787.3,171.2h-18
			c-0.6,0-1.1-0.5-1.1-1.1s0.5-1.1,1.1-1.1h18c0.6,0,1.1,0.5,1.1,1.1S787.9,171.2,787.3,171.2z M787.3,165.7h-18
			c-0.6,0-1.1-0.5-1.1-1.1c0-0.6,0.5-1.1,1.1-1.1h18c0.6,0,1.1,0.5,1.1,1.1C788.4,165.3,787.9,165.7,787.3,165.7z"/>
	</g>
	<g>
		<path class="st2" d="M916.2,106.6h-3.9c-0.6,0-1.1,0.5-1.1,1.1v3.9c0,0.2,0.2,0.4,0.4,0.4c0.1,0,0.2,0,0.3-0.1l4.6-4.6
			c0.1-0.1,0.1-0.4,0-0.5C916.4,106.6,916.3,106.6,916.2,106.6z"/>
		<path class="st2" d="M916,84.6h-25c-0.8,0-1.5,0.7-1.5,1.5v25.3c0,0.8,0.7,1.5,1.5,1.5h17.3c0.4,0,0.7-0.3,0.7-0.7v-4.4
			c0-1.8,1.5-3.3,3.3-3.3h4.4c0.4,0,0.7-0.3,0.7-0.7V86C917.4,85.2,916.8,84.6,916,84.6z M905.3,103h-10.7c-0.6,0-1.1-0.5-1.1-1.1
			s0.5-1.1,1.1-1.1h10.7c0.6,0,1.1,0.5,1.1,1.1S905.9,103,905.3,103L905.3,103z M912.7,97.5h-18c-0.6,0-1.1-0.5-1.1-1.1
			c0-0.6,0.5-1.1,1.1-1.1h18c0.6,0,1.1,0.5,1.1,1.1C913.8,97.1,913.3,97.5,912.7,97.5z M912.7,92.1h-18c-0.6,0-1.1-0.5-1.1-1.1
			s0.5-1.1,1.1-1.1h18c0.6,0,1.1,0.5,1.1,1.1S913.3,92.1,912.7,92.1z"/>
	</g>
	<g>
		<g>
			<path class="st2" d="M897.7,206.1h-3.9c-0.6,0-1.1,0.5-1.1,1.1v3.9c0,0.2,0.2,0.4,0.4,0.4c0.1,0,0.2,0,0.3-0.1l4.6-4.6
				c0.1-0.1,0.1-0.4,0-0.5C897.8,206.1,897.8,206.1,897.7,206.1z"/>
			<path class="st2" d="M897.4,184.1h-25c-0.8,0-1.5,0.7-1.5,1.5v25.3c0,0.8,0.7,1.5,1.5,1.5h17.3c0.4,0,0.7-0.3,0.7-0.7v-4.4
				c0-1.8,1.5-3.3,3.3-3.3h4.4c0.4,0,0.7-0.3,0.7-0.7v-17.6C898.9,184.7,898.3,184.1,897.4,184.1z M886.8,202.5h-10.7
				c-0.6,0-1.1-0.5-1.1-1.1s0.5-1.1,1.1-1.1h10.7c0.6,0,1.1,0.5,1.1,1.1S887.4,202.5,886.8,202.5L886.8,202.5z M894.1,197h-18
				c-0.6,0-1.1-0.5-1.1-1.1s0.5-1.1,1.1-1.1h18c0.6,0,1.1,0.5,1.1,1.1S894.7,197,894.1,197z M894.1,191.6h-18
				c-0.6,0-1.1-0.5-1.1-1.1s0.5-1.1,1.1-1.1h18c0.6,0,1.1,0.5,1.1,1.1S894.7,191.6,894.1,191.6z"/>
		</g>
		<g>
			<path class="st2" d="M934.7,206.1h-3.9c-0.6,0-1.1,0.5-1.1,1.1v3.9c0,0.2,0.2,0.4,0.4,0.4c0.1,0,0.2,0,0.3-0.1l4.6-4.6
				c0.1-0.1,0.1-0.4,0-0.5C934.9,206.1,934.8,206.1,934.7,206.1z"/>
			<path class="st2" d="M934.5,184.1h-25c-0.8,0-1.5,0.7-1.5,1.5v25.3c0,0.8,0.7,1.5,1.5,1.5h17.3c0.4,0,0.7-0.3,0.7-0.7v-4.4
				c0-1.8,1.5-3.3,3.3-3.3h4.4c0.4,0,0.7-0.3,0.7-0.7v-17.6C936,184.7,935.3,184.1,934.5,184.1z M923.9,202.5h-10.7
				c-0.6,0-1.1-0.5-1.1-1.1s0.5-1.1,1.1-1.1h10.7c0.6,0,1.1,0.5,1.1,1.1S924.5,202.5,923.9,202.5L923.9,202.5z M931.2,197h-18
				c-0.6,0-1.1-0.5-1.1-1.1s0.5-1.1,1.1-1.1h18c0.6,0,1.1,0.5,1.1,1.1S931.8,197,931.2,197z M931.2,191.6h-18
				c-0.6,0-1.1-0.5-1.1-1.1s0.5-1.1,1.1-1.1h18c0.6,0,1.1,0.5,1.1,1.1S931.8,191.6,931.2,191.6z"/>
		</g>
	</g>
	<g>
		<path class="st2" d="M155.3,308.9h-4.6c-0.7,0-1.3,0.6-1.3,1.3v4.6c0,0.2,0.2,0.4,0.4,0.4c0.1,0,0.2,0,0.3-0.1l5.5-5.5
			c0.2-0.2,0.2-0.5,0-0.6C155.5,309,155.4,308.9,155.3,308.9z"/>
		<path class="st2" d="M155.1,282.5h-30c-1,0-1.8,0.8-1.8,1.8v30.3c0,1,0.8,1.8,1.8,1.8h20.7c0.5,0,0.9-0.4,0.9-0.9v-5.3
			c0-2.2,1.8-3.9,3.9-3.9h5.3c0.5,0,0.9-0.4,0.9-0.9v-21.1C156.8,283.3,156,282.5,155.1,282.5z M142.3,304.7h-12.9
			c-0.7,0-1.3-0.6-1.3-1.3c0-0.7,0.6-1.3,1.3-1.3h12.9c0.7,0,1.3,0.6,1.3,1.3C143.6,304.1,143,304.7,142.3,304.7L142.3,304.7z
			 M151.1,298.1h-21.6c-0.7,0-1.3-0.6-1.3-1.3s0.6-1.3,1.3-1.3h21.6c0.7,0,1.3,0.6,1.3,1.3S151.8,298.1,151.1,298.1z M151.1,291.5
			h-21.6c-0.7,0-1.3-0.6-1.3-1.3s0.6-1.3,1.3-1.3h21.6c0.7,0,1.3,0.6,1.3,1.3S151.8,291.5,151.1,291.5z"/>
	</g>
	<g>
		<path class="st2" d="M202,308.9h-4.6c-0.7,0-1.3,0.6-1.3,1.3v4.6c0,0.2,0.2,0.4,0.4,0.4c0.1,0,0.2,0,0.3-0.1l5.5-5.5
			c0.2-0.2,0.2-0.5,0-0.6C202.2,309,202.1,308.9,202,308.9z"/>
		<path class="st2" d="M201.8,282.5h-30c-1,0-1.8,0.8-1.8,1.8v30.3c0,1,0.8,1.8,1.8,1.8h20.7c0.5,0,0.9-0.4,0.9-0.9v-5.3
			c0-2.2,1.8-3.9,3.9-3.9h5.3c0.5,0,0.9-0.4,0.9-0.9v-21.1C203.5,283.3,202.7,282.5,201.8,282.5z M189,304.7h-12.9
			c-0.7,0-1.3-0.6-1.3-1.3c0-0.7,0.6-1.3,1.3-1.3H189c0.7,0,1.3,0.6,1.3,1.3C190.3,304.1,189.7,304.7,189,304.7L189,304.7z
			 M197.8,298.1h-21.6c-0.7,0-1.3-0.6-1.3-1.3s0.6-1.3,1.3-1.3h21.6c0.7,0,1.3,0.6,1.3,1.3S198.5,298.1,197.8,298.1z M197.8,291.5
			h-21.6c-0.7,0-1.3-0.6-1.3-1.3s0.6-1.3,1.3-1.3h21.6c0.7,0,1.3,0.6,1.3,1.3S198.5,291.5,197.8,291.5z"/>
	</g>
	<g>
		<path class="st2" d="M248.7,308.9h-4.6c-0.7,0-1.3,0.6-1.3,1.3v4.6c0,0.2,0.2,0.4,0.4,0.4c0.1,0,0.2,0,0.3-0.1l5.5-5.5
			c0.2-0.2,0.2-0.5,0-0.6C249,309,248.9,308.9,248.7,308.9z"/>
		<path class="st2" d="M248.5,282.5h-30c-1,0-1.8,0.8-1.8,1.8v30.3c0,1,0.8,1.8,1.8,1.8h20.7c0.5,0,0.9-0.4,0.9-0.9v-5.3
			c0-2.2,1.8-3.9,3.9-3.9h5.3c0.5,0,0.9-0.4,0.9-0.9v-21.1C250.2,283.3,249.4,282.5,248.5,282.5z M235.7,304.7h-12.9
			c-0.7,0-1.3-0.6-1.3-1.3c0-0.7,0.6-1.3,1.3-1.3h12.9c0.7,0,1.3,0.6,1.3,1.3C237,304.1,236.5,304.7,235.7,304.7L235.7,304.7z
			 M244.5,298.1h-21.6c-0.7,0-1.3-0.6-1.3-1.3s0.6-1.3,1.3-1.3h21.6c0.7,0,1.3,0.6,1.3,1.3S245.2,298.1,244.5,298.1z M244.5,291.5
			h-21.6c-0.7,0-1.3-0.6-1.3-1.3s0.6-1.3,1.3-1.3h21.6c0.7,0,1.3,0.6,1.3,1.3S245.2,291.5,244.5,291.5z"/>
	</g>
	<g>
		<path class="st2" d="M295.4,308.9h-4.6c-0.7,0-1.3,0.6-1.3,1.3v4.6c0,0.2,0.2,0.4,0.4,0.4c0.1,0,0.2,0,0.3-0.1l5.5-5.5
			c0.2-0.2,0.2-0.5,0-0.6C295.7,309,295.6,308.9,295.4,308.9z"/>
		<path class="st2" d="M295.2,282.5h-30c-1,0-1.8,0.8-1.8,1.8v30.3c0,1,0.8,1.8,1.8,1.8H286c0.5,0,0.9-0.4,0.9-0.9v-5.3
			c0-2.2,1.8-3.9,3.9-3.9h5.3c0.5,0,0.9-0.4,0.9-0.9v-21.1C296.9,283.3,296.2,282.5,295.2,282.5z M282.4,304.7h-12.9
			c-0.7,0-1.3-0.6-1.3-1.3c0-0.7,0.6-1.3,1.3-1.3h12.9c0.7,0,1.3,0.6,1.3,1.3C283.8,304.1,283.2,304.7,282.4,304.7L282.4,304.7z
			 M291.2,298.1h-21.6c-0.7,0-1.3-0.6-1.3-1.3s0.6-1.3,1.3-1.3h21.6c0.7,0,1.3,0.6,1.3,1.3S291.9,298.1,291.2,298.1z M291.2,291.5
			h-21.6c-0.7,0-1.3-0.6-1.3-1.3s0.6-1.3,1.3-1.3h21.6c0.7,0,1.3,0.6,1.3,1.3S291.9,291.5,291.2,291.5z"/>
	</g>
	<g>
		<path class="st2" d="M342.2,308.9h-4.6c-0.7,0-1.3,0.6-1.3,1.3v4.6c0,0.2,0.2,0.4,0.4,0.4c0.1,0,0.2,0,0.3-0.1l5.5-5.5
			c0.2-0.2,0.2-0.5,0-0.6C342.4,309,342.3,308.9,342.2,308.9z"/>
		<path class="st2" d="M341.9,282.5h-30c-1,0-1.8,0.8-1.8,1.8v30.3c0,1,0.8,1.8,1.8,1.8h20.7c0.5,0,0.9-0.4,0.9-0.9v-5.3
			c0-2.2,1.8-3.9,3.9-3.9h5.3c0.5,0,0.9-0.4,0.9-0.9v-21.1C343.7,283.3,342.9,282.5,341.9,282.5z M329.1,304.7h-12.9
			c-0.7,0-1.3-0.6-1.3-1.3c0-0.7,0.6-1.3,1.3-1.3h12.9c0.7,0,1.3,0.6,1.3,1.3C330.5,304.1,329.9,304.7,329.1,304.7L329.1,304.7z
			 M337.9,298.1h-21.6c-0.7,0-1.3-0.6-1.3-1.3s0.6-1.3,1.3-1.3h21.6c0.7,0,1.3,0.6,1.3,1.3S338.6,298.1,337.9,298.1z M337.9,291.5
			h-21.6c-0.7,0-1.3-0.6-1.3-1.3s0.6-1.3,1.3-1.3h21.6c0.7,0,1.3,0.6,1.3,1.3S338.6,291.5,337.9,291.5z"/>
	</g>
	<g>
		<rect x="156.2" y="401.5" class="st2" width="24" height="15.4"/>
		<path class="st2" d="M186.1,391.3h-59.4c-1.8,0-3.2,1.5-3.2,3.2v67.2c0,1.8,1.5,3.2,3.2,3.2h59.4c1.8,0,3.2-1.5,3.2-3.2v-67.2
			C189.4,392.7,187.9,391.3,186.1,391.3z M148.2,459.9h-20.3v-13.7h20.3V459.9z M148.2,443.5h-20.3v-13.7h20.3V443.5z M148.2,427.2
			h-20.3v-13.7h20.3V427.2z M148.2,410.9h-20.3v-13.7h20.3V410.9z M185,460.1h-32.6v-62.9H185V460.1z"/>
		<g>
			<rect x="156.2" y="401.5" width="24" height="15.4"/>
		</g>
		<rect x="156.2" y="401.5" class="st2" width="24" height="15.4"/>
		<rect x="236.6" y="401.5" class="st2" width="24" height="15.4"/>
		<path class="st2" d="M266.5,391.3h-59.4c-1.8,0-3.2,1.5-3.2,3.2v67.2c0,1.8,1.5,3.2,3.2,3.2h59.4c1.8,0,3.2-1.5,3.2-3.2v-67.2
			C269.8,392.7,268.3,391.3,266.5,391.3z M228.6,459.9h-20.3v-13.7h20.3V459.9z M228.6,443.5h-20.3v-13.7h20.3V443.5z M228.6,427.2
			h-20.3v-13.7h20.3V427.2z M228.6,410.9h-20.3v-13.7h20.3V410.9z M265.4,460.1h-32.6v-62.9h32.6V460.1z"/>
		<g>
			<rect x="236.6" y="401.5" width="24" height="15.4"/>
		</g>
		<rect x="236.6" y="401.5" class="st2" width="24" height="15.4"/>
		<rect x="317" y="401.5" class="st2" width="24" height="15.4"/>
		<path class="st2" d="M346.9,391.3h-59.4c-1.8,0-3.2,1.5-3.2,3.2v67.2c0,1.8,1.5,3.2,3.2,3.2h59.4c1.8,0,3.2-1.5,3.2-3.2v-67.2
			C350.2,392.7,348.7,391.3,346.9,391.3z M309,459.9h-20.3v-13.7H309V459.9z M309,443.5h-20.3v-13.7H309V443.5z M309,427.2h-20.3
			v-13.7H309V427.2z M309,410.9h-20.3v-13.7H309V410.9z M345.8,460.1h-32.6v-62.9h32.6V460.1z"/>
		<g>
			<rect x="317" y="401.5" width="24" height="15.4"/>
		</g>
		<rect x="317" y="401.5" class="st2" width="24" height="15.4"/>
	</g>
	<g>
		<g>
			<path class="st4" d="M392.3,451.6c20.2,9.2,61.5,21.7,97-6.1"/>
			<g>
				<polygon class="st2" points="379.8,445 393.8,461.3 393.3,451.9 401.2,446.8 				"/>
			</g>
			<g>
				<polygon class="st2" points="499.7,435.9 490.3,455.2 488.4,446 479.5,443.1 				"/>
			</g>
		</g>
	</g>
	<g>
		<g>
			<path class="st4" d="M993.6,392.9c22,3.3,65.1,4.3,91.8-32.1"/>
			<g>
				<polygon class="st2" points="979.7,389.9 997.6,401.9 994.6,393 1000.9,385.9 				"/>
			</g>
			<g>
				<polygon class="st2" points="1092.8,348.8 1088.9,369.9 1084.6,361.6 1075.2,361.2 				"/>
			</g>
		</g>
	</g>
	<g>
		<g>
			<path class="st4" d="M689.6,63.3c-12.5-15.1-39.3-36.9-78.9-15"/>
			<g>
				<polygon class="st2" points="697.6,74.9 692.7,54 688.8,62.6 679.5,63.4 				"/>
			</g>
			<g>
				<polygon class="st2" points="598.8,56 611.3,38.5 611.6,47.9 619.9,52.3 				"/>
			</g>
		</g>
	</g>
	<path class="st2" d="M556,40.3h-90.2c-5.4,0-9.7,4.4-9.7,9.7v122.7c0,5.4,4.4,9.7,9.7,9.7H556c5.4,0,9.7-4.4,9.7-9.7V50.1
		C565.8,44.7,561.4,40.3,556,40.3z M556.5,155.7c0,5.4-4.4,9.7-9.7,9.7h-71.5c-5.4,0-9.7-4.4-9.7-9.7V57.4c0-5.4,4.4-9.7,9.7-9.7
		h71.5c5.4,0,9.7,4.4,9.7,9.7V155.7z"/>
	<path class="st5" d="M556.5,57.4v98.3c0,5.4-4.4,9.7-9.7,9.7h-71.5c-5.4,0-9.7-4.4-9.7-9.7V57.4c0-5.4,4.4-9.7,9.7-9.7h71.5
		C552.1,47.6,556.5,52,556.5,57.4z"/>
	<g>
		<path class="st2" d="M546.7,49.6c4.3,0,7.7,3.5,7.7,7.7v98.3c0,4.3-3.5,7.7-7.7,7.7h-71.5c-4.3,0-7.7-3.5-7.7-7.7V57.4
			c0-4.3,3.5-7.7,7.7-7.7H546.7 M546.7,47.6h-71.5c-5.4,0-9.7,4.4-9.7,9.7v98.3c0,5.4,4.4,9.7,9.7,9.7h71.5c5.4,0,9.7-4.4,9.7-9.7
			V57.4C556.5,52,552.1,47.6,546.7,47.6L546.7,47.6z"/>
	</g>
	<g>
		<circle cx="511.4" cy="173.6" r="4.1"/>
	</g>
	<g>
		<circle class="st2" cx="483.7" cy="148.4" r="6.5"/>
	</g>
	<g>
		<circle class="st2" cx="502" cy="148.4" r="6.5"/>
	</g>
	<g>
		<circle class="st2" cx="520.2" cy="148.4" r="6.5"/>
	</g>
	<polygon class="st2" points="545.5,155.1 545.5,141.1 531.4,141.1 	"/>
	<g>
		<path class="st2" d="M1125.6,273v28.6h84.1V273H1125.6z M1141.2,297.1c-5.2,0-9.4-4.2-9.4-9.4s4.2-9.4,9.4-9.4
			c5.2,0,9.4,4.2,9.4,9.4S1146.4,297.1,1141.2,297.1z"/>
		<polygon class="st3" points="1209.7,301.7 1209.7,273 1181,273 		"/>
	</g>
	<g>
		<path class="st2" d="M1125.6,209v28.6h84.1V209H1125.6z M1141.2,233.1c-5.2,0-9.4-4.2-9.4-9.4s4.2-9.4,9.4-9.4
			c5.2,0,9.4,4.2,9.4,9.4S1146.4,233.1,1141.2,233.1z"/>
		<polygon class="st3" points="1209.7,237.7 1209.7,209 1181,209 		"/>
	</g>
	<path class="st2" d="M1223,160h-111c-6.6,0-12,5.4-12,12v151c0,6.6,5.4,12,12,12h111c6.6,0,12-5.4,12-12V172
		C1235,165.4,1229.6,160,1223,160z M1223.5,302c0,6.6-5.4,12-12,12h-88c-6.6,0-12-5.4-12-12V181c0-6.6,5.4-12,12-12h88
		c6.6,0,12,5.4,12,12V302z"/>
	<path class="st5" d="M1223.5,181v121c0,6.6-5.4,12-12,12h-88c-6.6,0-12-5.4-12-12V181c0-6.6,5.4-12,12-12h88
		C1218.1,169,1223.5,174.4,1223.5,181z"/>
	<g>
		<path class="st2" d="M1211.5,171c5.5,0,10,4.5,10,10v121c0,5.5-4.5,10-10,10h-88c-5.5,0-10-4.5-10-10V181c0-5.5,4.5-10,10-10
			H1211.5 M1211.5,169h-88c-6.6,0-12,5.4-12,12v121c0,6.6,5.4,12,12,12h88c6.6,0,12-5.4,12-12V181
			C1223.5,174.4,1218.1,169,1211.5,169L1211.5,169z"/>
	</g>
	<g>
		<circle cx="1168" cy="324" r="5"/>
	</g>
	<g>
		<circle class="st2" cx="1134" cy="255" r="8"/>
	</g>
	<g>
		<circle class="st2" cx="1156.4" cy="255" r="8"/>
	</g>
	<g>
		<circle class="st2" cx="1178.9" cy="255" r="8"/>
	</g>
	<polygon class="st2" points="1210,263.3 1210,246 1192.7,246 	"/>
	<g>
		<g>
			<path class="st2" d="M825.3,42.5h-94.5c-3.4,0-6.3,2.9-6.3,6.3v60.4c0,3.4,2.9,6.3,6.3,6.3h39.7l-0.1,1.1
				c-0.6,4.9-2.9,7.4-6.7,7.4h-5.2c-0.5,0-1,0.5-1,1c0,0.5,0.5,1,1,1h39.4c0.5,0,1-0.5,1-1c0-0.5-0.5-1-1-1h-5.2
				c-3.9,0-6.3-2.7-6.7-7.4l-0.1-1h39.6c3.4,0,6.3-2.9,6.3-6.3V48.8C831.5,45.4,828.7,42.5,825.3,42.5z M829.5,104.2h-103V48.8
				c0-2.4,1.9-4.2,4.2-4.2h94.5c2.4,0,4.2,1.9,4.2,4.2V104.2z"/>
		</g>
	</g>
	<g>
		<g>
			<path class="st2" d="M771.2,276.8h-3.9c-0.6,0-1.1,0.5-1.1,1.1v3.9c0,0.2,0.2,0.4,0.4,0.4c0.1,0,0.2,0,0.3-0.1l4.6-4.6
				c0.1-0.1,0.1-0.4,0-0.5C771.4,276.9,771.3,276.8,771.2,276.8z"/>
			<path class="st2" d="M771,254.8h-25c-0.8,0-1.5,0.7-1.5,1.5v25.3c0,0.8,0.7,1.5,1.5,1.5h17.3c0.4,0,0.7-0.3,0.7-0.7v-4.4
				c0-1.8,1.5-3.3,3.3-3.3h4.4c0.4,0,0.7-0.3,0.7-0.7v-17.6C772.5,255.5,771.8,254.8,771,254.8z M760.4,273.3h-10.7
				c-0.6,0-1.1-0.5-1.1-1.1c0-0.6,0.5-1.1,1.1-1.1h10.7c0.6,0,1.1,0.5,1.1,1.1C761.5,272.8,761,273.3,760.4,273.3L760.4,273.3z
				 M767.7,267.8h-18c-0.6,0-1.1-0.5-1.1-1.1c0-0.6,0.5-1.1,1.1-1.1h18c0.6,0,1.1,0.5,1.1,1.1C768.8,267.3,768.3,267.8,767.7,267.8z
				 M767.7,262.3h-18c-0.6,0-1.1-0.5-1.1-1.1c0-0.6,0.5-1.1,1.1-1.1h18c0.6,0,1.1,0.5,1.1,1.1C768.8,261.8,768.3,262.3,767.7,262.3z
				"/>
		</g>
		<g>
			<path class="st2" d="M810.2,276.8h-3.9c-0.6,0-1.1,0.5-1.1,1.1v3.9c0,0.2,0.2,0.4,0.4,0.4c0.1,0,0.2,0,0.3-0.1l4.6-4.6
				c0.1-0.1,0.1-0.4,0-0.5C810.4,276.9,810.3,276.8,810.2,276.8z"/>
			<path class="st2" d="M810,254.8h-25c-0.8,0-1.5,0.7-1.5,1.5v25.3c0,0.8,0.7,1.5,1.5,1.5h17.3c0.4,0,0.7-0.3,0.7-0.7v-4.4
				c0-1.8,1.5-3.3,3.3-3.3h4.4c0.4,0,0.7-0.3,0.7-0.7v-17.6C811.5,255.5,810.8,254.8,810,254.8z M799.4,273.3h-10.7
				c-0.6,0-1.1-0.5-1.1-1.1c0-0.6,0.5-1.1,1.1-1.1h10.7c0.6,0,1.1,0.5,1.1,1.1C800.5,272.8,800,273.3,799.4,273.3L799.4,273.3z
				 M806.7,267.8h-18c-0.6,0-1.1-0.5-1.1-1.1c0-0.6,0.5-1.1,1.1-1.1h18c0.6,0,1.1,0.5,1.1,1.1C807.8,267.3,807.3,267.8,806.7,267.8z
				 M806.7,262.3h-18c-0.6,0-1.1-0.5-1.1-1.1c0-0.6,0.5-1.1,1.1-1.1h18c0.6,0,1.1,0.5,1.1,1.1C807.8,261.8,807.3,262.3,806.7,262.3z
				"/>
		</g>
	</g>
	<g>
		<g>
			<path class="st2" d="M825.3,237.9h-94.5c-3.4,0-6.3,2.9-6.3,6.3v60.4c0,3.4,2.9,6.3,6.3,6.3h39.7l-0.1,1.1
				c-0.6,4.9-2.9,7.4-6.7,7.4h-5.2c-0.5,0-1,0.5-1,1c0,0.5,0.5,1,1,1h39.4c0.5,0,1-0.5,1-1c0-0.5-0.5-1-1-1h-5.2
				c-3.9,0-6.3-2.7-6.7-7.4l-0.1-1h39.6c3.4,0,6.3-2.9,6.3-6.3v-60.4C831.5,240.7,828.7,237.9,825.3,237.9z M829.5,299.6h-103v-55.4
				c0-2.4,1.9-4.2,4.2-4.2h94.5c2.4,0,4.2,1.9,4.2,4.2V299.6z"/>
		</g>
	</g>
	<g>
		<g>
			<path class="st2" d="M825.3,140.3h-94.5c-3.4,0-6.3,2.9-6.3,6.3v60.4c0,3.4,2.9,6.3,6.3,6.3h39.7l-0.1,1.1
				c-0.6,4.9-2.9,7.4-6.7,7.4h-5.2c-0.5,0-1,0.5-1,1c0,0.5,0.5,1,1,1h39.4c0.5,0,1-0.5,1-1c0-0.5-0.5-1-1-1h-5.2
				c-3.9,0-6.3-2.7-6.7-7.4l-0.1-1h39.6c3.4,0,6.3-2.9,6.3-6.3v-60.4C831.5,143.1,828.7,140.3,825.3,140.3z M829.5,202h-103v-55.4
				c0-2.4,1.9-4.2,4.2-4.2h94.5c2.4,0,4.2,1.9,4.2,4.2V202z"/>
		</g>
	</g>
	<g>
		<path class="st2" d="M790.8,375.3h-3.9c-0.6,0-1.1,0.5-1.1,1.1v3.9c0,0.2,0.2,0.4,0.4,0.4c0.1,0,0.2,0,0.3-0.1l4.6-4.6
			c0.1-0.1,0.1-0.4,0-0.5C791,375.3,790.9,375.3,790.8,375.3z"/>
		<path class="st2" d="M790.6,353.2h-25c-0.8,0-1.5,0.7-1.5,1.5V380c0,0.8,0.7,1.5,1.5,1.5h17.3c0.4,0,0.7-0.3,0.7-0.7v-4.4
			c0-1.8,1.5-3.3,3.3-3.3h4.4c0.4,0,0.7-0.3,0.7-0.7v-17.6C792.1,353.9,791.4,353.2,790.6,353.2z M779.9,371.7h-10.7
			c-0.6,0-1.1-0.5-1.1-1.1c0-0.6,0.5-1.1,1.1-1.1h10.7c0.6,0,1.1,0.5,1.1,1.1C781,371.2,780.6,371.7,779.9,371.7L779.9,371.7z
			 M787.3,366.2h-18c-0.6,0-1.1-0.5-1.1-1.1c0-0.6,0.5-1.1,1.1-1.1h18c0.6,0,1.1,0.5,1.1,1.1C788.4,365.7,787.9,366.2,787.3,366.2z
			 M787.3,360.7h-18c-0.6,0-1.1-0.5-1.1-1.1c0-0.6,0.5-1.1,1.1-1.1h18c0.6,0,1.1,0.5,1.1,1.1C788.4,360.3,787.9,360.7,787.3,360.7z"
			/>
	</g>
	<g>
		<g>
			<path class="st2" d="M825.3,335.3h-94.5c-3.4,0-6.3,2.9-6.3,6.3v60.4c0,3.4,2.9,6.3,6.3,6.3h39.7l-0.1,1.1
				c-0.6,4.9-2.9,7.4-6.7,7.4h-5.2c-0.5,0-1,0.5-1,1c0,0.5,0.5,1,1,1h39.4c0.5,0,1-0.5,1-1c0-0.5-0.5-1-1-1h-5.2
				c-3.9,0-6.3-2.7-6.7-7.4l-0.1-1h39.6c3.4,0,6.3-2.9,6.3-6.3v-60.4C831.5,338.1,828.7,335.3,825.3,335.3z M829.5,397h-103v-55.4
				c0-2.4,1.9-4.2,4.2-4.2h94.5c2.4,0,4.2,1.9,4.2,4.2V397z"/>
		</g>
	</g>
	<g>
		<g>
			<path class="st2" d="M950.7,66.1h-94.5c-3.4,0-6.3,2.9-6.3,6.3v60.4c0,3.4,2.9,6.3,6.3,6.3h39.7l-0.1,1.1
				c-0.6,4.9-2.9,7.4-6.7,7.4h-5.2c-0.5,0-1,0.5-1,1c0,0.5,0.5,1,1,1h39.4c0.5,0,1-0.5,1-1c0-0.5-0.5-1-1-1h-5.2
				c-3.9,0-6.3-2.7-6.7-7.4l-0.1-1h39.6c3.4,0,6.3-2.9,6.3-6.3V72.4C957,69,954.1,66.1,950.7,66.1z M955,127.8H852V72.4
				c0-2.4,1.9-4.2,4.2-4.2h94.5c2.4,0,4.2,1.9,4.2,4.2V127.8z"/>
		</g>
	</g>
	<g>
		<path class="st2" d="M916.2,409.6h-3.9c-0.6,0-1.1,0.5-1.1,1.1v3.9c0,0.2,0.2,0.4,0.4,0.4c0.1,0,0.2,0,0.3-0.1l4.6-4.6
			c0.1-0.1,0.1-0.4,0-0.5C916.4,409.6,916.3,409.6,916.2,409.6z"/>
		<path class="st2" d="M916,387.6h-25c-0.8,0-1.5,0.7-1.5,1.5v25.3c0,0.8,0.7,1.5,1.5,1.5h17.3c0.4,0,0.7-0.3,0.7-0.7v-4.4
			c0-1.8,1.5-3.3,3.3-3.3h4.4c0.4,0,0.7-0.3,0.7-0.7V389C917.4,388.2,916.8,387.6,916,387.6z M905.3,406h-10.7
			c-0.6,0-1.1-0.5-1.1-1.1c0-0.6,0.5-1.1,1.1-1.1h10.7c0.6,0,1.1,0.5,1.1,1.1C906.4,405.5,905.9,406,905.3,406L905.3,406z
			 M912.7,400.5h-18c-0.6,0-1.1-0.5-1.1-1.1c0-0.6,0.5-1.1,1.1-1.1h18c0.6,0,1.1,0.5,1.1,1.1C913.8,400.1,913.3,400.5,912.7,400.5z
			 M912.7,395.1h-18c-0.6,0-1.1-0.5-1.1-1.1c0-0.6,0.5-1.1,1.1-1.1h18c0.6,0,1.1,0.5,1.1,1.1C913.8,394.6,913.3,395.1,912.7,395.1z"
			/>
	</g>
	<g>
		<g>
			<path class="st2" d="M950.7,369.1h-94.5c-3.4,0-6.3,2.9-6.3,6.3v60.4c0,3.4,2.9,6.3,6.3,6.3h39.7l-0.1,1.1
				c-0.6,4.9-2.9,7.4-6.7,7.4h-5.2c-0.5,0-1,0.5-1,1c0,0.5,0.5,1,1,1h39.4c0.5,0,1-0.5,1-1c0-0.5-0.5-1-1-1h-5.2
				c-3.9,0-6.3-2.7-6.7-7.4l-0.1-1h39.6c3.4,0,6.3-2.9,6.3-6.3v-60.4C957,372,954.1,369.1,950.7,369.1z M955,430.8H852v-55.4
				c0-2.4,1.9-4.2,4.2-4.2h94.5c2.4,0,4.2,1.9,4.2,4.2V430.8z"/>
		</g>
	</g>
	<g>
		<g>
			<path class="st2" d="M950.7,165.2h-94.5c-3.4,0-6.3,2.9-6.3,6.3v60.4c0,3.4,2.9,6.3,6.3,6.3h39.7l-0.1,1.1
				c-0.6,4.9-2.9,7.4-6.7,7.4h-5.2c-0.5,0-1,0.5-1,1c0,0.5,0.5,1,1,1h39.4c0.5,0,1-0.5,1-1c0-0.5-0.5-1-1-1h-5.2
				c-3.9,0-6.3-2.7-6.7-7.4l-0.1-1h39.6c3.4,0,6.3-2.9,6.3-6.3v-60.4C957,168.1,954.1,165.2,950.7,165.2z M955,226.9H852v-55.4
				c0-2.4,1.9-4.2,4.2-4.2h94.5c2.4,0,4.2,1.9,4.2,4.2V226.9z"/>
		</g>
	</g>
	<g>
		<g>
			<path class="st2" d="M897.7,307.9h-3.9c-0.6,0-1.1,0.5-1.1,1.1v3.9c0,0.2,0.2,0.4,0.4,0.4c0.1,0,0.2,0,0.3-0.1l4.6-4.6
				c0.1-0.1,0.1-0.4,0-0.5C897.8,308,897.8,307.9,897.7,307.9z"/>
			<path class="st2" d="M897.4,285.9h-25c-0.8,0-1.5,0.7-1.5,1.5v25.3c0,0.8,0.7,1.5,1.5,1.5h17.3c0.4,0,0.7-0.3,0.7-0.7V309
				c0-1.8,1.5-3.3,3.3-3.3h4.4c0.4,0,0.7-0.3,0.7-0.7v-17.6C898.9,286.6,898.3,285.9,897.4,285.9z M886.8,304.4h-10.7
				c-0.6,0-1.1-0.5-1.1-1.1c0-0.6,0.5-1.1,1.1-1.1h10.7c0.6,0,1.1,0.5,1.1,1.1C887.9,303.9,887.4,304.4,886.8,304.4L886.8,304.4z
				 M894.1,298.9h-18c-0.6,0-1.1-0.5-1.1-1.1c0-0.6,0.5-1.1,1.1-1.1h18c0.6,0,1.1,0.5,1.1,1.1C895.2,298.4,894.7,298.9,894.1,298.9z
				 M894.1,293.4h-18c-0.6,0-1.1-0.5-1.1-1.1c0-0.6,0.5-1.1,1.1-1.1h18c0.6,0,1.1,0.5,1.1,1.1C895.2,292.9,894.7,293.4,894.1,293.4z
				"/>
		</g>
		<g>
			<path class="st2" d="M934.7,307.9h-3.9c-0.6,0-1.1,0.5-1.1,1.1v3.9c0,0.2,0.2,0.4,0.4,0.4c0.1,0,0.2,0,0.3-0.1l4.6-4.6
				c0.1-0.1,0.1-0.4,0-0.5C934.9,308,934.8,307.9,934.7,307.9z"/>
			<path class="st2" d="M934.5,285.9h-25c-0.8,0-1.5,0.7-1.5,1.5v25.3c0,0.8,0.7,1.5,1.5,1.5h17.3c0.4,0,0.7-0.3,0.7-0.7V309
				c0-1.8,1.5-3.3,3.3-3.3h4.4c0.4,0,0.7-0.3,0.7-0.7v-17.6C936,286.6,935.3,285.9,934.5,285.9z M923.9,304.4h-10.7
				c-0.6,0-1.1-0.5-1.1-1.1c0-0.6,0.5-1.1,1.1-1.1h10.7c0.6,0,1.1,0.5,1.1,1.1C925,303.9,924.5,304.4,923.9,304.4L923.9,304.4z
				 M931.2,298.9h-18c-0.6,0-1.1-0.5-1.1-1.1c0-0.6,0.5-1.1,1.1-1.1h18c0.6,0,1.1,0.5,1.1,1.1C932.3,298.4,931.8,298.9,931.2,298.9z
				 M931.2,293.4h-18c-0.6,0-1.1-0.5-1.1-1.1c0-0.6,0.5-1.1,1.1-1.1h18c0.6,0,1.1,0.5,1.1,1.1C932.3,292.9,931.8,293.4,931.2,293.4z
				"/>
		</g>
	</g>
	<g>
		<g>
			<path class="st2" d="M950.7,267.1h-94.5c-3.4,0-6.3,2.9-6.3,6.3v60.4c0,3.4,2.9,6.3,6.3,6.3h39.7l-0.1,1.1
				c-0.6,4.9-2.9,7.4-6.7,7.4h-5.2c-0.5,0-1,0.5-1,1c0,0.5,0.5,1,1,1h39.4c0.5,0,1-0.5,1-1c0-0.5-0.5-1-1-1h-5.2
				c-3.9,0-6.3-2.7-6.7-7.4l-0.1-1h39.6c3.4,0,6.3-2.9,6.3-6.3v-60.4C957,269.9,954.1,267.1,950.7,267.1z M955,328.8H852v-55.4
				c0-2.4,1.9-4.2,4.2-4.2h94.5c2.4,0,4.2,1.9,4.2,4.2V328.8z"/>
		</g>
	</g>
	<g transform="translate(0,-952.36218)">
		<g>
			<path class="st2" d="M1209.1,1077.1c0.1-0.6,0.2-1,0.2-1.4l0-0.5l2.9-1.8l-1-3.6l-3.4,0l-0.3-0.4c-0.2-0.4-0.6-0.7-0.9-1.1
				l-0.4-0.4l0.8-3.3l-3.3-1.9l-2.5,2.4l-0.5-0.1c-0.4-0.1-0.9-0.2-1.4-0.2l-0.5,0l-1.8-2.9l-3.6,1l0,3.4l-0.4,0.3
				c-0.4,0.3-0.8,0.6-1.2,0.9l-0.4,0.4l-3.3-0.8l-1.9,3.3l2.4,2.5l-0.1,0.5c-0.1,0.6-0.2,1-0.2,1.4l0,0.5l-2.9,1.8l1,3.6l3.5,0
				l0.3,0.4c0.2,0.3,0.5,0.7,0.9,1.1l0.4,0.4l-0.8,3.3l3.3,1.9l2.5-2.4l0.5,0.1c0.5,0.1,0.9,0.2,1.4,0.2l0.5,0l1.8,2.9h0l3.6-1
				l0-3.4l0.4-0.3c0.4-0.3,0.8-0.6,1.2-0.9l0.4-0.3l3.3,0.8l1.9-3.3l-2.4-2.5L1209.1,1077.1z M1200.2,1080.1
				c-0.5,0.1-0.9,0.2-1.4,0.2c-2.2,0-4.3-1.5-4.9-3.7c-0.1-0.5-0.2-0.9-0.2-1.4c0-2.2,1.5-4.3,3.7-4.9c1.3-0.4,2.7-0.2,3.9,0.4
				c1.2,0.7,2.1,1.8,2.4,3.1C1204.5,1076.5,1202.9,1079.4,1200.2,1080.1z"/>
		</g>
		<g>
			<path class="st2" d="M1221,1051.1c0.1-0.3,0.1-0.6,0.1-0.9l0-0.5l2.2-1.4l-0.8-2.8l-2.7,0l-0.3-0.4c-0.2-0.2-0.4-0.5-0.5-0.7
				l-0.3-0.4l0.6-2.5l-2.5-1.4l-1.9,1.8l-0.5-0.1c-0.3,0-0.6-0.1-0.9-0.1l-0.5,0l-1.4-2.2l-2.8,0.8l0,2.7l-0.4,0.3
				c-0.2,0.2-0.5,0.3-0.7,0.5l-0.4,0.3l-2.6-0.6l-1.4,2.5l1.9,1.9l-0.1,0.5c-0.1,0.3-0.1,0.6-0.1,0.8l0,0.5l-2.2,1.4l0.8,2.8l2.7,0
				l0.3,0.4c0.2,0.2,0.4,0.4,0.5,0.7l0.4,0.4l-0.6,2.6l2.5,1.4l1.9-1.9l0.5,0.1c0.3,0,0.6,0.1,0.9,0.1l0.5,0l1.4,2.2l0,0l2.8-0.8
				l0-2.7l0.4-0.3c0.2-0.2,0.5-0.3,0.7-0.5l0.4-0.4l2.6,0.6l1.4-2.5l-1.9-1.9L1221,1051.1z M1214,1053.2c-0.3,0.1-0.7,0.1-1,0.1
				c-1.6,0-3-1-3.4-2.6c-0.3-0.9-0.2-1.9,0.3-2.7c0.5-0.8,1.2-1.4,2.2-1.7c0.9-0.3,1.9-0.2,2.7,0.3c0.8,0.5,1.4,1.2,1.7,2.2
				c0,0.2,0.1,0.2,0.1,0.4C1216.9,1050.9,1215.8,1052.7,1214,1053.2z"/>
		</g>
	</g>
	<rect x="1126" y="181" class="st2" width="20" height="20"/>
	<rect x="1158" y="181" class="st2" width="20" height="20"/>
	<rect x="1190" y="181" class="st2" width="20" height="20"/>
	<circle cx="1136" cy="191" r="6"/>
	<circle cx="1168" cy="191" r="6"/>
	<circle cx="1200" cy="191" r="6"/>
	<g>
		<path class="st2" d="M1127.7,117.5c-1.3-1-2.7-0.5-3.2,1c0,0-2.7,8.1,1.6,11.4c4.3,3.3,11.4-1.6,11.4-1.6c1.3-0.9,1.3-2.4,0.1-3.4
			L1127.7,117.5z"/>
		<path class="st2" d="M1175.1,71.2c-0.6-1.2-1.2-2.2-1.2-2.2c-0.5-0.8-1.6-1.6-2.5-1.9c0,0-1.1-0.3-2.4-0.5
			c-19.4-3.1-32.1,21.1-37.6,35.5c-2.4,6.3-2.9,8.6-2.9,8.6c-0.3,1.3,0.3,3.1,1.4,3.9l4.9,3.7l4.9,3.7c1.1,0.8,3,0.9,4.2,0.3
			c0,0,2-1.1,7.4-5.2C1163.6,107.9,1183.5,89,1175.1,71.2z M1163.6,91.6c-2.3,3-6.6,3.6-9.6,1.4c-3-2.3-3.6-6.6-1.4-9.6
			c2.3-3,6.6-3.6,9.6-1.4C1165.2,84.2,1165.8,88.6,1163.6,91.6z"/>
		<path class="st2" d="M1127.4,104.8c0.4-1,0.8-2.3,1.3-3.7c0.9-2.4,2.2-5.6,3.9-9.1c0.2-0.4,0-0.7-0.4-0.8l-7.3-1.3
			c-0.9-0.2-2.1,0.3-2.7,1l-4,5.3l-3,4c-1.1,1.5-0.5,2.9,1.3,3.3l9.9,1.8C1126.9,105.4,1127.3,105.2,1127.4,104.8z"/>
		<path class="st2" d="M1161.6,113.3c-0.2-0.4-0.6-0.4-0.9-0.2c-2.9,2.6-5.6,4.7-7.7,6.3c-1.2,0.9-2.2,1.6-3.1,2.3
			c-0.3,0.2-0.4,0.7-0.3,1.1l4.5,9c0.8,1.6,2.4,1.8,3.5,0.3l3-4l4-5.3c0.6-0.7,0.7-2,0.3-2.8L1161.6,113.3z"/>
	</g>
</g>
<g id="Calque_3">
</g>
<g id="Calque_4">
</g>
<g id="Calque_2">
</g>
</svg>
