<svg id="Layer_1" data-name="Layer 1" xmlns="http://www.w3.org/2000/svg" xmlns:xlink="http://www.w3.org/1999/xlink" viewBox="0 0 114.31 25.77"><defs><clipPath id="clip-path"><path d="M2.31,17.09a4,4,0,0,0,1.44,1.34,3.91,3.91,0,0,0,1.91.21A3.28,3.28,0,0,0,8.59,17.2a7.07,7.07,0,0,0,1-4.13,10.91,10.91,0,0,0-.23-2.44A4.9,4.9,0,0,0,8.69,9a2.71,2.71,0,0,0-1.1-1,3.44,3.44,0,0,0-1.47-.28A3.75,3.75,0,0,0,4,8.3,6.13,6.13,0,0,0,2.41,9.92Zm0-8.76a7.24,7.24,0,0,1,2-1.8,4.9,4.9,0,0,1,2.61-.67,4.76,4.76,0,0,1,2.14.49A4.51,4.51,0,0,1,10.7,7.77a6.92,6.92,0,0,1,1,2.33,12.53,12.53,0,0,1,.37,3.18,10.59,10.59,0,0,1-.4,3,7.21,7.21,0,0,1-1.17,2.4A5.31,5.31,0,0,1,6.19,20.8,4.72,4.72,0,0,1,4,20.34a5.14,5.14,0,0,1-1.6-1.24V25.5H0V6.11H1.44a.61.61,0,0,1,.64.53Z" style="fill:none;clip-rule:evenodd"/></clipPath><clipPath id="clip-path-2"><rect x="-164.87" y="-186.33" width="285.92" height="231.12" style="fill:none"/></clipPath><clipPath id="clip-path-3"><path d="M24.37,11.58A5.35,5.35,0,0,0,24.14,10a3.58,3.58,0,0,0-.7-1.27,3,3,0,0,0-1.07-.64,4,4,0,0,0-4.21.78,5.15,5.15,0,0,0-1.24,3Zm2,7.06a4.56,4.56,0,0,1-1.07,1,6.32,6.32,0,0,1-1.34.71,8.11,8.11,0,0,1-1.47.42,8.77,8.77,0,0,1-1.5,0,6.63,6.63,0,0,1-2.61-.49,5.75,5.75,0,0,1-2.07-1.48,6.94,6.94,0,0,1-1.37-2.44,10.4,10.4,0,0,1-.5-3.32,9,9,0,0,1,.43-2.83,6.73,6.73,0,0,1,1.27-2.3,5.77,5.77,0,0,1,2-1.52,6.38,6.38,0,0,1,2.67-.57,5.92,5.92,0,0,1,2.27.42,5.14,5.14,0,0,1,1.81,1.27,5.71,5.71,0,0,1,1.2,2,8,8,0,0,1,.43,2.75v.81l-.47.21H16.78a8.91,8.91,0,0,0,.37,2.4,4.92,4.92,0,0,0,.9,1.7,3.56,3.56,0,0,0,1.34,1,4.46,4.46,0,0,0,1.77.32,5,5,0,0,0,1.57-.21,7.11,7.11,0,0,0,1.14-.49l.8-.49.53-.21.47.25Z" style="fill:none;clip-rule:evenodd"/></clipPath><clipPath id="clip-path-5"><path d="M31.8,9a6.46,6.46,0,0,1,1.6-2.33,3.23,3.23,0,0,1,2.31-.85h.84l.7.32V8.05l-.4.35h-1.4a3.18,3.18,0,0,0-1.17.21,2.73,2.73,0,0,0-.9.6,4.23,4.23,0,0,0-.7,1,8.9,8.9,0,0,0-.57,1.34v9.15H29.69V6.22H31.6l.2.53Z" style="fill:none;clip-rule:evenodd"/></clipPath><clipPath id="clip-path-7"><path d="M41.93,6.11V20.59H39.52V6.11Zm.5-4.56v.71l-.37.56-.57.39H40.16l-.54-.39-.37-.56V1l.37-.6L40.16,0h.67a1.69,1.69,0,0,1,1.24.53l.37.46Z" style="fill:none;clip-rule:evenodd"/></clipPath><clipPath id="clip-path-9"><path d="M55,11.58A5.23,5.23,0,0,0,54.8,10a3.58,3.58,0,0,0-.7-1.27A3.08,3.08,0,0,0,53,7.87a4,4,0,0,0-4.21.78,5.12,5.12,0,0,0-1.24,3Zm2,7.06a4.57,4.57,0,0,1-1.07,1,6.32,6.32,0,0,1-1.34.71,8.11,8.11,0,0,1-1.47.42,8.77,8.77,0,0,1-1.5,0A6.66,6.66,0,0,1,49,20.27a5.78,5.78,0,0,1-2.07-1.48,6.94,6.94,0,0,1-1.37-2.44,10.39,10.39,0,0,1-.5-3.32,8.91,8.91,0,0,1,.43-2.83,6.67,6.67,0,0,1,1.27-2.15,5.77,5.77,0,0,1,2-1.52A6.38,6.38,0,0,1,51.46,6a5.92,5.92,0,0,1,2.27.42,5.17,5.17,0,0,1,1.81,1.27,5.78,5.78,0,0,1,1.2,2,8.05,8.05,0,0,1,.43,2.75v.81l-.47.21H47.44a8.91,8.91,0,0,0,.37,2.4,4.88,4.88,0,0,0,.9,1.7,3.56,3.56,0,0,0,1.34,1,4.46,4.46,0,0,0,1.77.32,5,5,0,0,0,1.57-.21,7.11,7.11,0,0,0,1.14-.49l.8-.49.54-.21.47.25Z" style="fill:none;clip-rule:evenodd"/></clipPath><clipPath id="clip-path-11"><path d="M62.49,8.05a8.65,8.65,0,0,1,.94-1,6.23,6.23,0,0,1,1.07-.74,5.33,5.33,0,0,1,1.2-.46,5.35,5.35,0,0,1,1.37,0,4.72,4.72,0,0,1,2,.39,3.87,3.87,0,0,1,1.44,1.13,5,5,0,0,1,.87,1.73,7.88,7.88,0,0,1,.3,2.26v9.22H69.18V11.37a4,4,0,0,0-.7-2.54,2.57,2.57,0,0,0-2.17-.92,3.88,3.88,0,0,0-2,.53,6.78,6.78,0,0,0-1.71,1.48V20.52H60.15V6h1.44a.61.61,0,0,1,.64.53Z" style="fill:none;clip-rule:evenodd"/></clipPath><clipPath id="clip-path-13"><path d="M84.82,8.65l-.23.25h-.74l-.6-.39a4.65,4.65,0,0,0-.87-.39,4,4,0,0,0-1.27,0,4,4,0,0,0-1.91-.07,3.38,3.38,0,0,0-1.3,1.09,5.1,5.1,0,0,0-.8,1.73,9.08,9.08,0,0,0-.27,2.26,8.89,8.89,0,0,0,.27,2.33,5.21,5.21,0,0,0,.8,1.73,3.38,3.38,0,0,0,1.27,1.06,3.73,3.73,0,0,0,1.67.35,4.06,4.06,0,0,0,1.71,0,4,4,0,0,0,.94-.49l.64-.49.5-.21.47.25.8,1a5,5,0,0,1-1,1,6,6,0,0,1-1.24.71,6.65,6.65,0,0,1-1.37.42,8.08,8.08,0,0,1-1.47,0,5.68,5.68,0,0,1-2.37-.49,5.47,5.47,0,0,1-1.91-1.45,7,7,0,0,1-1.27-2.33,10.87,10.87,0,0,1,0-6.14A6.9,6.9,0,0,1,76.5,8a5.75,5.75,0,0,1,2-1.55,6.38,6.38,0,0,1,2.74-.57,6,6,0,0,1,4.51,1.87Z" style="fill:none;clip-rule:evenodd"/></clipPath><clipPath id="clip-path-15"><path d="M97.13,11.58A5.24,5.24,0,0,0,96.89,10a3.58,3.58,0,0,0-.7-1.27,3.08,3.08,0,0,0-1.1-.81,4,4,0,0,0-4.21.78,5.12,5.12,0,0,0-1.24,3Zm2,7.06a4.6,4.6,0,0,1-1.07,1,6.55,6.55,0,0,1-1.34.71,8.11,8.11,0,0,1-1.47.42,8.74,8.74,0,0,1-1.5,0,6.66,6.66,0,0,1-2.61-.49A5.78,5.78,0,0,1,89,18.79a6.94,6.94,0,0,1-1.37-2.44,10.28,10.28,0,0,1-.5-3.32,8.8,8.8,0,0,1,.43-2.83,6.73,6.73,0,0,1,1.27-2.3,5.8,5.8,0,0,1,2-1.52,6.38,6.38,0,0,1,2.67-.57,5.93,5.93,0,0,1,2.27.42,5.17,5.17,0,0,1,1.81,1.27,5.71,5.71,0,0,1,1.2,2,8,8,0,0,1,.43,2.75v.81l-.47.21H89.57a8.91,8.91,0,0,0,.37,2.4,4.92,4.92,0,0,0,.9,1.7,3.56,3.56,0,0,0,1.34,1,4.46,4.46,0,0,0,1.77.32,5,5,0,0,0,1.57-.21,7.24,7.24,0,0,0,1.14-.49l.8-.49.53-.21.47.25Z" style="fill:none;clip-rule:evenodd"/></clipPath><clipPath id="clip-path-17"><path d="M101.58,4.24l10.77,10.59a1.22,1.22,0,0,0,1.63-.21,1.4,1.4,0,0,0,.07-1.74L103.28,2.3a1.22,1.22,0,0,0-1.63.21,1.4,1.4,0,0,0-.07,1.74" style="fill:none;clip-rule:evenodd"/></clipPath><clipPath id="clip-path-19"><path d="M103.28,25.25,114,14.65a1.4,1.4,0,0,0-.07-1.74,1.22,1.22,0,0,0-1.63-.21L101.58,23.31a1.37,1.37,0,0,0-.55,1.35,1.32,1.32,0,0,0,.94,1.07,1.23,1.23,0,0,0,1.31-.48" style="fill:none;clip-rule:evenodd"/></clipPath></defs><title>PERIENCE</title><g style="clip-path:url(#clip-path)"><g style="clip-path:url(#clip-path-2)"><rect x="-5" y="0.86" width="22.1" height="29.64" style="fill:#f1f2f2"/></g></g><g style="clip-path:url(#clip-path-3)"><g style="clip-path:url(#clip-path-2)"><rect x="9.41" y="0.83" width="22.11" height="24.97" style="fill:#f1f2f2"/></g></g><g style="clip-path:url(#clip-path-5)"><g style="clip-path:url(#clip-path-2)"><rect x="24.69" y="0.82" width="17.56" height="24.87" style="fill:#f1f2f2"/></g></g><g style="clip-path:url(#clip-path-7)"><g style="clip-path:url(#clip-path-2)"><rect x="34.25" y="-5" width="13.18" height="30.59" style="fill:#f1f2f2"/></g></g><g style="clip-path:url(#clip-path-9)"><g style="clip-path:url(#clip-path-2)"><rect x="40.07" y="0.97" width="22.11" height="24.83" style="fill:#f1f2f2"/></g></g><g style="clip-path:url(#clip-path-11)"><g style="clip-path:url(#clip-path-2)"><rect x="55.15" y="0.85" width="21.5" height="24.77" style="fill:#f1f2f2"/></g></g><g style="clip-path:url(#clip-path-13)"><g style="clip-path:url(#clip-path-2)"><rect x="69.82" y="0.86" width="21.08" height="24.94" style="fill:#f1f2f2"/></g></g><g style="clip-path:url(#clip-path-15)"><g style="clip-path:url(#clip-path-2)"><rect x="82.16" y="0.83" width="22.11" height="24.97" style="fill:#f1f2f2"/></g></g><g style="clip-path:url(#clip-path-17)"><g style="clip-path:url(#clip-path-2)"><rect x="96.31" y="-2.93" width="23.01" height="22.98" style="fill:#fff"/></g></g><g style="clip-path:url(#clip-path-19)"><g style="clip-path:url(#clip-path-2)"><rect x="96.01" y="7.49" width="23.31" height="23.28" style="fill:#fff"/></g></g></svg>