<svg id="Layer_1" data-name="Layer 1" xmlns="http://www.w3.org/2000/svg" xmlns:xlink="http://www.w3.org/1999/xlink" viewBox="0 0 39.09 72.46"><defs><clipPath id="clip-path"><path d="M26.51,55.12h0l-.27-.25ZM15.35,39.23h0v0ZM23,51.45h0l-.23-.25ZM11.77,37.25h0l-.2-.32ZM8.33,60.67h0l-.2.32Zm8.23-7.8h0l-.2.35Zm-3.81.35-.17.25ZM8.39,30.65h0l-.2-.39Zm2.44,4.45h0l.2.35ZM12,56.29,12.2,56ZM4.48,66.46h0l-.23.39Zm14-16.39v0Zm-4.75,2.08.2-.32Zm-1.6-15h0l-.23-.35ZM25.54,53.68h0l.3.35ZM9.7,33.12h0l.23.46Zm.8,22h0l.27-.35Zm7-4.27h0l-.27.46ZM8.86,31.71h0l-.2-.39Zm3.08,26.45h0l.27-.42Zm2.61-22.71h0l.23.46ZM9.6,32.77h0l-.2-.35ZM21.87,44.11h0l-.2.42Zm-8.12,5.51h0l-.2.39ZM10.9,35.1h0l-.27-.46Zm2.91-1.24h0l.23.46Zm-.6-1.24h0v0ZM9,62.12H9l-.27.42ZM13.07,56h0l.23-.42ZM8.46,59.11h0l-.27.42Zm4.25-6.6h0v0Zm2.91-6.32h0l-.1.35Zm-1.1,5h0l.33-.67ZM9.36,58.51l.23-.39v.32ZM11.67,37h0l-.33-.57ZM9.33,58h0v-.25H9.5Zm13.74-5.83.4.39Zm-4-12.5h0l.27-.57Zm-5.78,0h0l.4.6Zm1.2,1.2h0v0Zm-.4,10.95h0l.3-.6v.64ZM11.9,53.11l.23-.35Zm.67,1.77.23-.49v.57ZM36,62.36h0l-.57-.42ZM3.34,67.73h0L3.78,67ZM10,34.08h0l.4.71Zm5.78,17.16.23-.49Zm-3.18,1.52v0ZM11.17,35.63h0l.4.67C11.47,35.95,11.17,35.95,11.17,35.63Zm6.19,16.6h0l.3-.6ZM14.51,51h0l-.3.49v.21Zm1.1-12.78h0l-.37-.71ZM8.93,31.78h0l-.43-.85ZM4.85,65.68l-.3.46ZM14.51,24.3l.6.18h-.6Zm-11.77,45h0l.57-1ZM18.56,41.42l.33-.53ZM12.47,53.6h0l-.27.25v.32ZM6.79,62.82l-.37.35.23-.53ZM13,56.68l-.43.81a1.47,1.47,0,0,0,.3-1Zm15.88.71h0l-1-1ZM12.2,60.28l-.2.53.2-.39ZM19.53,40l-.4.81a1.75,1.75,0,0,0,0-1Zm-11-9.46h0l-.67-1.34Zm8.59-5.72h-.23v.28Zm-.8,27.79-.27.67V53l.27-.35Zm17.45,7h0l.8.64ZM17,48.59v.88a2.09,2.09,0,0,0,0-1.06Zm15.88-24h.7l-.84-.18ZM24.54,52.79h0l.94,1ZM12.27,55.48h0l.4-.81ZM6.92,62.93l.27-.46L7,62.82Zm1.64-1.2v.39l-.37.6.64-1Zm4.65-22.64h0l-.33-.53-.47-.78Zm.43,14.51h0l-.3.28-.2.74h.17l.3-1Zm-.5,0h0a4.05,4.05,0,0,0,.67-1.24Zm-.74-29.7h0l1.14.32H13ZM7.29,62v-.49l-.47.78Zm6.32-22.56h0L15,41.56v-.28l-.54-.6-.3-.46-.27-.46Zm7.76-4.38h0l-1.1,2.47Zm-4.65,8.83h0l-1.64-2.19.17.25.57.78.7.92ZM5.65,25.07a12.88,12.88,0,0,0-1-2.75Zm17.72-.57H17.55a17.33,17.33,0,0,1-5.15-.85h-.33l.2.81v1.09l.3,1.38v.49l.27.85.4,1.17.27.78.5,1.2.53,1.27.57,1.2.67,1.45.33.67.67,1.31.64,1.17.87,1.59.47.78.33-.64.37-.64.2-.35V39l.23-.39v-.35l.23-.53v-.6l.3-.6v-.32l.87-2.08.87-2.22.4-1.09v.6l-.4,1.09-.67,1.66-.43,1-.2.53-.57,1.27-.4,1-.64,1.38.47-1,.37-.92.27-.67.53-1.2.43-1.06.54-1.31L22.3,32l.27-.67L23,30c.17-.6.37-1.2.53-1.8a17.62,17.62,0,0,0,.37-1.8,7.14,7.14,0,0,1,.23-1.7v-.07ZM5.62,64.62h0v-.21l-.23.35h.27v.49l1.2-2-.23.28-.2.21-.23.28-.3.42ZM9.83,33.41l-.2-.32.2.32.4.74.27.46-.4-.74-.23-.39Zm4.68,19.14V52.3l-.33.67.23-.39.37-.78h-.27ZM5,23.66v.56l-.2-.53a2.55,2.55,0,0,0-.4-1l.2.57ZM17.19,50.43l-.23.39h-.2V51l-.17.25-.27.64.23-.42v-.64l.23-.46v-.32l.27-.39ZM2.61,69.25v.21l.27-.28h-.2l-.27.71v-.6ZM6,63.7H6l.2-.35L5.78,64l-.33.46.5-.53Zm12.87-15,.17-.21.2-.46-.33.67-.2.32ZM4.91,65.29l-.2.25L4.48,66l.4-.71.27-.39Zm8.86-25.81-.27-.35.27.35.33.49ZM6.32,27.69V27.3l.2.39.2.53Zm-1-2.9v.39l.27.67V24.22Zm7.86,25.5v-.21l.27-.49-.23.49.43-.71-.2.25.27-.53.33-.6-.23.39v-.28l.54-.88.67-1V45a.33.33,0,0,1-.1.24.29.29,0,0,1-.23.08V44.6l-.2-.53-.57-.78-.43-.57-.84-1.13-.6-.88-.64-.92-1-1.48-.74-1.24-.5-.88-.84-1.41-.57-1.38-.37-.64L8,30.33,7,28.25a2.5,2.5,0,0,0-.43-1l-.33-.81-.43-1.06v-.21L6.52,27l-.23-.46-.23-.46A20.53,20.53,0,0,0,6.82,28l.87,1.91-.23-.46v.14l-.2-.53-.43-1,.2.42v.53H6.55l-.2-.32-.2-.32V25.35l-1.67-2-.23-.67-.43-1.09v-.25h-.2v-.49l.3-.28-.43-.28-1.14-.67-1-.57-.2-.35H.94l.23-.64.2-.46.33-.6v-.18l.37-.46.2-.25.43-.35v-.25l.54-1h.2l.27-.39h.4l.37-.46h.27l.6.56,1.14,1,1.2,1,1,.78,1.4,1,1.27.81.8.46.47.28,1.71.92,1.37.67.84.42.74.28h.4l.57.21H34.57l-1.6.21.4-.25a.45.45,0,0,0-.57,0H31.23v3.53h-.9a5.6,5.6,0,0,1,0,1.24v.39a6.9,6.9,0,0,1-.27,1.48l-.37,1.45v.57a7.22,7.22,0,0,1-.54,1.13V32l-.37.74-.37.71L28,34v.42l-.2.42v.25l-.47.81-.33.64-.8,1.7-.4.64a1.35,1.35,0,0,0-1.27.64v.42l-.27.53-.17.39-.3.57-.23.42v-.57l-.3.57-.3.42.3-.42-.5,1V42.3l-.4.71v.21l-.37.64v.6l-.3.64v.28l.84,1.17,1.27,1.66.77,1,1.34,1.66,1.2,1.38.8.92,1,1.13.94,1,.37.46.33.28.2.28.23.18.87.81.84.67.57.46L35,59.71l.43.32v.21h-.87v.21l.43.32.33.28-.77-.39.94.71.8.64.77.64c-.33,0-.57-.49-.94-.56l.47.42h-.33l-.47-.28.64.49.43.32.6.49a.76.76,0,0,1-.57-.32l-.2-.32-.33-.21L36,62.47l2.24,1.66-.37-.28,1.17.88-.4-.28-1.3-1h-.2l-.27-.21.23.18-.74-.6L36,62.68l-1.4-1.09.4.35.3.21,1,.78.5.39.57.42-2.81-1.55.47.32h.2l-.43-.28-.43-.35-.4-.32-.3-.18-.33-.21-.17-.25-.23-.25a.29.29,0,0,1-.23-.11.33.33,0,0,1-.08-.25h-.2L32.06,60a10.75,10.75,0,0,1-.94-.88l-.37-.28H31l.77.6.43.39.27.25.67.53h.3l-.5-.39-.47-.39-.57-.42-.37-.28h-.3l-.33-.42-.33-.39L30,57.88h-.27l.2.35.5.46L30,58.3,29.59,58l1.77,1.62-.13-.35L30.76,59l-.37-.42h-.27l-.5-.49-.23-.21h-.2l-.67-.64h-.3l-.7-.67-.4-.25-.2-.32v.21h-.2v.18l.57.6-.5-.46-.4-.42v-.35l-.3-.32v.28l-.23-.28h-.27v-.28l-.77-1.52-.54-.53-.17-.25-.27-.25L23.27,52H23l.33.21L23,51.8a.33.33,0,0,1-.25-.12.37.37,0,0,1-.09-.27l-.27-.35-.33-.42.27.25.27.32v.21l-.5-.53v.21l.9,1,.54.57.2.21.5.57.3.18.74.71.53.6-.33-.28-.94-.71-1.27-1.34-.77-.88-.84-.92-.27-.28-.2-.42v.39l-1.74-2.08v.25l.57.67.23.35.2.25L20,49.4l-.23-.32v.18l-.3.49L18.82,51v.49l-.67,1.17-.4.78-.9.21-1,1.77-.5.85V55.9l.8-1.45.74-1.31v0l-.07.42-.43.78.27-.53-.37.67-.23.25-.3.53.2-.42.3-.46.2-.42h.2V53.6l.3-.53v-.25l.2-.39.43-.78L18,51.1l.4-.78-2.44,4.45-.3.57.2-.32-.64,1.17v-.49L15,56v.67l-.27.46-.33.57v.67l-.2.32-.4.74-.43.71-.54,1L12.3,62l-.33.64-.53.92-.47.85,4-7.06L9.8,64.2l.33-.6.23-.46.4-.74v-.21l.27-.49v-.74l-.3.21.77-1.38V60l.27-.46-.2.25L12,59l.5-.88v-.21l.7-.81v-.57l-.2.25v-.35l.2-.32.57-1,.4-.78V54l-.4.49-.2.35v.78l-.23.39c-.2,0,0,.46-.37.57l-.33.57-.37.71-.33.64-.37.57v.21l-.5.92-.2.35-.23.32v.49l-.23.39L10.2,62l-.3.42v.25L9.7,63l-.2.53v.53l-.2.39.37-.74V64l-.27.39-.27.53-.37.67-.3.46v-.46l-.53.85v-.6l.47-.74.47-.74.43-.78.43-.81.27-.46v-.21L8.66,64.48l.7-1.31v-.57l.2-.42.3-.49.43-.85c-.3.39-.57.85-.87,1.27l-.87,1.31V63l.23-.39c.2-.32.4-.64.57-1a.78.78,0,0,1,.07-.57.71.71,0,0,1,.43-.35l.37-.71h.2v-.28l.37-.49.4-.74.7-1.27-.2.21-.23.35-.17.28-.3.39v.28l-.33.64v.21l-.33.49L9.6,61.27l-.67,1.09-.5.78-.6.71.84-1.31L7.42,64.41l.23-.35c-.27.21-.33.6-.67.81a.49.49,0,0,1,.33-.46V64l.23-.39.4-.67.43-.64.47-.78.2-.39.1-.46.37-.6L10,59.4v-.21l-.23.21.23-.57v-.35l.4-.67.47-.88a8,8,0,0,1,.57-1v.28l-.17.35-.47.67v.32l-.23.42-.23.32v.21l-1.2,1.87-.67,1.09-.7,1.06L6.79,64l-.67,1.13-.64,1-.8,1.31L3.74,69l-.8,1.34-.27.42.27-.42.5-.92L3.68,69l.57-1,.33-.6.4-.57.77-1.27v-.28l-.33.49v-.28l.23-.42-.23.42-.3.39-.3.53-.27.42-.17.42-.3.46-.3.46v.67l-.2.32-.17.46-.27.49v.11l-2,1-.2.21L.5,72H.33L0,72.46v-.25l.37-.71L.7,71v-.21l.43-.71.33-.6.3-.46.37-.67.17-.32.5-.35L3.24,67l.4-.71.27-.39.3-.49.4-.57L5,64.16l.27-.46v-.32l.3-.46.53-.85v-.25l.43-.71.3-.49.27-.46.17-.25v-.25l.27-.53v-.28l.27-.46.3-.46.23-.32v-.28l.27-.56L9.09,56l.27-.39v-.28l.27-.42.27-.35.3-.64v.28h.7l.27-.64.6-1L12,52.3l.37-.46.4-.71.2-.21v-.21Z" style="fill:none;clip-rule:evenodd"/></clipPath><clipPath id="clip-path-2"><rect x="-125.92" y="-158.44" width="285.92" height="231.12" style="fill:none"/></clipPath><clipPath id="clip-path-3"><path d="M16.25,2.26l-.2.42V2.9l-.47,1.38-.2.6-.5,1.45V6l.53-1.62L16,2.61V1.84L16.48.67v.46l.27-.6L17,0V.39L17.19,0V1h.23v.46h.2V4.31h.23v5.86l.33,1.27a4.83,4.83,0,0,0,.3,1.13c0,.39,0,0,.2.28l.2.32.33.42v.28h-.74L18,13.49h-.17a2.06,2.06,0,0,1-1.1-.88H15.21l-.33-.32H13.21l1.24.35v-.53a1.47,1.47,0,0,1-.6-1.24,5.67,5.67,0,0,1,0-1.45,7.86,7.86,0,0,1,.5-1.94l.3-1V8.4L15,7l.6-1.84v-1l.23-.67.2-.49V2.51L16.35,2V1.77l-.23.57Z" style="fill:none;clip-rule:evenodd"/></clipPath><clipPath id="clip-path-5"><polygon points="9.09 33.58 9.09 33.27 8.89 32.81 8.66 32.35 8.26 31.57 8.06 31.18 8.32 31.5 8.13 31.07 9.93 34.61 8.59 32.42 7.82 31 7.99 31.36 8.46 32.35 8.73 32.81 9.06 33.37 9.09 33.58" style="fill:none;clip-rule:evenodd"/></clipPath><clipPath id="clip-path-7"><path d="M8,30.86c-.64-1.2-1.17-2.47-1.71-3.71l.3.71L7.16,29l.43,1,.33.64Z" style="fill:none;clip-rule:evenodd"/></clipPath><clipPath id="clip-path-9"><path d="M10.83,36.34l-1.5-2.61Z" style="fill:none;clip-rule:evenodd"/></clipPath><clipPath id="clip-path-11"><polygon points="9.09 33.58 9.09 33.58 9.39 34.04 9.83 34.78 9.06 33.48 9.09 33.58" style="fill:none;clip-rule:evenodd"/></clipPath><clipPath id="clip-path-13"><polygon points="10.93 36.37 11.7 37.64 10.9 36.37 10.93 36.37" style="fill:none;clip-rule:evenodd"/></clipPath><clipPath id="clip-path-15"><polygon points="22.1 32.2 22.1 32.2 21.87 32.84 21.67 33.34 22.17 32.13 22.1 32.2" style="fill:none;clip-rule:evenodd"/></clipPath></defs><title>X</title><g style="clip-path:url(#clip-path)"><g style="clip-path:url(#clip-path-2)"><rect x="-5" y="8.7" width="49.09" height="68.76" style="fill:#fff"/></g></g><g style="clip-path:url(#clip-path-3)"><g style="clip-path:url(#clip-path-2)"><rect x="8.21" y="-5" width="16.02" height="23.88" style="fill:#fff"/></g></g><g style="clip-path:url(#clip-path-5)"><g style="clip-path:url(#clip-path-2)"><rect x="2.82" y="26" width="12.11" height="13.6" style="fill:#fff"/></g></g><g style="clip-path:url(#clip-path-7)"><g style="clip-path:url(#clip-path-2)"><rect x="1.32" y="22.16" width="11.71" height="13.71" style="fill:#fff"/></g></g><g style="clip-path:url(#clip-path-9)"><g style="clip-path:url(#clip-path-2)"><rect x="4.33" y="28.72" width="11.5" height="12.61" style="fill:#fff"/></g></g><g style="clip-path:url(#clip-path-11)"><g style="clip-path:url(#clip-path-2)"><rect x="4.06" y="28.48" width="10.77" height="11.31" style="fill:#fff"/></g></g><g style="clip-path:url(#clip-path-13)"><g style="clip-path:url(#clip-path-2)"><rect x="5.9" y="31.37" width="10.8" height="11.27" style="fill:#fff"/></g></g><g style="clip-path:url(#clip-path-15)"><g style="clip-path:url(#clip-path-2)"><rect x="16.67" y="27.13" width="10.5" height="11.2" style="fill:#fff"/></g></g></svg>