<svg id="Layer_1" data-name="Layer 1" xmlns="http://www.w3.org/2000/svg" xmlns:xlink="http://www.w3.org/1999/xlink" viewBox="0 0 108.64 25.93"><defs><clipPath id="clip-path"><path d="M26.79,8.93l-.2.25h-.7l-.6-.39a4.45,4.45,0,0,0-.87-.39A3.93,3.93,0,0,0,23,8.05a4,4,0,0,0-1.77.39,3.38,3.38,0,0,0-1.3,1.09,5.07,5.07,0,0,0-.77,1.73,9,9,0,0,0-.27,2.26,8.62,8.62,0,0,0,.3,2.33,5.1,5.1,0,0,0,.8,1.73,3.38,3.38,0,0,0,1.27,1.06,3.73,3.73,0,0,0,1.67.35,3.72,3.72,0,0,0,2.37-.71l.64-.49.4-.21.47.25.67.92a5,5,0,0,1-1,1,6.06,6.06,0,0,1-1.24.71,6.42,6.42,0,0,1-1.37.42,8.08,8.08,0,0,1-1.47,0A5.68,5.68,0,0,1,20,20.38a5.47,5.47,0,0,1-1.91-1.45,7,7,0,0,1-1.27-2.33,10.9,10.9,0,0,1,0-6.14,6.86,6.86,0,0,1,1.24-2.37,5.71,5.71,0,0,1,2-1.55A6.38,6.38,0,0,1,22.81,6a6.15,6.15,0,0,1,2.54.49,6.07,6.07,0,0,1,2,1.38Z" style="fill:none;clip-rule:evenodd"/></clipPath><clipPath id="clip-path-2"><rect x="-17.15" y="-186.33" width="285.92" height="231.12" style="fill:none"/></clipPath><clipPath id="clip-path-3"><path d="M32.47,9.25a6.53,6.53,0,0,1,1.6-2.33,3.23,3.23,0,0,1,2.31-.85h.84l.7.32L37.75,8.3l-.4.35h-1.4a3.18,3.18,0,0,0-1.17.21,2.76,2.76,0,0,0-.9.6,4.26,4.26,0,0,0-.7,1,8.68,8.68,0,0,0-.57,1.34v9.15H30.2V6.46H32.1l.2.53Z" style="fill:none;clip-rule:evenodd"/></clipPath><clipPath id="clip-path-5"><path d="M48.65,11.87a5.24,5.24,0,0,0-.23-1.62A3.58,3.58,0,0,0,47.72,9a3.08,3.08,0,0,0-1.1-.81,4,4,0,0,0-4.21.78,5.12,5.12,0,0,0-1.24,3Zm1.94,6.78a4.6,4.6,0,0,1-1.07,1,6.26,6.26,0,0,1-1.34.71,8.17,8.17,0,0,1-1.47.42,8.77,8.77,0,0,1-1.5,0,6.66,6.66,0,0,1-2.61-.49,5.75,5.75,0,0,1-2.07-1.48,7.16,7.16,0,0,1-1.37-2.44,10.43,10.43,0,0,1-.5-3.32,8.91,8.91,0,0,1,.43-2.83,6.71,6.71,0,0,1,1.27-2.15,5.87,5.87,0,0,1,2-1.52A6.38,6.38,0,0,1,45,6a5.89,5.89,0,0,1,2.27.42,5.14,5.14,0,0,1,1.81,1.27,5.82,5.82,0,0,1,1.2,2,8.13,8.13,0,0,1,.43,2.75v.81l-.47.21H41.06a8.84,8.84,0,0,0,.37,2.4,4.92,4.92,0,0,0,.9,1.7,3.62,3.62,0,0,0,1.37,1,4.39,4.39,0,0,0,1.77.32A4.93,4.93,0,0,0,47,18.65a7.17,7.17,0,0,0,1.14-.49l.8-.49.53-.21.47.25Z" style="fill:none;clip-rule:evenodd"/></clipPath><clipPath id="clip-path-7"><path d="M61.22,14.34a19.22,19.22,0,0,0-2.84.28,7.77,7.77,0,0,0-2,.49,2.66,2.66,0,0,0-1.07.85A1.87,1.87,0,0,0,55,17.06a2.53,2.53,0,0,0,0,1l.47.67.7.39h.9a4.75,4.75,0,0,0,1.17,0,4.33,4.33,0,0,0,1-.39,5.52,5.52,0,0,0,.9-.6L61,17.3ZM53.43,8.4a7.85,7.85,0,0,1,2.44-1.73,7.23,7.23,0,0,1,2.91-.57,5,5,0,0,1,2,.39,4.26,4.26,0,0,1,1.5,1.13,4.77,4.77,0,0,1,.94,1.73,7.43,7.43,0,0,1,.3,2.22v9.25H62l-.3-.49L61.39,19l-1.07.92A5.74,5.74,0,0,1,58,21a6.33,6.33,0,0,1-1.44,0,4.68,4.68,0,0,1-1.5-.25A3.41,3.41,0,0,1,53,18.82a4.37,4.37,0,0,1-.3-1.7,3.33,3.33,0,0,1,.33-1.66,4,4,0,0,1,1.44-1.41,9.19,9.19,0,0,1,2.61-1,19,19,0,0,1,3.95-.46v-1A4,4,0,0,0,60.35,9a2.44,2.44,0,0,0-2-.88,4.1,4.1,0,0,0-1.5.25,5.4,5.4,0,0,0-1,.53L55,9.46l-.64.25h-.33l-.3-.35Z" style="fill:none;clip-rule:evenodd"/></clipPath><clipPath id="clip-path-9"><path d="M80.42,1.7V2.4L80,3l-.53.39H78.18L77.64,3l-.37-.56V1l.37-.6L78.18,0h1.34L80,.39l.37.6Zm-.6,19.14H77.41V8.48H70.32v8.69a1.9,1.9,0,0,0,.43,1.34,1.43,1.43,0,0,0,1.07.46h.67l.64-.32.33-.25h.27l.33.25.7,1.2a4.44,4.44,0,0,1-1.5,1,4.91,4.91,0,0,1-1.81.35,3.24,3.24,0,0,1-2.51-1,4,4,0,0,1-.87-2.75v-9h-2V7l2.24-.32.57-4.45V1.91h1.57V6.64h9.36Z" style="fill:none;clip-rule:evenodd"/></clipPath><clipPath id="clip-path-11"><path d="M95.5,6.36,89.84,20.83H87.67L82.09,6.36h2a.74.74,0,0,1,.74.53l3.34,9.32a3.67,3.67,0,0,0,.3,1l.23,1,.23-1a3.2,3.2,0,0,1,.3-1l3.34-9.32.27-.39h.43Z" style="fill:none;clip-rule:evenodd"/></clipPath><clipPath id="clip-path-13"><path d="M106.56,12a5.24,5.24,0,0,0-.23-1.62,3.58,3.58,0,0,0-.7-1.27,3.08,3.08,0,0,0-1.1-.81,4,4,0,0,0-4.21.78,5.12,5.12,0,0,0-1.24,3Zm1.91,6.64a4.5,4.5,0,0,1-1.07,1,6.19,6.19,0,0,1-1.34.71,8.17,8.17,0,0,1-1.47.42,8.77,8.77,0,0,1-1.5,0,6.66,6.66,0,0,1-2.61-.49,5.68,5.68,0,0,1-2.07-1.48A6.94,6.94,0,0,1,97,16.35a10.43,10.43,0,0,1-.5-3.32A8.91,8.91,0,0,1,97,10.21a6.73,6.73,0,0,1,1.27-2.3,5.87,5.87,0,0,1,2-1.52,6.38,6.38,0,0,1,2.67-.57,5.89,5.89,0,0,1,2.27.42A5.14,5.14,0,0,1,107,7.52a5.78,5.78,0,0,1,1.2,2,8.16,8.16,0,0,1,.43,2.75v.81l-.47.21H98.94a8.84,8.84,0,0,0,.37,2.4,4.92,4.92,0,0,0,.9,1.7,3.59,3.59,0,0,0,1.37,1,4.41,4.41,0,0,0,1.64.18,4.89,4.89,0,0,0,1.57-.21,7.47,7.47,0,0,0,1.14-.49l.8-.49.53-.21.47.25Z" style="fill:none;clip-rule:evenodd"/></clipPath><clipPath id="clip-path-15"><path d="M11.07,2.75.27,13.35a1.4,1.4,0,0,0,.07,1.74A1.22,1.22,0,0,0,2,15.29L12.78,4.7A1.4,1.4,0,0,0,12.71,3a1.22,1.22,0,0,0-1.63-.21" style="fill:none;clip-rule:evenodd"/></clipPath><clipPath id="clip-path-17"><path d="M12.71,23.77,1.91,13.17a1.22,1.22,0,0,0-1.58.26,1.4,1.4,0,0,0-.09,1.69L11,25.71a1.22,1.22,0,0,0,1.63-.21,1.4,1.4,0,0,0,.07-1.74" style="fill:none;clip-rule:evenodd"/></clipPath></defs><title>CREATIVE</title><g style="clip-path:url(#clip-path)"><g style="clip-path:url(#clip-path-2)"><rect x="11.38" y="0.97" width="21.07" height="24.94" style="fill:#f1f2f2"/></g></g><g style="clip-path:url(#clip-path-3)"><g style="clip-path:url(#clip-path-2)"><rect x="25.2" y="1.07" width="17.72" height="24.87" style="fill:#f1f2f2"/></g></g><g style="clip-path:url(#clip-path-5)"><g style="clip-path:url(#clip-path-2)"><rect x="33.65" y="0.97" width="22.11" height="24.83" style="fill:#f1f2f2"/></g></g><g style="clip-path:url(#clip-path-7)"><g style="clip-path:url(#clip-path-2)"><rect x="47.73" y="1.11" width="20.84" height="24.91" style="fill:#f1f2f2"/></g></g><g style="clip-path:url(#clip-path-9)"><g style="clip-path:url(#clip-path-2)"><rect x="61.07" y="-5" width="24.34" height="31.16" style="fill:#f1f2f2"/></g></g><g style="clip-path:url(#clip-path-11)"><g style="clip-path:url(#clip-path-2)"><rect x="77.09" y="1.36" width="23.41" height="24.48" style="fill:#f1f2f2"/></g></g><g style="clip-path:url(#clip-path-13)"><g style="clip-path:url(#clip-path-2)"><rect x="91.53" y="0.83" width="22.11" height="24.97" style="fill:#f1f2f2"/></g></g><g style="clip-path:url(#clip-path-15)"><g style="clip-path:url(#clip-path-2)"><rect x="-5" y="-2.47" width="23.04" height="22.98" style="fill:#fff"/></g></g><g style="clip-path:url(#clip-path-17)"><g style="clip-path:url(#clip-path-2)"><rect x="-5" y="7.99" width="23.01" height="22.94" style="fill:#fff"/></g></g></svg>