<svg xmlns="http://www.w3.org/2000/svg" xmlns:xlink="http://www.w3.org/1999/xlink" viewBox="0 0 237.12 198.19"><defs><clipPath id="clip-path"><path d="M153.2,9c0-3.76,2.88-5.82,6.42-4.61L234.7,30.14V191.28c0,3.76-2.75,5.49-6.13,3.88l-75.37-36Z" style="fill:none;clip-rule:evenodd"/></clipPath><clipPath id="clip-path-2"><rect x="2.42" y="2.26" width="498" height="193.69" style="fill:none"/></clipPath><clipPath id="clip-path-3"><path d="M154.47,5.27a3.52,3.52,0,0,1,4-1.44L234.7,30.14l-81.5,129.2-44.82-78.2Z" style="fill:none;clip-rule:evenodd"/></clipPath><clipPath id="clip-path-5"><polygon points="83.92 32.87 153.2 159.35 83.92 125.35 83.92 32.87" style="fill:none;clip-rule:evenodd"/></clipPath><clipPath id="clip-path-7"><path d="M2.42,7.17c0-3.76,2.82-5.68,6.3-4.28L83.92,33V189.4c0,3.76-2.73,5.48-6.12,3.84L8.54,159.73A11.84,11.84,0,0,1,2.42,150Z" style="fill:none;clip-rule:evenodd"/></clipPath></defs><title>Asset 1</title><g id="Layer_2" data-name="Layer 2"><g id="Layer_1-2" data-name="Layer 1"><g style="clip-path:url(#clip-path)"><g style="clip-path:url(#clip-path-2)"><rect x="150.77" y="1.66" width="86.35" height="196.53" style="fill:#d0d3d3"/></g></g><g style="clip-path:url(#clip-path-3)"><g style="clip-path:url(#clip-path-2)"><rect x="105.95" y="1.24" width="131.17" height="160.54" style="fill:#a6a8ab"/></g></g><g style="clip-path:url(#clip-path-5)"><g style="clip-path:url(#clip-path-2)"><rect x="81.5" y="30.43" width="74.12" height="131.35" style="fill:#808184"/></g></g><g style="clip-path:url(#clip-path-7)"><g style="clip-path:url(#clip-path-2)"><rect width="86.35" height="196.3" style="fill:#58595b"/></g></g></g></g></svg>