<svg xmlns="http://www.w3.org/2000/svg" xmlns:xlink="http://www.w3.org/1999/xlink" viewBox="0 0 317.45 295.68"><defs><clipPath id="clip-path" transform="translate(0 0)"><rect x="79.72" width="158" height="158" style="fill:none"/></clipPath></defs><title>Asset 3</title><g id="Layer_2" data-name="Layer 2"><g id="Layer_1-2" data-name="Layer 1"><g id="Artwork_8" data-name="Artwork 8"><g style="clip-path:url(#clip-path)"><g style="clip-path:url(#clip-path)"><path d="M158.73,0a79,79,0,1,0,79,79,79,79,0,0,0-79-79m47.42,104c-.08.28-.08.72-.26.82-.69.39-1.44.67-2.17,1-1.69.76-3.33,1.44-5.26.55a10.51,10.51,0,0,0-3.12-.34c.33,2.09.69,4,.93,6,.46,3.78.93,7.57,1.24,11.37a9.81,9.81,0,0,1-.48,3.64c-1.18,3.76-4.53,5.36-8.39,4a16.34,16.34,0,0,1-3.91-2.19c-2.52-1.83-5-3.8-7.41-5.73a6.32,6.32,0,0,1-.75-.85l-.34-.3c-.63-.36-1.27-.69-1.88-1.09-8.56-5.72-17-11.59-26.12-16.47a104.38,104.38,0,0,0-17.93-7.67,11.31,11.31,0,0,0-2.59-.53,1.65,1.65,0,0,0-2,1.75,48.76,48.76,0,0,0,.59,11.87c.9,5.15,3.22,9.69,5.8,14.14.26.46.82.77,1,1.24a3.12,3.12,0,0,1,.36,2,2,2,0,0,1-1.64.92c-6.25-.18-10.75-3-11.89-10-1.1-6.9-1.9-13.84-1.21-20.85.13-1.26.32-2.53.54-3.78a7.76,7.76,0,0,1,5.57-6.31q10.34-3.64,20.61-7.5c12.68-4.79,25.33-9.68,38-14.53.35-.14.69-.3,1-.45v-.33c-2.34-.28-4.67-.71-7-.8-11.8-.45-23.61-.24-35.39.48-4.46.27-8.92.69-13.37,1.18a58.14,58.14,0,0,0-6.31,1.22c-1.08.24-2.12.41-2.84-.59s-.35-2,.24-2.91a8.14,8.14,0,0,1,7.3-4.09c5.94,0,11.89,0,17.83,0,4.65,0,9.31-.05,14,0,1.64,0,3.27.21,4.91.32l.12-.33L152.46,51.5l.27-.5,3.06,1.39c-3.12-3.17-24.32-13.31-30.69-14.64l1.42.89,0,.25a8,8,0,0,1-1.35-.12c-3-.79-6-1.56-9-2.46-.59-.18-1.42-.91-1.41-1.37a2.23,2.23,0,0,1,1.23-1.67c5-1.66,10-2.69,15.22-.6a121.13,121.13,0,0,1,20,10.87c2.14,1.37,4.23,2.84,6.37,4.21a1.58,1.58,0,0,0,1.31.16c8.86-4.67,17.89-9,26.32-14.51,1.91-1.24,3.8-2.51,5.63-3.86a6.8,6.8,0,0,0,1.59-1.86,2.21,2.21,0,0,1,2.54-1.09,9,9,0,0,1,5.8,4.95c.58,1.13-.25,3-1.65,3.79-4.1,2.37-8.18,4.77-12.3,7.12-6.89,3.93-13.81,7.84-20.8,11.8,2,1.43,4.12,2.92,6.24,4.38a2,2,0,0,0,1,.16,75.91,75.91,0,0,1,18,2.54,11.71,11.71,0,0,1,2.23.94c2.22,1.18,2.39,3.33.32,4.77a24.56,24.56,0,0,1-4.22,2.4q-6.94,3-14,5.86-17.67,7.15-35.38,14.22c-.56.22-1.1.48-1.56.68L188,96.81c0-.86.06-1.88,0-2.89-.14-1.81-.36-3.6-.54-5.41a1.59,1.59,0,0,1,1.06-1.85c.85-.28,1.86-.27,2.25.62.76,1.7,1.29,3.5,1.92,5.25l-.34.12-1.42-4.27-.19.06q.95,3.73,1.9,7.46c.1.41.19.83.28,1.24a1.76,1.76,0,0,0,2.08,1.5,9.41,9.41,0,0,1,2.71.08,48.19,48.19,0,0,1,5.56,1.55,13.64,13.64,0,0,1,3,1.67c.94.63.65,1.38,0,2.06" transform="translate(0 0)" style="fill:#fff"/><path d="M188.33,105.15c-.08-.77.3-1.88-1-2.23-1.86-.52-3.69-1.17-5.58-1.61-3-.69-6-1.24-8.94-1.88-.81-.17-1.61-.45-2.41-.69a14.82,14.82,0,0,0-2.14-.64c-1.13-.15-2.29-.09-3.42-.25-5.19-.73-10.38-1.51-15.58-2.26-1.15-.17-2.31-.26-3.47-.39l-.06.19,7.65,4.53-1.11.57,4.53,2.85c.11-1.3.78-.85,1.32-.5,5.83,3.78,11.67,7.54,17.45,11.38a50.58,50.58,0,0,1,4.26,3.44c1.94,1.62,3.86,3.26,5.79,4.91.56.48,1.09.55,1.25-.28.54-2.81,1.13-5.62,1.45-8.46a43.27,43.27,0,0,0-.17-5.19c0-1.17.25-2.35.14-3.51" transform="translate(0 0)" style="fill:#fff"/></g></g></g><text transform="translate(15.45 289.39)" style="font-size:23.85749053955078px;fill:#fff;font-family:Lato-Light, Lato;letter-spacing:0.08000386306706418em">&lt;animés pa<tspan x="135.87" y="0" style="letter-spacing:0.058513953570922615em">r</tspan><tspan x="145.7" y="0" xml:space="preserve"> la passion&gt;</tspan></text><path d="M21,234.47c-2.61,3.47-4.82,6.17-4.82,7,0,1.64,3.28,1.64,5.21,1.64,10.9,0,20.64-1.06,28.64-9.07.68-.77,1.16-1.25,1.45-1.25s.29.19.29.39a12.11,12.11,0,0,1-.68,2.51l-3.57,9.84H0l32.89-42.25c1.26-1.64,2.32-3,2.32-3.76,0-1.74-3-1.74-6.17-1.74-11.48,0-17.94.77-25.56,9.75-.19.19-.48.58-.77.58s-.19-.29-.19-.39a7.12,7.12,0,0,1,.38-1.54l4-10.8H49.78Z" transform="translate(0 0)" style="fill:#fff"/><path d="M98.68,211.9c0-9.45-4.53-16.11-14.56-16.11-8.78,0-13.51,7.81-14.57,16.11Zm-29.52,1.83C69,216,68.87,218,68.87,220c0,17.94,9.26,24.6,18.62,24.6,11.09,0,19.29-7.62,22.57-18.91h2C109,239,99.35,247,86.24,247c-16.4,0-28.55-11.09-28.55-26.53S69.84,194,86.24,194c10.51,0,23.24,6.37,24.6,19.77Z" transform="translate(0 0)" style="fill:#fff"/><path d="M131.28,208.91h.2c2.22-8.2,6.94-15,19.68-15,10.61,0,20.55,5.5,20.55,20.84v18.61c-.19,9.17,1.06,10.52,3.86,11.48.67.19,1.25.48,1.25.68s-.48.29-1.45.29-3.37-.29-8.68-.29-8.68.29-9.93.29c-.58,0-1.06,0-1.06-.29s.19-.48.87-.58c3.48-.38,5.21-3,5.21-11.58V214.7c0-8.87-4-18.33-14.18-18.33-11.48,0-15.24,11.77-15.24,25.27v11.77c0,6.08.29,10.61,4.63,11.38.68.1,1.06.29,1.06.58s-.29.49-.87.49-4.63-.29-9.84-.29-9.65.29-10.32.29-.87-.1-.87-.49.39-.48,1.06-.58c4.83-.77,5.21-5.3,5.21-11.38V209.49c0-5.79-.67-9.07-3.38-10.23-1.06-.48-1.74-.77-1.74-1s.68-.29,1.84-.49a84.19,84.19,0,0,0,12.15-2.8Z" transform="translate(0 0)" style="fill:#fff"/><path d="M184.72,183.06a5.74,5.74,0,1,1,11.48,0,5.74,5.74,0,0,1-11.48,0m1.54,22.28c0-4.82-1.83-5.4-3.38-6.27-.58-.29-1.64-.29-1.64-.58s1.06-.29,1.74-.39c4.53-.87,8.59-1.83,13.22-3.09v38.39c0,6.08.58,10.42,5,11.29.58.1,1,.29,1,.87,0,.29-.48.29-1.35.29s-4.44-.29-9.65-.29-8.68.29-9.64.29-1.35,0-1.35-.29c0-.58.38-.77,1-.87,4.44-.87,5.11-5.21,5.11-11.29Z" transform="translate(0 0)" style="fill:#fff"/><path d="M237.1,230.32c-2-3.37-6.27-11.86-11.48-11.86-3.38,0-3.38,3.86-3.38,8v6.94c0,6.08.49,9.75,5.21,11.38.49.1.87.29.87.58s-.49.49-1.06.49-4.73-.29-10-.29-9.07.29-9.64.29-1-.2-1-.49.29-.39.68-.58c4.63-1.45,5-7.14,5-15.24v-38.3c0-5.69-.39-10.13-3.57-10.61-1.06-.19-1.64-.48-1.64-.87s.87-.48,1.84-.77c4.63-1.16,8.68-2.12,13.31-3.37V217.3l16.21-13.51c2.22-1.83,3.57-3.38,3.57-5,0-1.35-1.16-2.12-1.64-2.6-.38-.29-1-.29-1-.77s.58-.38,1.35-.38,4.24.38,9.26.38c4.72,0,5.88-.38,9-.38.87,0,1.35,0,1.35.58s-1.64.58-3.18,1c-5.5,1.35-11.09,4.73-15.63,8.2l-14.28,10.8v.19c13.12.29,16,5.3,22.67,15.92,3.28,5.21,7.33,10.61,12.54,13,.48.19,1,.38,1,.67s-.48.49-1.06.49-4.82-.29-9.65-.29c-2.22,0-4.44.29-6.36.29Z" transform="translate(0 0)" style="fill:#fff"/><path d="M303.08,216.63h-5.69c-10.42,0-21.12,3.09-21.12,15.82,0,7,5.11,12.16,12,12.16,11.38,0,14.86-12,14.86-21.22ZM313,237.17c0,3.18.48,6.08,3.47,7.43.58.29,1,.29,1,.58s-.58.38-1.25.38H305.78a28.79,28.79,0,0,1-2.32-9.84h-.19c-3.76,7.81-9.35,11.29-17.84,11.29-10,0-20.36-4.63-20.36-16.11,0-14.66,22.38-16.11,32.51-16.11h5.5v-3.18c0-9.26-4.34-15.82-14.09-15.82-8.87,0-14.08,2.6-17.55,11.09-.39.87-.58,1.64-.77,1.64s-.29-.48-.48-1.06l-2.51-8.68c7.91-4.15,14.18-4.82,22.77-4.82,11,0,22.57,4,22.57,16.11Z" transform="translate(0 0)" style="fill:#fff"/></g></g></svg>