<svg version="1" xmlns="http://www.w3.org/2000/svg" width="2157.333" height="2157.333" viewBox="0 0 1618 1618"><path d="M706 1.2C606.9 15 527.2 39.3 442.9 81.6c-79 39.5-147.3 88.8-209.9 151.4-62.6 62.6-111.9 130.9-151.4 209.9C40.1 525.7 15 607 2 700.2c-1.9 14-2 19.5-2 108.3s.1 94.3 2 108.3c13 93.2 38.1 174.5 79.6 257.3 39.5 79 88.8 147.3 151.4 209.9 62.6 62.6 130.9 111.9 209.9 151.4 85.1 42.6 170.2 68.5 265.4 80.6 14.7 1.9 21.5 2 100.2 2s85.5-.1 100.2-2c95.2-12.1 180.3-38 265.4-80.6 79-39.5 147.3-88.8 209.9-151.4 62.6-62.6 111.9-130.9 151.4-209.9 42.6-85.1 68.5-170.2 80.6-265.4 1.9-14.7 2-21.5 2-100.2s-.1-85.5-2-100.2c-12.1-95.2-38-180.3-80.6-265.4-39.5-79-88.8-147.3-151.4-209.9-62.6-62.6-130.9-111.9-209.9-151.4C1091.3 40.1 1010 15 916.8 2 902.7.1 897.6 0 807.3.1 755.1.2 709.6.7 706 1.2zm54.1 216.4c-1.2 3.1-2 5.9-1.7 6.1.2.2 1.2-1.7 2.2-4.2 1-2.6 2-4.1 2.4-3.5.4.7 1.2-.1 2-2 1.6-3.8 3.5-5.2 2.5-1.9-.7 2.3-.7 2.3.8.4 1.6-2 1.6-2 2.3 0 .5 1.1.8 3.4.8 5.2 0 1.7.4 2.9 1 2.6.5-.4.7 1.1.3 3.8-.5 3.2-.4 3.8.3 2.1 1.5-3.5 2.9-2.6 2.3 1.7-.5 3.5-.3 3.9 2.1 4.5 2.2.5 2.5 1 2 3.1-.4 1.7-.2 2.5.6 2.5.9 0 1.1 1.1.7 3.4-.4 2.8-.2 3.5 1.4 3.9 1.3.3 1.9 1.4 1.9 3.2 0 2.2.4 2.6 1.9 2.2 1.7-.4 2.1.2 2.7 5.2.3 3.1 1 6 1.4 6.6 1 1.3 1 .4 1.1 14.7.1 6.8.4 11.3.6 10 .7-3.8 2.8-1.9 3.1 2.9.2 2.4 1 6 1.9 7.9 1.5 3.3 1.6 3.3 2.4 1.2 1.1-3 2.9-2.8 2.9.4 0 2.3.3 2.5 2.5 2 2.1-.5 2.5-.2 3.1 2.1 1.6 7.1 2.7 10.9 3.4 11.8 2.6 3.3 6 22.8 6 34.1 0 3.6.4 6.3.9 6 .4-.3 1.1 4.2 1.4 10 .7 12.2 3 23.5 9.9 49.4 5.9 22 6.2 22.7 12.2 31 8.9 12.4 9.7 13.7 9 15.3-.7 1.8-6.2 2.2-9.9.8-1.5-.6-2.2-.3-3 1.3-1.6 3.1-3.9 3-7.8-.3-1.9-1.7-6.8-4.4-10.8-6.1-6-2.4-8.6-4.1-13.7-9.6l-6.4-6.6-2.2 2.1c-1.7 1.6-3 1.9-6.1 1.4-5.7-.8-24.6-10.1-27.2-13.3-1.9-2.3-3.4-2.8-11-3.9-4.8-.7-10.4-1.9-12.3-2.6-1.9-.8-6-2.1-9-3.1-8.9-2.7-12.9-5.1-13.6-8.1-.4-1.5-2.8-4.8-5.4-7.4-3.2-3.2-5.1-6.2-6.1-9.5-1.8-6.1-1.5-19.6.5-28.9 2.1-9.9 12.1-44.3 14-48.5l1.6-3.5-.5 5.5-.5 5.5 1.4-3.5c.8-1.9 3.5-9.6 6.1-17 6.1-17.8 6.6-19 7.7-19 .5 0 .6-.5.3-1.1-.4-.6.1-3.1 1-5.5.9-2.5 1.5-4.7 1.2-5-.2-.2-1.7 3-3.2 7.3-1.5 4.3-3.1 8-3.5 8.3-.8.5-6.8 16.6-7.7 20.7-.3 1.3-.9 2.3-1.3 2.3-1.2 0 20.1-61.3 24-69 .6-1.1 1.5-2.9 2-4 .6-1.1 1-2.6 1-3.5 0-.8 2.3-7.4 5.1-14.6 3.6-9.1 5.4-12.8 6.2-12 .7.7.4 2.7-1.2 6.7zm-199 197.2c27.6 24.9 68.8 55.4 103.4 76.3 31.6 19.2 83.5 45.1 110 54.9 6.1 2.2 11.8 4.5 12.8 5.1 2 1.1 14.3 3.8 32.2 6.9 14 2.5 28.1 3.6 64 5 27.7 1.1 42.8 2.5 43.3 4.1.2.5 2.6.9 5.3.9 4.8 0 6.7 1.4 3.2 2.3-1 .3-.1.5 1.9.6 6.3.2 7.7 1.3 3.2 2.6l-3.9 1.1 4.8.8c2.6.4 4.7 1.1 4.7 1.7 0 .5 1.2.9 2.8.9 1.5 0 3.4.5 4.2 1 1.2.8.8 1-1.5 1.1-2.6.1-2.4.3 2 1.7l5 1.6-7 1.2c-6.8 1.1-6.9 1.1-2.2 1.3 2.6 0 6.4 1 8.4 2.1 2.1 1.1 5.1 2.1 6.8 2.2 2 .1 1.4.3-2 .8-2.7.4 5.6.4 18.5.1 12.9-.3 25.3-.5 27.5-.4 2.2.2 10.5.7 18.5 1.2s16.9.9 19.8 1c3.3.1 5.1.5 4.7 1.1-.4.6 1.1 1 3.7 1.1 2.4 0 5.2.4 6.3.8 2.2.9 2.5.8-14.9 3.2-4.9.7-8.5 1.4-7.9 1.6.6.2 4.2 0 8-.5 3.7-.5 7.3-.6 7.8-.2 1.1.8 10.4 1.9 24.5 2.9l9.5.6-8.7 1.4c-9.3 1.5-11.6 3.3-2.6 2 7.8-1.1 12-1.1 11.3.1-.3.6.4 1.4 1.7 1.9l2.3.8-2.3.7c-1.2.4-2.7.4-3.2.1-.6-.4-2.1 0-3.3.8-1.4.9-7.9 1.9-17.5 2.7-8.3.8-15.2 1.7-15.2 2.1 0 .4-1.5 1-3.2 1.2-3.1.4-3 .4.7.6 2.2 0 5.1.5 6.5.8 2.3.7 2.1.8-1.5 1.4-3.5.5-3.1.6 2.5.8 7.5.2 11.2.9 10.4 2.2-.3.5-2.6.9-5 .9-5.2 0-5.8 2.3-.8 2.8 1.6.2 3.5.9 4.3 1.5.8.7 3.9 1.7 7 2.3l5.6 1.1-5 .3-5 .2 5 1c2.8.5 6.5 1.1 8.3 1.4 2 .3 3 .9 2.6 1.6-.5.8-4.9.9-14.5.5-7.6-.4-14-.3-14.3.2-.3.4 1.6.8 4.2.9 15.6.3 41.8 3.2 28.9 3.2-2 0-3.9.5-4.3 1.1-.5.9.6 1 4.2.6 2.7-.4 6.3-.3 7.9.1 2.6.8 2 1-4.1 1.6-4 .4-8.2.5-9.5.2-1.3-.3-7.6-.8-13.9-1.1-6.3-.4-11.7-.9-11.9-1.1-.2-.2.5-.4 1.7-.4s2.2-.5 2.2-1.1c0-.6-1.2-.9-2.8-.8-1.5.2-3.3 0-4-.4-1.5-1-3.5.1-2.7 1.4.4.5-.9.9-2.7.9h-3.3l3.3-2.1c2.6-1.7 3-2.4 2.1-3.5-1.3-1.6-7.9-1.9-7.9-.4 0 1.4-7.3 1.2-9-.3-1.2-1-1.2-.9-.2.4 1 1.4.9 1.8-1 2.3-1.3.3-2.4.2-2.6-.3-.2-.5-2.2-.7-4.5-.5-2.7.2-3.4.1-1.9-.4 3-.9 2.5-2.6-.8-2.9-1.4-.1-4.4-.4-6.7-.8-3.8-.5-4.3-.4-4.3 1.4 0 2.6-2.6 1.7-3.3-1.1-.5-1.8-1.1-2-4.8-1.4-2.8.5-4.5.3-5-.5-.4-.8-1.9-.9-4.3-.5l-3.6.7v7.2c0 14.6-2.1 30.1-6.1 45.7-7 26.8-7.6 28.5-14.6 42.2-3.8 7.3-7.5 14.9-8.3 16.8-3 7.8-12.8 24.6-16.7 28.7-2.8 2.8-4.3 5.3-4.3 6.9 0 1.4-.4 2.3-.9 2-.8-.5-3.3 4.4-4.6 9.2-.4 1.3-3.3 6.7-6.4 12-3.2 5.3-9.9 18-15 28.2s-10.6 20.2-12.2 22.2c-1.6 2-6.3 10.6-10.5 19-6.2 12.4-13.3 25.5-15.1 27.7-.2.2-.5.2-.7 0-.3-.2.6-2.6 1.9-5.2 3.2-6.2 1.8-6.1-1.8.3-1.8 3.2-2.6 5.7-2.2 7.2.4 1.7-.7 4.8-4 10.6-4.7 8.3-6.2 10.3-4.5 5.6 1.9-4.8 1-4.9-2-.2-2.8 4.4-6 10.3-13 23.3-1.4 2.7-3.2 6.1-3.9 7.4-.9 1.5-1.6 2-2 1.2-1.2-1.8-5.1 7.1-4.4 9.9 1.8 7.5 56.3 74 96.8 118 23.1 25.1 61.9 64 75.5 75.7 8.8 7.5 52.7 41.9 64.8 50.6 2.8 2.1 5.2 4.5 5.2 5.3 0 1.7-.9 1.3-6.3-2.9-2.1-1.6-4-2.7-4.3-2.4-.3.3 3.1 3.3 7.6 6.7 4.4 3.4 7.8 6.5 7.5 6.9-.6 1.1 1.5 2.8 3.5 2.8.8 0 5.7 3 10.9 6.6 9 6.4 10.5 7.9 5.8 5.7-1.2-.6-.2.6 2.3 2.7 2.4 2.1 5.8 5.1 7.5 6.6 2.7 2.6 2.8 2.7.5 1.6-1.4-.6-3.8-2.1-5.5-3.4-1.6-1.2-4.1-2.7-5.5-3.4-2.1-1.1-2-.8.8 1.8 2.2 2.1 2.7 3.1 1.7 3.1-.9 0-2.6-1.1-3.8-2.4-1.2-1.3-3.8-3.1-5.7-4l-3.5-1.8 3 2.6c1.7 1.5 5.4 4 8.2 5.7 2.9 1.7 5.6 3.5 5.9 4 .3.5 1 .9 1.6.9.6 0 .5-.7-.3-1.7-1.2-1.4-1.2-1.6.1-1.1.8.3 1.4 1.2 1.4 2.1-.1.9 2 3.3 4.7 5.4 6 4.5 5.6 5.5-.6 1.8-2.6-1.5-4.9-2.4-5.2-2.1-.8.7-1.8-.1 11.2 9.1 6.1 4.3 11.5 8.3 12 8.8 1.4 1.3-3.4-1.2-6.7-3.5-1.6-1.1-2.8-1.7-2.8-1.4 0 .2 3.9 3.3 8.8 6.7 10.3 7.3 10.9 7.9 9.6 7.9-.6 0-5.2-2.9-10.3-6.6-5.1-3.6-9.6-6.3-9.8-6-.9.8-4.4-1.4-3.8-2.4.7-1.1-4.2-4.5-7.7-5.4-1.6-.3-2.8-1.3-2.8-2.1s-.7-1.5-1.5-1.5-2.3-.9-3.2-2c-1-1.1-2.5-2-3.5-2-.9 0-2.2-.9-2.8-2-.6-1.1-1.4-1.9-1.8-1.6-.8.5-8.4-4.3-11.7-7.4-1.1-1-4.2-3-7-4.4-2.7-1.4-10.2-6.1-16.5-10.5-6.3-4.4-11.7-7.7-12-7.4-.3.3.1.8.8 1 .7.3 3.3 2.1 5.7 4.2 2.4 2 7.9 6 12.2 9 13.8 9.6 31.2 22.5 30.8 23-.3.2-2-.8-3.8-2.2-2.1-1.6-4.2-2.4-5.4-2.1-1.1.3-2.5-.2-3.4-1.2-1.3-1.6-1.2-1.6.9-.5 5.3 2.8 2.6.2-5.5-5.4-11.3-7.8-11.3-7.8-11.3-6.5 0 .6.8 1.3 1.8 1.7 2.2.8 11.3 7.6 10.8 8.1-1 .9-16.1-9-25.8-16.8-2-1.7-4.3-3-5.1-3-.8 0-2.9-1.6-4.8-3.6-5.2-5.5-6.7-6.7-8.4-7-2.2-.3-4.5-2.4-4.5-4 0-.8-.6-1.4-1.4-1.4-.8 0-2.8-1.4-4.5-3.1-1.7-1.7-3.5-2.8-4.1-2.4-.9.6-9.5-5.8-15.5-11.6-5.6-5.3-12.4-10.7-14.5-11.4-1.1-.3-2-1.2-2-1.9s-2.1-2.8-4.7-4.6c-5.1-3.6-21-17.3-23-19.7-.6-.8-1.6-1.2-2.2-.8-.6.3-1.1.2-1.1-.3s-1.7-2.1-3.7-3.5c-2.1-1.4-6.6-5.1-10-8.4-3.4-3.2-9.2-8.2-12.8-11.2-4.1-3.4-6.4-6-6.1-6.8.4-.8-.6-2.1-2.4-3.1-1.6-.9-3.1-2.5-3.4-3.4-.2-1-.9-1.8-1.6-1.8-.6 0-.8.4-.5 1 .3.6-.1.7-.9.4-3.2-1.2-1.4 2.2 4.2 8l5.7 6-7.4-6.5c-7.3-6.4-9.6-9.2-7-8.7 2.7.6 1.9-3.3-1.5-6.9-2-2.1-3.6-3.3-3.6-2.6 0 .6.5 1.5 1 1.8.6.3 1 1.1 1 1.7 0 2.2-2.8-1.3-3.3-4.2-.5-2.1-1.4-3.1-3.2-3.6-1.4-.3-2.3-1-2-1.4.3-.5-.7-1.8-2.1-2.9-1.5-1.2-9-8.1-16.8-15.5-7.7-7.3-15.7-14.7-17.6-16.4-3.6-3.2-2.3-4.6 1.4-1.5 1.2 1-.1-.6-2.9-3.5-2.7-2.9-5.4-5.1-6-4.8-1.4.5-4.5-1.2-4.5-2.6 0-.6 1-.3 2.1.8 2.2 1.9 2.2 1.9 1.1-.2-.6-1.1-3.1-4.2-5.7-7-2.5-2.7-5.8-6.4-7.2-8.2-2.7-3.4-4.3-4.1-4.3-1.8 0 .8 1.5 2.6 3.3 4 1.8 1.4 4.8 4.5 6.7 6.8 3.3 4.2 3.3 4.2.4 1.8-1.6-1.3-4.7-4-6.8-6-6-5.3 17.9 20.1 29.6 31.5 5.7 5.5 10.7 10.9 11.3 12 .6 1.1 2.3 2.1 3.8 2.3 2 .3 2.7.9 2.7 2.5-.1 1.5 3.3 5.5 10.7 12.5 5.9 5.7 9.9 9.9 8.8 9.3-2.3-1-78.9-78.3-81.2-81.8-2-2.9-.9-9 1.3-7.2.8.6 1.4 2.3 1.4 3.8 0 1.4.5 3.3 1 4.1.8 1.3 1 1.2 1-.3 0-.9.5-1.7 1-1.7.6 0 1 .4 1 .8 0 1.7 2.7 4.5 3.4 3.4.3-.6-4-6.2-9.6-12.4-5.7-6.3-12.5-13.8-15.2-16.8-3.3-3.8-4.7-4.8-4.3-3.3.4 1.7.1 2-1.2 1.5-1.8-.7 3.2 5.9 7.4 9.8 2.7 2.4 2.7 2.4 1.6.2-2.4-4.5-.2-2.1 2.7 3.1 1.6 2.9 3.7 5.9 4.6 6.6 1.8 1.5 2.3 6.6.5 5.6-.5-.4-.8-1.2-.6-1.8.2-.7-3.1-4.9-7.4-9.4-4.4-4.6-7.9-8.7-7.9-9.2s-.7-1.2-1.6-1.5c-1.4-.5-1.5-.4-.4.9 1 1.3.9 1.5-.8 1.5-2.1 0-6.7 6.9-15.7 23.5-2.1 3.8-7.9 14-13 22.5l-20 34c-17.9 30.5-26.7 45-27.7 45.6-1.5.9 1.4-4.2 15.9-28.9 7.4-12.6 13.3-23.1 13-23.3-.3-.3-2.7 3.3-5.3 8-2.7 4.7-5.3 8.6-5.7 8.6-.5 0-.5-.6-.2-1.3.4-.6-.1-.3-.9.7-1.1 1.4-1.3 2.2-.5 2.7.8.4.5 1.1-.9 1.8-1.1.6-3.5 3.6-5.2 6.6-3 5.3-4 6.2-5.3 4.9-.8-.8 2.7-7.7 6-12.2 1.3-1.8 3.3-5.3 4.4-7.8 1.1-2.5 2.6-4.7 3.4-5 .7-.3 1.6-1.9 1.9-3.7.4-1.7 2.4-6.1 4.5-9.7 14.8-25.2 18.1-31.2 16.3-29.5-.5.5-5.6 9-11.2 18.7-6 10.5-10.6 17.5-11.3 17.1-.6-.3-.7-.1-.3.5.9 1.4-6.2 14.4-7.4 13.7-.5-.3-1.4.4-2 1.5-.6 1.2-.7 2-.1 2 .5 0-1.3 3.9-4.1 8.7-5.3 9.4-8.1 13.1-5.4 7.3.9-1.9 1.1-2.7.4-1.6-.7 1-2.5 3.4-4 5.3-1.6 2-2.8 4.2-2.8 5 0 .7-.7 1.6-1.5 1.9-.8.4-1.5 1.4-1.5 2.4 0 1.1-.5 2.2-1 2.5-.6.4-1.7 2.1-2.5 3.8-2.1 4.5-7.7 13.1-9.8 15.2-2.9 2.8-6.7 9.3-6.7 11.3 0 1-1.6 4.1-3.5 6.8s-3.5 5.3-3.5 5.8c0 .6-1.1 2.1-2.4 3.5-1.3 1.5-3.4 4.4-4.6 6.6-2.1 3.8-51.7 86.6-54.7 91.3-.8 1.3-1.7 2.2-2 1.9-.2-.3.8-2.4 2.3-4.8 1.5-2.4 2.2-4.5 1.6-4.7-.5-.1.8-3.5 2.9-7.4 2.9-5.2 3.6-7.4 2.8-8.4-.7-.9-.3-1.6 1.8-2.6 2.9-1.4 8.2-9.8 8.3-13.1 0-.9.5-1.7 1-1.7 1.5 0 5-6.1 5-8.6 0-1.2 1.6-3.8 3.5-5.9 3.8-4 4-6.1.3-2.9l-2.2 1.9 1.5-2.5c.9-1.4 3.1-5.2 5-8.5 3.3-5.9 3.4-6 3.9-3 .5 2.6.7 2.7 1.3 1 .9-2.6.7-4.1-.4-3.7-1.3.3-1.1-.3 1.2-4.3 1.6-2.6 2.4-3.3 3-2.4.9 1.5.8 1.5 3.2-2.1 2.1-3 2.2-4.4.2-3.6-1.3.5-1.3.1.1-2.7 4.2-8.2 11.9-20.4 14.1-22.3 1.4-1.2 2.7-3.3 2.8-4.7.4-3.1 12.4-22.9 13.5-22.2.4.3 1.1-.2 1.4-1.1.3-.8.2-1.2-.4-.9-2.2 1.4-.8-1.7 2.4-5.2 3.7-4.2 6-8 6.2-10.3.1-1.3 12.7-23.5 18.1-32 .9-1.4-.4-.3-3 2.5-2.5 2.7-4.6 5.6-4.7 6.4 0 .7-1.3 3.3-2.9 5.6-1.6 2.4-3.9 6.3-5 8.7-1.2 2.4-4.6 8.3-7.6 13.3-3 4.9-5.4 9.4-5.5 9.8 0 .5-1.6 2.9-3.5 5.4-1.9 2.5-3.5 5.1-3.5 5.6 0 1-6.1 11.6-15 26.2-2 3.3-6.7 11.4-10.4 18-3.8 6.6-7.4 12.4-8 13-1.6 1.3-8.6 13-8.6 14.3 0 .5-1.5 2.9-3.4 5.1-1.9 2.3-3.7 5.4-4.1 7-.3 1.6-1.5 3.7-2.6 4.7-1 .9-1.9 2.2-1.9 2.8 0 .6-1.4 2.8-3 4.8-1.7 2-4.3 6.5-6 10-1.6 3.5-3.8 7.4-4.8 8.8-1.1 1.4-3.2 4.7-4.7 7.3-3.2 5.8-4.5 5.6-1.6-.2 1.2-2.2 2.1-4.3 2.1-4.7 0-1.3-5.9 7.5-7.3 10.9-1.8 4.3-15 25.6-15.9 25.7-.3 0-.4-.9-.1-2 .8-3.2-.5-2.3-3.4 2.2-4.2 6.5-4.2 6.4-5.2 4.9-1.4-2.2 5.2-14.3 18.9-34.6 2.6-3.9 6.4-10.4 8.5-14.5 2.1-4.1 5.6-10.6 8-14.5 4.5-7.6 5.9-10.5 4.7-10.5-.4 0-5.3 7.9-11 17.4-5.7 9.5-11 18.2-11.8 19.2-1.5 1.9 5.1-11.1 8.7-17 1.2-2 1.5-3.4.9-4.2-.7-.7-.4-2 1-3.7 1.1-1.4 2-3.2 2-4 0-.9 2.3-5.3 5.1-9.9 7.4-12 14.3-24.8 11.6-21.5-1.3 1.5-7.6 10.5-14.2 20-7.6 11-12.5 17.3-13.6 17.3-1.5 0-1.3-.8 1.2-5.8 1.6-3.2 4.1-6.8 5.4-8 2.8-2.4 10.8-15.3 15.6-25.2 2-4 4.3-7.3 5.7-7.9 1.2-.6 2.2-1.8 2.2-2.7 0-1 1.6-3 3.6-4.5s4.4-4.6 5.3-6.9c1.9-4.2 6-11 8.4-13.6 2.4-2.6 11.7-19 10.8-19-.5 0-2.1 2.4-3.6 5.2-2.5 4.9-9.1 14.2-15.6 22.1-1.4 1.8-3.8 5.5-5.4 8.4-1.5 2.8-3.4 5.4-4.1 5.7-.8.3-1.4 1.5-1.4 2.6s-.6 2-1.2 2c-1.1 0-10.6 13.7-44.6 64.2-6.1 9.1-10.3 11.2-4.7 2.3 5.7-8.8 3.2-6.4-4 4-3.6 5.2-7 9.4-7.4 9.2-.4-.1-2.2 1.5-4 3.6-6.6 7.5-4.2 1.9 3.8-8.8 1.7-2.2 4.2-6 5.7-8.5 6.5-10.7 25.3-38.7 26.8-40 1-.7 2.6-3 3.6-5 1.1-2.1 5.2-8.4 9.1-14.1 4-5.7 8.3-11.9 9.6-13.8 2.5-3.6 2.4-5.2-.2-3.1-2.4 2-1.9-.6 1-4.8 1.4-2 2.5-4.5 2.5-5.5s3.1-6.9 6.9-13.2c3.8-6.2 8.6-14.5 10.5-18.5 2-3.9 5.2-9.8 7.2-13.1 2-3.2 3.5-6.1 3.3-6.4-.4-.3-3.2 3.7-9 13-1 1.6-5 7.5-8.9 13-3.8 5.5-7 10.9-7 12.1 0 1.1-1.1 3.1-2.5 4.4-1.4 1.3-2.5 2.9-2.5 3.6 0 1.2-29.6 46.6-34.1 52.4-6.6 8.5-71.4 107.1-97.8 149-7 11-6 7.4 1.3-4.9 3.6-6.1 6.6-11.8 6.6-12.6 0-.8.6-1.5 1.3-1.5.6 0 5.2-6.6 10.1-14.8 4.9-8.1 10.5-17 12.5-19.7 3.1-4.2 17.7-26.5 20.6-31.4.6-1 .4-1.2-.5-.6-.9.5-1 .1-.6-1.6.6-2 .5-2.1-.4-.6-.6.9-.8 2.1-.5 2.7.7 1.2-2.4 6.2-3.5 5.5-.8-.5-4.1 4.1-10.5 14.5-1.5 2.5-3.4 4.8-4.1 5.3-.7.4-1.5 2.1-1.9 3.7-.4 1.6-1.1 3.2-1.5 3.5-.5.3-3.4 4.4-6.4 9-5.1 7.8-7.6 10.2-7.6 7.4 0-.5-.4-.8-.9-.5-.4.3-.6 1.7-.3 3.1.2 1.5 0 2.5-.7 2.5s-.9.4-.6 1c.8 1.3-2.8 8-5.9 10.9-1.4 1.3-4.4 6.1-6.7 10.7-2.2 4.6-4.5 8.4-4.9 8.4-.4 0-1.1-1.1-1.4-2.5-.4-1.4-1.3-2.5-2.1-2.5-1.7 0-4.8 4.3-5 6.9-.1 1.9-1.1 3.3-6.7 9.1-2.1 2.1-3.8 4.3-3.8 4.8s-1.5 2.5-3.3 4.4c-1.7 2-4.3 4.8-5.7 6.3-1.6 1.8-2.6 2.3-2.9 1.4-.2-.8-1.5 0-3.3 2.2l-2.9 3.4 3-6.1c1.6-3.3 5-9.1 7.5-12.7 2.5-3.7 4.6-6.9 4.6-7 0-.2 2.9-4.8 6.4-10.3 3.5-5.4 9.4-14.6 13.1-20.4 3.6-5.8 9.1-14.3 12.2-19 3-4.7 8.4-13.5 12-19.5 3.6-6.1 11.6-18.7 17.8-28 15-22.7 20.8-31.5 22-33.4 4.6-7.4 10.5-16.6 17.7-27.6 14.1-21.6 18.2-28.6 17.1-29.3-.7-.5-.2-2 1.3-4.2 1.3-1.9 2.4-3 2.4-2.4 0 .5-.7 2-1.6 3.2-.9 1.3-1.4 2.6-1.1 2.9.3.2 1.8-1.5 3.4-3.9 1.5-2.3 3.3-4.7 4-5.1.7-.4 1.3-1.4 1.3-2.1 0-1.3 1.7-4.1 12.6-20.5 9.4-14.2 13.8-21.1 19.7-31.1 2.8-4.7 6.9-11.2 9.1-14.6 2.3-3.3 5.2-8 6.6-10.3 1.4-2.4 3.5-5.5 4.7-7.1 2.4-2.9 9.3-14.7 9.3-15.8 0-1.1-5.9 6.3-6 7.5 0 1.1-7 8.6-7.6 8.1-.6-.6 17.2-26.7 20.4-29.8 4-4 5.8-7 4.1-7-.7 0-.4-1 .8-2.3 1.1-1.2 3.1-4.2 4.3-6.7 1.3-2.5 4.1-6.2 6.4-8.3 2.3-2.1 3.3-3.5 2.2-3.1-1.7.6-1.6.3.5-3.4 1.3-2.2 3.2-4.3 4.1-4.6 1-.2 1.8-1.2 1.8-2.3 0-1 1.6-4.3 3.6-7.3s3.3-4.7 3-3.8c-.3 1-.9 2.6-1.2 3.5-.3 1 .8-.2 2.5-2.7s2.6-4.6 2.1-4.8c-.6-.2-.3-1.7.6-3.4 1.2-2.2 1.8-2.7 2.4-1.8.6.9 1.3.3 2.6-2.1 1.7-3.3 1.7-3.4-.2-1.9-3.4 2.8 5.2-10.9 21-33.3 2.6-3.7 5.8-8.5 7-10.6 1.1-2.1 4-6.6 6.4-10.1 4.2-6.4 5.9-10.7 2.2-6-1 1.4-2.1 2.2-2.5 1.9-.8-.9.5-5.9 1.6-5.9 1.8 0 .8-2.4-2.6-6.1-1.9-2.2-3.5-4.4-3.5-5 0-.6 1.7 1 3.8 3.5 4 4.8 5.2 5.5 5.2 3 0-2-4.2-8.1-15.4-22.4-16.7-21.4-21.3-27.4-37.1-49.5-24.5-34-50.1-73.7-48.9-75.7.4-.6.3-.8-.4-.4-.6.4-3.9-4-8-10.6-6.3-10.3-10.3-17.2-26.9-46.8-15.6-27.7-36.2-71.4-49.3-104.4-1.3-3.3-2.5-5.5-2.7-4.9-.2.6 2.1 7.3 5.2 14.9 5.6 13.9 7.1 21.2 1.9 9.6-1.5-3.4-2.9-6.1-3.1-5.9-.3.4 3 8.9 7.8 19.9 3.1 7.1 3.4 8.2 2 7.4-.5-.4-.6.4-.3 1.6.5 2 .7 2.1 1 .4.2-1.1 3.5 4.5 8.3 14.4 4.4 9 7.7 16.5 7.5 16.7-.2.3-1.1-.8-2-2.4-2-3.6-2-2.6-.1 2.1.8 2 1.2 3.6.8 3.6-1 0-6.3-9.5-6.3-11.3 0-.6-1.9-4.6-4.3-8.7-3.7-6.7-5.4-10.1-10.4-21.7-.7-1.8-1.8-3.5-2.3-3.8-.6-.3-1-1.7-1-2.9 0-1.3-.7-2.9-1.5-3.6-.8-.6-1.4-1.5-1.3-1.8.1-.8-.8-3.6-2.7-7.7-3.7-8.1-5.5-12.9-5.5-14.6 0-1-.4-2-1-2.4-.5-.3-1.4-2-1.9-3.8-1.7-5.6-4.2-12.1-6.6-17.2-1.2-2.8-3.9-9.5-5.9-15-7.6-20.5-12.1-30.8-13.8-31.3-1-.2-2.4-2.5-3.4-5.4l-1.6-5 3.8-3.4c2.2-2 3.3-3.8 2.8-4.3s-10.6-6.2-22.4-12.6c-11.8-6.5-23.5-13.2-26-14.9-2.5-1.7-4.6-3.1-4.8-3.2-.2-.1.6-2.1 1.7-4.5 1-2.4 2.5-6.3 3.2-8.7.7-2.3 2.9-7 5-10.5l3.8-6.2-2.1-1.6-2.1-1.7 2.4-2.9c11-13.6 17.5-20.5 20.7-22.2 1.9-1 2.2-1.8 1.8-3.7-.9-3.3 6.8-17.5 12.7-23.5 2.4-2.4 4.8-5.2 5.3-6.1.5-.9 2.6-2.4 4.6-3.2 3.4-1.5 3.8-1.5 4.7.1.8 1.5 1.6 1.1 6.5-3.5 3-2.8 5.9-5.2 6.4-5.2.6 0 3.9 2.6 7.3 5.8zm442.2 220.9c-.7.2-2.1.2-3 0-1-.3-.4-.5 1.2-.5 1.7 0 2.4.2 1.8.5zm2.2 2.3c2.7.7 2.6.8-1.5.8-2.5 0-5.4-.3-6.5-.8-1.6-.7-1.3-.9 1.5-.8 1.9 0 4.9.4 6.5.8zm33.9 1.5c.7 1.9-.3 1.9-2.8 0-1.9-1.5-1.9-1.5.1-1.5 1.1 0 2.3.7 2.7 1.5zm-44 10.6c-.8 1.4-3.4 1.1-3.4-.4 0-.8.3-1.7.7-2 .9-.9 3.4 1.3 2.7 2.4zm-413.1 15.4c1.9 4.4 8.2 17.9 14.1 29.9 5.8 12.1 10.4 22.1 10.2 22.4-1 1-29.6-58-29.6-61.1 0-2.3 2 1 5.3 8.8zm24.9 57c4.2 7.7 8.6 15.9 9.8 18.3 1.2 2.4 2.5 4.1 2.7 3.8.3-.2-.1-1.4-.7-2.6-.6-1.2-.9-2.4-.7-2.7.6-.5 4.7 6.9 4.7 8.4 0 .4-.7-.2-1.5-1.3-2.8-3.7-1.4 0 3.1 8.3 2.5 4.7 4.4 8.6 4.2 8.8-.3.4-19.4-33.1-22.7-39.7-.8-1.6-1.6-2.7-1.8-2.4-.5.5 10.7 21.8 16.4 31.1 2.4 3.8 4.3 7.6 4.3 8.4 0 .8 1.1 2.8 2.4 4.5 3.8 5.1 10.7 16.7 10.4 17.7-.3.9-13.8-20.4-13.8-21.9 0-.5-1.3-2.6-3-4.7-1.6-2.1-3-4.2-3-4.7s-1.9-4.1-4.2-8.1c-2.2-4-6.6-12-9.7-18-7-13.4-7.4-14.1-9-16.1-2-2.4-.1-1.9 2.7.6l2.5 2.3-1.7-3.2c-.9-1.8-1.6-3.5-1.6-4 0-1.3 2.4 2.7 10.2 17.2zm2.2-1.9c1 2.5-.1 2.9-1.4.5-.6-1.2-.7-2.1-.1-2.1.5 0 1.2.7 1.5 1.6zm35 67.3c6.4 10.6 11.5 19.5 11.3 19.8-.3.2-2.8-3.4-5.7-8.2-2.9-4.7-5.5-8.3-5.7-8.1-.3.2.1 1.4.7 2.6.6 1.2.9 2.4.7 2.6-.5.5-6.7-9.8-6.7-11 0-.4.5-.4 1-.1 1.7 1 1.2.1-4.5-9.6-3-5.1-5.5-9.8-5.5-10.3 0-1.5 1.3.5 14.4 22.3zm26.3 42.7c-.2.3-2.8-3.2-5.7-7.6-2.9-4.4-5.5-8-5.7-8-.2 0-.1 1 .2 2.2.5 1.8.4 2-.4.8-.6-.8-.8-2.2-.5-3.2.2-.9 0-1.9-.6-2.3-.5-.3-1-1.4-1-2.3 0-.9 3.2 3.2 7.1 9.1 3.9 6 6.9 11.1 6.6 11.3zm-4.7-3.3c0 1.6-2-.5-3.6-3.6l-1.5-3.2 2.5 3c1.4 1.6 2.6 3.4 2.6 3.8zm8.9 8.4l2.2 3.8-2.6-2.8c-1.4-1.5-2.5-3.2-2.5-3.8 0-1.7.8-.9 2.9 2.8zm2.9.9c-.4.3-1.2-.5-1.8-1.8-1.2-2.2-1.2-2.2.6-.6 1 1 1.5 2 1.2 2.4zm4.2 9.7c0 .5-.7.4-1.5-.3-2.1-1.7-1.9-.1.5 3.7 3 4.9 1.6 4-2.1-1.4-2.4-3.4-2.8-4.5-1.5-4 1.4.6 1.7.3 1.2-1-.6-1.5-.4-1.5 1.4.2 1.1 1 2 2.2 2 2.8zm5 7.2c1.7 2.5 2.7 4.5 2.3 4.5-.5 0-1.4-1-2.2-2.3-.8-1.2-2.1-3.2-2.9-4.5-2.7-4.2-.3-2.2 2.8 2.3zm11 16c0 .5-1.1-.4-2.5-2-1.3-1.7-2.4-3.5-2.4-4 0-.6 1.1.3 2.4 2 1.4 1.6 2.5 3.4 2.5 4zm8.6 11.2c3.5 4.8 3.8 5.9 1 3.3-3.1-2.8-5.1-6-3.8-6 .4 0 1.7 1.2 2.8 2.7zm7.2 9.9c1.3 2 1.9 3.3 1.3 3-1.6-1-5.3-6.6-4.4-6.6.4 0 1.8 1.6 3.1 3.6zm6.8 9.1c-.7.7-2.6-.7-2.6-1.9 0-.6.6-.6 1.5.2.9.7 1.3 1.5 1.1 1.7zm.5 4.5c1.1 2.1 1.1 2.2-.4.9-1-.7-1.7-1.7-1.7-2.2 0-1.5.9-1 2.1 1.3zm5.2 3.8c-.6.6-3.3-3-3.3-4.3 0-.5.9.1 1.9 1.4 1.1 1.3 1.7 2.6 1.4 2.9zm2.8 7.2c1.6 2.9.2 2.1-2.2-1.5-1.7-2.3-1.8-2.8-.6-1.8 1 .8 2.3 2.3 2.8 3.3zm6.9 9.1c0 .6-.9 0-2-1.3s-2-2.5-2-2.8c0-.3.9.3 2 1.3s2 2.3 2 2.8zm3.1-.6c1.3 1.6 1.2 1.7-.3.4-1-.7-1.8-1.5-1.8-1.7 0-.8.8-.3 2.1 1.3zm122.9.5c0 .7-.5 2-1 2.8-.8 1.2-1 .9-1-1.3 0-1.5.5-2.7 1-2.7.6 0 1 .6 1 1.2zm-117.9 5.5c1.3 1.6 1.2 1.7-.3.4-1-.7-1.8-1.5-1.8-1.7 0-.8.8-.3 2.1 1.3zM726 989c-.6 1.2-1.4 2-1.7 1.7-.2-.3.1-1.4.8-2.6 1.7-2.6 2.4-1.9.9.9zm-10 14.9c0 .5-.9 1.9-2.1 3.2l-2 2.4 1.7-3.3c1.9-3.3 2.4-3.8 2.4-2.3zm-37.6 58.5c-.9 1.5-1.9 2.5-2.1 2.2-.3-.2.3-1.6 1.3-3 .9-1.5 1.9-2.5 2.1-2.2.3.2-.3 1.6-1.3 3zm186.7-.7c1.3 1.7 1.3 1.7-.6.3-1.1-.8-2.2-1.6-2.4-1.7-.2-.2 0-.3.6-.3s1.7.8 2.4 1.7zM656 1097.6c-7.4 11.3-8.7 13-7.8 10.4 1-2.7 13.9-22.2 14.4-21.7.3.3-2.7 5.4-6.6 11.3zm-4 13.1c0 .5-1 1.9-2.1 3.3l-2 2.5 1.6-3.3c1.5-3 2.5-4.1 2.5-2.5zm-8.1 5.8c-3 5-4.7 5.6-1.9.7 1.3-2.3 2.7-4.2 3.2-4.2.4 0-.2 1.6-1.3 3.5zm2.1 3.6c-.7 1.1-1.4 1.8-1.7 1.5-.3-.3 0-1.2.7-2.1 1.8-2.1 2.3-1.9 1 .6zm90.1 2.3c-1.2 2-2 3.9-2 4.3 0 .4-.4.9-1 1.1-1.9.6-1.2-2.2 1.5-6.1 3.2-4.8 4.2-4.2 1.5.7zm-99.6 5.3c-1 1.4-2.7 4.1-3.8 6-1.1 1.9-2.2 3.2-2.4 2.9-.6-.5 6.4-11.6 7.3-11.6.3 0-.2 1.2-1.1 2.7zm92.1 7c-1.3 2.7-3.2 5.7-4 6.8l-1.6 2 .7-2c.6-1.9 1.5-3.5 4.8-9 2.6-4.3 2.7-2.8.1 2.2zm220.9 12.9c5 4.4 11.7 10.2 15 13 3.3 2.8 11.4 9.6 18 15.1 12.4 10.4 16.5 14.3 14.9 14.3-.5 0-2.2-1.3-3.9-2.8-1.6-1.5-6.1-5.4-10-8.6-3.8-3.2-9-7.7-11.5-10-2.5-2.2-8.3-7.3-13-11.2-4.7-3.9-12.4-10.9-17.1-15.5-8.8-8.7-7.7-7.8 7.6 5.7zm-219.2-4.6c-.9 1.6-2.1 3-2.6 3-.9 0-.1-1.7 2.1-4.3 2.3-2.6 2.5-2.1.5 1.3zm-10.7 6.8c-1.8 1.6-1.8 1.6-.6-.6.6-1.3 1.4-2.1 1.8-1.8.3.4-.2 1.4-1.2 2.4zm-92.4.4c-.7.7-1.2.8-1.2.2 0-1.4 1.2-2.6 1.9-1.9.2.3-.1 1.1-.7 1.7zm-14.4 15.3c-1.3 1.9-5.2 7.9-8.8 13.4-3.6 5.6-6.8 10.1-7.2 10.1-.7 0 1-2.9 12.1-20.3 2.4-3.7 4.7-6.7 5.2-6.7s-.1 1.6-1.3 3.5zm5-.6c-.7 1.2-1.6 2.1-2.1 2.1-.4 0 0-1.1.9-2.5 2-3 3.1-2.6 1.2.4zm-5.4 8.6c-2.3 3.5-2.9 2.5-.7-1.3 1-1.8 1.9-2.7 2.1-2.2.2.5-.4 2-1.4 3.5zm18.6 18.9c-3.2 4.8-5.5 6.5-2.6 2.1.9-1.4 2.3-3.6 3.2-5 .9-1.4 1.9-2.4 2.1-2.1.3.3-.9 2.5-2.7 5zm-36.3 0c-.3.8-6.8 11-14.3 22.8-7.5 11.7-15.6 24.2-17.9 27.8-2.3 3.6-14.7 22.9-27.5 43s-25.2 39.4-27.5 43c-7.9 12.3-27.2 42.5-29.9 46.8-1.5 2.4-3 4.2-3.2 3.9-.5-.5 35-57.2 61.3-97.7 16.4-25.4 27.6-42.6 42.8-66.3 8.8-13.6 16.1-24.7 16.3-24.7.2 0 .2.6-.1 1.4zm39.9 1.2c-.4.9-.9 1.5-1.1 1.2-.3-.3-.3-1.3.1-2.2.4-.9.9-1.5 1.1-1.2.3.3.3 1.3-.1 2.2zm-46.8 17c-.7 1.5-1.4 2.1-1.6 1.5-.2-.7.2-1.8.8-2.6 1.8-2.2 2.1-1.8.8 1.1zm27.7 4.4c-.9 1.6-2 3-2.6 3-.6 0-.1-1.4 1.1-3 1.2-1.7 2.3-3 2.6-3 .2 0-.2 1.3-1.1 3zm-31.5 2.1c-.7 1.1-1.4 1.8-1.7 1.5-.3-.3 0-1.2.7-2.1 1.8-2.1 2.3-1.9 1 .6zm71.9 14.4c-1.2 1.9-2.3 3.5-2.5 3.5-.2 0 .4-1.6 1.3-3.5s2-3.5 2.5-3.5c.4 0-.2 1.6-1.3 3.5zm-80.8-.7c-.5 1-1.8 2.5-2.7 3.3-1.6 1.2-1.7 1.2-.9-.1 1-1.8 3.7-5 4.2-5 .2 0-.1.8-.6 1.8zm-6.5 9.9c-1.4 2-2.6 3.4-2.6 2.9 0-1.3 4.2-7.8 4.7-7.2.3.2-.7 2.2-2.1 4.3zm81.7-.2c-.3.9-.8 1.4-1 1.1-.3-.3-.2-.9.2-1.5.9-1.6 1.5-1.3.8.4zm-35.8 9.2c-.1 1.7-9 16.3-9.9 16.3-.4 0 5.7-12 8.1-15.8 1.6-2.7 2-2.8 1.8-.5zm493.1 10.1c-.4.3-1.4-.2-2.4-1.2-1.6-1.8-1.6-1.8.6-.6 1.3.6 2.1 1.4 1.8 1.8zm22.4 14.5c16.7 11.7 24.4 17.6 20 15.2-7.8-4.2-39.2-26.3-40.6-28.7-1-1.5-.6-1.3 20.6 13.5zm-11-12.3c1.4 1.1 2.1 2 1.7 2-.5 0-2-.9-3.4-2s-2.2-2-1.7-2c.5 0 2 .9 3.4 2zm-507.6 7.7c-3.6 6.3-5.4 8.9-5.4 7.9 0-1.1 7-12.6 7.7-12.6.3 0-.7 2.1-2.3 4.7zm506.1.3c1.2 1.9-1.2 1-3.1-1.1-1.9-2.2-1.9-2.2.3-1 1.2.6 2.5 1.6 2.8 2.1zm-568.5.9c-.6 1.2-1.5 2.1-2.1 2.1-.5 0-.2-1.1.7-2.5 2-3 3.1-2.6 1.4.4zm-5.1 8.5c-1.1 2.4-2.9 3.6-2.9 1.8 0-1.2 3.1-5.4 3.6-4.9.3.2-.1 1.6-.7 3.1zm60.3 2.5c-.9 1.6-1.8 2.8-2 2.7-.5-.6 2.1-5.6 2.9-5.6.5 0 0 1.3-.9 2.9z"/><path d="M753.3 235.8c-1.2 3.4-2 6.2-1.8 6.2 1.1 0 4.6-8.4 4.3-10.3-.2-1.3-1 0-2.5 4.1zM748.1 248.2c-.4 1.3-2.5 6.7-4.5 12.2-2 5.4-3.5 10-3.3 10.2.5.5 6.7-14.8 6.7-16.6 0-1.3.1-1.3 1 0 .8 1.3 1 1.2 1.1-.5.1-1.1.1-2.8 0-3.8-.1-.9.3-1.7.8-1.7.6 0 1.1-.5 1.1-1 0-1.9-2-1-2.9 1.2zM718.2 331.9c-1.2 2.7-2.2 5.5-2.2 6.3 0 .8-.7 3.5-1.6 6.1-.9 2.6-1.4 5.2-1.1 5.9.2.7 1.6-2.8 3.1-7.7 1.5-5 3.2-10.3 3.8-11.8 1.9-4.8.3-3.8-2 1.2zM549.5 582.5c1.2 4 12.9 33.4 13.3 33.1.5-.5-7.5-21.8-10.9-28.8-1.6-3.5-2.7-5.4-2.4-4.3zM549.2 591c1.1 2.8 2.3 4.9 2.5 4.7.4-.5-3.4-9.7-4.1-9.7-.3 0 .5 2.3 1.6 5zM554.1 602.6c0 1.1.3 1.4.6.6.3-.7.2-1.6-.1-1.9-.3-.4-.6.2-.5 1.3zM1063 603c-1.2.8-1.1 1 .8 1 1.2 0 2.2-.5 2.2-1 0-1.3-1.1-1.3-3 0zM687 603.9c0 1 5 2.5 5.7 1.7.3-.2.2-.9-.2-1.5-.8-1.3-5.5-1.5-5.5-.2z"/><path d="M667.4 605.5c1.9 5 3.7 14.3 3.2 16.7-.4 2.1-.2 2.6.9 2.1 1.1-.4 1.6.3 1.7 2.3.2 3 .4 5.4.8 11.4l.2 3.5.7-3c.5-2.4 1-1.3 3 7 1.3 5.5 2.6 10.6 2.8 11.2.3.7-.1 1.3-1 1.3-2.9 0-.4 9.1 9.9 36 16.5 43.3 38.3 89.8 63 134.7 4.7 8.6 27.7 47.8 30.8 52.5 1.7 2.6 3.5 4.6 3.9 4.5.5-.1 2.9-4.1 5.3-8.7s5.3-9.3 6.3-10.4c1.8-2 5.1-7.9 5.1-9.1 0-.3-.4-.3-1 0-1.7 1 1-4.8 3.1-6.8 1-1 1.9-2.6 1.9-3.5 0-1.7 6-14.3 9.2-19.2.9-1.4 1.9-4.1 2.2-6 .3-1.9 1.7-4.8 3.1-6.4 1.4-1.6 2.5-3.9 2.5-5.2 0-1.2 2.5-7.7 5.5-14.5 3.1-6.7 5.4-12.4 5.2-12.6-.3-.2-1 1-1.7 2.7-.7 1.6-1.7 3-2.2 3-.5 0-.4-.9.2-1.9.5-1.1 1.5-3.2 2.1-4.7.8-2.3 1.2-2.5 1.9-1.4.6.8 1 1.2 1 .9 0-.4 1.1-3.2 2.5-6.3 2.8-6.4 2.5-7.4-.5-1.9-2.3 4.2-2.2 3.1.5-3.5 1.1-2.6 2.1-3.9 2.5-3.2.9 1.4 18.2-39.5 20.4-48.3.6-2.5.5-2.7-1.3-1.5-1.5.9-1.9 1.9-1.5 3.8.5 2 .4 2.2-.6 1-1-1.3-1.1-1.2-.6.4.7 2.1-1.3 9.6-2.5 9.6-.5 0-.6-.8-.3-1.8.5-1.6.5-1.6-.6.1-.6.9-.8 2.7-.5 3.8.5 1.4.3 1.9-.3 1.5-.6-.4-.8.3-.5 1.6.3 1.7.2 1.9-.5 1-.7-1.1-1-1-1.6.3-.8 2.3-.8 2.7.4 2 .6-.3 1-.3 1 0 0 1.4-7.2 18.1-8.2 19-.8.7-.9.4-.4-1 1.3-3.7-1.1-.1-2.6 4-.9 2.2-4.3 9.8-7.6 17-6.1 13.3-9 21-5.7 15.2.9-1.6 1.9-2.7 2.1-2.4.8.8-1.9 5.7-3.1 5.7-1.2 0-6 9.7-14.3 28.5-7.1 16-14 30.3-15.1 31-1.3.7-.2-2.6 2.6-7.8.9-1.7 5.6-12.2 10.4-23.2 4.7-11 11.1-25.4 14.1-32 4.9-10.8 15.6-36 27.3-64.5 4.5-11 13.6-38.1 17.8-53.5 6.1-21.9 12.7-61.6 10.6-64.1-.6-.8-1.4-1.2-1.7-.9-.3.2.1 1.1.8 2 1.6 2 .8 2.9-2 2-1.3-.4-1.9-1.2-1.6-2.1.7-1.8-1.4-3-2.4-1.4-.8 1.3-10.8 1.5-18.4.3-2.1-.3-3.6-.2-3.3.3.3.5-3.8 1-9.1 1-5.4.1-10.8.7-12.2 1.2-1.6.7-1.9 1.1-.9 1.1.9.1 2.2.8 2.9 1.6 1 1.2 1 1.5-.4 1.5-.9 0-1.6.7-1.6 1.6 0 1.2-.6 1.5-2.2 1.1-13.3-3.4-63.1-5.3-64-2.5-.3.9-4.3.9-17.9-.1-20.6-1.5-40.4-4.7-58.6-9.4-7.3-1.8-13.3-3-13.3-2.5 0 .4-.9-.1-2-1.2-2.4-2.4-6.5-2.8-5.6-.5zM840 621.6c0 .2-1.3.4-3 .4-1.6 0-3-.4-3-.8 0-.5 1.4-.7 3-.4 1.7.2 3 .6 3 .8zm-148 70.7c0 .5-.4.5-1 .2-.5-.3-1-1.4-1-2.3 0-1.5.2-1.5 1-.2.5.8 1 1.9 1 2.3zM843.3 764c-.3 1.2-.8 1.9-1.1 1.6-.5-.6.5-3.6 1.2-3.6.2 0 .2.9-.1 2zM825 806c-.6 1.2-1.4 1.9-1.7 1.7-.2-.3.1-1.5.7-2.7.6-1.2 1.4-1.9 1.7-1.7.2.3-.1 1.5-.7 2.7zm-4 9c-1.6 3.1-2.3 1.8-.8-1.5.7-1.5 1.4-2.3 1.6-1.7.2.6-.2 2.1-.8 3.2zm-27 51.5c-1.7 3.7-3.3 6.6-3.6 6.3-.3-.3 1-3.5 2.8-7.1 1.7-3.7 3.3-6.5 3.5-6.3.2.2-1 3.4-2.7 7.1zm5.4-2.9c.5 1.4.4 1.5-.9.4-1.7-1.4-1.9-2-.6-2 .5 0 1.2.7 1.5 1.6z"/><path d="M696.1 605.9c-2.1.6-1.9.7 1.8 1.7s4.2 1 3.9-.5c-.4-1.8-2.2-2.2-5.7-1.2zM1063.5 608c-.3.5.1 1 .9 1s1.8-.5 2.1-1c.3-.6-.1-1-.9-1s-1.8.4-2.1 1zM712.5 609c.3.5 1.3 1 2.1 1s1.2-.5.9-1c-.3-.6-1.3-1-2.1-1s-1.2.4-.9 1zM720.4 610.5c2.6 1.9 4.2 1.9 2.6 0-.7-.8-2-1.5-2.9-1.5-1.3.1-1.3.3.3 1.5zM1041.6 610c.7.7 2.4.7 5 .1l3.9-.9-4.9-.1c-3.4-.1-4.7.2-4 .9zM732.4 612.5c2.1 1.6 10.6 2.1 10.6.6 0-1-5-2.1-9.4-2.1-2.9.1-3 .1-1.2 1.5zM1025.8 611.7c.6.2 1.8.2 2.5 0 .6-.3.1-.5-1.3-.5-1.4 0-1.9.2-1.2.5zM745.6 613.5c.5 1.1 1.1 1.2 2.5.4 2.6-1.3 2.4-1.9-.6-1.9-1.7 0-2.3.4-1.9 1.5zM558 613.9c0 .6.4 1.3 1 1.6.6.3.7-.1.4-.9-.7-1.8-1.4-2.1-1.4-.7zM717.8 613.7c.6.2 1.8.2 2.5 0 .6-.3.1-.5-1.3-.5-1.4 0-1.9.2-1.2.5zM757.5 614c.3.5.8 1 1.1 1 .2 0 .4-.5.4-1 0-.6-.5-1-1.1-1-.5 0-.7.4-.4 1zM564.5 630.7c1.6 3.8 2.5 5.2 2.5 3.9 0-1.2-2.9-7.6-3.5-7.6-.3 0 .2 1.7 1 3.7zM586 685.3c0 1.5 3 8 3.6 7.4.3-.3-.4-2.2-1.5-4.4-1.1-2.1-2-3.4-2.1-3zM621 730.9c0 .6.4 1.3 1 1.6.6.3.7-.1.4-.9-.7-1.8-1.4-2.1-1.4-.7zM849.2 744.5c-1.7 3.7-1.4 4.5.4 1.2.9-1.6 1.4-3.1 1.1-3.3-.2-.2-.9.7-1.5 2.1zM846.2 751.5c-1.7 3.7-1.4 4.5.4 1.2.9-1.6 1.4-3.1 1.1-3.3-.2-.2-.9.7-1.5 2.1zM636 756.9c0 .6.4 1.3 1 1.6.6.3.7-.1.4-.9-.7-1.8-1.4-2.1-1.4-.7zM642.6 768.7c5.1 8.8 7.7 11.9 4.5 5.6-2.2-4.5-8-13.3-8.7-13.3-.2 0 1.7 3.5 4.2 7.7zM649.6 780.3c.3 1 .9 1.5 1.2 1.2.3-.3 0-1.1-.7-1.8-1-.9-1.1-.8-.5.6zM837.2 790.5c-1.7 3.7-1.4 4.5.4 1.2.9-1.6 1.4-3.1 1.1-3.3-.2-.2-.9.7-1.5 2.1zM834.5 796.1c-.4.6-.5 1.2-.2 1.5.2.3.7-.2 1-1.1.7-1.7.1-2-.8-.4zM826.6 813.1c-3.6 7.8-6.4 14.4-6.2 14.7.3.3 1-.6 1.5-1.9.5-1.3 3.4-7.8 6.5-14.3 3.1-6.6 5.5-12.1 5.3-12.3-.2-.1-3.4 6.1-7.1 13.8zM664.6 804.3c.3 1 .9 1.5 1.2 1.2.3-.3 0-1.1-.7-1.8-1-.9-1.1-.8-.5.6zM681 829.5c0 .6 6.9 10.5 8.3 12 1.3 1.3.3-.5-4-7.3-3-4.7-4.3-6.1-4.3-4.7zM690 843.4c0 .2.8 1 1.8 1.7 1.5 1.3 1.6 1.2.3-.4s-2.1-2.1-2.1-1.3zM705.5 864.7c.9 1.6 3 4.4 4.6 6.3 2.3 2.6 2 1.9-1.1-2.8-4.1-6.2-6.6-8.7-3.5-3.5zM710.2 866c.7 1.1 1.7 2 2.2 2 .5 0 .1-.9-.9-2s-2-2-2.2-2c-.2 0 .2.9.9 2zM799 872c-1.1 2.2-1.8 4-1.5 4 .2 0 1.4-1.8 2.5-4s1.8-4 1.5-4c-.2 0-1.4 1.8-2.5 4zM885.7 874.7c-.4.3-.7 1.1-.7 1.7 0 .6.5.5 1.2-.2.6-.6.9-1.4.7-1.7-.3-.3-.9-.2-1.2.2zM713 875.4c0 .2.8 1 1.8 1.7 1.5 1.3 1.6 1.2.3-.4s-2.1-2.1-2.1-1.3zM717 875.4c0 .2.8 1 1.8 1.7 1.5 1.3 1.6 1.2.3-.4s-2.1-2.1-2.1-1.3zM719.7 884.3c2.1 2.9 4.8 6.6 6.1 8.2 2 2.6 2.1 2.7 1.1.5-1.3-2.6-9.9-14-10.6-14-.2 0 1.3 2.4 3.4 5.3zM791 883.7c-2.3 4.5-2.3 4.9-.1 2.4 1.2-1.3 2.1-2.9 2.1-3.7 0-2.1-.5-1.7-2 1.3zM731 898.4c0 1.2 23.5 31.5 27.3 35.1 2.5 2.5-1.5-3-13.2-18-14.2-18.3-14.1-18.2-14.1-17.1zM869.6 904.6c-1 1.4-1.5 2.8-1.3 3.1.3.2 1.3-.7 2.3-2.1.9-1.5 1.4-2.9 1.2-3.2-.3-.2-1.3.7-2.2 2.2zM845.6 942.7c-.6 1.4-.5 1.5.5.6.7-.7 1-1.5.7-1.8-.3-.3-.9.2-1.2 1.2zM796.6 1010.7c-.6 1.4-.5 1.5.5.6.7-.7 1-1.5.7-1.8-.3-.3-.9.2-1.2 1.2zM756.7 1016c-1.5 2.6-2.7 5.2-2.7 5.6 0 .5 1.4-1.5 3.1-4.4 1.7-2.9 3-5.5 2.7-5.7-.2-.2-1.6 1.8-3.1 4.5zM779.6 1040.1c-2 3.4-3.5 6.3-3.3 6.6.4.4 3.6-4.8 6.6-10.5 2.4-4.5.2-2-3.3 3.9zM787.5 1040.1c-.4.6-.5 1.2-.2 1.5.2.3.7-.2 1-1.1.7-1.7.1-2-.8-.4zM760.5 1049.6c-.9 1.4-1.4 2.8-1.2 3.1.3.3 1.3-.9 2.2-2.6 1.9-3.8 1.4-4.1-1-.5zM745.1 1051.6c-1.2 2.7-1.1 2.8.4 1.2 1-.9 1.6-2.1 1.3-2.8-.2-.7-1 .1-1.7 1.6zM716.2 1056.9c-1.2 2.1-2.2 4.3-2.2 4.7 0 .5 1.2-1.1 2.5-3.5 1.4-2.4 2.4-4.5 2.2-4.7-.2-.2-1.3 1.4-2.5 3.5zM754.2 1060.4c-1.2 1.8-2.2 3.6-2.2 4 0 .4-.9 2.1-2.1 3.8-1.2 1.6-1.9 3.1-1.6 3.4.2.3 2.3-2.7 4.6-6.7 4.4-7.6 5.1-10 1.3-4.5zM717 1062.1c-.7 1.1-1 2.3-.7 2.5.2.2.9-.7 1.5-2.1 1.4-3 .7-3.3-.8-.4zM772.6 1066.5c-1.3 2.5-2.1 4.3-1.5 4 1-.7 5.2-8.5 4.5-8.5-.2 0-1.6 2-3 4.5zM719.4 1064.6c-.7.3-1 1.3-.7 2.3.3 1.1-.1 3-.7 4.2-.7 1.4-.8 2-.2 1.4 1.5-1.4 4.4-8.5 3.5-8.4-.5 0-1.3.3-1.9.5zM747.2 1073.7c-1.4.5-5.2 8.5-5.1 10.6 0 .7.8-.7 1.7-3 .9-2.2 2.6-5 3.6-6.2 2-2.2 2-2.3-.2-1.4zM689.6 1075.6c-1 2.5.1 2.9 1.4.5.6-1.2.7-2.1.1-2.1-.5 0-1.2.7-1.5 1.6zM694.2 1076c-.7 1.1-.8 2-.3 2 .9 0 2.4-3 1.8-3.6-.1-.2-.8.6-1.5 1.6zM711.6 1077.7c-1.3 2.7-1.4 3.3-.3 2.5.7-.7 1.8-.8 2.2-.4.5.4.5.1.1-.6-.4-.6-.2-1.2.3-1.2 1.3 0 1.5-2.7.3-3.4-.5-.3-1.7 1.1-2.6 3.1zM673.2 1077.3c-.6.7-.7 1.8-.3 2.6.7 1 1 .8 1.6-.8.8-2.7.2-3.6-1.3-1.8zM700.6 1085.6c-5.5 8.9-5.6 11-.2 2.9 3.4-5.1 6.1-10.5 5.2-10.5-.2 0-2.4 3.4-5 7.6zM764.7 1079.7c-.4.3-.7 1.1-.7 1.7 0 .6.5.5 1.2-.2.6-.6.9-1.4.7-1.7-.3-.3-.9-.2-1.2.2zM679.2 1084c-.8 1.3-.8 2-.2 2 .6 0 1.3-.7 1.7-1.5.9-2.4-.1-2.7-1.5-.5zM683.7 1083.4c-.4 1-.5 2.1-.2 2.4.9.9 1.7-.6 1.3-2.5-.3-1.7-.4-1.7-1.1.1zM704.8 1089.5c-.6 1.3-1.5 2.2-1.9 1.9-.5-.3-.9.4-.9 1.6 0 1.2-.7 3.5-1.6 5.2-.9 1.8-1.1 2.7-.4 2.3.7-.4 1.8-2.3 2.6-4.1.8-1.9 1.8-3.4 2.3-3.4.5 0 1.1-.8 1.5-1.8.3-.9.9-2.3 1.2-3 .3-.6.1-1.2-.5-1.2s-1.6 1.1-2.3 2.5zM678.7 1092.2c-.9.7-2.1 2.6-2.7 4.2-1.4 3.7.6 2.3 3.3-2.3 2-3.4 1.9-3.7-.6-1.9zM691 1111c-.6 1.2-.9 2.4-.7 2.7.3.2 1.1-.5 1.7-1.7.6-1.2.9-2.4.7-2.7-.3-.2-1.1.5-1.7 1.7zM685.2 1115.2c-1.8 2.3-4.3 7.9-4 8.9.2.6 1.6-1.5 3.1-4.5 2.6-5.5 2.9-6.8.9-4.4zM678.5 1128.1c-1.1 1.7.1 2.1 1.5.4.8-.9.8-1.5.2-1.5-.6 0-1.4.5-1.7 1.1zM688.2 1148.1c-1.2 2.1-2.1 3.9-1.8 3.9.7 0 4.9-7.1 4.4-7.5-.2-.2-1.4 1.4-2.6 3.6zM979 1158.7c0 1.5 3.6 5.9 9 11.2 5.2 5.1 5.3 5.2 1 1.9-6.7-5.1-8.1-5.7-3-1.1 14.9 13.2 24.6 21.2 26.4 21.7 1.8.4 1.7.2-.6-1.9-1.6-1.3-3.6-2.8-4.5-3.4-1-.5-1.5-1.3-1.1-1.7 1-1 18 11.9 22.9 17.4 2.3 2.6 3.6 3.9 2.9 2.9-.7-.9-.9-1.7-.5-1.7 1.3 0 10.6 7.2 10.1 7.8-.3.2-1.2.1-1.9-.4s0 .2 1.6 1.5c2.6 2.3 8.3 4 7.2 2.1-.3-.4-6.5-5.4-13.9-10.9-7.3-5.6-13.9-10.8-14.6-11.6-.7-.8-1.7-1.5-2.3-1.5-.5 0-2.5-1.8-4.4-4-1.9-2.2-4.3-4-5.4-4-1 0-1.9-.7-1.9-1.5s-1.4-2.7-3.2-4.2c-1.8-1.6-5.5-4.9-8.3-7.5-6-5.7-13.7-11.8-14.7-11.8-.5 0-.8.3-.8.7zm24.1 24c1.3 1.6 1.2 1.6-.6.3-5.9-4.2-8.5-6.5-8.5-7.3 0-1 7 4.3 9.1 7zm41 31c1.3 1.6 1.2 1.7-.3.4-1-.7-1.8-1.5-1.8-1.7 0-.8.8-.3 2.1 1.3zM633 1163c0 1.1.2 2 .5 2 .2 0 .9-.9 1.5-2 .9-1.6.8-2-.5-2-.8 0-1.5.9-1.5 2zM699 1166c-.6 1.1-.8 2-.6 2 .3 0 1-.9 1.6-2 .6-1.1.8-2 .6-2-.3 0-1 .9-1.6 2zM634 1169.5c-.7.9-1 1.8-.7 2.1.3.3 1-.4 1.7-1.5 1.3-2.5.8-2.7-1-.6zM689.1 1182.6c-4.5 7.5-8 13.8-7.8 14 .1.2 3-4.3 6.4-9.9 9.6-16 10.5-17.7 10-17.7-.2 0-4.1 6.1-8.6 13.6zM626.6 1172.2c-2.1 3-.7 4.6 1.5 1.7 1-1.3 1.9-2.7 1.9-3.2 0-1.5-1.9-.6-3.4 1.5zM645.6 1177.5c-.3.8-.1 1.5.4 1.5.6 0 1-.7 1-1.5s-.2-1.5-.4-1.5-.6.7-1 1.5zM615.9 1190.7c-1.3 1.6-1.2 1.7.4.4 1.6-1.3 2.1-2.1 1.3-2.1-.2 0-1 .8-1.7 1.7zM1053 1191.9c4.1 3.4 11 8.3 11 7.8 0-.5-9.8-8-12-9.1-.8-.4-.4.2 1 1.3zM619.6 1193.5c.4.8 1 1.2 1.5.9 1.4-.8 1-2.4-.6-2.4-.9 0-1.2.6-.9 1.5zM676 1205c-.6 1.1-.8 2-.6 2 .3 0 1-.9 1.6-2 .6-1.1.8-2 .6-2-.3 0-1 .9-1.6 2zM603.4 1207.4c-.8 2.2.3 3.3 1.8 1.8.9-.9.9-1.5 0-2.4-.9-.9-1.3-.7-1.8.6z"/><path d="M1034 1207.4c0 .2.8 1 1.8 1.7 1.5 1.3 1.6 1.2.3-.4s-2.1-2.1-2.1-1.3zM661 1230.2c-11.5 19.3-11.7 19.7-10.3 18.3.6-.6 5.4-8.4 10.8-17.5 11.4-19.3 10.7-18 10.2-18-.2 0-5.1 7.8-10.7 17.2zM590.8 1229.7c-1.4 2.1-3 4.9-3.7 6.3l-1.2 2.5 1.7-2.3c1.5-2.1 4.2-3.3 3-1.3-.8 1.2.3 4.1 1.5 4.1 1.3 0 1.1-5.8-.2-6.2-.8-.3-.6-1.4.5-3.6 2.2-4.3 1.4-4-1.6.5zM1062 1230.5c0 .2 1 1 2.3 1.6 2 1.1 2.1 1.1.8-.4-1.3-1.6-3.1-2.3-3.1-1.2zM615 1232.6c0 1.4.3 1.4 1.5.4.8-.7 1.5-1.4 1.5-1.6 0-.2-.7-.4-1.5-.4s-1.5.7-1.5 1.6zM1086.1 1233.3c.2.1 1.3.9 2.4 1.7 1.9 1.4 1.9 1.4.6-.3-.7-.9-1.8-1.7-2.4-1.7-.6 0-.8.1-.6.3zM587.6 1243c-3 1.9-4.6 3.8-4.6 5.5 0 .5.4.4.9-.3.4-.7 1.3-1.2 1.9-1 .7.2 2.2-1.2 3.3-3 2.4-3.7 2.4-3.7-1.5-1.2zM1099.5 1242.7c1.8 1.7 11.2 8.3 11.9 8.3.3 0 .6-.6.6-1.3 0-1.4-6.3-5.9-7.6-5.5-.5.1-2-.4-3.4-1.1-1.4-.7-2-.9-1.5-.4zM579.3 1245.2c-.6.7-1.4 2-1.9 2.8-.7 1.3-.5 1.3 1.6-.1 2.5-1.7 3.8-3.9 2.2-3.9-.5 0-1.4.6-1.9 1.2zM583 1252c-.6 1.1-1.6 1.9-2.2 1.7-.5-.1-1.8 1-2.7 2.5-.9 1.4-3.4 5.2-5.6 8.3-8 11.5-8.6 12.6-7.9 14.7.5 1.7 2.2-.5 9.5-11.6 9.5-14.6 11.3-17.6 10.5-17.6-.3 0-1 .9-1.6 2zM648 1252c-.6 1.1-.8 2-.6 2 .3 0 1-.9 1.6-2 .6-1.1.8-2 .6-2-.3 0-1 .9-1.6 2zM573.6 1256c-2.8 4.3-3.5 6.8-1 3.5 1.9-2.4 4.6-7.5 4.1-7.5-.3 0-1.6 1.8-3.1 4zM599.5 1256.6c-.9 1.5-1.2 2.3-.6 2 1.1-.7 3.5-4.6 2.8-4.6-.3 0-1.2 1.2-2.2 2.6zM645 1257c-.6 1.1-.8 2-.6 2 .3 0 1-.9 1.6-2 .6-1.1.8-2 .6-2-.3 0-1 .9-1.6 2z"/><path d="M640.5 1264.6c-1.5 2.5-2.5 4.7-2.3 4.9.2.2 1.6-1.8 3.1-4.6 3.5-6.2 2.8-6.5-.8-.3zM567.5 1265.6c-.9 1.5-1.2 2.3-.6 2 1.1-.7 3.5-4.6 2.8-4.6-.3 0-1.2 1.2-2.2 2.6zM561.6 1272.2c-2.1 2.9-2 3.8.3 3.8 1.2 0 2-.9 2.3-2.5.7-3.4-.7-4.1-2.6-1.3zM548.8 1295.7c-2.9 3.4-3 4.8-.2 2.1 1.5-1.5 2.6-3 2.3-3.3-.3-.3-1.3.3-2.1 1.2zM509.6 1352.8c-.3.5-.1 1.4.3 2 .6 1 1 1 2-.1.9-1.2.8-1.6-.3-2-.9-.4-1.7-.3-2 .1zM506.5 1359c-.4 1.2-.5 2.4-.2 2.7.3.2.8-.5 1.2-1.7.4-1.2.5-2.4.2-2.7-.3-.2-.8.5-1.2 1.7zM641 786.6c0 .5.7 1.9 1.5 3 .8 1 1.5 1.4 1.5.8 0-.5-.7-1.9-1.5-3-.8-1-1.5-1.4-1.5-.8z"/></svg>
