<?xml version="1.0" standalone="no"?>
<!DOCTYPE svg PUBLIC "-//W3C//DTD SVG 20010904//EN"
 "http://www.w3.org/TR/2001/REC-SVG-20010904/DTD/svg10.dtd">
<svg version="1.0" xmlns="http://www.w3.org/2000/svg"
 width="1618.000000pt" height="1618.000000pt" viewBox="0 0 1618.000000 1618.000000"
 preserveAspectRatio="xMidYMid meet">
<metadata>
Created by potrace 1.11, written by Peter Selinger 2001-2013
</metadata>
<g transform="translate(0.000000,1618.000000) scale(0.100000,-0.100000)"
fill="#000000" stroke="none">
<path d="M7060 16168 c-991 -138 -1788 -381 -2631 -804 -790 -395 -1473 -888
-2099 -1514 -626 -626 -1119 -1309 -1514 -2099 -415 -828 -666 -1641 -796
-2573 -19 -140 -20 -195 -20 -1083 0 -888 1 -943 20 -1083 130 -932 381 -1745
796 -2573 395 -790 888 -1473 1514 -2099 626 -626 1309 -1119 2099 -1514 851
-426 1702 -685 2654 -806 147 -19 215 -20 1002 -20 787 0 855 1 1002 20 952
121 1803 380 2654 806 790 395 1473 888 2099 1514 626 626 1119 1309 1514
2099 426 851 685 1702 806 2654 19 147 20 215 20 1002 0 787 -1 855 -20 1002
-121 952 -380 1803 -806 2654 -395 790 -888 1473 -1514 2099 -626 626 -1309
1119 -2099 1514 -828 415 -1641 666 -2573 796 -141 19 -192 20 -1095 19 -522
-1 -977 -6 -1013 -11z m541 -2164 c-12 -31 -20 -59 -17 -61 2 -2 12 17 22 42
10 26 20 41 24 35 4 -7 12 1 20 20 16 38 35 52 25 19 -7 -23 -7 -23 8 -4 16
20 16 20 23 0 5 -11 8 -34 8 -52 0 -17 4 -29 10 -26 5 4 7 -11 3 -38 -5 -32
-4 -38 3 -21 15 35 29 26 23 -17 -5 -35 -3 -39 21 -45 22 -5 25 -10 20 -31 -4
-17 -2 -25 6 -25 9 0 11 -11 7 -34 -4 -28 -2 -35 14 -39 13 -3 19 -14 19 -32
0 -22 4 -26 19 -22 17 4 21 -2 27 -52 3 -31 10 -60 14 -66 10 -13 10 -4 11
-147 1 -68 4 -113 6 -100 7 38 28 19 31 -29 2 -24 10 -60 19 -79 15 -33 16
-33 24 -12 11 30 29 28 29 -4 0 -23 3 -25 25 -20 21 5 25 2 31 -21 16 -71 27
-109 34 -118 26 -33 60 -228 60 -341 0 -36 4 -63 9 -60 4 3 11 -42 14 -100 7
-122 30 -235 99 -494 59 -220 62 -227 122 -310 89 -124 97 -137 90 -153 -7
-18 -62 -22 -99 -8 -15 6 -22 3 -30 -13 -16 -31 -39 -30 -78 3 -19 17 -68 44
-108 61 -60 24 -86 41 -137 96 l-64 66 -22 -21 c-17 -16 -30 -19 -61 -14 -57
8 -246 101 -272 133 -19 23 -34 28 -110 39 -48 7 -104 19 -123 26 -19 8 -60
21 -90 31 -89 27 -129 51 -136 81 -4 15 -28 48 -54 74 -32 32 -51 62 -61 95
-18 61 -15 196 5 289 21 99 121 443 140 485 l16 35 -5 -55 -5 -55 14 35 c8 19
35 96 61 170 61 178 66 190 77 190 5 0 6 5 3 11 -4 6 1 31 10 55 9 25 15 47
12 50 -2 2 -17 -30 -32 -73 -15 -43 -31 -80 -35 -83 -8 -5 -68 -166 -77 -207
-3 -13 -9 -23 -13 -23 -12 0 201 613 240 690 6 11 15 29 20 40 6 11 10 26 10
35 0 8 23 74 51 146 36 91 54 128 62 120 7 -7 4 -27 -12 -67z m-1990 -1972
c276 -249 688 -554 1034 -763 316 -192 835 -451 1100 -549 61 -22 118 -45 128
-51 20 -11 143 -38 322 -69 140 -25 281 -36 640 -50 277 -11 428 -25 433 -41
2 -5 26 -9 53 -9 48 0 67 -14 32 -23 -10 -3 -1 -5 19 -6 63 -2 77 -13 32 -26
l-39 -11 48 -8 c26 -4 47 -11 47 -17 0 -5 12 -9 28 -9 15 0 34 -5 42 -10 12
-8 8 -10 -15 -11 -26 -1 -24 -3 20 -17 l50 -16 -70 -12 c-68 -11 -69 -11 -22
-13 26 0 64 -10 84 -21 21 -11 51 -21 68 -22 20 -1 14 -3 -20 -8 -27 -4 56 -4
185 -1 129 3 253 5 275 4 22 -2 105 -7 185 -12 80 -5 169 -9 198 -10 33 -1 51
-5 47 -11 -4 -6 11 -10 37 -11 24 0 52 -4 63 -8 22 -9 25 -8 -149 -32 -49 -7
-85 -14 -79 -16 6 -2 42 0 80 5 37 5 73 6 78 2 11 -8 104 -19 245 -29 l95 -6
-87 -14 c-93 -15 -116 -33 -26 -20 78 11 120 11 113 -1 -3 -6 4 -14 17 -19
l23 -8 -23 -7 c-12 -4 -27 -4 -32 -1 -6 4 -21 0 -33 -8 -14 -9 -79 -19 -175
-27 -83 -8 -152 -17 -152 -21 0 -4 -15 -10 -32 -12 -31 -4 -30 -4 7 -6 22 0
51 -5 65 -8 23 -7 21 -8 -15 -14 -35 -5 -31 -6 25 -8 75 -2 112 -9 104 -22 -3
-5 -26 -9 -50 -9 -52 0 -58 -23 -8 -28 16 -2 35 -9 43 -15 8 -7 39 -17 70 -23
l56 -11 -50 -3 -50 -2 50 -10 c28 -5 65 -11 83 -14 20 -3 30 -9 26 -16 -5 -8
-49 -9 -145 -5 -76 4 -140 3 -143 -2 -3 -4 16 -8 42 -9 156 -3 418 -32 289
-32 -20 0 -39 -5 -43 -11 -5 -9 6 -10 42 -6 27 4 63 3 79 -1 26 -8 20 -10 -41
-16 -40 -4 -82 -5 -95 -2 -13 3 -76 8 -139 11 -63 4 -117 9 -119 11 -2 2 5 4
17 4 12 0 22 5 22 11 0 6 -12 9 -28 8 -15 -2 -33 0 -40 4 -15 10 -35 -1 -27
-14 4 -5 -9 -9 -27 -9 l-33 0 33 21 c26 17 30 24 21 35 -13 16 -79 19 -79 4 0
-14 -73 -12 -90 3 -12 10 -12 9 -2 -4 10 -14 9 -18 -10 -23 -13 -3 -24 -2 -26
3 -2 5 -22 7 -45 5 -27 -2 -34 -1 -19 4 30 9 25 26 -8 29 -14 1 -44 4 -67 8
-38 5 -43 4 -43 -14 0 -26 -26 -17 -33 11 -5 18 -11 20 -48 14 -28 -5 -45 -3
-50 5 -4 8 -19 9 -43 5 l-36 -7 0 -72 c0 -146 -21 -301 -61 -457 -70 -268 -76
-285 -146 -422 -38 -73 -75 -149 -83 -168 -30 -78 -128 -246 -167 -287 -28
-28 -43 -53 -43 -69 0 -14 -4 -23 -9 -20 -8 5 -33 -44 -46 -92 -4 -13 -33 -67
-64 -120 -32 -53 -99 -180 -150 -282 -51 -102 -106 -202 -122 -222 -16 -20
-63 -106 -105 -190 -62 -124 -133 -255 -151 -277 -2 -2 -5 -2 -7 0 -3 2 6 26
19 52 32 62 18 61 -18 -3 -18 -32 -26 -57 -22 -72 4 -17 -7 -48 -40 -106 -47
-83 -62 -103 -45 -56 19 48 10 49 -20 2 -28 -44 -60 -103 -130 -233 -14 -27
-32 -61 -39 -74 -9 -15 -16 -20 -20 -12 -12 18 -51 -71 -44 -99 18 -75 563
-740 968 -1180 231 -251 619 -640 755 -757 88 -75 527 -419 648 -506 28 -21
52 -45 52 -53 0 -17 -9 -13 -63 29 -21 16 -40 27 -43 24 -3 -3 31 -33 76 -67
44 -34 78 -65 75 -69 -6 -11 15 -28 35 -28 8 0 57 -30 109 -66 90 -64 105 -79
58 -57 -12 6 -2 -6 23 -27 24 -21 58 -51 75 -66 27 -26 28 -27 5 -16 -14 6
-38 21 -55 34 -16 12 -41 27 -55 34 -21 11 -20 8 8 -18 22 -21 27 -31 17 -31
-9 0 -26 11 -38 24 -12 13 -38 31 -57 40 l-35 18 30 -26 c17 -15 54 -40 82
-57 29 -17 56 -35 59 -40 3 -5 10 -9 16 -9 6 0 5 7 -3 17 -12 14 -12 16 1 11
8 -3 14 -12 14 -21 -1 -9 20 -33 47 -54 60 -45 56 -55 -6 -18 -26 15 -49 24
-52 21 -8 -7 -18 1 112 -91 61 -43 115 -83 120 -88 14 -13 -34 12 -67 35 -16
11 -28 17 -28 14 0 -2 39 -33 88 -67 103 -73 109 -79 96 -79 -6 0 -52 29 -103
66 -51 36 -96 63 -98 60 -9 -8 -44 14 -38 24 7 11 -42 45 -77 54 -16 3 -28 13
-28 21 0 8 -7 15 -15 15 -8 0 -23 9 -32 20 -10 11 -25 20 -35 20 -9 0 -22 9
-28 20 -6 11 -14 19 -18 16 -8 -5 -84 43 -117 74 -11 10 -42 30 -70 44 -27 14
-102 61 -165 105 -63 44 -117 77 -120 74 -3 -3 1 -8 8 -10 7 -3 33 -21 57 -42
24 -20 79 -60 122 -90 138 -96 312 -225 308 -230 -3 -2 -20 8 -38 22 -21 16
-42 24 -54 21 -11 -3 -25 2 -34 12 -13 16 -12 16 9 5 53 -28 26 -2 -55 54
-113 78 -113 78 -113 65 0 -6 8 -13 18 -17 22 -8 113 -76 108 -81 -10 -9 -161
90 -258 168 -20 17 -43 30 -51 30 -8 0 -29 16 -48 36 -52 55 -67 67 -84 70
-22 3 -45 24 -45 40 0 8 -6 14 -14 14 -8 0 -28 14 -45 31 -17 17 -35 28 -41
24 -9 -6 -95 58 -155 116 -56 53 -124 107 -145 114 -11 3 -20 12 -20 19 0 7
-21 28 -47 46 -51 36 -210 173 -230 197 -6 8 -16 12 -22 8 -6 -3 -11 -2 -11 3
0 5 -17 21 -37 35 -21 14 -66 51 -100 84 -34 32 -92 82 -128 112 -41 34 -64
60 -61 68 4 8 -6 21 -24 31 -16 9 -31 25 -34 34 -2 10 -9 18 -16 18 -6 0 -8
-4 -5 -10 3 -6 -1 -7 -9 -4 -32 12 -14 -22 42 -80 l57 -60 -74 65 c-73 64 -96
92 -70 87 27 -6 19 33 -15 69 -20 21 -36 33 -36 26 0 -6 5 -15 10 -18 6 -3 10
-11 10 -17 0 -22 -28 13 -33 42 -5 21 -14 31 -32 36 -14 3 -23 10 -20 14 3 5
-7 18 -21 29 -15 12 -90 81 -168 155 -77 73 -157 147 -176 164 -36 32 -23 46
14 15 12 -10 -1 6 -29 35 -27 29 -54 51 -60 48 -14 -5 -45 12 -45 26 0 6 10 3
21 -8 22 -19 22 -19 11 2 -6 11 -31 42 -57 70 -25 27 -58 64 -72 82 -27 34
-43 41 -43 18 0 -8 15 -26 33 -40 18 -14 48 -45 67 -68 33 -42 33 -42 4 -18
-16 13 -47 40 -68 60 -60 53 179 -201 296 -315 57 -55 107 -109 113 -120 6
-11 23 -21 38 -23 20 -3 27 -9 27 -25 -1 -15 33 -55 107 -125 59 -57 99 -99
88 -93 -23 10 -789 783 -812 818 -20 29 -9 90 13 72 8 -6 14 -23 14 -38 0 -14
5 -33 10 -41 8 -13 10 -12 10 3 0 9 5 17 10 17 6 0 10 -4 10 -8 0 -17 27 -45
34 -34 3 6 -40 62 -96 124 -57 63 -125 138 -152 168 -33 38 -47 48 -43 33 4
-17 1 -20 -12 -15 -18 7 32 -59 74 -98 27 -24 27 -24 16 -2 -24 45 -2 21 27
-31 16 -29 37 -59 46 -66 18 -15 23 -66 5 -56 -5 4 -8 12 -6 18 2 7 -31 49
-74 94 -44 46 -79 87 -79 92 0 5 -7 12 -16 15 -14 5 -15 4 -4 -9 10 -13 9 -15
-8 -15 -21 0 -67 -69 -157 -235 -21 -38 -79 -140 -130 -225 -50 -85 -140 -238
-200 -340 -179 -305 -267 -450 -277 -456 -15 -9 14 42 159 289 74 126 133 231
130 233 -3 3 -27 -33 -53 -80 -27 -47 -53 -86 -57 -86 -5 0 -5 6 -2 13 4 6 -1
3 -9 -7 -11 -14 -13 -22 -5 -27 8 -4 5 -11 -9 -18 -11 -6 -35 -36 -52 -66 -30
-53 -40 -62 -53 -49 -8 8 27 77 60 122 13 18 33 53 44 78 11 25 26 47 34 50 7
3 16 19 19 37 4 17 24 61 45 97 148 252 181 312 163 295 -5 -5 -56 -90 -112
-187 -60 -105 -106 -175 -113 -171 -6 3 -7 1 -3 -5 9 -14 -62 -144 -74 -137
-5 3 -14 -4 -20 -15 -6 -12 -7 -20 -1 -20 5 0 -13 -39 -41 -87 -53 -94 -81
-131 -54 -73 9 19 11 27 4 16 -7 -10 -25 -34 -40 -53 -16 -20 -28 -42 -28 -50
0 -7 -7 -16 -15 -19 -8 -4 -15 -14 -15 -24 0 -11 -5 -22 -10 -25 -6 -4 -17
-21 -25 -38 -21 -45 -77 -131 -98 -152 -29 -28 -67 -93 -67 -113 0 -10 -16
-41 -35 -68 -19 -27 -35 -53 -35 -58 0 -6 -11 -21 -24 -35 -13 -15 -34 -44
-46 -66 -21 -38 -517 -866 -547 -913 -8 -13 -17 -22 -20 -19 -2 3 8 24 23 48
15 24 22 45 16 47 -5 1 8 35 29 74 29 52 36 74 28 84 -7 9 -3 16 18 26 29 14
82 98 83 131 0 9 5 17 10 17 15 0 50 61 50 86 0 12 16 38 35 59 38 40 40 61 3
29 l-22 -19 15 25 c9 14 31 52 50 85 33 59 34 60 39 30 5 -26 7 -27 13 -10 9
26 7 41 -4 37 -13 -3 -11 3 12 43 16 26 24 33 30 24 9 -15 8 -15 32 21 21 30
22 44 2 36 -13 -5 -13 -1 1 27 42 82 119 204 141 223 14 12 27 33 28 47 4 31
124 229 135 222 4 -3 11 2 14 11 3 8 2 12 -4 9 -22 -14 -8 17 24 52 37 42 60
80 62 103 1 13 127 235 181 320 9 14 -4 3 -30 -25 -25 -27 -46 -56 -47 -64 0
-7 -13 -33 -29 -56 -16 -24 -39 -63 -50 -87 -12 -24 -46 -83 -76 -133 -30 -49
-54 -94 -55 -98 0 -5 -16 -29 -35 -54 -19 -25 -35 -51 -35 -56 0 -10 -61 -116
-150 -262 -20 -33 -67 -114 -104 -180 -38 -66 -74 -124 -80 -130 -16 -13 -86
-130 -86 -143 0 -5 -15 -29 -34 -51 -19 -23 -37 -54 -41 -70 -3 -16 -15 -37
-26 -47 -10 -9 -19 -22 -19 -28 0 -6 -14 -28 -30 -48 -17 -20 -43 -65 -60
-100 -16 -35 -38 -74 -48 -88 -11 -14 -32 -47 -47 -73 -32 -58 -45 -56 -16 2
12 22 21 43 21 47 0 13 -59 -75 -73 -109 -18 -43 -150 -256 -159 -257 -3 0 -4
9 -1 20 8 32 -5 23 -34 -22 -42 -65 -42 -64 -52 -49 -14 22 52 143 189 346 26
39 64 104 85 145 21 41 56 106 80 145 45 76 59 105 47 105 -4 0 -53 -79 -110
-174 -57 -95 -110 -182 -118 -192 -15 -19 51 111 87 170 12 20 15 34 9 42 -7
7 -4 20 10 37 11 14 20 32 20 40 0 9 23 53 51 99 74 120 143 248 116 215 -13
-15 -76 -105 -142 -200 -76 -110 -125 -173 -136 -173 -15 0 -13 8 12 58 16 32
41 68 54 80 28 24 108 153 156 252 20 40 43 73 57 79 12 6 22 18 22 27 0 10
16 30 36 45 20 15 44 46 53 69 19 42 60 110 84 136 24 26 117 190 108 190 -5
0 -21 -24 -36 -52 -25 -49 -91 -142 -156 -221 -14 -18 -38 -55 -54 -84 -15
-28 -34 -54 -41 -57 -8 -3 -14 -15 -14 -26 0 -11 -6 -20 -12 -20 -11 0 -106
-137 -446 -642 -61 -91 -103 -112 -47 -23 57 88 32 64 -40 -40 -36 -52 -70
-94 -74 -92 -4 1 -22 -15 -40 -36 -66 -75 -42 -19 38 88 17 22 42 60 57 85 65
107 253 387 268 400 10 7 26 30 36 50 11 21 52 84 91 141 40 57 83 119 96 138
25 36 24 52 -2 31 -24 -20 -19 6 10 48 14 20 25 45 25 55 0 10 31 69 69 132
38 62 86 145 105 185 20 39 52 98 72 131 20 32 35 61 33 64 -4 3 -32 -37 -90
-130 -10 -16 -50 -75 -89 -130 -38 -55 -70 -109 -70 -121 0 -11 -11 -31 -25
-44 -14 -13 -25 -29 -25 -36 0 -12 -296 -466 -341 -524 -66 -85 -714 -1071
-978 -1490 -70 -110 -60 -74 13 49 36 61 66 118 66 126 0 8 6 15 13 15 6 0 52
66 101 148 49 81 105 170 125 197 31 42 177 265 206 314 6 10 4 12 -5 6 -9 -5
-10 -1 -6 16 6 20 5 21 -4 6 -6 -9 -8 -21 -5 -27 7 -12 -24 -62 -35 -55 -8 5
-41 -41 -105 -145 -15 -25 -34 -48 -41 -53 -7 -4 -15 -21 -19 -37 -4 -16 -11
-32 -15 -35 -5 -3 -34 -44 -64 -90 -51 -78 -76 -102 -76 -74 0 5 -4 8 -9 5 -4
-3 -6 -17 -3 -31 2 -15 0 -25 -7 -25 -7 0 -9 -4 -6 -10 8 -13 -28 -80 -59
-109 -14 -13 -44 -61 -67 -107 -22 -46 -45 -84 -49 -84 -4 0 -11 11 -14 25 -4
14 -13 25 -21 25 -17 0 -48 -43 -50 -69 -1 -19 -11 -33 -67 -91 -21 -21 -38
-43 -38 -48 0 -5 -15 -25 -33 -44 -17 -20 -43 -48 -57 -63 -16 -18 -26 -23
-29 -14 -2 8 -15 0 -33 -22 l-29 -34 30 61 c16 33 50 91 75 127 25 37 46 69
46 70 0 2 29 48 64 103 35 54 94 146 131 204 36 58 91 143 122 190 30 47 84
135 120 195 36 61 116 187 178 280 150 227 208 315 220 334 46 74 105 166 177
276 141 216 182 286 171 293 -7 5 -2 20 13 42 13 19 24 30 24 24 0 -5 -7 -20
-16 -32 -9 -13 -14 -26 -11 -29 3 -2 18 15 34 39 15 23 33 47 40 51 7 4 13 14
13 21 0 13 17 41 126 205 94 142 138 211 197 311 28 47 69 112 91 146 23 33
52 80 66 103 14 24 35 55 47 71 24 29 93 147 93 158 0 11 -59 -63 -60 -75 0
-11 -70 -86 -76 -81 -6 6 172 267 204 298 40 40 58 70 41 70 -7 0 -4 10 8 23
11 12 31 42 43 67 13 25 41 62 64 83 23 21 33 35 22 31 -17 -6 -16 -3 5 34 13
22 32 43 41 46 10 2 18 12 18 23 0 10 16 43 36 73 20 30 33 47 30 38 -3 -10
-9 -26 -12 -35 -3 -10 8 2 25 27 17 25 26 46 21 48 -6 2 -3 17 6 34 12 22 18
27 24 18 6 -9 13 -3 26 21 17 33 17 34 -2 19 -34 -28 52 109 210 333 26 37 58
85 70 106 11 21 40 66 64 101 42 64 59 107 22 60 -10 -14 -21 -22 -25 -19 -8
9 5 59 16 59 18 0 8 24 -26 61 -19 22 -35 44 -35 50 0 6 17 -10 38 -35 40 -48
52 -55 52 -30 0 20 -42 81 -154 224 -167 214 -213 274 -371 495 -245 340 -501
737 -489 757 4 6 3 8 -4 4 -6 -4 -39 40 -80 106 -63 103 -103 172 -269 468
-156 277 -362 714 -493 1044 -13 33 -25 55 -27 49 -2 -6 21 -73 52 -149 56
-139 71 -212 19 -96 -15 34 -29 61 -31 59 -3 -4 30 -89 78 -199 31 -71 34 -82
20 -74 -5 4 -6 -4 -3 -16 5 -20 7 -21 10 -4 2 11 35 -45 83 -144 44 -90 77
-165 75 -167 -2 -3 -11 8 -20 24 -20 36 -20 26 -1 -21 8 -20 12 -36 8 -36 -10
0 -63 95 -63 113 0 6 -19 46 -43 87 -37 67 -54 101 -104 217 -7 18 -18 35 -23
38 -6 3 -10 17 -10 29 0 13 -7 29 -15 36 -8 6 -14 15 -13 18 1 8 -8 36 -27 77
-37 81 -55 129 -55 146 0 10 -4 20 -10 24 -5 3 -14 20 -19 38 -17 56 -42 121
-66 172 -12 28 -39 95 -59 150 -76 205 -121 308 -138 313 -10 2 -24 25 -34 54
l-16 50 38 34 c22 20 33 38 28 43 -5 5 -106 62 -224 126 -118 65 -235 132
-260 149 -25 17 -46 31 -48 32 -2 1 6 21 17 45 10 24 25 63 32 87 7 23 29 70
50 105 l38 62 -21 16 -21 17 24 29 c110 136 175 205 207 222 19 10 22 18 18
37 -9 33 68 175 127 235 24 24 48 52 53 61 5 9 26 24 46 32 34 15 38 15 47 -1
8 -15 16 -11 65 35 30 28 59 52 64 52 6 0 39 -26 73 -58z m4422 -2209 c-7 -2
-21 -2 -30 0 -10 3 -4 5 12 5 17 0 24 -2 18 -5z m22 -23 c27 -7 26 -8 -15 -8
-25 0 -54 3 -65 8 -16 7 -13 9 15 8 19 0 49 -4 65 -8z m339 -15 c7 -19 -3 -19
-28 0 -19 15 -19 15 1 15 11 0 23 -7 27 -15z m-440 -106 c-8 -14 -34 -11 -34
4 0 8 3 17 7 20 9 9 34 -13 27 -24z m-4131 -154 c19 -44 82 -179 141 -299 58
-121 104 -221 102 -224 -10 -10 -296 580 -296 611 0 23 20 -10 53 -88z m249
-570 c42 -77 86 -159 98 -183 12 -24 25 -41 27 -38 3 2 -1 14 -7 26 -6 12 -9
24 -7 27 6 5 47 -69 47 -84 0 -4 -7 2 -15 13 -28 37 -14 0 31 -83 25 -47 44
-86 42 -88 -3 -4 -194 331 -227 397 -8 16 -16 27 -18 24 -5 -5 107 -218 164
-311 24 -38 43 -76 43 -84 0 -8 11 -28 24 -45 38 -51 107 -167 104 -177 -3 -9
-138 204 -138 219 0 5 -13 26 -30 47 -16 21 -30 42 -30 47 0 5 -19 41 -42 81
-22 40 -66 120 -97 180 -70 134 -74 141 -90 161 -20 24 -1 19 27 -6 l25 -23
-17 32 c-9 18 -16 35 -16 40 0 13 24 -27 102 -172z m22 19 c10 -25 -1 -29 -14
-5 -6 12 -7 21 -1 21 5 0 12 -7 15 -16z m350 -673 c64 -106 115 -195 113 -198
-3 -2 -28 34 -57 82 -29 47 -55 83 -57 81 -3 -2 1 -14 7 -26 6 -12 9 -24 7
-26 -5 -5 -67 98 -67 110 0 4 5 4 10 1 17 -10 12 -1 -45 96 -30 51 -55 98 -55
103 0 15 13 -5 144 -223z m263 -427 c-2 -3 -28 32 -57 76 -29 44 -55 80 -57
80 -2 0 -1 -10 2 -22 5 -18 4 -20 -4 -8 -6 8 -8 22 -5 32 2 9 0 19 -6 23 -5 3
-10 14 -10 23 0 9 32 -32 71 -91 39 -60 69 -111 66 -113z m-47 33 c0 -16 -20
5 -36 36 l-15 32 25 -30 c14 -16 26 -34 26 -38z m89 -84 l22 -38 -26 28 c-14
15 -25 32 -25 38 0 17 8 9 29 -28z m29 -9 c-4 -3 -12 5 -18 18 -12 22 -12 22
6 6 10 -10 15 -20 12 -24z m42 -97 c0 -5 -7 -4 -15 3 -21 17 -19 1 5 -37 30
-49 16 -40 -21 14 -24 34 -28 45 -15 40 14 -6 17 -3 12 10 -6 15 -4 15 14 -2
11 -10 20 -22 20 -28z m50 -72 c17 -25 27 -45 23 -45 -5 0 -14 10 -22 23 -8
12 -21 32 -29 45 -27 42 -3 22 28 -23z m110 -160 c0 -5 -11 4 -25 20 -13 17
-24 35 -24 40 0 6 11 -3 24 -20 14 -16 25 -34 25 -40z m86 -112 c35 -48 38
-59 10 -33 -31 28 -51 60 -38 60 4 0 17 -12 28 -27z m72 -99 c13 -20 19 -33
13 -30 -16 10 -53 66 -44 66 4 0 18 -16 31 -36z m68 -91 c-7 -7 -26 7 -26 19
0 6 6 6 15 -2 9 -7 13 -15 11 -17z m5 -45 c11 -21 11 -22 -4 -9 -10 7 -17 17
-17 22 0 15 9 10 21 -13z m52 -38 c-6 -6 -33 30 -33 43 0 5 9 -1 19 -14 11
-13 17 -26 14 -29z m28 -72 c16 -29 2 -21 -22 15 -17 23 -18 28 -6 18 10 -8
23 -23 28 -33z m69 -91 c0 -6 -9 0 -20 13 -11 13 -20 25 -20 28 0 3 9 -3 20
-13 11 -10 20 -23 20 -28z m31 6 c13 -16 12 -17 -3 -4 -10 7 -18 15 -18 17 0
8 8 3 21 -13z m1229 -5 c0 -7 -5 -20 -10 -28 -8 -12 -10 -9 -10 13 0 15 5 27
10 27 6 0 10 -6 10 -12z m-1179 -55 c13 -16 12 -17 -3 -4 -10 7 -18 15 -18 17
0 8 8 3 21 -13z m-181 -593 c-6 -12 -14 -20 -17 -17 -2 3 1 14 8 26 17 26 24
19 9 -9z m-100 -149 c0 -5 -9 -19 -21 -32 l-20 -24 17 33 c19 33 24 38 24 23z
m-376 -585 c-9 -15 -19 -25 -21 -22 -3 2 3 16 13 30 9 15 19 25 21 22 3 -2 -3
-16 -13 -30z m1867 7 c13 -17 13 -17 -6 -3 -11 8 -22 16 -24 17 -2 2 0 3 6 3
6 0 17 -8 24 -17z m-2091 -359 c-74 -113 -87 -130 -78 -104 10 27 139 222 144
217 3 -3 -27 -54 -66 -113z m-40 -131 c0 -5 -10 -19 -21 -33 l-20 -25 16 33
c15 30 25 41 25 25z m-81 -58 c-30 -50 -47 -56 -19 -7 13 23 27 42 32 42 4 0
-2 -16 -13 -35z m21 -36 c-7 -11 -14 -18 -17 -15 -3 3 0 12 7 21 18 21 23 19
10 -6z m901 -23 c-12 -20 -20 -39 -20 -43 0 -4 -4 -9 -10 -11 -19 -6 -12 22
15 61 32 48 42 42 15 -7z m-996 -53 c-10 -14 -27 -41 -38 -60 -11 -19 -22 -32
-24 -29 -6 5 64 116 73 116 3 0 -2 -12 -11 -27z m921 -70 c-13 -27 -32 -57
-40 -68 l-16 -20 7 20 c6 19 15 35 48 90 26 43 27 28 1 -22z m2209 -129 c50
-44 117 -102 150 -130 33 -28 114 -96 180 -151 124 -104 165 -143 149 -143 -5
0 -22 13 -39 28 -16 15 -61 54 -100 86 -38 32 -90 77 -115 100 -25 22 -83 73
-130 112 -47 39 -124 109 -171 155 -88 87 -77 78 76 -57z m-2192 46 c-9 -16
-21 -30 -26 -30 -9 0 -1 17 21 43 23 26 25 21 5 -13z m-107 -68 c-18 -16 -18
-16 -6 6 6 13 14 21 18 18 3 -4 -2 -14 -12 -24z m-924 -4 c-7 -7 -12 -8 -12
-2 0 14 12 26 19 19 2 -3 -1 -11 -7 -17z m-144 -153 c-13 -19 -52 -79 -88
-134 -36 -56 -68 -101 -72 -101 -7 0 10 29 121 203 24 37 47 67 52 67 5 0 -1
-16 -13 -35z m50 6 c-7 -12 -16 -21 -21 -21 -4 0 0 11 9 25 20 30 31 26 12 -4z
m-54 -86 c-23 -35 -29 -25 -7 13 10 18 19 27 21 22 2 -5 -4 -20 -14 -35z m186
-189 c-32 -48 -55 -65 -26 -21 9 14 23 36 32 50 9 14 19 24 21 21 3 -3 -9 -25
-27 -50z m-363 0 c-3 -8 -68 -110 -143 -228 -75 -117 -156 -242 -179 -278 -23
-36 -147 -229 -275 -430 -128 -201 -252 -394 -275 -430 -79 -123 -272 -425
-299 -468 -15 -24 -30 -42 -32 -39 -5 5 350 572 613 977 164 254 276 426 428
663 88 136 161 247 163 247 2 0 2 -6 -1 -14z m399 -12 c-4 -9 -9 -15 -11 -12
-3 3 -3 13 1 22 4 9 9 15 11 12 3 -3 3 -13 -1 -22z m-468 -170 c-7 -15 -14
-21 -16 -15 -2 7 2 18 8 26 18 22 21 18 8 -11z m277 -44 c-9 -16 -20 -30 -26
-30 -6 0 -1 14 11 30 12 17 23 30 26 30 2 0 -2 -13 -11 -30z m-315 -21 c-7
-11 -14 -18 -17 -15 -3 3 0 12 7 21 18 21 23 19 10 -6z m719 -144 c-12 -19
-23 -35 -25 -35 -2 0 4 16 13 35 9 19 20 35 25 35 4 0 -2 -16 -13 -35z m-808
7 c-5 -10 -18 -25 -27 -33 -16 -12 -17 -12 -9 1 10 18 37 50 42 50 2 0 -1 -8
-6 -18z m-65 -99 c-14 -20 -26 -34 -26 -29 0 13 42 78 47 72 3 -2 -7 -22 -21
-43z m817 2 c-3 -9 -8 -14 -10 -11 -3 3 -2 9 2 15 9 16 15 13 8 -4z m-358 -92
c-1 -17 -90 -163 -99 -163 -4 0 57 120 81 158 16 27 20 28 18 5z m4931 -101
c-4 -3 -14 2 -24 12 -16 18 -16 18 6 6 13 -6 21 -14 18 -18z m224 -145 c167
-117 244 -176 200 -152 -78 42 -392 263 -406 287 -10 15 -6 13 206 -135z
m-110 123 c14 -11 21 -20 17 -20 -5 0 -20 9 -34 20 -14 11 -22 20 -17 20 5 0
20 -9 34 -20z m-5076 -77 c-36 -63 -54 -89 -54 -79 0 11 70 126 77 126 3 0 -7
-21 -23 -47z m5061 -3 c12 -19 -12 -10 -31 11 -19 22 -19 22 3 10 12 -6 25
-16 28 -21z m-5685 -9 c-6 -12 -15 -21 -21 -21 -5 0 -2 11 7 25 20 30 31 26
14 -4z m-51 -85 c-11 -24 -29 -36 -29 -18 0 12 31 54 36 49 3 -2 -1 -16 -7
-31z m603 -25 c-9 -16 -18 -28 -20 -27 -5 6 21 56 29 56 5 0 0 -13 -9 -29z"/>
<path d="M7533 13822 c-12 -34 -20 -62 -18 -62 11 0 46 84 43 103 -2 13 -10 0
-25 -41z"/>
<path d="M7481 13698 c-4 -13 -25 -67 -45 -122 -20 -54 -35 -100 -33 -102 5
-5 67 148 67 166 0 13 1 13 10 0 8 -13 10 -12 11 5 1 11 1 28 0 38 -1 9 3 17
8 17 6 0 11 5 11 10 0 19 -20 10 -29 -12z"/>
<path d="M7182 12861 c-12 -27 -22 -55 -22 -63 0 -8 -7 -35 -16 -61 -9 -26
-14 -52 -11 -59 2 -7 16 28 31 77 15 50 32 103 38 118 19 48 3 38 -20 -12z"/>
<path d="M5495 10355 c12 -40 129 -334 133 -331 5 5 -75 218 -109 288 -16 35
-27 54 -24 43z"/>
<path d="M5492 10270 c11 -28 23 -49 25 -47 4 5 -34 97 -41 97 -3 0 5 -23 16
-50z"/>
<path d="M5541 10154 c0 -11 3 -14 6 -6 3 7 2 16 -1 19 -3 4 -6 -2 -5 -13z"/>
<path d="M10630 10150 c-12 -8 -11 -10 8 -10 12 0 22 5 22 10 0 13 -11 13 -30
0z"/>
<path d="M6870 10141 c0 -10 50 -25 57 -17 3 2 2 9 -2 15 -8 13 -55 15 -55 2z"/>
<path d="M6674 10125 c19 -50 37 -143 32 -167 -4 -21 -2 -26 9 -21 11 4 16 -3
17 -23 2 -30 4 -54 8 -114 l2 -35 7 30 c5 24 10 13 30 -70 13 -55 26 -106 28
-112 3 -7 -1 -13 -10 -13 -29 0 -4 -91 99 -360 165 -433 383 -898 630 -1347
47 -86 277 -478 308 -525 17 -26 35 -46 39 -45 5 1 29 41 53 87 24 46 53 93
63 104 18 20 51 79 51 91 0 3 -4 3 -10 0 -17 -10 10 48 31 68 10 10 19 26 19
35 0 17 60 143 92 192 9 14 19 41 22 60 3 19 17 48 31 64 14 16 25 39 25 52 0
12 25 77 55 145 31 67 54 124 52 126 -3 2 -10 -10 -17 -27 -7 -16 -17 -30 -22
-30 -5 0 -4 9 2 19 5 11 15 32 21 47 8 23 12 25 19 14 6 -8 10 -12 10 -9 0 4
11 32 25 63 28 64 25 74 -5 19 -23 -42 -22 -31 5 35 11 26 21 39 25 32 9 -14
182 395 204 483 6 25 5 27 -13 15 -15 -9 -19 -19 -15 -38 5 -20 4 -22 -6 -10
-10 13 -11 12 -6 -4 7 -21 -13 -96 -25 -96 -5 0 -6 8 -3 18 5 16 5 16 -6 -1
-6 -9 -8 -27 -5 -38 5 -14 3 -19 -3 -15 -6 4 -8 -3 -5 -16 3 -17 2 -19 -5 -10
-7 11 -10 10 -16 -3 -8 -23 -8 -27 4 -20 6 3 10 3 10 0 0 -14 -72 -181 -82
-190 -8 -7 -9 -4 -4 10 13 37 -11 1 -26 -40 -9 -22 -43 -98 -76 -170 -61 -133
-90 -210 -57 -152 9 16 19 27 21 24 8 -8 -19 -57 -31 -57 -12 0 -60 -97 -143
-285 -71 -160 -140 -303 -151 -310 -13 -7 -2 26 26 78 9 17 56 122 104 232 47
110 111 254 141 320 49 108 156 360 273 645 45 110 136 381 178 535 61 219
127 616 106 641 -6 8 -14 12 -17 9 -3 -2 1 -11 8 -20 16 -20 8 -29 -20 -20
-13 4 -19 12 -16 21 7 18 -14 30 -24 14 -8 -13 -108 -15 -184 -3 -21 3 -36 2
-33 -3 3 -5 -38 -10 -91 -10 -54 -1 -108 -7 -122 -12 -16 -7 -19 -11 -9 -11 9
-1 22 -8 29 -16 10 -12 10 -15 -4 -15 -9 0 -16 -7 -16 -16 0 -12 -6 -15 -22
-11 -133 34 -631 53 -640 25 -3 -9 -43 -9 -179 1 -206 15 -404 47 -586 94 -73
18 -133 30 -133 25 0 -4 -9 1 -20 12 -24 24 -65 28 -56 5z m1726 -161 c0 -2
-13 -4 -30 -4 -16 0 -30 4 -30 8 0 5 14 7 30 4 17 -2 30 -6 30 -8z m-1480
-707 c0 -5 -4 -5 -10 -2 -5 3 -10 14 -10 23 0 15 2 15 10 2 5 -8 10 -19 10
-23z m1513 -717 c-3 -12 -8 -19 -11 -16 -5 6 5 36 12 36 2 0 2 -9 -1 -20z
m-183 -420 c-6 -12 -14 -19 -17 -17 -2 3 1 15 7 27 6 12 14 19 17 17 2 -3 -1
-15 -7 -27z m-40 -90 c-16 -31 -23 -18 -8 15 7 15 14 23 16 17 2 -6 -2 -21 -8
-32z m-270 -515 c-17 -37 -33 -66 -36 -63 -3 3 10 35 28 71 17 37 33 65 35 63
2 -2 -10 -34 -27 -71z m54 29 c5 -14 4 -15 -9 -4 -17 14 -19 20 -6 20 5 0 12
-7 15 -16z"/>
<path d="M6961 10121 c-21 -6 -19 -7 18 -17 37 -10 42 -10 39 5 -4 18 -22 22
-57 12z"/>
<path d="M10635 10100 c-3 -5 1 -10 9 -10 8 0 18 5 21 10 3 6 -1 10 -9 10 -8
0 -18 -4 -21 -10z"/>
<path d="M7125 10090 c3 -5 13 -10 21 -10 8 0 12 5 9 10 -3 6 -13 10 -21 10
-8 0 -12 -4 -9 -10z"/>
<path d="M7204 10075 c26 -19 42 -19 26 0 -7 8 -20 15 -29 15 -13 -1 -13 -3 3
-15z"/>
<path d="M10416 10080 c7 -7 24 -7 50 -1 l39 9 -49 1 c-34 1 -47 -2 -40 -9z"/>
<path d="M7324 10055 c21 -16 106 -21 106 -6 0 10 -50 21 -94 21 -29 -1 -30
-1 -12 -15z"/>
<path d="M10258 10063 c6 -2 18 -2 25 0 6 3 1 5 -13 5 -14 0 -19 -2 -12 -5z"/>
<path d="M7456 10045 c5 -11 11 -12 25 -4 26 13 24 19 -6 19 -17 0 -23 -4 -19
-15z"/>
<path d="M5580 10041 c0 -6 4 -13 10 -16 6 -3 7 1 4 9 -7 18 -14 21 -14 7z"/>
<path d="M7178 10043 c6 -2 18 -2 25 0 6 3 1 5 -13 5 -14 0 -19 -2 -12 -5z"/>
<path d="M7575 10040 c3 -5 8 -10 11 -10 2 0 4 5 4 10 0 6 -5 10 -11 10 -5 0
-7 -4 -4 -10z"/>
<path d="M5645 9873 c16 -38 25 -52 25 -39 0 12 -29 76 -35 76 -3 0 2 -17 10
-37z"/>
<path d="M5860 9327 c0 -15 30 -80 36 -74 3 3 -4 22 -15 44 -11 21 -20 34 -21
30z"/>
<path d="M6210 8871 c0 -6 4 -13 10 -16 6 -3 7 1 4 9 -7 18 -14 21 -14 7z"/>
<path d="M8492 8735 c-17 -37 -14 -45 4 -12 9 16 14 31 11 33 -2 2 -9 -7 -15
-21z"/>
<path d="M8462 8665 c-17 -37 -14 -45 4 -12 9 16 14 31 11 33 -2 2 -9 -7 -15
-21z"/>
<path d="M6360 8611 c0 -6 4 -13 10 -16 6 -3 7 1 4 9 -7 18 -14 21 -14 7z"/>
<path d="M6426 8493 c51 -88 77 -119 45 -56 -22 45 -80 133 -87 133 -2 0 17
-35 42 -77z"/>
<path d="M6496 8377 c3 -10 9 -15 12 -12 3 3 0 11 -7 18 -10 9 -11 8 -5 -6z"/>
<path d="M8372 8275 c-17 -37 -14 -45 4 -12 9 16 14 31 11 33 -2 2 -9 -7 -15
-21z"/>
<path d="M8345 8219 c-4 -6 -5 -12 -2 -15 2 -3 7 2 10 11 7 17 1 20 -8 4z"/>
<path d="M8266 8049 c-36 -78 -64 -144 -62 -147 3 -3 10 6 15 19 5 13 34 78
65 143 31 66 55 121 53 123 -2 1 -34 -61 -71 -138z"/>
<path d="M6646 8137 c3 -10 9 -15 12 -12 3 3 0 11 -7 18 -10 9 -11 8 -5 -6z"/>
<path d="M6810 7885 c0 -6 69 -105 83 -120 13 -13 3 5 -40 73 -30 47 -43 61
-43 47z"/>
<path d="M6900 7746 c0 -2 8 -10 18 -17 15 -13 16 -12 3 4 -13 16 -21 21 -21
13z"/>
<path d="M7055 7533 c9 -16 30 -44 46 -63 23 -26 20 -19 -11 28 -41 62 -66 87
-35 35z"/>
<path d="M7102 7520 c7 -11 17 -20 22 -20 5 0 1 9 -9 20 -10 11 -20 20 -22 20
-2 0 2 -9 9 -20z"/>
<path d="M7990 7460 c-11 -22 -18 -40 -15 -40 2 0 14 18 25 40 11 22 18 40 15
40 -2 0 -14 -18 -25 -40z"/>
<path d="M8857 7433 c-4 -3 -7 -11 -7 -17 0 -6 5 -5 12 2 6 6 9 14 7 17 -3 3
-9 2 -12 -2z"/>
<path d="M7130 7426 c0 -2 8 -10 18 -17 15 -13 16 -12 3 4 -13 16 -21 21 -21
13z"/>
<path d="M7170 7426 c0 -2 8 -10 18 -17 15 -13 16 -12 3 4 -13 16 -21 21 -21
13z"/>
<path d="M7197 7337 c21 -29 48 -66 61 -82 20 -26 21 -27 11 -5 -13 26 -99
140 -106 140 -2 0 13 -24 34 -53z"/>
<path d="M7910 7343 c-23 -45 -23 -49 -1 -24 12 13 21 29 21 37 0 21 -5 17
-20 -13z"/>
<path d="M7310 7196 c0 -12 235 -315 273 -351 25 -25 -15 30 -132 180 -142
183 -141 182 -141 171z"/>
<path d="M8696 7134 c-10 -14 -15 -28 -13 -31 3 -2 13 7 23 21 9 15 14 29 12
32 -3 2 -13 -7 -22 -22z"/>
<path d="M8456 6753 c-6 -14 -5 -15 5 -6 7 7 10 15 7 18 -3 3 -9 -2 -12 -12z"/>
<path d="M7966 6073 c-6 -14 -5 -15 5 -6 7 7 10 15 7 18 -3 3 -9 -2 -12 -12z"/>
<path d="M7567 6020 c-15 -26 -27 -52 -27 -56 0 -5 14 15 31 44 17 29 30 55
27 57 -2 2 -16 -18 -31 -45z"/>
<path d="M7796 5779 c-20 -34 -35 -63 -33 -66 4 -4 36 48 66 105 24 45 2 20
-33 -39z"/>
<path d="M7875 5779 c-4 -6 -5 -12 -2 -15 2 -3 7 2 10 11 7 17 1 20 -8 4z"/>
<path d="M7605 5684 c-9 -14 -14 -28 -12 -31 3 -3 13 9 22 26 19 38 14 41 -10
5z"/>
<path d="M7451 5664 c-12 -27 -11 -28 4 -12 10 9 16 21 13 28 -2 7 -10 -1 -17
-16z"/>
<path d="M7162 5611 c-12 -21 -22 -43 -22 -47 0 -5 12 11 25 35 14 24 24 45
22 47 -2 2 -13 -14 -25 -35z"/>
<path d="M7542 5576 c-12 -18 -22 -36 -22 -40 0 -4 -9 -21 -21 -38 -12 -16
-19 -31 -16 -34 2 -3 23 27 46 67 44 76 51 100 13 45z"/>
<path d="M7170 5559 c-7 -11 -10 -23 -7 -25 2 -2 9 7 15 21 14 30 7 33 -8 4z"/>
<path d="M7726 5515 c-13 -25 -21 -43 -15 -40 10 7 52 85 45 85 -2 0 -16 -20
-30 -45z"/>
<path d="M7194 5534 c-7 -3 -10 -13 -7 -23 3 -11 -1 -30 -7 -42 -7 -14 -8 -20
-2 -14 15 14 44 85 35 84 -5 0 -13 -3 -19 -5z"/>
<path d="M7472 5443 c-14 -5 -52 -85 -51 -106 0 -7 8 7 17 30 9 22 26 50 36
62 20 22 20 23 -2 14z"/>
<path d="M6896 5424 c-10 -25 1 -29 14 -5 6 12 7 21 1 21 -5 0 -12 -7 -15 -16z"/>
<path d="M6942 5420 c-7 -11 -8 -20 -3 -20 9 0 24 30 18 36 -1 2 -8 -6 -15
-16z"/>
<path d="M7116 5403 c-13 -27 -14 -33 -3 -25 7 7 18 8 22 4 5 -4 5 -1 1 6 -4
6 -2 12 3 12 13 0 15 27 3 34 -5 3 -17 -11 -26 -31z"/>
<path d="M6732 5407 c-6 -7 -7 -18 -3 -26 7 -10 10 -8 16 8 8 27 2 36 -13 18z"/>
<path d="M7006 5324 c-55 -89 -56 -110 -2 -29 34 51 61 105 52 105 -2 0 -24
-34 -50 -76z"/>
<path d="M7647 5383 c-4 -3 -7 -11 -7 -17 0 -6 5 -5 12 2 6 6 9 14 7 17 -3 3
-9 2 -12 -2z"/>
<path d="M6792 5340 c-8 -13 -8 -20 -2 -20 6 0 13 7 17 15 9 24 -1 27 -15 5z"/>
<path d="M6837 5346 c-4 -10 -5 -21 -2 -24 9 -9 17 6 13 25 -3 17 -4 17 -11
-1z"/>
<path d="M7048 5285 c-6 -13 -15 -22 -19 -19 -5 3 -9 -4 -9 -16 0 -12 -7 -35
-16 -52 -9 -18 -11 -27 -4 -23 7 4 18 23 26 41 8 19 18 34 23 34 5 0 11 8 15
18 3 9 9 23 12 30 3 6 1 12 -5 12 -6 0 -16 -11 -23 -25z"/>
<path d="M6787 5258 c-9 -7 -21 -26 -27 -42 -14 -37 6 -23 33 23 20 34 19 37
-6 19z"/>
<path d="M6910 5070 c-6 -12 -9 -24 -7 -27 3 -2 11 5 17 17 6 12 9 24 7 27 -3
2 -11 -5 -17 -17z"/>
<path d="M6852 5028 c-18 -23 -43 -79 -40 -89 2 -6 16 15 31 45 26 55 29 68 9
44z"/>
<path d="M6785 4899 c-11 -17 1 -21 15 -4 8 9 8 15 2 15 -6 0 -14 -5 -17 -11z"/>
<path d="M6882 4699 c-12 -21 -21 -39 -18 -39 7 0 49 71 44 75 -2 2 -14 -14
-26 -36z"/>
<path d="M9790 4593 c0 -15 36 -59 90 -112 52 -51 53 -52 10 -19 -67 51 -81
57 -30 11 149 -132 246 -212 264 -217 18 -4 17 -2 -6 19 -16 13 -36 28 -45 34
-10 5 -15 13 -11 17 10 10 180 -119 229 -174 23 -26 36 -39 29 -29 -7 9 -9 17
-5 17 13 0 106 -72 101 -78 -3 -2 -12 -1 -19 4 -7 5 0 -2 16 -15 26 -23 83
-40 72 -21 -3 4 -65 54 -139 109 -73 56 -139 108 -146 116 -7 8 -17 15 -23 15
-5 0 -25 18 -44 40 -19 22 -43 40 -54 40 -10 0 -19 7 -19 15 0 8 -14 27 -32
42 -18 16 -55 49 -83 75 -60 57 -137 118 -147 118 -5 0 -8 -3 -8 -7z m241
-240 c13 -16 12 -16 -6 -3 -59 42 -85 65 -85 73 0 10 70 -43 91 -70z m410
-310 c13 -16 12 -17 -3 -4 -10 7 -18 15 -18 17 0 8 8 3 21 -13z"/>
<path d="M6330 4550 c0 -11 2 -20 5 -20 2 0 9 9 15 20 9 16 8 20 -5 20 -8 0
-15 -9 -15 -20z"/>
<path d="M6990 4520 c-6 -11 -8 -20 -6 -20 3 0 10 9 16 20 6 11 8 20 6 20 -3
0 -10 -9 -16 -20z"/>
<path d="M6340 4485 c-7 -9 -10 -18 -7 -21 3 -3 10 4 17 15 13 25 8 27 -10 6z"/>
<path d="M6891 4354 c-45 -75 -80 -138 -78 -140 1 -2 30 43 64 99 96 160 105
177 100 177 -2 0 -41 -61 -86 -136z"/>
<path d="M6266 4458 c-21 -30 -7 -46 15 -17 10 13 19 27 19 32 0 15 -19 6 -34
-15z"/>
<path d="M6456 4405 c-3 -8 -1 -15 4 -15 6 0 10 7 10 15 0 8 -2 15 -4 15 -2 0
-6 -7 -10 -15z"/>
<path d="M6159 4273 c-13 -16 -12 -17 4 -4 16 13 21 21 13 21 -2 0 -10 -8 -17
-17z"/>
<path d="M10530 4261 c41 -34 110 -83 110 -78 0 5 -98 80 -120 91 -8 4 -4 -2
10 -13z"/>
<path d="M6196 4245 c4 -8 10 -12 15 -9 14 8 10 24 -6 24 -9 0 -12 -6 -9 -15z"/>
<path d="M6760 4130 c-6 -11 -8 -20 -6 -20 3 0 10 9 16 20 6 11 8 20 6 20 -3
0 -10 -9 -16 -20z"/>
<path d="M6034 4106 c-8 -22 3 -33 18 -18 9 9 9 15 0 24 -9 9 -13 7 -18 -6z"/>
<path d="M10340 4106 c0 -2 8 -10 18 -17 15 -13 16 -12 3 4 -13 16 -21 21 -21
13z"/>
<path d="M6610 3878 c-115 -193 -117 -197 -103 -183 6 6 54 84 108 175 114
193 107 180 102 180 -2 0 -51 -78 -107 -172z"/>
<path d="M5908 3883 c-14 -21 -30 -49 -37 -63 l-12 -25 17 23 c15 21 42 33 30
13 -8 -12 3 -41 15 -41 13 0 11 58 -2 62 -8 3 -6 14 5 36 22 43 14 40 -16 -5z"/>
<path d="M10620 3875 c0 -2 10 -10 23 -16 20 -11 21 -11 8 4 -13 16 -31 23
-31 12z"/>
<path d="M6150 3854 c0 -14 3 -14 15 -4 8 7 15 14 15 16 0 2 -7 4 -15 4 -8 0
-15 -7 -15 -16z"/>
<path d="M10861 3847 c2 -1 13 -9 24 -17 19 -14 19 -14 6 3 -7 9 -18 17 -24
17 -6 0 -8 -1 -6 -3z"/>
<path d="M5876 3750 c-30 -19 -46 -38 -46 -55 0 -5 4 -4 9 3 4 7 13 12 19 10
7 -2 22 12 33 30 24 37 24 37 -15 12z"/>
<path d="M10995 3753 c18 -17 112 -83 119 -83 3 0 6 6 6 13 0 14 -63 59 -76
55 -5 -1 -20 4 -34 11 -14 7 -20 9 -15 4z"/>
<path d="M5793 3728 c-6 -7 -14 -20 -19 -28 -7 -13 -5 -13 16 1 25 17 38 39
22 39 -5 0 -14 -6 -19 -12z"/>
<path d="M5830 3660 c-6 -11 -16 -19 -22 -17 -5 1 -18 -10 -27 -25 -9 -14 -34
-52 -56 -83 -80 -115 -86 -126 -79 -147 5 -17 22 5 95 116 95 146 113 176 105
176 -3 0 -10 -9 -16 -20z"/>
<path d="M6480 3660 c-6 -11 -8 -20 -6 -20 3 0 10 9 16 20 6 11 8 20 6 20 -3
0 -10 -9 -16 -20z"/>
<path d="M5736 3620 c-28 -43 -35 -68 -10 -35 19 24 46 75 41 75 -3 0 -16 -18
-31 -40z"/>
<path d="M5995 3614 c-9 -15 -12 -23 -6 -20 11 7 35 46 28 46 -3 0 -12 -12
-22 -26z"/>
<path d="M6450 3610 c-6 -11 -8 -20 -6 -20 3 0 10 9 16 20 6 11 8 20 6 20 -3
0 -10 -9 -16 -20z"/>
<path d="M6405 3534 c-15 -25 -25 -47 -23 -49 2 -2 16 18 31 46 35 62 28 65
-8 3z"/>
<path d="M5675 3524 c-9 -15 -12 -23 -6 -20 11 7 35 46 28 46 -3 0 -12 -12
-22 -26z"/>
<path d="M5616 3458 c-21 -29 -20 -38 3 -38 12 0 20 9 23 25 7 34 -7 41 -26
13z"/>
<path d="M5488 3223 c-29 -34 -30 -48 -2 -21 15 15 26 30 23 33 -3 3 -13 -3
-21 -12z"/>
<path d="M5096 2652 c-3 -5 -1 -14 3 -20 6 -10 10 -10 20 1 9 12 8 16 -3 20
-9 4 -17 3 -20 -1z"/>
<path d="M5065 2590 c-4 -12 -5 -24 -2 -27 3 -2 8 5 12 17 4 12 5 24 2 27 -3
2 -8 -5 -12 -17z"/>
<path d="M6410 8314 c0 -5 7 -19 15 -30 8 -10 15 -14 15 -8 0 5 -7 19 -15 30
-8 10 -15 14 -15 8z"/>
</g>
</svg>
