<?xml version="1.0" encoding="UTF-8"?>
<svg width="222px" height="217px" viewBox="0 0 222 217" version="1.1" xmlns="http://www.w3.org/2000/svg" xmlns:xlink="http://www.w3.org/1999/xlink">
    <!-- Generator: sketchtool 50 (54983) - http://www.bohemiancoding.com/sketch -->
    <title>3D0213CD-3C88-42B9-A87D-B7B3783D9D52</title>
    <desc>Created with sketchtool.</desc>
    <defs>
        <polygon id="path-1" points="0 217 222 217 222 0 0 0"></polygon>
    </defs>
    <g id="L'agence-3" stroke="none" stroke-width="1" fill="none" fill-rule="evenodd">
        <g id="L'agence---UI-v3" transform="translate(-1972.000000, -358.000000)">
            <g id="Logo-Zenika" transform="translate(1972.000000, 358.000000)">
                <mask id="mask-2" fill="white">
                    <use xlink:href="#path-1"></use>
                </mask>
                <g id="Clip-8"></g>
                <path d="M15.0207143,174.260367 C13.16,176.681619 11.5757143,178.566986 11.5757143,179.171252 C11.5757143,180.318381 13.9185714,180.318381 15.2985714,180.318381 C23.0828571,180.318381 30.0414286,179.576655 35.7585714,173.990331 C36.2421429,173.450957 36.5864286,173.116029 36.7928571,173.116029 C36.9314286,173.116029 37,173.25 37,173.386065 C37,173.854964 36.6564286,174.663676 36.5178571,175.134669 L33.9678571,182 L0,182 L23.495,152.520734 C24.3928571,151.374302 25.1492857,150.43441 25.1492857,149.895036 C25.1492857,148.681619 23.0135714,148.681619 20.7407143,148.681619 C12.5414286,148.681619 7.92357143,149.220993 2.48071429,155.482057 C2.34285714,155.615331 2.13642857,155.885367 1.92928571,155.885367 C1.79357143,155.885367 1.79357143,155.68441 1.79357143,155.615331 C1.86142857,155.211324 1.92928571,154.875 2.06785714,154.537978 L4.89285714,147 L35.5542857,147 L15.0207143,174.260367 Z" id="Fill-25" fill="#FEFEFE" mask="url(#mask-2)"></path>
                <path d="M47.0181243,159.789483 C46.8826146,161.33699 46.8162568,162.749901 46.8162568,164.162812 C46.8162568,176.67398 53.2850998,181.317897 59.8203007,181.317897 C67.5695011,181.317897 73.2951362,176.002394 75.5876255,168.131656 L77,168.131656 C74.8444175,177.414607 68.1066505,183 58.9450755,183 C47.4896144,183 39,175.262463 39,164.501046 C39,153.734747 47.4896144,146 58.9450755,146 C66.2891438,146 75.1817948,150.441674 76.1247748,159.789483 L47.0181243,159.789483 Z M67.6365575,158.511865 C67.6365575,151.920139 64.4688431,147.27971 57.4628506,147.27971 C51.3313849,147.27971 48.0288592,152.727019 47.2870483,158.511865 L67.6365575,158.511865 Z" id="Fill-26" fill="#FEFEFE" mask="url(#mask-2)"></path>
                <path d="M91.4821755,156.660135 L91.6178492,156.660135 C93.1517923,150.815703 96.4245735,146 105.238517,146 C112.582892,146 119.461409,149.922428 119.461409,160.857033 L119.461409,174.125703 C119.32712,180.660231 120.194462,181.625511 122.131273,182.310617 C122.59644,182.448208 123,182.654239 123,182.79183 C123,183 122.666354,183 121.996984,183 C121.396836,183 119.660766,182.79183 115.987194,182.79183 C112.382151,182.79183 109.979481,183 109.112138,183 C108.710655,183 108.375624,183 108.375624,182.79183 C108.375624,182.654239 108.509913,182.448208 108.977157,182.379056 C111.383288,182.105299 112.582892,180.24817 112.582892,174.125703 L112.582892,160.786455 C112.582892,154.460809 109.844499,147.72025 102.767318,147.72025 C94.8221014,147.72025 92.2179975,156.110482 92.2179975,165.736898 L92.2179975,174.125703 C92.2179975,178.460193 92.4194314,181.691098 95.4222497,182.240751 C95.8901854,182.310617 96.1573795,182.448208 96.1573795,182.654239 C96.1573795,182.930135 95.9580222,183 95.5572311,183 C95.0892954,183 92.3509023,182.79183 88.7451669,182.79183 C85.1401236,182.79183 82.0680841,183 81.602225,183 C81.2007417,183 81,182.930135 81,182.654239 C81,182.448208 81.2671941,182.310617 81.7344376,182.240751 C85.0750556,181.691098 85.3408653,178.460193 85.3408653,174.125703 L85.3408653,157.072909 C85.3408653,152.94659 84.874314,150.60896 83.0032633,149.78341 C82.2688257,149.440501 81.8001978,149.233757 81.8001978,149.096879 C81.8001978,148.890135 82.2688257,148.890135 83.0711001,148.750405 C86.2746601,148.132312 89.0123609,147.651811 91.4821755,146.757823 L91.4821755,156.660135 Z" id="Fill-27" fill="#FEFEFE" mask="url(#mask-2)"></path>
                <path d="M129.144046,153.644825 C129.144046,150.270842 127.894557,149.863529 126.840813,149.256758 C126.447961,149.053101 125.722275,149.053101 125.722275,148.851544 C125.722275,148.717173 126.447961,148.647887 126.906288,148.581401 C129.999318,147.97463 132.764289,147.299274 135.92143,146.42166 L135.92143,173.289651 C135.92143,177.541947 136.314282,180.580702 139.340472,181.188872 C139.738098,181.256058 140,181.39043 140,181.795643 C140,182 139.671941,182 139.07857,182 C138.421089,182 136.05238,181.795643 132.497613,181.795643 C128.94762,181.795643 126.578911,182 125.920748,182 C125.326695,182 125,182 125,181.795643 C125,181.39043 125.261902,181.256058 125.657482,181.188872 C128.683672,180.580702 129.144046,177.541947 129.144046,173.289651 L129.144046,153.644825 Z M128.091666,138.050739 C128.091666,135.890998 129.867685,134 131.97381,134 C134.211567,134 135.92143,135.890998 135.92143,138.050739 C135.92143,140.20978 134.211567,142.033593 131.97381,142.033593 C129.867685,142.033593 128.091666,140.20978 128.091666,138.050739 Z" id="Fill-28" fill="#FEFEFE" mask="url(#mask-2)"></path>
                <path d="M165.924435,172.161429 C164.53501,169.807129 161.619552,163.883699 158.044392,163.883699 C155.725481,163.883699 155.725481,166.574327 155.725481,169.468707 L155.725481,174.314071 C155.725481,178.556556 156.058421,181.114606 159.3027,182.256867 C159.63564,182.32525 159.899247,182.459921 159.899247,182.661578 C159.899247,182.863236 159.56562,183 159.170211,183 C158.83933,183 155.923872,182.796249 152.28281,182.796249 C148.708336,182.796249 146.057857,183 145.661762,183 C145.328821,183 145,182.863236 145,182.661578 C145,182.459921 145.197705,182.392236 145.462684,182.256867 C148.639689,181.247882 148.906041,177.276832 148.906041,171.623442 L148.906041,144.902069 C148.906041,140.930322 148.639689,137.835681 146.456699,137.498654 C145.727663,137.362588 145.328821,137.161628 145.328821,136.892286 C145.328821,136.690628 145.925368,136.557353 146.589189,136.3543 C149.76688,135.546274 152.546416,134.874315 155.725481,134 L155.725481,163.075673 L166.850489,153.652194 C168.375836,152.373866 169.300517,151.296498 169.300517,150.151446 C169.300517,149.209447 168.506266,148.670065 168.173326,148.335132 C167.910406,148.133475 167.511564,148.133475 167.511564,147.795751 C167.511564,147.527107 167.910406,147.527107 168.438992,147.527107 C169.036225,147.527107 171.35239,147.795751 174.797807,147.795751 C178.040713,147.795751 178.835651,147.527107 180.956858,147.527107 C181.552031,147.527107 181.881539,147.527107 181.881539,147.930422 C181.881539,148.266052 180.756407,148.335132 179.697863,148.604474 C175.924312,149.545078 172.083486,151.902867 168.970323,154.325549 L159.170211,161.864332 L159.170211,161.998305 C168.173326,162.201359 170.162043,165.699315 174.731905,173.104823 C176.983542,176.739544 179.763078,180.508238 183.338925,182.191974 C183.670492,182.32525 184,182.459921 184,182.661578 C184,182.863236 183.670492,183 183.273023,183 C182.942143,183 179.961469,182.796249 176.651288,182.796249 C175.130061,182.796249 173.604714,183 172.282564,183 L165.924435,172.161429 Z" id="Fill-29" fill="#FEFEFE" mask="url(#mask-2)"></path>
                <path d="M218.865041,176.136422 C218.865041,178.357566 219.205521,180.375075 221.319746,181.317928 C221.726627,181.518773 222,181.518773 222,181.721709 C222,181.923251 221.591707,181.989502 221.114893,181.989502 L213.75431,181.989502 C212.800683,179.837398 212.256057,177.483753 212.119017,175.128016 L211.982684,175.128016 C209.327364,180.57592 205.374406,183 199.379274,183 C192.29277,183 185,179.768358 185,171.763175 C185,161.537545 200.807595,160.531929 207.962619,160.531929 L211.847763,160.531929 L211.847763,158.310785 C211.847763,151.85308 208.780618,147.279686 201.897554,147.279686 C195.630463,147.279686 191.948758,149.093562 189.498998,155.013589 C189.224918,155.619609 189.089292,156.157287 188.951545,156.157287 C188.818038,156.157287 188.745986,155.819756 188.612478,155.41737 L186.839439,149.364144 C192.426984,146.470729 196.854636,146 202.92182,146 C210.690697,146 218.865041,148.758123 218.865041,157.234036 L218.865041,176.136422 Z M211.847763,161.808825 L207.826992,161.808825 C200.468527,161.808825 192.906623,163.960928 192.906623,172.840621 C192.906623,177.751546 196.515569,181.317928 201.353634,181.317928 C209.394471,181.317928 211.847763,172.97382 211.847763,166.516812 L211.847763,161.808825 Z" id="Fill-30" fill="#FEFEFE" mask="url(#mask-2)"></path>
                <path d="M140.815737,72.4104125 C140.757427,72.6074353 140.760237,72.9102796 140.630973,72.9819876 C140.146935,73.2521107 139.61934,73.4463488 139.107904,73.669827 C137.92064,74.1996304 136.769908,74.6709535 135.410526,74.0541259 C134.81268,73.7833065 134.040607,73.8912166 133.216548,73.8160276 C133.447678,75.2731611 133.701991,76.6335236 133.872002,78.0043291 C134.197972,80.6401185 134.524645,83.2766041 134.745237,85.921444 C134.814085,86.7540917 134.663745,87.6514854 134.408729,88.4555892 C133.577645,91.0760623 131.224193,92.1892761 128.514563,91.2111239 C127.540164,90.8595461 126.611429,90.2991101 125.766294,89.6906368 C123.993829,88.4131214 122.285996,87.0437083 120.562006,85.7007506 C120.356166,85.5406261 120.207232,85.3094898 120.032303,85.1110745 C119.953621,85.040759 119.874236,84.9697472 119.794851,84.8994317 C119.355071,84.6474095 118.899134,84.419058 118.476918,84.1391881 C112.461918,80.1597448 106.517171,76.0703029 100.129834,72.6749661 C96.090328,70.5265123 91.9110201,68.7010924 87.5357084,67.3316793 C86.9469943,67.147188 86.3280718,67.0030759 85.7147694,66.9606081 C84.8457488,66.9007354 84.3834888,67.3163631 84.3230719,68.1754661 C84.1298781,70.9449247 84.2535221,73.6955861 84.7403704,76.4378932 C85.3754509,80.0205061 87.0003861,83.1860989 88.8150023,86.2778952 C89.0011709,86.5953596 89.3875584,86.812572 89.5238478,87.1404792 C89.7072062,87.5790813 89.9228807,88.1513525 89.7746484,88.5328667 C89.6495994,88.8559006 89.021544,89.1872888 88.6260237,89.1761497 C84.234554,89.0501386 81.0717966,87.1014924 80.2758383,82.1863647 C79.4988481,77.3840205 78.9368299,72.5531322 79.4250832,67.6714219 C79.5128986,66.791433 79.6463779,65.9128365 79.8023379,65.0418982 C80.204181,62.7952811 81.5396767,61.4098556 83.7139846,60.6503082 C88.5585815,58.9592537 93.3898305,57.2278199 98.1936811,55.4267667 C107.10167,52.0885179 115.986475,48.6869154 124.880413,45.3103758 C125.124891,45.2163897 125.361641,45.1022139 125.603309,44.9977848 L125.603309,44.7701295 C123.961513,44.5786762 122.32323,44.2772243 120.676517,44.2145669 C112.383938,43.9019759 104.093467,44.049569 95.812129,44.5494361 C92.6767699,44.7388008 89.5449235,45.0284174 86.4229124,45.3695523 C84.9314566,45.5324616 83.4582664,45.8923938 81.9892913,46.2189086 C81.2333768,46.3866913 80.5034557,46.5036519 79.9934241,45.8074581 C79.4925254,45.1237959 79.7489462,44.4282984 80.1655422,43.7815344 C81.362641,41.9226972 83.0262149,40.9201782 85.2960659,40.9320135 C89.4711586,40.9528993 93.6462513,40.9403678 97.8220466,40.9361907 C101.09229,40.9327097 104.361831,40.901381 107.632074,40.9243554 C108.782807,40.9320135 109.932836,41.0663789 111.082164,41.1429602 L111.167871,40.9139125 C108.479317,39.2284275 105.789357,37.5429425 103.1001,35.8581537 C103.16403,35.7425855 103.227959,35.6270174 103.291186,35.5121454 C104.007057,35.8337869 104.72363,36.1554284 105.439501,36.4777661 C103.248332,34.2729206 88.3541474,27.2093391 83.8804825,26.2875786 C84.2837306,26.5375122 84.5808977,26.7220035 84.8780648,26.9064949 C84.8710396,26.9635827 84.8633119,27.0199744 84.8555841,27.0770623 C84.5394489,27.0513031 84.2099657,27.0714928 83.9071784,26.9935191 C81.7869647,26.4428298 79.6611309,25.9074569 77.5626954,25.2787939 C77.1489095,25.1548715 76.5637081,24.6445615 76.5700308,24.3222238 C76.5777585,23.9163428 77.0343983,23.2876799 77.4320262,23.1567955 C80.9439374,22.0038987 84.4727092,21.2833382 88.1272326,22.7383831 C93.1088214,24.721839 97.6703016,27.4502221 102.16715,30.3039202 C103.672656,31.2597942 105.136011,32.2804142 106.64503,33.232111 C106.885293,33.3838812 107.33561,33.4618549 107.565335,33.3421096 C113.792496,30.0887963 120.135574,27.0415564 126.057841,23.2417311 C127.399659,22.3819319 128.72532,21.4921963 130.010937,20.5523348 C130.461956,20.222339 130.82516,19.7329148 131.130758,19.2553259 C131.542436,18.6099543 132.183137,18.2994519 132.914463,18.4964747 C134.824622,19.0067847 136.113752,20.236959 136.989798,21.9405451 C137.394451,22.7293325 136.813464,24.0152023 135.830635,24.5784231 C132.950292,26.2297946 130.080486,27.9006595 127.189605,29.5360185 C122.346413,32.2748446 117.489171,34.9920887 112.576429,37.753193 C113.999038,38.7480538 115.470121,39.7902558 116.961576,40.8032177 C117.13791,40.922963 117.423836,40.9027734 117.659884,40.9125201 C121.943868,41.0977076 126.197643,41.4882723 130.336907,42.6815483 C130.87785,42.8374957 131.406147,43.0693282 131.904235,43.3331857 C133.460323,44.1581752 133.585372,45.648726 132.13115,46.6547259 C131.202415,47.2973127 130.205535,47.8758497 129.169314,48.322806 C125.920147,49.7256364 122.650606,51.0859989 119.364204,52.4025012 C111.086379,55.7191681 102.7938,59.0024177 94.5089493,62.3016797 C94.1190491,62.4569309 93.7368767,62.6344603 93.4102037,62.7757876 C104.919634,64.3108948 116.44452,65.8487867 128.03193,67.3957292 C128.03193,66.7935216 128.074784,66.0861888 128.022095,65.3851217 C127.925849,64.1277959 127.769186,62.8753434 127.643435,61.6194099 C127.584423,61.0213795 127.797287,60.5291705 128.387406,60.3349325 C128.984551,60.1386058 129.694099,60.1469602 129.971595,60.7658764 C130.502702,61.9487095 130.87785,63.1997696 131.317629,64.4215896 C131.237541,64.4487412 131.157454,64.4765889 131.078771,64.5037405 C130.746478,63.5123606 130.414887,62.5202846 130.083296,61.5296009 C130.038335,61.544221 129.993374,61.5581448 129.948412,61.5727649 C130.393109,63.3041987 130.838508,65.0349363 131.281098,66.7670662 C131.353458,67.0525057 131.412469,67.3421223 131.478507,67.6296503 C131.65765,68.4177415 132.155036,68.7331173 132.939051,68.6774218 C133.570619,68.6321692 134.231693,68.5973595 134.840078,68.7324211 C136.158713,69.0248225 137.473836,69.3659574 138.745402,69.8122176 C139.485861,70.0718978 140.165903,70.5327781 140.825572,70.9734687 C141.484538,71.4141593 141.285022,71.9328236 140.815737,72.4104125 M107.5,0 C76.8482298,0 52,24.6243718 52,55 C52,85.3756282 76.8482298,110 107.5,110 C138.15177,110 163,85.3756282 163,55 C163,24.6243718 138.15177,0 107.5,0" id="Fill-31" fill="#FEFEFE" mask="url(#mask-2)"></path>
                <path d="M127.936363,75.1702324 C127.884685,74.6133492 128.139676,73.8140919 127.274747,73.5594548 C126.007272,73.1865162 124.762917,72.7125884 123.482523,72.3951938 C121.467075,71.89674 119.429188,71.5028821 117.404901,71.04266 C116.85072,70.9164235 116.31218,70.7166092 115.768199,70.5434849 C115.284057,70.3905584 114.810794,70.1575619 114.315771,70.0847054 C113.548079,69.9728959 112.758627,70.0212265 111.989575,69.9065316 C108.457101,69.3813878 104.928708,68.8172911 101.397594,68.2798843 C100.614262,68.1608614 99.8248105,68.092333 99.0373987,68 C99.0251591,68.0447238 99.0129195,68.0894476 99,68.13345 C100.689059,69.1952792 102.378119,70.256387 104.201814,71.4026143 C103.826467,71.6060354 103.668033,71.6925975 103.449761,71.8108992 C104.486723,72.5041178 105.448209,73.1453992 106.53141,73.8689146 C106.602808,72.9282724 107.061111,73.2550446 107.431698,73.5096816 C111.395276,76.234947 115.366334,78.947228 119.299313,81.7201026 C120.328796,82.4472248 121.242003,83.3604556 122.194649,84.205158 C123.513122,85.3759113 124.820715,86.5603702 126.128988,87.7441077 C126.508414,88.087471 126.870162,88.1444577 126.977598,87.5435721 C127.342065,85.5172961 127.74801,83.4902988 127.961522,81.4431037 C128.089358,80.2153637 127.858846,78.9493921 127.845247,77.6992902 C127.835727,76.8560305 128.014561,76.0019505 127.936363,75.1702324" id="Fill-32" fill="#FEFEFE" mask="url(#mask-2)"></path>
                <text id="&lt;animés-par-la-passi" mask="url(#mask-2)" font-family="Lato-Light, Lato" font-size="15" font-weight="300" letter-spacing="1.785715" fill="#FFFFFF">
                    <tspan x="14.4317775" y="214">&lt;animés par la passion&gt;</tspan>
                </text>
            </g>
        </g>
    </g>
</svg>