<svg xmlns="http://www.w3.org/2000/svg" xmlns:xlink="http://www.w3.org/1999/xlink" viewBox="0 0 404.69 288.83"><defs><mask id="mask" x="0" y="0" width="143.29" height="168.16" maskUnits="userSpaceOnUse"><g id="mask-2"><polygon id="path-1" points="143.29 0 0 0 0 168.16 143.29 168.16 143.29 0" style="fill:#fff"/></g></mask><mask id="mask-2-2" x="137.83" y="0" width="129.03" height="183.87" maskUnits="userSpaceOnUse"><g id="mask-4"><polygon id="path-3" points="137.83 183.87 266.86 183.87 266.86 0 137.83 0 137.83 183.87" style="fill:#fff"/></g></mask><mask id="mask-3" x="261.41" y="0" width="143.29" height="168.16" maskUnits="userSpaceOnUse"><g id="mask-6"><polygon id="path-5" points="404.69 168.16 404.69 0 261.41 0 261.41 168.16 404.69 168.16" style="fill:#fff"/></g></mask><clipPath id="clip-path"><rect x="176.84" y="197.35" width="52" height="91.48" style="fill:none"/></clipPath></defs><title>AYAPP-2---home-2 3-Copy</title><g id="Layer_2" data-name="Layer 2"><g id="Layer_1-2" data-name="Layer 1"><g id="AYAPP-2---home-2_3-Copy" data-name="AYAPP-2---home-2 3-Copy"><g id="Group"><g id="_CODE-DESIGN_" data-name="&lt;CODE-DESIGN&gt;" style="isolation:isolate"><g style="isolation:isolate"><path d="M71.25,242.37l-.55.23-.62.18a4.94,4.94,0,0,1,1.17.43l9.13,4.63a.89.89,0,0,1,.34.26.51.51,0,0,1,.1.32v1.07l-12.37-6.36v-.68l12.37-6.35v1.07a.48.48,0,0,1-.1.31,1,1,0,0,1-.34.27Z" style="fill:#fff"/><path d="M105,249.94a.36.36,0,0,1,.28.12l.66.71a11.48,11.48,0,0,1-1.57,1.39,10.3,10.3,0,0,1-1.87,1.06,11.08,11.08,0,0,1-2.22.67,13.8,13.8,0,0,1-2.67.24,11.31,11.31,0,0,1-4.45-.85,10.08,10.08,0,0,1-3.47-2.41,10.76,10.76,0,0,1-2.25-3.77,14.17,14.17,0,0,1-.8-4.91,13.73,13.73,0,0,1,.82-4.86,11.16,11.16,0,0,1,2.31-3.77,10.27,10.27,0,0,1,3.57-2.44,11.72,11.72,0,0,1,4.58-.86,10.88,10.88,0,0,1,7.61,2.83l-.51.75a.47.47,0,0,1-.41.19,1.33,1.33,0,0,1-.65-.36,8.5,8.5,0,0,0-1.23-.8,10.54,10.54,0,0,0-2-.8,9.74,9.74,0,0,0-2.83-.36,10.18,10.18,0,0,0-3.87.72,8.73,8.73,0,0,0-3,2.08,9.66,9.66,0,0,0-2,3.3,13.9,13.9,0,0,0,0,8.8,9.78,9.78,0,0,0,2,3.29A8.53,8.53,0,0,0,94,252a9.33,9.33,0,0,0,3.68.72,13.62,13.62,0,0,0,2.24-.17,8.88,8.88,0,0,0,1.81-.49,8,8,0,0,0,1.53-.81,11.64,11.64,0,0,0,1.4-1.12.82.82,0,0,1,.17-.11A.32.32,0,0,1,105,249.94Z" style="fill:#fff"/><path d="M130.82,242.19a14.11,14.11,0,0,1-.81,4.9,10.91,10.91,0,0,1-2.28,3.77,9.93,9.93,0,0,1-3.52,2.4,12.47,12.47,0,0,1-9,0,9.89,9.89,0,0,1-3.51-2.4,10.91,10.91,0,0,1-2.28-3.77,15.23,15.23,0,0,1,0-9.8,10.86,10.86,0,0,1,2.28-3.76,10.21,10.21,0,0,1,3.51-2.42,12.47,12.47,0,0,1,9,0,10,10,0,0,1,3.52,2.41,11,11,0,0,1,2.28,3.77A14.11,14.11,0,0,1,130.82,242.19Zm-1.75,0a13.31,13.31,0,0,0-.68-4.39,9.4,9.4,0,0,0-1.91-3.3,8.13,8.13,0,0,0-3-2.07,9.9,9.9,0,0,0-3.83-.72,9.8,9.8,0,0,0-3.81.72,8.09,8.09,0,0,0-3,2.07,9.43,9.43,0,0,0-1.93,3.3,14.51,14.51,0,0,0,0,8.78,9.48,9.48,0,0,0,1.93,3.29,8.21,8.21,0,0,0,3,2.07,10,10,0,0,0,3.81.71,10.08,10.08,0,0,0,3.83-.71,8.25,8.25,0,0,0,3-2.07,9.44,9.44,0,0,0,1.91-3.29A13.31,13.31,0,0,0,129.07,242.19Z" style="fill:#fff"/><path d="M155.87,242.19a13.76,13.76,0,0,1-.81,4.86,10.51,10.51,0,0,1-2.28,3.68,9.9,9.9,0,0,1-3.52,2.33,12.25,12.25,0,0,1-4.53.81H136.2V230.52h8.53a12.25,12.25,0,0,1,4.53.81,9.87,9.87,0,0,1,3.52,2.32,10.6,10.6,0,0,1,2.28,3.68A13.8,13.8,0,0,1,155.87,242.19Zm-1.75,0a13.08,13.08,0,0,0-.68-4.36,9.21,9.21,0,0,0-1.91-3.24,8.23,8.23,0,0,0-3-2,10.31,10.31,0,0,0-3.83-.69H137.9V252.5h6.83a10.12,10.12,0,0,0,3.83-.7,8.23,8.23,0,0,0,3-2,9.17,9.17,0,0,0,1.91-3.23A13.14,13.14,0,0,0,154.12,242.19Z" style="fill:#fff"/><path d="M175.3,252.46l0,1.41h-14V230.52h14v1.4H163v9.44h10.23v1.37H163v9.73Z" style="fill:#fff"/><path d="M253.84,242.19a13.76,13.76,0,0,1-.81,4.86,10.64,10.64,0,0,1-2.27,3.68,9.94,9.94,0,0,1-3.53,2.33,12.25,12.25,0,0,1-4.53.81h-8.53V230.52h8.53a12.25,12.25,0,0,1,4.53.81,9.91,9.91,0,0,1,3.53,2.32,10.73,10.73,0,0,1,2.27,3.68A13.8,13.8,0,0,1,253.84,242.19Zm-1.75,0a13.09,13.09,0,0,0-.67-4.36,9.23,9.23,0,0,0-1.92-3.24,8.06,8.06,0,0,0-3-2,10.24,10.24,0,0,0-3.83-.69h-6.83V252.5h6.83a10,10,0,0,0,3.83-.7,8.06,8.06,0,0,0,3-2,9.19,9.19,0,0,0,1.92-3.23A13.15,13.15,0,0,0,252.09,242.19Z" style="fill:#fff"/><path d="M273.28,252.46l0,1.41h-14V230.52h14v1.4H261v9.44h10.23v1.37H261v9.73Z" style="fill:#fff"/><path d="M289.73,233.36a.48.48,0,0,1-.43.28.92.92,0,0,1-.55-.31,6.92,6.92,0,0,0-.92-.67,7.18,7.18,0,0,0-1.44-.69,6.33,6.33,0,0,0-2.14-.31A6.42,6.42,0,0,0,282,232a4.57,4.57,0,0,0-1.61,1,4.08,4.08,0,0,0-1,1.45,4.46,4.46,0,0,0-.34,1.74,3.59,3.59,0,0,0,.5,2,4.52,4.52,0,0,0,1.33,1.32,8.33,8.33,0,0,0,1.87.91c.7.25,1.42.5,2.16.74s1.45.51,2.15.8A7.68,7.68,0,0,1,289,243a5,5,0,0,1,1.33,1.62,5.13,5.13,0,0,1,.5,2.4,7.52,7.52,0,0,1-.5,2.77,6.38,6.38,0,0,1-1.46,2.25,6.89,6.89,0,0,1-2.34,1.51,8.5,8.5,0,0,1-3.17.55,8.89,8.89,0,0,1-4-.82,9.43,9.43,0,0,1-2.92-2.23l.46-.73a.61.61,0,0,1,.47-.24.66.66,0,0,1,.38.19l.56.49c.22.19.48.4.79.63a6.7,6.7,0,0,0,1.07.62,7.17,7.17,0,0,0,1.4.49,7.56,7.56,0,0,0,1.8.2,6.86,6.86,0,0,0,2.48-.42,5.38,5.38,0,0,0,1.84-1.15,4.8,4.8,0,0,0,1.14-1.72,5.66,5.66,0,0,0,.4-2.14,3.85,3.85,0,0,0-.5-2,4.33,4.33,0,0,0-1.33-1.33,8.53,8.53,0,0,0-1.87-.9c-.7-.25-1.42-.48-2.16-.71s-1.45-.49-2.15-.78a7.09,7.09,0,0,1-1.87-1.1,4.93,4.93,0,0,1-1.33-1.66,5.49,5.49,0,0,1-.5-2.5,5.83,5.83,0,0,1,.44-2.26,5.58,5.58,0,0,1,1.3-1.92,6.35,6.35,0,0,1,2.12-1.34,7.7,7.7,0,0,1,2.88-.5,8.81,8.81,0,0,1,3.26.57,7.83,7.83,0,0,1,2.63,1.77Z" style="fill:#fff"/><path d="M297.75,253.87h-1.7V230.52h1.7Z" style="fill:#fff"/><path d="M323.29,243.27v8.3a13.47,13.47,0,0,1-8.18,2.56,13.78,13.78,0,0,1-5-.85,10.75,10.75,0,0,1-3.77-2.41A10.35,10.35,0,0,1,304,247.1a13.71,13.71,0,0,1-.83-4.91,14.09,14.09,0,0,1,.81-4.91,10.62,10.62,0,0,1,2.35-3.77,10.22,10.22,0,0,1,3.68-2.4,13.17,13.17,0,0,1,4.87-.85,15.84,15.84,0,0,1,2.47.18,11.94,11.94,0,0,1,2.1.53,9.88,9.88,0,0,1,1.82.88,11.33,11.33,0,0,1,1.61,1.19l-.46.73a.48.48,0,0,1-.69.18,3.08,3.08,0,0,1-.71-.46,7.17,7.17,0,0,0-1.27-.76,11.28,11.28,0,0,0-2-.71,11.52,11.52,0,0,0-2.91-.31,11.24,11.24,0,0,0-4.12.72,8.81,8.81,0,0,0-3.13,2.08,9.27,9.27,0,0,0-2,3.3,13.07,13.07,0,0,0-.7,4.38,13.31,13.31,0,0,0,.7,4.42,9.18,9.18,0,0,0,2,3.33,9,9,0,0,0,3.23,2.1,12,12,0,0,0,4.27.72,12.36,12.36,0,0,0,3.61-.5,10.79,10.79,0,0,0,1.55-.6,17.17,17.17,0,0,0,1.52-.8v-6.28h-4.47a.41.41,0,0,1-.3-.12.35.35,0,0,1-.13-.26v-.93Z" style="fill:#fff"/><path d="M346.92,230.52v23.35h-.8a.72.72,0,0,1-.35-.08.78.78,0,0,1-.27-.25l-15.17-20.26a7.7,7.7,0,0,1,.05.94v19.65H328.9V230.52h.84a.82.82,0,0,1,.35.06.77.77,0,0,1,.28.25l15.13,20.22a7.81,7.81,0,0,1-.05-.94V230.52Z" style="fill:#fff"/><path d="M366.63,242.45v.68l-12.37,6.36v-1.07a.51.51,0,0,1,.1-.32.84.84,0,0,1,.33-.26l9.14-4.63a3.35,3.35,0,0,1,.55-.23,5,5,0,0,1,.62-.18,5.42,5.42,0,0,1-1.17-.43l-9.14-4.62a.68.68,0,0,1-.43-.58V236.1Z" style="fill:#fff"/></g></g><g id="Page-1"><g id="Group-3"><g style="mask:url(#mask)"><path id="Fill-1" d="M115.19,108.35,73.58,8.89c-.41-.88-.75-1.72-1-2.52s-.59-1.64-.9-2.52c-.33.88-.63,1.72-.91,2.52s-.62,1.64-1,2.52L28.11,108.35Zm28.1,59.81h-2.17a1.44,1.44,0,0,1-1.45-1.2l-23.52-56.22h-89L3.62,167a1.58,1.58,0,0,1-1.69,1.2H0L70.44,0h2.41Z" style="fill:#f0f0f1"/></g></g><g id="Group-6"><g style="mask:url(#mask-2-2)"><path id="Fill-4" d="M203.8,96.61v87.26h-2.9V96.61L137.83,0h2.42a1.92,1.92,0,0,1,1.69,1l56.9,87.6c.65,1,1.29,2,1.94,2.93a15.87,15.87,0,0,1,1.57,2.83A26.83,26.83,0,0,1,204,91.5c.61-.91,1.22-1.89,1.87-2.93L262.75,1a1.92,1.92,0,0,1,1.7-1h2.41Z" style="fill:#f0f0f1"/></g></g><g id="Group-9"><g style="mask:url(#mask-3)"><path id="Fill-7" d="M376.59,108.35,335,8.89c-.4-.88-.75-1.72-1-2.52s-.58-1.64-.9-2.52l-.91,2.52q-.42,1.2-1,2.52l-41.61,99.46Zm28.1,59.81h-2.17a1.43,1.43,0,0,1-1.44-1.2l-23.53-56.22h-89L265,167a1.6,1.6,0,0,1-1.7,1.2h-1.92L331.84,0h2.41Z" style="fill:#f0f0f1"/></g></g></g><g id="Artwork_1" data-name="Artwork 1"><g style="clip-path:url(#clip-path)"><g style="clip-path:url(#clip-path)"><path d="M194.59,260.63l0-.21,0,0,.11-.12.09.09.14-.19,0,0a1,1,0,0,1,.09-.26c.11-.22.24-.42.37-.63,0-.06.1-.11.15-.17l-.32.61a2,2,0,0,0,.6-.9l-.28.3.36-.66,0,0,0,.2h0l.43-.76,0,0-.32.47-.06,0c.06-.12.13-.23.19-.34.24-.38.48-.76.73-1.12s.59-.83.89-1.24c.07-.1.12-.2.18-.3l.21-.31a.82.82,0,0,0,.11-.23c0-.09,0-.17.16-.22s.15-.25.24-.37a1.71,1.71,0,0,1,.22-.25l.18-.54c-.2.13-.18.44-.46.41,0-.13.09-.27.14-.4s.05,0,.07,0l.13-.13h0c.18-.24.17-.28,0-.5s-.31-.45-.48-.68l-.74-1c-.2-.24-.39-.48-.58-.73-.37-.48-.75-1-1.11-1.45s-.52-.74-.79-1.12-.58-.77-.86-1.17c-.43-.61-.85-1.23-1.27-1.85s-.67-1-1-1.56l-.69-1.11c-.37-.59-.76-1.18-1.12-1.78s-.65-1.16-1-1.74c-.15-.28-.33-.54-.48-.82-.42-.76-.84-1.52-1.23-2.3s-.88-1.75-1.3-2.63c-.21-.43-.37-.88-.56-1.32s-.31-.68-.45-1-.35-.89-.53-1.33c0-.09-.1-.18-.14-.27l-.09,0,1,2.37-.06,0c-.2-.14-.2-.4-.31-.6s-.18-.4-.3-.59a26.56,26.56,0,0,0,1,2.47c.37.8.77,1.6,1.15,2.4l-.05,0-.31-.59-.05,0a1.89,1.89,0,0,1,.09.21c.08.19.16.39.23.59,0,0,0,.05,0,.08h0c-.06-.14-.13-.27-.19-.41s0-.07-.06-.09c-.22-.17-.17-.46-.28-.68l.14.06,0,0c-.19-.41-.39-.83-.59-1.24l0,0a5.36,5.36,0,0,1,.26.54c.08.21.14.44.21.66-.1-.18-.2-.36-.31-.52s-.08-.33-.26-.41c0,0,0-.15,0-.21s-.18-.27-.26-.41,0-.14,0-.21,0-.16-.06-.17-.09-.16-.12-.24,0-.08,0-.1a.41.41,0,0,1-.2-.46s-.06-.06-.07-.09-.2-.1-.08-.22,0,0,0,0-.12-.22-.15-.35-.13-.23-.19-.36-.06-.23-.11-.34-.1-.21-.15-.32-.13-.15,0-.26,0-.07,0-.09a.77.77,0,0,1-.22-.45.48.48,0,0,0-.12-.31c-.09-.09-.08-.27-.12-.4a1.56,1.56,0,0,0,0-.16c-.05-.1-.12-.18-.16-.28q-.25-.6-.48-1.2c-.1-.27-.19-.56-.3-.83-.18-.46-.37-.91-.56-1.37,0-.09-.07-.18-.11-.3-.15.13-.22,0-.26-.08s-.13-.42-.18-.63a.13.13,0,0,1,.05-.12.68.68,0,0,0,.41-.35s0,0,.1-.07c-.21-.13-.4-.25-.6-.35l-1.51-.83-1.33-.73a5.46,5.46,0,0,1-.48-.36,1.28,1.28,0,0,0-.25-.1s0-.13.07-.18a1.82,1.82,0,0,0,.31-.79,4.41,4.41,0,0,1,.26-.59c.13-.25.28-.48.44-.74l-.19-.11a.14.14,0,0,1-.06-.24l.08-.09c.17-.19.34-.38.5-.58l.12-.12.26-.33a.82.82,0,0,1,.19-.22c.21-.13.3-.39.56-.46a.18.18,0,0,0,.11-.28.29.29,0,0,1,0-.32c.23-.41.45-.82.7-1.23.05-.09.2-.13.27-.22a2.08,2.08,0,0,0,.36-.48.54.54,0,0,1,.28-.22,1,1,0,0,0,.18-.06c.13-.07.22-.12.29.07s.12.08.19,0a2.63,2.63,0,0,1,.61-.59.25.25,0,0,1,.36,0c.27.24.54.49.82.72.49.43,1,.86,1.49,1.27s1.06.81,1.59,1.21.88.67,1.33,1c.62.43,1.25.85,1.88,1.26s1.11.7,1.67,1c.36.21.73.4,1.09.6.2.11.4.24.61.35.76.4,1.51.8,2.28,1.17.61.3,1.23.57,1.85.86.37.17.74.36,1.11.52s.65.25,1,.37l.53.22h0c.28,0,.49.24.77.28s.57.11.85.16L204,224l.49.07.19.06.74.05c1,.07,2,.14,3.05.19.56,0,1.12,0,1.68,0a3.88,3.88,0,0,1,.48,0l.34,0,.81.08a2.17,2.17,0,0,1,.35.07l-.06.11.81,0v.08l-.38.08.87.08v.09l-.53.1v.08l.72.07v0l-.12.06.68.12v.06l-.58.06.92.18v.08l-1,.08v.05a2.89,2.89,0,0,0,.5,0,.53.53,0,0,1,.43.15.6.6,0,0,0,.3.11c.14,0,.28,0,.42.05v0h-.62v.06c1.38,0,2.76,0,4.16-.12l-.11.1.69,0h1.23c.12.2.32,0,.48.11a1,1,0,0,0,.38,0l.33,0v.07l-.2.06,1,.1v.08l-2.13.28v0h.47l.48-.06.5-.06c0,.15.11.14.23.13h.65v.08l-.32.06c.07.09.3.12.35,0s.21-.08.32-.08l-.12.05v0c.27,0,.54,0,.81,0s.43,0,.64,0v.05l-1.28.17v.08c.06,0,.14.06.17,0s.37,0,.56-.08a2,2,0,0,1,.49-.05,1.24,1.24,0,0,1,.16,0v.05l-.21.07.45.08v.09c-.13,0-.29.06-.4,0s-.2.09-.31.07c0,.16-.16.1-.24.11l-2.15.19-.08,0,.11.08h-.92v0l1.33.17v.05h-.73v0l1.55.13c-.33.26-.68.13-1,.2l.22,0,0,.13.64.09-.12.11.31.05.32,0,.6.12h-1.3v0l1.61.18c-.07.14-.13.15-.32.14h-.72a7.55,7.55,0,0,1-.83-.05.41.41,0,0,0-.48.17h0l-.27.12.13.17h-.54l.53-.32c-.09-.22-.3-.28-.75-.2,0,0,0,0,0,.07s0,0,0,.08l-.31,0-.29,0c0-.06,0-.24-.18-.13l.18.23h0l-.32.07,0,0,.09-.14a2.84,2.84,0,0,1-.37.11,2.16,2.16,0,0,1-.35,0c.1-.17.41.13.39-.23-.1,0-.2-.12-.29,0a.76.76,0,0,1-.19-.05c-.06,0-.13-.1-.16-.08s-.24,0-.36,0l-.16,0a1.1,1.1,0,0,0,0,.18l0,.07-.23,0v-.26l-.35,0a.6.6,0,0,0-.23.06c-.13.06-.2,0-.21-.15l-.62.08a6.31,6.31,0,0,1,0,1.57,4,4,0,0,0,0,.49,7.5,7.5,0,0,1-.34,1.88c-.16.61-.33,1.23-.5,1.84-.06.24-.13.47-.21.7,0,0-.06.06-.09.09s-.06.05-.07.09a9.41,9.41,0,0,1-.71,1.42c-.06.11-.15.19-.14.33a.17.17,0,0,1,0,.07,7.68,7.68,0,0,1-.48.95c-.2.28-.29.62-.5.88s-.26.48-.53.6a.25.25,0,0,0-.13.33.93.93,0,0,1,0,.24h-.07l-.06-.16q-.15.29-.27.54s0,.07,0,.11a1,1,0,0,1-.09.3l-.61,1c-.15.26-.29.54-.43.81-.36.71-.71,1.42-1.08,2.13a2.7,2.7,0,0,1-.53.81,1.93,1.93,0,0,0-.27.49c0,.08-.11.15-.15.23s-.07.2-.12.3l-.34.65c-.09.17-.16.34-.24.51l-.4.71-.29.52-.07,0a3.42,3.42,0,0,1,.17-.4l.19-.32s0-.06,0-.09-.06,0-.07.05l-.42.7a1,1,0,0,0,0,.17l-.39.54c.22,0,.43-.31.39-.54,0,0,.09.07.09.11a.43.43,0,0,1,0,.19c-.22.4-.45.8-.67,1.21l-.06,0,.2-.57-.06,0a1.49,1.49,0,0,0-.12.14c-.17.29-.35.58-.52.88,0,.07-.05.17-.09.24-.16.27-.34.54-.49.81s-.13.3-.2.44-.12.19-.2.32l0-.16h-.05l-.4.8.16,0c-.13.15,0,.26.05.36.37.49.73,1,1.11,1.47.55.7,1.11,1.4,1.68,2.09.33.41.68.81,1,1.21.58.7,1.16,1.4,1.76,2.08s1,1.15,1.58,1.73c.36.39.71.79,1.08,1.18s.91,1,1.38,1.44.83.79,1.23,1.2c.18.18.33.39.51.57s.3.24.44.37.18.24.28.34a3.55,3.55,0,0,0,.31.23c.39.34.76.7,1.16,1s.73.57,1.1.86l.76.58,2.26,1.76c.19.15.4.27.59.42a.89.89,0,0,1,.16.25l0,.06-.82-.61c0,.09,0,.21.14.27l.56.41c.13.09.32.25.44.35a.49.49,0,0,1,.14.17,12.55,12.55,0,0,1-1.08-.71l0,0,1.26.89h0c.36.26.72.52,1.07.79s.68.54,1,.82a.58.58,0,0,1,.11.15c-.45-.19-.77-.61-1.26-.71l.63.52h0a1,1,0,0,1-.47-.21l-.06-.08s0-.06,0-.07c-.19-.12-.39-.22-.62-.35,0,.06,0,.1,0,.11a6.9,6.9,0,0,0,.85.6,4.17,4.17,0,0,1,.6.4l.8.62a1.66,1.66,0,0,1-.78-.42l0,0-.08.06c.1-.29-.16-.3-.26-.41a1.73,1.73,0,0,0-.45-.28l.11.11,0,.05-.44-.27,0,0,3,2.11v0l-.83-.51,0,0,1.57,1.12,0,.06-.56-.37-1.72-1.21s-.09,0-.14,0h0c-.11,0-.21,0-.2-.2s-.08-.2-.23-.11-.15-.06-.17-.11-.11-.21-.27-.18a.18.18,0,0,1-.2-.2l0-.06-.37-.27,0,0,.3.22,0,.06a7.05,7.05,0,0,1-1-.78c-.23.05-.32-.35-.57-.23l-2-1.39c0,.11,0,.17.1.22a1.37,1.37,0,0,1,.52.43l.4.25c.46.32.92.64,1.37,1,.22.15.43.32.65.48l.75.55,0,.05-2.15-1.49a.2.2,0,0,0,.17.27c.27.05.39.3.61.42a1.94,1.94,0,0,1,.29.21h0a.42.42,0,0,1-.16,0,5.82,5.82,0,0,1-.6-.34c-.21-.14-.4-.31-.6-.46a1.39,1.39,0,0,0-.21-.11,2.59,2.59,0,0,1-.53-.39.57.57,0,0,0-.39-.24c-.15,0-.29-.18-.43-.28a.47.47,0,0,1-.07-.12,3.36,3.36,0,0,0-.24-.29c-.09-.09-.19-.16-.31-.26l.07.2c-.2-.11-.43-.19-.38-.47l-.27,0,0-.2-.49-.36v.19a13.5,13.5,0,0,1-1.26-1.11l0,0,.18.09.13,0s0-.06,0-.07a.52.52,0,0,0-.11-.1l-.49-.34s-.06-.11-.08-.16h0a3,3,0,0,1,.3.18l1,.77c.2.16.37.34.56.51l-.2-.08a2.22,2.22,0,0,0,.36.32c.29.23.59.45.89.67,0,0,.11.11.12,0l.4.14c0-.05,0-.08-.06-.09a5.26,5.26,0,0,0-.65-.49c-.23-.13-.38-.34-.6-.48s-.49-.38-.76-.54-.25-.38-.51-.38c0,0,0,0,0,0s-.27-.33-.41-.48-.17-.13-.2-.11-.13,0-.15-.07c-.07-.25-.29-.37-.45-.54s-.12,0-.16-.08-.29-.32-.45-.47-.48-.36-.71-.56-.23-.19-.37-.13l.27.46s0,0,0,.05l.66.59a1.22,1.22,0,0,1,.15.17h0l-.66-.5a5.36,5.36,0,0,0-.49-.34c.76.7,1.55,1.36,2.34,2l-.06.07c-.11-.1-.23-.19-.33-.3a1.29,1.29,0,0,0-.63-.4s-.06,0-.06,0c0-.28-.32-.35-.48-.52a1.65,1.65,0,0,0-.36-.22s-.1-.05-.11-.09c-.13-.31-.46-.4-.66-.63a1.21,1.21,0,0,0-.31-.28.38.38,0,0,1-.1,0,.23.23,0,0,1-.11-.08,1.34,1.34,0,0,1-.09-.24l-.18.12-.05-.18a1.46,1.46,0,0,1-.25-.13c-.31-.26-.61-.52-.91-.8a.68.68,0,0,1-.09-.17,1.22,1.22,0,0,1-.27-.15l-.94-.82s0,0,0-.06l.12-.06a.62.62,0,0,0-.52-.29c.1-.13,0-.29-.26-.42l.17.25-.28-.07a1.33,1.33,0,0,0,.08.24l.78.77.06.1h0l-.65-.56c-.19-.17-.36-.35-.53-.53,0,0,0-.08-.07-.12l.21.11a.36.36,0,0,0,0-.43,3.87,3.87,0,0,0-.41-.4l-.05,0,.24.37c-.19-.09-.29-.19-.29-.37a.39.39,0,0,0-.08-.2.29.29,0,0,0-.43-.08c.16-.16.12-.24,0-.34a3.17,3.17,0,0,1-.35-.29c-.23-.22-.47-.43-.69-.67-.09-.09-.25-.14-.24-.31l-.35-.33c-.07,0-.16,0-.21-.08l-.74-.71-.29-.23,0-.09c.2,0,.24.24.44.29a.94.94,0,0,1,0-.1,5.18,5.18,0,0,1-.51-.54c-.14-.18-.45-.2-.45-.5,0,0,0,0-.07-.05s-.21-.08-.23-.14a1.13,1.13,0,0,0-.35-.46c-.16-.17-.3-.36-.46-.53a.14.14,0,0,0-.15,0s0,.11,0,.14a1.4,1.4,0,0,0,.36.33.68.68,0,0,1,.36.42s.06.05.09.08l.21.25h0l-.09-.05-.69-.66-.17-.17,0,0a1.73,1.73,0,0,0,.21.25c.39.42.79.83,1.19,1.24l.7.71c.1.09.2.16.29.25.22.24.44.49.67.72a1.91,1.91,0,0,0,.24.17.45.45,0,0,0,.6.39v.26l-.08,0c.33.3.65.61,1,.9a6.21,6.21,0,0,1,.72.73,5.63,5.63,0,0,1-.46-.36l-1-1-1.71-1.69c-.35-.36-.68-.74-1-1.1l-1.12-1.16c-.12-.12-.23-.25-.36-.36a1,1,0,0,0-.2-.12c0-.05-.1-.1-.15-.17s-.4-.4-.37-.72a1.25,1.25,0,0,1,.06-.29l.2.14c.1.09,0,.15,0,.21a3.17,3.17,0,0,0,.12.44h.07l0-.21.13-.05c.06.11.12.23.19.34s.11,0,.22,0l-2.33-2.61-.06,0,.11.3-.19-.17c0,.08,0,.15,0,.18l.75.84,0,0-.13-.28c.16.11.13.13.19.29a1.86,1.86,0,0,0,.3.45,2.35,2.35,0,0,1,.26.29c0,.08,0,.2,0,.34l-.15-.13c.1-.09.08-.21,0-.3a2,2,0,0,1-.21-.19c-.21-.22-.42-.43-.62-.65s-.2-.27-.3-.4a.65.65,0,0,0-.16-.13l0,0,.14.23,0,0-.23-.08-.39.63c-.29.51-.58,1-.86,1.52-.07.12-.12.26-.18.38s-.11.16-.16.24c-.29.48-.59,1-.87,1.45-.19.32-.36.65-.55,1s-.43.7-.63,1.05c-.44.74-.87,1.49-1.31,2.24-.21.36-.44.71-.66,1.06a.24.24,0,0,1-.12.1c.06-.13.12-.26.19-.39l1.07-1.81,1-1.66a.85.85,0,0,0,.06-.17l.24-.31,0-.06c-.15.07-.18.22-.19.38-.2,0-.23.23-.31.37-.2.32-.38.64-.57,1l0,0,.36-.65,0,0-.49.83.17-.05c0,.09-.08.18-.12.18-.2,0-.22.19-.3.31s-.26.44-.39.66l-.16-.1A3.87,3.87,0,0,1,198,266c.12-.21.27-.39.41-.59l0-.05c.09-.18.17-.36.25-.54s.13-.24.25-.21a2.71,2.71,0,0,1,.1-.43,2.56,2.56,0,0,1,.39-.66,1.48,1.48,0,0,0,.17-.33c.09-.18.19-.34.29-.51l.57-1c.05-.08.06-.17.11-.25l.43-.71c.18-.33.36-.66.53-1a.11.11,0,0,0,0-.11c-1.07,1.87-2.15,3.73-3.25,5.62l-.07-.15-.41.69.06,0,.24-.41.06,0-.84,1.46,0,0,.15-.3c.05-.11.11-.21.17-.32l0,0-.24.37c-.06.09-.11.19-.17.29l-.09.05s-.07,0-.08.06-.07.24-.1.35l-.08.17-.05-.11h0c0,.08,0,.16,0,.24s0,.11,0,.13c-.21.14-.21.4-.34.58a.64.64,0,0,1-.13.1c-.07.15-.14.31-.22.47a.1.1,0,0,1,0,.05c-.12,0-.12,0-.12.15v0c-.06,0-.13,0-.16.08-.15.23-.31.46-.45.69a.26.26,0,0,0-.05.27c0,.07-.09.21-.15.31l-.12.21s-.09,0-.11.05a.67.67,0,0,0-.13.25.5.5,0,0,1-.28.42s-.06.05-.08.09c-.17.31-.34.62-.53.93s-.37.6-.55.9-.49.82-.73,1.23l-.7,1.14-.45.78-.71,1.18c-.22.35-.43.71-.64,1.06a2.27,2.27,0,0,1-.18.25l-.05,0L195,270l-.06,0L190,278.25l-.06,0c.15-.25.29-.5.43-.76s.2-.38.3-.58h0a2.92,2.92,0,0,0,.55-.91c0-.07,0-.17.07-.26l.06.09c.12-.21.24-.4.35-.6,0,0,0-.05,0-.06-.08-.26.12-.4.24-.57l.07.09.19-.35c-.26-.13-.23.19-.4.25a.59.59,0,0,1,0-.13l1-1.73a1.58,1.58,0,0,1,.12-.15l-.1.28.1,0,0,.11.36-.58-.13-.08-.26.3c.18-.31.34-.63.52-.94s.44-.74.67-1.11l.09-.14,0,.12s0,0,0,0a1.7,1.7,0,0,0,.15-.22c0-.07.15-.15,0-.25s0-.08,0-.11l.72-1.17.22-.38c.05.16.13,0,.15,0a1.58,1.58,0,0,0,.12-.29l-.27.29c.08-.15.15-.31.24-.45s.13-.09.18-.14a.57.57,0,0,0,.12-.15c.1-.14.17-.29.27-.41s.06-.14,0-.18c.26-.44.52-.85.76-1.27s.37-.66.56-1c0-.08.14-.14.19-.23a.61.61,0,0,0,.08-.27c-.18.2-.27.48-.55.64l0,.09a.49.49,0,0,0-.27.45H197c0,.07-.06.15-.1.23a2.2,2.2,0,0,1-.17.25s-.07.06-.09.1l-.2.48a.31.31,0,0,1-.08.15,1.12,1.12,0,0,0-.3.5.08.08,0,0,1,0,.05c-.28.16-.21.57-.5.73l0,0c0,.34-.28.5-.43.74a.54.54,0,0,0-.1.18,2.13,2.13,0,0,1-.49.88.37.37,0,0,0-.07.14c-.15.26-.28.53-.44.79s-.32.46-.47.69c-.05.08-.05.19-.1.27l-.67,1.16-.27.45s0,.1-.07.1c-.22.06-.2.29-.31.42s-.1.17-.16.25a2.47,2.47,0,0,0-.19.36,1,1,0,0,1-.33.51.68.68,0,0,0-.23.4.63.63,0,0,1-.39.52c.11.13,0,.21-.07.3a.12.12,0,0,0,0,.09c0,.1-.07.13-.15.19a1,1,0,0,0-.27.4c-.11.21-.11.46-.28.65a1.55,1.55,0,0,0-.24.28,3.23,3.23,0,0,0-.22.41c-.09.16-.18.32-.28.48s-.05,0-.1,0l.48-.95,0,0-.24.41-.36.49s0,0,0,.06c0,.29-.23.45-.34.68a7.35,7.35,0,0,1-.51.85c-.12.2-.25.4-.38.6l0,0,.16-.57c-.26.38-.49.72-.73,1l0,0,0-.12H187V281l.33-.57.06-.15s0-.08,0-.11c.21-.32.44-.61.62-.94a7.12,7.12,0,0,1,.6-.94,5.1,5.1,0,0,0,.57-1,9.64,9.64,0,0,1,.57-1c.11-.19.24-.38.35-.58a.82.82,0,0,0,0-.28h0l-1.77,3-.06,0,.93-1.66-.15-.06a.38.38,0,0,1,.09-.18.57.57,0,0,0,.21-.48c0-.07.09-.15.15-.23s.18-.35.28-.51.28-.43.41-.65.38-.71.57-1.06a.55.55,0,0,0,.1-.22c-.42.51-.76,1.07-1.13,1.6s-.77,1.09-1.16,1.66l-.06-.12-.17.12h0c.07-.16.13-.33.21-.49s.2-.31.3-.48,0-.12.13-.07a.08.08,0,0,0,.06,0c.26-.4.53-.8.76-1.22a.89.89,0,0,1,.29-.37.58.58,0,0,0,.1-.13l-.19.09c.17-.31.34-.6.5-.9l.29,0a.37.37,0,0,0,0-.11.3.3,0,0,1,.18-.35,1,1,0,0,0,.49-.64c.1-.37.44-.58.52-.94l.1,0,.93-1.61c-.15.09-.28.12-.26.29s0,.08-.06.11a1.38,1.38,0,0,0-.29.46,2.62,2.62,0,0,1-.24.34c-.13.17-.27.33-.39.5a3.78,3.78,0,0,0-.22.33.43.43,0,0,1-.09.13c0,.05-.12.06-.15.11l-.44.79c0,.06-.09.15-.14.16a.16.16,0,0,0-.15.14c.13.16,0,.2-.09.28l0-.13h0c-.15.2-.29.41-.43.61l-1,1.45c-.31.45-.61.91-.91,1.37s-.41.66-.66,1-.41.69-.67,1a2.5,2.5,0,0,1-.24.22l-.08-.06,1.09-1.67,0,0c-.54.79-1.09,1.57-1.63,2.35l-.07-.05.29-.45c-.38.27-.46.78-.88,1.05,0-.07,0-.14,0-.16.2-.15.19-.45.43-.57.06,0,.08-.12.11-.2a.32.32,0,0,1,.17-.23c.1,0,.15-.19.21-.29s.19-.34.3-.51l.54-.84c.19-.28.36-.56.56-.82s.39-.67.64-1c0,0,.1-.09.15-.14l.08-.08c.09-.17.18-.34.28-.51s.18-.28.27-.41l.51-.75c.2-.29.42-.56.61-.86.05-.06,0-.17,0-.27l-.31.27h0a.57.57,0,0,1,.14-.34,1.2,1.2,0,0,0,.3-.55.85.85,0,0,1,.15-.43c.19-.27.36-.55.52-.83a8.49,8.49,0,0,0,.61-1.1,9.72,9.72,0,0,1,.74-1.3,1,1,0,0,0,.08-.23l-.05,0c-.07.11-.14.22-.22.33a2.92,2.92,0,0,1-.21.28l0,.06a1.65,1.65,0,0,1-.23.46,8.72,8.72,0,0,0-.63.87c-.09.13-.24.22-.22.41l0,0c-.25.1-.28.32-.29.55s-.21.27-.31.41a1,1,0,0,0-.11.25.69.69,0,0,1-.05.13l-1.58,2.35c-.31.46-.6.93-.9,1.39,0,.06-.12.11-.17.17l-.91,1.35c-.43.64-.86,1.27-1.28,1.91-.31.47-.6.95-.91,1.41s-.56.84-.83,1.25l-1.08,1.67c-.42.63-.83,1.27-1.24,1.91s-.71,1.15-1.07,1.71c-.11.19-.25.36-.37.53l0,0,.34-.56.67-1.14c0-.06,0-.16,0-.21s.14,0,.17,0,.21-.31.31-.47l.75-1.22h0l.47-.77h0c.17-.24.35-.48.52-.73.35-.53.68-1.06,1-1.59.08-.11.15-.23.22-.35l0,0-.45.62,0,0,.16-.33a1,1,0,0,0,.32-.53c-.23.1-.22.35-.32.53s-.28.32-.4.49-.27.44-.41.66-.23.37-.36.55-.14.12-.24.2c.05.2-.07.37-.22.55a4.07,4.07,0,0,0-.4.59c-.13.2-.27.4-.41.59a.49.49,0,0,1-.14,0l0-.25c-.3.2-.06.41-.08.59l-.21,0c.17.2,0,.33-.07.46a3,3,0,0,1-.28.41,1,1,0,0,1-.16.12.75.75,0,0,0-.15.16c-.09.19-.14.39-.23.58s-.24.41-.37.62h-.06l-.09-.42a.56.56,0,0,0-.24.07,1.38,1.38,0,0,0-.19.28c-.06.1-.11.2-.15.28l.13.08h0l-.22.1a.46.46,0,0,0-.09.15,1.24,1.24,0,0,1,0,.16l0-.08a2.73,2.73,0,0,1-.2.25l-.28.26a.87.87,0,0,0,0,.19s0,.06,0,.07a1.93,1.93,0,0,0-.59.65c0,.07-.15.1-.23.15l-.05,0,.06-.18,0,0-.44.62,0,0,.16-.3c.17-.3.33-.61.51-.9s.29-.4.42-.6a2.44,2.44,0,0,0,.14-.28s.08-.07.1-.11c.19-.29.38-.58.56-.88s.29-.52.45-.77.28-.39.42-.58l.08-.13.5-.82c.07-.13.14-.26.22-.38s.19-.27.29-.4l.1-.14.59-1,.51-.89c.11-.17.24-.33.35-.5s.25-.42.38-.62l.52-.71c0-.05,0-.12.07-.17l.56-.81c.12-.19.23-.38.34-.57l.12-.17c.1-.11.24-.2.22-.38,0,0,0-.06.05-.09A5.45,5.45,0,0,0,185,276a6.31,6.31,0,0,1,.7-1.09c.07-.09.11-.22.18-.32a10.55,10.55,0,0,0,.59-.89,7.33,7.33,0,0,1,.4-.63c.12-.19.22-.39.34-.58a3.55,3.55,0,0,1,.23-.31c0-.05.11-.1.13-.16a.38.38,0,0,1,.23-.3s.05,0,.05-.05a1.24,1.24,0,0,1,.37-.68c.09-.1.1-.28.2-.38s.21-.4.37-.57a6.17,6.17,0,0,0,.39-.6c.1-.13.22-.25.32-.39s.06-.14.1-.2a2.5,2.5,0,0,1,.21-.35c.05-.08.12-.14.17-.22.13-.23.24-.47.38-.7s.38-.62.58-.92.23-.31.34-.47.11-.28.2-.37.21-.38.35-.55a5.07,5.07,0,0,0,.35-.46c.15-.26.28-.52.41-.78,0,0,0,0,0-.09l-.22.34a.26.26,0,0,1-.07.1.24.24,0,0,0-.16.25c0,.12,0,.12-.18.18s-.11.14-.17.22l-.15.21,0,0c.1-.17.21-.35.32-.51l.79-1.19c.1-.15.18-.36.33-.44s.31-.4.5-.57c0,0,0,0,0-.09h-.13l0,0c.05-.05.08-.14.13-.15s.09-.06.13-.13c.16-.3.34-.59.51-.88,0,0,.1,0,.14-.07a3,3,0,0,0,.25-.26,1.11,1.11,0,0,0,.14-.29ZM184.14,228.5l.18.5a.33.33,0,0,0,0,.14c.11.28.23.55.35.83l.07.09,0,0c-.08-.22-.17-.44-.26-.65a3,3,0,0,0-.22-.39l-.17-.5a.9.9,0,0,0-.22-.54l0,0,.26.52m1.31,3.63-.17-.51-.08,0,.25.47.26.69.09,0-.35-.64M195.33,247a.7.7,0,0,0-.34-.45l.35.45a2.06,2.06,0,0,0,.45.64l.06,0-.52-.6m-11.79,32.56a2.61,2.61,0,0,0-.27.31c-.12.17-.22.35-.33.53l.05,0,.54-.87.35-.51-.06,0-.28.55m18.51-20.91a.42.42,0,0,0,.23-.26,6.11,6.11,0,0,1,.27-.58l0,0-.46.87-.25.38.08,0,.17-.43m-17.13,18.92a1.25,1.25,0,0,0,.12-.08,1.88,1.88,0,0,0,.16-.23l.26-.45-.05,0a4.12,4.12,0,0,0-.49.78l-.42.58a.65.65,0,0,0,.42-.58m-4.55,7-.08.27.37-.33,0,0-.26.1,0-.18a1.15,1.15,0,0,0-.37.89.75.75,0,0,0,.14-.3.49.49,0,0,1,.19-.41m19.41-23.74-.3.49c-.06.12-.13.23-.27.25s0,0,0,0h.11l-.1.27a3.71,3.71,0,0,1-.23.32,1.52,1.52,0,0,1-.18.18c0,.3-.29.5-.37.8l.06,0,.3-.52h.06a3.79,3.79,0,0,0,.12-.36c.05-.17.29-.25.24-.47,0,0,.08,0,.1-.06.1-.19.21-.37.31-.57s.1-.26.16-.4l.34-.48-.07,0-.27.53m-16.17-33.74.21.71.07,0c-.14-.22,0-.52-.29-.69a3,3,0,0,0-.52-1.22q.12.35.27.69c.08.18.17.35.26.53M196,263.51l-.1-.31-.44.83.05,0,.31-.47,0,0-.15.33.06,0,.22-.46a3.11,3.11,0,0,0,.49-1l-.06,0-.29.17c.07,0,.15,0,.16.05a.22.22,0,0,1,0,.14c0,.07-.07.13-.1.19s-.13.31-.2.46m-5.91-24.17c0-.12-.07-.3-.27-.4l.27.4a1.19,1.19,0,0,0,.08.2c.18.31.36.63.55.94l.36.57,0,0a.66.66,0,0,0,0-.15c-.23-.27-.31-.63-.53-.91a5.43,5.43,0,0,1-.32-.51.55.55,0,0,0-.14-.12m-5.61,39.35-.05-.12.12-.25-.16-.12-.29.45.38,0-.06.34.16-.18-.08.27,0,0,1.59-2.48-.05,0-.29.38v-.14a3.31,3.31,0,0,0-.26.27.54.54,0,0,0,0,.22.93.93,0,0,0-.15.13c-.11.11-.2.24-.31.36s0,.2-.06.23a1.16,1.16,0,0,0-.39.54s-.07.05-.1.08m23.62-50.57a0,0,0,0,1,0,0h-.18a1.53,1.53,0,0,0-.29-.07c-.18,0-.35.06-.53.08a.16.16,0,0,1-.14,0c-.18-.2-.37-.13-.57-.06,0,0,0,0,0,.06h.06a0,0,0,0,1,0,0h0s0,0,0,0l-.28,0c-.06,0-.11-.06-.17-.06l-1,.1-.49.08s0,0,0,0v0a.55.55,0,0,1,.53.2,0,0,0,0,1,0,0h-.17l0,.11h0s0,0,0,0h0s0,0,0,0a.86.86,0,0,1-.17,0c-.16,0-.31-.08-.47-.1-.58-.07-1.16-.14-1.75-.19-.4,0-.81,0-1.21,0s-.67,0-1,0h-.4a0,0,0,0,0,0,.08h0a0,0,0,0,1,0,.06,24.11,24.11,0,0,1-6.87-1.05l0,.15a.58.58,0,0,0-.16-.21,1.43,1.43,0,0,0-.44-.15c.1.37.2.7.27,1a.75.75,0,0,1,0,.47c-.06.14,0,.2.08.29s0-.08,0-.12,0-.07.05-.11h0l.15.61s0,0,0,0,0,.14,0,.2a.7.7,0,0,0,0,.25,1.38,1.38,0,0,0,.08.27l0,0,0-.47h.05c.14.57.28,1.13.42,1.72l-.19,0a4.05,4.05,0,0,0,.07.62c.1.35.22.7.35,1s.36,1,.55,1.45c.12.33.23.66.36,1,.22.51.45,1,.67,1.51s.46,1.09.71,1.62.49,1,.74,1.53l.87,1.81c.14.29.3.56.45.84.29.55.58,1.1.88,1.65s.56,1,.85,1.47l1.17,2c.2.33.42.64.64,1,.15-.27.29-.54.45-.81a2.44,2.44,0,0,1,.48-.8,2.32,2.32,0,0,0,.37-.71h0l-.1.12,0,0c.11-.16.06-.43.33-.51,0,0,.09-.12.08-.18a.41.41,0,0,1,.22-.44c0-.21.15-.63.29-.65s0-.28.1-.31a.52.52,0,0,0,.24-.43,1,1,0,0,1,.39-.77c.05,0,.11-.16.08-.2s0-.27.06-.38c.38-.87.78-1.74,1.15-2.61s.79-1.87,1.17-2.82q.27-.68.51-1.38a.42.42,0,0,0,0-.19c-.08.07-.1.16-.14.17s-.15.14-.19.25-.1.31-.16.46c-.19.47-.37.94-.56,1.4-.29.7-.58,1.4-.89,2.1-.17.4-.38.78-.55,1.18-.1.22-.16.46-.26.68-.24.53-.5,1.06-.75,1.59s-.35.83-.53,1.23c-.28.59-.57,1.17-.85,1.75,0,0-.07.07-.11.11h0a1.33,1.33,0,0,1,.05-.19c.2-.43.41-.85.6-1.29s.33-.77.49-1.15.23-.56.36-.84l.7-1.5c.2-.45.39-.9.58-1.35s.48-1.11.71-1.66.37-1,.56-1.42c.12-.29.25-.56.35-.84.2-.53.38-1.07.55-1.61.24-.74.5-1.49.69-2.25s.35-1.51.49-2.28.22-1.43.32-2.15c0-.19-.06-.3-.26-.34,0,0,0,0,0,.05l.21.25s0,0,0,0a.37.37,0,0,1-.06.1.24.24,0,0,1-.13,0l-.2-.15s0-.05,0-.06l.08,0s0,0,0,0l-.12-.11h0L208,228a0,0,0,0,0,0,.05l0,0m-23.59.71a15.52,15.52,0,0,0-1.36-3.48c.47,1.19.91,2.33,1.36,3.48m14.76,23.78.06-.06c-.71-.92-1.43-1.83-2.16-2.76a.46.46,0,0,0,0,.17,3.5,3.5,0,0,0,.24.3l.75,1,.94,1.14.16.21m6.2-11.14-.07,0c-.49,1-1,2.08-1.48,3.12l.09,0c.49-1,1-2.09,1.46-3.13m-10.34,5.58-.05,0,1.89,2.64.05,0a2.15,2.15,0,0,0-.19-.37c-.21-.29-.45-.57-.67-.86s-.29-.38-.42-.58-.24-.39-.37-.58a3.08,3.08,0,0,0-.24-.27m2.21-18.87.74.07h0l0-.15h0c.08.06.25,0,.19.18,0,0,0,0,0,0l.41-.15s0,0,0,0l-1.63-.16s0,0,0,0c.17.12.25.18.25.21h0m-10.64,47.27c-.19,0-.19-.12-.1-.25a3.24,3.24,0,0,0,.19-.37l-.07,0-.63,1,.07,0a2.53,2.53,0,0,0,.18-.27c.05-.1.1-.13.22-.05-.32.15,0,.26,0,.39.26-.09.06-.3.15-.46m6.83-48.09v.06l1.5.4h0a1.09,1.09,0,0,0-.09-.21.19.19,0,0,0-.32,0h0l-.33-.08,0-.08.13,0v-.05l-.46-.09c-.05,0-.12,0-.13,0s-.13.06-.21,0l-.12,0m1,37.43.06,0a4.89,4.89,0,0,0,.87-1.56l-.93,1.52m.66-.09c.17.09.14,0,.16-.09l0-.17c.14,0,.11-.09.15-.15-.28-.07-.27.21-.41.34l-.05-.11H195c.13.36-.16.58-.26.92.11-.09.2-.13.24-.21s.13-.35.2-.52m-.6-18.31,0,0-.42-.65-.62-1a.87.87,0,0,0-.17-.16l0,0,1.21,1.77m-6.16,28.66c-.12.07-.06.16-.06.25a.38.38,0,0,1,0,.24c-.16.25-.34.49-.51.74l-.11.19.05,0,.85-1.25c-.19,0-.21,0-.19-.19m-2.2,1.52.36-.56,0,0-.17.15s-.07.06-.1.06a.41.41,0,0,0-.33.46c.11,0,.08-.33.28-.07m7.14-9.41.07,0,.56-1.05-.05,0a2.92,2.92,0,0,0-.58,1m16.17-3.39,0,.05,1.24,1.24,0,0-1.17-1.31M220.61,228c.22,0,.45,0,.68,0s.23,0,.27-.17c-.34.09-.67,0-.95.18m-21.16,30.3c-.07.14-.14.26-.21.38s-.11.25-.18.36-.18.2-.16.38a2.47,2.47,0,0,0,.55-1.12m22.09,13.81,0,.06,1.09.81,0-.06-1.09-.81M189.06,271l.16.12a3.78,3.78,0,0,1,.22-.33c.09-.12.07-.19-.07-.23l-.31.44m9.24-7.7-.33.85.08,0a2.32,2.32,0,0,1,.13-.37c.09-.17.1-.4.34-.46,0,0,.06-.08.1-.12l-.32.07m1.06-35v-.08h-.29s0,0,0,0c.23.09.26.14.23.37,0,0,0,0,0,0h.07l0-.13h0l0-.17a0,0,0,0,1,0,0Zm-11.45,7.23.05,0-.73-1.47,0,0,.73,1.46m14.7,11.91c-.19.36-.35.7-.52,1a2.13,2.13,0,0,0,.52-1M192.88,273c-.34.36-.37.45-.26.69l.26-.47,0,0-.11.12,0,0,.16-.3m22.45-3.63,0,0-1.13-1,0,0,1.14,1m-21.16-.9-.59,1a1.81,1.81,0,0,0,.59-1m-8.32,7.76c-.3,0-.34.26-.5.45.26-.08.46-.18.5-.45m7.56-11.67,0,0a1.72,1.72,0,0,0-.35.3,1.13,1.13,0,0,0-.11.42h0l.47-.71m8.11-15.38c.4-.12.31-.44.43-.66l0,0-.38.69m-21,35.08.05,0,.78-1.23-.05,0-.78,1.23m15.75-56.39a.9.9,0,0,0,.78.24s0,0,0,0l-.41-.07h0c0-.21-.18-.16-.35-.15a0,0,0,0,0,0,0M183.46,280c-.12,0-.42.37-.42.57.14-.21.41-.29.42-.57m5.43-42.73.06,0-.58-1.05-.05,0,.57,1.05m9.12,8.14.05,0-.51-.91-.06,0,.52.9m-1.66,16.11,0,0-.39.63,0,.27h0l.46-.89m3.79,1.52.07,0,.41-.76-.07,0-.41.76m-8.34-20.94-.05,0,.52.83c0-.36-.31-.58-.47-.86m1.95,21.6a.43.43,0,0,0-.18.56c.22-.13.07-.39.18-.56m-6.31,10,0,0a.91.91,0,0,0,.16-.24s0-.11-.06-.16a.4.4,0,0,0-.13.07,2.73,2.73,0,0,0-.13.25l.14-.08,0,.14m5.34-9.88h.05l.13-.5a.33.33,0,0,0-.16.12c0,.06-.08.11-.12.18l.1.19m5.3-2c.28-.19.4-.42.33-.6l-.33.6m-7.71-21.64,0,0,.52.88.06,0Zm-8.88,42.44,0,0,.59-.93,0,0-.6.93m43.44-6.75,0-.05-.76-.52,0,.05.76.52m-31-9.43a.86.86,0,0,0,.32-.62c-.1,0-.25.32-.32.62m-.91-2.22c.23,0,.4-.26.3-.43l-.3.43m2.92-1.62,0,0,.39-.76-.05,0c-.08.27-.36.45-.39.76m.64-13.8.05,0-.53-.74-.06,0,.54.74M195,247.31l0,0,.55.77,0,0-.53-.78m7.69-.21.06,0,.37-.72-.06,0ZM208,262.86c.06.16.42.51.55.5l-.05.05-.5-.55m-18.31,7.35.08,0,.18-.33c-.11,0-.21,0-.25.08s0,.15,0,.23m32.13-42.06v0l1.07-.1v0ZM192.78,243.8l.05,0-.44-.69,0,0,.44.71M189,272.2l0,0-.15.15-.1-.09-.07,0,0,.29h.06l.26-.36m.7-1.32.29-.48c-.25.11-.36.28-.29.48m7-9.24.05,0c.15-.28.29-.56.43-.84l0,0Zm-3.3,5.75,0-.09a1.88,1.88,0,0,0-.24.14s0,.11,0,.22l.29-.27m4.75-12-.07-.05-.35.6,0,0,.38-.58m-2.45-27.63s0,0,0,0,.13.2.2.22.13-.08.2-.14,0,0,0,0l-.39-.07m23.91.24v.1l.29,0c0-.05,0-.14,0-.14l-.26,0m-10.43,20c-.25.06-.3.17-.21.33l.21-.33m-14.94,15.61,0,.06c.05,0,.11,0,.13,0s.12-.22.2-.36c-.23,0-.19.28-.35.33m-.29.09,0,0a2.26,2.26,0,0,1,.16-.26c.08-.1.05-.16-.07-.2l-.13.44M188.6,272l0,0-.36.53.06,0,.35-.54M223,227.77l0-.07c-.15.11-.37-.19-.49.13l.51-.06m-28.61,40.31.05,0,.33-.52,0,0-.33.52m-5.43,7.71,0,0-.34.52.05,0,.34-.51m33.76-.38,0-.05a2.39,2.39,0,0,0-.22-.23s-.08,0-.09,0a.11.11,0,0,0,0,.1l.25.16M194.56,238.6l.06,0-.28-.57,0,0,.26.58m.78,1.57-.05,0,.3.59,0,0-.3-.59m-3.86,1.57.06,0-.35-.56,0,0,.33.55m3.77,18.3-.05,0-.29.48.06,0,.28-.48m25.06-31.93v0h.48v0l-.48,0m-14.25,25,0,0-.26.54.07,0,.23-.54m-16.32-14.29,0,0-.3-.53-.05,0,.3.53m6.59,3.39-.05,0,.31.57,0,0-.31-.57m-3.49,28.63,0,0,.33-.55,0,0-.34.54m-4.1-33.35,0,0-.26-.48-.05,0,.26.49m11.53,24.1,0,0-.34.57,0,0,.34-.57M190.91,267l.05,0,.34-.46-.06,0-.33.46m-1.07-27.68-.05,0,.33.56,0,0-.32-.56m21.1,25.93,0,0,.41.44,0,0-.41-.44m-17.8-20.86.07,0-.33-.45,0,0,.29.47m2.12,18.95a.91.91,0,0,0,.29-.42l-.06,0-.23.45m-4.37,7.62c.23-.17.28-.31.16-.38l-.16.38m10.78-10.4c-.22.12-.29.26-.23.36a1.58,1.58,0,0,0,.12-.15l.11-.21M182.79,281l0,0-.3.48.06,0Zm4.41-6.43.07,0,.22-.39-.05,0Zm-2.07-43.12.05,0-.21-.5-.05,0,.21.5m7.6,36.73a.47.47,0,0,0,.33-.41l-.33.41m-1.5-26.54,0,0,.29.46.05,0-.29-.46M188,236l0,0-.27-.5,0,0,.28.5m2.71,35.35.15-.4h0l-.17.24.06.17m3.08-6.88c-.26.11-.29.15-.22.32l.22-.32m5.08-.43,0,0-.29.47,0,0Zm-10.78,9.56,0,0-.27.39,0,0,.28-.38m8.38-45.42v0s0,0,0,0l-.39,0h0v0h0l.4.05h0m-3.66,16,0,0-.26-.41,0,0,.26.41m-2.24,30.58-.05,0-.17.33,0,0,.17-.32m17.22-12.69h0l-.31-.33,0,0,.34.3m-10.26-15.41s0,.06,0,.07.09.21.15.32c.05-.13,0-.21-.15-.39m14.86,20,0,0-.34-.33h0l.31.36m-17.08-38.9.21-.1s0,0,0,0l-.32,0s0,0,0,0l.11.14h0m1.6,15.45-.06,0,.2.35,0,0-.18-.36m-1,21.81a.28.28,0,0,0,.18-.35l-.18.35m-4.35,2.43c-.19.07-.21.11-.14.26l.14-.26" style="fill:#fff"/><path d="M194.59,260.63l0-.21,0,0,.11-.12.09.09.14-.19,0,0a1,1,0,0,1,.09-.26c.11-.22.24-.42.37-.63,0-.06.1-.11.15-.17l-.32.61a2,2,0,0,0,.6-.9l-.28.3.36-.66,0,0,0,.2h0l.43-.76,0,0-.32.47-.06,0c.06-.12.13-.23.19-.34.24-.38.48-.76.73-1.12s.59-.83.89-1.24c.07-.1.12-.2.18-.3l.21-.31a.82.82,0,0,0,.11-.23c0-.09,0-.17.16-.22s.15-.25.24-.37a1.71,1.71,0,0,1,.22-.25l.18-.54c-.2.13-.18.44-.46.41,0-.13.09-.27.14-.4s.05,0,.07,0l.13-.13h0c.18-.24.17-.28,0-.5s-.31-.45-.48-.68l-.74-1c-.2-.24-.39-.48-.58-.73-.37-.48-.75-1-1.11-1.45s-.52-.74-.79-1.12-.58-.77-.86-1.17c-.43-.61-.85-1.23-1.27-1.85s-.67-1-1-1.56l-.69-1.11c-.37-.59-.76-1.18-1.12-1.78s-.65-1.16-1-1.74c-.15-.28-.33-.54-.48-.82-.42-.76-.84-1.52-1.23-2.3s-.88-1.75-1.3-2.63c-.21-.43-.37-.88-.56-1.32s-.31-.68-.45-1-.35-.89-.53-1.33c0-.09-.1-.18-.14-.27l-.09,0,1,2.37-.06,0c-.2-.14-.2-.4-.31-.6s-.18-.4-.3-.59a26.56,26.56,0,0,0,1,2.47c.37.8.77,1.6,1.15,2.4l-.05,0-.31-.59-.05,0a1.89,1.89,0,0,1,.09.21c.08.19.16.39.23.59,0,0,0,.05,0,.08h0c-.06-.14-.13-.27-.19-.41s0-.07-.06-.09c-.22-.17-.17-.46-.28-.68l.14.06,0,0c-.19-.41-.39-.83-.59-1.24l0,0a5.36,5.36,0,0,1,.26.54c.08.21.14.44.21.66-.1-.18-.2-.36-.31-.52s-.08-.33-.26-.41c0,0,0-.15,0-.21s-.18-.27-.26-.41,0-.14,0-.21,0-.16-.06-.17-.09-.16-.12-.24,0-.08,0-.1a.41.41,0,0,1-.2-.46s-.06-.06-.07-.09-.2-.1-.08-.22,0,0,0,0-.12-.22-.15-.35-.13-.23-.19-.36-.06-.23-.11-.34-.1-.21-.15-.32-.13-.15,0-.26,0-.07,0-.09a.77.77,0,0,1-.22-.45.48.48,0,0,0-.12-.31c-.09-.09-.08-.27-.12-.4a1.56,1.56,0,0,0,0-.16c-.05-.1-.12-.18-.16-.28q-.25-.6-.48-1.2c-.1-.27-.19-.56-.3-.83-.18-.46-.37-.91-.56-1.37,0-.09-.07-.18-.11-.3-.15.13-.22,0-.26-.08s-.13-.42-.18-.63a.13.13,0,0,1,.05-.12.68.68,0,0,0,.41-.35s0,0,.1-.07c-.21-.13-.4-.25-.6-.35l-1.51-.83-1.33-.73a5.46,5.46,0,0,1-.48-.36,1.28,1.28,0,0,0-.25-.1s0-.13.07-.18a1.82,1.82,0,0,0,.31-.79,4.41,4.41,0,0,1,.26-.59c.13-.25.28-.48.44-.74l-.19-.11a.14.14,0,0,1-.06-.24l.08-.09c.17-.19.34-.38.5-.58l.12-.12.26-.33a.82.82,0,0,1,.19-.22c.21-.13.3-.39.56-.46a.18.18,0,0,0,.11-.28.29.29,0,0,1,0-.32c.23-.41.45-.82.7-1.23.05-.09.2-.13.27-.22a2.08,2.08,0,0,0,.36-.48.54.54,0,0,1,.28-.22,1,1,0,0,0,.18-.06c.13-.07.22-.12.29.07s.12.08.19,0a2.63,2.63,0,0,1,.61-.59.25.25,0,0,1,.36,0c.27.24.54.49.82.72.49.43,1,.86,1.49,1.27s1.06.81,1.59,1.21.88.67,1.33,1c.62.43,1.25.85,1.88,1.26s1.11.7,1.67,1c.36.21.73.4,1.09.6.2.11.4.24.61.35.76.4,1.51.8,2.28,1.17.61.3,1.23.57,1.85.86.37.17.74.36,1.11.52s.65.25,1,.37l.53.22h0c.28,0,.49.24.77.28s.57.11.85.16L204,224l.49.07.19.06.74.05c1,.07,2,.14,3.05.19.56,0,1.12,0,1.68,0a3.88,3.88,0,0,1,.48,0l.34,0,.81.08a2.17,2.17,0,0,1,.35.07l-.06.11.81,0v.08l-.38.08.87.08v.09l-.53.1v.08l.72.07v0l-.12.06.68.12v.06l-.58.06.92.18v.08l-1,.08v.05a2.89,2.89,0,0,0,.5,0,.53.53,0,0,1,.43.15.6.6,0,0,0,.3.11c.14,0,.28,0,.42.05v0h-.62v.06c1.38,0,2.76,0,4.16-.12l-.11.1.69,0h1.23c.12.2.32,0,.48.11a1,1,0,0,0,.38,0l.33,0v.07l-.2.06,1,.1v.08l-2.13.28v0h.47l.48-.06.5-.06c0,.15.11.14.23.13h.65v.08l-.32.06c.07.09.3.12.35,0s.21-.08.32-.08l-.12.05v0c.27,0,.54,0,.81,0s.43,0,.64,0v.05l-1.28.17v.08c.06,0,.14.06.17,0s.37,0,.56-.08a2,2,0,0,1,.49-.05,1.24,1.24,0,0,1,.16,0v.05l-.21.07.45.08v.09c-.13,0-.29.06-.4,0s-.2.09-.31.07c0,.16-.16.1-.24.11l-2.15.19-.08,0,.11.08h-.92v0l1.33.17v.05h-.73v0l1.55.13c-.33.26-.68.13-1,.2l.22,0,0,.13.64.09-.12.11.31.05.32,0,.6.12h-1.3v0l1.61.18c-.07.14-.13.15-.32.14h-.72a7.55,7.55,0,0,1-.83-.05.41.41,0,0,0-.48.17h0l-.27.12.13.17h-.54l.53-.32c-.09-.22-.3-.28-.75-.2,0,0,0,0,0,.07s0,0,0,.08l-.31,0-.29,0c0-.06,0-.24-.18-.13l.18.23h0l-.32.07,0,0,.09-.14a2.84,2.84,0,0,1-.37.11,2.16,2.16,0,0,1-.35,0c.1-.17.41.13.39-.23-.1,0-.2-.12-.29,0a.76.76,0,0,1-.19-.05c-.06,0-.13-.1-.16-.08s-.24,0-.36,0l-.16,0a1.1,1.1,0,0,0,0,.18l0,.07-.23,0v-.26l-.35,0a.6.6,0,0,0-.23.06c-.13.06-.2,0-.21-.15l-.62.08a6.31,6.31,0,0,1,0,1.57,4,4,0,0,0,0,.49,7.5,7.5,0,0,1-.34,1.88c-.16.61-.33,1.23-.5,1.84-.06.24-.13.47-.21.7,0,0-.06.06-.09.09s-.06.05-.07.09a9.41,9.41,0,0,1-.71,1.42c-.06.11-.15.19-.14.33a.17.17,0,0,1,0,.07,7.68,7.68,0,0,1-.48.95c-.2.28-.29.62-.5.88s-.26.48-.53.6a.25.25,0,0,0-.13.33.93.93,0,0,1,0,.24h-.07l-.06-.16q-.15.29-.27.54s0,.07,0,.11a1,1,0,0,1-.09.3l-.61,1c-.15.26-.29.54-.43.81-.36.71-.71,1.42-1.08,2.13a2.7,2.7,0,0,1-.53.81,1.93,1.93,0,0,0-.27.49c0,.08-.11.15-.15.23s-.07.2-.12.3l-.34.65c-.09.17-.16.34-.24.51l-.4.71-.29.52-.07,0a3.42,3.42,0,0,1,.17-.4l.19-.32s0-.06,0-.09-.06,0-.07.05l-.42.7a1,1,0,0,0,0,.17l-.39.54c.22,0,.43-.31.39-.54,0,0,.09.07.09.11a.43.43,0,0,1,0,.19c-.22.4-.45.8-.67,1.21l-.06,0,.2-.57-.06,0a1.49,1.49,0,0,0-.12.14c-.17.29-.35.58-.52.88,0,.07-.05.17-.09.24-.16.27-.34.54-.49.81s-.13.3-.2.44-.12.19-.2.32l0-.16h-.05l-.4.8.16,0c-.13.15,0,.26.05.36.37.49.73,1,1.11,1.47.55.7,1.11,1.4,1.68,2.09.33.41.68.81,1,1.21.58.7,1.16,1.4,1.76,2.08s1,1.15,1.58,1.73c.36.39.71.79,1.08,1.18s.91,1,1.38,1.44.83.79,1.23,1.2c.18.18.33.39.51.57s.3.24.44.37.18.24.28.34a3.55,3.55,0,0,0,.31.23c.39.34.76.7,1.16,1s.73.57,1.1.86l.76.58,2.26,1.76c.19.15.4.27.59.42a.89.89,0,0,1,.16.25l0,.06-.82-.61c0,.09,0,.21.14.27l.56.41c.13.09.32.25.44.35a.49.49,0,0,1,.14.17,12.55,12.55,0,0,1-1.08-.71l0,0,1.26.89h0c.36.26.72.52,1.07.79s.68.54,1,.82a.58.58,0,0,1,.11.15c-.45-.19-.77-.61-1.26-.71l.63.52h0a1,1,0,0,1-.47-.21l-.06-.08s0-.06,0-.07c-.19-.12-.39-.22-.62-.35,0,.06,0,.1,0,.11a6.9,6.9,0,0,0,.85.6,4.17,4.17,0,0,1,.6.4l.8.62a1.66,1.66,0,0,1-.78-.42l0,0-.08.06c.1-.29-.16-.3-.26-.41a1.73,1.73,0,0,0-.45-.28l.11.11,0,.05-.44-.27,0,0,3,2.11v0l-.83-.51,0,0,1.57,1.12,0,.06-.56-.37-1.72-1.21s-.09,0-.14,0h0c-.11,0-.21,0-.2-.2s-.08-.2-.23-.11-.15-.06-.17-.11-.11-.21-.27-.18a.18.18,0,0,1-.2-.2l0-.06-.37-.27,0,0,.3.22,0,.06a7.05,7.05,0,0,1-1-.78c-.23.05-.32-.35-.57-.23l-2-1.39c0,.11,0,.17.1.22a1.37,1.37,0,0,1,.52.43l.4.25c.46.32.92.64,1.37,1,.22.15.43.32.65.48l.75.55,0,.05-2.15-1.49a.2.2,0,0,0,.17.27c.27.05.39.3.61.42a1.94,1.94,0,0,1,.29.21h0a.42.42,0,0,1-.16,0,5.82,5.82,0,0,1-.6-.34c-.21-.14-.4-.31-.6-.46a1.39,1.39,0,0,0-.21-.11,2.59,2.59,0,0,1-.53-.39.57.57,0,0,0-.39-.24c-.15,0-.29-.18-.43-.28a.47.47,0,0,1-.07-.12,3.36,3.36,0,0,0-.24-.29c-.09-.09-.19-.16-.31-.26l.07.2c-.2-.11-.43-.19-.38-.47l-.27,0,0-.2-.49-.36v.19a13.5,13.5,0,0,1-1.26-1.11l0,0,.18.09.13,0s0-.06,0-.07a.52.52,0,0,0-.11-.1l-.49-.34s-.06-.11-.08-.16h0a3,3,0,0,1,.3.18l1,.77c.2.16.37.34.56.51l-.2-.08a2.22,2.22,0,0,0,.36.32c.29.23.59.45.89.67,0,0,.11.11.12,0l.4.14c0-.05,0-.08-.06-.09a5.26,5.26,0,0,0-.65-.49c-.23-.13-.38-.34-.6-.48s-.49-.38-.76-.54-.25-.38-.51-.38c0,0,0,0,0,0s-.27-.33-.41-.48-.17-.13-.2-.11-.13,0-.15-.07c-.07-.25-.29-.37-.45-.54s-.12,0-.16-.08-.29-.32-.45-.47-.48-.36-.71-.56-.23-.19-.37-.13l.27.46s0,0,0,.05l.66.59a1.22,1.22,0,0,1,.15.17h0l-.66-.5a5.36,5.36,0,0,0-.49-.34c.76.7,1.55,1.36,2.34,2l-.06.07c-.11-.1-.23-.19-.33-.3a1.29,1.29,0,0,0-.63-.4s-.06,0-.06,0c0-.28-.32-.35-.48-.52a1.65,1.65,0,0,0-.36-.22s-.1-.05-.11-.09c-.13-.31-.46-.4-.66-.63a1.21,1.21,0,0,0-.31-.28.38.38,0,0,1-.1,0,.23.23,0,0,1-.11-.08,1.34,1.34,0,0,1-.09-.24l-.18.12-.05-.18a1.46,1.46,0,0,1-.25-.13c-.31-.26-.61-.52-.91-.8a.68.68,0,0,1-.09-.17,1.22,1.22,0,0,1-.27-.15l-.94-.82s0,0,0-.06l.12-.06a.62.62,0,0,0-.52-.29c.1-.13,0-.29-.26-.42l.17.25-.28-.07a1.33,1.33,0,0,0,.08.24l.78.77.06.1h0l-.65-.56c-.19-.17-.36-.35-.53-.53,0,0,0-.08-.07-.12l.21.11a.36.36,0,0,0,0-.43,3.87,3.87,0,0,0-.41-.4l-.05,0,.24.37c-.19-.09-.29-.19-.29-.37a.39.39,0,0,0-.08-.2.29.29,0,0,0-.43-.08c.16-.16.12-.24,0-.34a3.17,3.17,0,0,1-.35-.29c-.23-.22-.47-.43-.69-.67-.09-.09-.25-.14-.24-.31l-.35-.33c-.07,0-.16,0-.21-.08l-.74-.71-.29-.23,0-.09c.2,0,.24.24.44.29a.94.94,0,0,1,0-.1,5.18,5.18,0,0,1-.51-.54c-.14-.18-.45-.2-.45-.5,0,0,0,0-.07-.05s-.21-.08-.23-.14a1.13,1.13,0,0,0-.35-.46c-.16-.17-.3-.36-.46-.53a.14.14,0,0,0-.15,0s0,.11,0,.14a1.4,1.4,0,0,0,.36.33.68.68,0,0,1,.36.42s.06.05.09.08l.21.25h0l-.09-.05-.69-.66-.17-.17,0,0a1.73,1.73,0,0,0,.21.25c.39.42.79.83,1.19,1.24l.7.71c.1.09.2.16.29.25.22.24.44.49.67.72a1.91,1.91,0,0,0,.24.17.45.45,0,0,0,.6.39v.26l-.08,0c.33.3.65.61,1,.9a6.21,6.21,0,0,1,.72.73,5.63,5.63,0,0,1-.46-.36l-1-1-1.71-1.69c-.35-.36-.68-.74-1-1.1l-1.12-1.16c-.12-.12-.23-.25-.36-.36a1,1,0,0,0-.2-.12c0-.05-.1-.1-.15-.17s-.4-.4-.37-.72a1.25,1.25,0,0,1,.06-.29l.2.14c.1.09,0,.15,0,.21a3.17,3.17,0,0,0,.12.44h.07l0-.21.13-.05c.06.11.12.23.19.34s.11,0,.22,0l-2.33-2.61-.06,0,.11.3-.19-.17c0,.08,0,.15,0,.18l.75.84,0,0-.13-.28c.16.11.13.13.19.29a1.86,1.86,0,0,0,.3.45,2.35,2.35,0,0,1,.26.29c0,.08,0,.2,0,.34l-.15-.13c.1-.09.08-.21,0-.3a2,2,0,0,1-.21-.19c-.21-.22-.42-.43-.62-.65s-.2-.27-.3-.4a.65.65,0,0,0-.16-.13l0,0,.14.23,0,0-.23-.08-.39.63c-.29.51-.58,1-.86,1.52-.07.12-.12.26-.18.38s-.11.16-.16.24c-.29.48-.59,1-.87,1.45-.19.32-.36.65-.55,1s-.43.7-.63,1.05c-.44.74-.87,1.49-1.31,2.24-.21.36-.44.71-.66,1.06a.24.24,0,0,1-.12.1c.06-.13.12-.26.19-.39l1.07-1.81,1-1.66a.85.85,0,0,0,.06-.17l.24-.31,0-.06c-.15.07-.18.22-.19.38-.2,0-.23.23-.31.37-.2.32-.38.64-.57,1l0,0,.36-.65,0,0-.49.83.17-.05c0,.09-.08.18-.12.18-.2,0-.22.19-.3.31s-.26.44-.39.66l-.16-.1A3.87,3.87,0,0,1,198,266c.12-.21.27-.39.41-.59l0-.05c.09-.18.17-.36.25-.54s.13-.24.25-.21a2.71,2.71,0,0,1,.1-.43,2.56,2.56,0,0,1,.39-.66,1.48,1.48,0,0,0,.17-.33c.09-.18.19-.34.29-.51l.57-1c.05-.08.06-.17.11-.25l.43-.71c.18-.33.36-.66.53-1a.11.11,0,0,0,0-.11c-1.07,1.87-2.15,3.73-3.25,5.62l-.07-.15-.41.69.06,0,.24-.41.06,0-.84,1.46,0,0,.15-.3c.05-.11.11-.21.17-.32l0,0-.24.37c-.06.09-.11.19-.17.29l-.09.05s-.07,0-.08.06-.07.24-.1.35l-.08.17-.05-.11h0c0,.08,0,.16,0,.24s0,.11,0,.13c-.21.14-.21.4-.34.58a.64.64,0,0,1-.13.1c-.07.15-.14.31-.22.47a.1.1,0,0,1,0,.05c-.12,0-.12,0-.12.15v0c-.06,0-.13,0-.16.08-.15.23-.31.46-.45.69a.26.26,0,0,0-.05.27c0,.07-.09.21-.15.31l-.12.21s-.09,0-.11.05a.67.67,0,0,0-.13.25.5.5,0,0,1-.28.42s-.06.05-.08.09c-.17.31-.34.62-.53.93s-.37.6-.55.9-.49.82-.73,1.23l-.7,1.14-.45.78-.71,1.18c-.22.35-.43.71-.64,1.06a2.27,2.27,0,0,1-.18.25l-.05,0L195,270l-.06,0L190,278.25l-.06,0c.15-.25.29-.5.43-.76s.2-.38.3-.58h0a2.92,2.92,0,0,0,.55-.91c0-.07,0-.17.07-.26l.06.09c.12-.21.24-.4.35-.6,0,0,0-.05,0-.06-.08-.26.12-.4.24-.57l.07.09.19-.35c-.26-.13-.23.19-.4.25a.59.59,0,0,1,0-.13l1-1.73a1.58,1.58,0,0,1,.12-.15l-.1.28.1,0,0,.11.36-.58-.13-.08-.26.3c.18-.31.34-.63.52-.94s.44-.74.67-1.11l.09-.14,0,.12s0,0,0,0a1.7,1.7,0,0,0,.15-.22c0-.07.15-.15,0-.25s0-.08,0-.11l.72-1.17.22-.38c.05.16.13,0,.15,0a1.58,1.58,0,0,0,.12-.29l-.27.29c.08-.15.15-.31.24-.45s.13-.09.18-.14a.57.57,0,0,0,.12-.15c.1-.14.17-.29.27-.41s.06-.14,0-.18c.26-.44.52-.85.76-1.27s.37-.66.56-1c0-.08.14-.14.19-.23a.61.61,0,0,0,.08-.27c-.18.2-.27.48-.55.64l0,.09a.49.49,0,0,0-.27.45H197c0,.07-.06.15-.1.23a2.2,2.2,0,0,1-.17.25s-.07.06-.09.1l-.2.48a.31.31,0,0,1-.08.15,1.12,1.12,0,0,0-.3.5.08.08,0,0,1,0,.05c-.28.16-.21.57-.5.73l0,0c0,.34-.28.5-.43.74a.54.54,0,0,0-.1.18,2.13,2.13,0,0,1-.49.88.37.37,0,0,0-.07.14c-.15.26-.28.53-.44.79s-.32.46-.47.69c-.05.08-.05.19-.1.27l-.67,1.16-.27.45s0,.1-.07.1c-.22.06-.2.29-.31.42s-.1.17-.16.25a2.47,2.47,0,0,0-.19.36,1,1,0,0,1-.33.51.68.68,0,0,0-.23.4.63.63,0,0,1-.39.52c.11.13,0,.21-.07.3a.12.12,0,0,0,0,.09c0,.1-.07.13-.15.19a1,1,0,0,0-.27.4c-.11.21-.11.46-.28.65a1.55,1.55,0,0,0-.24.28,3.23,3.23,0,0,0-.22.41c-.09.16-.18.32-.28.48s-.05,0-.1,0l.48-.95,0,0-.24.41-.36.49s0,0,0,.06c0,.29-.23.45-.34.68a7.35,7.35,0,0,1-.51.85c-.12.2-.25.4-.38.6l0,0,.16-.57c-.26.38-.49.72-.73,1l0,0,0-.12H187V281l.33-.57.06-.15s0-.08,0-.11c.21-.32.44-.61.62-.94a7.12,7.12,0,0,1,.6-.94,5.1,5.1,0,0,0,.57-1,9.64,9.64,0,0,1,.57-1c.11-.19.24-.38.35-.58a.82.82,0,0,0,0-.28h0l-1.77,3-.06,0,.93-1.66-.15-.06a.38.38,0,0,1,.09-.18.57.57,0,0,0,.21-.48c0-.07.09-.15.15-.23s.18-.35.28-.51.28-.43.41-.65.38-.71.57-1.06a.55.55,0,0,0,.1-.22c-.42.51-.76,1.07-1.13,1.6s-.77,1.09-1.16,1.66l-.06-.12-.17.12h0c.07-.16.13-.33.21-.49s.2-.31.3-.48,0-.12.13-.07a.08.08,0,0,0,.06,0c.26-.4.53-.8.76-1.22a.89.89,0,0,1,.29-.37.58.58,0,0,0,.1-.13l-.19.09c.17-.31.34-.6.5-.9l.29,0a.37.37,0,0,0,0-.11.3.3,0,0,1,.18-.35,1,1,0,0,0,.49-.64c.1-.37.44-.58.52-.94l.1,0,.93-1.61c-.15.09-.28.12-.26.29s0,.08-.06.11a1.38,1.38,0,0,0-.29.46,2.62,2.62,0,0,1-.24.34c-.13.17-.27.33-.39.5a3.78,3.78,0,0,0-.22.33.43.43,0,0,1-.09.13c0,.05-.12.06-.15.11l-.44.79c0,.06-.09.15-.14.16a.16.16,0,0,0-.15.14c.13.16,0,.2-.09.28l0-.13h0c-.15.2-.29.41-.43.61l-1,1.45c-.31.45-.61.91-.91,1.37s-.41.66-.66,1-.41.69-.67,1a2.5,2.5,0,0,1-.24.22l-.08-.06,1.09-1.67,0,0c-.54.79-1.09,1.57-1.63,2.35l-.07-.05.29-.45c-.38.27-.46.78-.88,1.05,0-.07,0-.14,0-.16.2-.15.19-.45.43-.57.06,0,.08-.12.11-.2a.32.32,0,0,1,.17-.23c.1,0,.15-.19.21-.29s.19-.34.3-.51l.54-.84c.19-.28.36-.56.56-.82s.39-.67.64-1c0,0,.1-.09.15-.14l.08-.08c.09-.17.18-.34.28-.51s.18-.28.27-.41l.51-.75c.2-.29.42-.56.61-.86.05-.06,0-.17,0-.27l-.31.27h0a.57.57,0,0,1,.14-.34,1.2,1.2,0,0,0,.3-.55.85.85,0,0,1,.15-.43c.19-.27.36-.55.52-.83a8.49,8.49,0,0,0,.61-1.1,9.72,9.72,0,0,1,.74-1.3,1,1,0,0,0,.08-.23l-.05,0c-.07.11-.14.22-.22.33a2.92,2.92,0,0,1-.21.28l0,.06a1.65,1.65,0,0,1-.23.46,8.72,8.72,0,0,0-.63.87c-.09.13-.24.22-.22.41l0,0c-.25.1-.28.32-.29.55s-.21.27-.31.41a1,1,0,0,0-.11.25.69.69,0,0,1-.05.13l-1.58,2.35c-.31.46-.6.93-.9,1.39,0,.06-.12.11-.17.17l-.91,1.35c-.43.64-.86,1.27-1.28,1.91-.31.47-.6.95-.91,1.41s-.56.84-.83,1.25l-1.08,1.67c-.42.63-.83,1.27-1.24,1.91s-.71,1.15-1.07,1.71c-.11.19-.25.36-.37.53l0,0,.34-.56.67-1.14c0-.06,0-.16,0-.21s.14,0,.17,0,.21-.31.31-.47l.75-1.22h0l.47-.77h0c.17-.24.35-.48.52-.73.35-.53.68-1.06,1-1.59.08-.11.15-.23.22-.35l0,0-.45.62,0,0,.16-.33a1,1,0,0,0,.32-.53c-.23.1-.22.35-.32.53s-.28.32-.4.49-.27.44-.41.66-.23.37-.36.55-.14.12-.24.2c.05.2-.07.37-.22.55a4.07,4.07,0,0,0-.4.59c-.13.2-.27.4-.41.59a.49.49,0,0,1-.14,0l0-.25c-.3.2-.06.41-.08.59l-.21,0c.17.2,0,.33-.07.46a3,3,0,0,1-.28.41,1,1,0,0,1-.16.12.75.75,0,0,0-.15.16c-.09.19-.14.39-.23.58s-.24.41-.37.62h-.06l-.09-.42a.56.56,0,0,0-.24.07,1.38,1.38,0,0,0-.19.28c-.06.1-.11.2-.15.28l.13.08h0l-.22.1a.46.46,0,0,0-.09.15,1.24,1.24,0,0,1,0,.16l0-.08a2.73,2.73,0,0,1-.2.25l-.28.26a.87.87,0,0,0,0,.19s0,.06,0,.07a1.93,1.93,0,0,0-.59.65c0,.07-.15.1-.23.15l-.05,0,.06-.18,0,0-.44.62,0,0,.16-.3c.17-.3.33-.61.51-.9s.29-.4.42-.6a2.44,2.44,0,0,0,.14-.28s.08-.07.1-.11c.19-.29.38-.58.56-.88s.29-.52.45-.77.28-.39.42-.58l.08-.13.5-.82c.07-.13.14-.26.22-.38s.19-.27.29-.4l.1-.14.59-1,.51-.89c.11-.17.24-.33.35-.5s.25-.42.38-.62l.52-.71c0-.05,0-.12.07-.17l.56-.81c.12-.19.23-.38.34-.57l.12-.17c.1-.11.24-.2.22-.38,0,0,0-.06.05-.09A5.45,5.45,0,0,0,185,276a6.31,6.31,0,0,1,.7-1.09c.07-.09.11-.22.18-.32a10.55,10.55,0,0,0,.59-.89,7.33,7.33,0,0,1,.4-.63c.12-.19.22-.39.34-.58a3.55,3.55,0,0,1,.23-.31c0-.05.11-.1.13-.16a.38.38,0,0,1,.23-.3s.05,0,.05-.05a1.24,1.24,0,0,1,.37-.68c.09-.1.1-.28.2-.38s.21-.4.37-.57a6.17,6.17,0,0,0,.39-.6c.1-.13.22-.25.32-.39s.06-.14.1-.2a2.5,2.5,0,0,1,.21-.35c.05-.08.12-.14.17-.22.13-.23.24-.47.38-.7s.38-.62.58-.92.23-.31.34-.47.11-.28.2-.37.21-.38.35-.55a5.07,5.07,0,0,0,.35-.46c.15-.26.28-.52.41-.78,0,0,0,0,0-.09l-.22.34a.26.26,0,0,1-.07.1.24.24,0,0,0-.16.25c0,.12,0,.12-.18.18s-.11.14-.17.22l-.15.21,0,0c.1-.17.21-.35.32-.51l.79-1.19c.1-.15.18-.36.33-.44s.31-.4.5-.57c0,0,0,0,0-.09h-.13l0,0c.05-.05.08-.14.13-.15s.09-.06.13-.13c.16-.3.34-.59.51-.88,0,0,.1,0,.14-.07a3,3,0,0,0,.25-.26,1.11,1.11,0,0,0,.14-.29ZM184.14,228.5l.18.5a.33.33,0,0,0,0,.14c.11.28.23.55.35.83l.07.09,0,0c-.08-.22-.17-.44-.26-.65a3,3,0,0,0-.22-.39l-.17-.5a.9.9,0,0,0-.22-.54l0,0Zm1.31,3.63-.17-.51-.08,0,.25.47.26.69.09,0ZM195.33,247a.7.7,0,0,0-.34-.45l.35.45a2.06,2.06,0,0,0,.45.64l.06,0Zm-11.79,32.56a2.61,2.61,0,0,0-.27.31c-.12.17-.22.35-.33.53l.05,0,.54-.87.35-.51-.06,0Zm18.51-20.91a.42.42,0,0,0,.23-.26,6.11,6.11,0,0,1,.27-.58l0,0-.46.87-.25.38.08,0Zm-17.13,18.92a1.25,1.25,0,0,0,.12-.08,1.88,1.88,0,0,0,.16-.23l.26-.45-.05,0a4.12,4.12,0,0,0-.49.78l-.42.58A.65.65,0,0,0,184.92,277.59Zm-4.55,7-.08.27.37-.33,0,0-.26.1,0-.18a1.15,1.15,0,0,0-.37.89.75.75,0,0,0,.14-.3A.49.49,0,0,1,180.37,284.59Zm19.41-23.74-.3.49c-.06.12-.13.23-.27.25s0,0,0,0h.11l-.1.27a3.71,3.71,0,0,1-.23.32,1.52,1.52,0,0,1-.18.18c0,.3-.29.5-.37.8l.06,0,.3-.52h.06a3.79,3.79,0,0,0,.12-.36c.05-.17.29-.25.24-.47,0,0,.08,0,.1-.06.1-.19.21-.37.31-.57s.1-.26.16-.4l.34-.48-.07,0Zm-16.17-33.74.21.71.07,0c-.14-.22,0-.52-.29-.69a3,3,0,0,0-.52-1.22q.12.35.27.69C183.43,226.76,183.52,226.93,183.61,227.11ZM196,263.51l-.1-.31-.44.83.05,0,.31-.47,0,0-.15.33.06,0,.22-.46a3.11,3.11,0,0,0,.49-1l-.06,0-.29.17c.07,0,.15,0,.16.05a.22.22,0,0,1,0,.14c0,.07-.07.13-.1.19S196.05,263.36,196,263.51Zm-5.91-24.17c0-.12-.07-.3-.27-.4l.27.4a1.19,1.19,0,0,0,.08.2c.18.31.36.63.55.94l.36.57,0,0a.66.66,0,0,0,0-.15c-.23-.27-.31-.63-.53-.91a5.43,5.43,0,0,1-.32-.51A.55.55,0,0,0,190.07,239.34Zm-5.61,39.35-.05-.12.12-.25-.16-.12-.29.45.38,0-.06.34.16-.18-.08.27,0,0,1.59-2.48-.05,0-.29.38v-.14a3.31,3.31,0,0,0-.26.27.54.54,0,0,0,0,.22.93.93,0,0,0-.15.13c-.11.11-.2.24-.31.36s0,.2-.06.23a1.16,1.16,0,0,0-.39.54S184.49,278.66,184.46,278.69Zm23.62-50.57a0,0,0,0,1,0,0h-.18a1.53,1.53,0,0,0-.29-.07c-.18,0-.35.06-.53.08a.16.16,0,0,1-.14,0c-.18-.2-.37-.13-.57-.06,0,0,0,0,0,.06h.06a0,0,0,0,1,0,0h0s0,0,0,0l-.28,0c-.06,0-.11-.06-.17-.06l-1,.1-.49.08s0,0,0,0v0a.55.55,0,0,1,.53.2,0,0,0,0,1,0,0h-.17l0,.11h0s0,0,0,0h0s0,0,0,0a.86.86,0,0,1-.17,0c-.16,0-.31-.08-.47-.1-.58-.07-1.16-.14-1.75-.19-.4,0-.81,0-1.21,0s-.67,0-1,0h-.4a0,0,0,0,0,0,.08h0a0,0,0,0,1,0,.06,24.11,24.11,0,0,1-6.87-1.05l0,.15a.58.58,0,0,0-.16-.21,1.43,1.43,0,0,0-.44-.15c.1.37.2.7.27,1a.75.75,0,0,1,0,.47c-.06.14,0,.2.08.29s0-.08,0-.12,0-.07.05-.11h0l.15.61s0,0,0,0,0,.14,0,.2a.7.7,0,0,0,0,.25,1.38,1.38,0,0,0,.08.27l0,0,0-.47h.05c.14.57.28,1.13.42,1.72l-.19,0a4.05,4.05,0,0,0,.07.62c.1.35.22.7.35,1s.36,1,.55,1.45c.12.33.23.66.36,1,.22.51.45,1,.67,1.51s.46,1.09.71,1.62.49,1,.74,1.53l.87,1.81c.14.29.3.56.45.84.29.55.58,1.1.88,1.65s.56,1,.85,1.47l1.17,2c.2.33.42.64.64,1,.15-.27.29-.54.45-.81a2.44,2.44,0,0,1,.48-.8,2.32,2.32,0,0,0,.37-.71h0l-.1.12,0,0c.11-.16.06-.43.33-.51,0,0,.09-.12.08-.18a.41.41,0,0,1,.22-.44c0-.21.15-.63.29-.65s0-.28.1-.31a.52.52,0,0,0,.24-.43,1,1,0,0,1,.39-.77c.05,0,.11-.16.08-.2s0-.27.06-.38c.38-.87.78-1.74,1.15-2.61s.79-1.87,1.17-2.82q.27-.68.51-1.38a.42.42,0,0,0,0-.19c-.08.07-.1.16-.14.17s-.15.14-.19.25-.1.31-.16.46c-.19.47-.37.94-.56,1.4-.29.7-.58,1.4-.89,2.1-.17.4-.38.78-.55,1.18-.1.22-.16.46-.26.68-.24.53-.5,1.06-.75,1.59s-.35.83-.53,1.23c-.28.59-.57,1.17-.85,1.75,0,0-.07.07-.11.11h0a1.33,1.33,0,0,1,.05-.19c.2-.43.41-.85.6-1.29s.33-.77.49-1.15.23-.56.36-.84l.7-1.5c.2-.45.39-.9.58-1.35s.48-1.11.71-1.66.37-1,.56-1.42c.12-.29.25-.56.35-.84.2-.53.38-1.07.55-1.61.24-.74.5-1.49.69-2.25s.35-1.51.49-2.28.22-1.43.32-2.15c0-.19-.06-.3-.26-.34,0,0,0,0,0,.05l.21.25s0,0,0,0a.37.37,0,0,1-.06.1.24.24,0,0,1-.13,0l-.2-.15s0-.05,0-.06l.08,0s0,0,0,0l-.12-.11h0L208,228a0,0,0,0,0,0,.05Zm-23.59.71a15.52,15.52,0,0,0-1.36-3.48C183.6,226.54,184,227.68,184.49,228.83Zm14.76,23.78.06-.06c-.71-.92-1.43-1.83-2.16-2.76a.46.46,0,0,0,0,.17,3.5,3.5,0,0,0,.24.3l.75,1,.94,1.14Zm6.2-11.14-.07,0c-.49,1-1,2.08-1.48,3.12l.09,0C204.48,243.56,205,242.51,205.45,241.47Zm-10.34,5.58-.05,0,1.89,2.64.05,0a2.15,2.15,0,0,0-.19-.37c-.21-.29-.45-.57-.67-.86s-.29-.38-.42-.58-.24-.39-.37-.58A3.08,3.08,0,0,0,195.11,247.05Zm2.21-18.87.74.07h0l0-.15h0c.08.06.25,0,.19.18,0,0,0,0,0,0l.41-.15s0,0,0,0l-1.63-.16s0,0,0,0c.17.12.25.18.25.21Zm-10.64,47.27c-.19,0-.19-.12-.1-.25a3.24,3.24,0,0,0,.19-.37l-.07,0-.63,1,.07,0a2.53,2.53,0,0,0,.18-.27c.05-.1.1-.13.22-.05-.32.15,0,.26,0,.39C186.79,275.82,186.59,275.61,186.68,275.45Zm6.83-48.09v.06l1.5.4h0a1.09,1.09,0,0,0-.09-.21.19.19,0,0,0-.32,0h0l-.33-.08,0-.08.13,0v-.05l-.46-.09c-.05,0-.12,0-.13,0s-.13.06-.21,0Zm1,37.43.06,0a4.89,4.89,0,0,0,.87-1.56Zm.66-.09c.17.09.14,0,.16-.09l0-.17c.14,0,.11-.09.15-.15-.28-.07-.27.21-.41.34l-.05-.11H195c.13.36-.16.58-.26.92.11-.09.2-.13.24-.21S195.06,264.87,195.13,264.7Zm-.6-18.31,0,0-.42-.65-.62-1a.87.87,0,0,0-.17-.16l0,0Zm-6.16,28.66c-.12.07-.06.16-.06.25a.38.38,0,0,1,0,.24c-.16.25-.34.49-.51.74l-.11.19.05,0,.85-1.25C188.37,275.27,188.35,275.25,188.37,275.05Zm-2.2,1.52.36-.56,0,0-.17.15s-.07.06-.1.06a.41.41,0,0,0-.33.46C186,276.66,186,276.31,186.17,276.57Zm7.14-9.41.07,0,.56-1.05-.05,0A2.92,2.92,0,0,0,193.31,267.16Zm16.17-3.39,0,.05,1.24,1.24,0,0ZM220.61,228c.22,0,.45,0,.68,0s.23,0,.27-.17C221.22,227.86,220.89,227.76,220.61,228Zm-21.16,30.3c-.07.14-.14.26-.21.38s-.11.25-.18.36-.18.2-.16.38A2.47,2.47,0,0,0,199.45,258.25Zm22.09,13.81,0,.06,1.09.81,0-.06ZM189.06,271l.16.12a3.78,3.78,0,0,1,.22-.33c.09-.12.07-.19-.07-.23Zm9.24-7.7-.33.85.08,0a2.32,2.32,0,0,1,.13-.37c.09-.17.1-.4.34-.46,0,0,.06-.08.1-.12Zm1.06-35v-.08h-.29s0,0,0,0c.23.09.26.14.23.37,0,0,0,0,0,0h.07l0-.13h0l0-.17a0,0,0,0,1,0,0Zm-11.45,7.23.05,0-.73-1.47,0,0Zm14.7,11.91c-.19.36-.35.7-.52,1A2.13,2.13,0,0,0,202.61,247.37ZM192.88,273c-.34.36-.37.45-.26.69l.26-.47,0,0-.11.12,0,0Zm22.45-3.63,0,0-1.13-1,0,0Zm-21.16-.9-.59,1A1.81,1.81,0,0,0,194.17,268.46Zm-8.32,7.76c-.3,0-.34.26-.5.45C185.61,276.59,185.81,276.49,185.85,276.22Zm7.56-11.67,0,0a1.72,1.72,0,0,0-.35.3,1.13,1.13,0,0,0-.11.42h0Zm8.11-15.38c.4-.12.31-.44.43-.66l0,0Zm-21,35.08.05,0,.78-1.23-.05,0Zm15.75-56.39a.9.9,0,0,0,.78.24s0,0,0,0l-.41-.07h0c0-.21-.18-.16-.35-.15A0,0,0,0,0,196.23,227.86ZM183.46,280c-.12,0-.42.37-.42.57C183.18,280.4,183.45,280.32,183.46,280Zm5.43-42.73.06,0-.58-1.05-.05,0Zm9.12,8.14.05,0-.51-.91-.06,0Zm-1.66,16.11,0,0-.39.63,0,.27h0Zm3.79,1.52.07,0,.41-.76-.07,0Zm-8.34-20.94-.05,0,.52.83C192.24,242.64,192,242.42,191.8,242.14Zm1.95,21.6a.43.43,0,0,0-.18.56C193.79,264.17,193.64,263.91,193.75,263.74Zm-6.31,10,0,0a.91.91,0,0,0,.16-.24s0-.11-.06-.16a.4.4,0,0,0-.13.07,2.73,2.73,0,0,0-.13.25l.14-.08Zm5.34-9.88h.05l.13-.5a.33.33,0,0,0-.16.12c0,.06-.08.11-.12.18Zm5.3-2c.28-.19.4-.42.33-.6Zm-7.71-21.64,0,0,.52.88.06,0Zm-8.88,42.44,0,0,.59-.93,0,0Zm43.44-6.75,0-.05-.76-.52,0,.05Zm-31-9.43a.86.86,0,0,0,.32-.62C194.2,265.89,194.05,266.18,194,266.48Zm-.91-2.22c.23,0,.4-.26.3-.43Zm2.92-1.62,0,0,.39-.76-.05,0C196.3,262.15,196,262.33,196,262.64Zm.64-13.8.05,0-.53-.74-.06,0ZM195,247.31l0,0,.55.77,0,0Zm7.69-.21.06,0,.37-.72-.06,0ZM208,262.86c.06.16.42.51.55.5l-.05.05Zm-18.31,7.35.08,0,.18-.33c-.11,0-.21,0-.25.08S189.7,270.13,189.7,270.21Zm32.13-42.06v0l1.07-.1v0ZM192.78,243.8l.05,0-.44-.69,0,0ZM189,272.2l0,0-.15.15-.1-.09-.07,0,0,.29h.06Zm.7-1.32.29-.48C189.74,270.51,189.63,270.68,189.7,270.88Zm7-9.24.05,0c.15-.28.29-.56.43-.84l0,0Zm-3.3,5.75,0-.09a1.88,1.88,0,0,0-.24.14s0,.11,0,.22Zm4.75-12-.07-.05-.35.6,0,0Zm-2.45-27.63s0,0,0,0,.13.2.2.22.13-.08.2-.14,0,0,0,0Zm23.91.24v.1l.29,0c0-.05,0-.14,0-.14Zm-10.43,20c-.25.06-.3.17-.21.33Zm-14.94,15.61,0,.06c.05,0,.11,0,.13,0s.12-.22.2-.36C194.35,263.27,194.39,263.52,194.23,263.57Zm-.29.09,0,0a2.26,2.26,0,0,1,.16-.26c.08-.1.05-.16-.07-.2ZM188.6,272l0,0-.36.53.06,0ZM223,227.77l0-.07c-.15.11-.37-.19-.49.13Zm-28.61,40.31.05,0,.33-.52,0,0Zm-5.43,7.71,0,0-.34.52.05,0Zm33.76-.38,0-.05a2.39,2.39,0,0,0-.22-.23s-.08,0-.09,0a.11.11,0,0,0,0,.1ZM194.56,238.6l.06,0-.28-.57,0,0Zm.78,1.57-.05,0,.3.59,0,0Zm-3.86,1.57.06,0-.35-.56,0,0Zm3.77,18.3-.05,0-.29.48.06,0Zm25.06-31.93v0h.48v0Zm-14.25,25,0,0-.26.54.07,0Zm-16.32-14.29,0,0-.3-.53-.05,0Zm6.59,3.39-.05,0,.31.57,0,0Zm-3.49,28.63,0,0,.33-.55,0,0Zm-4.1-33.35,0,0-.26-.48-.05,0Zm11.53,24.1,0,0-.34.57,0,0ZM190.91,267l.05,0,.34-.46-.06,0Zm-1.07-27.68-.05,0,.33.56,0,0Zm21.1,25.93,0,0,.41.44,0,0Zm-17.8-20.86.07,0-.33-.45,0,0Zm2.12,18.95a.91.91,0,0,0,.29-.42l-.06,0Zm-4.37,7.62c.23-.17.28-.31.16-.38Zm10.78-10.4c-.22.12-.29.26-.23.36a1.58,1.58,0,0,0,.12-.15ZM182.79,281l0,0-.3.48.06,0Zm4.41-6.43.07,0,.22-.39-.05,0Zm-2.07-43.12.05,0-.21-.5-.05,0Zm7.6,36.73a.47.47,0,0,0,.33-.41Zm-1.5-26.54,0,0,.29.46.05,0ZM188,236l0,0-.27-.5,0,0Zm2.71,35.35.15-.4h0l-.17.24Zm3.08-6.88c-.26.11-.29.15-.22.32Zm5.08-.43,0,0-.29.47,0,0Zm-10.78,9.56,0,0-.27.39,0,0Zm8.38-45.42v0s0,0,0,0l-.39,0h0v0h0l.4.05Zm-3.66,16,0,0-.26-.41,0,0Zm-2.24,30.58-.05,0-.17.33,0,0Zm17.22-12.69h0l-.31-.33,0,0Zm-10.26-15.41s0,.06,0,.07.09.21.15.32C197.71,246.92,197.68,246.84,197.51,246.66Zm14.86,20,0,0-.34-.33h0Zm-17.08-38.9.21-.1s0,0,0,0l-.32,0s0,0,0,0l.11.14Zm1.6,15.45-.06,0,.2.35,0,0Zm-1,21.81a.28.28,0,0,0,.18-.35Zm-4.35,2.43c-.19.07-.21.11-.14.26Z" style="fill:none;stroke:#fff;stroke-miterlimit:10;stroke-width:0.03554583302493763px"/><path d="M198.64,200.06c-.18.14-.19.36-.27.54s-.08.16-.13.27a1.23,1.23,0,0,1-.05.21c-.21.59-.43,1.17-.64,1.76-.09.24-.17.48-.26.74l-.07-.06-.65,1.84,0,0c0-.14.07-.28.12-.42.24-.69.47-1.37.72-2s.55-1.5.83-2.25a2.58,2.58,0,0,1,.14-.39,1.75,1.75,0,0,1,.18-.26.13.13,0,0,1,.07-.23,1.34,1.34,0,0,1,0-.32c.18-.5.37-1,.57-1.49.07-.18.15-.35.23-.55.17.21,0,.38,0,.55s-.16.42-.24.63l.06,0,.34-.78.05,0-.06.22h0l.36-.68.06,0-.17.5h0l.23-.47h.07a1,1,0,0,1,0,.17c0,.06,0,.14,0,.16s.08.25,0,.38a.2.2,0,0,0,0,.15l.12-.15h0l-.13.63h0l.21-.36h.06c0,.11,0,.22,0,.34s-.14.21,0,.28a1.79,1.79,0,0,0,.32.09,1.91,1.91,0,0,0-.06.21c-.05.13,0,.21.16.14l-.1.59c.26-.06.26-.06.29.17a3.59,3.59,0,0,0,.08.35l.23-.14.05,0-.06.27c.12,0,.14.12.11.25s-.09.27.1.36c0,0,0,.15,0,.25l.06,0v1.78h.05l.07-.38.2.2s0,.11,0,.18a.63.63,0,0,0,.15.64.37.37,0,0,1,0,.14s0,.09,0,.17l.22-.41h.06l.08.45.31-.16,0,.06c.06.29.13.58.19.87a.48.48,0,0,0,.12.22c.09.1.08.28.13.42s.11.33.15.5a1.17,1.17,0,0,1,0,.32l.11,0c0,.61.07,1.22.1,1.85l.17,0s0,0,0,0a2.16,2.16,0,0,0,0,1.1,3.68,3.68,0,0,0,.06.57c0,.25.11.5.17.75s.07.35.1.53,0,.19.05.28c.14.53.28,1.07.43,1.6s.26,1,.42,1.42c0,.13.17.23.25.35s.17.28.26.42.29.36.44.55c0,0,.05,0,.06.06s.16.27.13.37-.34.21-.51.15l-.48-.14a.64.64,0,0,1,0,.21.71.71,0,0,1-.17.21s-.11,0-.16-.05c-.2-.17-.39-.34-.6-.5a1.05,1.05,0,0,0-.35-.13,2.69,2.69,0,0,1-1.49-1.13c-.14-.19-.24-.2-.37,0s-.19.16-.34.12-.26,0-.39-.05a.67.67,0,0,1-.18-.07l-.39-.2s-.07-.07-.12-.09l-.3-.13c-.07,0-.15,0-.23-.08s-.13-.11-.21-.13a.72.72,0,0,1-.42-.4s0-.08-.07-.08c-.28-.05-.56-.07-.83-.13a2.56,2.56,0,0,1-.9-.2,2.25,2.25,0,0,0-.48-.15c-.31-.11-.62-.23-.92-.37a.38.38,0,0,1-.23-.36.36.36,0,0,0-.2-.32,1.8,1.8,0,0,1-.78-1.56,6.53,6.53,0,0,1,.21-1.82c.2-.83.45-1.64.68-2.46.12-.4.26-.79.39-1.19h.07a.48.48,0,0,1,0,.12c0,.16-.06.33-.1.48a1.49,1.49,0,0,1-.16.53c-.05.08-.15.14-.17.24s0,.3,0,.45a.18.18,0,0,1,0,.09s0,0,0,0c-.07.22-.14.44-.2.68.08,0,.13,0,.16-.11.18-.59.35-1.19.55-1.78.25-.77.53-1.53.8-2.3.07-.21.14-.42.22-.64a.1.1,0,0,1,.08-.07l0,.16,0,0c0-.07.07-.14.06-.2-.08-.23.07-.42.12-.62a6.38,6.38,0,0,1,.3-.87c.09-.21.2-.41.28-.62a2.59,2.59,0,0,0,.09-.4h.06l0,.25a.58.58,0,0,0,.13-.47c0-.12,0-.13.1-.2a.09.09,0,0,0,0-.09.84.84,0,0,0-.06-.14l.37-.68a.38.38,0,0,0,.09-.18,2.62,2.62,0,0,0,0-.28,1,1,0,0,1,.06-.16l0,0c-.1.24-.21.48-.29.73a5.8,5.8,0,0,0-.19.59" style="fill:#fff"/><path d="M198.64,200.06c-.18.14-.19.36-.27.54s-.08.16-.13.27a1.23,1.23,0,0,1-.05.21c-.21.59-.43,1.17-.64,1.76-.09.24-.17.48-.26.74l-.07-.06-.65,1.84,0,0c0-.14.07-.28.12-.42.24-.69.47-1.37.72-2s.55-1.5.83-2.25a2.58,2.58,0,0,1,.14-.39,1.75,1.75,0,0,1,.18-.26.13.13,0,0,1,.07-.23,1.34,1.34,0,0,1,0-.32c.18-.5.37-1,.57-1.49.07-.18.15-.35.23-.55.17.21,0,.38,0,.55s-.16.42-.24.63l.06,0,.34-.78.05,0-.06.22h0l.36-.68.06,0-.17.5h0l.23-.47h.07a1,1,0,0,1,0,.17c0,.06,0,.14,0,.16s.08.25,0,.38a.2.2,0,0,0,0,.15l.12-.15h0l-.13.63h0l.21-.36h.06c0,.11,0,.22,0,.34s-.14.21,0,.28a1.79,1.79,0,0,0,.32.09,1.91,1.91,0,0,0-.06.21c-.05.13,0,.21.16.14l-.1.59c.26-.06.26-.06.29.17a3.59,3.59,0,0,0,.08.35l.23-.14.05,0-.06.27c.12,0,.14.12.11.25s-.09.27.1.36c0,0,0,.15,0,.25l.06,0v1.78h.05l.07-.38.2.2s0,.11,0,.18a.63.63,0,0,0,.15.64.37.37,0,0,1,0,.14s0,.09,0,.17l.22-.41h.06l.08.45.31-.16,0,.06c.06.29.13.58.19.87a.48.48,0,0,0,.12.22c.09.1.08.28.13.42s.11.33.15.5a1.17,1.17,0,0,1,0,.32l.11,0c0,.61.07,1.22.1,1.85l.17,0s0,0,0,0a2.16,2.16,0,0,0,0,1.1,3.68,3.68,0,0,0,.06.57c0,.25.11.5.17.75s.07.35.1.53,0,.19.05.28c.14.53.28,1.07.43,1.6s.26,1,.42,1.42c0,.13.17.23.25.35s.17.28.26.42.29.36.44.55c0,0,.05,0,.06.06s.16.27.13.37-.34.21-.51.15l-.48-.14a.64.64,0,0,1,0,.21.71.71,0,0,1-.17.21s-.11,0-.16-.05c-.2-.17-.39-.34-.6-.5a1.05,1.05,0,0,0-.35-.13,2.69,2.69,0,0,1-1.49-1.13c-.14-.19-.24-.2-.37,0s-.19.16-.34.12-.26,0-.39-.05a.67.67,0,0,1-.18-.07l-.39-.2s-.07-.07-.12-.09l-.3-.13c-.07,0-.15,0-.23-.08s-.13-.11-.21-.13a.72.72,0,0,1-.42-.4s0-.08-.07-.08c-.28-.05-.56-.07-.83-.13a2.56,2.56,0,0,1-.9-.2,2.25,2.25,0,0,0-.48-.15c-.31-.11-.62-.23-.92-.37a.38.38,0,0,1-.23-.36.36.36,0,0,0-.2-.32,1.8,1.8,0,0,1-.78-1.56,6.53,6.53,0,0,1,.21-1.82c.2-.83.45-1.64.68-2.46.12-.4.26-.79.39-1.19h.07a.48.48,0,0,1,0,.12c0,.16-.06.33-.1.48a1.49,1.49,0,0,1-.16.53c-.05.08-.15.14-.17.24s0,.3,0,.45a.18.18,0,0,1,0,.09s0,0,0,0c-.07.22-.14.44-.2.68.08,0,.13,0,.16-.11.18-.59.35-1.19.55-1.78.25-.77.53-1.53.8-2.3.07-.21.14-.42.22-.64a.1.1,0,0,1,.08-.07l0,.16,0,0c0-.07.07-.14.06-.2-.08-.23.07-.42.12-.62a6.38,6.38,0,0,1,.3-.87c.09-.21.2-.41.28-.62a2.59,2.59,0,0,0,.09-.4h.06l0,.25a.58.58,0,0,0,.13-.47c0-.12,0-.13.1-.2a.09.09,0,0,0,0-.09.84.84,0,0,0-.06-.14l.37-.68a.38.38,0,0,0,.09-.18,2.62,2.62,0,0,0,0-.28,1,1,0,0,1,.06-.16l0,0c-.1.24-.21.48-.29.73A5.8,5.8,0,0,0,198.64,200.06Z" style="fill:none;stroke:#fff;stroke-miterlimit:10;stroke-width:0.03554583302493763px"/><path d="M189.1,239.54c-.08-.13-.14-.26-.22-.38s-.14-.13-.2-.19a.17.17,0,0,1-.07-.12,1.23,1.23,0,0,0-.26-.58c-.13-.19-.21-.4-.32-.59s-.11-.12-.15-.19a1.36,1.36,0,0,1-.1-.21.59.59,0,0,0-.06-.2,5.64,5.64,0,0,1-.53-1c-.07-.16-.29-.24-.24-.47,0,0-.09-.06-.13-.09s-.12-.09,0-.16h0l.35.38,0,0-.25-.54.05,0,2.42,4.45,0,0-.94-1.65-.92-1.68-.07,0c.09.15.17.31.25.46.21.41.42.83.64,1.24.1.2.24.39.35.58s.29.49.43.73a.6.6,0,0,1,0,.19h0" style="fill:#fff"/><path d="M189.1,239.54c-.08-.13-.14-.26-.22-.38s-.14-.13-.2-.19a.17.17,0,0,1-.07-.12,1.23,1.23,0,0,0-.26-.58c-.13-.19-.21-.4-.32-.59s-.11-.12-.15-.19a1.36,1.36,0,0,1-.1-.21.59.59,0,0,0-.06-.2,5.64,5.64,0,0,1-.53-1c-.07-.16-.29-.24-.24-.47,0,0-.09-.06-.13-.09s-.12-.09,0-.16h0l.35.38,0,0-.25-.54.05,0,2.42,4.45,0,0-.94-1.65-.92-1.68-.07,0c.09.15.17.31.25.46.21.41.42.83.64,1.24.1.2.24.39.35.58s.29.49.43.73a.6.6,0,0,1,0,.19Z" style="fill:none;stroke:#fff;stroke-miterlimit:10;stroke-width:0.03554583302493763px"/><path d="M221.73,230.07h0l.16,0c.09-.16.1-.17.21-.07a1.19,1.19,0,0,1,.31,0c.16,0,.32.09.48.12a1.21,1.21,0,0,0,.19,0,1.15,1.15,0,0,1,.26,0l1.23.09a.1.1,0,0,1,.08,0c-.23,0-.49-.06-.72.17.22,0,.4.08.57-.05h.05l.59.12v0c-.34,0-.69.05-1,.05s-.73-.07-1.1-.09l-1.05,0v0l.35-.06v-.07a.53.53,0,0,0-.41,0c-.15,0-.19,0-.19-.15" style="fill:#fff"/><path d="M221.73,230.07h0l.16,0c.09-.16.1-.17.21-.07a1.19,1.19,0,0,1,.31,0c.16,0,.32.09.48.12a1.21,1.21,0,0,0,.19,0,1.15,1.15,0,0,1,.26,0l1.23.09a.1.1,0,0,1,.08,0c-.23,0-.49-.06-.72.17.22,0,.4.08.57-.05h.05l.59.12v0c-.34,0-.69.05-1,.05s-.73-.07-1.1-.09l-1.05,0v0l.35-.06v-.07a.53.53,0,0,0-.41,0C221.77,230.26,221.73,230.2,221.73,230.07Z" style="fill:none;stroke:#fff;stroke-miterlimit:10;stroke-width:0.03554583302493763px"/><path d="M187.66,236.13c-.84-1.51-1.54-3.1-2.26-4.67l0,0c0,.05.12.09.14.14.14.3.25.61.39.91.23.49.47,1,.7,1.45s.38.82.58,1.22.29.55.44.82a.83.83,0,0,1,0,.15l-.06,0" style="fill:#fff"/><path d="M187.66,236.13c-.84-1.51-1.54-3.1-2.26-4.67l0,0c0,.05.12.09.14.14.14.3.25.61.39.91.23.49.47,1,.7,1.45s.38.82.58,1.22.29.55.44.82a.83.83,0,0,1,0,.15Z" style="fill:none;stroke:#fff;stroke-miterlimit:10;stroke-width:0.03554583302493763px"/><path d="M191.42,243c-.67-1.09-1.35-2.16-2-3.28l.05,0,2,3.27-.06,0" style="fill:#fff"/><path d="M191.42,243c-.67-1.09-1.35-2.16-2-3.28l.05,0,2,3.27Z" style="fill:none;stroke:#fff;stroke-miterlimit:10;stroke-width:0.03554583302493763px"/><path d="M189.1,239.54h0c.14.19.29.38.41.58s.39.63.57.95a.16.16,0,0,1,0,.07l-.05,0-1-1.65.07,0" style="fill:#fff"/><path d="M189.1,239.54h0c.14.19.29.38.41.58s.39.63.57.95a.16.16,0,0,1,0,.07l-.05,0-1-1.65Z" style="fill:none;stroke:#fff;stroke-miterlimit:10;stroke-width:0.03554583302493763px"/><path d="M191.56,243.09l1,1.6-.05,0-1-1.59.07,0" style="fill:#fff"/><path d="M191.56,243.09l1,1.6-.05,0-1-1.59Z" style="fill:none;stroke:#fff;stroke-miterlimit:10;stroke-width:0.03554583302493763px"/><path d="M218.25,230.12a2.26,2.26,0,0,1-.89-.12l0-.06.88.11Z" style="fill:#fff"/><path d="M218.25,230.12a2.26,2.26,0,0,1-.89-.12l0-.06.88.11Z" style="fill:none;stroke:#fff;stroke-miterlimit:10;stroke-width:0.03554583302493763px"/><path d="M190.2,241.26c.2.27.32.59.52.85l-.07,0-.52-.84.07-.05" style="fill:#fff"/><path d="M190.2,241.26c.2.27.32.59.52.85l-.07,0-.52-.84Z" style="fill:none;stroke:#fff;stroke-miterlimit:10;stroke-width:0.03554583302493763px"/><path d="M191.88,244l.41.63c-.31-.09-.3-.4-.48-.59l.07,0" style="fill:#fff"/><path d="M191.88,244l.41.63c-.31-.09-.3-.4-.48-.59Z" style="fill:none;stroke:#fff;stroke-miterlimit:10;stroke-width:0.03554583302493763px"/><path d="M188.9,238.41l-.39-.65.07,0,.39.65-.07,0" style="fill:#fff"/><path d="M188.9,238.41l-.39-.65.07,0,.39.65Z" style="fill:none;stroke:#fff;stroke-miterlimit:10;stroke-width:0.03554583302493763px"/><path d="M193.13,245.52l-.4-.51a1.19,1.19,0,0,1-.08-.16l.06,0,.42.7Z" style="fill:#fff"/><path d="M193.13,245.52l-.4-.51a1.19,1.19,0,0,1-.08-.16l.06,0,.42.7Z" style="fill:none;stroke:#fff;stroke-miterlimit:10;stroke-width:0.03554583302493763px"/><path d="M193,245.72c.21.18.28.47.45.68l0,0-.45-.68,0,0" style="fill:#fff"/><path d="M193,245.72c.21.18.28.47.45.68l0,0-.45-.68Z" style="fill:none;stroke:#fff;stroke-miterlimit:10;stroke-width:0.03554583302493763px"/><path d="M195.49,249c-.08-.25-.35-.36-.44-.6l.06,0,.45.59-.07,0" style="fill:#fff"/><path d="M195.49,249c-.08-.25-.35-.36-.44-.6l.06,0,.45.59Z" style="fill:none;stroke:#fff;stroke-miterlimit:10;stroke-width:0.03554583302493763px"/><path d="M196.15,249.75l-.59-.7.07-.05.52.76Z" style="fill:#fff"/><path d="M196.15,249.75l-.59-.7.07-.05.52.76Z" style="fill:none;stroke:#fff;stroke-miterlimit:10;stroke-width:0.03554583302493763px"/><path d="M194,246.81l-.45-.63.06,0,.44.63-.05,0" style="fill:#fff"/><path d="M194,246.81l-.45-.63.06,0,.44.63Z" style="fill:none;stroke:#fff;stroke-miterlimit:10;stroke-width:0.03554583302493763px"/><path d="M217.39,231l-.24.09-.1-.15.16-.14.18.2" style="fill:#fff"/><path d="M217.39,231l-.24.09-.1-.15.16-.14Z" style="fill:none;stroke:#fff;stroke-miterlimit:10;stroke-width:0.03554583302493763px"/><path d="M220.25,230h.11c.26,0,.29,0,.34.27h0c-.07-.19-.26-.21-.41-.27h0" style="fill:#fff"/><path d="M220.25,230h.11c.26,0,.29,0,.34.27h0c-.07-.19-.26-.21-.41-.27Z" style="fill:none;stroke:#fff;stroke-miterlimit:10;stroke-width:0.03554583302493763px"/><path d="M194.28,247.14l.4.57-.05,0-.4-.56.05-.05" style="fill:#fff"/><path d="M194.28,247.14l.4.57-.05,0-.4-.56Z" style="fill:none;stroke:#fff;stroke-miterlimit:10;stroke-width:0.03554583302493763px"/><path d="M197.08,251.36l-.35-.47.05,0,.35.48,0,0" style="fill:#fff"/><path d="M197.08,251.36l-.35-.47.05,0,.35.48Z" style="fill:none;stroke:#fff;stroke-miterlimit:10;stroke-width:0.03554583302493763px"/><path d="M217.59,229.86c.14-.12.29-.07.44,0Z" style="fill:#fff"/><path d="M217.59,229.86c.14-.12.29-.07.44,0Z" style="fill:none;stroke:#fff;stroke-miterlimit:10;stroke-width:0.03554583302493763px"/><path d="M197.59,252l-.37-.41.06-.05.34.43,0,0" style="fill:#fff"/><path d="M197.59,252l-.37-.41.06-.05.34.43Z" style="fill:none;stroke:#fff;stroke-miterlimit:10;stroke-width:0.03554583302493763px"/><path d="M193.13,245.52l.32.43,0,0a.82.82,0,0,1-.28-.46h0" style="fill:#fff"/><path d="M193.13,245.52l.32.43,0,0a.82.82,0,0,1-.28-.46Z" style="fill:none;stroke:#fff;stroke-miterlimit:10;stroke-width:0.03554583302493763px"/><path d="M196.58,250.27l.26.3-.06.05-.26-.31.06,0" style="fill:#fff"/><path d="M196.58,250.27l.26.3-.06.05-.26-.31Z" style="fill:none;stroke:#fff;stroke-miterlimit:10;stroke-width:0.03554583302493763px"/><path d="M192.93,244.86l.22.29-.05,0-.23-.28.06,0" style="fill:#fff"/><path d="M192.93,244.86l.22.29-.05,0-.23-.28Z" style="fill:none;stroke:#fff;stroke-miterlimit:10;stroke-width:0.03554583302493763px"/><path d="M197.93,252l-.32-.31.07-.06.25.37h0" style="fill:#fff"/><path d="M197.93,252l-.32-.31.07-.06.25.37Z" style="fill:none;stroke:#fff;stroke-miterlimit:10;stroke-width:0.03554583302493763px"/><path d="M196.3,250.18l.17.3,0,0-.23-.26.08-.06" style="fill:#fff"/><path d="M196.3,250.18l.17.3,0,0-.23-.26Z" style="fill:none;stroke:#fff;stroke-miterlimit:10;stroke-width:0.03554583302493763px"/><path d="M187.89,236.54l-.14-.28.06,0,.15.28-.07,0" style="fill:#fff"/><path d="M187.89,236.54l-.14-.28.06,0,.15.28Z" style="fill:none;stroke:#fff;stroke-miterlimit:10;stroke-width:0.03554583302493763px"/><path d="M191.72,243.86l-.12-.28,0,0,.16.26-.08,0" style="fill:#fff"/><path d="M191.72,243.86l-.12-.28,0,0,.16.26Z" style="fill:none;stroke:#fff;stroke-miterlimit:10;stroke-width:0.03554583302493763px"/><path d="M196.15,249.76l.25.26-.08.06-.17-.33h0" style="fill:#fff"/><path d="M196.15,249.76l.25.26-.08.06-.17-.33Z" style="fill:none;stroke:#fff;stroke-miterlimit:10;stroke-width:0.03554583302493763px"/><path d="M206.43,237.81c0,.06,0,.12,0,.16-.1.27-.21.54-.33.8l-.25.6-.08,0,.66-1.53Z" style="fill:#fff"/><path d="M206.43,237.81c0,.06,0,.12,0,.16-.1.27-.21.54-.33.8l-.25.6-.08,0,.66-1.53Z" style="fill:none;stroke:#fff;stroke-miterlimit:10;stroke-width:0.03554583302493763px"/><path d="M205.24,240.6l.47-1.09,0,0a5.41,5.41,0,0,1-.46,1.11l-.06,0" style="fill:#fff"/><path d="M205.24,240.6l.47-1.09,0,0a5.41,5.41,0,0,1-.46,1.11Z" style="fill:none;stroke:#fff;stroke-miterlimit:10;stroke-width:0.03554583302493763px"/><path d="M202.23,246.84c-.07.17-.13.34-.21.51l-.31.63h0s0-.09,0-.13l.47-.93s.05,0,.07-.07h0" style="fill:#fff"/><path d="M202.23,246.84c-.07.17-.13.34-.21.51l-.31.63h0s0-.09,0-.13l.47-.93s.05,0,.07-.07Z" style="fill:none;stroke:#fff;stroke-miterlimit:10;stroke-width:0.03554583302493763px"/><path d="M206.64,237.2l.34-.92.06,0-.32.92-.08,0" style="fill:#fff"/><path d="M206.64,237.2l.34-.92.06,0-.32.92Z" style="fill:none;stroke:#fff;stroke-miterlimit:10;stroke-width:0.03554583302493763px"/><path d="M205.22,240.86l-.32.72-.08,0,.32-.72.08,0" style="fill:#fff"/><path d="M205.22,240.86l-.32.72-.08,0,.32-.72Z" style="fill:none;stroke:#fff;stroke-miterlimit:10;stroke-width:0.03554583302493763px"/><path d="M205,228.71l.44,0a0,0,0,0,1,0,0v0s0,0,0,0l-.45,0s0,0,0,0v0a0,0,0,0,1,0,0" style="fill:#fff"/><path d="M205,228.71l.44,0a0,0,0,0,1,0,0v0s0,0,0,0l-.45,0s0,0,0,0v0A0,0,0,0,1,205,228.71Z" style="fill:none;stroke:#fff;stroke-miterlimit:10;stroke-width:0.03554583302493763px"/><path d="M194.07,233.88l.18.4a.28.28,0,0,1-.18-.4" style="fill:#fff"/><path d="M194.07,233.88l.18.4A.28.28,0,0,1,194.07,233.88Z" style="fill:none;stroke:#fff;stroke-miterlimit:10;stroke-width:0.03554583302493763px"/><path d="M204.52,242.2l.24-.45.06,0-.23.47-.07-.05" style="fill:#fff"/><path d="M204.52,242.2l.24-.45.06,0-.23.47Z" style="fill:none;stroke:#fff;stroke-miterlimit:10;stroke-width:0.03554583302493763px"/><path d="M203.86,243.68l.21-.43.06,0-.2.43-.07,0" style="fill:#fff"/><path d="M203.86,243.68l.21-.43.06,0-.2.43Z" style="fill:none;stroke:#fff;stroke-miterlimit:10;stroke-width:0.03554583302493763px"/><path d="M206.43,237.81l.15-.48a.51.51,0,0,1-.15.48h0" style="fill:#fff"/><path d="M206.43,237.81l.15-.48a.51.51,0,0,1-.15.48Z" style="fill:none;stroke:#fff;stroke-miterlimit:10;stroke-width:0.03554583302493763px"/><path d="M204.44,242.63l-.18.36-.06,0,.16-.37.08,0" style="fill:#fff"/><path d="M204.44,242.63l-.18.36-.06,0,.16-.37Z" style="fill:none;stroke:#fff;stroke-miterlimit:10;stroke-width:0.03554583302493763px"/><path d="M202.24,247.07l.09.11.1.12s-.06,0-.07,0a.93.93,0,0,1-.14-.14s0-.06,0-.13" style="fill:#fff"/><path d="M202.24,247.07l.09.11.1.12s-.06,0-.07,0a.93.93,0,0,1-.14-.14S202.23,247.14,202.24,247.07Z" style="fill:none;stroke:#fff;stroke-miterlimit:10;stroke-width:0.03554583302493763px"/></g></g></g></g></g></g></g></svg>