<?xml version="1.0" encoding="utf-8"?>
<svg version="1.1" id="f6261eb3-a4d3-4517-b10d-168a1b6a1672"
	 xmlns="http://www.w3.org/2000/svg" xmlns:xlink="http://www.w3.org/1999/xlink" x="0px" y="0px" viewBox="0 0 18.5 30"
	 style="enable-background:new 0 0 18.5 30;" xml:space="preserve">
<style type="text/css">
	.st0{opacity:0.1;fill:#FFFFFF;enable-background:new    ;}
	.st1{opacity:0.25;fill:#FFFFFF;}
</style>
<title>arrow</title>
<polygon class="st0" points="0.8,15 9.8,29.2 17.3,29.2 4.6,9 "/>
<path class="st1" d="M18.4,29.4L5.1,8.3l4.7-7.5h7.5l-6.4,10c-0.1,0.2-0.1,0.4,0,0.6c0,0,0,0,0.1,0c0.2,0.1,0.4,0.1,0.5-0.1
	l6.9-10.7V0.2C18.3,0,18.2,0,18,0H9.6C9.4,0,9.3,0,9.2,0.2L0,14.7v0.2l0,0v0.2l9.2,14.7C9.3,29.9,9.4,30,9.6,30H18l0.4-0.2
	L18.4,29.4z M9.8,29.2L0.8,15l3.8-6l12.7,20.2H9.8z"/>
</svg>
