<svg id="cancel-icon" fill="white" data-name="Capa 1" xmlns="http://www.w3.org/2000/svg" viewBox="0 0 475.2 475.2"><title>cancel</title><path d="M405.6,69.6a237.59,237.59,0,1,0-336,336,237.59,237.59,0,1,0,336-336ZM386.5,386.5a210.52,210.52,0,0,1-297.8,0C6.6,304.4,6.6,170.8,88.7,88.7a210.52,210.52,0,0,1,297.8,0C468.6,170.8,468.6,304.4,386.5,386.5Z"/><path d="M338.3,136.89a12.94,12.94,0,0,0-18.37,0L237.6,219.22l-82.33-82.33a13,13,0,0,0-18.37,18.37l82.33,82.33L136.9,319.92A13,13,0,0,0,146,342.14a12.64,12.64,0,0,0,9.13-3.85L237.5,256l82.34,82.33a13.06,13.06,0,0,0,9.13,3.85,12.5,12.5,0,0,0,9.14-3.85,12.94,12.94,0,0,0,0-18.37L256,237.59l82.33-82.33A12.94,12.94,0,0,0,338.3,136.89Z"/></svg>