<svg xmlns="http://www.w3.org/2000/svg" viewBox="0 0 486.392 486.392" width="512" height="512"><path d="M455.992 60.799H30.399C13.619 60.799 0 74.418 0 91.198v303.995c0 16.781 13.619 30.399 30.399 30.399h425.593c16.781 0 30.399-13.619 30.399-30.399V91.198c.001-16.78-13.618-30.399-30.399-30.399zM30.399 177.685l116.673 79.312L30.399 373.701V177.685zm21.493 217.508l120.777-120.777 70.588 47.97 70.192-48.335L434.5 395.163l-382.608.03zm404.1-21.492l-117.16-117.16 117.16-80.589v197.749zm0-233.316l-.638-.912-212.158 146.13L30.399 140.962V91.198h425.593v49.187z" fill="#FFF"/></svg>
