<svg xmlns="http://www.w3.org/2000/svg" viewBox="0 0 485.632 485.632" width="512" height="512"><path d="M242.816 0c-94.117 0-170.42 76.303-170.42 170.419 0 7.205.578 14.227 1.459 21.188C88.417 324.727 231.75 478.153 231.75 478.153c2.554 2.858 5.016 4.621 7.387 5.897l.122.061 4.773 1.52 4.773-1.52.122-.061c2.371-1.277 4.834-3.131 7.387-5.897 0 0 141.266-153.7 155.493-286.849.851-6.87 1.429-13.832 1.429-20.915C413.205 76.303 336.933 0 242.816 0zm0 280.04c-60.434 0-109.62-49.186-109.62-109.62S182.382 60.8 242.816 60.8s109.59 49.186 109.59 109.62-49.156 109.62-109.59 109.62z" fill="#FFF"/></svg>
