<?xml version="1.0" encoding="UTF-8" standalone="no"?>
<!DOCTYPE svg PUBLIC "-//W3C//DTD SVG 1.1//EN"
"http://www.w3.org/Graphics/SVG/1.1/DTD/svg11.dtd">


<!-- Page 1 -->
<svg x="0" y="0" width="194" height="150" version="1.1" xmlns="http://www.w3.org/2000/svg" xmlns:xlink="http://www.w3.org/1999/xlink"
style="display: block;margin-left: auto;margin-right: auto;">
<defs>
<clipPath id="c0_1"><path d="M84.5,150.5l0,-50l29,0l0,50Z" /></clipPath>
<clipPath id="c1_1"><path d="M0.5,150.5l0,-150l194,0l0,150Z" /></clipPath>

<style type="text/css"><![CDATA[

.g2_1{
fill: none;
stroke: #ffffff;
stroke-width: 2;
stroke-linecap: round;
stroke-linejoin: miter;
}
.g1_1{
fill: #ffffff;
}

.s1_1{
font-size: 18.41px;
font-family: Lato-Regular_n1;
fill: TRANSPARENT;
}
.s2_1{
font-size: 18.41px;
font-family: Lato-Regular_81;
fill: TRANSPARENT;
}

]]></style>

</defs>
<path d="M0,0
L0,150
L194,150
L194,0 Z " 
fill="none" stroke="none" />
<use 
xlink:href ="#C2_0_50" 
 transform="matrix(0.0120486 , 0, 0 , -0.0120486, 22.1 , 133.2)"
fill="#ffffff" 
stroke="none" 
 />
<use 
xlink:href ="#C2_0_118" 
 transform="matrix(0.0120486 , 0, 0 , -0.0120486, 30.9 , 133.2)"
fill="#ffffff" 
stroke="none" 
 />
<use 
xlink:href ="#C2_0_60" 
 transform="matrix(0.0120486 , 0, 0 , -0.0120486, 37.2 , 133.2)"
fill="#ffffff" 
stroke="none" 
 />
<use 
xlink:href ="#C2_0_46" 
 transform="matrix(0.0120486 , 0, 0 , -0.0120486, 46.9 , 133.2)"
fill="#ffffff" 
stroke="none" 
 />
<use 
xlink:href ="#C2_0_2463" 
 transform="matrix(0.0120486 , 0, 0 , -0.0120486, 55.9 , 133.2)"
fill="#ffffff" 
stroke="none" 
 />
<use 
xlink:href ="#C2_0_137" 
 transform="matrix(0.0120486 , 0, 0 , -0.0120486, 67.3 , 133.2)"
fill="#ffffff" 
stroke="none" 
 />
<use 
xlink:href ="#C2_0_60" 
 transform="matrix(0.0120486 , 0, 0 , -0.0120486, 76.5 , 133.2)"
fill="#ffffff" 
stroke="none" 
 />
<use 
xlink:href ="#TT0_115" 
 transform="matrix(0.0120486 , 0, 0 , -0.0120486, 110.8 , 133.1)"
fill="#ffffff" 
stroke="none" 
 />
<text 
x="22" 
y="133" 
dx="0,0,-0.4,0,-0.1,0,0,-0.3" 
class="s1_1"
>creative</text>

<use 
xlink:href ="#TT0_60" 
 transform="matrix(0.0120486 , 0, 0 , -0.0120486, 121.1 , 133.1)"
fill="#ffffff" 
stroke="none" 
 />
<use 
xlink:href ="#TT0_118" 
 transform="matrix(0.0120486 , 0, 0 , -0.0120486, 130.8 , 133.1)"
fill="#ffffff" 
stroke="none" 
 />
<use 
xlink:href ="#TT0_99" 
 transform="matrix(0.0120486 , 0, 0 , -0.0120486, 137.5 , 133.1)"
fill="#ffffff" 
stroke="none" 
 />
<use 
xlink:href ="#TT0_60" 
 transform="matrix(0.0120486 , 0, 0 , -0.0120486, 141.9 , 133.1)"
fill="#ffffff" 
stroke="none" 
 />
<use 
xlink:href ="#TT0_110" 
 transform="matrix(0.0120486 , 0, 0 , -0.0120486, 151.6 , 133.1)"
fill="#ffffff" 
stroke="none" 
 />
<use 
xlink:href ="#TT0_50" 
 transform="matrix(0.0120486 , 0, 0 , -0.0120486, 161.9 , 133.1)"
fill="#ffffff" 
stroke="none" 
 />
<use 
xlink:href ="#TT0_60" 
 transform="matrix(0.0120486 , 0, 0 , -0.0120486, 170.5 , 133.1)"
fill="#ffffff" 
stroke="none" 
 />
<text 
x="110" 
y="133" 
dx="0,0,0,0,0,0,0,-0.2" 
class="s2_1"
>perience</text>

<g clip-path="url(#c0_1)">
<path d="M92.8,138.6c-0.1,0,-0.1,0,0,0.1c0,0,0,-0.1,0,-0.1m2.4,-1.3c0.1,-0.1,0.1,-0.1,0.1,-0.2c0,0,-0.1,0.1,-0.1,0.2m0.6,-11.9l-0.1,0c0.1,0,0.1,0.1,0.1,0.2l0.1,0c-0.1,-0.1,-0.1,-0.2,-0.1,-0.2m-0.9,-8.5c0,0,0.1,0,0.1,0c-0.1,0,-0.1,0,-0.2,-0.1l0,0.1c0,0,0.1,0,0.1,0m9.3,21.3l0,-0.1c0,0,-0.1,-0.1,-0.2,-0.1c0.1,0,0.1,0.1,0.2,0.2m-8.1,-11c0,0,0,0.1,0,0.1c0,0,0,0.1,0.1,0.1c0,0,0,-0.1,-0.1,-0.2m5.6,8.4c-0.1,0,-0.1,-0.1,-0.2,-0.2c0,0,0,0.1,0,0.1c0.1,0,0.1,0.1,0.2,0.1m-9.4,7c0,-0.1,0,-0.1,0,-0.1c-0.1,0.1,-0.1,0.2,-0.1,0.2c0,0,0.1,-0.1,0.1,-0.1m1.2,-16.7l-0.1,-0.3c0,0.1,0.1,0.2,0.1,0.3m2,-8.7c0,-0.1,0,-0.1,0,-0.1l-0.2,0c0.1,0,0.1,0.1,0.2,0.1m-4.6,24.7c0,0.1,-0.1,0.2,-0.1,0.2c0,0,0.1,-0.1,0.1,-0.2m5.9,-5.2c-0.1,0.1,-0.1,0.2,-0.2,0.3c0,0,0.1,0,0.1,0ZM94.1,137c-0.2,0,-0.2,0,-0.2,0.1c0.1,0,0.1,-0.1,0.2,-0.1m-1.7,3.7c0,-0.1,0,-0.1,0.1,-0.2c-0.1,0,-0.1,0,-0.1,0c0,0,0,0.1,-0.1,0.1c0,0,0.1,0.1,0.1,0.1M90.9,121.4c0,-0.1,-0.1,-0.2,-0.1,-0.3c0,0,-0.1,0,-0.1,0c0.1,0.1,0.1,0.2,0.2,0.3m1.8,3.1c0,0,-0.1,0,-0.1,0c0.1,0.1,0.1,0.2,0.2,0.2c0,-0.1,-0.1,-0.1,-0.1,-0.2M93.5,139c0.1,-0.1,0.2,-0.2,0.2,-0.3c-0.1,0.1,-0.1,0.2,-0.2,0.3M89.3,118.9c0,0,0.1,0,0.1,0c-0.1,-0.1,-0.1,-0.2,-0.2,-0.3c0.1,0.1,0.1,0.2,0.1,0.3m1.2,23.6l0,0c0,-0.1,0.1,-0.2,0.1,-0.2c0,0,0,-0.1,0,-0.1ZM88.1,146c0,0,-0.1,-0.1,-0.1,-0.1c0,0.1,-0.1,0.2,-0.1,0.3ZM98.4,134.8c-0.2,0.1,-0.2,0.1,-0.2,0.2c0.1,0,0.1,-0.1,0.1,-0.1c0,0,0,-0.1,0.1,-0.1m-5.9,5.7c0.1,-0.1,0.1,-0.2,0.1,-0.2c-0.1,0,-0.1,0.1,-0.1,0.2m2.4,-4.2c0,-0.1,0.1,-0.1,0.1,-0.2c-0.1,0,-0.1,0.1,-0.1,0.2M93.7,126l0,-0.1c0,0,-0.1,-0.1,-0.1,-0.2l-0.1,0c0.1,0.1,0.2,0.2,0.2,0.3m9.7,11.3c0,0.1,0,0.1,0,0.1c0.1,0,0.1,0.1,0.2,0.2l-0.2,-0.3M91.9,123.2c0,0.1,0.1,0.2,0.2,0.3C92,123.4,92,123.3,91.9,123.2m0.6,15.1c0.1,-0.1,0.1,-0.1,0.2,-0.2c-0.1,0,-0.1,0.1,-0.2,0.2m5.1,-2.9l0,-0.1c-0.1,0.2,-0.1,0.3,-0.2,0.4c0.1,-0.1,0.1,-0.2,0.2,-0.3M91.3,122.2c0,-0.1,-0.1,-0.2,-0.1,-0.3c0,0.1,0.1,0.2,0.1,0.3m2.2,18.2c0.1,0,0.1,0,0.1,0c0,-0.1,0.1,-0.2,0.2,-0.3l-0.1,0c0,0.1,-0.1,0.2,-0.2,0.3m1.9,-15.6c0.1,0.1,0.1,0.2,0.2,0.3c0,-0.1,-0.1,-0.2,-0.2,-0.3m-3.5,-1.9c-0.1,-0.1,-0.1,-0.2,-0.2,-0.3c0,0.1,0.1,0.2,0.2,0.3m8.9,7.8l-0.1,0l-0.1,0.3c0.1,-0.1,0.1,-0.2,0.2,-0.3m7.7,-13.6l0,0l0.3,0c-0.2,0,-0.1,0,-0.3,0M94.9,134.5l-0.1,0c0,0.1,-0.1,0.2,-0.1,0.3c0.1,-0.1,0.1,-0.2,0.2,-0.3m-2.1,-10c0,-0.1,-0.1,-0.2,-0.2,-0.3c0.1,0.1,0.1,0.2,0.2,0.3m2.1,-0.8L95,124c0.1,0,0.1,0,0.1,0C95,123.9,95,123.8,94.9,123.7m-0.4,-0.9c0,-0.1,-0.1,-0.2,-0.1,-0.3c0,0,-0.1,0,-0.1,0c0.1,0.1,0.1,0.2,0.2,0.3m15.3,20.1l0.1,0c-0.1,-0.1,-0.1,-0.1,-0.2,-0.1c0,-0.1,0,0,0,0c0,0.1,0.1,0.1,0.1,0.1m-18.4,0.2c-0.1,0.1,-0.1,0.2,-0.2,0.3c0.1,-0.1,0.1,-0.2,0.2,-0.3m3,-4.2c0.1,-0.1,0.1,-0.2,0.2,-0.3l-0.1,0c0,0.1,-0.1,0.2,-0.1,0.3m15.6,-22c-0.1,0,-0.2,-0.1,-0.3,0c0.1,0,0.2,0,0.3,0M91.2,141c-0.1,0.1,-0.1,0.2,-0.2,0.3c0.1,-0.1,0.2,-0.2,0.2,-0.3m2.9,-4.5c0.1,0,0.1,0,0.1,0c0,0,0,-0.1,0.1,-0.1c0,-0.1,0,-0.1,-0.1,-0.1c0,0,0,0.1,-0.1,0.2m0.2,-0.1c0,0.1,0,0.1,0,0.1c0,0,0.1,0,0.1,0c0,-0.1,0.1,-0.2,0.1,-0.2c-0.1,0,-0.1,0.1,-0.2,0.1m8.2,-8.5c-0.2,0.1,-0.2,0.1,-0.2,0.2c0.1,-0.1,0.1,-0.1,0.2,-0.2M108.1,117l0,0.1c0.1,0,0.2,0,0.2,0c0,0,0,-0.1,0,-0.1c-0.1,0,-0.1,0,-0.2,0m-13,-0.1c0,0.1,0.1,0.1,0.1,0.1c0,0,0.1,0,0.1,-0.1c-0.1,0,-0.1,0,-0.2,0M96.4,132l0,-0.1l-0.2,0.4c0.1,-0.1,0.2,-0.2,0.2,-0.3m-2.6,6.5c0,0,-0.1,0,-0.1,0.1l0,0.1c0.1,-0.1,0.1,-0.1,0.1,-0.2m1.8,-3.1c0.1,0,0.1,0,0.1,0c0.1,-0.1,0.1,-0.3,0.2,-0.5Zm-3.8,5c0.1,-0.1,0.1,-0.1,0.2,-0.2c-0.1,0,-0.2,0.1,-0.2,0.2m-0.4,0.8c0,0,0,-0.1,0,-0.1c0,0.1,0,0.1,0,0.1c-0.1,0,-0.1,0,-0.1,0c0,0,0,0.1,0,0.1c0,0,0,0.1,0,0.1c0.1,-0.1,0.1,-0.2,0.1,-0.2m2.1,-15.5c0,0,0,-0.1,0,-0.1c0,-0.1,-0.1,-0.2,-0.2,-0.3c0.1,0.1,0.1,0.2,0.2,0.4m15.9,-8.6c0.2,0,0.4,0,0.5,0Zm-17.6,23c0,0,0.1,0,0.1,0c0,-0.1,0,-0.1,0.1,-0.2c-0.1,0,-0.1,0,-0.2,0c0,0.1,0,0.1,0,0.2m10,-4c0.1,0,0.3,0.2,0.3,0.2c0,0,0,0.1,0,0.1c-0.1,-0.1,-0.2,-0.2,-0.3,-0.3m-2.9,-8.6c0.1,0,0.1,0,0.1,0c0,-0.2,0.1,-0.3,0.2,-0.4l-0.1,0Zm-4.2,0.1L95,128c-0.1,-0.1,-0.2,-0.3,-0.3,-0.4m0.9,0.8c-0.1,-0.1,-0.2,-0.3,-0.3,-0.4c0.1,0.1,0.2,0.3,0.3,0.4m-0.3,7.5l0,0.1c0.1,-0.2,0.1,-0.3,0.2,-0.5c-0.1,0.2,-0.2,0.3,-0.2,0.4m-1.6,0.9c0.1,0,0.2,-0.1,0.1,-0.2c0,0.1,-0.1,0.1,-0.1,0.2m0.5,1.2c0.1,-0.1,0.2,-0.2,0.1,-0.3c0,0,-0.1,0.2,-0.1,0.3m16.9,5.2c-0.2,-0.1,-0.3,-0.2,-0.4,-0.3c0,0,-0.1,0,-0.1,0c0.2,0.1,0.3,0.2,0.5,0.3m-23.7,3.7c0.1,-0.2,0.2,-0.4,0.3,-0.5c-0.1,0.1,-0.2,0.3,-0.3,0.5m4.8,-23.2l0.3,0.5Zm4.2,11.8c0.2,-0.1,0.2,-0.2,0.2,-0.3c-0.1,0.1,-0.1,0.2,-0.2,0.3m-2.9,1.1c0.1,-0.1,0.1,-0.2,0.1,-0.3c0,0,-0.1,0.1,-0.1,0.1c0,0,0,0.1,0,0.1c0,0,0,0.1,0,0.1M90.6,142c0.1,0,0.1,-0.1,0.1,-0.1c0,-0.1,0,-0.1,0,-0.1c0,0,-0.1,0,-0.1,0c0,0.1,0,0.1,-0.1,0.2c0.1,-0.1,0.1,-0.1,0.1,-0.1c0,0,0,0.1,0,0.1M94,136.5c-0.1,0.1,-0.1,0.2,-0.1,0.3c0.2,0,0.1,-0.2,0.1,-0.3M93,124.8c0,0.1,0.1,0.3,0.2,0.4c0,-0.2,-0.1,-0.3,-0.2,-0.4m4.5,11.4c0,0,0.1,0,0.1,0c0,-0.1,0.1,-0.3,0.2,-0.4c-0.1,0.1,-0.2,0.2,-0.3,0.4m-2,-0.8c0,-0.1,-0.1,-0.1,-0.1,-0.1c0,0.2,-0.1,0.3,-0.2,0.4c0,0,0,0.1,0,0.1c0.1,-0.1,0.2,-0.3,0.3,-0.4m0.9,-8.8l0,-0.1c-0.1,-0.1,-0.2,-0.3,-0.3,-0.4c0.1,0.1,0.2,0.3,0.3,0.5m-5,-4.5l-0.3,-0.6c0.1,0.2,0.2,0.4,0.3,0.6m-3,23.3c0,0,-0.2,0.2,-0.2,0.3c0.1,-0.1,0.2,-0.1,0.2,-0.3m7,-28.4c0.1,0.1,0.3,0.1,0.4,0.1c-0.1,0,-0.1,0,-0.2,-0.1c0,-0.1,-0.1,0,-0.2,0m-8.6,30.7c0.2,-0.2,0.3,-0.4,0.5,-0.6c-0.1,0,-0.1,0,-0.1,0c-0.1,0.2,-0.3,0.4,-0.4,0.6M98.3,128.6c0.2,-0.1,0.2,-0.3,0.2,-0.4c-0.1,0.1,-0.1,0.3,-0.2,0.4M93.9,137c0,0,-0.1,0,-0.1,0c0,0,-0.1,0.1,-0.2,0.1c0,0.1,0,0.2,0,0.3c0.1,-0.2,0.2,-0.3,0.3,-0.4m-4.2,6.3c-0.1,0.1,-0.2,0.2,-0.2,0.3c0.1,-0.1,0.2,-0.1,0.2,-0.3m4.6,-4.2c-0.1,0.2,-0.2,0.4,-0.3,0.6c0.1,-0.2,0.3,-0.5,0.3,-0.6m11.5,0.5c-0.2,-0.2,-0.4,-0.4,-0.6,-0.6l0,0.1c0.2,0.1,0.4,0.3,0.6,0.5m-12.2,2c-0.2,0.2,-0.2,0.2,-0.2,0.4c0.1,-0.1,0.1,-0.2,0.2,-0.3l-0.1,0l0,0.1c0,-0.1,0,-0.2,0.1,-0.2m5.3,-14c-0.1,0.2,-0.2,0.4,-0.3,0.6c0.1,-0.1,0.3,-0.5,0.3,-0.6m-8,-6.5c-0.2,-0.3,-0.3,-0.5,-0.4,-0.8c0.1,0.3,0.2,0.5,0.4,0.8m6.2,-3.9c0,-0.1,0,-0.1,0,-0.1l-0.2,0c0.2,0.1,0.2,0.1,0.2,0.2c0,-0.1,0,-0.1,0,-0.1Zm-0.6,19.1c0,0.1,-0.1,0.3,-0.2,0.4l0.1,0.1c0,-0.1,0,-0.2,0.1,-0.2c0,-0.1,0,-0.3,0.1,-0.3c0.1,0,0.1,0,0.1,-0.1c-0.1,0.1,-0.1,0.1,-0.2,0.1m-5,4.2l0.1,0c0,0,0,-0.1,0.1,-0.1c0,-0.1,0,-0.1,-0.1,-0.2c0,0.1,-0.1,0.2,-0.1,0.3m17.7,0.6c0.2,0.2,0.4,0.3,0.6,0.5c0,-0.1,0,-0.1,0,-0.1c-0.2,-0.1,-0.4,-0.3,-0.6,-0.4m-12,-7.6c-0.1,0.1,-0.1,0.2,-0.2,0.3c0,0,0,0.1,-0.1,0.2c0,0,-0.1,0.1,0,0.2c0.1,-0.1,0.3,-0.6,0.3,-0.7M108.7,117c0.1,0,0.2,0,0.4,0c0,0,0.1,0,0.1,-0.1c-0.2,0.1,-0.4,0,-0.5,0.1m-6.1,19.6c0.2,0.2,0.4,0.4,0.7,0.7c-0.3,-0.3,-0.5,-0.5,-0.7,-0.7m-8.8,1.8c0.1,-0.2,0.2,-0.4,0.3,-0.5c0,0,0,-0.1,0,-0.1c-0.1,0.2,-0.2,0.4,-0.3,0.6m-3.9,5.1c0.1,-0.1,0.1,-0.2,0.2,-0.3c-0.1,0,-0.1,0.1,-0.1,0.1l-0.1,0c-0.1,0,-0.2,0.2,-0.1,0.3c0,0,0,-0.2,0.1,-0.1m1.2,-0.8c-0.1,0,0,0.1,0,0.1c0,0.1,0,0.1,0,0.2c-0.1,0.1,-0.2,0.2,-0.3,0.4c0,0,-0.1,0.1,-0.1,0.1c0.2,-0.2,0.4,-0.5,0.5,-0.7c-0.1,0,-0.1,0,-0.1,-0.1m3.4,-15.6c-0.1,-0.2,-0.2,-0.3,-0.2,-0.4c-0.2,-0.2,-0.3,-0.4,-0.4,-0.5c0,-0.1,0,-0.1,-0.1,-0.1c0.2,0.3,0.4,0.7,0.7,1m0.3,10c0.1,0,0.1,-0.1,0.1,-0.1l0,-0.1c0.1,0,0.1,0,0.1,-0.1c-0.2,0,-0.2,0.2,-0.2,0.2c-0.1,0,-0.1,0,-0.1,0c0.1,0.2,-0.1,0.3,-0.1,0.5c0,-0.1,0.1,-0.1,0.1,-0.2c0,0,0.1,-0.1,0.1,-0.2m-0.4,0c0,0,0.1,0,0.1,0c0.2,-0.2,0.3,-0.5,0.4,-0.8c-0.1,0.3,-0.3,0.5,-0.5,0.8M93.9,116.7l0,0c0.3,0.1,0.5,0.2,0.8,0.2c0,0,0,-0.1,0,-0.1c-0.1,0,-0.2,0,-0.2,0c-0.1,0,-0.1,0,-0.2,0l0,-0.1c0.1,0.1,0.1,0.1,0.1,0.1c0,0,0,-0.1,0,-0.1c-0.1,0,-0.2,0,-0.2,0c-0.1,0,-0.1,0,-0.1,0c0,0.1,-0.1,0,-0.1,0c0,0,-0.1,0,-0.1,0m-3.7,26.2c-0.1,0,-0.1,0,-0.1,-0.1c0.1,-0.1,0.1,-0.1,0.1,-0.2c-0.1,0.2,-0.2,0.3,-0.3,0.5c0,0,0.1,-0.1,0.1,-0.1c0,-0.1,0,-0.1,0.1,0c-0.2,0.1,0,0.1,0,0.2c0.1,-0.1,0,-0.2,0.1,-0.3M96,117.1c0.1,0.1,0.3,0.1,0.4,0.1c0,-0.1,0,-0.1,0,-0.1c0.1,0,0.2,0,0.1,0.1c0.1,0,0.2,-0.1,0.3,-0.1c-0.3,0,-0.6,-0.1,-0.9,-0.1c0,0,-0.1,0,0,0c0,0.1,0.1,0.1,0.1,0.1m-1.2,10.3c0,0,0,0.1,0,0.1c0.3,0.4,0.6,0.9,1,1.4c0,-0.1,0,-0.2,-0.1,-0.2c-0.1,-0.2,-0.2,-0.3,-0.4,-0.5c0,-0.1,-0.1,-0.2,-0.2,-0.3C95,127.8,95,127.7,94.9,127.6c0,-0.1,-0.1,-0.1,-0.1,-0.2m5.6,-3c-0.3,0.5,-0.5,1.1,-0.8,1.7c0.3,-0.6,0.6,-1.1,0.8,-1.7M97,130.5c0.1,0,0.1,-0.1,0.1,-0.1c-0.4,-0.5,-0.8,-1,-1.2,-1.5c0,0.1,0,0.1,0,0.1c0,0.1,0.1,0.1,0.1,0.2c0.2,0.2,0.3,0.3,0.4,0.5c0.2,0.2,0.4,0.4,0.6,0.7l0,0.1m-8,-13c0,-0.1,-0.6,-1.9,-0.8,-1.9c0.3,0.6,0.5,1.3,0.8,1.9m12.9,-0.4c-0.1,0,-0.1,0,-0.1,0c-0.1,0,-0.2,0,-0.2,0c-0.1,0,-0.2,0,-0.3,0c0,0,-0.1,0,-0.1,0c-0.1,-0.1,-0.2,-0.1,-0.3,0l0.1,0c0,0.1,0,0.1,0,0.1c-0.1,0,-0.2,-0.1,-0.2,-0.1c0,0,-0.1,0,-0.1,0c-0.2,0,-0.3,0,-0.5,0.1c-0.1,0,-0.2,0,-0.3,0c0.1,0,0.2,0,0.3,0.1c0,0,0,0.1,0,0.1c-0.1,0,-0.1,0,-0.1,0c0,0.1,0,0.1,0,0.1c0,0,-0.1,0,-0.1,0c-0.1,0,-0.2,-0.1,-0.3,-0.1c-0.3,0,-0.6,-0.1,-0.9,-0.1c-0.2,0,-0.5,0,-0.7,0c-0.2,0,-0.4,0,-0.5,0c-0.1,0,-0.2,0,-0.3,0l0,0.1c0.1,0,0,0,0,0c-1.3,0,-2.5,-0.2,-3.7,-0.6l0,0.1c-0.1,-0.1,-0.1,-0.1,-0.1,-0.1c-0.1,-0.1,-0.2,-0.1,-0.3,-0.1c0.1,0.2,0.1,0.4,0.2,0.6c0,0.1,0,0.2,0,0.2c0,0.1,0,0.1,0,0.2c0,0,0,-0.1,0,-0.1c0.1,0,0.1,0,0.1,0c0,0.1,0,0.2,0,0.3c0,0.1,0,0.1,0,0.1c0,0.1,0,0.1,0,0.2c0,0,0.1,0.1,0.1,0.1c0,-0.1,0,-0.2,0,-0.2l0,-0.1c0.1,0.4,0.1,0.7,0.2,1l-0.1,0c0,0.1,0,0.2,0.1,0.3c0,0.2,0.1,0.4,0.1,0.6c0.1,0.2,0.2,0.5,0.3,0.8c0.1,0.1,0.2,0.3,0.2,0.5c0.2,0.3,0.3,0.6,0.4,0.8c0.1,0.3,0.3,0.6,0.4,0.9c0.1,0.3,0.3,0.6,0.4,0.8c0.2,0.4,0.3,0.7,0.5,1c0.1,0.2,0.1,0.3,0.2,0.5c0.2,0.3,0.3,0.6,0.5,0.9c0.2,0.3,0.3,0.5,0.5,0.8c0.2,0.4,0.4,0.7,0.6,1.1c0.1,0.2,0.2,0.3,0.4,0.5c0,-0.1,0.1,-0.3,0.2,-0.4c0.1,-0.2,0.1,-0.3,0.3,-0.5c0,0,0.1,-0.1,0.1,-0.2c0,-0.1,0,-0.1,0.1,-0.2c-0.1,0.1,-0.1,0.1,-0.1,0.1c0,-0.1,0,-0.2,0.2,-0.3c0,0,0,-0.1,0,-0.1c0,-0.1,0,-0.2,0.1,-0.2c0,-0.1,0.1,-0.4,0.2,-0.4c0,0,0,-0.1,0,-0.2c0.1,0,0.1,-0.1,0.2,-0.2c0,-0.1,0,-0.3,0.2,-0.4c0,0,0,-0.1,0,-0.1c0,-0.1,0,-0.2,0.1,-0.2c0.2,-0.5,0.4,-1,0.6,-1.4c0.2,-0.6,0.4,-1.1,0.6,-1.6c0.1,-0.2,0.2,-0.5,0.3,-0.7c0,-0.1,0,-0.1,0,-0.1c-0.1,0,-0.1,0,-0.1,0.1c-0.1,0,-0.1,0,-0.1,0.1c0,0.1,0,0.2,-0.1,0.2c-0.1,0.3,-0.2,0.6,-0.3,0.8c-0.1,0.4,-0.3,0.8,-0.5,1.1c-0.1,0.3,-0.2,0.5,-0.3,0.7c0,0.1,-0.1,0.2,-0.1,0.4c-0.1,0.3,-0.3,0.5,-0.4,0.8c-0.1,0.3,-0.2,0.5,-0.3,0.7c-0.2,0.3,-0.3,0.6,-0.5,1c0,0,0,-0.1,0,-0.1c0.1,-0.2,0.2,-0.5,0.3,-0.7c0.1,-0.2,0.2,-0.4,0.3,-0.6c0.1,-0.2,0.1,-0.3,0.2,-0.5c0.1,-0.2,0.2,-0.5,0.4,-0.8c0.1,-0.2,0.2,-0.5,0.3,-0.7c0.1,-0.3,0.2,-0.6,0.4,-0.9c0.1,-0.3,0.2,-0.6,0.3,-0.8c0,-0.2,0.1,-0.3,0.2,-0.5c0.1,-0.3,0.2,-0.6,0.3,-0.8c0.1,-0.5,0.2,-0.9,0.3,-1.3c0.2,-0.4,0.2,-0.8,0.3,-1.2c0.1,-0.4,0.1,-0.8,0.2,-1.2c0,-0.1,0,-0.2,-0.2,-0.2c0.1,0.1,0.1,0.1,0.1,0.2l0,0.1L102,117.2l-0.1,0c0,-0.1,0,-0.1,0,-0.1c0.1,0,0.1,0,0.1,0c0,0,-0.1,-0.1,-0.1,-0.1l-0.1,0.1c0,0,0.1,0,0.1,0M89,144.7c0,0,-0.1,-0.1,-0.1,-0.1c0.1,0,0.1,-0.1,0.1,-0.1l-0.1,-0.1c0,0.1,-0.1,0.2,-0.1,0.3c0,0,0.1,0,0.2,0c0,0.1,0,0.1,-0.1,0.2C89,144.8,89,144.8,89,144.8c0,0,0,0.1,0,0.1c0.3,-0.4,0.6,-0.9,0.9,-1.3l-0.1,0c0,0,-0.1,0.1,-0.1,0.2l0,-0.1c-0.1,0,-0.1,0.1,-0.2,0.1c0,0.1,0,0.1,0,0.2l-0.1,0c0,0.1,-0.1,0.2,-0.1,0.2c0,0.1,0,0.1,-0.1,0.2c-0.1,0,-0.1,0.1,-0.2,0.3m3,-21.5c0.1,0,0,-0.1,-0.1,-0.2c0,0.1,0.1,0.2,0.1,0.2c0,0.1,0.1,0.1,0.1,0.1c0.1,0.2,0.2,0.4,0.3,0.5c0,0.2,0.1,0.3,0.2,0.4c0,0,0,-0.1,0,-0.1c-0.2,-0.2,-0.2,-0.4,-0.3,-0.5c-0.1,-0.1,-0.1,-0.2,-0.2,-0.3c0,0,0,-0.1,-0.1,-0.1m3.3,13.2c-0.1,0,-0.1,-0.1,-0.1,-0.2c-0.1,0.2,-0.2,0.3,-0.2,0.5c0,-0.1,0.1,-0.2,0.2,-0.2c0,0,-0.1,0.1,-0.1,0.2c0.1,-0.1,0.1,-0.2,0.2,-0.3c0.1,-0.2,0.2,-0.3,0.2,-0.5c-0.1,0,-0.1,0,-0.2,0.1c0.1,0,0.1,0,0.1,0l0,0.1l0,0.1c-0.1,0,-0.1,0.1,-0.1,0.2M88.5,116.6c0,0.1,0.1,0.2,0.1,0.3l0.1,0c-0.1,-0.1,-0.1,-0.3,-0.2,-0.3c-0.1,-0.3,-0.1,-0.5,-0.3,-0.7c0.1,0.1,0.1,0.2,0.2,0.4c0,0.1,0.1,0.2,0.1,0.3M97.3,135c0,0.1,-0.1,0.1,-0.1,0.2c-0.1,0.1,-0.1,0.2,-0.2,0.2l0.1,0c0,0,-0.1,0.1,-0.1,0.1c0,0.1,-0.1,0.1,-0.1,0.2c0,0,-0.1,0.1,-0.1,0.1c0,0.2,-0.2,0.3,-0.2,0.4c0.1,0,0.1,-0.1,0.2,-0.2c0,-0.1,0.1,-0.2,0.1,-0.2c0,-0.1,0.1,-0.2,0.1,-0.3c0,0,0.1,0,0.1,0c0,-0.1,0.1,-0.2,0.1,-0.3c0.1,-0.1,0.1,-0.2,0.1,-0.2c0.1,-0.1,0.2,-0.2,0.2,-0.3c-0.1,0.1,-0.1,0.2,-0.2,0.3M86.7,147.9c0,0.1,0,0.1,0,0.2c0.1,-0.1,0.1,-0.2,0.2,-0.2c-0.1,0,-0.1,0,-0.2,0c0,0,0.1,0,0.1,-0.1c-0.2,0.2,-0.3,0.3,-0.2,0.5c0,0,0,-0.1,0,-0.2c0,-0.1,0.1,-0.1,0.1,-0.2m2.5,-3.8c0,0,0.1,0,0.1,0c0,-0.1,0.1,-0.1,0.1,-0.2c0,-0.1,0.1,-0.1,0.1,-0.2c-0.1,0.1,-0.2,0.2,-0.3,0.4c0,0.1,-0.1,0.2,-0.2,0.3c0.1,0,0.2,-0.2,0.2,-0.3m9.4,-10.3c0,-0.1,0.1,-0.1,0.1,-0.2c0,-0.1,0.1,-0.2,0.1,-0.3c-0.1,0.2,-0.1,0.3,-0.2,0.5c-0.1,0,-0.1,0.1,-0.2,0.2c0,0,0.1,0,0.1,0c0,-0.1,0,-0.1,0.1,-0.2M88.5,145.2c-0.1,0,-0.1,0.1,-0.2,0.2c0,0,-0.1,0.1,-0.2,0.2c0.1,0,0.1,0.1,0.1,0.1c0.1,-0.2,0.2,-0.4,0.3,-0.5c0,-0.1,0.1,-0.2,0.2,-0.3c-0.1,0,-0.1,0,-0.1,0c0,0.1,-0.1,0.2,-0.1,0.3m6.4,-17.8c0,-0.1,-0.1,-0.2,-0.2,-0.2c0.1,0.1,0.1,0.1,0.2,0.2c0.1,0.1,0.1,0.3,0.3,0.4l0,-0.1c-0.1,-0.1,-0.2,-0.2,-0.3,-0.3m-5.4,-8.1c0,-0.1,0,-0.2,-0.1,-0.3c0,0.1,0.1,0.2,0.1,0.3c0.1,0.1,0.1,0.2,0.2,0.4c0,0,0,-0.1,0,-0.1c-0.1,-0.1,-0.1,-0.2,-0.2,-0.3m-0.7,-2c0,0.1,0.1,0.2,0.1,0.3l0,0.1c0.1,0.1,0.1,0.3,0.2,0.4l0,0.1l0.1,-0.1C89.1,118,89.1,117.9,89,117.8c0,-0.1,-0.1,-0.1,-0.1,-0.2c0,-0.1,-0.1,-0.2,-0.1,-0.3c0,-0.1,-0.1,-0.2,-0.1,-0.3c0,0.1,0.1,0.2,0.1,0.3m5.7,17.5l0,-0.1l0.1,0c0,0,0.1,-0.1,0.1,-0.1c0,-0.1,0,-0.1,0,-0.2c0.1,-0.1,0.1,-0.2,0.2,-0.3c0,0,0.1,-0.1,0.1,-0.1c-0.1,0.1,-0.1,0.2,-0.2,0.3c0.1,0,0.3,-0.4,0.3,-0.5c0,0.1,-0.1,0.2,-0.1,0.2c0.1,-0.1,0.1,-0.2,0.2,-0.3l0,0.1c0.1,-0.2,0.2,-0.3,0.3,-0.4c-0.1,0,0,0,-0.1,0c0,0,-0.1,0.1,-0.1,0.2c0,0,-0.1,0,-0.1,0c0.1,-0.1,0.1,-0.1,0.1,-0.2c0.2,-0.2,0.3,-0.4,0.4,-0.6c0.2,-0.2,0.4,-0.5,0.5,-0.7c0.1,0,0.1,-0.1,0.1,-0.2c0.1,0,0.1,-0.1,0.1,-0.1c0.1,-0.1,0.1,-0.1,0.1,-0.1c0,-0.1,0,-0.1,0.1,-0.2c0,0,0.1,-0.1,0.1,-0.2c0,0,0.1,-0.1,0.1,-0.1c0.1,-0.1,0.1,-0.2,0.1,-0.3c-0.1,0.1,-0.1,0.2,-0.2,0.2c0,0,0,-0.1,0.1,-0.2c0,0,0,-0.1,0.1,-0.1c0.1,-0.1,0.1,-0.1,0,-0.3c-0.1,-0.1,-0.2,-0.2,-0.3,-0.3c-0.1,-0.2,-0.3,-0.4,-0.4,-0.6c-0.1,-0.1,-0.2,-0.2,-0.3,-0.4c-0.2,-0.2,-0.4,-0.5,-0.6,-0.7C95.1,128.3,95,128,94.8,127.8c-0.1,-0.2,-0.3,-0.4,-0.4,-0.6c-0.3,-0.3,-0.5,-0.7,-0.7,-1c-0.2,-0.3,-0.4,-0.6,-0.6,-0.9c-0.1,-0.2,-0.2,-0.4,-0.3,-0.6c-0.2,-0.3,-0.5,-0.6,-0.7,-0.9c-0.1,-0.3,-0.3,-0.7,-0.5,-1c-0.1,-0.1,-0.2,-0.3,-0.3,-0.4c-0.2,-0.4,-0.4,-0.9,-0.6,-1.3c-0.3,-0.5,-0.5,-0.9,-0.7,-1.4c-0.1,-0.3,-0.2,-0.5,-0.3,-0.7c-0.1,-0.2,-0.2,-0.4,-0.3,-0.6c-0.1,-0.2,-0.2,-0.5,-0.3,-0.7c0,-0.1,0,-0.1,-0.1,-0.2c0.2,0.5,0.3,0.9,0.5,1.3c0,0.1,0,0.1,0,0.1c-0.1,-0.1,-0.1,-0.3,-0.2,-0.4c0,-0.1,-0.1,-0.2,-0.1,-0.3c0.1,0.5,0.3,0.9,0.5,1.4c0.2,0.4,0.4,0.8,0.6,1.3c-0.1,-0.1,-0.1,-0.2,-0.2,-0.3l0.1,0.1c0,0.1,0,0.2,0.1,0.3l-0.1,0.1c0,0,0.1,0,0.1,0c-0.1,-0.1,-0.1,-0.2,-0.2,-0.3C90,120.7,90,120.5,90,120.4l0.1,0c-0.2,-0.2,-0.3,-0.4,-0.4,-0.7l0,0.1c0.1,0.1,0.1,0.2,0.1,0.3c0.1,0.1,0.1,0.2,0.2,0.3c-0.1,-0.1,-0.1,-0.2,-0.2,-0.3c-0.1,0,-0.1,-0.1,-0.2,-0.2c0,0,0.1,-0.1,0,-0.1c0,-0.1,-0.1,-0.2,-0.1,-0.2c0,-0.1,0,-0.1,0,-0.1c0,-0.1,0,-0.1,-0.1,-0.1c0,-0.1,0,-0.1,0,-0.2c-0.1,-0.1,-0.2,-0.2,-0.1,-0.3c0,0,-0.1,0,-0.1,0c0,-0.1,-0.1,-0.1,0,-0.1c0,0,0,-0.1,0,-0.1c-0.1,0,-0.1,-0.1,-0.1,-0.2c0,0,-0.1,-0.1,-0.1,-0.1c-0.1,-0.1,-0.1,-0.2,-0.1,-0.2c0,-0.1,0,-0.2,-0.1,-0.2c0,-0.1,0,-0.1,0,-0.2c-0.1,-0.1,-0.1,-0.2,-0.1,-0.3c0,0,0,-0.1,-0.1,-0.1c0,-0.1,0,-0.2,-0.1,-0.2c0,-0.1,0,-0.1,0,-0.1c0,-0.1,-0.1,-0.1,-0.1,-0.2c-0.1,-0.2,-0.2,-0.4,-0.2,-0.6C88.1,116.1,88.1,116,88,115.8c-0.1,-0.2,-0.2,-0.5,-0.3,-0.7c0,-0.1,0,-0.1,-0.1,-0.2c-0.1,0.1,-0.1,0,-0.1,0c0,-0.2,-0.1,-0.3,-0.1,-0.4c0.1,-0.1,0.2,-0.1,0.2,-0.2c0,-0.1,0.1,-0.1,0.1,-0.1c-0.1,0,-0.2,-0.1,-0.3,-0.2c-0.3,-0.1,-0.6,-0.3,-0.9,-0.4c-0.2,-0.2,-0.4,-0.3,-0.7,-0.4C85.7,113.1,85.6,113,85.6,113c-0.1,0,-0.1,0,-0.2,-0.1l0.1,-0.1c0.1,-0.1,0.1,-0.2,0.1,-0.4c0.1,-0.1,0.1,-0.2,0.2,-0.3c0,-0.2,0.1,-0.3,0.2,-0.4c0,-0.1,-0.1,-0.1,-0.1,-0.1c-0.1,0,-0.1,-0.1,0,-0.1l0,-0.1c0.1,-0.1,0.2,-0.2,0.3,-0.3l0.1,0c0,-0.1,0,-0.2,0.1,-0.2c0,-0.1,0.1,-0.1,0.1,-0.1c0.1,-0.1,0.2,-0.3,0.3,-0.3c0.1,0,0.1,-0.1,0.1,-0.2c-0.1,0,-0.1,-0.1,0,-0.1c0.1,-0.2,0.2,-0.5,0.4,-0.7c0,0,0.1,-0.1,0.1,-0.1c0.1,-0.1,0.2,-0.2,0.2,-0.3c0,0,0.1,-0.1,0.2,-0.1l0.1,0c0,-0.1,0.1,-0.1,0.1,0c0,0.1,0.1,0.1,0.1,0c0.1,-0.1,0.2,-0.2,0.3,-0.3c0.1,-0.1,0.2,-0.1,0.2,0c0.2,0.1,0.3,0.3,0.5,0.4c0.3,0.2,0.5,0.5,0.8,0.7c0.3,0.2,0.6,0.4,0.9,0.6c0.2,0.2,0.5,0.4,0.7,0.6c0.3,0.2,0.7,0.4,1,0.7c0.3,0.2,0.6,0.3,0.9,0.5c0.2,0.1,0.4,0.2,0.6,0.4c0.1,0,0.2,0.1,0.4,0.1c0.4,0.3,0.8,0.5,1.2,0.7c0.3,0.2,0.7,0.3,1,0.5c0.2,0,0.4,0.2,0.6,0.2c0.2,0.1,0.4,0.2,0.6,0.2c0.1,0.1,0.2,0.1,0.2,0.2c0.1,0,0.1,0,0.1,0c0.1,0,0.2,0.1,0.4,0.1c0.1,0,0.3,0.1,0.4,0.1c0.3,0.1,0.5,0.1,0.7,0.1c0.1,0.1,0.2,0.1,0.3,0.1c0,0,0.1,0,0.1,0c0.1,0,0.3,0,0.4,0c0.6,0.1,1.1,0.1,1.7,0.1c0.3,0.1,0.6,0.1,0.9,0.1c0.1,0,0.2,0,0.2,0c0.1,0,0.2,0,0.2,0c0.2,0,0.3,0,0.5,0c0,0,0.1,0.1,0.2,0.1l-0.1,0c0.2,0,0.3,0.1,0.5,0.1c-0.1,0,-0.1,0,-0.2,0c0.1,0.1,0.3,0.1,0.5,0.1l-0.3,0.1c0.1,0.1,0.2,0.1,0.4,0.1c-0.1,0,-0.1,0,-0.1,0c0.1,0.1,0.3,0.1,0.4,0.1c-0.1,0,-0.2,0,-0.3,0.1c0.1,0,0.3,0,0.5,0.1c-0.2,0,-0.4,0,-0.6,0c0,0.1,0,0.1,0,0.1c0.1,0,0.2,0,0.3,0c0.1,0,0.1,0,0.2,0.1c0.1,0,0.1,0,0.2,0c0.1,0.1,0.1,0.1,0.2,0.1l-0.3,0c0.7,0,1.5,0,2.2,0c0.1,0,0.2,0,0.3,0c0.3,0,0.5,0,0.7,0c0.1,0.1,0.2,0,0.3,0.1c0,0,0.1,0,0.2,0c0,0,0.1,0,0.2,0c-0.1,0,-0.1,0,-0.1,0c0.1,0.1,0.3,0.1,0.5,0.1c-0.4,0.1,-0.8,0.1,-1.2,0.2c0.1,0,0.2,0,0.3,0c0.1,0,0.2,0,0.3,0c0.1,0,0.1,0,0.2,-0.1c0,0.1,0.1,0.1,0.2,0.1c0.1,0,0.2,0,0.3,0l0,0.1c0,0,-0.1,0,-0.1,0c0,0,0.1,0.1,0.1,0c0.1,-0.1,0.2,0,0.2,0c0.1,0,0.3,0,0.4,0c0.1,0,0.2,0,0.4,0c-0.3,0.1,-0.5,0.1,-0.7,0.1l-0.1,0.1c0.1,0,0.1,0,0.1,0c0.1,-0.1,0.2,0,0.3,-0.1c0.1,0,0.2,0,0.3,0c0,0,0.1,0,0.1,0c0,0.1,0,0.1,0,0.1c0,0,-0.1,0,-0.1,0c0.1,0,0.2,0,0.2,0.1c0,0,-0.1,0,-0.2,0c-0.1,0,-0.1,0.1,-0.2,0c0,0.1,0,0.1,-0.1,0.1c-0.4,0,-0.8,0.1,-1.2,0.1l0,0.1l-0.5,0c0.3,0,0.5,0,0.8,0.1l-0.4,0c0.3,0,0.5,0.1,0.8,0.1c-0.2,0.1,-0.3,0.1,-0.5,0.1l0.1,0l0,0.1c0.1,0,0.2,0,0.3,0c0,0,0,0.1,0,0.1c0,0,0.1,0,0.1,0c0.1,0,0.1,0,0.2,0c0.1,0.1,0.2,0.1,0.3,0.1l-0.7,0c0.3,0.1,0.6,0.1,0.9,0.1c0,0.1,-0.1,0.1,-0.2,0.1c-0.1,0,-0.2,0,-0.4,0c-0.1,0,-0.3,0,-0.4,0c-0.1,0,-0.2,0,-0.3,0.1c0,0,-0.1,0,-0.1,0c0,0.1,0,0.1,0,0.1l-0.3,0c0.1,0,0.2,-0.1,0.3,-0.1c0,-0.2,-0.1,-0.2,-0.4,-0.2c0,0.1,0,0.1,0,0.1c0,0,-0.1,0,-0.1,0c-0.1,0,-0.1,0,-0.2,0c0,0,0,-0.1,-0.1,-0.1c0,0.1,0.1,0.1,0.1,0.1c-0.1,0.1,-0.1,0.1,-0.2,0.1c0,-0.1,0,-0.1,0.1,-0.1c-0.1,0,-0.2,0,-0.2,0c-0.1,0,-0.2,0,-0.2,0c0,-0.1,0.2,0.1,0.2,-0.1c-0.1,0,-0.1,-0.1,-0.2,0l-0.1,0c0,0,-0.1,-0.1,-0.1,0c0,0,-0.1,-0.1,-0.2,-0.1c0,0,0,0.1,-0.1,0.1c0,0,0.1,0,0.1,0.1c-0.1,0,-0.1,0,-0.2,0l0,-0.2c0,0,-0.1,0,-0.1,0c-0.1,0,-0.1,0,-0.2,0c0,0.1,-0.1,0,-0.1,0c-0.1,0,-0.2,0,-0.3,0c0,0.3,0,0.6,0,0.9c-0.1,0,-0.1,0.1,-0.1,0.2c0,0.4,-0.1,0.7,-0.2,1c0,0.4,-0.1,0.7,-0.2,1.1c-0.1,0.1,-0.1,0.2,-0.1,0.3c0,0.1,-0.1,0.1,-0.1,0.1c-0.1,0.3,-0.3,0.5,-0.4,0.8c-0.1,0.1,-0.1,0.1,-0.1,0.2c-0.1,0.2,-0.2,0.4,-0.3,0.5c-0.1,0.2,-0.1,0.4,-0.2,0.5c-0.1,0.1,-0.2,0.3,-0.3,0.4c-0.1,0,-0.1,0,-0.1,0.1c0,0.1,0,0.1,0,0.2c0,-0.1,0,-0.1,0,-0.1c-0.1,0.1,-0.2,0.2,-0.2,0.3c0,0.1,0,0.1,-0.1,0.2c-0.1,0.2,-0.2,0.4,-0.3,0.6c-0.1,0.1,-0.1,0.3,-0.2,0.4c-0.2,0.4,-0.4,0.8,-0.6,1.2c-0.1,0.1,-0.2,0.3,-0.3,0.4c-0.1,0.1,-0.1,0.2,-0.1,0.3c-0.1,0,-0.1,0.1,-0.1,0.1c-0.1,0,-0.1,0.1,-0.1,0.2c-0.1,0.1,-0.1,0.2,-0.2,0.3c0,0.1,-0.1,0.2,-0.1,0.3c-0.1,0.1,-0.2,0.3,-0.2,0.4c-0.1,0.1,-0.1,0.2,-0.2,0.3l0,-0.1c0,0,0,-0.1,0.1,-0.2c0,0,0,-0.1,0.1,-0.2l-0.1,0c-0.1,0.2,-0.1,0.3,-0.2,0.4c0,0,0,0.1,0,0.1c-0.1,0.1,-0.2,0.2,-0.2,0.3c0.1,0,0.2,-0.2,0.2,-0.3l0,0.1l0,0.1c-0.1,0.2,-0.2,0.4,-0.4,0.6c0,-0.1,0.1,-0.2,0.1,-0.3c0,0.1,-0.1,0.1,-0.1,0.1c-0.1,0.2,-0.2,0.3,-0.3,0.5c0,0,0,0.1,0,0.1c-0.1,0.2,-0.2,0.3,-0.3,0.5c0,0,-0.1,0.1,-0.1,0.2c0,0,-0.1,0.1,-0.1,0.2c0,-0.1,0,-0.1,0,-0.1l-0.1,0c0,0.1,-0.1,0.3,-0.2,0.4c0.1,0,0.1,0,0.1,0c-0.1,0.1,0,0.1,0,0.2c0.2,0.3,0.4,0.5,0.6,0.8c0.3,0.4,0.6,0.8,1,1.1c0.1,0.3,0.3,0.5,0.5,0.7c0.3,0.4,0.7,0.8,1,1.1c0.3,0.4,0.6,0.7,0.8,1c0.2,0.2,0.4,0.4,0.6,0.6c0.3,0.3,0.5,0.6,0.8,0.8c0.2,0.2,0.4,0.4,0.7,0.7c0.1,0.1,0.1,0.2,0.2,0.3c0.1,0.1,0.2,0.1,0.3,0.2c0,0,0.1,0.1,0.1,0.2c0.1,0,0.1,0,0.2,0.1c0.2,0.2,0.4,0.4,0.6,0.6c0.2,0.1,0.4,0.3,0.6,0.4c0.2,0.1,0.3,0.2,0.4,0.3c0.5,0.4,0.9,0.7,1.3,1c0.1,0.1,0.2,0.1,0.3,0.2c0,0.1,0.1,0.1,0.1,0.2c-0.2,-0.1,-0.3,-0.2,-0.5,-0.3c0,0,0,0.1,0.1,0.1c0.1,0.1,0.2,0.2,0.3,0.2c0.1,0.1,0.2,0.2,0.2,0.2c0.1,0,0.1,0.1,0.1,0.1c-0.2,-0.1,-0.4,-0.3,-0.6,-0.4l0,0.1c0.2,0.1,0.5,0.3,0.7,0.4c0.2,0.2,0.4,0.3,0.6,0.5c0.2,0.1,0.4,0.3,0.5,0.4c0.1,0,0.1,0.1,0.1,0.1c-0.2,-0.1,-0.4,-0.3,-0.7,-0.4c0.1,0.1,0.2,0.2,0.4,0.3c-0.1,0,-0.2,-0.1,-0.3,-0.1l0,-0.1C111.2,143,111.1,143,111,142.9c0,0,0,0.1,0,0.1c0.2,0.1,0.3,0.2,0.5,0.3c0.1,0.1,0.2,0.1,0.3,0.2c0.2,0.1,0.3,0.2,0.5,0.4c-0.1,0,-0.3,-0.1,-0.5,-0.3l0,0.1c0,-0.2,-0.1,-0.2,-0.2,-0.2c0,-0.1,-0.1,-0.1,-0.2,-0.2l0,0.1l-0.2,-0.1c0.5,0.4,1.1,0.7,1.6,1.1l-0.5,-0.2c0.3,0.2,0.6,0.4,0.9,0.6c-0.1,0,-0.3,-0.1,-0.3,-0.2c-0.4,-0.2,-0.7,-0.4,-1,-0.6l-0.1,0c0,0,-0.1,0,-0.1,-0.1c0,-0.1,0,-0.1,-0.1,-0.1c0,0,-0.1,0,-0.1,-0.1c0,0,0,-0.1,-0.1,0c-0.1,0,-0.1,-0.1,-0.1,-0.2c0,0,-0.1,0,-0.1,0c0,0,-0.1,-0.1,-0.2,-0.1c0.1,0,0.1,0.1,0.2,0.1c-0.2,-0.1,-0.4,-0.2,-0.6,-0.4c-0.1,0,-0.1,-0.2,-0.3,-0.1c-0.3,-0.3,-0.7,-0.5,-1.1,-0.8c0,0.1,0,0.1,0.1,0.1c0.1,0.1,0.2,0.2,0.3,0.3c0,0,0.1,0.1,0.2,0.1c0.2,0.2,0.5,0.4,0.7,0.5c0.2,0.1,0.3,0.2,0.4,0.3c0.1,0.1,0.3,0.2,0.4,0.3c-0.4,-0.2,-0.8,-0.5,-1.2,-0.8c0,0.1,0.1,0.2,0.1,0.2c0.1,0,0.2,0.1,0.3,0.2c0.1,0,0.1,0.1,0.2,0.1c0,0,-0.1,0,-0.1,0c-0.1,-0.1,-0.2,-0.1,-0.3,-0.2c-0.1,-0.1,-0.2,-0.2,-0.3,-0.2C109.9,143,109.9,143,109.8,143c-0.1,-0.1,-0.2,-0.1,-0.3,-0.2c0,-0.1,-0.1,-0.1,-0.2,-0.1c0,-0.1,-0.1,-0.1,-0.2,-0.2l0,-0.1c-0.1,0,-0.1,-0.1,-0.2,-0.1c0,-0.1,-0.1,-0.1,-0.1,-0.2c0,0.1,0,0.1,0,0.1c-0.1,0,-0.2,-0.1,-0.2,-0.2c-0.1,0,-0.1,0,-0.2,0c0,0,0,-0.1,0,-0.1c0,-0.1,-0.1,-0.1,-0.2,-0.2l0,0.1c-0.3,-0.2,-0.5,-0.4,-0.7,-0.6c0,0,0.1,0,0.1,0l0.1,0l-0.1,0c-0.1,-0.1,-0.1,-0.2,-0.2,-0.2c-0.1,-0.1,-0.1,-0.1,-0.1,-0.1c0.1,0,0.1,0,0.2,0.1c0.2,0.1,0.4,0.3,0.5,0.4c0.1,0.1,0.2,0.2,0.3,0.3c0,0,0,-0.1,-0.1,-0.1c0.1,0.1,0.2,0.2,0.2,0.2c0.2,0.1,0.4,0.3,0.5,0.4c0,0,0.1,0,0.1,0c0.1,0,0.1,0,0.2,0c-0.1,-0.1,-0.3,-0.2,-0.4,-0.3c-0.1,-0.1,-0.2,-0.2,-0.3,-0.2c-0.2,-0.1,-0.3,-0.3,-0.4,-0.3c-0.1,-0.1,-0.2,-0.2,-0.3,-0.2c0,0,0,-0.1,0,-0.1c-0.1,-0.1,-0.2,-0.1,-0.2,-0.2c-0.1,-0.1,-0.1,-0.1,-0.1,-0.1c-0.1,0.1,-0.1,0,-0.1,0c-0.1,-0.2,-0.2,-0.2,-0.3,-0.3L107,140.4c-0.1,-0.1,-0.1,-0.1,-0.2,-0.2c-0.1,-0.1,-0.3,-0.2,-0.4,-0.3c-0.1,-0.1,-0.1,-0.1,-0.2,-0.1c0,0.1,0.1,0.2,0.1,0.2c0.1,0.1,0.1,0.1,0.1,0.1c0.1,0.1,0.2,0.2,0.3,0.3c0.1,0,0.1,0.1,0.1,0.1c-0.1,-0.1,-0.2,-0.2,-0.3,-0.3c-0.1,-0.1,-0.2,-0.1,-0.3,-0.2c0.4,0.4,0.8,0.8,1.3,1.1c0,0.1,-0.1,0.1,-0.1,0.1c0,-0.1,-0.1,-0.1,-0.2,-0.2c0,-0.1,-0.2,-0.2,-0.3,-0.2c0,-0.2,-0.2,-0.2,-0.3,-0.3c0,-0.1,-0.1,-0.1,-0.2,-0.1c0,0,0,-0.1,0,-0.1c-0.1,-0.1,-0.3,-0.2,-0.4,-0.3c0,-0.1,-0.1,-0.1,-0.2,-0.2c0,0,-0.1,0,-0.1,0c0,-0.1,0,-0.1,0,-0.2c-0.1,0.1,-0.1,0.1,-0.1,0.1c0,0,-0.1,-0.1,-0.1,-0.1c0,0,-0.1,0,-0.1,-0.1c-0.2,-0.1,-0.3,-0.3,-0.5,-0.4c0,0,0,-0.1,0,-0.1c-0.1,0,-0.1,0,-0.2,-0.1c-0.2,-0.1,-0.3,-0.3,-0.5,-0.4l0,-0.1c0,-0.1,-0.1,-0.1,-0.2,-0.2c0,0,0,-0.1,-0.2,-0.2c0,0.1,0.1,0.1,0.1,0.2c0,-0.1,-0.1,-0.1,-0.1,-0.1c0,0.1,0,0.1,0,0.1c0.1,0.2,0.3,0.3,0.4,0.5l0.1,0c-0.2,-0.1,-0.3,-0.2,-0.4,-0.3c-0.1,-0.1,-0.2,-0.2,-0.3,-0.3c0,0,0.1,0,0.1,0c0,0,0,-0.1,0,-0.2c-0.1,-0.1,-0.2,-0.2,-0.2,-0.2c-0.1,0,-0.1,0,-0.1,0c0.1,0,0.1,0.1,0.2,0.2c-0.1,-0.1,-0.2,-0.1,-0.2,-0.2c0,-0.1,0,-0.1,0,-0.1c-0.1,-0.1,-0.2,-0.1,-0.3,-0.1c0.1,-0.1,0.1,-0.1,0,-0.2c-0.1,0,-0.1,-0.1,-0.2,-0.1c-0.1,-0.1,-0.2,-0.2,-0.4,-0.4c0,0,-0.1,-0.1,-0.1,-0.1c-0.1,-0.1,-0.1,-0.2,-0.2,-0.2c0,0,-0.1,0,-0.1,-0.1c-0.1,-0.1,-0.3,-0.2,-0.4,-0.4c0,0,-0.1,0,-0.2,-0.1l0.1,0c0.1,-0.1,0.1,0.1,0.2,0.1c-0.1,-0.1,-0.2,-0.2,-0.3,-0.3c-0.1,-0.1,-0.2,-0.1,-0.3,-0.3c0,0,-0.1,-0.1,-0.1,-0.1c0,-0.1,-0.1,-0.2,-0.2,-0.3c-0.1,0,-0.2,-0.1,-0.3,-0.2c0,-0.1,0,-0.1,0,0c-0.1,0,-0.1,0,0,0c0,0.1,0.1,0.2,0.2,0.2c0.1,0.1,0.1,0.1,0.2,0.2c0,0.1,0,0.1,0,0.1c0,0,0.1,0.1,0.1,0.1c-0.2,-0.1,-0.3,-0.2,-0.4,-0.4c0,0,-0.1,0,-0.1,-0.1c0,0.1,0,0.1,0,0.1c0,0,0,0.1,0.1,0.1c0.2,0.2,0.4,0.5,0.6,0.7c0.2,0.1,0.3,0.2,0.4,0.4c0.1,0,0.1,0.1,0.2,0.1c0.1,0.1,0.2,0.3,0.3,0.4c0.1,0,0.1,0.1,0.2,0.1c0,0.1,0.1,0.3,0.3,0.2l0,0.1c0,0.1,0,0.1,0,0.1c0.1,0.1,0.3,0.3,0.5,0.5c0.1,0.1,0.3,0.2,0.4,0.4c-0.1,-0.1,-0.2,-0.2,-0.3,-0.2c-0.2,-0.2,-0.3,-0.4,-0.5,-0.6c-0.3,-0.3,-0.6,-0.6,-0.9,-0.9c-0.2,-0.2,-0.4,-0.4,-0.6,-0.6c-0.2,-0.2,-0.4,-0.4,-0.6,-0.6c-0.1,-0.1,-0.1,-0.2,-0.2,-0.2c0,-0.1,-0.1,-0.1,-0.1,-0.1c0,0,-0.1,0,-0.1,-0.1c-0.1,-0.1,-0.2,-0.2,-0.2,-0.4c0,0,0,-0.1,0,-0.1c0.1,0,0.1,0,0.1,0c0.1,0.1,0,0.1,0,0.2c0,0,0.1,0.1,0.1,0.2c0,0,0,-0.1,0,-0.1c0,0,0.1,0,0.1,-0.1c0,0.1,0,0.2,0.1,0.2l0.1,0c-0.4,-0.5,-0.9,-0.9,-1.3,-1.4c0,0.1,0,0.1,0.1,0.2c-0.1,-0.1,-0.1,-0.1,-0.1,-0.1c0,0,-0.1,0.1,0,0.1c0.1,0.1,0.2,0.3,0.4,0.4c0,0,-0.1,-0.1,-0.1,-0.1c0.1,0,0.1,0,0.1,0.1c0.1,0.1,0.1,0.2,0.2,0.3c0,0,0.1,0.1,0.1,0.1c0,0.1,0,0.1,0,0.2l-0.1,-0.1c0.1,0,0.1,-0.1,0,-0.1c0,-0.1,-0.1,-0.1,-0.1,-0.1c-0.1,-0.1,-0.2,-0.3,-0.3,-0.4c-0.1,0,-0.1,-0.1,-0.2,-0.2c0,0,-0.1,-0.1,-0.1,-0.1l0.1,0.2c-0.1,0,-0.1,0,-0.2,-0.1c0,0.2,-0.1,0.3,-0.2,0.4c-0.1,0.3,-0.3,0.5,-0.5,0.8c0,0.1,0,0.2,-0.1,0.2c0,0.1,0,0.1,0,0.2c-0.2,0.2,-0.4,0.5,-0.5,0.8c-0.1,0.1,-0.2,0.3,-0.3,0.5c-0.1,0.2,-0.2,0.4,-0.4,0.5c-0.2,0.5,-0.4,0.9,-0.7,1.3c-0.1,0.2,-0.2,0.4,-0.3,0.6c-0.1,0,-0.1,0,-0.1,0c0,-0.1,0.1,-0.1,0.1,-0.2c0.2,-0.3,0.4,-0.7,0.6,-1c0.2,-0.3,0.3,-0.6,0.5,-0.9c0,0,0,-0.1,0.1,-0.1c0,-0.1,0,-0.1,0.1,-0.2c-0.1,0,-0.1,0.1,-0.1,0.2c-0.2,0,-0.2,0.1,-0.2,0.2c-0.1,0.2,-0.2,0.4,-0.3,0.5l-0.1,0c0.1,-0.1,0.2,-0.2,0.2,-0.3l0,-0.1c-0.1,0.2,-0.2,0.3,-0.3,0.5c0.1,0,0.1,0,0.1,0c0,0,0,0.1,0,0.1c-0.1,0,-0.1,0.1,-0.2,0.1c-0.1,0.2,-0.1,0.3,-0.2,0.4L96.2,138c0.1,0,0.1,-0.2,0.1,-0.3c0.1,-0.1,0.2,-0.2,0.3,-0.3c0,-0.1,0.1,-0.2,0.1,-0.3C96.8,137,96.8,137,96.9,137c0,-0.1,0,-0.2,0,-0.2c0.1,-0.2,0.1,-0.3,0.2,-0.4c0.1,-0.1,0.1,-0.1,0.1,-0.2c0.1,-0.1,0.1,-0.2,0.2,-0.3c0.1,-0.1,0.2,-0.3,0.3,-0.5c0,0,0,-0.1,0,-0.1c0.1,-0.2,0.2,-0.3,0.3,-0.4c0.1,-0.2,0.2,-0.4,0.3,-0.6c-0.6,1,-1.2,2,-1.8,3c-0.1,0.1,-0.2,0.2,-0.3,0.3c0.1,0,0.1,0.1,0.1,0.1c0,-0.1,0.1,-0.2,0.1,-0.3l0,0.1c-0.1,0.2,-0.3,0.5,-0.4,0.7c0,0,0,-0.1,0,-0.1c0.1,-0.1,0.1,-0.1,0.1,-0.2c0,0.1,-0.1,0.1,-0.1,0.2c-0.1,0,-0.1,0.1,-0.1,0.1c0,0.1,0,0.1,-0.1,0.1c0,0.1,0,0.1,-0.1,0.2c0,0,0,0.1,0,0.1c0,0,0,-0.1,0,-0.1l-0.1,0c0,0.1,0,0.1,0,0.2c-0.1,0.1,-0.1,0.3,-0.2,0.4l-0.1,0c0,0.1,0,0.2,-0.1,0.3c-0.1,0,-0.1,0,-0.1,0.1c-0.1,0.2,-0.2,0.3,-0.3,0.4c0,0.1,-0.1,0.1,0,0.2c0,0,-0.1,0.1,-0.1,0.1c0,0.1,0,0.1,-0.1,0.1c0,0.1,0,0.1,0,0.1c-0.1,0,-0.1,0.1,-0.1,0.1c0,0.1,-0.1,0.2,-0.2,0.2c0,0,0,0.1,0,0.1c-0.1,0.2,-0.2,0.3,-0.3,0.5c-0.1,0.2,-0.2,0.3,-0.3,0.5c-0.1,0.2,-0.3,0.4,-0.4,0.7c-0.1,0.2,-0.2,0.4,-0.4,0.6c-0.1,0.1,-0.1,0.3,-0.2,0.4c-0.1,0.2,-0.3,0.4,-0.4,0.6c-0.1,0.2,-0.2,0.4,-0.3,0.6c-0.1,0.1,-0.1,0.1,-0.1,0.2c-0.1,0,-0.1,-0.1,-0.1,-0.1c1,-1.6,2,-3.2,2.9,-4.8c0,0,0,-0.1,0,-0.1c-0.9,1.5,-1.8,3,-2.7,4.6c0,-0.1,0,-0.1,0,-0.1c0,-0.1,0.1,-0.2,0.2,-0.4c0.1,-0.1,0.1,-0.2,0.2,-0.3c0.1,-0.1,0.2,-0.3,0.3,-0.5c0,0,0,-0.1,0,-0.1c0.1,-0.1,0.2,-0.2,0.2,-0.3c0,-0.2,0.1,-0.3,0.2,-0.4c0,0.1,0,0.1,0,0.1c0,-0.1,0.1,-0.1,0.1,-0.2c-0.1,-0.1,-0.1,0.1,-0.2,0.1c0.2,-0.3,0.4,-0.7,0.6,-1l0,-0.1c0,0.1,0,0.1,0,0.2c0.1,0,0.1,0,0.1,0c0,-0.1,0.1,-0.2,0.2,-0.3c-0.1,0,-0.1,0,-0.1,0c-0.1,0,-0.1,0.1,-0.2,0.1c0.1,-0.1,0.2,-0.3,0.3,-0.5c0.1,-0.2,0.3,-0.4,0.4,-0.6l0,-0.1c0,0.1,0.1,0.1,0.1,0.1c0,0,0,-0.1,0.1,-0.1c0,-0.1,0,-0.1,0,-0.2c0.1,-0.2,0.3,-0.4,0.4,-0.7c0,0,0.1,-0.1,0.1,-0.2c0,0.1,0.1,0.1,0.1,0c0,0,0,-0.1,0,-0.1c0,0,-0.1,0.1,-0.1,0.1c0,0,0.1,-0.1,0.1,-0.2c0.1,0,0.1,-0.1,0.1,-0.1c0.1,0,0.1,0,0.1,-0.1c0,0,0.1,-0.1,0.1,-0.2c0.1,0,0.1,-0.1,0,-0.1c0.2,-0.2,0.3,-0.5,0.4,-0.7c0.1,-0.2,0.2,-0.3,0.3,-0.5C96.2,137,96.2,137,96.2,137c0.1,-0.1,0.1,-0.1,0.1,-0.2c-0.1,0.1,-0.2,0.3,-0.3,0.4c-0.1,0,-0.2,0.2,-0.2,0.3c0,0,0,-0.1,0,-0.1c0,0.1,0,0.1,0,0.2c-0.1,0,-0.1,0.1,-0.1,0.1c0,0,-0.1,0,-0.1,0.1c0,0,0,0.1,-0.1,0.2c0,0.1,0,0.1,0,0.1c-0.1,0.1,-0.2,0.2,-0.2,0.3c-0.2,0.1,-0.1,0.3,-0.3,0.4c0,0.2,-0.1,0.3,-0.2,0.4c-0.1,0.1,-0.1,0.1,-0.1,0.1c0,0.2,-0.1,0.4,-0.3,0.5c0,0,0,0.1,0,0.1c-0.1,0.1,-0.1,0.3,-0.2,0.4c-0.1,0.1,-0.2,0.3,-0.3,0.4c0,0,0,0.1,0,0.1c-0.2,0.3,-0.3,0.5,-0.4,0.7c-0.1,0.1,-0.1,0.1,-0.2,0.2c0,0,0,0.1,0,0.1c-0.1,0,-0.1,0.1,-0.2,0.2c0,0,0,0.1,0,0.1C93,142.2,93,142.3,93,142.3c-0.1,0.1,-0.1,0.2,-0.2,0.3c-0.1,0.1,-0.1,0.2,-0.2,0.2c0,0.2,0,0.3,-0.2,0.3c0.1,0.1,0,0.1,0,0.2c0,0.1,-0.1,0.1,-0.1,0.1c-0.1,0.1,-0.1,0.2,-0.2,0.2c0,0.2,0,0.3,-0.1,0.4c-0.1,0.1,-0.1,0.1,-0.1,0.2c-0.1,0,-0.1,0.1,-0.2,0.2c0,0.1,-0.1,0.2,-0.1,0.2l-0.1,0c0.1,-0.1,0.2,-0.3,0.3,-0.5c-0.1,0.1,-0.1,0.2,-0.2,0.2c0,0.1,-0.1,0.2,-0.2,0.3c0,0.2,-0.1,0.3,-0.2,0.4c0,0.2,-0.2,0.3,-0.2,0.5c-0.1,0.1,-0.2,0.2,-0.3,0.3c0,-0.1,0.1,-0.2,0.1,-0.3c-0.1,0.2,-0.3,0.4,-0.4,0.5l-0.1,0c0,-0.1,0,-0.1,0,-0.1c0.1,-0.1,0.2,-0.2,0.2,-0.3l0,-0.1c0.1,0,0.1,0,0.1,0c0.1,-0.2,0.2,-0.4,0.3,-0.5c0.1,-0.2,0.2,-0.4,0.3,-0.5c0.2,-0.2,0.3,-0.4,0.3,-0.6c0.1,-0.2,0.3,-0.4,0.4,-0.6c0,-0.1,0.1,-0.2,0.1,-0.3c0.1,0,0.1,-0.1,0.1,-0.1l-0.1,0l-0.9,1.6l-0.1,0c0.2,-0.3,0.4,-0.6,0.6,-0.9c-0.1,0,-0.1,-0.1,-0.1,-0.1l0,-0.1c0.1,0,0.1,-0.1,0.1,-0.2c0,-0.1,0.1,-0.1,0.1,-0.2c0.1,0,0.1,-0.1,0.2,-0.2c0,-0.2,0.1,-0.3,0.2,-0.4c0.1,-0.2,0.2,-0.4,0.3,-0.6c0,0,0.1,0,0.1,-0.1c-0.3,0.3,-0.5,0.6,-0.7,0.9c-0.2,0.3,-0.4,0.6,-0.6,0.9c0,0,0,-0.1,0,-0.1c-0.1,0,-0.1,0.1,-0.1,0.1c0,-0.1,0.1,-0.2,0.1,-0.3c0.1,-0.1,0.1,-0.1,0.2,-0.2c0,-0.1,0,-0.1,0,-0.1c0,0,0.1,0,0.1,0c0.1,-0.2,0.3,-0.4,0.4,-0.7c0,0,0.1,-0.1,0.1,-0.2c0.1,0,0.1,0,0.1,0c0,0,-0.1,0,-0.1,0c0.1,-0.2,0.2,-0.3,0.3,-0.5c0,0,0.1,0,0.1,0l0,-0.1c0,-0.1,0.1,-0.1,0.1,-0.1c0.2,-0.1,0.3,-0.3,0.3,-0.4c0.1,-0.2,0.2,-0.3,0.3,-0.5c0.2,-0.3,0.4,-0.6,0.5,-0.9c0,0.1,-0.1,0.1,-0.1,0.2l0,0.1c-0.1,0,-0.1,0.1,-0.2,0.2c0,0.1,-0.1,0.1,-0.1,0.2c-0.1,0.1,-0.2,0.2,-0.2,0.3c-0.1,0,-0.1,0.1,-0.2,0.1c0,0.1,0,0.1,0,0.1c0,0,-0.1,0,-0.1,0.1c-0.1,0.1,-0.1,0.3,-0.2,0.4c0,0,-0.1,0.1,-0.1,0.1c-0.1,0,-0.1,0.1,-0.1,0.1c0.1,0.1,0,0.1,0,0.1c0,-0.1,0,-0.1,0,-0.1c-0.1,0.2,-0.2,0.3,-0.3,0.4c-0.1,0.2,-0.3,0.5,-0.5,0.8c-0.2,0.2,-0.3,0.5,-0.5,0.7c-0.1,0.2,-0.2,0.4,-0.4,0.5c-0.1,0.2,-0.2,0.4,-0.3,0.6c-0.1,0,-0.1,0.1,-0.2,0.1c0.2,-0.3,0.4,-0.6,0.6,-0.9l0,-0.1c-0.3,0.5,-0.6,0.9,-0.9,1.3l-0.1,0c0.1,-0.1,0.1,-0.2,0.2,-0.2c-0.2,0.1,-0.3,0.4,-0.5,0.5l0,-0.1c0.1,0,0.1,-0.2,0.3,-0.3l0,-0.1c0,0,0.1,-0.1,0.1,-0.1c0.1,0,0.1,-0.1,0.1,-0.2c0.1,-0.1,0.1,-0.1,0.2,-0.2c0.1,-0.2,0.2,-0.3,0.3,-0.5c0.1,-0.1,0.2,-0.3,0.3,-0.4c0.1,-0.2,0.2,-0.4,0.3,-0.6c0.1,0,0.1,0,0.1,0c0,-0.1,0.1,-0.1,0.1,-0.1c0,-0.1,0.1,-0.2,0.1,-0.3c0.1,0,0.1,-0.1,0.2,-0.2c0.1,-0.1,0.2,-0.3,0.3,-0.4c0.1,-0.2,0.2,-0.3,0.3,-0.5c0,0,0,-0.1,0,-0.1c-0.1,0,-0.1,0.1,-0.2,0.1c0.1,0,0.1,-0.1,0.1,-0.2c0.1,0,0.2,-0.2,0.2,-0.3c0,-0.1,0,-0.1,0.1,-0.2c0.1,-0.1,0.2,-0.3,0.2,-0.4c0.2,-0.2,0.3,-0.4,0.4,-0.6c0.1,-0.3,0.2,-0.5,0.4,-0.8l0,-0.1c0,0.1,-0.1,0.1,-0.1,0.2c-0.1,0,-0.1,0.1,-0.1,0.1c0,0,-0.1,0.1,-0.1,0.1c0,0.1,0,0.2,-0.1,0.2c-0.1,0.2,-0.2,0.3,-0.3,0.5c-0.1,0.1,-0.2,0.1,-0.1,0.2c0,0,-0.1,0,-0.1,0c-0.1,0.1,-0.1,0.2,-0.1,0.3c0,0.1,-0.1,0.2,-0.2,0.3l0,0.1c-0.1,0,-0.1,0,-0.1,0.1c-0.3,0.4,-0.6,0.8,-0.8,1.3c-0.2,0.2,-0.4,0.5,-0.5,0.7c0,0,-0.1,0.1,-0.1,0.1c-0.2,0.2,-0.4,0.5,-0.5,0.7c-0.3,0.4,-0.5,0.7,-0.7,1.1c-0.2,0.2,-0.3,0.5,-0.5,0.8c-0.2,0.2,-0.3,0.4,-0.5,0.6c-0.2,0.3,-0.4,0.6,-0.6,0.9c-0.2,0.4,-0.4,0.7,-0.6,1.1c-0.2,0.3,-0.4,0.6,-0.6,0.9c-0.1,0.1,-0.1,0.2,-0.2,0.3c0,-0.1,0.1,-0.2,0.1,-0.3c0.2,-0.2,0.3,-0.4,0.4,-0.6c0,-0.1,0,-0.1,0,-0.1C86.9,148,87,148,87,148c0.1,-0.1,0.1,-0.1,0.2,-0.2c0.1,-0.3,0.3,-0.5,0.4,-0.7c0.1,-0.1,0.2,-0.3,0.2,-0.4l0.1,0c0,-0.1,0.1,-0.3,0.2,-0.4c0.2,-0.3,0.4,-0.6,0.6,-0.9c0,0,0.1,-0.1,0.1,-0.2c-0.1,0.1,-0.2,0.2,-0.3,0.3c0.1,0,0.1,-0.1,0.1,-0.1c0.1,-0.1,0.2,-0.2,0.2,-0.3c-0.1,0,-0.1,0.2,-0.2,0.3c0,0,-0.1,0.1,-0.2,0.2c-0.1,0.1,-0.1,0.3,-0.2,0.4c-0.1,0.1,-0.1,0.2,-0.2,0.3c0,0,-0.1,0.1,-0.1,0.1c0,0.1,-0.1,0.2,-0.2,0.3c-0.1,0.1,-0.1,0.2,-0.2,0.3c-0.1,0.1,-0.1,0.2,-0.2,0.3c0,0.1,-0.1,0,-0.1,0.1c0,-0.1,0,-0.1,0,-0.2c-0.1,0.1,0,0.2,0,0.3c-0.1,0,-0.1,0,-0.1,0c0.1,0.1,0,0.2,-0.1,0.3c0,0.1,-0.1,0.1,-0.1,0.2c0,0,-0.1,0,-0.1,0.1c0,0,-0.1,0,-0.1,0.1c0,0.1,-0.1,0.2,-0.1,0.3c-0.1,0.1,-0.1,0.2,-0.2,0.3c-0.1,-0.1,-0.1,-0.2,-0.1,-0.2c0,0,-0.1,0,-0.1,0c-0.1,0.1,-0.1,0.1,-0.1,0.2c-0.1,0,-0.1,0.1,-0.1,0.1c0,0,0,0.1,0.1,0.1c-0.1,0,-0.1,0,-0.2,0c0,0,0,0.1,0,0.1c0,0,0,0.1,0,0.1l-0.1,0l-0.1,0.1c0,0,-0.1,0.1,-0.1,0.1c0,0.1,0,0.1,0,0.1c0,0,0,0.1,-0.1,0.1c-0.1,0.1,-0.2,0.2,-0.3,0.3c0,0.1,-0.1,0.1,-0.1,0.1c0,-0.1,0,-0.1,0,-0.1c-0.1,0.1,-0.2,0.2,-0.2,0.3c-0.1,0,-0.1,0,-0.1,0c0.1,-0.1,0.1,-0.1,0.1,-0.2c0.1,-0.1,0.2,-0.3,0.3,-0.5c0.1,-0.1,0.2,-0.2,0.2,-0.3c0.1,0,0.1,-0.1,0.1,-0.1c0,-0.1,0,-0.1,0.1,-0.1c0.1,-0.2,0.2,-0.3,0.3,-0.5c0,-0.1,0.1,-0.3,0.2,-0.4c0.1,-0.1,0.2,-0.2,0.2,-0.3c0.1,0,0.1,-0.1,0.1,-0.1c0.1,-0.1,0.2,-0.3,0.3,-0.4c0,-0.1,0,-0.2,0.1,-0.2c0,-0.1,0.1,-0.2,0.1,-0.3c0,0,0.1,0,0.1,0c0.1,-0.2,0.2,-0.4,0.3,-0.6c0.1,-0.1,0.2,-0.3,0.3,-0.4c0,-0.1,0.1,-0.2,0.2,-0.3c0,-0.1,0.1,-0.2,0.2,-0.4c0.1,-0.1,0.2,-0.2,0.3,-0.3c0,-0.1,0,-0.1,0,-0.1c0.1,-0.2,0.2,-0.3,0.3,-0.5c0.1,-0.1,0.1,-0.2,0.2,-0.3c0,0,0,-0.1,0.1,-0.1c0,0,0.1,-0.1,0.1,-0.2c0.1,-0.1,0.2,-0.2,0.2,-0.3c0.1,-0.3,0.3,-0.5,0.4,-0.6c0.1,-0.1,0.1,-0.2,0.1,-0.2C89.8,142.3,90,142.2,90,142c0.1,-0.1,0.2,-0.2,0.3,-0.3c0,-0.1,0.1,-0.3,0.1,-0.4c0.1,0,0.1,-0.1,0.2,-0.1c0,-0.1,0,-0.1,0,-0.1c0.1,-0.1,0.1,-0.2,0.2,-0.2c0,-0.2,0.1,-0.3,0.2,-0.4c0,0,0.1,-0.1,0.1,-0.2c0.1,-0.1,0.1,-0.2,0.2,-0.3c0.1,-0.1,0.1,-0.2,0.2,-0.3c0.1,-0.1,0.1,-0.2,0.2,-0.2c0,-0.1,0,-0.1,0,-0.2c0.1,0,0.1,-0.1,0.2,-0.1c0,-0.1,0,-0.1,0.1,-0.2c0,-0.1,0.1,-0.2,0.2,-0.3c0.1,-0.2,0.2,-0.4,0.3,-0.5c0,-0.1,0.1,-0.2,0.2,-0.3c0,-0.1,0,-0.2,0.1,-0.2c0.1,-0.1,0.1,-0.2,0.2,-0.3c0,-0.1,0.1,-0.2,0.2,-0.3c0,-0.1,0.1,-0.2,0.2,-0.4c-0.1,0,-0.1,0.1,-0.2,0.2c-0.1,0,-0.1,0.1,-0.1,0.1c0,0.1,0,0.1,-0.1,0.1c0,0.1,-0.1,0.1,-0.1,0.2l-0.1,0.1c0.1,-0.1,0.1,-0.2,0.2,-0.3c0.1,-0.2,0.3,-0.5,0.4,-0.7c0.1,-0.1,0.1,-0.2,0.2,-0.2c0.1,-0.1,0.2,-0.2,0.3,-0.3l0,-0.1c0,0,-0.1,0,-0.1,0c0,0,0,-0.1,0.1,-0.1c0.1,-0.2,0.2,-0.4,0.3,-0.5c0,0,0.1,0,0.1,-0.1c0,0,0.1,0,0.1,-0.1c0.1,0,0.1,-0.1,0.1,-0.2Z" class="g1_1" />
</g>
<path d="M96.7,101.8c-0.1,0.1,-0.1,0.2,-0.1,0.3c-0.1,0,-0.1,0.1,-0.1,0.1c0,0.1,0,0.1,0,0.1c-0.2,0.4,-0.3,0.7,-0.4,1c0,0.1,-0.1,0.3,-0.1,0.4l-0.1,0c-0.1,0.3,-0.2,0.6,-0.3,1c0,-0.1,0,-0.2,0,-0.3c0.1,-0.3,0.3,-0.7,0.4,-1.1c0.2,-0.4,0.3,-0.8,0.5,-1.2c0,-0.1,0,-0.1,0,-0.2c0.1,-0.1,0.1,-0.1,0.1,-0.2c0,0,0,-0.1,0.1,-0.1c0,-0.1,0,-0.1,0,-0.2c0.1,-0.2,0.2,-0.5,0.3,-0.8c0.1,-0.1,0.1,-0.2,0.1,-0.3c0.1,0.1,0.1,0.2,0,0.3c0,0.1,-0.1,0.3,-0.1,0.4c0.1,-0.2,0.2,-0.3,0.2,-0.4c0,0,0,0.1,0,0.1c0.1,-0.1,0.2,-0.2,0.2,-0.4l0.1,0c-0.1,0.1,-0.1,0.2,-0.1,0.3c0,-0.1,0.1,-0.1,0.1,-0.2c0,0,0.1,0,0.1,0.1c0,0,-0.1,0,0,0c0,0.1,0,0.2,0,0.3l0.1,0c-0.1,0.1,-0.1,0.2,-0.1,0.3c0.1,-0.1,0.1,-0.1,0.1,-0.2c0,0,0.1,0,0.1,0c0,0.1,-0.1,0.1,-0.1,0.2c0,0.1,0,0.1,0.1,0.2c0,0,0.1,0,0.1,0c0,0,0,0.1,0,0.1c0,0.1,0,0.1,0.1,0.1c0,0.1,0,0.2,-0.1,0.3c0.2,0,0.2,0,0.2,0.1c0,0.1,0,0.1,0,0.2c0.1,0,0.1,-0.1,0.2,-0.1c0,0.1,0,0.1,0,0.2c0,0,0,0.1,0,0.1c0,0.1,0,0.2,0.1,0.2c0,0,0,0.1,0,0.2l0,1c0.1,-0.1,0.1,-0.2,0.1,-0.3c0,0.1,0,0.1,0.1,0.2l0,0.1c-0.1,0.1,0,0.2,0.1,0.3c0,0,0,0.1,0,0.1l0,0.1c0,-0.1,0.1,-0.2,0.1,-0.2c0.1,0,0.1,0.1,0.1,0.2c0,0,0.1,-0.1,0.2,-0.1c0,0.2,0,0.4,0.1,0.5c0,0.1,0,0.1,0,0.1c0.1,0.1,0.1,0.2,0.1,0.3c0,0.1,0.1,0.1,0.1,0.2c0,0.1,0,0.2,0,0.2c0.1,0.3,0.1,0.7,0.1,1c0,0,0.1,0,0.1,0c-0.1,0.2,0,0.4,0,0.6c0,0.1,0,0.2,0,0.3c0,0.2,0.1,0.3,0.1,0.4c0,0.1,0.1,0.2,0.1,0.3c0,0.1,0,0.1,0,0.2c0.1,0.3,0.2,0.6,0.2,0.9c0.1,0.2,0.2,0.5,0.3,0.7c0,0.1,0.1,0.2,0.1,0.2c0.1,0.1,0.1,0.2,0.1,0.2c0.1,0.2,0.2,0.2,0.3,0.3c0,0.1,0,0.1,0,0.1c0,0.1,0.1,0.1,0.1,0.2c0,0.1,-0.2,0.1,-0.3,0.1c-0.1,-0.1,-0.2,-0.1,-0.3,-0.1c0,0,0,0.1,0,0.1c0,0,0,0.1,-0.1,0.1c-0.2,-0.1,-0.3,-0.2,-0.4,-0.3c0,0,-0.1,0,-0.2,-0.1c-0.3,0,-0.6,-0.3,-0.8,-0.6c0,-0.1,-0.1,-0.1,-0.2,0c0,0.1,-0.1,0.1,-0.2,0.1c0,0,-0.1,0,-0.2,0c0,0,0,-0.1,-0.1,-0.1c0,0,-0.1,0,-0.2,-0.1c-0.1,-0.1,-0.2,-0.1,-0.2,-0.1c-0.1,0,-0.1,0,-0.1,0c-0.1,-0.1,-0.1,-0.1,-0.2,-0.1c-0.1,0,-0.1,-0.1,-0.2,-0.2c0,0,0,-0.1,0,-0.1c-0.2,0,-0.3,0,-0.5,0c-0.1,-0.1,-0.3,-0.1,-0.5,-0.2c0,0,-0.1,0,-0.2,0C95.8,109.1,95.6,109,95.5,109c-0.1,-0.1,-0.2,-0.1,-0.2,-0.2c0,-0.1,0,-0.2,-0.1,-0.2c-0.3,-0.2,-0.4,-0.5,-0.4,-0.9c0,-0.3,0,-0.6,0.1,-1c0.1,-0.4,0.3,-0.9,0.4,-1.3c0.1,-0.2,0.1,-0.4,0.2,-0.6c0,0,0.1,0,0,0c0,0.1,0,0.2,0,0.3c0,0.1,0,0.2,-0.1,0.3c0,0,-0.1,0,-0.1,0.1c0,0.1,0,0.2,0,0.2c0,0.1,0,0.1,0,0.1c0,0,-0.1,0,-0.1,0c0,0.1,0,0.3,-0.1,0.4c0.1,0,0.1,0,0.1,-0.1c0.1,-0.3,0.2,-0.6,0.3,-0.9c0.2,-0.5,0.3,-0.9,0.5,-1.3c0,-0.1,0,-0.2,0.1,-0.3c0,-0.1,0,-0.1,0,-0.1c0,0.1,0,0.1,0,0.1c0,0,0.1,-0.1,0.1,-0.1c-0.1,-0.1,0,-0.2,0,-0.3c0.1,-0.2,0.1,-0.3,0.2,-0.5c0,-0.1,0.1,-0.2,0.1,-0.3c0.1,-0.1,0.1,-0.2,0.1,-0.3c0,0.1,0,0.1,0,0.2c0,-0.1,0.1,-0.2,0.1,-0.3l0,-0.1c0,-0.1,0,-0.1,0,-0.1c0.1,-0.1,0.1,-0.3,0.2,-0.4c0,0,0.1,0,0.1,-0.1c0,0,0,-0.1,0,-0.1c0,-0.1,0,-0.1,0,-0.1c-0.1,0.1,-0.1,0.2,-0.2,0.4c0,0.1,-0.1,0.2,-0.1,0.3Z" class="g1_1" />
<path d="M90.3,141.2c-1.7,2.6,-3.4,5.2,-5.1,7.8c1.6,-2.6,3.3,-5.2,5,-7.8c0,0,0.1,0,0.1,0Z" class="g1_1" />
<path d="M91.5,123.3c0,0,-0.1,-0.1,-0.1,-0.2c0,0,-0.1,0,-0.1,-0.1c0,0,-0.1,0,-0.1,0c0,-0.2,0,-0.3,-0.1,-0.4C91,122.5,91,122.4,90.9,122.3l-0.1,-0.1c0,0,0,-0.1,0,-0.1c0,0,0,-0.1,0,-0.1c-0.2,-0.2,-0.2,-0.4,-0.3,-0.6c-0.1,0,-0.2,-0.1,-0.2,-0.2l0,-0.1c-0.1,0,-0.1,0,0,0c0,0,0.1,0.1,0.1,0.2c0,0,0.1,-0.1,0.1,-0.1C90.4,121.1,90.4,121,90.3,121c0,-0.1,0,-0.1,0.1,-0.1c0.4,0.8,0.8,1.7,1.3,2.5l-0.1,0c-0.1,-0.3,-0.3,-0.6,-0.5,-0.9c-0.1,-0.3,-0.3,-0.6,-0.5,-0.9c0,0.1,0.1,0.2,0.1,0.2c0.1,0.3,0.3,0.5,0.4,0.7c0,0.1,0.1,0.2,0.2,0.3c0.1,0.2,0.1,0.3,0.2,0.4c0,0.1,0,0.1,0,0.1Z" class="g1_1" />
<path d="M109.3,118.2c0,0,0.1,0,0.1,0c0,-0.1,0.1,-0.1,0.1,-0.1c0.1,0,0.1,0,0.2,0c0.1,0,0.2,0.1,0.2,0.1c0.1,0,0.1,0,0.2,0l0.1,0c0.2,0,0.4,0,0.7,0l0,0.1c-0.1,0,-0.3,-0.1,-0.4,0c0.1,0,0.2,0.1,0.3,0l0.1,0c0.1,0,0.2,0.1,0.3,0.1c-0.2,0,-0.4,0,-0.6,0c-0.2,0,-0.4,0,-0.6,0c-0.2,0,-0.4,0,-0.6,0c0,-0.1,0,-0.1,0,-0.1c0.1,0,0.2,0,0.2,0c0,-0.1,-0.1,-0.1,-0.2,-0.1c-0.1,0.1,-0.1,0,-0.1,0Z" class="g1_1" />
<path d="M104.3,138.7c0,0,0,0.1,0.1,0.1c0.3,0.3,0.6,0.6,0.9,0.9c0.2,0.1,0.3,0.2,0.4,0.3c0,0,0.1,0,0.1,0c0.1,0.1,0.2,0.2,0.2,0.3c0.1,0,0.2,0.1,0.3,0.1c0.1,0.2,0.3,0.3,0.5,0.5c0.1,0,0.1,0.1,0.2,0.2c0,0,-0.1,0,-0.1,0c-0.1,-0.1,-0.1,-0.2,-0.2,-0.2c-0.1,-0.2,-0.3,-0.3,-0.4,-0.4c-0.2,-0.1,-0.4,-0.3,-0.6,-0.5c-0.1,-0.1,-0.3,-0.2,-0.5,-0.4c-0.2,-0.2,-0.4,-0.4,-0.6,-0.6c-0.1,-0.1,-0.2,-0.2,-0.3,-0.3Z" class="g1_1" />
<path d="M90.7,121.5c-0.4,-0.9,-0.8,-1.7,-1.2,-2.6c0,0,0.1,0.1,0.1,0.1c0.1,0.1,0.1,0.3,0.2,0.5c0.1,0.2,0.2,0.5,0.4,0.8c0.1,0.2,0.2,0.4,0.3,0.6c0.1,0.2,0.1,0.3,0.2,0.5l0.1,0.1c-0.1,0,-0.1,0,-0.1,0Z" class="g1_1" />
<path d="M111.6,144c0.6,0.5,1.3,0.9,1.9,1.3c-0.1,0,-1.8,-1.2,-1.9,-1.2c0,-0.1,0,-0.1,0,-0.1Z" class="g1_1" />
<path d="M92.8,125.2c-0.4,-0.6,-0.8,-1.1,-1.1,-1.7c0,-0.1,0,-0.1,0,-0.1c0.4,0.6,0.7,1.2,1.1,1.8Z" class="g1_1" />
<path d="M91.1,140c-0.3,0.3,-0.5,0.7,-0.8,1.1c0.2,-0.4,0.5,-0.8,0.7,-1.2c0,0.1,0.1,0.1,0.1,0.1Z" class="g1_1" />
<path d="M91.1,143.5c0,0,-0.1,0.1,-0.1,0.2c0,0,0.1,0,0.1,-0.1c-0.2,0.3,-0.3,0.5,-0.5,0.7c0.1,-0.1,0.1,-0.1,0.2,-0.2c0,-0.2,0.1,-0.3,0.2,-0.5c0,0,0.1,-0.1,0.1,-0.1Z" class="g1_1" />
<path d="M110.8,142.4c0.3,0.2,0.6,0.3,0.8,0.5c0,0,0,0.1,0,0.1c0,0,0,-0.1,-0.1,-0.1c-0.2,-0.1,-0.4,-0.3,-0.6,-0.4c0,0,-0.1,0,-0.1,-0.1Z" class="g1_1" />
<path d="M91.5,123.3c0.1,0.1,0.2,0.2,0.2,0.3c0.1,0.2,0.2,0.4,0.3,0.6c0,0,0.1,0,0.1,0c0,0,-0.1,0,-0.1,0c-0.2,-0.3,-0.3,-0.6,-0.5,-0.9Z" class="g1_1" />
<path d="M92.8,125.3c0.2,0.3,0.4,0.6,0.6,0.8c0,0.1,0,0.1,0,0.1c-0.2,-0.3,-0.4,-0.6,-0.6,-0.9Z" class="g1_1" />
<path d="M93.1,136.8c-0.2,0.3,-0.4,0.6,-0.6,0.9l-0.1,0c0.2,-0.3,0.4,-0.6,0.6,-0.9c0.1,0,0.1,0,0.1,0Z" class="g1_1" />
<path d="M95.9,138.6c0,-0.1,0.2,-0.4,0.3,-0.5c0,0.1,-0.1,0.2,-0.1,0.3c0,0,-0.1,0,0,0.1c-0.1,0,-0.1,0,-0.1,0l-0.1,0.1Z" class="g1_1" />
<path d="M95.5,139.2c0.1,0,0.1,-0.1,0.1,-0.2c0.1,-0.1,0.2,-0.2,0.3,-0.4c0,0.1,-0.1,0.2,-0.1,0.3c-0.1,0.1,-0.2,0.2,-0.3,0.3Z" class="g1_1" />
<path d="M107.4,118.2c-0.2,0,-0.3,0,-0.5,-0.1c0.2,0,0.4,0,0.5,0.1Z" class="g1_1" />
<path d="M92.1,124.3c0.1,0.1,0.2,0.3,0.3,0.4c0,0,0,0.1,-0.1,0.1c0,-0.2,-0.1,-0.3,-0.2,-0.5Z" class="g1_1" />
<path d="M91.7,138.9c0.1,-0.2,0.2,-0.3,0.3,-0.5l0.1,0c-0.2,0.2,-0.3,0.4,-0.4,0.5Z" class="g1_1" />
<path d="M107.3,140.9c0,0,-0.1,0,-0.1,-0.1c-0.1,-0.1,-0.2,-0.2,-0.4,-0.3c0,0,0.1,0,0.1,0c0.1,0.1,0.3,0.3,0.4,0.4Z" class="g1_1" />
<path d="M96.9,130.8c-0.1,-0.1,-0.2,-0.1,-0.2,-0.2c-0.1,-0.1,-0.1,-0.1,-0.2,-0.2c0.1,0,0.1,0.1,0.1,0.1c0.1,0.1,0.2,0.1,0.2,0.2c0,0,0,0.1,0.1,0.1Z" class="g1_1" />
<path d="M93,125.7l0.2,0.4C93.1,126,93.1,125.9,93,125.8c0,0,0,-0.1,0,-0.1Z" class="g1_1" />
<path d="M91,144.3l-0.3,0.5c0.1,-0.2,0.2,-0.4,0.3,-0.6c0,0.1,0,0.1,0,0.1Z" class="g1_1" />
<path d="M91.6,141.4c0.1,-0.2,0.2,-0.3,0.3,-0.4c-0.1,0.1,-0.2,0.3,-0.3,0.4Z" class="g1_1" />
<path d="M91.4,122.7c-0.1,-0.1,-0.1,-0.2,-0.2,-0.3l0,-0.1c0.1,0.2,0.2,0.3,0.2,0.4Z" class="g1_1" />
<path d="M88.2,144.7c0,0.1,-0.1,0.2,-0.2,0.2c0,0.1,0,0.1,0,0c0,-0.1,0.1,-0.1,0.2,-0.2Z" class="g1_1" />
<path d="M93.7,126.6c-0.1,-0.1,-0.1,-0.2,-0.2,-0.3l-0.1,-0.1c0.1,0,0.1,0,0.1,0c0,0.1,0.1,0.3,0.2,0.4Z" class="g1_1" />
<path d="M92.1,138.2c0.1,-0.1,0.2,-0.2,0.2,-0.3c0,0,0.1,0,0.1,0l-0.3,0.4c0,0,0,-0.1,0,-0.1Z" class="g1_1" />
<path d="M111.8,144c0.2,0.1,0.4,0.2,0.5,0.3c-0.2,-0.1,-0.3,-0.2,-0.5,-0.3Z" class="g1_1" />
<path d="M93.7,126.7c0.1,0.1,0.1,0.3,0.2,0.4c-0.1,-0.1,-0.2,-0.3,-0.3,-0.4l0.1,0Z" class="g1_1" />
<path d="M95,128.5c-0.1,-0.2,-0.2,-0.2,-0.2,-0.4l0.2,0.3c0,0.1,0,0.1,0,0.1Z" class="g1_1" />
<path d="M95.4,128.9c-0.2,-0.1,-0.3,-0.2,-0.4,-0.4c0,0,0.1,0,0.1,0c0.1,0.1,0.2,0.3,0.3,0.4Z" class="g1_1" />
<path d="M94.2,127.3C94.1,127.2,94,127.1,93.9,127c0,0,0,-0.1,0,-0.1c0.1,0.2,0.2,0.3,0.3,0.4Z" class="g1_1" />
<path d="M106.9,118.6c0,0.1,0,0.1,-0.1,0.1c0,0,0,-0.1,0,-0.1l0,-0.1c0.1,0.1,0.1,0.1,0.1,0.1Z" class="g1_1" />
<path d="M110.7,143.5c0.1,0.1,0.2,0.1,0.3,0.2c-0.1,0,-0.3,-0.1,-0.3,-0.2Z" class="g1_1" />
<path d="M96,139c-0.1,0.1,-0.2,0.2,-0.2,0.3l-0.1,0c0.1,-0.1,0.2,-0.2,0.2,-0.3l0.1,0Z" class="g1_1" />
<path d="M108.5,118.1l0.1,0c0.1,0,0.1,0,0.1,0.2c0,-0.1,-0.1,-0.1,-0.2,-0.2Z" class="g1_1" />
<path d="M92.6,143.1c0.1,-0.1,0.2,-0.3,0.2,-0.4l0.1,0c-0.1,0.1,-0.2,0.3,-0.3,0.4Z" class="g1_1" />
<path d="M94.3,127.5c0.1,0.1,0.2,0.2,0.2,0.3l-0.2,-0.3Z" class="g1_1" />
<path d="M89,143.3c0.1,-0.1,0.2,-0.2,0.2,-0.3c0,0,0.1,0,0.1,0c-0.1,0.1,-0.2,0.3,-0.2,0.4c-0.1,0,-0.1,0,-0.1,-0.1Z" class="g1_1" />
<path d="M91.1,140.3c-0.1,0.1,-0.1,0.2,-0.2,0.2c0,-0.1,0.1,-0.2,0.1,-0.3c0,0.1,0.1,0.1,0.1,0.1Z" class="g1_1" />
<path d="M88.4,144.4c-0.1,0.1,-0.1,0.1,-0.1,0.2c0,0,-0.1,0,-0.1,0c0.1,-0.1,0.1,-0.2,0.1,-0.2c0.1,0,0.1,0,0.1,0Z" class="g1_1" />
<path d="M90.6,141c-0.1,0.1,-0.2,0.2,-0.2,0.3c0,0,-0.1,0,-0.1,0c0.1,-0.1,0.2,-0.2,0.2,-0.3l0.1,0Z" class="g1_1" />
<path d="M91,142.3c0,-0.1,0.1,-0.2,0.1,-0.3c0,0,0.1,0,0.1,0.1c-0.1,0,-0.1,0.1,-0.2,0.2Z" class="g1_1" />
<path d="M95.9,129.8c-0.1,-0.1,-0.2,-0.2,-0.2,-0.3c0.1,0.1,0.1,0.2,0.2,0.3Z" class="g1_1" />
<path d="M94.5,134.8c-0.1,0.1,-0.1,0.2,-0.2,0.2c0.1,-0.1,0.1,-0.1,0.2,-0.2Z" class="g1_1" />
<path d="M89.3,143c0,-0.1,0.1,-0.2,0.1,-0.3l0.1,0.1c-0.1,0,-0.2,0.1,-0.2,0.2Z" class="g1_1" />
<path d="M107,118.1c0.1,-0.1,0.2,-0.1,0.3,0Z" class="g1_1" />
<path d="M90.5,145.1c0.1,-0.1,0.1,-0.2,0.2,-0.3c-0.1,0.1,-0.1,0.2,-0.1,0.3c-0.1,0,-0.1,0,-0.1,0Z" class="g1_1" />
<path d="M92.5,138c0,-0.1,0.1,-0.1,0.1,-0.2c0,0.1,-0.1,0.2,-0.1,0.2Z" class="g1_1" />
<path d="M96.1,130.1C96.1,130,96,130,95.9,129.9c0,0,0.1,0,0.1,0c0,0,0.1,0.1,0.2,0.2c-0.1,0,-0.1,0,-0.1,0Z" class="g1_1" />
<path d="M101.4,130c-0.1,0.1,-0.1,0.2,-0.1,0.2c0,0,0,-0.1,0,-0.2l0.1,0Z" class="g1_1" />
<path d="M95.5,139.2c0,0.1,0,0.2,-0.1,0.3c0,-0.1,0.1,-0.2,0.1,-0.3Z" class="g1_1" />
<path d="M95.3,133.3c-0.1,0.1,-0.1,0.2,-0.2,0.3c0.1,-0.1,0.1,-0.2,0.2,-0.3Z" class="g1_1" />
<path d="M89.9,142.1c-0.1,0.1,-0.1,0.2,-0.2,0.3c0,-0.2,0.1,-0.2,0.2,-0.3Z" class="g1_1" />
<path d="M112,144.5c-0.1,-0.1,-0.1,-0.1,-0.2,-0.1c0,-0.1,0,-0.1,0,-0.1c0.1,0.1,0.2,0,0.2,0.2Z" class="g1_1" />
<path d="M93.6,135.9c0.1,-0.1,0.1,-0.1,0.2,-0.2c-0.1,0.1,-0.1,0.2,-0.2,0.2Z" class="g1_1" />
<path d="M91.3,140c-0.1,0,-0.1,0.1,-0.2,0.2c0,-0.1,0.1,-0.2,0.1,-0.3c0,0.1,0,0.1,0.1,0.1Z" class="g1_1" />
<path d="M93.7,126.6c0.1,0.1,0.1,0.2,0.2,0.2c-0.1,0,-0.2,-0.1,-0.2,-0.2Z" class="g1_1" />
<path d="M95.6,129.2c0,0,0.1,0.1,0.1,0.2c-0.1,-0.1,-0.1,-0.1,-0.1,-0.2Z" class="g1_1" />
<path d="M89.9,142.1c0,-0.1,0,-0.2,0.1,-0.2c0,0.1,-0.1,0.1,-0.1,0.2Z" class="g1_1" />
<path d="M111.7,143.3c0,0,0.1,0.1,0.2,0.1c0,0.1,0,0.1,0,0.1c-0.1,-0.1,-0.2,-0.1,-0.2,-0.2Z" class="g1_1" />
<path d="M93.6,126.2c0,0.1,0.1,0.1,0.1,0.2c-0.1,0,-0.1,-0.1,-0.1,-0.1c0,0,0,-0.1,0,-0.1Z" class="g1_1" />
<path d="M96.3,130.2c0.1,0,0.1,0.1,0.2,0.1c0,0,0,0.1,0,0.1l-0.2,-0.3l0,0.1Z" class="g1_1" />
<path d="M91.6,139.4c0,0,0,0.1,-0.1,0.1c0,0,0.1,-0.1,0.1,-0.1Z" class="g1_1" />
<path d="M91.9,141.1c0,0.1,0,0.2,0,0.2c0,0,-0.1,0,-0.1,0c0.1,-0.1,0.1,-0.1,0.1,-0.2Z" class="g1_1" />
<path d="M95.8,132.6c-0.1,0.1,-0.1,0.2,-0.2,0.2c0.1,0,0.1,-0.1,0.1,-0.2c0.1,0,0.1,0,0.1,0Z" class="g1_1" />
<path d="M96.3,130.1c0,0,-0.1,-0.1,-0.2,-0.1c0.1,0,0.1,0,0.1,-0.1c0,0.1,0.1,0.2,0.1,0.3l0,-0.1Z" class="g1_1" />
<path d="M92.4,143.7c-0.1,0,-0.1,0.1,-0.1,0.1c0,0,-0.1,0,-0.1,-0.1c0.1,0,0.1,0,0.2,0Z" class="g1_1" />
<path d="M95.4,129.1c0.1,0.1,0.1,0.1,0.1,0.2c0,0,-0.1,-0.1,-0.1,-0.1l0,-0.1Z" class="g1_1" />
<path d="M111.5,143.9c0,0,0,0.1,0.1,0.1c-0.1,0,-0.1,0,-0.2,-0.1l0.1,0Z" class="g1_1" />
<path d="M90.8,121.7c0,-0.1,0,-0.1,0,-0.2c0,0.1,0.1,0.1,0.1,0.2l-0.1,0Z" class="g1_1" />
<path d="M92.9,125.7c0,-0.1,0,-0.1,0,-0.2c0,0.1,0,0.1,0.1,0.2c0,0,-0.1,0,-0.1,0Z" class="g1_1" />
<path d="M95.4,128.9c0,0.1,0,0.1,0.1,0.2l-0.1,0c0,-0.1,0,-0.1,0,-0.2Z" class="g1_1" />
<path d="M92.6,143.1c0,0.1,-0.1,0.1,-0.1,0.2c0,-0.1,0.1,-0.1,0.1,-0.2Z" class="g1_1" />
<path d="M92.4,138.1c0,0.1,0,0.1,-0.1,0.2c0,-0.1,0.1,-0.1,0.1,-0.2Z" class="g1_1" />
<path d="M102.4,136.7l-0.1,0c0,-0.1,0,-0.1,-0.1,-0.2c0.1,0,0.1,0.1,0.2,0.2Z" class="g1_1" />
<path d="M101,122.4c0,0,0,0.1,0,0.1c-0.1,0.1,-0.2,0.3,-0.2,0.4c-0.1,0.1,-0.1,0.2,-0.2,0.3c0.1,-0.3,0.2,-0.5,0.4,-0.8Z" class="g1_1" />
<path d="M100.3,123.9c0.1,-0.2,0.2,-0.4,0.3,-0.6c0,0.3,-0.2,0.4,-0.3,0.6Z" class="g1_1" />
<path d="M98.7,127.3c-0.1,0.1,-0.1,0.2,-0.1,0.3c-0.1,0.1,-0.2,0.2,-0.2,0.3c0.1,-0.2,0.1,-0.4,0.2,-0.5c0,-0.1,0.1,-0.1,0.1,-0.1Z" class="g1_1" />
<path d="M101.1,122.1c0,-0.2,0.1,-0.4,0.2,-0.5c-0.1,0.1,-0.1,0.3,-0.2,0.5Z" class="g1_1" />
<path d="M100.3,124.1c-0.1,0.1,-0.1,0.2,-0.2,0.3c0,-0.1,0.1,-0.2,0.2,-0.4c0,0,0,0.1,0,0.1Z" class="g1_1" />
<path d="M100.2,117.4c0.1,0,0.2,0,0.2,0c0,0,0,0.1,0,0.1l-0.2,0c0,0,0,-0.1,0,-0.1Z" class="g1_1" />
<path d="M94.2,120.2c0,0.1,0.1,0.2,0.1,0.3c-0.1,0,-0.1,-0.1,-0.1,-0.3Z" class="g1_1" />
<path d="M99.9,124.8c0.1,-0.1,0.1,-0.2,0.1,-0.3c0.1,0,0.1,0.1,0.1,0.1c-0.1,0,-0.1,0.1,-0.1,0.2c-0.1,0,-0.1,0,-0.1,0Z" class="g1_1" />
<path d="M99.6,125.6c0,-0.1,0,-0.2,0.1,-0.2c0,0.1,-0.1,0.1,-0.1,0.2Z" class="g1_1" />
<path d="M101,122.4c0,-0.1,0,-0.2,0,-0.3c0.1,0.1,0,0.2,0,0.3Z" class="g1_1" />
<path d="M99.9,125l-0.1,0.2l-0.1,0L99.8,125c0,0,0.1,0,0.1,0Z" class="g1_1" />
<path d="M98.7,127.4c0,0.1,0,0.1,0,0.1c0,0,0.1,0,0.1,0.1c0,0,-0.1,0,-0.1,0c0,0,0,-0.1,0,-0.1l0,-0.1Z" class="g1_1" />
<path d="M101.1,135.4c0.1,0.1,0.2,0.1,0.2,0.2c-0.1,0,-0.2,-0.1,-0.2,-0.2Z" class="g1_1" />
<path d="M101.4,135.7c0,0,0.1,0.1,0.1,0.1c0,0,-0.1,0,-0.1,-0.1Z" class="g1_1" />
<path d="M109,142.2c-0.1,-0.1,-0.3,-0.2,-0.4,-0.3c-0.1,-0.1,-0.2,-0.2,-0.3,-0.2c0.1,0,0.1,0,0.1,0c0.2,0.1,0.4,0.2,0.5,0.4c0.1,0,0.1,0,0.1,0.1Z" class="g1_1" />
<path d="M181.7,121.9l7.3,6.7" class="g2_1" />
<path d="M181.7,135.4l7.3,-6.7" class="g2_1" />
<g clip-path="url(#c1_1)">
<path d="M55.2,52.1L35.3,4.3C35.1,3.9,34.9,3.4,34.8,3.1C34.6,2.7,34.5,2.3,34.3,1.8C34.2,2.3,34,2.7,33.9,3.1C33.8,3.4,33.6,3.9,33.4,4.3L13.5,52.1ZM68.7,80.9l-1.1,0c-0.3,0,-0.6,-0.2,-0.7,-0.6L55.7,53.3L13,53.3L1.7,80.3C1.6,80.7,1.3,80.9,0.9,80.9L0,80.9L33.8,0l1.1,0Z" class="g1_1" />
<path d="M97.9,46.5l0,42.1l-1.4,0l0,-42.1L66.3,0l1.2,0c0.3,0,0.6,0.2,0.8,0.5L95.5,42.7c0.3,0.5,0.6,0.9,0.9,1.4c0.3,0.4,0.6,0.9,0.8,1.3c0.2,-0.4,0.5,-0.9,0.7,-1.3c0.3,-0.5,0.6,-0.9,0.9,-1.4L126.1,0.5C126.3,0.2,126.5,0,126.9,0L128,0Z" class="g1_1" />
<path d="M180.9,52.1L160.9,4.3C160.7,3.9,160.6,3.4,160.4,3.1C160.3,2.7,160.1,2.3,160,1.8c-0.2,0.5,-0.3,0.9,-0.4,1.3c-0.2,0.3,-0.3,0.8,-0.5,1.2l-20,47.8Zm13.4,28.8l-1,0c-0.4,0,-0.6,-0.2,-0.7,-0.6l-11.3,-27l-42.6,0l-11.3,27c-0.1,0.4,-0.4,0.6,-0.8,0.6l-0.9,0L159.4,0l1.2,0Z" class="g1_1" />
</g>
<path d="M19.7,122.2L12.4,129" class="g2_1" />
<path d="M19.7,135.7L12.4,129" class="g2_1" />

<defs>
	<path d="M404.9,-10.6c0,0,-73.4,0,-134.5,25.9c0,0,-62.6,27.5,-108.5,77.9c0,0,-45.8,50.4,-71.8,123.7c0,0,-25.9,74.9,-25.9,169.6c0,0,0,87.1,22.9,160.4c0,0,24.4,73.4,70.3,125.3c0,0,47.3,53.5,114.5,82.5c0,0,67.3,30.6,155.9,30.6c0,0,81,0,143.6,-26c0,0,62.6,-26,110,-74.9L646.3,635.6c0,0,-6.2,-7.7,-12.3,-12.3c0,0,-6.1,-4.5,-16.8,-4.5c0,0,-12.2,0,-25.9,9.1c0,0,-13.8,9.2,-33.7,19.9c0,0,-19.8,12.2,-48.8,21.4c0,0,-30.6,10.7,-73.4,10.7c0,0,-56.5,0,-99.3,-19.9c0,0,-44.3,-21.4,-73.3,-59.6c0,0,-30.6,-38.2,-44.3,-91.6c0,0,-15.3,-55,-15.3,-122.3c0,0,0,-70.2,15.3,-123.7c0,0,16.8,-55,45.8,-91.7c0,0,29,-38.2,70.3,-56.5c0,0,42.8,-19.9,94.7,-19.9c0,0,48.9,0,81,10.7c0,0,32.1,12.2,53.5,26c0,0,21.3,15.3,35.1,27.5c0,0,13.7,12.2,27.5,12.2c0,0,16.8,0,26,-13.7l38.2,-48.9c0,0,-24.5,-32.1,-56.6,-53.5c0,0,-32.1,-22.9,-68.7,-36.7c0,0,-38.2,-15.2,-77.9,-21.3c0,0,-41.3,-7.6,-82.5,-7.6Z" 
	id="C2_0_50"
	 />

	<path d="M106.9,0l0,773.1l78,0c0,0,22.9,0,30.5,-7.7c0,0,9.2,-9.1,12.2,-29l9.2,-117.6c0,0,36.7,79.4,90.1,123.7c0,0,53.5,44.3,129.9,44.3c0,0,24.5,0,47.4,-4.6c0,0,22.9,-6.1,39.7,-16.8L534.7,663.1c0,0,-4.6,-18.4,-22.9,-18.4c0,0,-10.7,0,-30.5,4.6c0,0,-21.4,4.6,-47.4,4.6c0,0,-36.7,0,-65.7,-10.7c0,0,-29,-10.7,-50.4,-32.1c0,0,-22.9,-21.4,-41.3,-51.9c0,0,-18.3,-30.6,-32.1,-70.3L244.4,0Z" 
	id="C2_0_118"
	 />

	<path d="M624.9,470.6c0,0,0,47.3,-12.3,87c0,0,-13.7,39.8,-39.7,67.3c0,0,-26,29,-62.6,44.3c0,0,-36.7,16.8,-82.5,16.8c0,0,-97.8,0,-154.3,-56.6c0,0,-58.1,-58,-71.8,-158.8ZM432.4,-10.6c0,0,-81,0,-148.2,25.9c0,0,-67.3,27.5,-116.1,79.4c0,0,-50.5,53.5,-78,129.9c0,0,-27.5,77.9,-27.5,177.2c0,0,0,81,24.5,151.3c0,0,26,70.2,71.8,122.2c0,0,47.4,51.9,114.6,81c0,0,67.2,29,151.2,29c0,0,68.8,0,128.4,-22.9c0,0,59.5,-23,102.3,-67.3c0,0,42.8,-44.3,67.2,-108.4c0,0,24.5,-64.2,24.5,-146.7c0,0,0,-32.1,-6.1,-42.8c0,0,-7.7,-10.7,-26,-10.7l-517.9,0c0,0,3,-73.3,19.8,-126.8c0,0,18.4,-55,50.5,-91.6c0,0,32,-36.7,76.4,-53.5c0,0,44.3,-18.3,99.3,-18.3c0,0,51.9,0,88.6,10.6c0,0,36.6,12.3,62.6,26c0,0,27.5,13.8,45.8,26c0,0,18.4,12.2,30.6,12.2c0,0,16.8,0,26,-13.7l38.2,-48.9c0,0,-24.5,-30.6,-59.6,-53.5c0,0,-35.2,-22.9,-74.9,-36.7c0,0,-41.2,-15.2,-84,-21.3c0,0,-42.8,-7.6,-84,-7.6Z" 
	id="C2_0_60"
	 />

	<path d="M307.1,82.5c0,0,36.7,0,65.7,7.6c0,0,30.5,7.7,56.5,21.4c0,0,26,13.8,50.4,32.1c0,0,24.5,19.9,47.4,44.3l0,160.4c0,0,-94.7,-3,-160.4,-15.2c0,0,-65.7,-12.3,-107,-30.6c0,0,-42.8,-19.9,-61.1,-45.8c0,0,-18.3,-26,-18.3,-58.1c0,0,0,-30.5,9.1,-51.9c0,0,10.7,-22.9,27.5,-36.7c0,0,16.9,-13.7,39.8,-19.9c0,0,24.4,-7.6,50.4,-7.6ZM267.4,-12.1c0,0,-45.9,0,-85.6,12.1c0,0,-39.7,12.2,-68.7,36.7c0,0,-29.1,25.9,-45.9,64.1c0,0,-18.3,39.8,-18.3,91.7c0,0,0,45.8,24.4,88.6c0,0,26,42.8,82.5,74.9c0,0,56.6,33.6,146.7,53.4c0,0,91.7,21.4,224.6,24.5l0,61.1c0,0,0,90.1,-38.2,136c0,0,-39.7,45.8,-114.6,45.8c0,0,-50.4,0,-84,-12.2c0,0,-35.2,-12.2,-59.6,-27.5c0,0,-24.4,-16.8,-42.8,-29c0,0,-18.3,-12.3,-35.1,-12.3c0,0,-13.8,0,-22.9,6.1c0,0,-10.7,7.7,-18.4,18.4L87.1,664.6c0,0,64.2,61.1,137.5,91.7c0,0,74.8,30.5,165,30.5c0,0,65.7,0,116.1,-21.4c0,0,50.4,-21.4,84,-59.6c0,0,35.2,-38.2,52,-91.6c0,0,18.3,-55,18.3,-119.2L660,0L598.9,0c0,0,-19.9,0,-30.6,6.1c0,0,-10.7,6.1,-16.8,26l-15.2,73.3c0,0,-30.6,-29,-59.6,-50.4c0,0,-29.1,-21.4,-61.1,-36.7c0,0,-32.1,-15.2,-67.3,-22.8c0,0,-36.6,-7.6,-80.9,-7.6Z" 
	id="C2_0_46"
	 />

	<path d="M345.3,-12.1c0,0,-91.7,0,-140.6,50.3c0,0,-50.4,51.9,-50.4,148.2l0,473.6l-93.2,0c0,0,-12.2,0,-19.8,6.1c0,0,-9.2,7.7,-9.2,22.9l0,55l126.8,16.8L191,999.2c0,0,1.5,10.7,9.1,18.3c0,0,9.2,7.6,21.4,7.6l68.8,0l0,-267.3l534.7,0L825,0L689,0l0,660l-398.7,0l0,-464.4c0,0,0,-48.9,22.9,-71.8c0,0,24.4,-24.5,62.6,-24.5c0,0,21.4,0,36.7,4.6c0,0,15.3,6.1,26,12.2c0,0,12.2,7.7,19.8,13.8c0,0,9.2,6.1,15.3,6.1c0,0,10.7,0,18.3,-13.8L531.7,58.1c0,0,-35.2,-33.7,-84.1,-52c0,0,-50.4,-18.2,-102.3,-18.2ZM760.8,925.8c0,0,-19.8,0,-36.6,7.7c0,0,-16.8,7.6,-29.1,19.8c0,0,-13.7,13.8,-21.3,30.6c0,0,-7.7,18.3,-7.7,38.2c0,0,0,19.8,7.7,36.7c0,0,7.6,18.3,19.8,32c0,0,13.8,13.8,30.6,21.4c0,0,16.8,7.7,36.6,7.7c0,0,19.9,0,36.7,-7.7c0,0,18.3,-7.6,32.1,-21.4c0,0,13.7,-13.7,21.4,-30.5c0,0,7.6,-18.4,7.6,-38.2c0,0,0,-19.9,-7.6,-36.7c0,0,-7.7,-18.3,-21.4,-30.5c0,0,-13.8,-13.8,-30.6,-21.4c0,0,-18.3,-7.7,-38.2,-7.7Z" 
	id="C2_0_2463"
	 />

	<path d="M333.1,0L16.8,773.1l111.5,0c0,0,16.8,0,27.5,-7.7c0,0,10.7,-9.1,13.8,-19.8L366.7,247.5c0,0,9.1,-29,15.2,-55c0,0,7.7,-27.5,13.8,-53.5c0,0,6.1,26,12.2,52c0,0,7.7,27.5,16.8,56.5L623.3,745.6c0,0,4.6,12.2,15.3,19.8c0,0,10.7,7.7,26,7.7l105.4,0L455.3,0Z" 
	id="C2_0_137"
	 />

	<path d="M424.7,94.7c0,0,108.5,0,166.6,76.4c0,0,58,77.9,58,220c0,0,0,76.4,-12.2,129.9c0,0,-13.8,55,-38.2,88.6c0,0,-26,35.1,-62.6,50.4c0,0,-36.7,16.8,-84.1,16.8c0,0,-65.7,0,-116.1,-30.5c0,0,-50.4,-30.6,-91.7,-85.6l0,-374.3c0,0,36.7,-50.4,81,-70.3c0,0,44.3,-21.4,99.3,-21.4ZM106.9,-261.2l0,1034.3l82.5,0c0,0,29.1,0,35.2,-27.5l12.2,-91.7c0,0,48.9,59.6,113.1,96.2c0,0,64.1,36.7,146.6,36.7c0,0,67.3,0,120.7,-24.4c0,0,55,-26,93.2,-76.4c0,0,38.2,-50.4,58.1,-123.8c0,0,21.4,-74.8,21.4,-171.1c0,0,0,-85.5,-23,-158.9c0,0,-22.9,-73.3,-65.6,-126.8c0,0,-42.8,-55,-105.5,-85.5c0,0,-62.6,-30.5,-140.5,-30.5c0,0,-70.3,0,-120.7,22.8c0,0,-52,24.5,-90.2,67.2l0,-340.6Z" 
	id="TT0_115"
	 />

	<path d="M624.9,470.6c0,0,0,47.3,-12.3,87c0,0,-13.7,39.8,-39.7,67.3c0,0,-26,29,-62.6,44.3c0,0,-36.7,16.8,-82.5,16.8c0,0,-97.8,0,-154.3,-56.6c0,0,-58.1,-58,-71.8,-158.8ZM432.4,-10.6c0,0,-81,0,-148.2,25.9c0,0,-67.3,27.5,-116.1,79.4c0,0,-50.5,53.5,-78,129.9c0,0,-27.5,77.9,-27.5,177.2c0,0,0,81,24.5,151.3c0,0,26,70.2,71.8,122.2c0,0,47.4,51.9,114.6,81c0,0,67.2,29,151.2,29c0,0,68.8,0,128.4,-22.9c0,0,59.5,-23,102.3,-67.3c0,0,42.8,-44.3,67.2,-108.4c0,0,24.5,-64.2,24.5,-146.7c0,0,0,-32.1,-6.1,-42.8c0,0,-7.7,-10.7,-26,-10.7l-517.9,0c0,0,3,-73.3,19.8,-126.8c0,0,18.4,-55,50.5,-91.6c0,0,32,-36.7,76.4,-53.5c0,0,44.3,-18.3,99.3,-18.3c0,0,51.9,0,88.6,10.6c0,0,36.6,12.3,62.6,26c0,0,27.5,13.8,45.8,26c0,0,18.4,12.2,30.6,12.2c0,0,16.8,0,26,-13.7l38.2,-48.9c0,0,-24.5,-30.6,-59.6,-53.5c0,0,-35.2,-22.9,-74.9,-36.7c0,0,-41.2,-15.2,-84,-21.3c0,0,-42.8,-7.6,-84,-7.6Z" 
	id="TT0_60"
	 />

	<path d="M106.9,0l0,773.1l78,0c0,0,22.9,0,30.5,-7.7c0,0,9.2,-9.1,12.2,-29l9.2,-117.6c0,0,36.7,79.4,90.1,123.7c0,0,53.5,44.3,129.9,44.3c0,0,24.5,0,47.4,-4.6c0,0,22.9,-6.1,39.7,-16.8L534.7,663.1c0,0,-4.6,-18.4,-22.9,-18.4c0,0,-10.7,0,-30.5,4.6c0,0,-21.4,4.6,-47.4,4.6c0,0,-36.7,0,-65.7,-10.7c0,0,-29,-10.7,-50.4,-32.1c0,0,-22.9,-21.4,-41.3,-51.9c0,0,-18.3,-30.6,-32.1,-70.3L244.4,0Z" 
	id="TT0_118"
	 />

	<path d="M114.6,0l0,773.1l136,0L250.6,0Zm67.2,919.7c0,0,-19.9,0,-36.7,7.7c0,0,-18.3,7.6,-30.5,21.4c0,0,-13.8,13.7,-21.4,30.5c0,0,-7.6,16.8,-7.6,36.7c0,0,0,19.8,7.6,38.2c0,0,7.6,18.3,19.9,30.5c0,0,13.7,13.8,30.5,21.4c0,0,18.3,7.7,38.2,7.7c0,0,19.9,0,36.7,-7.7c0,0,18.3,-7.6,32.1,-19.8c0,0,13.7,-13.8,21.3,-32.1c0,0,7.7,-18.4,7.7,-38.2c0,0,0,-19.9,-7.7,-36.7c0,0,-7.6,-16.8,-21.3,-30.5c0,0,-13.8,-13.8,-30.6,-21.4c0,0,-18.3,-7.7,-38.2,-7.7Z" 
	id="TT0_99"
	 />

	<path d="M106.9,0l0,773.1l82.5,0c0,0,29.1,0,35.2,-27.5l10.7,-84.1c0,0,26,27.5,53.5,50.4c0,0,29,23,59.5,39.8c0,0,32.1,16.8,67.3,24.4c0,0,36.6,9.2,77.9,9.2c0,0,62.6,0,111.5,-19.9c0,0,48.9,-21.4,81,-59.6c0,0,32.1,-39.7,48.9,-93.2c0,0,16.8,-55,16.8,-120.7L751.7,0l-136,0l0,491.9c0,0,0,88.7,-39.7,136c0,0,-41.3,48.9,-122.2,48.9c0,0,-61.2,0,-113.1,-29c0,0,-51.9,-29,-96.3,-77.9L244.4,0Z" 
	id="TT0_110"
	 />

	<path d="M404.9,-10.6c0,0,-73.4,0,-134.5,25.9c0,0,-62.6,27.5,-108.5,77.9c0,0,-45.8,50.4,-71.8,123.7c0,0,-25.9,74.9,-25.9,169.6c0,0,0,87.1,22.9,160.4c0,0,24.4,73.4,70.3,125.3c0,0,47.3,53.5,114.5,82.5c0,0,67.3,30.6,155.9,30.6c0,0,81,0,143.6,-26c0,0,62.6,-26,110,-74.9L646.3,635.6c0,0,-6.2,-7.7,-12.3,-12.3c0,0,-6.1,-4.5,-16.8,-4.5c0,0,-12.2,0,-25.9,9.1c0,0,-13.8,9.2,-33.7,19.9c0,0,-19.8,12.2,-48.8,21.4c0,0,-30.6,10.7,-73.4,10.7c0,0,-56.5,0,-99.3,-19.9c0,0,-44.3,-21.4,-73.3,-59.6c0,0,-30.6,-38.2,-44.3,-91.6c0,0,-15.3,-55,-15.3,-122.3c0,0,0,-70.2,15.3,-123.7c0,0,16.8,-55,45.8,-91.7c0,0,29,-38.2,70.3,-56.5c0,0,42.8,-19.9,94.7,-19.9c0,0,48.9,0,81,10.7c0,0,32.1,12.2,53.5,26c0,0,21.3,15.3,35.1,27.5c0,0,13.7,12.2,27.5,12.2c0,0,16.8,0,26,-13.7l38.2,-48.9c0,0,-24.5,-32.1,-56.6,-53.5c0,0,-32.1,-22.9,-68.7,-36.7c0,0,-38.2,-15.2,-77.9,-21.3c0,0,-41.3,-7.6,-82.5,-7.6Z" 
	id="TT0_50"
	 />


</defs>

<!-- Any embedded fonts defined here -->
<style type="text/css" ><![CDATA[

@font-face {
	font-family: Lato-Regular_81;
	src: url("fonts/Lato-Regular_8.woff") format("woff");
}

@font-face {
	font-family: Lato-Regular_n1;
	src: url("fonts/Lato-Regular_n.woff") format("woff");
}

]]></style>

<title>AYA-LogoAsset 7 1 Page1</title>
</svg>
