<svg xmlns="http://www.w3.org/2000/svg" xmlns:xlink="http://www.w3.org/1999/xlink" preserveAspectRatio="xMidYMid" width="987" height="1459" viewBox="0 0 987 1459">
  <defs>
    <style>
      .cls-1 {
        fill: lime;
      }

      .cls-1, .cls-2, .cls-3 {
        fill-rule: evenodd;
      }

      .cls-2 {
        fill: blue;
      }

      .cls-3 {
        fill: red;
      }
    </style>
  </defs>
  <path d="M988.000,722.000 C988.000,722.000 912.803,721.109 739.000,834.500 C565.197,947.891 496.000,1088.000 496.000,1088.000 C496.000,1088.000 578.480,1221.805 737.254,1336.000 C896.028,1450.195 988.000,1452.000 988.000,1452.000 L988.000,722.000 Z" class="cls-1"/>
  <path d="M988.000,1.000 C988.000,1.000 912.803,0.109 739.000,113.500 C565.197,226.891 496.000,367.000 496.000,367.000 C496.000,367.000 578.480,500.805 737.254,615.000 C896.028,729.195 988.000,731.000 988.000,731.000 L988.000,1.000 Z" class="cls-2"/>
  <path d="M500.000,361.000 C500.000,361.000 424.803,360.109 251.000,473.500 C77.197,586.891 8.000,727.000 8.000,727.000 C8.000,727.000 90.480,860.805 249.254,975.000 C408.028,1089.195 500.000,1091.000 500.000,1091.000 C500.000,1091.000 643.108,1068.186 770.000,982.000 C895.601,896.691 1005.000,748.000 1005.000,748.000 C1005.000,748.000 968.070,620.500 812.000,494.000 C655.930,367.500 500.000,361.000 500.000,361.000 Z" class="cls-3"/>
</svg>
