<svg xmlns="http://www.w3.org/2000/svg" xmlns:xlink="http://www.w3.org/1999/xlink" preserveAspectRatio="xMidYMid"
     width="987" height="1459" viewBox="0 0 987 1459">
    <defs>
        <style>
            .cls-1, .cls-2, .cls-3 {
            fill-rule: evenodd;
            }

            .cls-1 {
            fill: #b5b5b5;
            }

            .cls-2 {
            fill: #b5b5b5;
            }

            .cls-3 {
            fill: #ffffff;
            }
        </style>
        <mask id="scale-mask">
            <path d="M-1.000,722.000 C-1.000,722.000 74.197,721.109 248.000,834.500 C421.803,947.891 491.000,1088.000 491.000,1088.000 C491.000,1088.000 408.520,1221.805 249.746,1336.000 C90.972,1450.195 -1.000,1452.000 -1.000,1452.000 L-1.000,722.000 Z" class="cls-1"/>
            <path d="M-1.000,1.000 C-1.000,1.000 74.197,0.109 248.000,113.500 C421.803,226.891 491.000,367.000 491.000,367.000 C491.000,367.000 408.520,500.805 249.746,615.000 C90.972,729.195 -1.000,731.000 -1.000,731.000 L-1.000,1.000 Z" class="cls-2"/>
            <path d="M487.000,361.000 C487.000,361.000 562.197,360.109 736.000,473.500 C909.803,586.891 979.000,727.000 979.000,727.000 C979.000,727.000 896.520,860.805 737.746,975.000 C578.972,1089.195 487.000,1091.000 487.000,1091.000 C487.000,1091.000 343.892,1068.186 217.000,982.000 C91.399,896.691 -18.000,748.000 -18.000,748.000 C-18.000,748.000 18.930,620.500 175.000,494.000 C331.070,367.500 487.000,361.000 487.000,361.000 Z" class="cls-3"/>
        </mask>
    </defs>
    <image mask="url(#scale-mask)" width="100%" height="100%" y="0" x="0" xlink:href="img/photo-tmp2.jpeg" preserveAspectRatio="xMinYMin slice"/>
</svg>
